<?xml version="1.0" encoding="utf-8" standalone="no"?>
<!DOCTYPE svg PUBLIC "-//W3C//DTD SVG 1.1//EN"
  "http://www.w3.org/Graphics/SVG/1.1/DTD/svg11.dtd">
<svg xmlns:xlink="http://www.w3.org/1999/xlink" width="568.380937pt" height="280.474375pt" viewBox="0 0 568.380937 280.474375" xmlns="http://www.w3.org/2000/svg" version="1.1">
 <metadata>
  <rdf:RDF xmlns:dc="http://purl.org/dc/elements/1.1/" xmlns:cc="http://creativecommons.org/ns#" xmlns:rdf="http://www.w3.org/1999/02/22-rdf-syntax-ns#">
   <cc:Work>
    <dc:type rdf:resource="http://purl.org/dc/dcmitype/StillImage"/>
    <dc:date>2025-06-03T07:58:56.369900</dc:date>
    <dc:format>image/svg+xml</dc:format>
    <dc:creator>
     <cc:Agent>
      <dc:title>Matplotlib v3.10.0, https://matplotlib.org/</dc:title>
     </cc:Agent>
    </dc:creator>
   </cc:Work>
  </rdf:RDF>
 </metadata>
 <defs>
  <style type="text/css">*{stroke-linejoin: round; stroke-linecap: butt}</style>
 </defs>
 <g id="figure_1">
  <g id="patch_1">
   <path d="M 0 280.474375 
L 568.380937 280.474375 
L 568.380937 0 
L 0 0 
z
" style="fill: #ffffff"/>
  </g>
  <g id="axes_1">
   <g id="patch_2">
    <path d="M 52.160938 242.918125 
L 561.180937 242.918125 
L 561.180937 22.318125 
L 52.160938 22.318125 
z
" style="fill: #ffffff"/>
   </g>
   <g id="matplotlib.axis_1">
    <g id="xtick_1">
     <g id="line2d_1">
      <path d="M 75.29821 242.918125 
L 75.29821 22.318125 
" clip-path="url(#p23f368ba87)" style="fill: none; stroke: #b0b0b0; stroke-width: 0.8; stroke-linecap: square"/>
     </g>
     <g id="line2d_2">
      <defs>
       <path id="m083a346ff6" d="M 0 0 
L 0 3.5 
" style="stroke: #000000; stroke-width: 0.8"/>
      </defs>
      <g>
       <use xlink:href="#m083a346ff6" x="75.29821" y="242.918125" style="stroke: #000000; stroke-width: 0.8"/>
      </g>
     </g>
     <g id="text_1">
      <!-- 0.0 -->
      <g transform="translate(67.346648 257.516563) scale(0.1 -0.1)">
       <defs>
        <path id="DejaVuSans-30" d="M 2034 4250 
Q 1547 4250 1301 3770 
Q 1056 3291 1056 2328 
Q 1056 1369 1301 889 
Q 1547 409 2034 409 
Q 2525 409 2770 889 
Q 3016 1369 3016 2328 
Q 3016 3291 2770 3770 
Q 2525 4250 2034 4250 
z
M 2034 4750 
Q 2819 4750 3233 4129 
Q 3647 3509 3647 2328 
Q 3647 1150 3233 529 
Q 2819 -91 2034 -91 
Q 1250 -91 836 529 
Q 422 1150 422 2328 
Q 422 3509 836 4129 
Q 1250 4750 2034 4750 
z
" transform="scale(0.015625)"/>
        <path id="DejaVuSans-2e" d="M 684 794 
L 1344 794 
L 1344 0 
L 684 0 
L 684 794 
z
" transform="scale(0.015625)"/>
       </defs>
       <use xlink:href="#DejaVuSans-30"/>
       <use xlink:href="#DejaVuSans-2e" transform="translate(63.623047 0)"/>
       <use xlink:href="#DejaVuSans-30" transform="translate(95.410156 0)"/>
      </g>
     </g>
    </g>
    <g id="xtick_2">
     <g id="line2d_3">
      <path d="M 167.847301 242.918125 
L 167.847301 22.318125 
" clip-path="url(#p23f368ba87)" style="fill: none; stroke: #b0b0b0; stroke-width: 0.8; stroke-linecap: square"/>
     </g>
     <g id="line2d_4">
      <g>
       <use xlink:href="#m083a346ff6" x="167.847301" y="242.918125" style="stroke: #000000; stroke-width: 0.8"/>
      </g>
     </g>
     <g id="text_2">
      <!-- 0.2 -->
      <g transform="translate(159.895739 257.516563) scale(0.1 -0.1)">
       <defs>
        <path id="DejaVuSans-32" d="M 1228 531 
L 3431 531 
L 3431 0 
L 469 0 
L 469 531 
Q 828 903 1448 1529 
Q 2069 2156 2228 2338 
Q 2531 2678 2651 2914 
Q 2772 3150 2772 3378 
Q 2772 3750 2511 3984 
Q 2250 4219 1831 4219 
Q 1534 4219 1204 4116 
Q 875 4013 500 3803 
L 500 4441 
Q 881 4594 1212 4672 
Q 1544 4750 1819 4750 
Q 2544 4750 2975 4387 
Q 3406 4025 3406 3419 
Q 3406 3131 3298 2873 
Q 3191 2616 2906 2266 
Q 2828 2175 2409 1742 
Q 1991 1309 1228 531 
z
" transform="scale(0.015625)"/>
       </defs>
       <use xlink:href="#DejaVuSans-30"/>
       <use xlink:href="#DejaVuSans-2e" transform="translate(63.623047 0)"/>
       <use xlink:href="#DejaVuSans-32" transform="translate(95.410156 0)"/>
      </g>
     </g>
    </g>
    <g id="xtick_3">
     <g id="line2d_5">
      <path d="M 260.396392 242.918125 
L 260.396392 22.318125 
" clip-path="url(#p23f368ba87)" style="fill: none; stroke: #b0b0b0; stroke-width: 0.8; stroke-linecap: square"/>
     </g>
     <g id="line2d_6">
      <g>
       <use xlink:href="#m083a346ff6" x="260.396392" y="242.918125" style="stroke: #000000; stroke-width: 0.8"/>
      </g>
     </g>
     <g id="text_3">
      <!-- 0.4 -->
      <g transform="translate(252.44483 257.516563) scale(0.1 -0.1)">
       <defs>
        <path id="DejaVuSans-34" d="M 2419 4116 
L 825 1625 
L 2419 1625 
L 2419 4116 
z
M 2253 4666 
L 3047 4666 
L 3047 1625 
L 3713 1625 
L 3713 1100 
L 3047 1100 
L 3047 0 
L 2419 0 
L 2419 1100 
L 313 1100 
L 313 1709 
L 2253 4666 
z
" transform="scale(0.015625)"/>
       </defs>
       <use xlink:href="#DejaVuSans-30"/>
       <use xlink:href="#DejaVuSans-2e" transform="translate(63.623047 0)"/>
       <use xlink:href="#DejaVuSans-34" transform="translate(95.410156 0)"/>
      </g>
     </g>
    </g>
    <g id="xtick_4">
     <g id="line2d_7">
      <path d="M 352.945483 242.918125 
L 352.945483 22.318125 
" clip-path="url(#p23f368ba87)" style="fill: none; stroke: #b0b0b0; stroke-width: 0.8; stroke-linecap: square"/>
     </g>
     <g id="line2d_8">
      <g>
       <use xlink:href="#m083a346ff6" x="352.945483" y="242.918125" style="stroke: #000000; stroke-width: 0.8"/>
      </g>
     </g>
     <g id="text_4">
      <!-- 0.6 -->
      <g transform="translate(344.99392 257.516563) scale(0.1 -0.1)">
       <defs>
        <path id="DejaVuSans-36" d="M 2113 2584 
Q 1688 2584 1439 2293 
Q 1191 2003 1191 1497 
Q 1191 994 1439 701 
Q 1688 409 2113 409 
Q 2538 409 2786 701 
Q 3034 994 3034 1497 
Q 3034 2003 2786 2293 
Q 2538 2584 2113 2584 
z
M 3366 4563 
L 3366 3988 
Q 3128 4100 2886 4159 
Q 2644 4219 2406 4219 
Q 1781 4219 1451 3797 
Q 1122 3375 1075 2522 
Q 1259 2794 1537 2939 
Q 1816 3084 2150 3084 
Q 2853 3084 3261 2657 
Q 3669 2231 3669 1497 
Q 3669 778 3244 343 
Q 2819 -91 2113 -91 
Q 1303 -91 875 529 
Q 447 1150 447 2328 
Q 447 3434 972 4092 
Q 1497 4750 2381 4750 
Q 2619 4750 2861 4703 
Q 3103 4656 3366 4563 
z
" transform="scale(0.015625)"/>
       </defs>
       <use xlink:href="#DejaVuSans-30"/>
       <use xlink:href="#DejaVuSans-2e" transform="translate(63.623047 0)"/>
       <use xlink:href="#DejaVuSans-36" transform="translate(95.410156 0)"/>
      </g>
     </g>
    </g>
    <g id="xtick_5">
     <g id="line2d_9">
      <path d="M 445.494574 242.918125 
L 445.494574 22.318125 
" clip-path="url(#p23f368ba87)" style="fill: none; stroke: #b0b0b0; stroke-width: 0.8; stroke-linecap: square"/>
     </g>
     <g id="line2d_10">
      <g>
       <use xlink:href="#m083a346ff6" x="445.494574" y="242.918125" style="stroke: #000000; stroke-width: 0.8"/>
      </g>
     </g>
     <g id="text_5">
      <!-- 0.8 -->
      <g transform="translate(437.543011 257.516563) scale(0.1 -0.1)">
       <defs>
        <path id="DejaVuSans-38" d="M 2034 2216 
Q 1584 2216 1326 1975 
Q 1069 1734 1069 1313 
Q 1069 891 1326 650 
Q 1584 409 2034 409 
Q 2484 409 2743 651 
Q 3003 894 3003 1313 
Q 3003 1734 2745 1975 
Q 2488 2216 2034 2216 
z
M 1403 2484 
Q 997 2584 770 2862 
Q 544 3141 544 3541 
Q 544 4100 942 4425 
Q 1341 4750 2034 4750 
Q 2731 4750 3128 4425 
Q 3525 4100 3525 3541 
Q 3525 3141 3298 2862 
Q 3072 2584 2669 2484 
Q 3125 2378 3379 2068 
Q 3634 1759 3634 1313 
Q 3634 634 3220 271 
Q 2806 -91 2034 -91 
Q 1263 -91 848 271 
Q 434 634 434 1313 
Q 434 1759 690 2068 
Q 947 2378 1403 2484 
z
M 1172 3481 
Q 1172 3119 1398 2916 
Q 1625 2713 2034 2713 
Q 2441 2713 2670 2916 
Q 2900 3119 2900 3481 
Q 2900 3844 2670 4047 
Q 2441 4250 2034 4250 
Q 1625 4250 1398 4047 
Q 1172 3844 1172 3481 
z
" transform="scale(0.015625)"/>
       </defs>
       <use xlink:href="#DejaVuSans-30"/>
       <use xlink:href="#DejaVuSans-2e" transform="translate(63.623047 0)"/>
       <use xlink:href="#DejaVuSans-38" transform="translate(95.410156 0)"/>
      </g>
     </g>
    </g>
    <g id="xtick_6">
     <g id="line2d_11">
      <path d="M 538.043665 242.918125 
L 538.043665 22.318125 
" clip-path="url(#p23f368ba87)" style="fill: none; stroke: #b0b0b0; stroke-width: 0.8; stroke-linecap: square"/>
     </g>
     <g id="line2d_12">
      <g>
       <use xlink:href="#m083a346ff6" x="538.043665" y="242.918125" style="stroke: #000000; stroke-width: 0.8"/>
      </g>
     </g>
     <g id="text_6">
      <!-- 1.0 -->
      <g transform="translate(530.092102 257.516563) scale(0.1 -0.1)">
       <defs>
        <path id="DejaVuSans-31" d="M 794 531 
L 1825 531 
L 1825 4091 
L 703 3866 
L 703 4441 
L 1819 4666 
L 2450 4666 
L 2450 531 
L 3481 531 
L 3481 0 
L 794 0 
L 794 531 
z
" transform="scale(0.015625)"/>
       </defs>
       <use xlink:href="#DejaVuSans-31"/>
       <use xlink:href="#DejaVuSans-2e" transform="translate(63.623047 0)"/>
       <use xlink:href="#DejaVuSans-30" transform="translate(95.410156 0)"/>
      </g>
     </g>
    </g>
    <g id="text_7">
     <!-- x -->
     <g transform="translate(303.711562 271.194687) scale(0.1 -0.1)">
      <defs>
       <path id="DejaVuSans-78" d="M 3513 3500 
L 2247 1797 
L 3578 0 
L 2900 0 
L 1881 1375 
L 863 0 
L 184 0 
L 1544 1831 
L 300 3500 
L 978 3500 
L 1906 2253 
L 2834 3500 
L 3513 3500 
z
" transform="scale(0.015625)"/>
      </defs>
      <use xlink:href="#DejaVuSans-78"/>
     </g>
    </g>
   </g>
   <g id="matplotlib.axis_2">
    <g id="ytick_1">
     <g id="line2d_13">
      <path d="M 52.160938 234.604524 
L 561.180937 234.604524 
" clip-path="url(#p23f368ba87)" style="fill: none; stroke: #b0b0b0; stroke-width: 0.8; stroke-linecap: square"/>
     </g>
     <g id="line2d_14">
      <defs>
       <path id="m511a2f6a7b" d="M 0 0 
L -3.5 0 
" style="stroke: #000000; stroke-width: 0.8"/>
      </defs>
      <g>
       <use xlink:href="#m511a2f6a7b" x="52.160938" y="234.604524" style="stroke: #000000; stroke-width: 0.8"/>
      </g>
     </g>
     <g id="text_8">
      <!-- −0.2 -->
      <g transform="translate(20.878125 238.403743) scale(0.1 -0.1)">
       <defs>
        <path id="DejaVuSans-2212" d="M 678 2272 
L 4684 2272 
L 4684 1741 
L 678 1741 
L 678 2272 
z
" transform="scale(0.015625)"/>
       </defs>
       <use xlink:href="#DejaVuSans-2212"/>
       <use xlink:href="#DejaVuSans-30" transform="translate(83.789062 0)"/>
       <use xlink:href="#DejaVuSans-2e" transform="translate(147.412109 0)"/>
       <use xlink:href="#DejaVuSans-32" transform="translate(179.199219 0)"/>
      </g>
     </g>
    </g>
    <g id="ytick_2">
     <g id="line2d_15">
      <path d="M 52.160938 200.893328 
L 561.180937 200.893328 
" clip-path="url(#p23f368ba87)" style="fill: none; stroke: #b0b0b0; stroke-width: 0.8; stroke-linecap: square"/>
     </g>
     <g id="line2d_16">
      <g>
       <use xlink:href="#m511a2f6a7b" x="52.160938" y="200.893328" style="stroke: #000000; stroke-width: 0.8"/>
      </g>
     </g>
     <g id="text_9">
      <!-- 0.0 -->
      <g transform="translate(29.257813 204.692547) scale(0.1 -0.1)">
       <use xlink:href="#DejaVuSans-30"/>
       <use xlink:href="#DejaVuSans-2e" transform="translate(63.623047 0)"/>
       <use xlink:href="#DejaVuSans-30" transform="translate(95.410156 0)"/>
      </g>
     </g>
    </g>
    <g id="ytick_3">
     <g id="line2d_17">
      <path d="M 52.160938 167.182131 
L 561.180937 167.182131 
" clip-path="url(#p23f368ba87)" style="fill: none; stroke: #b0b0b0; stroke-width: 0.8; stroke-linecap: square"/>
     </g>
     <g id="line2d_18">
      <g>
       <use xlink:href="#m511a2f6a7b" x="52.160938" y="167.182131" style="stroke: #000000; stroke-width: 0.8"/>
      </g>
     </g>
     <g id="text_10">
      <!-- 0.2 -->
      <g transform="translate(29.257813 170.98135) scale(0.1 -0.1)">
       <use xlink:href="#DejaVuSans-30"/>
       <use xlink:href="#DejaVuSans-2e" transform="translate(63.623047 0)"/>
       <use xlink:href="#DejaVuSans-32" transform="translate(95.410156 0)"/>
      </g>
     </g>
    </g>
    <g id="ytick_4">
     <g id="line2d_19">
      <path d="M 52.160938 133.470935 
L 561.180937 133.470935 
" clip-path="url(#p23f368ba87)" style="fill: none; stroke: #b0b0b0; stroke-width: 0.8; stroke-linecap: square"/>
     </g>
     <g id="line2d_20">
      <g>
       <use xlink:href="#m511a2f6a7b" x="52.160938" y="133.470935" style="stroke: #000000; stroke-width: 0.8"/>
      </g>
     </g>
     <g id="text_11">
      <!-- 0.4 -->
      <g transform="translate(29.257813 137.270153) scale(0.1 -0.1)">
       <use xlink:href="#DejaVuSans-30"/>
       <use xlink:href="#DejaVuSans-2e" transform="translate(63.623047 0)"/>
       <use xlink:href="#DejaVuSans-34" transform="translate(95.410156 0)"/>
      </g>
     </g>
    </g>
    <g id="ytick_5">
     <g id="line2d_21">
      <path d="M 52.160938 99.759738 
L 561.180937 99.759738 
" clip-path="url(#p23f368ba87)" style="fill: none; stroke: #b0b0b0; stroke-width: 0.8; stroke-linecap: square"/>
     </g>
     <g id="line2d_22">
      <g>
       <use xlink:href="#m511a2f6a7b" x="52.160938" y="99.759738" style="stroke: #000000; stroke-width: 0.8"/>
      </g>
     </g>
     <g id="text_12">
      <!-- 0.6 -->
      <g transform="translate(29.257813 103.558957) scale(0.1 -0.1)">
       <use xlink:href="#DejaVuSans-30"/>
       <use xlink:href="#DejaVuSans-2e" transform="translate(63.623047 0)"/>
       <use xlink:href="#DejaVuSans-36" transform="translate(95.410156 0)"/>
      </g>
     </g>
    </g>
    <g id="ytick_6">
     <g id="line2d_23">
      <path d="M 52.160938 66.048541 
L 561.180937 66.048541 
" clip-path="url(#p23f368ba87)" style="fill: none; stroke: #b0b0b0; stroke-width: 0.8; stroke-linecap: square"/>
     </g>
     <g id="line2d_24">
      <g>
       <use xlink:href="#m511a2f6a7b" x="52.160938" y="66.048541" style="stroke: #000000; stroke-width: 0.8"/>
      </g>
     </g>
     <g id="text_13">
      <!-- 0.8 -->
      <g transform="translate(29.257813 69.84776) scale(0.1 -0.1)">
       <use xlink:href="#DejaVuSans-30"/>
       <use xlink:href="#DejaVuSans-2e" transform="translate(63.623047 0)"/>
       <use xlink:href="#DejaVuSans-38" transform="translate(95.410156 0)"/>
      </g>
     </g>
    </g>
    <g id="ytick_7">
     <g id="line2d_25">
      <path d="M 52.160938 32.337345 
L 561.180937 32.337345 
" clip-path="url(#p23f368ba87)" style="fill: none; stroke: #b0b0b0; stroke-width: 0.8; stroke-linecap: square"/>
     </g>
     <g id="line2d_26">
      <g>
       <use xlink:href="#m511a2f6a7b" x="52.160938" y="32.337345" style="stroke: #000000; stroke-width: 0.8"/>
      </g>
     </g>
     <g id="text_14">
      <!-- 1.0 -->
      <g transform="translate(29.257813 36.136564) scale(0.1 -0.1)">
       <use xlink:href="#DejaVuSans-31"/>
       <use xlink:href="#DejaVuSans-2e" transform="translate(63.623047 0)"/>
       <use xlink:href="#DejaVuSans-30" transform="translate(95.410156 0)"/>
      </g>
     </g>
    </g>
    <g id="text_15">
     <!-- Amplitude -->
     <g transform="translate(14.798438 158.240781) rotate(-90) scale(0.1 -0.1)">
      <defs>
       <path id="DejaVuSans-41" d="M 2188 4044 
L 1331 1722 
L 3047 1722 
L 2188 4044 
z
M 1831 4666 
L 2547 4666 
L 4325 0 
L 3669 0 
L 3244 1197 
L 1141 1197 
L 716 0 
L 50 0 
L 1831 4666 
z
" transform="scale(0.015625)"/>
       <path id="DejaVuSans-6d" d="M 3328 2828 
Q 3544 3216 3844 3400 
Q 4144 3584 4550 3584 
Q 5097 3584 5394 3201 
Q 5691 2819 5691 2113 
L 5691 0 
L 5113 0 
L 5113 2094 
Q 5113 2597 4934 2840 
Q 4756 3084 4391 3084 
Q 3944 3084 3684 2787 
Q 3425 2491 3425 1978 
L 3425 0 
L 2847 0 
L 2847 2094 
Q 2847 2600 2669 2842 
Q 2491 3084 2119 3084 
Q 1678 3084 1418 2786 
Q 1159 2488 1159 1978 
L 1159 0 
L 581 0 
L 581 3500 
L 1159 3500 
L 1159 2956 
Q 1356 3278 1631 3431 
Q 1906 3584 2284 3584 
Q 2666 3584 2933 3390 
Q 3200 3197 3328 2828 
z
" transform="scale(0.015625)"/>
       <path id="DejaVuSans-70" d="M 1159 525 
L 1159 -1331 
L 581 -1331 
L 581 3500 
L 1159 3500 
L 1159 2969 
Q 1341 3281 1617 3432 
Q 1894 3584 2278 3584 
Q 2916 3584 3314 3078 
Q 3713 2572 3713 1747 
Q 3713 922 3314 415 
Q 2916 -91 2278 -91 
Q 1894 -91 1617 61 
Q 1341 213 1159 525 
z
M 3116 1747 
Q 3116 2381 2855 2742 
Q 2594 3103 2138 3103 
Q 1681 3103 1420 2742 
Q 1159 2381 1159 1747 
Q 1159 1113 1420 752 
Q 1681 391 2138 391 
Q 2594 391 2855 752 
Q 3116 1113 3116 1747 
z
" transform="scale(0.015625)"/>
       <path id="DejaVuSans-6c" d="M 603 4863 
L 1178 4863 
L 1178 0 
L 603 0 
L 603 4863 
z
" transform="scale(0.015625)"/>
       <path id="DejaVuSans-69" d="M 603 3500 
L 1178 3500 
L 1178 0 
L 603 0 
L 603 3500 
z
M 603 4863 
L 1178 4863 
L 1178 4134 
L 603 4134 
L 603 4863 
z
" transform="scale(0.015625)"/>
       <path id="DejaVuSans-74" d="M 1172 4494 
L 1172 3500 
L 2356 3500 
L 2356 3053 
L 1172 3053 
L 1172 1153 
Q 1172 725 1289 603 
Q 1406 481 1766 481 
L 2356 481 
L 2356 0 
L 1766 0 
Q 1100 0 847 248 
Q 594 497 594 1153 
L 594 3053 
L 172 3053 
L 172 3500 
L 594 3500 
L 594 4494 
L 1172 4494 
z
" transform="scale(0.015625)"/>
       <path id="DejaVuSans-75" d="M 544 1381 
L 544 3500 
L 1119 3500 
L 1119 1403 
Q 1119 906 1312 657 
Q 1506 409 1894 409 
Q 2359 409 2629 706 
Q 2900 1003 2900 1516 
L 2900 3500 
L 3475 3500 
L 3475 0 
L 2900 0 
L 2900 538 
Q 2691 219 2414 64 
Q 2138 -91 1772 -91 
Q 1169 -91 856 284 
Q 544 659 544 1381 
z
M 1991 3584 
L 1991 3584 
z
" transform="scale(0.015625)"/>
       <path id="DejaVuSans-64" d="M 2906 2969 
L 2906 4863 
L 3481 4863 
L 3481 0 
L 2906 0 
L 2906 525 
Q 2725 213 2448 61 
Q 2172 -91 1784 -91 
Q 1150 -91 751 415 
Q 353 922 353 1747 
Q 353 2572 751 3078 
Q 1150 3584 1784 3584 
Q 2172 3584 2448 3432 
Q 2725 3281 2906 2969 
z
M 947 1747 
Q 947 1113 1208 752 
Q 1469 391 1925 391 
Q 2381 391 2643 752 
Q 2906 1113 2906 1747 
Q 2906 2381 2643 2742 
Q 2381 3103 1925 3103 
Q 1469 3103 1208 2742 
Q 947 2381 947 1747 
z
" transform="scale(0.015625)"/>
       <path id="DejaVuSans-65" d="M 3597 1894 
L 3597 1613 
L 953 1613 
Q 991 1019 1311 708 
Q 1631 397 2203 397 
Q 2534 397 2845 478 
Q 3156 559 3463 722 
L 3463 178 
Q 3153 47 2828 -22 
Q 2503 -91 2169 -91 
Q 1331 -91 842 396 
Q 353 884 353 1716 
Q 353 2575 817 3079 
Q 1281 3584 2069 3584 
Q 2775 3584 3186 3129 
Q 3597 2675 3597 1894 
z
M 3022 2063 
Q 3016 2534 2758 2815 
Q 2500 3097 2075 3097 
Q 1594 3097 1305 2825 
Q 1016 2553 972 2059 
L 3022 2063 
z
" transform="scale(0.015625)"/>
      </defs>
      <use xlink:href="#DejaVuSans-41"/>
      <use xlink:href="#DejaVuSans-6d" transform="translate(68.408203 0)"/>
      <use xlink:href="#DejaVuSans-70" transform="translate(165.820312 0)"/>
      <use xlink:href="#DejaVuSans-6c" transform="translate(229.296875 0)"/>
      <use xlink:href="#DejaVuSans-69" transform="translate(257.080078 0)"/>
      <use xlink:href="#DejaVuSans-74" transform="translate(284.863281 0)"/>
      <use xlink:href="#DejaVuSans-75" transform="translate(324.072266 0)"/>
      <use xlink:href="#DejaVuSans-64" transform="translate(387.451172 0)"/>
      <use xlink:href="#DejaVuSans-65" transform="translate(450.927734 0)"/>
     </g>
    </g>
   </g>
   <g id="line2d_27">
    <path d="M 75.29821 200.893328 
L 217.785814 200.788122 
L 225.023279 200.560149 
L 229.999037 200.197958 
L 233.617769 199.739895 
L 236.784161 199.133046 
L 239.49821 198.401771 
L 241.759918 197.599911 
L 244.021626 196.581389 
L 246.283334 195.301566 
L 248.092701 194.056389 
L 249.902067 192.584902 
L 251.711433 190.85827 
L 253.5208 188.84671 
L 255.330166 186.520094 
L 257.139533 183.848685 
L 258.948899 180.803998 
L 260.758265 177.359799 
L 262.567632 173.493189 
L 264.376998 169.185786 
L 266.638706 163.163054 
L 268.900414 156.423292 
L 271.162122 148.978054 
L 273.876172 139.164143 
L 276.590221 128.498066 
L 280.208954 113.252339 
L 290.612811 68.414326 
L 292.874519 59.790376 
L 295.136227 52.034261 
L 296.945593 46.588771 
L 298.75496 41.919254 
L 300.111984 38.975739 
L 301.469009 36.544049 
L 302.826034 34.648696 
L 303.730717 33.692838 
L 304.6354 32.988385 
L 305.540084 32.538552 
L 306.444767 32.345398 
L 307.34945 32.409807 
L 308.254133 32.731485 
L 309.158816 33.308958 
L 310.063499 34.139587 
L 310.968183 35.219586 
L 312.325207 37.296126 
L 313.682232 39.901395 
L 315.039257 43.009224 
L 316.396282 46.588771 
L 318.205648 52.034261 
L 320.015015 58.163111 
L 322.276723 66.630173 
L 324.990772 77.694056 
L 329.061847 95.362226 
L 335.394629 122.896126 
L 338.56102 135.696312 
L 341.27507 145.809481 
L 343.989119 154.989912 
L 346.250827 161.872413 
L 348.512535 168.038436 
L 350.774243 173.493189 
L 353.035951 178.259623 
L 354.845318 181.601648 
L 356.654684 184.550449 
L 358.46405 187.132925 
L 360.273417 189.37796 
L 362.082783 191.315465 
L 363.89215 192.975547 
L 365.701516 194.387802 
L 367.963224 195.84792 
L 370.224932 197.017538 
L 372.48664 197.944331 
L 375.20069 198.795483 
L 377.914739 199.421365 
L 381.08113 199.936528 
L 385.152205 200.35834 
L 390.127962 200.641269 
L 397.365428 200.81566 
L 411.388017 200.88732 
L 514.974243 200.893328 
L 538.043665 200.893328 
L 538.043665 200.893328 
" clip-path="url(#p23f368ba87)" style="fill: none; stroke: #1f77b4; stroke-width: 2; stroke-linecap: square"/>
   </g>
   <g id="line2d_28">
    <path d="M 75.29821 200.893328 
L 155.362673 200.786386 
L 163.504822 200.546289 
L 169.385263 200.171693 
L 174.813362 199.608982 
L 181.146144 198.704548 
L 187.931268 197.743978 
L 191.097659 197.504382 
L 193.811709 197.517203 
L 196.073417 197.733297 
L 198.335125 198.169035 
L 200.596833 198.840283 
L 202.858541 199.741735 
L 205.57259 201.079801 
L 213.714739 205.361937 
L 215.524106 205.966766 
L 217.333472 206.300533 
L 218.690497 206.341846 
L 220.047522 206.187839 
L 221.404546 205.832836 
L 222.761571 205.280957 
L 224.570937 204.26565 
L 226.832645 202.64647 
L 232.260745 198.484586 
L 233.617769 197.731123 
L 234.974794 197.221293 
L 236.331819 197.010659 
L 237.236502 197.05688 
L 238.141185 197.263963 
L 239.045869 197.635795 
L 240.402893 198.502825 
L 241.759918 199.725217 
L 243.116943 201.263292 
L 244.926309 203.692329 
L 250.354409 211.356228 
L 251.711433 212.749689 
L 252.616117 213.44413 
L 253.5208 213.920563 
L 254.425483 214.160381 
L 255.330166 214.143858 
L 256.234849 213.86967 
L 257.139533 213.334472 
L 258.044216 212.546972 
L 258.948899 211.526599 
L 260.305924 209.613972 
L 262.11529 206.540793 
L 265.734023 200.122666 
L 267.091048 198.220814 
L 267.995731 197.261538 
L 268.900414 196.613351 
L 269.805097 196.323032 
L 270.70978 196.416202 
L 271.614464 196.924701 
L 272.519147 197.857315 
L 273.42383 199.219708 
L 274.328513 200.989726 
L 275.685538 204.355679 
L 277.042563 208.429536 
L 279.304271 216.153167 
L 281.565979 223.836649 
L 282.923004 227.773034 
L 283.827687 229.903601 
L 284.73237 231.519614 
L 285.637053 232.543856 
L 286.089395 232.805671 
L 286.541736 232.890852 
L 286.994078 232.788014 
L 287.44642 232.497778 
L 287.898761 232.017107 
L 288.351103 231.331316 
L 289.255786 229.354893 
L 290.160469 226.556928 
L 291.065152 222.966111 
L 291.969836 218.62603 
L 293.32686 210.785835 
L 294.683885 201.664964 
L 296.945593 184.600753 
L 300.111984 160.480535 
L 301.469009 151.441339 
L 302.826034 143.878052 
L 303.730717 139.85115 
L 304.6354 136.72133 
L 305.540084 134.600496 
L 305.992425 133.927986 
L 306.444767 133.518786 
L 306.897108 133.383333 
L 307.34945 133.5028 
L 307.801791 133.889253 
L 308.254133 134.5518 
L 308.706475 135.468943 
L 309.611158 138.056441 
L 310.515841 141.618931 
L 311.420524 146.040369 
L 312.777549 154.096362 
L 314.586915 166.812723 
L 320.467356 210.355078 
L 321.824381 218.152836 
L 323.181406 224.37917 
L 324.086089 227.557645 
L 324.990772 229.941187 
L 325.895455 231.500388 
L 326.347797 231.980872 
L 326.800139 232.265085 
L 327.25248 232.359379 
L 327.704822 232.283932 
L 328.157163 232.005637 
L 328.609505 231.585105 
L 329.514188 230.248598 
L 330.418871 228.367783 
L 331.775896 224.703441 
L 333.585263 218.794751 
L 337.203995 206.523097 
L 338.56102 202.673578 
L 339.918045 199.605737 
L 340.822728 198.046354 
L 341.727411 196.913275 
L 342.632095 196.204778 
L 343.536778 195.923806 
L 344.441461 196.040659 
L 345.346144 196.52952 
L 346.250827 197.357976 
L 347.155511 198.462963 
L 348.512535 200.541022 
L 350.774243 204.611865 
L 353.035951 208.652963 
L 354.392976 210.718682 
L 355.750001 212.350545 
L 356.654684 213.149731 
L 357.559367 213.696833 
L 358.46405 213.983401 
L 359.368734 214.010237 
L 360.273417 213.781513 
L 361.1781 213.314693 
L 362.082783 212.629785 
L 363.439808 211.2489 
L 364.796833 209.54059 
L 367.058541 206.284317 
L 369.77259 202.375373 
L 371.581957 200.157419 
L 372.938982 198.831072 
L 374.296006 197.847949 
L 375.653031 197.233116 
L 376.557714 197.029282 
L 377.462398 196.985705 
L 378.819422 197.200545 
L 380.176447 197.713251 
L 381.533472 198.469556 
L 383.342838 199.747698 
L 389.675621 204.541641 
L 391.484987 205.482268 
L 392.842012 205.970294 
L 394.199037 206.258936 
L 395.556061 206.347138 
L 396.913086 206.2439 
L 398.722453 205.837387 
L 400.531819 205.174775 
L 402.793527 204.088038 
L 411.840359 199.354807 
L 414.102067 198.543233 
L 416.363775 197.96691 
L 418.625483 197.621917 
L 420.887191 197.48577 
L 423.601241 197.549228 
L 426.767632 197.848105 
L 432.195731 198.634364 
L 439.885538 199.718268 
L 445.313637 200.244059 
L 451.194078 200.586077 
L 458.883885 200.793671 
L 472.001791 200.882939 
L 536.68664 200.893328 
L 538.043665 200.893328 
L 538.043665 200.893328 
" clip-path="url(#p23f368ba87)" style="fill: none; stroke-dasharray: 7.4,3.2; stroke-dashoffset: 0; stroke: #ff7f0e; stroke-width: 2"/>
   </g>
   <g id="patch_3">
    <path d="M 52.160938 242.918125 
L 52.160938 22.318125 
" style="fill: none; stroke: #000000; stroke-width: 0.8; stroke-linejoin: miter; stroke-linecap: square"/>
   </g>
   <g id="patch_4">
    <path d="M 561.180937 242.918125 
L 561.180937 22.318125 
" style="fill: none; stroke: #000000; stroke-width: 0.8; stroke-linejoin: miter; stroke-linecap: square"/>
   </g>
   <g id="patch_5">
    <path d="M 52.160938 242.918125 
L 561.180937 242.918125 
" style="fill: none; stroke: #000000; stroke-width: 0.8; stroke-linejoin: miter; stroke-linecap: square"/>
   </g>
   <g id="patch_6">
    <path d="M 52.160938 22.318125 
L 561.180937 22.318125 
" style="fill: none; stroke: #000000; stroke-width: 0.8; stroke-linejoin: miter; stroke-linecap: square"/>
   </g>
   <g id="text_16">
    <!-- Pseudo-Inverse Reconstruction from Ricker CWT -->
    <g transform="translate(161.854375 16.318125) scale(0.12 -0.12)">
     <defs>
      <path id="DejaVuSans-50" d="M 1259 4147 
L 1259 2394 
L 2053 2394 
Q 2494 2394 2734 2622 
Q 2975 2850 2975 3272 
Q 2975 3691 2734 3919 
Q 2494 4147 2053 4147 
L 1259 4147 
z
M 628 4666 
L 2053 4666 
Q 2838 4666 3239 4311 
Q 3641 3956 3641 3272 
Q 3641 2581 3239 2228 
Q 2838 1875 2053 1875 
L 1259 1875 
L 1259 0 
L 628 0 
L 628 4666 
z
" transform="scale(0.015625)"/>
      <path id="DejaVuSans-73" d="M 2834 3397 
L 2834 2853 
Q 2591 2978 2328 3040 
Q 2066 3103 1784 3103 
Q 1356 3103 1142 2972 
Q 928 2841 928 2578 
Q 928 2378 1081 2264 
Q 1234 2150 1697 2047 
L 1894 2003 
Q 2506 1872 2764 1633 
Q 3022 1394 3022 966 
Q 3022 478 2636 193 
Q 2250 -91 1575 -91 
Q 1294 -91 989 -36 
Q 684 19 347 128 
L 347 722 
Q 666 556 975 473 
Q 1284 391 1588 391 
Q 1994 391 2212 530 
Q 2431 669 2431 922 
Q 2431 1156 2273 1281 
Q 2116 1406 1581 1522 
L 1381 1569 
Q 847 1681 609 1914 
Q 372 2147 372 2553 
Q 372 3047 722 3315 
Q 1072 3584 1716 3584 
Q 2034 3584 2315 3537 
Q 2597 3491 2834 3397 
z
" transform="scale(0.015625)"/>
      <path id="DejaVuSans-6f" d="M 1959 3097 
Q 1497 3097 1228 2736 
Q 959 2375 959 1747 
Q 959 1119 1226 758 
Q 1494 397 1959 397 
Q 2419 397 2687 759 
Q 2956 1122 2956 1747 
Q 2956 2369 2687 2733 
Q 2419 3097 1959 3097 
z
M 1959 3584 
Q 2709 3584 3137 3096 
Q 3566 2609 3566 1747 
Q 3566 888 3137 398 
Q 2709 -91 1959 -91 
Q 1206 -91 779 398 
Q 353 888 353 1747 
Q 353 2609 779 3096 
Q 1206 3584 1959 3584 
z
" transform="scale(0.015625)"/>
      <path id="DejaVuSans-2d" d="M 313 2009 
L 1997 2009 
L 1997 1497 
L 313 1497 
L 313 2009 
z
" transform="scale(0.015625)"/>
      <path id="DejaVuSans-49" d="M 628 4666 
L 1259 4666 
L 1259 0 
L 628 0 
L 628 4666 
z
" transform="scale(0.015625)"/>
      <path id="DejaVuSans-6e" d="M 3513 2113 
L 3513 0 
L 2938 0 
L 2938 2094 
Q 2938 2591 2744 2837 
Q 2550 3084 2163 3084 
Q 1697 3084 1428 2787 
Q 1159 2491 1159 1978 
L 1159 0 
L 581 0 
L 581 3500 
L 1159 3500 
L 1159 2956 
Q 1366 3272 1645 3428 
Q 1925 3584 2291 3584 
Q 2894 3584 3203 3211 
Q 3513 2838 3513 2113 
z
" transform="scale(0.015625)"/>
      <path id="DejaVuSans-76" d="M 191 3500 
L 800 3500 
L 1894 563 
L 2988 3500 
L 3597 3500 
L 2284 0 
L 1503 0 
L 191 3500 
z
" transform="scale(0.015625)"/>
      <path id="DejaVuSans-72" d="M 2631 2963 
Q 2534 3019 2420 3045 
Q 2306 3072 2169 3072 
Q 1681 3072 1420 2755 
Q 1159 2438 1159 1844 
L 1159 0 
L 581 0 
L 581 3500 
L 1159 3500 
L 1159 2956 
Q 1341 3275 1631 3429 
Q 1922 3584 2338 3584 
Q 2397 3584 2469 3576 
Q 2541 3569 2628 3553 
L 2631 2963 
z
" transform="scale(0.015625)"/>
      <path id="DejaVuSans-20" transform="scale(0.015625)"/>
      <path id="DejaVuSans-52" d="M 2841 2188 
Q 3044 2119 3236 1894 
Q 3428 1669 3622 1275 
L 4263 0 
L 3584 0 
L 2988 1197 
Q 2756 1666 2539 1819 
Q 2322 1972 1947 1972 
L 1259 1972 
L 1259 0 
L 628 0 
L 628 4666 
L 2053 4666 
Q 2853 4666 3247 4331 
Q 3641 3997 3641 3322 
Q 3641 2881 3436 2590 
Q 3231 2300 2841 2188 
z
M 1259 4147 
L 1259 2491 
L 2053 2491 
Q 2509 2491 2742 2702 
Q 2975 2913 2975 3322 
Q 2975 3731 2742 3939 
Q 2509 4147 2053 4147 
L 1259 4147 
z
" transform="scale(0.015625)"/>
      <path id="DejaVuSans-63" d="M 3122 3366 
L 3122 2828 
Q 2878 2963 2633 3030 
Q 2388 3097 2138 3097 
Q 1578 3097 1268 2742 
Q 959 2388 959 1747 
Q 959 1106 1268 751 
Q 1578 397 2138 397 
Q 2388 397 2633 464 
Q 2878 531 3122 666 
L 3122 134 
Q 2881 22 2623 -34 
Q 2366 -91 2075 -91 
Q 1284 -91 818 406 
Q 353 903 353 1747 
Q 353 2603 823 3093 
Q 1294 3584 2113 3584 
Q 2378 3584 2631 3529 
Q 2884 3475 3122 3366 
z
" transform="scale(0.015625)"/>
      <path id="DejaVuSans-66" d="M 2375 4863 
L 2375 4384 
L 1825 4384 
Q 1516 4384 1395 4259 
Q 1275 4134 1275 3809 
L 1275 3500 
L 2222 3500 
L 2222 3053 
L 1275 3053 
L 1275 0 
L 697 0 
L 697 3053 
L 147 3053 
L 147 3500 
L 697 3500 
L 697 3744 
Q 697 4328 969 4595 
Q 1241 4863 1831 4863 
L 2375 4863 
z
" transform="scale(0.015625)"/>
      <path id="DejaVuSans-6b" d="M 581 4863 
L 1159 4863 
L 1159 1991 
L 2875 3500 
L 3609 3500 
L 1753 1863 
L 3688 0 
L 2938 0 
L 1159 1709 
L 1159 0 
L 581 0 
L 581 4863 
z
" transform="scale(0.015625)"/>
      <path id="DejaVuSans-43" d="M 4122 4306 
L 4122 3641 
Q 3803 3938 3442 4084 
Q 3081 4231 2675 4231 
Q 1875 4231 1450 3742 
Q 1025 3253 1025 2328 
Q 1025 1406 1450 917 
Q 1875 428 2675 428 
Q 3081 428 3442 575 
Q 3803 722 4122 1019 
L 4122 359 
Q 3791 134 3420 21 
Q 3050 -91 2638 -91 
Q 1578 -91 968 557 
Q 359 1206 359 2328 
Q 359 3453 968 4101 
Q 1578 4750 2638 4750 
Q 3056 4750 3426 4639 
Q 3797 4528 4122 4306 
z
" transform="scale(0.015625)"/>
      <path id="DejaVuSans-57" d="M 213 4666 
L 850 4666 
L 1831 722 
L 2809 4666 
L 3519 4666 
L 4500 722 
L 5478 4666 
L 6119 4666 
L 4947 0 
L 4153 0 
L 3169 4050 
L 2175 0 
L 1381 0 
L 213 4666 
z
" transform="scale(0.015625)"/>
      <path id="DejaVuSans-54" d="M -19 4666 
L 3928 4666 
L 3928 4134 
L 2272 4134 
L 2272 0 
L 1638 0 
L 1638 4134 
L -19 4134 
L -19 4666 
z
" transform="scale(0.015625)"/>
     </defs>
     <use xlink:href="#DejaVuSans-50"/>
     <use xlink:href="#DejaVuSans-73" transform="translate(58.552734 0)"/>
     <use xlink:href="#DejaVuSans-65" transform="translate(110.652344 0)"/>
     <use xlink:href="#DejaVuSans-75" transform="translate(172.175781 0)"/>
     <use xlink:href="#DejaVuSans-64" transform="translate(235.554688 0)"/>
     <use xlink:href="#DejaVuSans-6f" transform="translate(299.03125 0)"/>
     <use xlink:href="#DejaVuSans-2d" transform="translate(362.087891 0)"/>
     <use xlink:href="#DejaVuSans-49" transform="translate(398.171875 0)"/>
     <use xlink:href="#DejaVuSans-6e" transform="translate(427.664062 0)"/>
     <use xlink:href="#DejaVuSans-76" transform="translate(491.042969 0)"/>
     <use xlink:href="#DejaVuSans-65" transform="translate(550.222656 0)"/>
     <use xlink:href="#DejaVuSans-72" transform="translate(611.746094 0)"/>
     <use xlink:href="#DejaVuSans-73" transform="translate(652.859375 0)"/>
     <use xlink:href="#DejaVuSans-65" transform="translate(704.958984 0)"/>
     <use xlink:href="#DejaVuSans-20" transform="translate(766.482422 0)"/>
     <use xlink:href="#DejaVuSans-52" transform="translate(798.269531 0)"/>
     <use xlink:href="#DejaVuSans-65" transform="translate(863.251953 0)"/>
     <use xlink:href="#DejaVuSans-63" transform="translate(924.775391 0)"/>
     <use xlink:href="#DejaVuSans-6f" transform="translate(979.755859 0)"/>
     <use xlink:href="#DejaVuSans-6e" transform="translate(1040.9375 0)"/>
     <use xlink:href="#DejaVuSans-73" transform="translate(1104.316406 0)"/>
     <use xlink:href="#DejaVuSans-74" transform="translate(1156.416016 0)"/>
     <use xlink:href="#DejaVuSans-72" transform="translate(1195.625 0)"/>
     <use xlink:href="#DejaVuSans-75" transform="translate(1236.738281 0)"/>
     <use xlink:href="#DejaVuSans-63" transform="translate(1300.117188 0)"/>
     <use xlink:href="#DejaVuSans-74" transform="translate(1355.097656 0)"/>
     <use xlink:href="#DejaVuSans-69" transform="translate(1394.306641 0)"/>
     <use xlink:href="#DejaVuSans-6f" transform="translate(1422.089844 0)"/>
     <use xlink:href="#DejaVuSans-6e" transform="translate(1483.271484 0)"/>
     <use xlink:href="#DejaVuSans-20" transform="translate(1546.650391 0)"/>
     <use xlink:href="#DejaVuSans-66" transform="translate(1578.4375 0)"/>
     <use xlink:href="#DejaVuSans-72" transform="translate(1613.642578 0)"/>
     <use xlink:href="#DejaVuSans-6f" transform="translate(1652.505859 0)"/>
     <use xlink:href="#DejaVuSans-6d" transform="translate(1713.6875 0)"/>
     <use xlink:href="#DejaVuSans-20" transform="translate(1811.099609 0)"/>
     <use xlink:href="#DejaVuSans-52" transform="translate(1842.886719 0)"/>
     <use xlink:href="#DejaVuSans-69" transform="translate(1912.369141 0)"/>
     <use xlink:href="#DejaVuSans-63" transform="translate(1940.152344 0)"/>
     <use xlink:href="#DejaVuSans-6b" transform="translate(1995.132812 0)"/>
     <use xlink:href="#DejaVuSans-65" transform="translate(2049.417969 0)"/>
     <use xlink:href="#DejaVuSans-72" transform="translate(2110.941406 0)"/>
     <use xlink:href="#DejaVuSans-20" transform="translate(2152.054688 0)"/>
     <use xlink:href="#DejaVuSans-43" transform="translate(2183.841797 0)"/>
     <use xlink:href="#DejaVuSans-57" transform="translate(2253.666016 0)"/>
     <use xlink:href="#DejaVuSans-54" transform="translate(2352.542969 0)"/>
    </g>
   </g>
   <g id="legend_1">
    <g id="patch_7">
     <path d="M 383.749687 59.674375 
L 554.180937 59.674375 
Q 556.180937 59.674375 556.180937 57.674375 
L 556.180937 29.318125 
Q 556.180937 27.318125 554.180937 27.318125 
L 383.749687 27.318125 
Q 381.749687 27.318125 381.749687 29.318125 
L 381.749687 57.674375 
Q 381.749687 59.674375 383.749687 59.674375 
z
" style="fill: #ffffff; opacity: 0.8; stroke: #cccccc; stroke-linejoin: miter"/>
    </g>
    <g id="line2d_29">
     <path d="M 385.749687 35.416563 
L 395.749687 35.416563 
L 405.749687 35.416563 
" style="fill: none; stroke: #1f77b4; stroke-width: 2; stroke-linecap: square"/>
    </g>
    <g id="text_17">
     <!-- Original -->
     <g transform="translate(413.749687 38.916563) scale(0.1 -0.1)">
      <defs>
       <path id="DejaVuSans-4f" d="M 2522 4238 
Q 1834 4238 1429 3725 
Q 1025 3213 1025 2328 
Q 1025 1447 1429 934 
Q 1834 422 2522 422 
Q 3209 422 3611 934 
Q 4013 1447 4013 2328 
Q 4013 3213 3611 3725 
Q 3209 4238 2522 4238 
z
M 2522 4750 
Q 3503 4750 4090 4092 
Q 4678 3434 4678 2328 
Q 4678 1225 4090 567 
Q 3503 -91 2522 -91 
Q 1538 -91 948 565 
Q 359 1222 359 2328 
Q 359 3434 948 4092 
Q 1538 4750 2522 4750 
z
" transform="scale(0.015625)"/>
       <path id="DejaVuSans-67" d="M 2906 1791 
Q 2906 2416 2648 2759 
Q 2391 3103 1925 3103 
Q 1463 3103 1205 2759 
Q 947 2416 947 1791 
Q 947 1169 1205 825 
Q 1463 481 1925 481 
Q 2391 481 2648 825 
Q 2906 1169 2906 1791 
z
M 3481 434 
Q 3481 -459 3084 -895 
Q 2688 -1331 1869 -1331 
Q 1566 -1331 1297 -1286 
Q 1028 -1241 775 -1147 
L 775 -588 
Q 1028 -725 1275 -790 
Q 1522 -856 1778 -856 
Q 2344 -856 2625 -561 
Q 2906 -266 2906 331 
L 2906 616 
Q 2728 306 2450 153 
Q 2172 0 1784 0 
Q 1141 0 747 490 
Q 353 981 353 1791 
Q 353 2603 747 3093 
Q 1141 3584 1784 3584 
Q 2172 3584 2450 3431 
Q 2728 3278 2906 2969 
L 2906 3500 
L 3481 3500 
L 3481 434 
z
" transform="scale(0.015625)"/>
       <path id="DejaVuSans-61" d="M 2194 1759 
Q 1497 1759 1228 1600 
Q 959 1441 959 1056 
Q 959 750 1161 570 
Q 1363 391 1709 391 
Q 2188 391 2477 730 
Q 2766 1069 2766 1631 
L 2766 1759 
L 2194 1759 
z
M 3341 1997 
L 3341 0 
L 2766 0 
L 2766 531 
Q 2569 213 2275 61 
Q 1981 -91 1556 -91 
Q 1019 -91 701 211 
Q 384 513 384 1019 
Q 384 1609 779 1909 
Q 1175 2209 1959 2209 
L 2766 2209 
L 2766 2266 
Q 2766 2663 2505 2880 
Q 2244 3097 1772 3097 
Q 1472 3097 1187 3025 
Q 903 2953 641 2809 
L 641 3341 
Q 956 3463 1253 3523 
Q 1550 3584 1831 3584 
Q 2591 3584 2966 3190 
Q 3341 2797 3341 1997 
z
" transform="scale(0.015625)"/>
      </defs>
      <use xlink:href="#DejaVuSans-4f"/>
      <use xlink:href="#DejaVuSans-72" transform="translate(78.710938 0)"/>
      <use xlink:href="#DejaVuSans-69" transform="translate(119.824219 0)"/>
      <use xlink:href="#DejaVuSans-67" transform="translate(147.607422 0)"/>
      <use xlink:href="#DejaVuSans-69" transform="translate(211.083984 0)"/>
      <use xlink:href="#DejaVuSans-6e" transform="translate(238.867188 0)"/>
      <use xlink:href="#DejaVuSans-61" transform="translate(302.246094 0)"/>
      <use xlink:href="#DejaVuSans-6c" transform="translate(363.525391 0)"/>
     </g>
    </g>
    <g id="line2d_30">
     <path d="M 385.749687 50.094688 
L 395.749687 50.094688 
L 405.749687 50.094688 
" style="fill: none; stroke-dasharray: 7.4,3.2; stroke-dashoffset: 0; stroke: #ff7f0e; stroke-width: 2"/>
    </g>
    <g id="text_18">
     <!-- Reconstructed (pseudo-inv) -->
     <g transform="translate(413.749687 53.594688) scale(0.1 -0.1)">
      <defs>
       <path id="DejaVuSans-28" d="M 1984 4856 
Q 1566 4138 1362 3434 
Q 1159 2731 1159 2009 
Q 1159 1288 1364 580 
Q 1569 -128 1984 -844 
L 1484 -844 
Q 1016 -109 783 600 
Q 550 1309 550 2009 
Q 550 2706 781 3412 
Q 1013 4119 1484 4856 
L 1984 4856 
z
" transform="scale(0.015625)"/>
       <path id="DejaVuSans-29" d="M 513 4856 
L 1013 4856 
Q 1481 4119 1714 3412 
Q 1947 2706 1947 2009 
Q 1947 1309 1714 600 
Q 1481 -109 1013 -844 
L 513 -844 
Q 928 -128 1133 580 
Q 1338 1288 1338 2009 
Q 1338 2731 1133 3434 
Q 928 4138 513 4856 
z
" transform="scale(0.015625)"/>
      </defs>
      <use xlink:href="#DejaVuSans-52"/>
      <use xlink:href="#DejaVuSans-65" transform="translate(64.982422 0)"/>
      <use xlink:href="#DejaVuSans-63" transform="translate(126.505859 0)"/>
      <use xlink:href="#DejaVuSans-6f" transform="translate(181.486328 0)"/>
      <use xlink:href="#DejaVuSans-6e" transform="translate(242.667969 0)"/>
      <use xlink:href="#DejaVuSans-73" transform="translate(306.046875 0)"/>
      <use xlink:href="#DejaVuSans-74" transform="translate(358.146484 0)"/>
      <use xlink:href="#DejaVuSans-72" transform="translate(397.355469 0)"/>
      <use xlink:href="#DejaVuSans-75" transform="translate(438.46875 0)"/>
      <use xlink:href="#DejaVuSans-63" transform="translate(501.847656 0)"/>
      <use xlink:href="#DejaVuSans-74" transform="translate(556.828125 0)"/>
      <use xlink:href="#DejaVuSans-65" transform="translate(596.037109 0)"/>
      <use xlink:href="#DejaVuSans-64" transform="translate(657.560547 0)"/>
      <use xlink:href="#DejaVuSans-20" transform="translate(721.037109 0)"/>
      <use xlink:href="#DejaVuSans-28" transform="translate(752.824219 0)"/>
      <use xlink:href="#DejaVuSans-70" transform="translate(791.837891 0)"/>
      <use xlink:href="#DejaVuSans-73" transform="translate(855.314453 0)"/>
      <use xlink:href="#DejaVuSans-65" transform="translate(907.414062 0)"/>
      <use xlink:href="#DejaVuSans-75" transform="translate(968.9375 0)"/>
      <use xlink:href="#DejaVuSans-64" transform="translate(1032.316406 0)"/>
      <use xlink:href="#DejaVuSans-6f" transform="translate(1095.792969 0)"/>
      <use xlink:href="#DejaVuSans-2d" transform="translate(1158.849609 0)"/>
      <use xlink:href="#DejaVuSans-69" transform="translate(1194.933594 0)"/>
      <use xlink:href="#DejaVuSans-6e" transform="translate(1222.716797 0)"/>
      <use xlink:href="#DejaVuSans-76" transform="translate(1286.095703 0)"/>
      <use xlink:href="#DejaVuSans-29" transform="translate(1345.275391 0)"/>
     </g>
    </g>
   </g>
  </g>
 </g>
 <defs>
  <clipPath id="p23f368ba87">
   <rect x="52.160938" y="22.318125" width="509.02" height="220.6"/>
  </clipPath>
 </defs>
</svg>
