<?xml version="1.0" encoding="utf-8" standalone="no"?>
<!DOCTYPE svg PUBLIC "-//W3C//DTD SVG 1.1//EN"
  "http://www.w3.org/Graphics/SVG/1.1/DTD/svg11.dtd">
<svg xmlns:xlink="http://www.w3.org/1999/xlink" width="491.04875pt" height="396.385625pt" viewBox="0 0 491.04875 396.385625" xmlns="http://www.w3.org/2000/svg" version="1.1">
 <metadata>
  <rdf:RDF xmlns:dc="http://purl.org/dc/elements/1.1/" xmlns:cc="http://creativecommons.org/ns#" xmlns:rdf="http://www.w3.org/1999/02/22-rdf-syntax-ns#">
   <cc:Work>
    <dc:type rdf:resource="http://purl.org/dc/dcmitype/StillImage"/>
    <dc:date>2025-05-28T11:00:56.482027</dc:date>
    <dc:format>image/svg+xml</dc:format>
    <dc:creator>
     <cc:Agent>
      <dc:title>Matplotlib v3.10.0, https://matplotlib.org/</dc:title>
     </cc:Agent>
    </dc:creator>
   </cc:Work>
  </rdf:RDF>
 </metadata>
 <defs>
  <style type="text/css">*{stroke-linejoin: round; stroke-linecap: butt}</style>
 </defs>
 <g id="figure_1">
  <g id="patch_1">
   <path d="M 0 396.385625 
L 491.04875 396.385625 
L 491.04875 0 
L 0 0 
z
" style="fill: #ffffff"/>
  </g>
  <g id="axes_1">
   <g id="patch_2">
    <path d="M 37.44875 354.958125 
L 483.84875 354.958125 
L 483.84875 22.318125 
L 37.44875 22.318125 
z
" style="fill: #ffffff"/>
   </g>
   <g id="matplotlib.axis_1">
    <g id="xtick_1">
     <g id="line2d_1">
      <defs>
       <path id="m2c4c56596c" d="M 0 0 
L 0 3.5 
" style="stroke: #000000; stroke-width: 0.8"/>
      </defs>
      <g>
       <use xlink:href="#m2c4c56596c" x="57.739659" y="354.958125" style="stroke: #000000; stroke-width: 0.8"/>
      </g>
     </g>
     <g id="text_1">
      <!-- 0 -->
      <g transform="translate(53.922159 371.07625) scale(0.12 -0.12)">
       <defs>
        <path id="DejaVuSans-30" d="M 2034 4250 
Q 1547 4250 1301 3770 
Q 1056 3291 1056 2328 
Q 1056 1369 1301 889 
Q 1547 409 2034 409 
Q 2525 409 2770 889 
Q 3016 1369 3016 2328 
Q 3016 3291 2770 3770 
Q 2525 4250 2034 4250 
z
M 2034 4750 
Q 2819 4750 3233 4129 
Q 3647 3509 3647 2328 
Q 3647 1150 3233 529 
Q 2819 -91 2034 -91 
Q 1250 -91 836 529 
Q 422 1150 422 2328 
Q 422 3509 836 4129 
Q 1250 4750 2034 4750 
z
" transform="scale(0.015625)"/>
       </defs>
       <use xlink:href="#DejaVuSans-30"/>
      </g>
     </g>
    </g>
    <g id="xtick_2">
     <g id="line2d_2">
      <g>
       <use xlink:href="#m2c4c56596c" x="114.103295" y="354.958125" style="stroke: #000000; stroke-width: 0.8"/>
      </g>
     </g>
     <g id="text_2">
      <!-- 5 -->
      <g transform="translate(110.285795 371.07625) scale(0.12 -0.12)">
       <defs>
        <path id="DejaVuSans-35" d="M 691 4666 
L 3169 4666 
L 3169 4134 
L 1269 4134 
L 1269 2991 
Q 1406 3038 1543 3061 
Q 1681 3084 1819 3084 
Q 2600 3084 3056 2656 
Q 3513 2228 3513 1497 
Q 3513 744 3044 326 
Q 2575 -91 1722 -91 
Q 1428 -91 1123 -41 
Q 819 9 494 109 
L 494 744 
Q 775 591 1075 516 
Q 1375 441 1709 441 
Q 2250 441 2565 725 
Q 2881 1009 2881 1497 
Q 2881 1984 2565 2268 
Q 2250 2553 1709 2553 
Q 1456 2553 1204 2497 
Q 953 2441 691 2322 
L 691 4666 
z
" transform="scale(0.015625)"/>
       </defs>
       <use xlink:href="#DejaVuSans-35"/>
      </g>
     </g>
    </g>
    <g id="xtick_3">
     <g id="line2d_3">
      <g>
       <use xlink:href="#m2c4c56596c" x="170.466932" y="354.958125" style="stroke: #000000; stroke-width: 0.8"/>
      </g>
     </g>
     <g id="text_3">
      <!-- 10 -->
      <g transform="translate(162.831932 371.07625) scale(0.12 -0.12)">
       <defs>
        <path id="DejaVuSans-31" d="M 794 531 
L 1825 531 
L 1825 4091 
L 703 3866 
L 703 4441 
L 1819 4666 
L 2450 4666 
L 2450 531 
L 3481 531 
L 3481 0 
L 794 0 
L 794 531 
z
" transform="scale(0.015625)"/>
       </defs>
       <use xlink:href="#DejaVuSans-31"/>
       <use xlink:href="#DejaVuSans-30" transform="translate(63.623047 0)"/>
      </g>
     </g>
    </g>
    <g id="xtick_4">
     <g id="line2d_4">
      <g>
       <use xlink:href="#m2c4c56596c" x="226.830568" y="354.958125" style="stroke: #000000; stroke-width: 0.8"/>
      </g>
     </g>
     <g id="text_4">
      <!-- 15 -->
      <g transform="translate(219.195568 371.07625) scale(0.12 -0.12)">
       <use xlink:href="#DejaVuSans-31"/>
       <use xlink:href="#DejaVuSans-35" transform="translate(63.623047 0)"/>
      </g>
     </g>
    </g>
    <g id="xtick_5">
     <g id="line2d_5">
      <g>
       <use xlink:href="#m2c4c56596c" x="283.194205" y="354.958125" style="stroke: #000000; stroke-width: 0.8"/>
      </g>
     </g>
     <g id="text_5">
      <!-- 20 -->
      <g transform="translate(275.559205 371.07625) scale(0.12 -0.12)">
       <defs>
        <path id="DejaVuSans-32" d="M 1228 531 
L 3431 531 
L 3431 0 
L 469 0 
L 469 531 
Q 828 903 1448 1529 
Q 2069 2156 2228 2338 
Q 2531 2678 2651 2914 
Q 2772 3150 2772 3378 
Q 2772 3750 2511 3984 
Q 2250 4219 1831 4219 
Q 1534 4219 1204 4116 
Q 875 4013 500 3803 
L 500 4441 
Q 881 4594 1212 4672 
Q 1544 4750 1819 4750 
Q 2544 4750 2975 4387 
Q 3406 4025 3406 3419 
Q 3406 3131 3298 2873 
Q 3191 2616 2906 2266 
Q 2828 2175 2409 1742 
Q 1991 1309 1228 531 
z
" transform="scale(0.015625)"/>
       </defs>
       <use xlink:href="#DejaVuSans-32"/>
       <use xlink:href="#DejaVuSans-30" transform="translate(63.623047 0)"/>
      </g>
     </g>
    </g>
    <g id="xtick_6">
     <g id="line2d_6">
      <g>
       <use xlink:href="#m2c4c56596c" x="339.557841" y="354.958125" style="stroke: #000000; stroke-width: 0.8"/>
      </g>
     </g>
     <g id="text_6">
      <!-- 25 -->
      <g transform="translate(331.922841 371.07625) scale(0.12 -0.12)">
       <use xlink:href="#DejaVuSans-32"/>
       <use xlink:href="#DejaVuSans-35" transform="translate(63.623047 0)"/>
      </g>
     </g>
    </g>
    <g id="xtick_7">
     <g id="line2d_7">
      <g>
       <use xlink:href="#m2c4c56596c" x="395.921477" y="354.958125" style="stroke: #000000; stroke-width: 0.8"/>
      </g>
     </g>
     <g id="text_7">
      <!-- 30 -->
      <g transform="translate(388.286477 371.07625) scale(0.12 -0.12)">
       <defs>
        <path id="DejaVuSans-33" d="M 2597 2516 
Q 3050 2419 3304 2112 
Q 3559 1806 3559 1356 
Q 3559 666 3084 287 
Q 2609 -91 1734 -91 
Q 1441 -91 1130 -33 
Q 819 25 488 141 
L 488 750 
Q 750 597 1062 519 
Q 1375 441 1716 441 
Q 2309 441 2620 675 
Q 2931 909 2931 1356 
Q 2931 1769 2642 2001 
Q 2353 2234 1838 2234 
L 1294 2234 
L 1294 2753 
L 1863 2753 
Q 2328 2753 2575 2939 
Q 2822 3125 2822 3475 
Q 2822 3834 2567 4026 
Q 2313 4219 1838 4219 
Q 1578 4219 1281 4162 
Q 984 4106 628 3988 
L 628 4550 
Q 988 4650 1302 4700 
Q 1616 4750 1894 4750 
Q 2613 4750 3031 4423 
Q 3450 4097 3450 3541 
Q 3450 3153 3228 2886 
Q 3006 2619 2597 2516 
z
" transform="scale(0.015625)"/>
       </defs>
       <use xlink:href="#DejaVuSans-33"/>
       <use xlink:href="#DejaVuSans-30" transform="translate(63.623047 0)"/>
      </g>
     </g>
    </g>
    <g id="xtick_8">
     <g id="line2d_8">
      <g>
       <use xlink:href="#m2c4c56596c" x="452.285114" y="354.958125" style="stroke: #000000; stroke-width: 0.8"/>
      </g>
     </g>
     <g id="text_8">
      <!-- 35 -->
      <g transform="translate(444.650114 371.07625) scale(0.12 -0.12)">
       <use xlink:href="#DejaVuSans-33"/>
       <use xlink:href="#DejaVuSans-35" transform="translate(63.623047 0)"/>
      </g>
     </g>
    </g>
    <g id="text_9">
     <!-- index [-] -->
     <g transform="translate(235.47875 386.69) scale(0.12 -0.12)">
      <defs>
       <path id="DejaVuSans-69" d="M 603 3500 
L 1178 3500 
L 1178 0 
L 603 0 
L 603 3500 
z
M 603 4863 
L 1178 4863 
L 1178 4134 
L 603 4134 
L 603 4863 
z
" transform="scale(0.015625)"/>
       <path id="DejaVuSans-6e" d="M 3513 2113 
L 3513 0 
L 2938 0 
L 2938 2094 
Q 2938 2591 2744 2837 
Q 2550 3084 2163 3084 
Q 1697 3084 1428 2787 
Q 1159 2491 1159 1978 
L 1159 0 
L 581 0 
L 581 3500 
L 1159 3500 
L 1159 2956 
Q 1366 3272 1645 3428 
Q 1925 3584 2291 3584 
Q 2894 3584 3203 3211 
Q 3513 2838 3513 2113 
z
" transform="scale(0.015625)"/>
       <path id="DejaVuSans-64" d="M 2906 2969 
L 2906 4863 
L 3481 4863 
L 3481 0 
L 2906 0 
L 2906 525 
Q 2725 213 2448 61 
Q 2172 -91 1784 -91 
Q 1150 -91 751 415 
Q 353 922 353 1747 
Q 353 2572 751 3078 
Q 1150 3584 1784 3584 
Q 2172 3584 2448 3432 
Q 2725 3281 2906 2969 
z
M 947 1747 
Q 947 1113 1208 752 
Q 1469 391 1925 391 
Q 2381 391 2643 752 
Q 2906 1113 2906 1747 
Q 2906 2381 2643 2742 
Q 2381 3103 1925 3103 
Q 1469 3103 1208 2742 
Q 947 2381 947 1747 
z
" transform="scale(0.015625)"/>
       <path id="DejaVuSans-65" d="M 3597 1894 
L 3597 1613 
L 953 1613 
Q 991 1019 1311 708 
Q 1631 397 2203 397 
Q 2534 397 2845 478 
Q 3156 559 3463 722 
L 3463 178 
Q 3153 47 2828 -22 
Q 2503 -91 2169 -91 
Q 1331 -91 842 396 
Q 353 884 353 1716 
Q 353 2575 817 3079 
Q 1281 3584 2069 3584 
Q 2775 3584 3186 3129 
Q 3597 2675 3597 1894 
z
M 3022 2063 
Q 3016 2534 2758 2815 
Q 2500 3097 2075 3097 
Q 1594 3097 1305 2825 
Q 1016 2553 972 2059 
L 3022 2063 
z
" transform="scale(0.015625)"/>
       <path id="DejaVuSans-78" d="M 3513 3500 
L 2247 1797 
L 3578 0 
L 2900 0 
L 1881 1375 
L 863 0 
L 184 0 
L 1544 1831 
L 300 3500 
L 978 3500 
L 1906 2253 
L 2834 3500 
L 3513 3500 
z
" transform="scale(0.015625)"/>
       <path id="DejaVuSans-20" transform="scale(0.015625)"/>
       <path id="DejaVuSans-5b" d="M 550 4863 
L 1875 4863 
L 1875 4416 
L 1125 4416 
L 1125 -397 
L 1875 -397 
L 1875 -844 
L 550 -844 
L 550 4863 
z
" transform="scale(0.015625)"/>
       <path id="DejaVuSans-2d" d="M 313 2009 
L 1997 2009 
L 1997 1497 
L 313 1497 
L 313 2009 
z
" transform="scale(0.015625)"/>
       <path id="DejaVuSans-5d" d="M 1947 4863 
L 1947 -844 
L 622 -844 
L 622 -397 
L 1369 -397 
L 1369 4416 
L 622 4416 
L 622 4863 
L 1947 4863 
z
" transform="scale(0.015625)"/>
      </defs>
      <use xlink:href="#DejaVuSans-69"/>
      <use xlink:href="#DejaVuSans-6e" transform="translate(27.783203 0)"/>
      <use xlink:href="#DejaVuSans-64" transform="translate(91.162109 0)"/>
      <use xlink:href="#DejaVuSans-65" transform="translate(154.638672 0)"/>
      <use xlink:href="#DejaVuSans-78" transform="translate(214.412109 0)"/>
      <use xlink:href="#DejaVuSans-20" transform="translate(273.591797 0)"/>
      <use xlink:href="#DejaVuSans-5b" transform="translate(305.378906 0)"/>
      <use xlink:href="#DejaVuSans-2d" transform="translate(344.392578 0)"/>
      <use xlink:href="#DejaVuSans-5d" transform="translate(380.476562 0)"/>
     </g>
    </g>
   </g>
   <g id="matplotlib.axis_2">
    <g id="ytick_1">
     <g id="line2d_9">
      <defs>
       <path id="m26c78d1507" d="M 0 0 
L -3.5 0 
" style="stroke: #000000; stroke-width: 0.8"/>
      </defs>
      <g>
       <use xlink:href="#m26c78d1507" x="37.44875" y="339.838125" style="stroke: #000000; stroke-width: 0.8"/>
      </g>
     </g>
     <g id="text_10">
      <!-- 0 -->
      <g transform="translate(22.81375 344.397187) scale(0.12 -0.12)">
       <use xlink:href="#DejaVuSans-30"/>
      </g>
     </g>
    </g>
    <g id="ytick_2">
     <g id="line2d_10">
      <g>
       <use xlink:href="#m26c78d1507" x="37.44875" y="289.598256" style="stroke: #000000; stroke-width: 0.8"/>
      </g>
     </g>
     <g id="text_11">
      <!-- 1 -->
      <g transform="translate(22.81375 294.157319) scale(0.12 -0.12)">
       <use xlink:href="#DejaVuSans-31"/>
      </g>
     </g>
    </g>
    <g id="ytick_3">
     <g id="line2d_11">
      <g>
       <use xlink:href="#m26c78d1507" x="37.44875" y="239.358388" style="stroke: #000000; stroke-width: 0.8"/>
      </g>
     </g>
     <g id="text_12">
      <!-- 2 -->
      <g transform="translate(22.81375 243.91745) scale(0.12 -0.12)">
       <use xlink:href="#DejaVuSans-32"/>
      </g>
     </g>
    </g>
    <g id="ytick_4">
     <g id="line2d_12">
      <g>
       <use xlink:href="#m26c78d1507" x="37.44875" y="189.118519" style="stroke: #000000; stroke-width: 0.8"/>
      </g>
     </g>
     <g id="text_13">
      <!-- 3 -->
      <g transform="translate(22.81375 193.677582) scale(0.12 -0.12)">
       <use xlink:href="#DejaVuSans-33"/>
      </g>
     </g>
    </g>
    <g id="ytick_5">
     <g id="line2d_13">
      <g>
       <use xlink:href="#m26c78d1507" x="37.44875" y="138.878651" style="stroke: #000000; stroke-width: 0.8"/>
      </g>
     </g>
     <g id="text_14">
      <!-- 4 -->
      <g transform="translate(22.81375 143.437713) scale(0.12 -0.12)">
       <defs>
        <path id="DejaVuSans-34" d="M 2419 4116 
L 825 1625 
L 2419 1625 
L 2419 4116 
z
M 2253 4666 
L 3047 4666 
L 3047 1625 
L 3713 1625 
L 3713 1100 
L 3047 1100 
L 3047 0 
L 2419 0 
L 2419 1100 
L 313 1100 
L 313 1709 
L 2253 4666 
z
" transform="scale(0.015625)"/>
       </defs>
       <use xlink:href="#DejaVuSans-34"/>
      </g>
     </g>
    </g>
    <g id="ytick_6">
     <g id="line2d_14">
      <g>
       <use xlink:href="#m26c78d1507" x="37.44875" y="88.638782" style="stroke: #000000; stroke-width: 0.8"/>
      </g>
     </g>
     <g id="text_15">
      <!-- 5 -->
      <g transform="translate(22.81375 93.197845) scale(0.12 -0.12)">
       <use xlink:href="#DejaVuSans-35"/>
      </g>
     </g>
    </g>
    <g id="ytick_7">
     <g id="line2d_15">
      <g>
       <use xlink:href="#m26c78d1507" x="37.44875" y="38.398914" style="stroke: #000000; stroke-width: 0.8"/>
      </g>
     </g>
     <g id="text_16">
      <!-- 6 -->
      <g transform="translate(22.81375 42.957976) scale(0.12 -0.12)">
       <defs>
        <path id="DejaVuSans-36" d="M 2113 2584 
Q 1688 2584 1439 2293 
Q 1191 2003 1191 1497 
Q 1191 994 1439 701 
Q 1688 409 2113 409 
Q 2538 409 2786 701 
Q 3034 994 3034 1497 
Q 3034 2003 2786 2293 
Q 2538 2584 2113 2584 
z
M 3366 4563 
L 3366 3988 
Q 3128 4100 2886 4159 
Q 2644 4219 2406 4219 
Q 1781 4219 1451 3797 
Q 1122 3375 1075 2522 
Q 1259 2794 1537 2939 
Q 1816 3084 2150 3084 
Q 2853 3084 3261 2657 
Q 3669 2231 3669 1497 
Q 3669 778 3244 343 
Q 2819 -91 2113 -91 
Q 1303 -91 875 529 
Q 447 1150 447 2328 
Q 447 3434 972 4092 
Q 1497 4750 2381 4750 
Q 2619 4750 2861 4703 
Q 3103 4656 3366 4563 
z
" transform="scale(0.015625)"/>
       </defs>
       <use xlink:href="#DejaVuSans-36"/>
      </g>
     </g>
    </g>
    <g id="text_17">
     <!-- intensity [a.u.] -->
     <g transform="translate(16.318125 232.531875) rotate(-90) scale(0.12 -0.12)">
      <defs>
       <path id="DejaVuSans-74" d="M 1172 4494 
L 1172 3500 
L 2356 3500 
L 2356 3053 
L 1172 3053 
L 1172 1153 
Q 1172 725 1289 603 
Q 1406 481 1766 481 
L 2356 481 
L 2356 0 
L 1766 0 
Q 1100 0 847 248 
Q 594 497 594 1153 
L 594 3053 
L 172 3053 
L 172 3500 
L 594 3500 
L 594 4494 
L 1172 4494 
z
" transform="scale(0.015625)"/>
       <path id="DejaVuSans-73" d="M 2834 3397 
L 2834 2853 
Q 2591 2978 2328 3040 
Q 2066 3103 1784 3103 
Q 1356 3103 1142 2972 
Q 928 2841 928 2578 
Q 928 2378 1081 2264 
Q 1234 2150 1697 2047 
L 1894 2003 
Q 2506 1872 2764 1633 
Q 3022 1394 3022 966 
Q 3022 478 2636 193 
Q 2250 -91 1575 -91 
Q 1294 -91 989 -36 
Q 684 19 347 128 
L 347 722 
Q 666 556 975 473 
Q 1284 391 1588 391 
Q 1994 391 2212 530 
Q 2431 669 2431 922 
Q 2431 1156 2273 1281 
Q 2116 1406 1581 1522 
L 1381 1569 
Q 847 1681 609 1914 
Q 372 2147 372 2553 
Q 372 3047 722 3315 
Q 1072 3584 1716 3584 
Q 2034 3584 2315 3537 
Q 2597 3491 2834 3397 
z
" transform="scale(0.015625)"/>
       <path id="DejaVuSans-79" d="M 2059 -325 
Q 1816 -950 1584 -1140 
Q 1353 -1331 966 -1331 
L 506 -1331 
L 506 -850 
L 844 -850 
Q 1081 -850 1212 -737 
Q 1344 -625 1503 -206 
L 1606 56 
L 191 3500 
L 800 3500 
L 1894 763 
L 2988 3500 
L 3597 3500 
L 2059 -325 
z
" transform="scale(0.015625)"/>
       <path id="DejaVuSans-61" d="M 2194 1759 
Q 1497 1759 1228 1600 
Q 959 1441 959 1056 
Q 959 750 1161 570 
Q 1363 391 1709 391 
Q 2188 391 2477 730 
Q 2766 1069 2766 1631 
L 2766 1759 
L 2194 1759 
z
M 3341 1997 
L 3341 0 
L 2766 0 
L 2766 531 
Q 2569 213 2275 61 
Q 1981 -91 1556 -91 
Q 1019 -91 701 211 
Q 384 513 384 1019 
Q 384 1609 779 1909 
Q 1175 2209 1959 2209 
L 2766 2209 
L 2766 2266 
Q 2766 2663 2505 2880 
Q 2244 3097 1772 3097 
Q 1472 3097 1187 3025 
Q 903 2953 641 2809 
L 641 3341 
Q 956 3463 1253 3523 
Q 1550 3584 1831 3584 
Q 2591 3584 2966 3190 
Q 3341 2797 3341 1997 
z
" transform="scale(0.015625)"/>
       <path id="DejaVuSans-2e" d="M 684 794 
L 1344 794 
L 1344 0 
L 684 0 
L 684 794 
z
" transform="scale(0.015625)"/>
       <path id="DejaVuSans-75" d="M 544 1381 
L 544 3500 
L 1119 3500 
L 1119 1403 
Q 1119 906 1312 657 
Q 1506 409 1894 409 
Q 2359 409 2629 706 
Q 2900 1003 2900 1516 
L 2900 3500 
L 3475 3500 
L 3475 0 
L 2900 0 
L 2900 538 
Q 2691 219 2414 64 
Q 2138 -91 1772 -91 
Q 1169 -91 856 284 
Q 544 659 544 1381 
z
M 1991 3584 
L 1991 3584 
z
" transform="scale(0.015625)"/>
      </defs>
      <use xlink:href="#DejaVuSans-69"/>
      <use xlink:href="#DejaVuSans-6e" transform="translate(27.783203 0)"/>
      <use xlink:href="#DejaVuSans-74" transform="translate(91.162109 0)"/>
      <use xlink:href="#DejaVuSans-65" transform="translate(130.371094 0)"/>
      <use xlink:href="#DejaVuSans-6e" transform="translate(191.894531 0)"/>
      <use xlink:href="#DejaVuSans-73" transform="translate(255.273438 0)"/>
      <use xlink:href="#DejaVuSans-69" transform="translate(307.373047 0)"/>
      <use xlink:href="#DejaVuSans-74" transform="translate(335.15625 0)"/>
      <use xlink:href="#DejaVuSans-79" transform="translate(374.365234 0)"/>
      <use xlink:href="#DejaVuSans-20" transform="translate(433.544922 0)"/>
      <use xlink:href="#DejaVuSans-5b" transform="translate(465.332031 0)"/>
      <use xlink:href="#DejaVuSans-61" transform="translate(504.345703 0)"/>
      <use xlink:href="#DejaVuSans-2e" transform="translate(565.625 0)"/>
      <use xlink:href="#DejaVuSans-75" transform="translate(597.412109 0)"/>
      <use xlink:href="#DejaVuSans-2e" transform="translate(660.791016 0)"/>
      <use xlink:href="#DejaVuSans-5d" transform="translate(692.578125 0)"/>
     </g>
    </g>
   </g>
   <g id="line2d_16">
    <path d="M 57.739659 339.838125 
L 136.681808 339.738487 
L 140.252056 339.492168 
L 142.632221 339.103669 
L 144.615692 338.524664 
L 146.202469 337.811088 
L 147.789246 336.79505 
L 148.979329 335.784987 
L 150.169411 334.522662 
L 151.359494 332.974264 
L 152.549576 331.110832 
L 153.739659 328.911664 
L 155.326436 325.444126 
L 156.913213 321.389245 
L 158.896684 315.629922 
L 164.847097 297.553253 
L 166.03718 294.704932 
L 167.227262 292.402735 
L 168.020651 291.221728 
L 168.814039 290.351915 
L 169.607428 289.810847 
L 170.400816 289.609559 
L 171.194205 289.752198 
L 171.987593 290.235877 
L 172.780981 291.050776 
L 173.57437 292.18047 
L 174.764452 294.414599 
L 175.954535 297.207853 
L 177.541312 301.600406 
L 179.921477 308.983636 
L 183.095031 318.781113 
L 185.078502 324.153217 
L 186.665279 327.823092 
L 188.252056 330.884033 
L 189.442138 332.784769 
L 190.632221 334.367514 
L 191.822304 335.660452 
L 193.012386 336.697008 
L 194.599163 337.740015 
L 196.18594 338.474613 
L 197.772717 338.976018 
L 199.756188 339.370509 
L 202.533048 339.653401 
L 206.49999 339.795811 
L 216.020651 339.837512 
L 249.342965 339.740893 
L 252.913213 339.499247 
L 255.293378 339.117315 
L 257.276849 338.548616 
L 258.863626 337.847067 
L 260.450403 336.847044 
L 261.640486 335.850066 
L 262.830568 334.602274 
L 264.020651 333.06997 
L 265.210733 331.223865 
L 266.400816 329.042771 
L 267.987593 325.599362 
L 269.57437 321.566843 
L 271.557841 315.829495 
L 277.508254 297.719894 
L 278.698337 294.844271 
L 279.888419 292.509568 
L 280.681808 291.304467 
L 281.475196 290.409082 
L 282.268585 289.841412 
L 283.061973 289.612968 
L 283.855362 289.728389 
L 284.64875 290.185282 
L 285.442138 290.974308 
L 286.235527 292.079498 
L 287.42561 294.280332 
L 288.615692 297.045472 
L 290.202469 301.407404 
L 292.582634 308.773125 
L 295.756188 318.591439 
L 297.739659 323.989271 
L 299.326436 327.682861 
L 300.913213 330.768024 
L 302.49999 333.253508 
L 303.690072 334.752046 
L 304.880155 335.969894 
L 306.070238 336.941371 
L 307.657014 337.9152 
L 309.243791 338.596423 
L 311.227262 339.146793 
L 313.607428 339.514102 
L 316.780981 339.730961 
L 322.3347 339.826274 
L 348.516519 339.837885 
L 362.400816 339.728564 
L 365.57437 339.506812 
L 367.954535 339.131659 
L 369.938006 338.571895 
L 371.524783 337.880278 
L 373.11156 336.893091 
L 374.301643 335.909522 
L 375.491725 334.677809 
L 376.681808 333.163759 
L 377.87189 331.337632 
L 379.061973 329.177391 
L 380.64875 325.758021 
L 382.235527 321.747362 
L 384.218998 316.030701 
L 390.566105 296.878782 
L 391.756188 294.140428 
L 392.946271 291.971794 
L 393.739659 290.890556 
L 394.533048 290.127018 
L 395.326436 289.696711 
L 396.119824 289.609559 
L 396.913213 289.869496 
L 397.706601 290.467953 
L 398.49999 291.392681 
L 399.293378 292.625 
L 400.483461 294.995266 
L 401.673543 297.898653 
L 403.26032 302.389327 
L 406.433874 312.339531 
L 408.814039 319.542661 
L 410.79751 324.808781 
L 412.384287 328.379972 
L 413.971064 331.337632 
L 415.161147 333.163759 
L 416.351229 334.677809 
L 417.541312 335.909522 
L 418.731395 336.893091 
L 420.318171 337.880278 
L 421.904948 338.571895 
L 423.491725 339.041464 
L 425.475196 339.408727 
L 428.252056 339.670042 
L 432.615692 339.805574 
L 444.119824 339.837967 
L 463.557841 339.838125 
L 463.557841 339.838125 
" clip-path="url(#p740a9d5e8a)" style="fill: none; stroke: #1f77b4; stroke-width: 2; stroke-linecap: square"/>
   </g>
   <g id="line2d_17">
    <path d="M 57.739659 88.489018 
L 58.533048 88.947914 
L 58.929742 88.39501 
L 59.326436 89.201577 
L 59.72313 88.86059 
L 60.119824 89.427608 
L 60.516519 88.174418 
L 60.913213 88.590232 
L 61.706601 88.822619 
L 62.103295 87.672331 
L 62.49999 87.792949 
L 63.293378 88.466447 
L 63.690072 88.855341 
L 64.086767 88.776963 
L 64.483461 88.471672 
L 64.880155 88.380768 
L 65.276849 88.996868 
L 65.673543 88.886346 
L 66.070238 88.305803 
L 66.863626 88.683738 
L 67.26032 88.441391 
L 67.657014 88.431411 
L 68.053709 88.582697 
L 69.243791 88.513725 
L 70.03718 88.756483 
L 70.433874 88.364422 
L 70.830568 88.419156 
L 71.227262 88.321347 
L 71.623957 89.016162 
L 72.020651 89.388105 
L 72.417345 88.607721 
L 72.814039 88.157013 
L 73.210733 88.278283 
L 73.607428 88.882639 
L 74.004122 90.096011 
L 74.400816 88.354072 
L 74.79751 88.366934 
L 75.194205 88.925271 
L 75.987593 88.080409 
L 76.384287 88.272124 
L 76.780981 88.614129 
L 77.177676 87.881435 
L 77.57437 89.253145 
L 77.971064 88.77264 
L 78.764452 88.69571 
L 79.557841 88.938111 
L 79.954535 88.300593 
L 81.541312 88.480956 
L 81.938006 88.662695 
L 82.3347 88.148571 
L 83.128089 88.830867 
L 83.524783 88.579377 
L 84.318171 88.632513 
L 84.714866 89.046799 
L 85.11156 89.19872 
L 85.508254 88.712878 
L 85.904948 88.823608 
L 86.301643 88.708984 
L 86.698337 88.054244 
L 87.491725 88.454444 
L 87.888419 88.110779 
L 88.681808 89.40119 
L 89.078502 88.008308 
L 89.475196 89.407761 
L 89.87189 88.0748 
L 90.268585 87.933937 
L 90.665279 87.407062 
L 91.061973 88.722979 
L 91.458667 88.946035 
L 91.855362 89.564001 
L 92.252056 88.055091 
L 92.64875 89.290519 
L 93.045444 88.40495 
L 93.838833 88.604532 
L 94.235527 88.315104 
L 94.632221 89.278519 
L 95.028915 89.715123 
L 95.42561 88.606582 
L 95.822304 88.278592 
L 97.409081 89.0358 
L 97.805775 89.254999 
L 98.599163 88.82133 
L 100.18594 88.650785 
L 100.582634 88.732742 
L 100.979329 88.637995 
L 101.376023 88.126893 
L 101.772717 88.210336 
L 102.169411 88.968849 
L 102.566105 89.156663 
L 102.9628 89.020813 
L 103.756188 88.511776 
L 104.152882 89.000244 
L 104.946271 89.337597 
L 105.342965 88.815168 
L 105.739659 88.942099 
L 106.136353 89.355339 
L 106.533048 88.477394 
L 106.929742 88.202026 
L 107.326436 88.2827 
L 107.72313 89.055106 
L 108.119824 88.375543 
L 108.516519 88.246246 
L 108.913213 88.622775 
L 109.309907 88.408607 
L 109.706601 87.616988 
L 110.49999 89.313086 
L 110.896684 88.832996 
L 111.293378 89.046474 
L 111.690072 88.17371 
L 112.086767 88.186194 
L 112.880155 89.61421 
L 113.276849 89.432939 
L 113.673543 88.21156 
L 114.070238 88.631449 
L 114.466932 89.573522 
L 114.863626 89.421085 
L 115.26032 88.27977 
L 115.657014 88.389066 
L 116.053709 89.060035 
L 116.450403 89.107655 
L 116.847097 88.495385 
L 117.243791 88.239229 
L 117.640486 88.456719 
L 118.03718 88.013221 
L 118.433874 88.096057 
L 118.830568 88.536691 
L 119.227262 88.319907 
L 119.623957 89.332481 
L 120.020651 89.726723 
L 120.417345 88.596002 
L 120.814039 88.778163 
L 121.210733 88.738029 
L 121.607428 88.915886 
L 122.004122 87.978979 
L 122.400816 87.637179 
L 122.79751 87.747493 
L 123.194205 88.562705 
L 123.590899 88.717543 
L 124.780981 89.745623 
L 125.177676 87.741961 
L 125.57437 89.273419 
L 125.971064 88.283757 
L 126.367758 89.683675 
L 126.764452 88.244881 
L 127.161147 89.024809 
L 127.557841 88.367155 
L 128.747924 88.350087 
L 129.144618 88.845265 
L 129.541312 89.11184 
L 129.938006 88.765005 
L 130.3347 89.009814 
L 130.731395 88.494772 
L 131.128089 89.289721 
L 131.524783 89.446619 
L 131.921477 89.331257 
L 132.318171 88.900301 
L 133.11156 88.419843 
L 133.508254 87.939887 
L 133.904948 88.161804 
L 134.301643 88.997161 
L 134.698337 89.421204 
L 135.491725 88.772541 
L 135.888419 88.811328 
L 136.285114 88.097458 
L 136.681808 88.068991 
L 137.078502 88.743177 
L 137.475196 89.045966 
L 137.87189 88.055725 
L 138.665279 88.974679 
L 139.061973 88.246418 
L 139.855362 88.990695 
L 140.252056 88.61523 
L 140.64875 88.004038 
L 141.045444 87.607054 
L 141.442138 88.253553 
L 141.838833 87.708667 
L 142.235527 87.862478 
L 142.632221 87.800602 
L 143.028915 87.957642 
L 143.42561 87.965471 
L 143.822304 86.878801 
L 144.218998 87.508806 
L 144.615692 87.474975 
L 145.012386 86.702175 
L 145.409081 86.619414 
L 145.805775 86.967224 
L 146.202469 87.031253 
L 146.599163 86.811713 
L 146.995857 85.670887 
L 147.392552 86.107393 
L 147.789246 85.693621 
L 148.18594 85.027764 
L 148.582634 85.229362 
L 148.979329 85.23691 
L 149.772717 83.487876 
L 150.169411 83.009517 
L 150.566105 83.0747 
L 150.9628 82.989096 
L 151.756188 81.180465 
L 152.946271 79.498001 
L 153.342965 78.54547 
L 154.136353 75.853816 
L 154.533048 75.831952 
L 154.929742 75.260348 
L 155.326436 74.436237 
L 156.119824 71.943917 
L 156.516519 71.234518 
L 156.913213 69.701738 
L 157.309907 69.323993 
L 157.706601 67.713799 
L 158.103295 67.587906 
L 158.49999 65.406018 
L 159.293378 63.570932 
L 159.690072 61.868054 
L 160.086767 60.752513 
L 160.483461 60.16866 
L 160.880155 57.592299 
L 161.276849 56.953125 
L 161.673543 55.960293 
L 162.070238 54.156501 
L 163.26032 50.782907 
L 163.657014 49.808374 
L 164.053709 48.220637 
L 164.450403 47.572902 
L 164.847097 45.857459 
L 166.03718 42.990187 
L 166.433874 42.511491 
L 167.227262 40.728638 
L 168.020651 40.038512 
L 168.814039 38.339689 
L 169.607428 38.028876 
L 170.004122 37.772918 
L 170.79751 38.482173 
L 171.590899 38.430059 
L 172.384287 39.563765 
L 172.780981 39.440002 
L 173.177676 39.690721 
L 174.367758 42.42113 
L 174.764452 42.774755 
L 175.161147 43.744512 
L 175.557841 43.992376 
L 175.954535 46.662713 
L 176.747924 47.833587 
L 177.541312 49.466098 
L 177.938006 51.406845 
L 178.3347 51.854 
L 178.731395 54.093397 
L 180.318171 58.902191 
L 180.714866 60.729307 
L 181.904948 64.047515 
L 182.301643 65.803044 
L 182.698337 66.349238 
L 183.095031 68.102047 
L 183.491725 68.702584 
L 183.888419 69.517994 
L 184.285114 71.06721 
L 184.681808 71.680879 
L 185.87189 74.959064 
L 186.665279 77.355967 
L 187.061973 77.479634 
L 187.855362 79.225219 
L 189.838833 82.051382 
L 190.235527 82.389689 
L 190.632221 83.677286 
L 191.822304 84.221189 
L 192.218998 84.663266 
L 192.615692 85.381299 
L 193.012386 85.106186 
L 193.805775 86.668519 
L 194.202469 86.552569 
L 194.599163 86.735837 
L 194.995857 86.62979 
L 195.392552 87.595671 
L 195.789246 86.828851 
L 196.18594 87.522551 
L 196.582634 87.631365 
L 196.979329 88.157198 
L 197.376023 87.590036 
L 197.772717 87.366197 
L 198.566105 88.696538 
L 198.9628 88.214369 
L 199.359494 88.223365 
L 199.756188 87.910469 
L 200.152882 88.111409 
L 200.549576 88.777001 
L 200.946271 88.853591 
L 201.342965 88.058281 
L 201.739659 87.958557 
L 202.136353 88.290833 
L 202.533048 88.151765 
L 202.929742 88.28677 
L 203.326436 87.971574 
L 203.72313 88.117391 
L 204.119824 88.643515 
L 204.516519 88.046166 
L 205.309907 88.584831 
L 205.706601 87.606039 
L 206.103295 88.84187 
L 206.49999 88.448878 
L 207.293378 88.699294 
L 207.690072 88.373217 
L 208.086767 88.265835 
L 208.483461 87.856567 
L 208.880155 88.281188 
L 209.276849 88.307086 
L 209.673543 89.287737 
L 210.070238 89.331726 
L 210.466932 88.471624 
L 210.863626 89.566518 
L 211.26032 88.72223 
L 211.657014 88.445056 
L 212.053709 89.068418 
L 212.847097 88.102549 
L 213.243791 88.227013 
L 214.03718 88.726563 
L 214.433874 88.526906 
L 215.227262 88.599162 
L 215.623957 88.099938 
L 216.020651 88.393891 
L 216.417345 88.160993 
L 216.814039 88.39313 
L 217.210733 88.821806 
L 217.607428 88.455691 
L 218.004122 88.457058 
L 218.400816 88.924381 
L 219.194205 88.422949 
L 219.590899 88.806212 
L 219.987593 88.674381 
L 220.384287 88.269926 
L 221.177676 88.312531 
L 221.57437 88.649422 
L 221.971064 88.700577 
L 222.367758 88.486383 
L 222.764452 88.841963 
L 223.161147 88.920232 
L 223.557841 88.260907 
L 223.954535 88.276669 
L 224.351229 89.014022 
L 224.747924 87.845338 
L 225.144618 88.734034 
L 225.541312 88.881515 
L 225.938006 88.893611 
L 226.3347 88.288713 
L 226.731395 88.310928 
L 227.128089 89.042698 
L 227.524783 88.288093 
L 227.921477 87.892725 
L 228.318171 89.39352 
L 229.11156 88.2652 
L 229.508254 89.301547 
L 229.904948 88.51286 
L 230.301643 88.721705 
L 230.698337 88.315232 
L 232.285114 88.720461 
L 233.078502 89.207477 
L 233.475196 89.101455 
L 233.87189 88.558502 
L 234.268585 88.249867 
L 234.665279 88.661077 
L 235.061973 88.771728 
L 235.458667 89.335795 
L 235.855362 89.377204 
L 236.252056 88.749181 
L 236.64875 89.133432 
L 237.442138 88.552577 
L 237.838833 88.705787 
L 238.632221 88.168328 
L 239.028915 88.348567 
L 239.42561 88.796797 
L 239.822304 88.668939 
L 240.218998 88.983122 
L 241.409081 88.686662 
L 241.805775 88.87883 
L 242.202469 88.380452 
L 242.599163 88.926147 
L 242.995857 88.528514 
L 243.789246 88.668154 
L 244.18594 88.393228 
L 244.979329 88.806763 
L 245.376023 88.224105 
L 245.772717 87.873132 
L 246.169411 89.031936 
L 246.566105 88.528174 
L 247.359494 88.809884 
L 247.756188 88.560566 
L 248.152882 87.941751 
L 248.549576 87.756308 
L 248.946271 87.848499 
L 249.739659 89.292932 
L 250.136353 88.981884 
L 250.533048 88.409815 
L 250.929742 88.573078 
L 251.72313 88.615821 
L 252.119824 88.194667 
L 252.516519 88.04709 
L 252.913213 88.147472 
L 253.309907 88.014378 
L 253.706601 88.362564 
L 254.103295 88.044994 
L 254.49999 87.893302 
L 254.896684 88.11223 
L 255.293378 87.998767 
L 255.690072 88.114243 
L 256.086767 87.529342 
L 256.483461 87.762258 
L 256.880155 87.502663 
L 257.276849 88.199868 
L 257.673543 87.093828 
L 258.070238 86.554339 
L 258.466932 87.725073 
L 258.863626 85.989684 
L 259.26032 86.019241 
L 259.657014 85.929919 
L 260.053709 86.081591 
L 260.450403 85.663427 
L 260.847097 85.645796 
L 261.243791 84.734023 
L 261.640486 84.428893 
L 262.03718 84.367493 
L 262.433874 83.744952 
L 262.830568 83.37612 
L 263.227262 82.471241 
L 263.623957 82.709337 
L 264.020651 82.583875 
L 264.417345 81.626575 
L 265.210733 79.226993 
L 265.607428 79.38811 
L 266.79751 77.848469 
L 268.384287 73.492679 
L 269.177676 71.793028 
L 270.367758 68.158024 
L 271.557841 63.853707 
L 272.351229 63.00127 
L 272.747924 61.990759 
L 273.144618 60.341313 
L 273.541312 57.847298 
L 273.938006 57.399809 
L 274.3347 56.068126 
L 274.731395 54.26352 
L 275.128089 53.709359 
L 276.318171 49.779921 
L 276.714866 48.222978 
L 277.11156 47.745114 
L 277.508254 46.960158 
L 277.904948 45.390632 
L 278.301643 44.643191 
L 278.698337 44.351998 
L 279.491725 41.960704 
L 280.681808 39.957969 
L 281.078502 39.870824 
L 281.475196 39.338126 
L 281.87189 39.367766 
L 282.268585 38.6277 
L 282.665279 38.919458 
L 283.061973 39.040161 
L 283.458667 39.032094 
L 283.855362 38.595545 
L 284.64875 38.839077 
L 285.045444 39.283212 
L 285.442138 40.169713 
L 287.028915 42.395941 
L 289.012386 46.389528 
L 289.409081 47.392841 
L 289.805775 48.825351 
L 290.202469 49.712656 
L 290.599163 50.904505 
L 290.995857 52.584675 
L 291.392552 53.752941 
L 291.789246 55.331784 
L 292.18594 55.99932 
L 292.582634 58.008247 
L 292.979329 58.60087 
L 293.376023 58.816305 
L 295.359494 66.49841 
L 295.756188 67.498125 
L 296.152882 68.895571 
L 296.549576 70.736063 
L 297.342965 71.771453 
L 297.739659 73.350644 
L 298.929742 75.424701 
L 299.326436 76.234564 
L 300.119824 78.887717 
L 300.516519 78.844014 
L 301.309907 80.122517 
L 302.49999 82.650438 
L 302.896684 82.881807 
L 303.293378 82.524122 
L 303.690072 82.734421 
L 304.086767 83.156113 
L 304.483461 83.920276 
L 304.880155 85.201146 
L 305.276849 85.222651 
L 305.673543 85.591333 
L 306.070238 86.159227 
L 306.466932 86.175118 
L 306.863626 86.767633 
L 307.26032 86.471754 
L 308.450403 87.093027 
L 309.243791 86.447357 
L 309.640486 88.250989 
L 310.03718 87.229668 
L 310.433874 87.643739 
L 310.830568 88.997781 
L 311.227262 87.303859 
L 311.623957 88.103238 
L 312.020651 88.551159 
L 312.814039 88.100259 
L 313.210733 88.419509 
L 313.607428 88.259801 
L 314.004122 88.478912 
L 314.400816 89.155888 
L 314.79751 88.268527 
L 315.194205 88.513233 
L 315.590899 89.137065 
L 316.384287 87.562072 
L 316.780981 87.988926 
L 317.177676 88.029012 
L 318.764452 88.841946 
L 319.557841 88.859297 
L 320.351229 88.562119 
L 320.747924 88.963453 
L 321.144618 88.705306 
L 321.541312 88.153983 
L 321.938006 88.270538 
L 322.3347 88.167622 
L 323.128089 89.266759 
L 323.524783 88.205621 
L 323.921477 88.235558 
L 324.318171 89.255873 
L 324.714866 88.762773 
L 325.11156 88.974295 
L 325.508254 88.241995 
L 325.904948 88.370174 
L 326.301643 88.344675 
L 326.698337 88.790533 
L 327.095031 87.975465 
L 327.491725 89.265931 
L 327.888419 88.968935 
L 328.285114 88.442945 
L 329.475196 89.142394 
L 329.87189 88.942104 
L 330.268585 89.091757 
L 330.665279 88.744481 
L 331.061973 88.670415 
L 331.458667 88.44355 
L 331.855362 88.667977 
L 332.252056 89.119373 
L 332.64875 88.695689 
L 333.045444 88.91314 
L 333.442138 88.516565 
L 333.838833 88.972731 
L 334.235527 88.486512 
L 334.632221 88.216657 
L 335.028915 88.547185 
L 336.218998 88.410125 
L 337.012386 89.294587 
L 337.409081 89.036658 
L 338.202469 89.086424 
L 338.995857 89.377854 
L 339.392552 88.50028 
L 339.789246 88.326837 
L 340.18594 88.495338 
L 340.582634 89.087812 
L 340.979329 88.26197 
L 341.376023 87.695893 
L 341.772717 88.652088 
L 342.566105 88.299154 
L 342.9628 88.867605 
L 343.359494 88.649325 
L 343.756188 88.781962 
L 344.152882 88.095163 
L 344.549576 88.32267 
L 344.946271 89.139314 
L 345.342965 87.454222 
L 345.739659 88.777297 
L 346.136353 88.108408 
L 347.326436 88.955415 
L 347.72313 88.838661 
L 348.119824 89.820126 
L 348.913213 87.794053 
L 349.309907 88.201875 
L 349.706601 87.863199 
L 350.103295 88.031453 
L 350.49999 88.545032 
L 350.896684 88.397363 
L 351.293378 88.401523 
L 351.690072 88.917584 
L 352.086767 88.952519 
L 352.483461 88.607598 
L 352.880155 88.962877 
L 353.276849 89.503452 
L 354.070238 88.948033 
L 354.466932 89.485093 
L 354.863626 89.348619 
L 355.26032 88.83088 
L 355.657014 89.237481 
L 356.053709 89.260434 
L 356.847097 88.787541 
L 357.243791 88.700398 
L 357.640486 88.064993 
L 358.03718 88.809854 
L 358.433874 88.573676 
L 358.830568 88.631438 
L 359.227262 89.001776 
L 359.623957 89.007775 
L 360.020651 89.126655 
L 360.417345 88.693278 
L 360.814039 89.0019 
L 361.607428 88.58766 
L 362.004122 87.910548 
L 362.400816 89.654813 
L 362.79751 88.993859 
L 363.194205 88.040942 
L 363.590899 88.480068 
L 363.987593 88.595802 
L 364.384287 88.396881 
L 364.780981 88.61593 
L 365.177676 88.327007 
L 365.971064 88.171415 
L 366.367758 87.628554 
L 366.764452 88.386892 
L 367.557841 87.755541 
L 367.954535 87.878516 
L 368.747924 87.512124 
L 369.144618 87.289511 
L 369.541312 86.681567 
L 370.3347 86.865579 
L 371.128089 86.644149 
L 371.524783 86.211537 
L 371.921477 86.540178 
L 372.318171 86.49088 
L 372.714866 85.608291 
L 373.11156 85.593183 
L 373.904948 84.987324 
L 374.301643 84.614769 
L 375.095031 84.31614 
L 375.491725 84.478532 
L 375.888419 83.354822 
L 376.681808 81.973761 
L 377.078502 81.710271 
L 377.475196 81.758013 
L 377.87189 79.880749 
L 378.665279 77.935414 
L 379.061973 77.789378 
L 379.855362 76.460981 
L 380.252056 76.33608 
L 380.64875 74.509734 
L 381.442138 71.819911 
L 381.838833 71.77032 
L 383.028915 68.819903 
L 384.615692 63.238891 
L 385.805775 59.87445 
L 386.202469 59.211453 
L 387.789246 53.350095 
L 388.18594 52.581614 
L 389.376023 48.755637 
L 389.772717 46.987011 
L 390.169411 45.963591 
L 390.566105 45.543359 
L 390.9628 44.64035 
L 391.359494 44.241306 
L 392.152882 41.961248 
L 392.549576 41.609655 
L 392.946271 40.766787 
L 393.342965 40.595765 
L 394.136353 39.3411 
L 394.929742 38.816535 
L 395.72313 37.438125 
L 396.119824 38.609096 
L 396.516519 38.833458 
L 396.913213 38.809061 
L 397.309907 39.557948 
L 397.706601 39.410593 
L 398.103295 39.1338 
L 398.49999 39.801854 
L 400.086767 43.347487 
L 400.880155 44.115603 
L 401.673543 47.096952 
L 402.070238 47.960023 
L 402.466932 49.213653 
L 403.26032 50.487861 
L 404.847097 56.150631 
L 405.243791 57.208805 
L 405.640486 58.781117 
L 406.433874 61.213138 
L 407.227262 63.8507 
L 407.623957 64.70476 
L 409.607428 70.598132 
L 410.004122 70.681511 
L 410.400816 73.186621 
L 410.79751 73.75645 
L 411.194205 74.050417 
L 411.590899 75.296603 
L 411.987593 76.020078 
L 412.384287 77.067303 
L 412.780981 77.288744 
L 413.177676 78.222694 
L 413.57437 80.357309 
L 413.971064 79.85121 
L 414.367758 80.575938 
L 414.764452 80.982793 
L 415.557841 82.45721 
L 415.954535 82.39747 
L 416.351229 83.190394 
L 417.144618 83.678007 
L 417.541312 85.350346 
L 417.938006 85.339596 
L 419.128089 86.541506 
L 419.524783 86.30615 
L 419.921477 85.794509 
L 420.714866 86.572532 
L 421.904948 88.150688 
L 422.301643 88.154302 
L 422.698337 87.613945 
L 423.491725 88.140072 
L 423.888419 87.770229 
L 424.285114 87.93989 
L 424.681808 88.35191 
L 425.078502 88.220346 
L 425.475196 87.829565 
L 425.87189 87.978074 
L 426.268585 88.377228 
L 426.665279 88.563518 
L 427.061973 87.987796 
L 427.458667 88.626398 
L 427.855362 88.608564 
L 428.252056 88.336992 
L 428.64875 88.638551 
L 429.045444 88.032757 
L 429.442138 88.670024 
L 429.838833 88.482792 
L 430.235527 88.973273 
L 430.632221 88.187766 
L 431.028915 89.290664 
L 431.42561 88.779953 
L 432.615692 88.565075 
L 433.409081 89.03108 
L 433.805775 88.740306 
L 434.202469 89.390404 
L 434.995857 88.671139 
L 435.392552 88.958151 
L 435.789246 88.35148 
L 436.582634 88.936732 
L 436.979329 89.446254 
L 437.772717 88.134683 
L 438.169411 88.299388 
L 438.566105 88.343607 
L 438.9628 88.743423 
L 439.359494 88.828119 
L 439.756188 88.427918 
L 440.152882 88.777615 
L 440.946271 88.108176 
L 441.342965 88.745839 
L 441.739659 88.370889 
L 442.533048 89.054449 
L 443.326436 88.713063 
L 443.72313 89.132298 
L 444.119824 88.226027 
L 444.516519 89.507206 
L 444.913213 89.406462 
L 445.309907 89.174881 
L 445.706601 88.735755 
L 446.103295 87.913517 
L 446.49999 88.583294 
L 446.896684 88.218215 
L 447.293378 89.267044 
L 448.086767 88.406696 
L 448.483461 88.663471 
L 448.880155 88.172351 
L 449.276849 88.61555 
L 449.673543 87.828068 
L 450.070238 88.80958 
L 450.466932 88.101214 
L 450.863626 88.356493 
L 451.26032 88.099885 
L 451.657014 88.229582 
L 452.450403 89.211434 
L 452.847097 88.803474 
L 453.243791 88.794341 
L 454.03718 88.444043 
L 454.830568 88.84636 
L 455.227262 88.794108 
L 455.623957 88.55276 
L 456.020651 88.700154 
L 456.814039 88.48393 
L 457.210733 88.610514 
L 457.607428 88.292658 
L 458.004122 88.664353 
L 458.79751 88.594409 
L 459.194205 89.037071 
L 459.590899 88.555911 
L 460.780981 88.264411 
L 461.177676 89.116799 
L 461.57437 88.636168 
L 461.971064 89.099379 
L 462.367758 88.422675 
L 462.764452 89.091264 
L 463.161147 88.671277 
L 463.557841 87.902335 
L 463.557841 87.902335 
" clip-path="url(#p740a9d5e8a)" style="fill: none; stroke: #ff7f0e; stroke-width: 2; stroke-linecap: square"/>
   </g>
   <g id="line2d_18">
    <path d="M 57.739659 339.838125 
L 60.516519 339.838125 
L 60.913213 335.757057 
L 61.309907 338.777342 
L 61.706601 339.838125 
L 63.690072 339.838125 
L 64.086767 336.699975 
L 64.483461 337.834423 
L 64.880155 339.838125 
L 65.276849 337.053569 
L 65.673543 337.480829 
L 66.070238 339.838125 
L 66.466932 337.407164 
L 66.863626 337.127235 
L 67.26032 339.838125 
L 67.657014 337.760758 
L 68.053709 334.814138 
L 68.450403 334.814138 
L 68.847097 336.537911 
L 69.243791 339.838125 
L 70.433874 339.838125 
L 70.830568 338.703676 
L 71.227262 334.814138 
L 71.623957 335.712857 
L 72.020651 339.838125 
L 72.417345 339.175136 
L 72.814039 333.723889 
L 73.210733 326.047944 
L 73.607428 339.838125 
L 74.004122 339.646595 
L 74.400816 334.814138 
L 74.79751 334.814138 
L 75.194205 339.676061 
L 75.590899 339.838125 
L 75.987593 339.838125 
L 76.384287 335.329797 
L 76.780981 334.814138 
L 77.177676 339.086737 
L 77.57437 331.528657 
L 77.971064 337.86389 
L 78.367758 339.838125 
L 80.351229 339.838125 
L 80.747924 336.626309 
L 81.144618 337.908089 
L 81.541312 339.838125 
L 81.938006 336.979904 
L 82.3347 337.554495 
L 82.731395 337.215633 
L 83.921477 329.790151 
L 84.318171 329.790151 
L 84.714866 333.856487 
L 85.11156 336.007519 
L 85.508254 333.385028 
L 85.904948 338.158552 
L 86.301643 336.375847 
L 86.698337 338.394281 
L 87.095031 336.140117 
L 87.491725 338.630011 
L 87.888419 335.904387 
L 88.285114 338.86574 
L 88.681808 334.814138 
L 89.078502 334.077483 
L 89.475196 329.790151 
L 89.87189 330.291077 
L 90.268585 334.814138 
L 90.665279 335.079334 
L 91.061973 339.690794 
L 91.458667 334.814138 
L 91.855362 334.814138 
L 92.252056 329.996415 
L 92.64875 339.189869 
L 93.045444 326.092143 
L 93.442138 338.158552 
L 93.838833 331.145596 
L 94.235527 334.018551 
L 94.632221 334.814138 
L 95.028915 338.806808 
L 95.42561 332.088515 
L 96.218998 334.814138 
L 96.615692 338.335349 
L 97.012386 333.031433 
L 97.805775 339.838125 
L 98.202469 330.68887 
L 98.599163 327.698051 
L 99.392552 337.510295 
L 99.789246 339.838125 
L 100.582634 339.838125 
L 100.979329 335.388729 
L 101.376023 334.003818 
L 101.772717 339.838125 
L 102.169411 339.838125 
L 102.566105 336.331647 
L 102.9628 329.790151 
L 103.359494 331.307661 
L 103.756188 332.014849 
L 104.152882 327.329724 
L 104.549576 334.814138 
L 104.946271 332.722038 
L 105.342965 327.55072 
L 105.739659 339.027805 
L 106.136353 332.736771 
L 106.533048 322.040541 
L 106.929742 339.838125 
L 107.326436 339.499264 
L 107.72313 335.035135 
L 108.119824 339.734993 
L 108.516519 334.828871 
L 108.913213 339.705527 
L 109.309907 335.064601 
L 109.706601 334.814138 
L 110.103295 334.814138 
L 110.49999 339.234068 
L 111.293378 321.421751 
L 111.690072 336.007519 
L 112.086767 331.941184 
L 112.483461 333.620757 
L 112.880155 338.526879 
L 113.276849 339.838125 
L 113.673543 336.361114 
L 114.070238 334.814138 
L 114.466932 328.331574 
L 114.863626 327.889581 
L 115.26032 332.795704 
L 115.657014 334.814138 
L 116.053709 337.583961 
L 116.450403 334.534209 
L 116.847097 334.858337 
L 117.640486 326.637268 
L 118.03718 330.453141 
L 118.433874 326.828798 
L 118.830568 331.73492 
L 119.227262 331.16033 
L 119.623957 326.475204 
L 120.020651 328.198977 
L 120.417345 329.186094 
L 120.814039 338.48268 
L 121.607428 329.790151 
L 122.004122 331.793853 
L 122.400816 338.954139 
L 122.79751 334.814138 
L 123.194205 333.517625 
L 123.590899 324.235773 
L 123.987593 320.979758 
L 124.384287 335.1088 
L 124.780981 339.484531 
L 125.177676 329.790151 
L 125.57437 329.790151 
L 125.971064 334.637341 
L 126.367758 334.814138 
L 126.764452 334.814138 
L 127.161147 321.333352 
L 127.557841 324.117908 
L 127.954535 329.02403 
L 128.351229 338.070153 
L 128.747924 327.771717 
L 129.144618 332.574707 
L 129.541312 323.454919 
L 129.938006 330.747803 
L 130.3347 334.814138 
L 130.731395 334.814138 
L 131.128089 331.499191 
L 131.524783 329.790151 
L 131.921477 332.869369 
L 132.318171 337.775491 
L 132.714866 334.151149 
L 133.11156 332.515775 
L 133.508254 332.20638 
L 134.301643 332.442109 
L 134.698337 329.790151 
L 135.095031 331.926451 
L 135.491725 334.814138 
L 136.285114 334.814138 
L 136.681808 333.149298 
L 137.078502 332.884102 
L 137.475196 338.409014 
L 138.268585 325.959545 
L 138.665279 328.714635 
L 139.061973 327.639119 
L 139.458667 338.158552 
L 139.855362 329.790151 
L 140.252056 330.998265 
L 140.64875 338.379548 
L 141.045444 325.134492 
L 141.442138 329.539689 
L 141.838833 324.898762 
L 142.235527 329.775418 
L 142.632221 324.869296 
L 143.028915 334.372145 
L 143.42561 330.129013 
L 143.822304 316.088369 
L 144.218998 332.515775 
L 144.615692 326.151076 
L 145.012386 328.979831 
L 145.409081 333.885953 
L 145.805775 330.836201 
L 146.202469 329.790151 
L 146.599163 329.790151 
L 146.995857 318.917124 
L 147.392552 328.744101 
L 147.789246 328.036912 
L 148.18594 321.495416 
L 148.582634 326.047944 
L 149.376023 327.683318 
L 149.772717 318.592996 
L 150.169411 323.101324 
L 150.566105 332.250579 
L 150.9628 327.344457 
L 151.359494 320.110505 
L 151.756188 319.138121 
L 152.152882 318.489864 
L 152.549576 313.642674 
L 152.946271 317.885807 
L 153.342965 319.933708 
L 153.739659 329.790151 
L 154.136353 332.795704 
L 154.533048 330.143746 
L 154.929742 307.20431 
L 155.326436 314.718191 
L 155.72313 311.62424 
L 156.119824 304.213491 
L 156.516519 323.17499 
L 156.913213 314.040468 
L 157.309907 310.254062 
L 157.706601 312.066233 
L 158.103295 286.519039 
L 158.49999 313.274347 
L 158.896684 280.080674 
L 159.293378 309.517407 
L 159.690072 309.694204 
L 160.086767 314.452995 
L 160.483461 296.154486 
L 160.880155 294.622243 
L 161.276849 299.02744 
L 161.673543 291.071566 
L 162.070238 289.598256 
L 162.863626 307.513705 
L 163.26032 282.983095 
L 163.657014 307.808367 
L 164.053709 287.520889 
L 164.450403 277.988574 
L 164.847097 282.894696 
L 165.243791 274.894623 
L 165.640486 294.371781 
L 166.03718 276.795193 
L 166.433874 274.541029 
L 166.830568 284.088077 
L 167.227262 282.187508 
L 167.623957 289.61299 
L 168.020651 292.220748 
L 168.417345 280.463735 
L 168.814039 280.331137 
L 169.210733 290.526442 
L 170.004122 249.406362 
L 170.400816 269.738039 
L 170.79751 306.541321 
L 171.194205 293.811923 
L 171.590899 275.528147 
L 171.987593 271.815406 
L 172.384287 294.622243 
L 172.780981 287.71242 
L 173.177676 262.062094 
L 173.57437 281.288789 
L 173.971064 316.574561 
L 174.764452 271.093484 
L 175.161147 287.918683 
L 175.557841 260.42672 
L 175.954535 289.598256 
L 176.351229 289.598256 
L 176.747924 270.26843 
L 177.144618 302.504451 
L 177.541312 295.476763 
L 177.938006 294.622243 
L 178.731395 271.064018 
L 179.524783 297.613062 
L 179.921477 295.756692 
L 180.318171 279.53555 
L 180.714866 303.756765 
L 181.11156 318.254135 
L 181.508254 309.487941 
L 181.904948 288.169146 
L 182.698337 304.670217 
L 183.095031 307.616837 
L 183.491725 315.351714 
L 183.888419 306.187726 
L 184.285114 307.587371 
L 184.681808 307.366374 
L 185.078502 289.907652 
L 185.475196 293.531994 
L 185.87189 302.548651 
L 186.268585 301.649932 
L 186.665279 304.670217 
L 187.061973 311.742105 
L 187.458667 326.416272 
L 187.855362 317.532213 
L 188.252056 296.670144 
L 188.64875 317.311216 
L 189.045444 321.230221 
L 189.442138 312.876553 
L 189.838833 324.766164 
L 190.235527 323.116057 
L 190.632221 316.132568 
L 191.028915 322.998193 
L 191.42561 311.580041 
L 191.822304 329.436557 
L 192.218998 324.294705 
L 193.012386 304.670217 
L 193.409081 324.294705 
L 193.805775 315.18965 
L 194.202469 314.718191 
L 194.599163 319.270718 
L 194.995857 319.742178 
L 195.392552 328.375774 
L 195.789246 333.989085 
L 196.18594 322.570933 
L 196.582634 323.705381 
L 196.979329 317.075487 
L 197.376023 325.900613 
L 197.772717 315.351714 
L 198.169411 320.169437 
L 198.566105 321.392285 
L 198.9628 322.998193 
L 199.359494 305.937264 
L 199.756188 309.72367 
L 200.152882 316.839757 
L 200.549576 311.933635 
L 200.946271 315.027586 
L 201.342965 322.291004 
L 201.739659 322.335203 
L 202.136353 322.055274 
L 202.929742 331.867518 
L 203.326436 330.895134 
L 203.72313 328.449439 
L 204.119824 329.64282 
L 204.516519 319.742178 
L 204.913213 318.254135 
L 205.309907 311.977834 
L 205.706601 309.679471 
L 206.103295 321.362819 
L 206.49999 308.67762 
L 207.293378 295.845091 
L 207.690072 329.790151 
L 208.086767 328.699902 
L 208.483461 320.169437 
L 208.880155 325.384955 
L 209.276849 334.622608 
L 209.673543 329.790151 
L 210.070238 329.790151 
L 210.466932 320.066306 
L 210.863626 324.486236 
L 211.26032 324.766164 
L 211.657014 311.241179 
L 212.053709 327.256058 
L 212.450403 325.517553 
L 212.847097 320.61143 
L 213.243791 323.779047 
L 213.640486 320.84716 
L 214.03718 323.543317 
L 214.433874 310.033065 
L 214.830568 318.931857 
L 215.227262 324.766164 
L 215.623957 321.436484 
L 216.020651 316.530362 
L 216.417345 308.530289 
L 216.814039 310.622389 
L 217.210733 311.859969 
L 217.607428 323.395986 
L 218.004122 326.946663 
L 218.400816 327.256058 
L 218.79751 334.814138 
L 219.590899 321.89321 
L 219.987593 328.8325 
L 220.384287 330.983532 
L 221.177676 319.727444 
L 221.57437 315.941038 
L 221.971064 328.346308 
L 222.764452 309.502674 
L 223.161147 328.036912 
L 223.557841 336.920971 
L 224.351229 311.167514 
L 224.747924 320.360968 
L 225.144618 324.265239 
L 225.541312 319.359117 
L 225.938006 316.04417 
L 226.3347 338.659477 
L 226.731395 299.734629 
L 227.128089 314.452995 
L 227.524783 324.353638 
L 228.318171 315.160184 
L 228.714866 314.718191 
L 229.11156 323.410719 
L 229.508254 328.994564 
L 229.904948 338.011221 
L 230.301643 327.860115 
L 230.698337 320.891359 
L 231.491725 338.453214 
L 231.888419 336.316914 
L 232.285114 334.814138 
L 232.681808 321.672214 
L 233.475196 308.618688 
L 233.87189 319.329651 
L 234.268585 310.091998 
L 234.665279 310.799186 
L 235.061973 327.344457 
L 235.458667 324.869296 
L 235.855362 317.399615 
L 236.252056 312.493493 
L 236.64875 313.90787 
L 237.045444 319.742178 
L 237.442138 321.613281 
L 237.838833 321.259687 
L 238.235527 321.259687 
L 238.632221 328.744101 
L 239.028915 317.51748 
L 239.42561 324.766164 
L 239.822304 327.093994 
L 240.218998 331.675988 
L 240.615692 322.526733 
L 241.012386 334.814138 
L 241.409081 333.429227 
L 242.202469 311.977834 
L 242.599163 334.475277 
L 242.995857 328.243176 
L 243.392552 295.344165 
L 243.789246 329.68702 
L 244.582634 310.195129 
L 244.979329 323.661182 
L 245.376023 311.152781 
L 245.772717 327.373923 
L 246.169411 321.186021 
L 246.566105 303.005377 
L 246.9628 324.044243 
L 247.359494 333.738622 
L 247.756188 319.491715 
L 248.152882 325.856414 
L 248.549576 319.005523 
L 248.946271 318.195202 
L 249.342965 329.819617 
L 249.739659 312.125165 
L 250.136353 309.016481 
L 250.533048 323.734847 
L 250.929742 326.902464 
L 251.326436 305.377406 
L 251.72313 313.465877 
L 252.119824 329.745952 
L 252.913213 312.419827 
L 253.309907 311.874703 
L 253.706601 316.780825 
L 254.103295 313.90787 
L 254.49999 315.631643 
L 254.896684 333.105099 
L 255.690072 312.640824 
L 256.086767 318.386732 
L 256.483461 314.718191 
L 257.276849 312.699756 
L 257.673543 323.882178 
L 258.070238 320.508299 
L 258.466932 324.766164 
L 258.863626 323.705381 
L 259.26032 314.718191 
L 259.657014 313.539543 
L 260.053709 295.859824 
L 260.450403 329.436557 
L 260.847097 299.999825 
L 261.243791 309.34061 
L 261.640486 314.423529 
L 262.433874 305.200609 
L 262.830568 326.548869 
L 263.227262 317.016554 
L 263.623957 322.998193 
L 264.020651 324.766164 
L 264.417345 320.861893 
L 264.814039 300.810145 
L 265.210733 309.29641 
L 265.607428 307.616837 
L 266.400816 296.331283 
L 266.79751 317.001821 
L 267.194205 320.552498 
L 267.987593 291.115766 
L 268.384287 292.75114 
L 268.780981 310.077264 
L 269.177676 279.903877 
L 269.57437 258.33462 
L 269.971064 279.550283 
L 270.367758 288.09548 
L 270.764452 291.572492 
L 271.161147 287.152562 
L 271.557841 301.428935 
L 271.954535 294.681176 
L 272.351229 276.073271 
L 272.747924 278.121172 
L 273.144618 271.903804 
L 273.541312 277.605514 
L 273.938006 310.062531 
L 274.3347 274.526296 
L 274.731395 278.725229 
L 275.128089 299.64623 
L 275.524783 297.834059 
L 275.921477 281.170924 
L 276.318171 251.984654 
L 276.714866 283.822882 
L 277.508254 254.474548 
L 277.904948 269.192914 
L 278.301643 288.714271 
L 278.698337 284.913131 
L 279.491725 265.627504 
L 279.888419 264.478322 
L 280.285114 260.264656 
L 280.681808 251.262732 
L 281.078502 273.273982 
L 281.475196 279.550283 
L 281.87189 260.839247 
L 282.268585 283.425088 
L 282.665279 270.0769 
L 283.061973 279.786012 
L 283.458667 253.620028 
L 283.855362 259.557467 
L 284.252056 262.386222 
L 284.64875 271.93327 
L 285.045444 270.577825 
L 285.442138 283.587152 
L 285.838833 273.907506 
L 286.235527 261.502236 
L 286.632221 267.911134 
L 287.028915 254.430349 
L 287.42561 271.167149 
L 287.822304 280.802596 
L 288.218998 263.167076 
L 288.615692 271.240815 
L 289.012386 269.664373 
L 289.409081 248.934903 
L 289.805775 247.82992 
L 290.202469 300.824878 
L 290.599163 273.377114 
L 290.995857 269.502309 
L 291.392552 276.809926 
L 291.789246 305.716267 
L 292.582634 260.588784 
L 292.979329 309.252211 
L 293.376023 303.373704 
L 293.772717 285.399323 
L 294.169411 304.228224 
L 294.566105 279.697614 
L 294.9628 279.550283 
L 295.359494 308.103029 
L 295.756188 286.489573 
L 296.152882 298.143454 
L 296.549576 295.241034 
L 296.946271 281.760248 
L 297.342965 300.397618 
L 297.739659 276.309001 
L 298.136353 293.104734 
L 298.533048 299.64623 
L 298.929742 310.740254 
L 299.326436 300.397618 
L 299.72313 301.5468 
L 300.119824 308.014631 
L 300.913213 304.670217 
L 301.309907 307.661036 
L 301.706601 298.202386 
L 302.103295 308.883883 
L 302.49999 311.580041 
L 302.896684 297.12687 
L 303.690072 307.410574 
L 304.086767 306.835983 
L 304.483461 299.4547 
L 304.880155 298.084522 
L 305.276849 317.930006 
L 305.673543 313.023884 
L 306.070238 314.423529 
L 306.466932 321.849011 
L 306.863626 316.058903 
L 307.26032 318.51933 
L 308.053709 313.819472 
L 308.450403 296.552279 
L 308.847097 326.784599 
L 309.243791 309.060681 
L 309.640486 303.6389 
L 310.03718 295.417831 
L 310.433874 303.83043 
L 310.830568 289.598256 
L 311.227262 289.819253 
L 311.623957 314.349863 
L 312.020651 319.550647 
L 312.417345 291.454627 
L 312.814039 294.194983 
L 313.210733 303.579968 
L 313.607428 304.670217 
L 314.004122 304.670217 
L 314.400816 312.920753 
L 314.79751 298.688579 
L 315.194205 306.290858 
L 315.987593 335.72759 
L 316.384287 315.086518 
L 316.780981 308.088296 
L 317.177676 316.294632 
L 317.57437 310.195129 
L 317.971064 310.799186 
L 318.764452 317.546946 
L 319.161147 325.163958 
L 319.954535 294.548578 
L 320.351229 302.003526 
L 321.144618 326.887731 
L 321.541312 319.771644 
L 321.938006 300.898544 
L 322.3347 298.158187 
L 322.731395 304.670217 
L 323.128089 307.734702 
L 323.524783 306.231926 
L 323.921477 296.242884 
L 324.318171 319.18232 
L 324.714866 289.878185 
L 325.11156 304.979612 
L 325.508254 291.999752 
L 325.904948 325.547019 
L 326.301643 301.414202 
L 326.698337 315.18965 
L 327.095031 318.681394 
L 327.491725 304.670217 
L 327.888419 304.434487 
L 328.285114 294.622243 
L 328.681808 299.528365 
L 329.078502 314.011002 
L 329.475196 300.707013 
L 329.87189 272.331064 
L 330.268585 318.283601 
L 330.665279 311.81577 
L 331.061973 288.699537 
L 331.458667 280.493201 
L 331.855362 303.329505 
L 332.252056 282.776832 
L 332.64875 289.436192 
L 333.045444 305.451071 
L 333.442138 302.710715 
L 333.838833 313.141749 
L 334.235527 316.486163 
L 335.028915 298.629646 
L 335.822304 314.718191 
L 336.218998 317.384882 
L 336.615692 312.095699 
L 337.012386 311.963101 
L 337.409081 317.429081 
L 337.805775 299.351568 
L 338.202469 298.246586 
L 338.599163 326.725667 
L 338.995857 322.423602 
L 339.392552 304.522886 
L 339.789246 297.834059 
L 340.18594 303.182174 
L 340.582634 302.386587 
L 340.979329 304.68495 
L 341.376023 295.2705 
L 341.772717 312.685023 
L 342.169411 304.670217 
L 342.566105 303.108509 
L 342.9628 293.959254 
L 343.359494 290.688506 
L 343.756188 300.92801 
L 344.152882 314.408796 
L 344.549576 309.694204 
L 344.946271 309.399542 
L 345.342965 289.775054 
L 345.739659 284.736334 
L 346.533048 294.22445 
L 346.929742 303.6389 
L 347.326436 287.108363 
L 348.119824 298.776977 
L 348.516519 307.719969 
L 348.913213 290.099182 
L 349.309907 303.579968 
L 349.706601 309.694204 
L 350.103295 309.694204 
L 350.49999 306.246659 
L 350.896684 288.021815 
L 351.293378 282.762098 
L 351.690072 306.231926 
L 352.086767 292.957403 
L 352.483461 285.959181 
L 352.880155 311.064382 
L 353.276849 316.898689 
L 353.673543 309.694204 
L 354.070238 304.92068 
L 354.466932 292.839538 
L 355.26032 307.543171 
L 355.657014 299.174771 
L 356.053709 302.136124 
L 356.450403 289.627723 
L 356.847097 314.379329 
L 357.243791 317.546946 
L 357.640486 303.624167 
L 358.03718 312.301962 
L 358.433874 304.670217 
L 358.830568 303.697832 
L 359.227262 301.35527 
L 359.623957 311.167514 
L 360.020651 314.173066 
L 360.417345 278.032774 
L 360.814039 310.460325 
L 361.210733 319.742178 
L 361.607428 319.300185 
L 362.004122 304.640751 
L 362.400816 299.734629 
L 362.79751 280.375336 
L 363.194205 284.250141 
L 363.590899 279.992276 
L 363.987593 288.478541 
L 364.384287 302.637049 
L 364.780981 308.898617 
L 365.177676 301.473135 
L 365.57437 283.675551 
L 365.971064 256.301452 
L 366.367758 305.760466 
L 366.764452 310.209862 
L 367.557841 297.863525 
L 367.954535 304.478687 
L 368.351229 293.856122 
L 368.747924 287.624021 
L 369.144618 298.393917 
L 369.541312 284.972063 
L 370.3347 291.778755 
L 370.731395 286.931566 
L 371.524783 308.545022 
L 371.921477 313.421678 
L 372.318171 302.681249 
L 373.11156 296.139753 
L 373.508254 287.962882 
L 373.904948 290.644307 
L 374.301643 306.069861 
L 374.698337 308.412424 
L 375.888419 293.310998 
L 376.285114 304.832281 
L 376.681808 282.320105 
L 377.078502 300.220821 
L 377.475196 301.929861 
L 377.87189 276.559464 
L 378.268585 305.11221 
L 378.665279 314.408796 
L 379.061973 299.690429 
L 379.458667 309.429008 
L 379.855362 300.147156 
L 380.252056 285.679252 
L 380.64875 298.187653 
L 381.045444 277.546581 
L 381.442138 308.942816 
L 381.838833 310.533991 
L 382.235527 301.561533 
L 383.028915 273.082452 
L 383.42561 284.353273 
L 384.218998 261.001311 
L 384.615692 256.095189 
L 385.012386 257.67163 
L 385.805775 275.513414 
L 386.202469 276.662595 
L 386.599163 266.216828 
L 386.995857 278.01804 
L 387.392552 259.14494 
L 387.789246 250.864939 
L 388.18594 268.058465 
L 388.582634 267.513341 
L 388.979329 266.010565 
L 389.376023 256.86131 
L 389.772717 268.132131 
L 390.169411 253.030704 
L 390.566105 282.732632 
L 390.9628 280.758397 
L 391.359494 251.321665 
L 391.756188 230.547995 
L 392.152882 241.052694 
L 392.549576 266.482024 
L 392.946271 269.22238 
L 393.342965 242.084011 
L 394.136353 214.238454 
L 394.533048 218.363722 
L 394.929742 265.362308 
L 395.326436 277.959108 
L 395.72313 234.393334 
L 396.119824 239.299456 
L 396.516519 210.27525 
L 396.913213 242.319741 
L 397.309907 239.770915 
L 397.706601 248.345579 
L 398.103295 240.654901 
L 398.49999 209.553328 
L 398.896684 229.030485 
L 399.293378 218.245857 
L 400.483461 264.080529 
L 400.880155 258.850278 
L 401.276849 261.295973 
L 401.673543 271.108217 
L 402.070238 252.146718 
L 402.466932 254.754477 
L 402.863626 249.671557 
L 403.26032 236.5149 
L 404.053709 274.526296 
L 404.847097 246.754404 
L 405.640486 286.710569 
L 406.03718 283.542953 
L 406.433874 270.725156 
L 406.830568 268.043732 
L 407.227262 279.520817 
L 407.623957 295.786158 
L 408.020651 305.406872 
L 408.814039 281.244589 
L 409.210733 252.279316 
L 409.607428 256.831844 
L 410.004122 308.014631 
L 410.400816 296.758543 
L 410.79751 279.550283 
L 411.194205 279.064091 
L 411.590899 275.262951 
L 411.987593 284.073344 
L 412.384287 275.056688 
L 412.780981 294.519112 
L 413.177676 260.176257 
L 413.57437 273.863306 
L 413.971064 260.470919 
L 414.367758 282.290639 
L 414.764452 311.270646 
L 415.161147 301.723597 
L 415.557841 295.432564 
L 415.954535 302.813847 
L 416.351229 292.736407 
L 416.747924 274.157968 
L 417.144618 280.728931 
L 417.541312 273.701242 
L 417.938006 290.541175 
L 418.3347 299.64623 
L 418.731395 296.375482 
L 419.128089 300.92801 
L 419.524783 286.460106 
L 419.921477 280.360603 
L 420.318171 298.570714 
L 420.714866 301.649932 
L 421.508254 297.333134 
L 421.904948 289.598256 
L 422.301643 289.598256 
L 422.698337 270.769356 
L 423.095031 266.098963 
L 423.491725 301.502601 
L 423.888419 304.670217 
L 424.681808 292.08815 
L 425.078502 306.924381 
L 425.475196 295.845091 
L 425.87189 290.320178 
L 426.268585 304.537619 
L 426.665279 286.401174 
L 427.061973 296.213418 
L 427.458667 302.637049 
L 428.252056 275.410282 
L 428.64875 285.870782 
L 429.045444 304.670217 
L 429.442138 304.316623 
L 429.838833 284.692134 
L 430.632221 304.139825 
L 431.028915 300.029291 
L 431.42561 304.169292 
L 431.822304 287.04943 
L 432.218998 301.723597 
L 432.615692 292.161816 
L 433.409081 303.579968 
L 433.805775 304.670217 
L 434.202469 278.784162 
L 434.599163 298.143454 
L 434.995857 292.382812 
L 435.392552 307.985164 
L 435.789246 306.835983 
L 436.18594 302.754914 
L 436.582634 310.651855 
L 436.979329 303.226373 
L 437.376023 278.091706 
L 437.772717 282.938896 
L 438.169411 302.16559 
L 438.566105 297.465731 
L 438.9628 303.300039 
L 439.359494 302.416053 
L 439.756188 291.837688 
L 440.152882 309.694204 
L 440.946271 286.327508 
L 441.342965 293.340464 
L 441.739659 286.843167 
L 442.136353 306.010929 
L 442.533048 307.248509 
L 442.929742 300.751213 
L 443.326436 301.708864 
L 443.72313 291.336762 
L 444.119824 299.64623 
L 444.516519 295.845091 
L 444.913213 269.502309 
L 445.309907 271.093484 
L 446.103295 309.856268 
L 446.49999 314.585593 
L 446.896684 299.867227 
L 447.293378 275.483947 
L 447.690072 288.670071 
L 448.086767 307.985164 
L 448.483461 309.694204 
L 448.880155 270.445227 
L 449.673543 292.824805 
L 450.070238 290.61484 
L 450.466932 316.825024 
L 450.863626 302.136124 
L 451.26032 280.007009 
L 452.053709 298.040322 
L 452.450403 279.844945 
L 452.847097 279.049357 
L 453.640486 290.467509 
L 454.03718 308.766019 
L 454.433874 311.609507 
L 455.227262 302.268722 
L 455.623957 285.19306 
L 456.020651 285.723451 
L 456.417345 303.889363 
L 456.814039 303.683099 
L 457.210733 298.393917 
L 457.607428 299.366301 
L 458.004122 299.498899 
L 458.400816 316.677693 
L 459.194205 300.780679 
L 459.987593 269.782238 
L 460.384287 286.769501 
L 460.780981 277.001457 
L 461.177676 287.47669 
L 461.57437 275.704944 
L 461.971064 283.631351 
L 462.367758 274.526296 
L 462.764452 276.412133 
L 463.161147 313.657408 
L 463.557841 269.502309 
L 463.557841 269.502309 
" clip-path="url(#p740a9d5e8a)" style="fill: none; stroke: #2ca02c; stroke-width: 2; stroke-linecap: square"/>
   </g>
   <g id="line2d_19">
    <path d="M 57.739659 339.838125 
L 138.665279 339.736921 
L 142.235527 339.512883 
L 144.615692 339.181395 
L 146.599163 338.713344 
L 148.582634 337.99304 
L 150.169411 337.180393 
L 151.756188 336.113738 
L 153.342965 334.760489 
L 154.929742 333.103038 
L 156.516519 331.146333 
L 158.49999 328.334839 
L 162.070238 322.737643 
L 164.450403 319.221018 
L 166.03718 317.271529 
L 167.227262 316.12043 
L 168.417345 315.292402 
L 169.210733 314.938782 
L 170.004122 314.752716 
L 170.79751 314.738014 
L 171.590899 314.894993 
L 172.384287 315.220463 
L 173.57437 316.009297 
L 174.764452 317.126362 
L 175.954535 318.522989 
L 177.541312 320.719265 
L 180.318171 325.041785 
L 183.491725 329.877774 
L 185.475196 332.482289 
L 187.061973 334.241971 
L 188.64875 335.696245 
L 190.235527 336.855895 
L 191.822304 337.749289 
L 193.409081 338.414629 
L 195.392552 338.989524 
L 197.772717 339.407072 
L 200.549576 339.657259 
L 204.913213 339.799176 
L 215.623957 339.837752 
L 251.326436 339.73915 
L 254.896684 339.518949 
L 257.276849 339.193371 
L 259.26032 338.73314 
L 261.243791 338.023348 
L 262.830568 337.2202 
L 264.417345 336.16442 
L 266.004122 334.823007 
L 267.590899 333.177682 
L 269.177676 331.23248 
L 271.161147 328.432795 
L 274.731395 322.841334 
L 277.11156 319.308705 
L 278.698337 317.341198 
L 279.888419 316.173847 
L 281.078502 315.327457 
L 282.268585 314.839769 
L 283.061973 314.725547 
L 283.855362 314.783257 
L 284.64875 315.011703 
L 285.838833 315.663376 
L 287.028915 316.658456 
L 288.218998 317.953014 
L 289.805775 320.048421 
L 292.18594 323.675649 
L 296.152882 329.785239 
L 298.136353 332.403203 
L 299.72313 334.174897 
L 301.309907 335.641206 
L 302.896684 336.812154 
L 304.483461 337.715597 
L 306.070238 338.389748 
L 308.053709 338.97401 
L 310.433874 339.398943 
L 313.210733 339.653516 
L 317.57437 339.798185 
L 328.285114 339.837741 
L 363.987593 339.741533 
L 367.557841 339.525424 
L 370.3347 339.130308 
L 372.318171 338.633372 
L 373.904948 338.050658 
L 375.491725 337.257967 
L 377.078502 336.214564 
L 378.665279 334.886854 
L 380.252056 333.254065 
L 381.838833 331.320171 
L 383.822304 328.531726 
L 386.995857 323.571193 
L 389.376023 319.954764 
L 390.9628 317.873806 
L 392.152882 316.593593 
L 393.342965 315.615403 
L 394.533048 314.982572 
L 395.326436 314.767418 
L 396.119824 314.723842 
L 396.913213 314.85381 
L 397.706601 315.153039 
L 398.896684 315.904959 
L 400.086767 316.989277 
L 401.276849 318.358454 
L 402.863626 320.526394 
L 405.640486 324.83147 
L 408.814039 329.690393 
L 410.79751 332.323453 
L 412.384287 334.109049 
L 413.971064 335.587879 
L 415.557841 336.76995 
L 417.144618 337.683197 
L 418.731395 338.365608 
L 420.714866 338.957981 
L 423.095031 339.389713 
L 425.87189 339.649372 
L 430.235527 339.797273 
L 440.549576 339.837642 
L 463.557841 339.838125 
L 463.557841 339.838125 
" clip-path="url(#p740a9d5e8a)" style="fill: none; stroke: #d62728; stroke-width: 2; stroke-linecap: square"/>
   </g>
   <g id="patch_3">
    <path d="M 37.44875 354.958125 
L 37.44875 22.318125 
" style="fill: none; stroke: #000000; stroke-width: 0.8; stroke-linejoin: miter; stroke-linecap: square"/>
   </g>
   <g id="patch_4">
    <path d="M 483.84875 354.958125 
L 483.84875 22.318125 
" style="fill: none; stroke: #000000; stroke-width: 0.8; stroke-linejoin: miter; stroke-linecap: square"/>
   </g>
   <g id="patch_5">
    <path d="M 37.44875 354.958125 
L 483.84875 354.958125 
" style="fill: none; stroke: #000000; stroke-width: 0.8; stroke-linejoin: miter; stroke-linecap: square"/>
   </g>
   <g id="patch_6">
    <path d="M 37.44875 22.318125 
L 483.84875 22.318125 
" style="fill: none; stroke: #000000; stroke-width: 0.8; stroke-linejoin: miter; stroke-linecap: square"/>
   </g>
   <g id="text_18">
    <!-- Collection of 4 signals -->
    <g transform="translate(194.775313 16.318125) scale(0.12 -0.12)">
     <defs>
      <path id="DejaVuSans-43" d="M 4122 4306 
L 4122 3641 
Q 3803 3938 3442 4084 
Q 3081 4231 2675 4231 
Q 1875 4231 1450 3742 
Q 1025 3253 1025 2328 
Q 1025 1406 1450 917 
Q 1875 428 2675 428 
Q 3081 428 3442 575 
Q 3803 722 4122 1019 
L 4122 359 
Q 3791 134 3420 21 
Q 3050 -91 2638 -91 
Q 1578 -91 968 557 
Q 359 1206 359 2328 
Q 359 3453 968 4101 
Q 1578 4750 2638 4750 
Q 3056 4750 3426 4639 
Q 3797 4528 4122 4306 
z
" transform="scale(0.015625)"/>
      <path id="DejaVuSans-6f" d="M 1959 3097 
Q 1497 3097 1228 2736 
Q 959 2375 959 1747 
Q 959 1119 1226 758 
Q 1494 397 1959 397 
Q 2419 397 2687 759 
Q 2956 1122 2956 1747 
Q 2956 2369 2687 2733 
Q 2419 3097 1959 3097 
z
M 1959 3584 
Q 2709 3584 3137 3096 
Q 3566 2609 3566 1747 
Q 3566 888 3137 398 
Q 2709 -91 1959 -91 
Q 1206 -91 779 398 
Q 353 888 353 1747 
Q 353 2609 779 3096 
Q 1206 3584 1959 3584 
z
" transform="scale(0.015625)"/>
      <path id="DejaVuSans-6c" d="M 603 4863 
L 1178 4863 
L 1178 0 
L 603 0 
L 603 4863 
z
" transform="scale(0.015625)"/>
      <path id="DejaVuSans-63" d="M 3122 3366 
L 3122 2828 
Q 2878 2963 2633 3030 
Q 2388 3097 2138 3097 
Q 1578 3097 1268 2742 
Q 959 2388 959 1747 
Q 959 1106 1268 751 
Q 1578 397 2138 397 
Q 2388 397 2633 464 
Q 2878 531 3122 666 
L 3122 134 
Q 2881 22 2623 -34 
Q 2366 -91 2075 -91 
Q 1284 -91 818 406 
Q 353 903 353 1747 
Q 353 2603 823 3093 
Q 1294 3584 2113 3584 
Q 2378 3584 2631 3529 
Q 2884 3475 3122 3366 
z
" transform="scale(0.015625)"/>
      <path id="DejaVuSans-66" d="M 2375 4863 
L 2375 4384 
L 1825 4384 
Q 1516 4384 1395 4259 
Q 1275 4134 1275 3809 
L 1275 3500 
L 2222 3500 
L 2222 3053 
L 1275 3053 
L 1275 0 
L 697 0 
L 697 3053 
L 147 3053 
L 147 3500 
L 697 3500 
L 697 3744 
Q 697 4328 969 4595 
Q 1241 4863 1831 4863 
L 2375 4863 
z
" transform="scale(0.015625)"/>
      <path id="DejaVuSans-67" d="M 2906 1791 
Q 2906 2416 2648 2759 
Q 2391 3103 1925 3103 
Q 1463 3103 1205 2759 
Q 947 2416 947 1791 
Q 947 1169 1205 825 
Q 1463 481 1925 481 
Q 2391 481 2648 825 
Q 2906 1169 2906 1791 
z
M 3481 434 
Q 3481 -459 3084 -895 
Q 2688 -1331 1869 -1331 
Q 1566 -1331 1297 -1286 
Q 1028 -1241 775 -1147 
L 775 -588 
Q 1028 -725 1275 -790 
Q 1522 -856 1778 -856 
Q 2344 -856 2625 -561 
Q 2906 -266 2906 331 
L 2906 616 
Q 2728 306 2450 153 
Q 2172 0 1784 0 
Q 1141 0 747 490 
Q 353 981 353 1791 
Q 353 2603 747 3093 
Q 1141 3584 1784 3584 
Q 2172 3584 2450 3431 
Q 2728 3278 2906 2969 
L 2906 3500 
L 3481 3500 
L 3481 434 
z
" transform="scale(0.015625)"/>
     </defs>
     <use xlink:href="#DejaVuSans-43"/>
     <use xlink:href="#DejaVuSans-6f" transform="translate(69.824219 0)"/>
     <use xlink:href="#DejaVuSans-6c" transform="translate(131.005859 0)"/>
     <use xlink:href="#DejaVuSans-6c" transform="translate(158.789062 0)"/>
     <use xlink:href="#DejaVuSans-65" transform="translate(186.572266 0)"/>
     <use xlink:href="#DejaVuSans-63" transform="translate(248.095703 0)"/>
     <use xlink:href="#DejaVuSans-74" transform="translate(303.076172 0)"/>
     <use xlink:href="#DejaVuSans-69" transform="translate(342.285156 0)"/>
     <use xlink:href="#DejaVuSans-6f" transform="translate(370.068359 0)"/>
     <use xlink:href="#DejaVuSans-6e" transform="translate(431.25 0)"/>
     <use xlink:href="#DejaVuSans-20" transform="translate(494.628906 0)"/>
     <use xlink:href="#DejaVuSans-6f" transform="translate(526.416016 0)"/>
     <use xlink:href="#DejaVuSans-66" transform="translate(587.597656 0)"/>
     <use xlink:href="#DejaVuSans-20" transform="translate(622.802734 0)"/>
     <use xlink:href="#DejaVuSans-34" transform="translate(654.589844 0)"/>
     <use xlink:href="#DejaVuSans-20" transform="translate(718.212891 0)"/>
     <use xlink:href="#DejaVuSans-73" transform="translate(750 0)"/>
     <use xlink:href="#DejaVuSans-69" transform="translate(802.099609 0)"/>
     <use xlink:href="#DejaVuSans-67" transform="translate(829.882812 0)"/>
     <use xlink:href="#DejaVuSans-6e" transform="translate(893.359375 0)"/>
     <use xlink:href="#DejaVuSans-61" transform="translate(956.738281 0)"/>
     <use xlink:href="#DejaVuSans-6c" transform="translate(1018.017578 0)"/>
     <use xlink:href="#DejaVuSans-73" transform="translate(1045.800781 0)"/>
    </g>
   </g>
   <g id="legend_1">
    <g id="patch_7">
     <path d="M 45.84875 226.333125 
L 195.695 226.333125 
Q 198.095 226.333125 198.095 223.933125 
L 198.095 153.343125 
Q 198.095 150.943125 195.695 150.943125 
L 45.84875 150.943125 
Q 43.44875 150.943125 43.44875 153.343125 
L 43.44875 223.933125 
Q 43.44875 226.333125 45.84875 226.333125 
z
" style="fill: #ffffff; opacity: 0.8; stroke: #cccccc; stroke-linejoin: miter"/>
    </g>
    <g id="line2d_20">
     <path d="M 48.24875 160.66125 
L 60.24875 160.66125 
L 72.24875 160.66125 
" style="fill: none; stroke: #1f77b4; stroke-width: 2; stroke-linecap: square"/>
    </g>
    <g id="text_19">
     <!-- from_peaks -->
     <g transform="translate(81.84875 164.86125) scale(0.12 -0.12)">
      <defs>
       <path id="DejaVuSans-72" d="M 2631 2963 
Q 2534 3019 2420 3045 
Q 2306 3072 2169 3072 
Q 1681 3072 1420 2755 
Q 1159 2438 1159 1844 
L 1159 0 
L 581 0 
L 581 3500 
L 1159 3500 
L 1159 2956 
Q 1341 3275 1631 3429 
Q 1922 3584 2338 3584 
Q 2397 3584 2469 3576 
Q 2541 3569 2628 3553 
L 2631 2963 
z
" transform="scale(0.015625)"/>
       <path id="DejaVuSans-6d" d="M 3328 2828 
Q 3544 3216 3844 3400 
Q 4144 3584 4550 3584 
Q 5097 3584 5394 3201 
Q 5691 2819 5691 2113 
L 5691 0 
L 5113 0 
L 5113 2094 
Q 5113 2597 4934 2840 
Q 4756 3084 4391 3084 
Q 3944 3084 3684 2787 
Q 3425 2491 3425 1978 
L 3425 0 
L 2847 0 
L 2847 2094 
Q 2847 2600 2669 2842 
Q 2491 3084 2119 3084 
Q 1678 3084 1418 2786 
Q 1159 2488 1159 1978 
L 1159 0 
L 581 0 
L 581 3500 
L 1159 3500 
L 1159 2956 
Q 1356 3278 1631 3431 
Q 1906 3584 2284 3584 
Q 2666 3584 2933 3390 
Q 3200 3197 3328 2828 
z
" transform="scale(0.015625)"/>
       <path id="DejaVuSans-5f" d="M 3263 -1063 
L 3263 -1509 
L -63 -1509 
L -63 -1063 
L 3263 -1063 
z
" transform="scale(0.015625)"/>
       <path id="DejaVuSans-70" d="M 1159 525 
L 1159 -1331 
L 581 -1331 
L 581 3500 
L 1159 3500 
L 1159 2969 
Q 1341 3281 1617 3432 
Q 1894 3584 2278 3584 
Q 2916 3584 3314 3078 
Q 3713 2572 3713 1747 
Q 3713 922 3314 415 
Q 2916 -91 2278 -91 
Q 1894 -91 1617 61 
Q 1341 213 1159 525 
z
M 3116 1747 
Q 3116 2381 2855 2742 
Q 2594 3103 2138 3103 
Q 1681 3103 1420 2742 
Q 1159 2381 1159 1747 
Q 1159 1113 1420 752 
Q 1681 391 2138 391 
Q 2594 391 2855 752 
Q 3116 1113 3116 1747 
z
" transform="scale(0.015625)"/>
       <path id="DejaVuSans-6b" d="M 581 4863 
L 1159 4863 
L 1159 1991 
L 2875 3500 
L 3609 3500 
L 1753 1863 
L 3688 0 
L 2938 0 
L 1159 1709 
L 1159 0 
L 581 0 
L 581 4863 
z
" transform="scale(0.015625)"/>
      </defs>
      <use xlink:href="#DejaVuSans-66"/>
      <use xlink:href="#DejaVuSans-72" transform="translate(35.205078 0)"/>
      <use xlink:href="#DejaVuSans-6f" transform="translate(74.068359 0)"/>
      <use xlink:href="#DejaVuSans-6d" transform="translate(135.25 0)"/>
      <use xlink:href="#DejaVuSans-5f" transform="translate(232.662109 0)"/>
      <use xlink:href="#DejaVuSans-70" transform="translate(282.662109 0)"/>
      <use xlink:href="#DejaVuSans-65" transform="translate(346.138672 0)"/>
      <use xlink:href="#DejaVuSans-61" transform="translate(407.662109 0)"/>
      <use xlink:href="#DejaVuSans-6b" transform="translate(468.941406 0)"/>
      <use xlink:href="#DejaVuSans-73" transform="translate(526.851562 0)"/>
     </g>
    </g>
    <g id="line2d_21">
     <path d="M 48.24875 178.60875 
L 60.24875 178.60875 
L 72.24875 178.60875 
" style="fill: none; stroke: #ff7f0e; stroke-width: 2; stroke-linecap: square"/>
    </g>
    <g id="text_20">
     <!-- from_peaks+noise -->
     <g transform="translate(81.84875 182.80875) scale(0.12 -0.12)">
      <defs>
       <path id="DejaVuSans-2b" d="M 2944 4013 
L 2944 2272 
L 4684 2272 
L 4684 1741 
L 2944 1741 
L 2944 0 
L 2419 0 
L 2419 1741 
L 678 1741 
L 678 2272 
L 2419 2272 
L 2419 4013 
L 2944 4013 
z
" transform="scale(0.015625)"/>
      </defs>
      <use xlink:href="#DejaVuSans-66"/>
      <use xlink:href="#DejaVuSans-72" transform="translate(35.205078 0)"/>
      <use xlink:href="#DejaVuSans-6f" transform="translate(74.068359 0)"/>
      <use xlink:href="#DejaVuSans-6d" transform="translate(135.25 0)"/>
      <use xlink:href="#DejaVuSans-5f" transform="translate(232.662109 0)"/>
      <use xlink:href="#DejaVuSans-70" transform="translate(282.662109 0)"/>
      <use xlink:href="#DejaVuSans-65" transform="translate(346.138672 0)"/>
      <use xlink:href="#DejaVuSans-61" transform="translate(407.662109 0)"/>
      <use xlink:href="#DejaVuSans-6b" transform="translate(468.941406 0)"/>
      <use xlink:href="#DejaVuSans-73" transform="translate(526.851562 0)"/>
      <use xlink:href="#DejaVuSans-2b" transform="translate(578.951172 0)"/>
      <use xlink:href="#DejaVuSans-6e" transform="translate(662.740234 0)"/>
      <use xlink:href="#DejaVuSans-6f" transform="translate(726.119141 0)"/>
      <use xlink:href="#DejaVuSans-69" transform="translate(787.300781 0)"/>
      <use xlink:href="#DejaVuSans-73" transform="translate(815.083984 0)"/>
      <use xlink:href="#DejaVuSans-65" transform="translate(867.183594 0)"/>
     </g>
    </g>
    <g id="line2d_22">
     <path d="M 48.24875 196.55625 
L 60.24875 196.55625 
L 72.24875 196.55625 
" style="fill: none; stroke: #2ca02c; stroke-width: 2; stroke-linecap: square"/>
    </g>
    <g id="text_21">
     <!-- from_peaks+noise -->
     <g transform="translate(81.84875 200.75625) scale(0.12 -0.12)">
      <use xlink:href="#DejaVuSans-66"/>
      <use xlink:href="#DejaVuSans-72" transform="translate(35.205078 0)"/>
      <use xlink:href="#DejaVuSans-6f" transform="translate(74.068359 0)"/>
      <use xlink:href="#DejaVuSans-6d" transform="translate(135.25 0)"/>
      <use xlink:href="#DejaVuSans-5f" transform="translate(232.662109 0)"/>
      <use xlink:href="#DejaVuSans-70" transform="translate(282.662109 0)"/>
      <use xlink:href="#DejaVuSans-65" transform="translate(346.138672 0)"/>
      <use xlink:href="#DejaVuSans-61" transform="translate(407.662109 0)"/>
      <use xlink:href="#DejaVuSans-6b" transform="translate(468.941406 0)"/>
      <use xlink:href="#DejaVuSans-73" transform="translate(526.851562 0)"/>
      <use xlink:href="#DejaVuSans-2b" transform="translate(578.951172 0)"/>
      <use xlink:href="#DejaVuSans-6e" transform="translate(662.740234 0)"/>
      <use xlink:href="#DejaVuSans-6f" transform="translate(726.119141 0)"/>
      <use xlink:href="#DejaVuSans-69" transform="translate(787.300781 0)"/>
      <use xlink:href="#DejaVuSans-73" transform="translate(815.083984 0)"/>
      <use xlink:href="#DejaVuSans-65" transform="translate(867.183594 0)"/>
     </g>
    </g>
    <g id="line2d_23">
     <path d="M 48.24875 214.50375 
L 60.24875 214.50375 
L 72.24875 214.50375 
" style="fill: none; stroke: #d62728; stroke-width: 2; stroke-linecap: square"/>
    </g>
    <g id="text_22">
     <!-- from_peaks -->
     <g transform="translate(81.84875 218.70375) scale(0.12 -0.12)">
      <use xlink:href="#DejaVuSans-66"/>
      <use xlink:href="#DejaVuSans-72" transform="translate(35.205078 0)"/>
      <use xlink:href="#DejaVuSans-6f" transform="translate(74.068359 0)"/>
      <use xlink:href="#DejaVuSans-6d" transform="translate(135.25 0)"/>
      <use xlink:href="#DejaVuSans-5f" transform="translate(232.662109 0)"/>
      <use xlink:href="#DejaVuSans-70" transform="translate(282.662109 0)"/>
      <use xlink:href="#DejaVuSans-65" transform="translate(346.138672 0)"/>
      <use xlink:href="#DejaVuSans-61" transform="translate(407.662109 0)"/>
      <use xlink:href="#DejaVuSans-6b" transform="translate(468.941406 0)"/>
      <use xlink:href="#DejaVuSans-73" transform="translate(526.851562 0)"/>
     </g>
    </g>
   </g>
  </g>
 </g>
 <defs>
  <clipPath id="p740a9d5e8a">
   <rect x="37.44875" y="22.318125" width="446.4" height="332.64"/>
  </clipPath>
 </defs>
</svg>
