<?xml version="1.0" encoding="utf-8" standalone="no"?>
<!DOCTYPE svg PUBLIC "-//W3C//DTD SVG 1.1//EN"
  "http://www.w3.org/Graphics/SVG/1.1/DTD/svg11.dtd">
<svg xmlns:xlink="http://www.w3.org/1999/xlink" width="491.04875pt" height="396.385625pt" viewBox="0 0 491.04875 396.385625" xmlns="http://www.w3.org/2000/svg" version="1.1">
 <metadata>
  <rdf:RDF xmlns:dc="http://purl.org/dc/elements/1.1/" xmlns:cc="http://creativecommons.org/ns#" xmlns:rdf="http://www.w3.org/1999/02/22-rdf-syntax-ns#">
   <cc:Work>
    <dc:type rdf:resource="http://purl.org/dc/dcmitype/StillImage"/>
    <dc:date>2025-06-02T20:47:58.841995</dc:date>
    <dc:format>image/svg+xml</dc:format>
    <dc:creator>
     <cc:Agent>
      <dc:title>Matplotlib v3.10.0, https://matplotlib.org/</dc:title>
     </cc:Agent>
    </dc:creator>
   </cc:Work>
  </rdf:RDF>
 </metadata>
 <defs>
  <style type="text/css">*{stroke-linejoin: round; stroke-linecap: butt}</style>
 </defs>
 <g id="figure_1">
  <g id="patch_1">
   <path d="M 0 396.385625 
L 491.04875 396.385625 
L 491.04875 0 
L 0 0 
z
" style="fill: #ffffff"/>
  </g>
  <g id="axes_1">
   <g id="patch_2">
    <path d="M 37.44875 354.958125 
L 483.84875 354.958125 
L 483.84875 22.318125 
L 37.44875 22.318125 
z
" style="fill: #ffffff"/>
   </g>
   <g id="matplotlib.axis_1">
    <g id="xtick_1">
     <g id="line2d_1">
      <defs>
       <path id="mb2e362f806" d="M 0 0 
L 0 3.5 
" style="stroke: #000000; stroke-width: 0.8"/>
      </defs>
      <g>
       <use xlink:href="#mb2e362f806" x="57.739659" y="354.958125" style="stroke: #000000; stroke-width: 0.8"/>
      </g>
     </g>
     <g id="text_1">
      <!-- 0 -->
      <g transform="translate(53.922159 371.07625) scale(0.12 -0.12)">
       <defs>
        <path id="DejaVuSans-30" d="M 2034 4250 
Q 1547 4250 1301 3770 
Q 1056 3291 1056 2328 
Q 1056 1369 1301 889 
Q 1547 409 2034 409 
Q 2525 409 2770 889 
Q 3016 1369 3016 2328 
Q 3016 3291 2770 3770 
Q 2525 4250 2034 4250 
z
M 2034 4750 
Q 2819 4750 3233 4129 
Q 3647 3509 3647 2328 
Q 3647 1150 3233 529 
Q 2819 -91 2034 -91 
Q 1250 -91 836 529 
Q 422 1150 422 2328 
Q 422 3509 836 4129 
Q 1250 4750 2034 4750 
z
" transform="scale(0.015625)"/>
       </defs>
       <use xlink:href="#DejaVuSans-30"/>
      </g>
     </g>
    </g>
    <g id="xtick_2">
     <g id="line2d_2">
      <g>
       <use xlink:href="#mb2e362f806" x="114.103295" y="354.958125" style="stroke: #000000; stroke-width: 0.8"/>
      </g>
     </g>
     <g id="text_2">
      <!-- 5 -->
      <g transform="translate(110.285795 371.07625) scale(0.12 -0.12)">
       <defs>
        <path id="DejaVuSans-35" d="M 691 4666 
L 3169 4666 
L 3169 4134 
L 1269 4134 
L 1269 2991 
Q 1406 3038 1543 3061 
Q 1681 3084 1819 3084 
Q 2600 3084 3056 2656 
Q 3513 2228 3513 1497 
Q 3513 744 3044 326 
Q 2575 -91 1722 -91 
Q 1428 -91 1123 -41 
Q 819 9 494 109 
L 494 744 
Q 775 591 1075 516 
Q 1375 441 1709 441 
Q 2250 441 2565 725 
Q 2881 1009 2881 1497 
Q 2881 1984 2565 2268 
Q 2250 2553 1709 2553 
Q 1456 2553 1204 2497 
Q 953 2441 691 2322 
L 691 4666 
z
" transform="scale(0.015625)"/>
       </defs>
       <use xlink:href="#DejaVuSans-35"/>
      </g>
     </g>
    </g>
    <g id="xtick_3">
     <g id="line2d_3">
      <g>
       <use xlink:href="#mb2e362f806" x="170.466932" y="354.958125" style="stroke: #000000; stroke-width: 0.8"/>
      </g>
     </g>
     <g id="text_3">
      <!-- 10 -->
      <g transform="translate(162.831932 371.07625) scale(0.12 -0.12)">
       <defs>
        <path id="DejaVuSans-31" d="M 794 531 
L 1825 531 
L 1825 4091 
L 703 3866 
L 703 4441 
L 1819 4666 
L 2450 4666 
L 2450 531 
L 3481 531 
L 3481 0 
L 794 0 
L 794 531 
z
" transform="scale(0.015625)"/>
       </defs>
       <use xlink:href="#DejaVuSans-31"/>
       <use xlink:href="#DejaVuSans-30" transform="translate(63.623047 0)"/>
      </g>
     </g>
    </g>
    <g id="xtick_4">
     <g id="line2d_4">
      <g>
       <use xlink:href="#mb2e362f806" x="226.830568" y="354.958125" style="stroke: #000000; stroke-width: 0.8"/>
      </g>
     </g>
     <g id="text_4">
      <!-- 15 -->
      <g transform="translate(219.195568 371.07625) scale(0.12 -0.12)">
       <use xlink:href="#DejaVuSans-31"/>
       <use xlink:href="#DejaVuSans-35" transform="translate(63.623047 0)"/>
      </g>
     </g>
    </g>
    <g id="xtick_5">
     <g id="line2d_5">
      <g>
       <use xlink:href="#mb2e362f806" x="283.194205" y="354.958125" style="stroke: #000000; stroke-width: 0.8"/>
      </g>
     </g>
     <g id="text_5">
      <!-- 20 -->
      <g transform="translate(275.559205 371.07625) scale(0.12 -0.12)">
       <defs>
        <path id="DejaVuSans-32" d="M 1228 531 
L 3431 531 
L 3431 0 
L 469 0 
L 469 531 
Q 828 903 1448 1529 
Q 2069 2156 2228 2338 
Q 2531 2678 2651 2914 
Q 2772 3150 2772 3378 
Q 2772 3750 2511 3984 
Q 2250 4219 1831 4219 
Q 1534 4219 1204 4116 
Q 875 4013 500 3803 
L 500 4441 
Q 881 4594 1212 4672 
Q 1544 4750 1819 4750 
Q 2544 4750 2975 4387 
Q 3406 4025 3406 3419 
Q 3406 3131 3298 2873 
Q 3191 2616 2906 2266 
Q 2828 2175 2409 1742 
Q 1991 1309 1228 531 
z
" transform="scale(0.015625)"/>
       </defs>
       <use xlink:href="#DejaVuSans-32"/>
       <use xlink:href="#DejaVuSans-30" transform="translate(63.623047 0)"/>
      </g>
     </g>
    </g>
    <g id="xtick_6">
     <g id="line2d_6">
      <g>
       <use xlink:href="#mb2e362f806" x="339.557841" y="354.958125" style="stroke: #000000; stroke-width: 0.8"/>
      </g>
     </g>
     <g id="text_6">
      <!-- 25 -->
      <g transform="translate(331.922841 371.07625) scale(0.12 -0.12)">
       <use xlink:href="#DejaVuSans-32"/>
       <use xlink:href="#DejaVuSans-35" transform="translate(63.623047 0)"/>
      </g>
     </g>
    </g>
    <g id="xtick_7">
     <g id="line2d_7">
      <g>
       <use xlink:href="#mb2e362f806" x="395.921477" y="354.958125" style="stroke: #000000; stroke-width: 0.8"/>
      </g>
     </g>
     <g id="text_7">
      <!-- 30 -->
      <g transform="translate(388.286477 371.07625) scale(0.12 -0.12)">
       <defs>
        <path id="DejaVuSans-33" d="M 2597 2516 
Q 3050 2419 3304 2112 
Q 3559 1806 3559 1356 
Q 3559 666 3084 287 
Q 2609 -91 1734 -91 
Q 1441 -91 1130 -33 
Q 819 25 488 141 
L 488 750 
Q 750 597 1062 519 
Q 1375 441 1716 441 
Q 2309 441 2620 675 
Q 2931 909 2931 1356 
Q 2931 1769 2642 2001 
Q 2353 2234 1838 2234 
L 1294 2234 
L 1294 2753 
L 1863 2753 
Q 2328 2753 2575 2939 
Q 2822 3125 2822 3475 
Q 2822 3834 2567 4026 
Q 2313 4219 1838 4219 
Q 1578 4219 1281 4162 
Q 984 4106 628 3988 
L 628 4550 
Q 988 4650 1302 4700 
Q 1616 4750 1894 4750 
Q 2613 4750 3031 4423 
Q 3450 4097 3450 3541 
Q 3450 3153 3228 2886 
Q 3006 2619 2597 2516 
z
" transform="scale(0.015625)"/>
       </defs>
       <use xlink:href="#DejaVuSans-33"/>
       <use xlink:href="#DejaVuSans-30" transform="translate(63.623047 0)"/>
      </g>
     </g>
    </g>
    <g id="xtick_8">
     <g id="line2d_8">
      <g>
       <use xlink:href="#mb2e362f806" x="452.285114" y="354.958125" style="stroke: #000000; stroke-width: 0.8"/>
      </g>
     </g>
     <g id="text_8">
      <!-- 35 -->
      <g transform="translate(444.650114 371.07625) scale(0.12 -0.12)">
       <use xlink:href="#DejaVuSans-33"/>
       <use xlink:href="#DejaVuSans-35" transform="translate(63.623047 0)"/>
      </g>
     </g>
    </g>
    <g id="text_9">
     <!-- index [-] -->
     <g transform="translate(235.47875 386.69) scale(0.12 -0.12)">
      <defs>
       <path id="DejaVuSans-69" d="M 603 3500 
L 1178 3500 
L 1178 0 
L 603 0 
L 603 3500 
z
M 603 4863 
L 1178 4863 
L 1178 4134 
L 603 4134 
L 603 4863 
z
" transform="scale(0.015625)"/>
       <path id="DejaVuSans-6e" d="M 3513 2113 
L 3513 0 
L 2938 0 
L 2938 2094 
Q 2938 2591 2744 2837 
Q 2550 3084 2163 3084 
Q 1697 3084 1428 2787 
Q 1159 2491 1159 1978 
L 1159 0 
L 581 0 
L 581 3500 
L 1159 3500 
L 1159 2956 
Q 1366 3272 1645 3428 
Q 1925 3584 2291 3584 
Q 2894 3584 3203 3211 
Q 3513 2838 3513 2113 
z
" transform="scale(0.015625)"/>
       <path id="DejaVuSans-64" d="M 2906 2969 
L 2906 4863 
L 3481 4863 
L 3481 0 
L 2906 0 
L 2906 525 
Q 2725 213 2448 61 
Q 2172 -91 1784 -91 
Q 1150 -91 751 415 
Q 353 922 353 1747 
Q 353 2572 751 3078 
Q 1150 3584 1784 3584 
Q 2172 3584 2448 3432 
Q 2725 3281 2906 2969 
z
M 947 1747 
Q 947 1113 1208 752 
Q 1469 391 1925 391 
Q 2381 391 2643 752 
Q 2906 1113 2906 1747 
Q 2906 2381 2643 2742 
Q 2381 3103 1925 3103 
Q 1469 3103 1208 2742 
Q 947 2381 947 1747 
z
" transform="scale(0.015625)"/>
       <path id="DejaVuSans-65" d="M 3597 1894 
L 3597 1613 
L 953 1613 
Q 991 1019 1311 708 
Q 1631 397 2203 397 
Q 2534 397 2845 478 
Q 3156 559 3463 722 
L 3463 178 
Q 3153 47 2828 -22 
Q 2503 -91 2169 -91 
Q 1331 -91 842 396 
Q 353 884 353 1716 
Q 353 2575 817 3079 
Q 1281 3584 2069 3584 
Q 2775 3584 3186 3129 
Q 3597 2675 3597 1894 
z
M 3022 2063 
Q 3016 2534 2758 2815 
Q 2500 3097 2075 3097 
Q 1594 3097 1305 2825 
Q 1016 2553 972 2059 
L 3022 2063 
z
" transform="scale(0.015625)"/>
       <path id="DejaVuSans-78" d="M 3513 3500 
L 2247 1797 
L 3578 0 
L 2900 0 
L 1881 1375 
L 863 0 
L 184 0 
L 1544 1831 
L 300 3500 
L 978 3500 
L 1906 2253 
L 2834 3500 
L 3513 3500 
z
" transform="scale(0.015625)"/>
       <path id="DejaVuSans-20" transform="scale(0.015625)"/>
       <path id="DejaVuSans-5b" d="M 550 4863 
L 1875 4863 
L 1875 4416 
L 1125 4416 
L 1125 -397 
L 1875 -397 
L 1875 -844 
L 550 -844 
L 550 4863 
z
" transform="scale(0.015625)"/>
       <path id="DejaVuSans-2d" d="M 313 2009 
L 1997 2009 
L 1997 1497 
L 313 1497 
L 313 2009 
z
" transform="scale(0.015625)"/>
       <path id="DejaVuSans-5d" d="M 1947 4863 
L 1947 -844 
L 622 -844 
L 622 -397 
L 1369 -397 
L 1369 4416 
L 622 4416 
L 622 4863 
L 1947 4863 
z
" transform="scale(0.015625)"/>
      </defs>
      <use xlink:href="#DejaVuSans-69"/>
      <use xlink:href="#DejaVuSans-6e" transform="translate(27.783203 0)"/>
      <use xlink:href="#DejaVuSans-64" transform="translate(91.162109 0)"/>
      <use xlink:href="#DejaVuSans-65" transform="translate(154.638672 0)"/>
      <use xlink:href="#DejaVuSans-78" transform="translate(214.412109 0)"/>
      <use xlink:href="#DejaVuSans-20" transform="translate(273.591797 0)"/>
      <use xlink:href="#DejaVuSans-5b" transform="translate(305.378906 0)"/>
      <use xlink:href="#DejaVuSans-2d" transform="translate(344.392578 0)"/>
      <use xlink:href="#DejaVuSans-5d" transform="translate(380.476562 0)"/>
     </g>
    </g>
   </g>
   <g id="matplotlib.axis_2">
    <g id="ytick_1">
     <g id="line2d_9">
      <defs>
       <path id="me32654fe5a" d="M 0 0 
L -3.5 0 
" style="stroke: #000000; stroke-width: 0.8"/>
      </defs>
      <g>
       <use xlink:href="#me32654fe5a" x="37.44875" y="339.838125" style="stroke: #000000; stroke-width: 0.8"/>
      </g>
     </g>
     <g id="text_10">
      <!-- 0 -->
      <g transform="translate(22.81375 344.397187) scale(0.12 -0.12)">
       <use xlink:href="#DejaVuSans-30"/>
      </g>
     </g>
    </g>
    <g id="ytick_2">
     <g id="line2d_10">
      <g>
       <use xlink:href="#me32654fe5a" x="37.44875" y="289.581582" style="stroke: #000000; stroke-width: 0.8"/>
      </g>
     </g>
     <g id="text_11">
      <!-- 1 -->
      <g transform="translate(22.81375 294.140645) scale(0.12 -0.12)">
       <use xlink:href="#DejaVuSans-31"/>
      </g>
     </g>
    </g>
    <g id="ytick_3">
     <g id="line2d_11">
      <g>
       <use xlink:href="#me32654fe5a" x="37.44875" y="239.32504" style="stroke: #000000; stroke-width: 0.8"/>
      </g>
     </g>
     <g id="text_12">
      <!-- 2 -->
      <g transform="translate(22.81375 243.884102) scale(0.12 -0.12)">
       <use xlink:href="#DejaVuSans-32"/>
      </g>
     </g>
    </g>
    <g id="ytick_4">
     <g id="line2d_12">
      <g>
       <use xlink:href="#me32654fe5a" x="37.44875" y="189.068497" style="stroke: #000000; stroke-width: 0.8"/>
      </g>
     </g>
     <g id="text_13">
      <!-- 3 -->
      <g transform="translate(22.81375 193.627559) scale(0.12 -0.12)">
       <use xlink:href="#DejaVuSans-33"/>
      </g>
     </g>
    </g>
    <g id="ytick_5">
     <g id="line2d_13">
      <g>
       <use xlink:href="#me32654fe5a" x="37.44875" y="138.811954" style="stroke: #000000; stroke-width: 0.8"/>
      </g>
     </g>
     <g id="text_14">
      <!-- 4 -->
      <g transform="translate(22.81375 143.371017) scale(0.12 -0.12)">
       <defs>
        <path id="DejaVuSans-34" d="M 2419 4116 
L 825 1625 
L 2419 1625 
L 2419 4116 
z
M 2253 4666 
L 3047 4666 
L 3047 1625 
L 3713 1625 
L 3713 1100 
L 3047 1100 
L 3047 0 
L 2419 0 
L 2419 1100 
L 313 1100 
L 313 1709 
L 2253 4666 
z
" transform="scale(0.015625)"/>
       </defs>
       <use xlink:href="#DejaVuSans-34"/>
      </g>
     </g>
    </g>
    <g id="ytick_6">
     <g id="line2d_14">
      <g>
       <use xlink:href="#me32654fe5a" x="37.44875" y="88.555412" style="stroke: #000000; stroke-width: 0.8"/>
      </g>
     </g>
     <g id="text_15">
      <!-- 5 -->
      <g transform="translate(22.81375 93.114474) scale(0.12 -0.12)">
       <use xlink:href="#DejaVuSans-35"/>
      </g>
     </g>
    </g>
    <g id="ytick_7">
     <g id="line2d_15">
      <g>
       <use xlink:href="#me32654fe5a" x="37.44875" y="38.298869" style="stroke: #000000; stroke-width: 0.8"/>
      </g>
     </g>
     <g id="text_16">
      <!-- 6 -->
      <g transform="translate(22.81375 42.857931) scale(0.12 -0.12)">
       <defs>
        <path id="DejaVuSans-36" d="M 2113 2584 
Q 1688 2584 1439 2293 
Q 1191 2003 1191 1497 
Q 1191 994 1439 701 
Q 1688 409 2113 409 
Q 2538 409 2786 701 
Q 3034 994 3034 1497 
Q 3034 2003 2786 2293 
Q 2538 2584 2113 2584 
z
M 3366 4563 
L 3366 3988 
Q 3128 4100 2886 4159 
Q 2644 4219 2406 4219 
Q 1781 4219 1451 3797 
Q 1122 3375 1075 2522 
Q 1259 2794 1537 2939 
Q 1816 3084 2150 3084 
Q 2853 3084 3261 2657 
Q 3669 2231 3669 1497 
Q 3669 778 3244 343 
Q 2819 -91 2113 -91 
Q 1303 -91 875 529 
Q 447 1150 447 2328 
Q 447 3434 972 4092 
Q 1497 4750 2381 4750 
Q 2619 4750 2861 4703 
Q 3103 4656 3366 4563 
z
" transform="scale(0.015625)"/>
       </defs>
       <use xlink:href="#DejaVuSans-36"/>
      </g>
     </g>
    </g>
    <g id="text_17">
     <!-- intensity [a.u.] -->
     <g transform="translate(16.318125 232.531875) rotate(-90) scale(0.12 -0.12)">
      <defs>
       <path id="DejaVuSans-74" d="M 1172 4494 
L 1172 3500 
L 2356 3500 
L 2356 3053 
L 1172 3053 
L 1172 1153 
Q 1172 725 1289 603 
Q 1406 481 1766 481 
L 2356 481 
L 2356 0 
L 1766 0 
Q 1100 0 847 248 
Q 594 497 594 1153 
L 594 3053 
L 172 3053 
L 172 3500 
L 594 3500 
L 594 4494 
L 1172 4494 
z
" transform="scale(0.015625)"/>
       <path id="DejaVuSans-73" d="M 2834 3397 
L 2834 2853 
Q 2591 2978 2328 3040 
Q 2066 3103 1784 3103 
Q 1356 3103 1142 2972 
Q 928 2841 928 2578 
Q 928 2378 1081 2264 
Q 1234 2150 1697 2047 
L 1894 2003 
Q 2506 1872 2764 1633 
Q 3022 1394 3022 966 
Q 3022 478 2636 193 
Q 2250 -91 1575 -91 
Q 1294 -91 989 -36 
Q 684 19 347 128 
L 347 722 
Q 666 556 975 473 
Q 1284 391 1588 391 
Q 1994 391 2212 530 
Q 2431 669 2431 922 
Q 2431 1156 2273 1281 
Q 2116 1406 1581 1522 
L 1381 1569 
Q 847 1681 609 1914 
Q 372 2147 372 2553 
Q 372 3047 722 3315 
Q 1072 3584 1716 3584 
Q 2034 3584 2315 3537 
Q 2597 3491 2834 3397 
z
" transform="scale(0.015625)"/>
       <path id="DejaVuSans-79" d="M 2059 -325 
Q 1816 -950 1584 -1140 
Q 1353 -1331 966 -1331 
L 506 -1331 
L 506 -850 
L 844 -850 
Q 1081 -850 1212 -737 
Q 1344 -625 1503 -206 
L 1606 56 
L 191 3500 
L 800 3500 
L 1894 763 
L 2988 3500 
L 3597 3500 
L 2059 -325 
z
" transform="scale(0.015625)"/>
       <path id="DejaVuSans-61" d="M 2194 1759 
Q 1497 1759 1228 1600 
Q 959 1441 959 1056 
Q 959 750 1161 570 
Q 1363 391 1709 391 
Q 2188 391 2477 730 
Q 2766 1069 2766 1631 
L 2766 1759 
L 2194 1759 
z
M 3341 1997 
L 3341 0 
L 2766 0 
L 2766 531 
Q 2569 213 2275 61 
Q 1981 -91 1556 -91 
Q 1019 -91 701 211 
Q 384 513 384 1019 
Q 384 1609 779 1909 
Q 1175 2209 1959 2209 
L 2766 2209 
L 2766 2266 
Q 2766 2663 2505 2880 
Q 2244 3097 1772 3097 
Q 1472 3097 1187 3025 
Q 903 2953 641 2809 
L 641 3341 
Q 956 3463 1253 3523 
Q 1550 3584 1831 3584 
Q 2591 3584 2966 3190 
Q 3341 2797 3341 1997 
z
" transform="scale(0.015625)"/>
       <path id="DejaVuSans-2e" d="M 684 794 
L 1344 794 
L 1344 0 
L 684 0 
L 684 794 
z
" transform="scale(0.015625)"/>
       <path id="DejaVuSans-75" d="M 544 1381 
L 544 3500 
L 1119 3500 
L 1119 1403 
Q 1119 906 1312 657 
Q 1506 409 1894 409 
Q 2359 409 2629 706 
Q 2900 1003 2900 1516 
L 2900 3500 
L 3475 3500 
L 3475 0 
L 2900 0 
L 2900 538 
Q 2691 219 2414 64 
Q 2138 -91 1772 -91 
Q 1169 -91 856 284 
Q 544 659 544 1381 
z
M 1991 3584 
L 1991 3584 
z
" transform="scale(0.015625)"/>
      </defs>
      <use xlink:href="#DejaVuSans-69"/>
      <use xlink:href="#DejaVuSans-6e" transform="translate(27.783203 0)"/>
      <use xlink:href="#DejaVuSans-74" transform="translate(91.162109 0)"/>
      <use xlink:href="#DejaVuSans-65" transform="translate(130.371094 0)"/>
      <use xlink:href="#DejaVuSans-6e" transform="translate(191.894531 0)"/>
      <use xlink:href="#DejaVuSans-73" transform="translate(255.273438 0)"/>
      <use xlink:href="#DejaVuSans-69" transform="translate(307.373047 0)"/>
      <use xlink:href="#DejaVuSans-74" transform="translate(335.15625 0)"/>
      <use xlink:href="#DejaVuSans-79" transform="translate(374.365234 0)"/>
      <use xlink:href="#DejaVuSans-20" transform="translate(433.544922 0)"/>
      <use xlink:href="#DejaVuSans-5b" transform="translate(465.332031 0)"/>
      <use xlink:href="#DejaVuSans-61" transform="translate(504.345703 0)"/>
      <use xlink:href="#DejaVuSans-2e" transform="translate(565.625 0)"/>
      <use xlink:href="#DejaVuSans-75" transform="translate(597.412109 0)"/>
      <use xlink:href="#DejaVuSans-2e" transform="translate(660.791016 0)"/>
      <use xlink:href="#DejaVuSans-5d" transform="translate(692.578125 0)"/>
     </g>
    </g>
   </g>
   <g id="line2d_16">
    <path d="M 57.739659 339.838125 
L 136.681808 339.738454 
L 140.252056 339.492053 
L 142.632221 339.103425 
L 144.615692 338.524228 
L 146.202469 337.810416 
L 147.789246 336.79404 
L 148.979329 335.783642 
L 150.169411 334.520898 
L 151.359494 332.971986 
L 152.549576 331.107936 
L 153.739659 328.908037 
L 155.326436 325.439349 
L 156.913213 321.383122 
L 158.896684 315.621887 
L 164.847097 297.539219 
L 166.03718 294.689953 
L 167.227262 292.386991 
L 168.020651 291.205593 
L 168.814039 290.335491 
L 169.607428 289.794243 
L 170.400816 289.592889 
L 171.194205 289.735575 
L 171.987593 290.219414 
L 172.780981 291.034584 
L 173.57437 292.164652 
L 174.764452 294.399523 
L 175.954535 297.193704 
L 177.541312 301.587715 
L 179.921477 308.973395 
L 183.095031 318.774124 
L 185.078502 324.148011 
L 186.665279 327.819104 
L 188.252056 330.881061 
L 189.442138 332.782428 
L 190.632221 334.365699 
L 191.822304 335.659066 
L 193.012386 336.695966 
L 194.599163 337.739318 
L 196.18594 338.474161 
L 197.772717 338.975732 
L 199.756188 339.370354 
L 202.533048 339.653339 
L 206.49999 339.795797 
L 216.020651 339.837511 
L 249.342965 339.74086 
L 252.913213 339.499134 
L 255.293378 339.117076 
L 257.276849 338.548188 
L 258.863626 337.846406 
L 260.450403 336.846051 
L 261.640486 335.848742 
L 262.830568 334.600537 
L 264.020651 333.067723 
L 265.210733 331.221006 
L 266.400816 329.039188 
L 267.987593 325.594636 
L 269.57437 321.560779 
L 271.557841 315.821526 
L 277.508254 297.705915 
L 278.698337 294.829338 
L 279.888419 292.493861 
L 280.681808 291.288359 
L 281.475196 290.392677 
L 282.268585 289.824819 
L 283.061973 289.596299 
L 283.855362 289.711758 
L 284.64875 290.168803 
L 285.442138 290.958091 
L 286.235527 292.063647 
L 287.42561 294.265212 
L 288.615692 297.031269 
L 290.202469 301.394649 
L 292.582634 308.762815 
L 295.756188 318.584388 
L 297.739659 323.984011 
L 299.326436 327.678827 
L 300.913213 330.765014 
L 302.49999 333.251323 
L 303.690072 334.750357 
L 304.880155 335.96861 
L 306.070238 336.94041 
L 307.657014 337.914562 
L 309.243791 338.596011 
L 311.227262 339.146563 
L 313.607428 339.513994 
L 316.780981 339.730926 
L 322.3347 339.82627 
L 348.516519 339.837885 
L 362.400816 339.728528 
L 365.57437 339.506702 
L 367.954535 339.131425 
L 369.938006 338.571475 
L 371.524783 337.879628 
L 373.11156 336.892114 
L 374.301643 335.908218 
L 375.491725 334.676097 
L 376.681808 333.161543 
L 377.87189 331.334811 
L 379.061973 329.173853 
L 380.64875 325.753348 
L 382.235527 321.741358 
L 384.218998 316.022799 
L 390.566105 296.864524 
L 391.756188 294.125261 
L 392.946271 291.955907 
L 393.739659 290.874311 
L 394.533048 290.110519 
L 395.326436 289.680069 
L 396.119824 289.592889 
L 396.913213 289.852911 
L 397.706601 290.451567 
L 398.49999 291.376602 
L 399.293378 292.60933 
L 400.483461 294.980383 
L 401.673543 297.884734 
L 403.26032 302.376899 
L 406.433874 312.330405 
L 408.814039 319.535926 
L 410.79751 324.803793 
L 412.384287 328.376169 
L 413.971064 331.334811 
L 415.161147 333.161543 
L 416.351229 334.676097 
L 417.541312 335.908218 
L 418.731395 336.892114 
L 420.318171 337.879628 
L 421.904948 338.571475 
L 423.491725 339.041199 
L 425.475196 339.408585 
L 428.252056 339.669986 
L 432.615692 339.805564 
L 444.119824 339.837967 
L 463.557841 339.838125 
L 463.557841 339.838125 
" clip-path="url(#p09d138fb81)" style="fill: none; stroke: #1f77b4; stroke-width: 2; stroke-linecap: square"/>
   </g>
   <g id="line2d_17">
    <path d="M 57.739659 88.591797 
L 58.136353 87.842209 
L 58.533048 88.99331 
L 58.929742 88.753542 
L 59.326436 87.802401 
L 59.72313 87.908206 
L 60.119824 88.581962 
L 60.913213 89.349745 
L 61.309907 89.184776 
L 61.706601 88.59542 
L 62.103295 88.788807 
L 62.896684 88.128778 
L 63.293378 88.332742 
L 63.690072 88.16116 
L 64.483461 89.297521 
L 64.880155 88.340769 
L 65.276849 88.542859 
L 65.673543 88.438558 
L 66.070238 88.454083 
L 66.466932 89.362452 
L 66.863626 89.32707 
L 67.26032 88.711508 
L 67.657014 88.420801 
L 68.450403 88.156991 
L 68.847097 88.640086 
L 69.243791 88.330806 
L 69.640486 88.504663 
L 70.03718 87.485099 
L 70.433874 88.252883 
L 70.830568 87.992265 
L 71.227262 89.048501 
L 71.623957 88.626876 
L 72.020651 88.92016 
L 72.417345 88.39596 
L 72.814039 88.30446 
L 73.210733 88.797735 
L 73.607428 88.392803 
L 74.004122 88.416617 
L 74.400816 87.931569 
L 74.79751 88.622082 
L 75.194205 88.539341 
L 75.590899 89.219391 
L 75.987593 88.500204 
L 76.384287 88.454261 
L 76.780981 88.923549 
L 77.177676 89.077319 
L 77.57437 88.516705 
L 77.971064 87.677749 
L 78.367758 88.243687 
L 78.764452 87.96017 
L 79.161147 88.495101 
L 79.954535 89.03291 
L 80.351229 87.967356 
L 80.747924 88.28077 
L 81.144618 89.3335 
L 81.541312 89.255402 
L 81.938006 88.194023 
L 82.3347 88.398294 
L 82.731395 89.239627 
L 83.128089 88.872243 
L 83.524783 88.685056 
L 83.921477 88.716036 
L 84.318171 88.465602 
L 84.714866 88.948602 
L 85.11156 89.023489 
L 86.301643 87.870075 
L 86.698337 88.461386 
L 87.491725 89.166876 
L 87.888419 88.38259 
L 88.285114 88.306596 
L 88.681808 89.137187 
L 89.475196 88.502449 
L 89.87189 89.539689 
L 90.268585 88.041315 
L 90.665279 88.941328 
L 91.061973 88.511627 
L 91.458667 88.43221 
L 91.855362 87.791368 
L 92.252056 89.049026 
L 92.64875 87.497601 
L 93.045444 87.81519 
L 93.442138 88.40335 
L 93.838833 88.002978 
L 94.235527 87.91516 
L 95.028915 88.529331 
L 95.42561 88.111504 
L 95.822304 88.182646 
L 96.218998 88.094479 
L 97.012386 88.775186 
L 97.409081 88.69896 
L 98.202469 89.078486 
L 98.599163 88.620367 
L 98.995857 88.460141 
L 99.392552 88.495047 
L 99.789246 88.69157 
L 100.18594 89.096488 
L 100.582634 89.011958 
L 100.979329 88.68332 
L 101.376023 88.926577 
L 101.772717 88.978604 
L 102.169411 88.59061 
L 102.566105 88.774079 
L 102.9628 88.332064 
L 103.359494 88.453887 
L 103.756188 88.106102 
L 104.152882 87.557187 
L 104.549576 87.647805 
L 104.946271 88.847935 
L 105.342965 88.678851 
L 105.739659 89.060445 
L 106.136353 88.107597 
L 106.929742 88.149465 
L 107.326436 89.096188 
L 107.72313 89.263334 
L 108.119824 87.828846 
L 108.516519 88.85899 
L 108.913213 89.533066 
L 109.706601 87.899309 
L 110.103295 88.749254 
L 110.49999 88.732072 
L 110.896684 88.44167 
L 111.293378 88.407777 
L 111.690072 88.079265 
L 112.086767 88.623733 
L 112.483461 88.845759 
L 112.880155 88.876659 
L 113.276849 88.38589 
L 114.070238 89.226115 
L 114.863626 88.438729 
L 115.26032 88.912046 
L 115.657014 89.17219 
L 116.450403 88.337873 
L 116.847097 88.466382 
L 117.243791 88.101345 
L 117.640486 88.021767 
L 118.03718 88.883419 
L 118.433874 88.882473 
L 118.830568 88.551881 
L 119.227262 88.505493 
L 119.623957 88.734553 
L 120.020651 89.10217 
L 120.417345 89.171579 
L 120.814039 88.938951 
L 121.210733 89.222057 
L 121.607428 88.656505 
L 122.004122 88.987321 
L 122.400816 89.113534 
L 122.79751 88.888275 
L 123.194205 88.05853 
L 123.590899 89.161343 
L 123.987593 88.58073 
L 124.384287 88.517465 
L 124.780981 88.914004 
L 125.177676 88.732875 
L 125.971064 87.300618 
L 126.367758 87.797394 
L 126.764452 87.769054 
L 127.161147 88.238205 
L 127.557841 88.298949 
L 127.954535 88.595028 
L 128.351229 88.107212 
L 128.747924 88.750693 
L 129.144618 89.002832 
L 129.541312 87.980112 
L 129.938006 88.263005 
L 130.3347 88.786339 
L 130.731395 88.836215 
L 131.128089 88.743495 
L 131.524783 88.809165 
L 131.921477 88.439557 
L 132.714866 88.686813 
L 133.11156 88.214467 
L 133.508254 88.355716 
L 133.904948 88.296323 
L 134.301643 87.73553 
L 134.698337 87.77732 
L 135.888419 88.416569 
L 136.285114 88.083008 
L 136.681808 88.320669 
L 137.078502 88.273053 
L 137.475196 88.479254 
L 137.87189 88.8909 
L 138.268585 88.560559 
L 139.061973 88.93108 
L 139.458667 88.889667 
L 139.855362 89.066708 
L 140.252056 86.867235 
L 140.64875 88.952819 
L 141.045444 88.383722 
L 141.442138 88.730085 
L 141.838833 87.468116 
L 142.235527 87.457419 
L 142.632221 88.219318 
L 143.028915 87.909715 
L 143.42561 87.456647 
L 144.218998 86.947406 
L 145.012386 86.80335 
L 145.409081 87.877407 
L 145.805775 87.140143 
L 146.202469 86.766519 
L 146.995857 86.470985 
L 147.392552 86.132889 
L 147.789246 85.616021 
L 148.18594 84.696342 
L 148.582634 84.959491 
L 148.979329 85.058158 
L 149.376023 84.205382 
L 150.169411 83.341237 
L 150.566105 82.638724 
L 151.359494 81.954727 
L 151.756188 81.27986 
L 152.152882 80.031701 
L 152.549576 79.346543 
L 152.946271 79.336629 
L 153.342965 77.879259 
L 153.739659 77.621499 
L 154.136353 77.151709 
L 154.533048 75.232259 
L 154.929742 75.045231 
L 155.72313 73.573789 
L 156.516519 71.114054 
L 156.913213 70.544348 
L 157.309907 68.805695 
L 158.103295 66.859493 
L 158.49999 64.800562 
L 158.896684 63.47057 
L 159.293378 63.928337 
L 159.690072 61.620343 
L 160.086767 60.49127 
L 160.483461 60.035181 
L 161.673543 55.600111 
L 162.070238 54.149536 
L 162.466932 53.251767 
L 162.863626 51.512633 
L 163.26032 50.644345 
L 164.450403 46.616124 
L 165.243791 45.441437 
L 166.433874 43.106282 
L 166.830568 42.723708 
L 167.227262 41.664284 
L 167.623957 40.265469 
L 168.417345 39.281281 
L 168.814039 38.848163 
L 169.210733 39.015442 
L 169.607428 38.608535 
L 170.004122 37.626312 
L 170.400816 37.438125 
L 170.79751 38.085659 
L 171.194205 37.972533 
L 171.590899 38.260402 
L 171.987593 39.143423 
L 172.384287 39.289074 
L 173.177676 40.541463 
L 173.57437 40.136489 
L 174.367758 41.979005 
L 174.764452 42.637467 
L 175.161147 44.599887 
L 175.557841 45.373191 
L 175.954535 46.431933 
L 176.351229 47.163104 
L 176.747924 47.649263 
L 177.144618 49.92869 
L 177.541312 51.434393 
L 178.3347 52.477113 
L 179.128089 55.145623 
L 179.921477 57.602498 
L 180.714866 60.649997 
L 181.508254 62.733853 
L 181.904948 64.308327 
L 183.095031 67.065125 
L 183.888419 69.999079 
L 184.681808 72.812568 
L 185.475196 73.63152 
L 185.87189 75.102259 
L 186.268585 75.969897 
L 186.665279 76.481557 
L 187.061973 77.198887 
L 187.458667 77.405565 
L 187.855362 79.112952 
L 188.252056 79.408466 
L 188.64875 80.597615 
L 189.838833 82.558055 
L 190.632221 83.110568 
L 191.028915 83.115377 
L 191.42561 84.17395 
L 191.822304 84.570796 
L 192.218998 84.738678 
L 192.615692 86.227771 
L 193.012386 84.621723 
L 193.409081 85.309822 
L 193.805775 86.474705 
L 194.202469 86.863342 
L 194.599163 86.310112 
L 195.392552 86.789452 
L 195.789246 86.819351 
L 196.18594 87.594963 
L 196.582634 86.868279 
L 196.979329 87.485753 
L 197.772717 88.333791 
L 198.169411 87.359795 
L 198.566105 87.782233 
L 199.359494 87.398687 
L 199.756188 88.510307 
L 200.152882 89.030921 
L 200.549576 88.498747 
L 200.946271 88.230226 
L 201.739659 88.89003 
L 202.533048 87.80229 
L 202.929742 87.85743 
L 203.326436 88.397474 
L 203.72313 89.334747 
L 204.119824 89.261461 
L 204.516519 88.36486 
L 204.913213 88.136742 
L 205.309907 87.392212 
L 205.706601 88.416287 
L 206.103295 88.535798 
L 206.896684 89.089875 
L 207.690072 87.92489 
L 208.086767 88.608647 
L 208.483461 87.871666 
L 208.880155 88.410339 
L 209.276849 89.35753 
L 210.070238 88.451782 
L 210.466932 87.170963 
L 210.863626 88.884354 
L 211.26032 89.090421 
L 211.657014 88.71003 
L 212.053709 88.531314 
L 212.450403 89.133795 
L 212.847097 88.9414 
L 213.243791 88.946195 
L 213.640486 89.172457 
L 214.03718 88.097926 
L 214.433874 88.038158 
L 214.830568 88.241784 
L 215.227262 88.298468 
L 215.623957 88.632581 
L 216.814039 88.568666 
L 217.210733 88.285034 
L 217.607428 88.722798 
L 218.004122 89.430068 
L 218.79751 88.376707 
L 219.194205 88.468274 
L 219.590899 88.127691 
L 220.384287 89.023953 
L 221.177676 88.589442 
L 221.57437 88.909187 
L 222.367758 88.81117 
L 222.764452 89.155308 
L 223.161147 89.199448 
L 223.954535 87.921137 
L 224.351229 87.921387 
L 224.747924 88.634247 
L 225.144618 88.905493 
L 225.541312 88.349746 
L 225.938006 88.994609 
L 226.3347 88.810231 
L 226.731395 87.795038 
L 227.128089 88.4068 
L 227.524783 88.255621 
L 227.921477 88.789141 
L 228.318171 88.427048 
L 228.714866 88.222258 
L 229.11156 88.859725 
L 229.508254 88.659303 
L 229.904948 88.296296 
L 230.301643 88.735821 
L 230.698337 88.872215 
L 231.095031 88.212931 
L 231.888419 89.253417 
L 232.681808 89.253062 
L 233.475196 88.158293 
L 233.87189 88.529003 
L 234.268585 89.211652 
L 234.665279 89.275611 
L 235.458667 88.531537 
L 235.855362 88.578831 
L 237.045444 88.275546 
L 237.442138 87.875202 
L 237.838833 88.940209 
L 238.235527 89.207573 
L 238.632221 88.204305 
L 239.028915 88.47687 
L 239.42561 88.504669 
L 239.822304 88.402716 
L 240.218998 88.901198 
L 240.615692 88.499997 
L 241.409081 88.25684 
L 241.805775 88.647445 
L 242.202469 88.33185 
L 242.599163 89.249578 
L 242.995857 88.848067 
L 243.392552 88.114932 
L 243.789246 89.088574 
L 244.18594 89.17985 
L 244.582634 88.328194 
L 245.376023 88.472253 
L 246.169411 88.368044 
L 246.566105 88.78736 
L 246.9628 88.936672 
L 247.359494 88.857116 
L 247.756188 88.255777 
L 248.152882 88.236357 
L 248.549576 89.357857 
L 248.946271 88.781796 
L 249.342965 88.571017 
L 249.739659 88.696807 
L 250.136353 88.063093 
L 250.929742 88.756922 
L 251.72313 88.372445 
L 252.119824 88.169817 
L 252.516519 88.146425 
L 252.913213 88.284589 
L 253.706601 88.097511 
L 254.49999 86.921838 
L 254.896684 87.202276 
L 255.293378 88.169747 
L 255.690072 87.832453 
L 256.086767 87.793575 
L 256.483461 87.221801 
L 256.880155 86.883551 
L 257.276849 87.413816 
L 258.070238 86.517677 
L 258.466932 87.046358 
L 258.863626 87.051579 
L 259.26032 86.61208 
L 259.657014 85.816009 
L 260.053709 86.264272 
L 260.450403 86.149322 
L 260.847097 85.064943 
L 261.243791 84.467353 
L 261.640486 84.570604 
L 262.03718 83.902536 
L 262.433874 84.094629 
L 262.830568 83.137526 
L 263.227262 82.893687 
L 263.623957 82.314916 
L 264.020651 81.332508 
L 264.417345 81.467405 
L 264.814039 81.238127 
L 265.607428 79.118519 
L 266.004122 78.877699 
L 269.177676 71.242309 
L 269.57437 70.537805 
L 269.971064 69.358126 
L 270.764452 66.591623 
L 271.161147 65.985704 
L 271.954535 63.553184 
L 272.351229 62.591913 
L 273.541312 58.019215 
L 274.3347 55.977418 
L 275.128089 52.339091 
L 275.524783 52.03013 
L 276.318171 49.028423 
L 276.714866 48.776483 
L 277.11156 47.118118 
L 277.508254 46.430816 
L 278.301643 44.496646 
L 278.698337 42.827881 
L 279.095031 42.794967 
L 279.491725 42.069481 
L 279.888419 42.362328 
L 280.681808 40.281596 
L 281.078502 39.261732 
L 281.475196 39.682919 
L 281.87189 38.938671 
L 282.268585 38.634609 
L 282.665279 38.739757 
L 283.061973 38.222155 
L 283.458667 38.086074 
L 283.855362 38.794721 
L 284.252056 38.118498 
L 284.64875 38.537407 
L 285.045444 39.746889 
L 285.442138 40.102227 
L 285.838833 40.27034 
L 286.632221 41.265709 
L 287.822304 43.081785 
L 288.218998 44.098996 
L 288.615692 45.606902 
L 289.012386 46.325115 
L 289.805775 48.815103 
L 290.599163 51.720235 
L 290.995857 52.164655 
L 291.789246 54.953429 
L 292.18594 56.879497 
L 292.582634 57.81292 
L 292.979329 59.412472 
L 293.376023 59.988882 
L 294.169411 61.578555 
L 294.566105 63.243634 
L 294.9628 65.811416 
L 295.359494 65.725057 
L 296.152882 68.201903 
L 297.342965 71.781557 
L 297.739659 73.533462 
L 298.136353 73.100746 
L 298.533048 75.287405 
L 299.72313 76.873686 
L 300.516519 78.978378 
L 301.309907 79.65551 
L 302.103295 81.779614 
L 302.49999 81.610382 
L 302.896684 81.80599 
L 303.293378 82.975635 
L 303.690072 83.116158 
L 304.086767 83.076119 
L 304.483461 84.267645 
L 305.276849 85.353537 
L 305.673543 85.644051 
L 306.070238 85.598028 
L 307.26032 86.208232 
L 307.657014 86.716686 
L 308.053709 86.930495 
L 308.450403 86.84461 
L 309.243791 87.572837 
L 309.640486 88.121913 
L 310.03718 87.285397 
L 310.433874 86.900479 
L 310.830568 87.960451 
L 311.227262 88.129986 
L 311.623957 87.820661 
L 312.417345 88.778752 
L 312.814039 88.926335 
L 313.210733 88.394652 
L 313.607428 89.329375 
L 314.004122 88.870366 
L 314.400816 88.768063 
L 314.79751 88.22608 
L 315.194205 88.048324 
L 315.590899 88.211865 
L 315.987593 87.735381 
L 316.384287 87.453815 
L 316.780981 88.692365 
L 317.57437 88.157442 
L 317.971064 88.648571 
L 318.764452 88.584237 
L 319.161147 89.069926 
L 319.954535 89.201734 
L 320.351229 88.85492 
L 320.747924 88.013137 
L 321.144618 87.77576 
L 321.938006 88.847936 
L 322.3347 88.357441 
L 322.731395 88.762975 
L 323.128089 88.328981 
L 323.524783 88.667245 
L 323.921477 88.774414 
L 324.318171 88.512129 
L 324.714866 88.724314 
L 325.11156 87.980222 
L 325.508254 88.782647 
L 326.301643 88.082626 
L 326.698337 88.952813 
L 327.095031 88.652047 
L 327.491725 87.981528 
L 327.888419 89.060739 
L 328.681808 88.43122 
L 329.078502 88.082777 
L 329.87189 88.95882 
L 330.268585 88.297976 
L 330.665279 88.004664 
L 331.061973 88.825517 
L 331.458667 89.237184 
L 331.855362 88.380607 
L 332.252056 87.829661 
L 333.045444 88.539136 
L 333.442138 88.235172 
L 334.632221 88.958779 
L 335.42561 88.255023 
L 335.822304 88.648202 
L 336.218998 88.83776 
L 336.615692 88.605449 
L 337.012386 88.607607 
L 337.805775 89.023955 
L 338.995857 88.946935 
L 339.392552 88.604904 
L 339.789246 88.567815 
L 340.18594 88.224718 
L 340.582634 88.713886 
L 341.376023 88.036414 
L 341.772717 88.215847 
L 342.169411 89.370312 
L 342.566105 89.547411 
L 342.9628 89.379651 
L 343.359494 88.709353 
L 343.756188 89.153214 
L 344.152882 88.01837 
L 344.549576 88.72053 
L 344.946271 88.106384 
L 345.342965 88.232319 
L 345.739659 88.707628 
L 346.136353 88.016971 
L 346.929742 88.084782 
L 347.326436 89.097306 
L 347.72313 87.936782 
L 348.119824 88.472757 
L 348.516519 88.579673 
L 348.913213 87.879301 
L 349.309907 89.338039 
L 349.706601 89.716924 
L 350.103295 88.757417 
L 350.49999 88.855482 
L 350.896684 88.710956 
L 351.293378 88.402069 
L 352.086767 88.265815 
L 353.276849 88.197176 
L 353.673543 88.538542 
L 354.070238 88.401845 
L 354.466932 88.029654 
L 354.863626 88.410998 
L 356.053709 88.33897 
L 356.450403 87.713937 
L 356.847097 88.591773 
L 357.243791 88.770866 
L 357.640486 88.740877 
L 358.830568 87.400301 
L 359.623957 88.055673 
L 360.020651 88.290555 
L 360.814039 88.050566 
L 361.210733 88.763524 
L 361.607428 88.331503 
L 362.004122 88.841075 
L 362.400816 87.993627 
L 362.79751 88.71465 
L 363.194205 88.177153 
L 363.590899 87.438252 
L 363.987593 88.518671 
L 364.384287 87.568937 
L 364.780981 87.61958 
L 365.177676 87.811139 
L 365.57437 88.675199 
L 365.971064 88.96871 
L 366.367758 88.100485 
L 366.764452 88.115882 
L 367.161147 87.659687 
L 367.557841 87.41954 
L 367.954535 88.24256 
L 368.351229 88.237988 
L 368.747924 87.982918 
L 369.144618 87.860835 
L 369.541312 87.939649 
L 370.3347 87.214154 
L 371.524783 86.369798 
L 371.921477 85.724652 
L 372.318171 85.696338 
L 372.714866 85.97411 
L 373.11156 85.608238 
L 373.508254 85.617881 
L 374.301643 84.848174 
L 375.095031 83.582746 
L 375.491725 83.322576 
L 375.888419 83.605611 
L 376.285114 81.732307 
L 377.078502 80.748876 
L 377.87189 81.530418 
L 378.268585 79.13363 
L 378.665279 79.506459 
L 379.061973 77.256413 
L 379.458667 76.823212 
L 379.855362 75.907393 
L 380.252056 75.774252 
L 380.64875 74.587289 
L 381.045444 74.037242 
L 381.442138 72.072706 
L 381.838833 71.492144 
L 382.235527 70.612142 
L 383.028915 67.987523 
L 383.42561 67.695867 
L 385.409081 61.225047 
L 387.392552 55.02817 
L 387.789246 52.848864 
L 388.18594 51.559499 
L 388.582634 51.071295 
L 388.979329 49.63034 
L 389.772717 47.617915 
L 390.169411 46.357733 
L 390.566105 45.727572 
L 391.359494 43.278569 
L 391.756188 43.084898 
L 392.549576 40.903499 
L 392.946271 41.253498 
L 393.342965 40.302452 
L 393.739659 39.973096 
L 394.929742 38.219669 
L 395.326436 38.590425 
L 396.119824 37.856555 
L 396.516519 39.349928 
L 396.913213 38.072759 
L 397.309907 38.943271 
L 397.706601 38.701078 
L 398.103295 40.007277 
L 398.896684 40.652819 
L 399.293378 40.9838 
L 399.690072 41.604663 
L 400.086767 42.749143 
L 400.880155 44.367705 
L 401.276849 45.771805 
L 401.673543 46.639926 
L 402.070238 47.046203 
L 402.466932 48.119961 
L 403.26032 51.493181 
L 404.450403 54.481266 
L 404.847097 55.526266 
L 405.640486 58.898008 
L 406.03718 59.921794 
L 406.433874 60.530251 
L 407.227262 63.279827 
L 407.623957 64.601129 
L 408.020651 65.393796 
L 408.814039 68.784539 
L 409.210733 69.969266 
L 409.607428 70.357922 
L 410.004122 71.98788 
L 410.400816 72.44792 
L 410.79751 73.228973 
L 411.194205 74.448662 
L 411.590899 74.654456 
L 411.987593 76.8041 
L 412.384287 77.020336 
L 412.780981 77.733767 
L 413.177676 78.1197 
L 413.57437 79.771035 
L 413.971064 79.989332 
L 414.764452 81.146391 
L 415.161147 81.643911 
L 415.557841 82.666944 
L 415.954535 83.352501 
L 416.351229 83.599156 
L 416.747924 83.496372 
L 417.541312 84.652713 
L 418.3347 85.134977 
L 419.128089 85.632846 
L 419.524783 86.107789 
L 419.921477 85.989949 
L 420.318171 86.346413 
L 420.714866 86.897211 
L 421.11156 87.135611 
L 421.508254 87.170295 
L 422.698337 87.64118 
L 423.095031 88.218565 
L 423.888419 87.627149 
L 424.285114 88.204571 
L 425.078502 88.137355 
L 425.475196 87.899669 
L 425.87189 88.010066 
L 426.268585 88.572236 
L 426.665279 88.808329 
L 427.061973 88.415231 
L 427.458667 87.737645 
L 427.855362 87.502906 
L 428.252056 89.060018 
L 428.64875 87.800867 
L 429.045444 88.616135 
L 429.442138 88.831008 
L 429.838833 88.733259 
L 430.235527 88.489529 
L 430.632221 88.939319 
L 431.028915 88.662376 
L 431.42561 88.922891 
L 431.822304 88.060472 
L 432.218998 88.04165 
L 432.615692 88.318699 
L 433.409081 88.466366 
L 433.805775 88.098632 
L 434.202469 88.05557 
L 434.599163 88.822424 
L 434.995857 89.313235 
L 435.392552 88.914791 
L 435.789246 88.263799 
L 436.18594 88.505537 
L 436.582634 88.337629 
L 436.979329 88.313732 
L 437.376023 88.482876 
L 437.772717 87.973556 
L 438.169411 88.123417 
L 438.566105 89.166353 
L 438.9628 89.274052 
L 439.359494 88.990016 
L 439.756188 89.122685 
L 440.946271 88.260945 
L 441.739659 88.342055 
L 442.136353 88.395327 
L 442.929742 88.899098 
L 443.326436 88.790409 
L 443.72313 89.223669 
L 444.119824 88.489751 
L 444.516519 89.126697 
L 444.913213 88.961644 
L 445.309907 88.146417 
L 445.706601 88.221163 
L 446.103295 88.667755 
L 446.49999 87.651363 
L 446.896684 88.112976 
L 447.293378 88.283485 
L 448.086767 88.055418 
L 448.880155 88.372331 
L 449.276849 88.453944 
L 449.673543 88.350815 
L 450.070238 89.44073 
L 450.466932 88.821668 
L 451.26032 88.006949 
L 451.657014 89.111143 
L 452.053709 89.033627 
L 452.450403 87.953915 
L 452.847097 87.887059 
L 453.243791 88.870072 
L 454.03718 88.587818 
L 454.433874 88.696639 
L 455.227262 88.296157 
L 455.623957 88.566317 
L 456.020651 89.024735 
L 456.417345 89.227871 
L 456.814039 89.07048 
L 457.210733 88.571129 
L 457.607428 88.71488 
L 458.004122 89.100257 
L 458.400816 89.027263 
L 458.79751 88.275546 
L 459.194205 88.15896 
L 459.590899 88.678193 
L 459.987593 88.899373 
L 460.384287 88.731731 
L 460.780981 88.941481 
L 461.57437 87.913719 
L 461.971064 87.800117 
L 462.367758 88.780798 
L 462.764452 88.552714 
L 463.161147 89.243455 
L 463.557841 87.465124 
L 463.557841 87.465124 
" clip-path="url(#p09d138fb81)" style="fill: none; stroke: #ff7f0e; stroke-width: 2; stroke-linecap: square"/>
   </g>
   <g id="line2d_18">
    <path d="M 57.739659 339.838125 
L 62.49999 339.838125 
L 62.896684 336.345222 
L 63.690072 339.838125 
L 67.657014 339.838125 
L 68.053709 337.877972 
L 68.450403 336.654719 
L 68.847097 339.838125 
L 69.243791 338.231684 
L 69.640486 334.812471 
L 70.03718 336.183104 
L 70.433874 339.838125 
L 72.417345 339.838125 
L 72.814039 338.747514 
L 73.210733 330.214218 
L 74.004122 339.838125 
L 74.79751 339.838125 
L 75.194205 334.974589 
L 75.590899 339.558103 
L 75.987593 335.210396 
L 76.384287 339.322295 
L 76.780981 335.446204 
L 77.177676 339.086488 
L 77.57437 335.682012 
L 77.971064 338.85068 
L 78.367758 335.91782 
L 78.764452 338.614872 
L 79.161147 339.838125 
L 79.557841 332.704938 
L 79.954535 333.235506 
L 80.351229 331.481685 
L 80.747924 336.21258 
L 81.144618 336.743147 
L 81.541312 331.835397 
L 81.938006 332.645986 
L 82.3347 337.553737 
L 82.731395 339.838125 
L 83.128089 337.332667 
L 83.524783 337.200025 
L 83.921477 339.838125 
L 84.318171 337.686379 
L 84.714866 336.846313 
L 85.11156 337.922186 
L 85.508254 336.610505 
L 85.904948 338.157994 
L 86.301643 336.374698 
L 86.698337 338.393802 
L 87.095031 334.812471 
L 87.491725 333.603956 
L 87.888419 331.968039 
L 88.285114 338.865418 
L 88.681808 334.812471 
L 89.078502 335.54937 
L 89.475196 339.219129 
L 89.87189 335.313562 
L 90.268585 339.838125 
L 90.665279 338.77699 
L 91.061973 319.735508 
L 91.458667 319.79446 
L 92.252056 339.425461 
L 92.64875 339.838125 
L 93.045444 321.504067 
L 93.442138 333.13234 
L 93.838833 339.160178 
L 94.235527 331.378519 
L 94.632221 333.898715 
L 95.028915 334.812471 
L 95.42561 334.812471 
L 95.822304 338.570658 
L 96.218998 339.838125 
L 96.615692 339.838125 
L 97.012386 336.43365 
L 97.409081 334.812471 
L 97.805775 337.981138 
L 98.202469 339.838125 
L 98.599163 336.905265 
L 98.995857 334.812471 
L 99.392552 334.812471 
L 99.789246 332.233323 
L 100.18594 332.248061 
L 100.582634 337.155811 
L 100.979329 333.161816 
L 101.376023 326.868695 
L 101.772717 331.776445 
L 102.169411 332.940746 
L 102.566105 331.540637 
L 102.9628 334.812471 
L 104.549576 334.812471 
L 104.946271 330.626882 
L 105.342965 317.495334 
L 105.739659 331.407995 
L 106.136353 339.838125 
L 106.533048 338.11378 
L 106.929742 325.21804 
L 107.72313 334.812471 
L 108.119824 334.606139 
L 108.516519 324.790638 
L 108.913213 339.440199 
L 109.309907 339.838125 
L 109.706601 335.18092 
L 110.103295 334.812471 
L 110.49999 334.812471 
L 110.896684 339.115964 
L 111.293378 339.838125 
L 112.086767 339.838125 
L 112.880155 331.098497 
L 113.276849 329.786816 
L 113.673543 333.264982 
L 114.070238 334.812471 
L 114.863626 334.812471 
L 115.657014 321.872516 
L 116.053709 322.50625 
L 117.243791 337.229501 
L 117.640486 337.538999 
L 118.03718 334.812471 
L 118.433874 330.685834 
L 118.830568 328.651991 
L 119.227262 336.639981 
L 119.623957 336.418912 
L 120.020651 329.786816 
L 120.417345 329.786816 
L 120.814039 331.142711 
L 121.210733 336.050462 
L 121.607428 338.718038 
L 122.004122 333.810287 
L 122.400816 331.555375 
L 122.79751 339.07175 
L 123.194205 335.460942 
L 123.590899 338.246422 
L 123.987593 325.999153 
L 124.384287 339.248605 
L 124.780981 329.963672 
L 125.57437 339.779173 
L 125.971064 325.29173 
L 126.367758 334.222951 
L 126.764452 339.425461 
L 127.161147 321.857778 
L 127.557841 332.867056 
L 127.954535 334.812471 
L 128.351229 326.529721 
L 128.747924 332.808104 
L 129.144618 327.001337 
L 129.541312 336.124152 
L 129.938006 336.168366 
L 130.3347 334.812471 
L 130.731395 327.944568 
L 131.524783 339.838125 
L 131.921477 339.838125 
L 132.318171 336.875789 
L 132.714866 329.123607 
L 133.11156 330.214218 
L 133.508254 329.595223 
L 133.904948 329.742602 
L 134.301643 332.439654 
L 134.698337 332.041729 
L 135.095031 334.812471 
L 135.491725 332.793366 
L 135.888419 325.984415 
L 136.285114 323.302101 
L 136.681808 329.786816 
L 137.078502 329.786816 
L 137.475196 331.216401 
L 137.87189 334.812471 
L 138.268585 332.424917 
L 138.665279 327.988782 
L 139.061973 336.964217 
L 139.458667 327.281358 
L 139.855362 339.115964 
L 140.64875 329.786816 
L 141.045444 329.786816 
L 141.442138 328.784633 
L 141.838833 310.082125 
L 142.235527 324.790638 
L 142.632221 334.606139 
L 143.028915 315.594133 
L 143.42561 338.143256 
L 143.822304 330.700572 
L 144.218998 334.237689 
L 144.615692 334.812471 
L 145.012386 326.382341 
L 145.409081 320.664001 
L 145.805775 323.714765 
L 146.202469 309.31575 
L 146.599163 327.11924 
L 146.995857 323.935835 
L 147.789246 334.812471 
L 148.582634 321.607233 
L 148.979329 319.735508 
L 149.376023 316.817386 
L 149.772717 325.910725 
L 150.169411 326.765529 
L 150.566105 312.042278 
L 150.9628 311.998064 
L 151.359494 319.735508 
L 152.152882 324.761162 
L 152.549576 322.786272 
L 153.342965 307.945117 
L 153.739659 307.900903 
L 154.136353 314.709854 
L 154.533048 316.095225 
L 154.929742 315.933107 
L 155.326436 305.808108 
L 156.119824 314.709854 
L 156.516519 312.322299 
L 156.913213 302.344681 
L 157.309907 319.175464 
L 158.103295 309.684199 
L 158.49999 310.096863 
L 158.896684 319.470224 
L 159.293378 304.746973 
L 159.690072 309.536819 
L 160.086767 304.923829 
L 160.483461 290.731145 
L 160.880155 289.581582 
L 161.276849 280.768265 
L 161.673543 292.396538 
L 162.070238 273.752982 
L 162.466932 273.531912 
L 162.863626 278.439663 
L 163.657014 305.704942 
L 164.053709 281.033549 
L 164.847097 304.658545 
L 165.243791 307.886165 
L 165.640486 287.91619 
L 166.03718 289.463678 
L 166.433874 299.632891 
L 166.830568 280.340863 
L 167.227262 269.729511 
L 167.623957 277.024816 
L 168.020651 289.139443 
L 168.417345 288.210949 
L 168.814039 263.672198 
L 169.210733 273.959314 
L 169.607428 294.238787 
L 170.004122 271.291738 
L 170.400816 281.284094 
L 170.79751 288.299377 
L 171.194205 277.422741 
L 171.590899 280.532457 
L 171.987593 268.255712 
L 172.384287 274.401454 
L 172.780981 301.784637 
L 173.177676 274.696213 
L 173.57437 295.874704 
L 173.971064 277.039554 
L 174.367758 290.996429 
L 174.764452 262.213137 
L 175.161147 292.647084 
L 175.557841 260.238246 
L 176.351229 304.363785 
L 176.747924 275.654183 
L 177.144618 316.950028 
L 177.541312 269.154729 
L 177.938006 282.374706 
L 178.3347 275.831039 
L 178.731395 282.993701 
L 179.128089 284.555928 
L 179.524783 276.538462 
L 179.921477 255.050474 
L 180.318171 279.55975 
L 180.714866 289.581582 
L 181.508254 303.052104 
L 181.904948 298.055926 
L 182.301643 307.340859 
L 183.095031 315.579395 
L 183.491725 311.246426 
L 183.888419 315.505705 
L 184.285114 316.979504 
L 184.681808 317.112146 
L 185.078502 324.761162 
L 185.475196 320.280814 
L 185.87189 310.465313 
L 186.665279 307.164003 
L 187.061973 306.987147 
L 187.458667 314.930923 
L 187.855362 292.219682 
L 188.252056 312.513893 
L 188.64875 321.032451 
L 189.045444 323.582123 
L 189.442138 317.613237 
L 189.838833 309.684199 
L 190.235527 313.810836 
L 190.632221 334.105047 
L 191.028915 329.786816 
L 191.42561 328.37197 
L 192.218998 299.632891 
L 192.615692 300.458218 
L 193.012386 334.812471 
L 193.409081 310.273719 
L 193.805775 328.843585 
L 194.202469 301.755161 
L 194.599163 317.849045 
L 194.995857 319.735508 
L 195.392552 315.417277 
L 195.789246 318.910181 
L 196.18594 319.735508 
L 196.582634 323.700027 
L 196.979329 305.528086 
L 197.376023 322.005158 
L 197.772717 329.786816 
L 198.169411 315.815203 
L 198.566105 309.684199 
L 198.9628 312.941295 
L 199.359494 314.709854 
L 199.756188 311.688566 
L 200.152882 318.394351 
L 200.549576 327.546642 
L 201.739659 310.008435 
L 202.136353 295.005162 
L 202.533048 311.541186 
L 202.929742 333.603956 
L 203.326436 320.840857 
L 203.72313 322.078848 
L 204.119824 333.088126 
L 204.516519 326.573935 
L 204.913213 324.201119 
L 205.309907 330.700572 
L 206.103295 301.902541 
L 206.896684 323.862145 
L 207.293378 322.859962 
L 207.690072 336.522077 
L 208.086767 315.255159 
L 208.483461 319.735508 
L 208.880155 320.045006 
L 209.276849 324.569568 
L 209.673543 319.882888 
L 210.070238 329.698389 
L 210.466932 320.059744 
L 210.863626 329.226773 
L 211.26032 320.531359 
L 211.657014 306.206034 
L 212.053709 335.40199 
L 212.450403 335.564108 
L 212.847097 322.344132 
L 213.243791 331.850135 
L 213.640486 311.29064 
L 214.03718 316.065749 
L 214.433874 308.682016 
L 214.830568 322.491512 
L 215.227262 329.786816 
L 215.623957 319.79446 
L 216.020651 314.709854 
L 216.417345 323.994787 
L 216.814039 329.786816 
L 217.210733 326.927647 
L 218.004122 307.060837 
L 218.400816 314.680378 
L 218.79751 324.761162 
L 219.987593 324.761162 
L 220.384287 326.677101 
L 220.780981 327.988782 
L 221.177676 323.081031 
L 221.971064 322.565202 
L 222.367758 313.943478 
L 222.764452 335.004065 
L 223.161147 319.735508 
L 223.557841 322.65363 
L 223.954535 334.812471 
L 224.351229 334.812471 
L 224.747924 333.57448 
L 225.144618 324.260071 
L 225.541312 320.118696 
L 225.938006 323.434743 
L 226.3347 300.81193 
L 226.731395 339.690745 
L 227.128089 315.151993 
L 227.524783 300.251886 
L 227.921477 313.737146 
L 228.318171 319.293368 
L 228.714866 333.13234 
L 229.11156 326.117057 
L 229.508254 312.071754 
L 229.904948 305.5723 
L 230.301643 312.646535 
L 230.698337 330.214218 
L 231.491725 297.377979 
L 231.888419 319.263892 
L 232.285114 326.382341 
L 232.681808 324.761162 
L 233.078502 327.92983 
L 233.475196 323.685289 
L 233.87189 325.601228 
L 234.268585 321.341949 
L 235.061973 309.551557 
L 235.458667 307.119789 
L 235.855362 316.71422 
L 236.252056 329.212035 
L 236.64875 317.952211 
L 237.045444 300.576122 
L 237.442138 311.555924 
L 238.235527 321.371425 
L 238.632221 321.725136 
L 239.028915 310.509527 
L 239.42561 303.479506 
L 239.822304 315.874155 
L 240.218998 318.689111 
L 240.615692 318.423827 
L 241.012386 332.380703 
L 241.409081 321.120879 
L 241.805775 328.637253 
L 242.202469 320.192386 
L 242.599163 325.100136 
L 242.995857 328.018258 
L 243.392552 290.40691 
L 243.789246 329.668913 
L 244.18594 305.321755 
L 244.979329 314.341404 
L 245.376023 310.170553 
L 245.772717 309.684199 
L 246.566105 318.895443 
L 246.9628 319.735508 
L 247.359494 315.785727 
L 248.152882 328.475135 
L 248.549576 315.402539 
L 248.946271 313.162365 
L 249.739659 331.245877 
L 250.136353 319.190202 
L 250.533048 297.658 
L 250.929742 286.692936 
L 251.72313 325.041184 
L 252.119824 314.577212 
L 252.516519 299.632891 
L 252.913213 306.53027 
L 253.309907 323.434743 
L 253.706601 324.495878 
L 254.103295 303.847956 
L 254.49999 296.434747 
L 254.896684 304.761711 
L 255.293378 316.301556 
L 255.690072 313.840312 
L 256.086767 302.344681 
L 256.880155 319.735508 
L 257.276849 322.742058 
L 257.673543 331.275353 
L 258.070238 313.177103 
L 258.466932 309.197846 
L 258.863626 336.124152 
L 259.26032 305.071209 
L 259.657014 310.863239 
L 260.053709 328.902537 
L 260.450403 304.953305 
L 260.847097 329.492057 
L 261.243791 315.240421 
L 261.640486 309.978959 
L 262.03718 309.684199 
L 262.433874 305.189113 
L 262.830568 313.412911 
L 263.227262 293.413459 
L 263.623957 302.005707 
L 264.020651 300.635074 
L 264.814039 290.819573 
L 265.210733 289.581582 
L 265.607428 307.340859 
L 266.004122 304.407999 
L 266.400816 296.316843 
L 267.194205 304.658545 
L 267.590899 304.658545 
L 267.987593 313.191841 
L 268.780981 262.227875 
L 269.57437 296.980053 
L 269.971064 306.397628 
L 270.367758 301.887803 
L 270.764452 292.632346 
L 271.161147 304.658545 
L 271.954535 279.441846 
L 272.351229 303.494244 
L 272.747924 281.004073 
L 273.144618 272.544467 
L 273.541312 306.102868 
L 274.3347 271.394904 
L 274.731395 281.210405 
L 275.128089 288.137259 
L 275.921477 269.478965 
L 276.318171 269.847415 
L 276.714866 275.005711 
L 277.11156 284.68857 
L 277.508254 289.434202 
L 277.904948 240.356699 
L 278.301643 258.543377 
L 278.698337 264.114337 
L 279.095031 273.590864 
L 279.491725 296.758983 
L 279.888419 260.636172 
L 280.285114 271.262262 
L 280.681808 286.796102 
L 281.078502 269.685297 
L 281.475196 241.285192 
L 281.87189 249.273182 
L 282.268585 250.776457 
L 282.665279 256.391631 
L 283.061973 245.868707 
L 283.458667 272.043375 
L 283.855362 258.042286 
L 284.64875 272.883441 
L 285.045444 264.453311 
L 285.442138 269.817939 
L 285.838833 271.940209 
L 286.235527 264.585953 
L 286.632221 252.44185 
L 287.028915 250.982789 
L 287.42561 265.70604 
L 287.822304 272.529729 
L 288.615692 248.020453 
L 289.012386 264.453311 
L 289.409081 262.950036 
L 289.805775 263.58377 
L 290.202469 273.237152 
L 290.599163 270.628528 
L 290.995857 272.441301 
L 291.392552 262.6258 
L 291.789246 259.972962 
L 292.18594 290.937477 
L 292.582634 295.712586 
L 292.979329 265.33759 
L 293.376023 274.828855 
L 294.169411 284.202216 
L 294.566105 264.571215 
L 294.9628 313.236055 
L 295.359494 295.668372 
L 295.756188 285.322303 
L 296.152882 316.227867 
L 296.946271 281.740972 
L 297.342965 296.213677 
L 297.739659 291.526997 
L 298.136353 293.516625 
L 298.533048 286.972958 
L 298.929742 306.75134 
L 299.326436 293.221866 
L 299.72313 298.409638 
L 300.119824 291.276451 
L 300.516519 307.149265 
L 300.913213 304.186929 
L 301.309907 291.615425 
L 301.706601 295.329398 
L 302.103295 296.876887 
L 302.49999 313.073937 
L 302.896684 317.185836 
L 303.293378 307.060837 
L 303.690072 309.684199 
L 304.086767 296.685293 
L 304.483461 287.724596 
L 304.880155 301.563567 
L 305.276849 304.658545 
L 305.673543 302.963676 
L 306.070238 305.94075 
L 306.466932 313.899264 
L 306.863626 307.679833 
L 307.26032 327.34031 
L 308.053709 301.607781 
L 308.450403 311.423282 
L 308.847097 317.480596 
L 309.243791 305.292279 
L 309.640486 307.620881 
L 310.03718 292.367062 
L 310.433874 324.201119 
L 311.227262 304.525903 
L 311.623957 289.802652 
L 312.020651 328.254066 
L 312.417345 325.07066 
L 312.814039 310.966404 
L 313.210733 314.164548 
L 313.607428 314.709854 
L 314.004122 306.220772 
L 314.400816 304.658545 
L 314.79751 312.676011 
L 315.194205 314.709854 
L 315.987593 278.616518 
L 316.384287 263.893267 
L 316.780981 290.200578 
L 317.177676 294.754616 
L 317.57437 292.764988 
L 317.971064 306.869243 
L 318.367758 297.024267 
L 318.764452 298.704398 
L 319.161147 301.548829 
L 319.557841 310.170553 
L 319.954535 314.857234 
L 320.351229 316.448936 
L 320.747924 316.34577 
L 321.144618 303.877432 
L 321.541312 307.679833 
L 322.3347 288.093045 
L 323.128089 318.630159 
L 323.524783 308.903086 
L 323.921477 317.141622 
L 324.714866 293.826123 
L 325.11156 311.570662 
L 325.508254 316.434198 
L 325.904948 301.047738 
L 326.698337 319.263892 
L 327.095031 312.941295 
L 327.491725 290.289006 
L 328.285114 319.735508 
L 328.681808 309.920007 
L 329.078502 285.734967 
L 329.475196 293.899813 
L 329.87189 321.931468 
L 330.268585 275.96368 
L 330.665279 308.343042 
L 331.061973 310.509527 
L 331.855362 291.703853 
L 332.252056 316.507888 
L 332.64875 321.032451 
L 333.045444 301.681471 
L 333.442138 294.607237 
L 333.838833 294.607237 
L 334.235527 301.121428 
L 334.632221 317.215312 
L 335.028915 315.697299 
L 335.42561 315.490967 
L 335.822304 308.593588 
L 336.218998 296.965315 
L 336.615692 302.256253 
L 337.012386 292.661822 
L 337.409081 288.387805 
L 337.805775 298.070664 
L 338.202469 297.893808 
L 338.599163 299.883437 
L 338.995857 279.029182 
L 339.392552 283.273723 
L 339.789246 309.684199 
L 340.18594 311.172736 
L 340.582634 316.080487 
L 340.979329 315.977321 
L 341.376023 296.714769 
L 341.772717 271.512808 
L 342.169411 284.02536 
L 342.566105 303.096318 
L 342.9628 294.607237 
L 343.359494 295.697848 
L 343.756188 303.803742 
L 344.152882 294.607237 
L 344.549576 294.990424 
L 344.946271 304.142715 
L 345.342965 269.788463 
L 345.739659 308.387256 
L 346.136353 304.938567 
L 346.533048 272.264445 
L 346.929742 292.028088 
L 347.326436 285.823395 
L 347.72313 305.926012 
L 348.119824 309.684199 
L 348.516519 293.531363 
L 348.913213 305.262803 
L 349.309907 294.474595 
L 349.706601 304.319571 
L 350.103295 309.684199 
L 350.49999 313.132889 
L 350.896684 321.371425 
L 351.293378 324.761162 
L 351.690072 296.906363 
L 352.086767 294.415643 
L 352.483461 313.236055 
L 352.880155 292.322848 
L 353.276849 282.595775 
L 353.673543 297.112695 
L 354.070238 302.020445 
L 354.466932 304.658545 
L 354.863626 313.265531 
L 355.26032 318.659635 
L 356.053709 289.581582 
L 356.450403 291.261713 
L 356.847097 288.358329 
L 357.243791 287.503526 
L 357.640486 319.735508 
L 358.03718 312.484417 
L 358.433874 296.125249 
L 358.830568 321.680922 
L 359.227262 326.367603 
L 359.623957 307.473501 
L 360.020651 298.32121 
L 360.417345 323.257887 
L 360.814039 308.917824 
L 361.210733 300.694026 
L 361.607428 318.998608 
L 362.004122 294.607237 
L 362.400816 294.607237 
L 362.79751 289.787914 
L 363.194205 289.581582 
L 363.590899 317.08267 
L 363.987593 319.735508 
L 364.384287 311.040094 
L 364.780981 292.764988 
L 365.177676 306.029178 
L 365.57437 313.678194 
L 365.971064 299.205489 
L 366.367758 294.607237 
L 366.764452 298.24752 
L 367.161147 306.67765 
L 367.557841 296.066297 
L 367.954535 306.01444 
L 368.351229 298.866515 
L 369.144618 280.783003 
L 369.938006 317.406906 
L 370.3347 319.735508 
L 371.128089 307.001885 
L 371.524783 307.458763 
L 371.921477 306.766078 
L 372.318171 303.715314 
L 372.714866 307.709309 
L 373.11156 319.263892 
L 373.508254 301.268808 
L 373.904948 303.140532 
L 374.301643 302.433109 
L 374.698337 301.990969 
L 375.095031 286.516081 
L 375.491725 305.49861 
L 375.888419 292.367062 
L 376.285114 303.847956 
L 376.681808 293.398721 
L 377.078502 260.149818 
L 377.475196 302.831034 
L 377.87189 284.894902 
L 378.665279 294.916734 
L 379.061973 309.639985 
L 379.458667 295.005162 
L 379.855362 313.70767 
L 380.64875 266.885079 
L 381.045444 304.245881 
L 381.442138 288.166735 
L 381.838833 280.370339 
L 382.235527 283.597959 
L 382.632221 304.304833 
L 383.42561 264.674381 
L 383.822304 284.600142 
L 384.218998 284.17274 
L 384.615692 266.089228 
L 385.012386 269.154729 
L 385.409081 258.882351 
L 385.805775 279.441846 
L 386.202469 308.298828 
L 386.599163 270.377983 
L 386.995857 247.563575 
L 387.392552 249.28792 
L 388.18594 268.034642 
L 388.582634 250.039558 
L 388.979329 242.287375 
L 389.376023 247.106698 
L 389.772717 246.635082 
L 390.169411 231.086504 
L 390.9628 273.030821 
L 391.359494 257.27591 
L 391.756188 221.772095 
L 392.152882 217.55703 
L 392.549576 234.284647 
L 393.342965 283.450579 
L 393.739659 249.376348 
L 394.136353 250.968051 
L 394.533048 260.326674 
L 394.929742 216.849606 
L 395.326436 259.958224 
L 395.72313 274.563571 
L 396.119824 279.471322 
L 396.516519 235.891088 
L 396.913213 239.03028 
L 397.309907 276.228964 
L 397.706601 252.559754 
L 398.103295 236.2448 
L 398.49999 268.373616 
L 398.896684 253.797745 
L 399.293378 245.352877 
L 399.690072 220.917291 
L 400.086767 252.0734 
L 400.483461 264.453311 
L 400.880155 289.316299 
L 401.673543 232.692945 
L 402.070238 258.057024 
L 402.466932 259.103421 
L 402.863626 255.30102 
L 403.26032 259.427657 
L 403.657014 259.427657 
L 404.053709 272.470777 
L 404.450403 279.574488 
L 404.847097 267.386171 
L 405.243791 268.447306 
L 405.640486 277.393265 
L 406.03718 256.332679 
L 406.433874 248.285737 
L 406.830568 275.96368 
L 407.227262 269.478965 
L 407.623957 274.121432 
L 408.020651 283.126343 
L 408.814039 269.478965 
L 409.210733 270.554838 
L 409.607428 275.462589 
L 410.004122 284.570666 
L 410.400816 303.184746 
L 410.79751 271.100144 
L 411.194205 316.331032 
L 411.987593 255.404186 
L 412.384287 274.637261 
L 412.780981 279.515536 
L 413.177676 274.607785 
L 413.57437 279.309204 
L 413.971064 302.963676 
L 414.367758 286.383439 
L 414.764452 293.457673 
L 415.161147 307.606143 
L 415.954535 272.264445 
L 416.351229 269.478965 
L 416.747924 304.231143 
L 417.144618 277.275361 
L 417.541312 286.206583 
L 417.938006 284.084312 
L 418.3347 282.920011 
L 418.731395 294.371429 
L 419.128089 290.171102 
L 419.524783 305.808108 
L 419.921477 310.981142 
L 420.714866 286.560295 
L 421.11156 282.094684 
L 421.508254 294.341953 
L 421.904948 295.344136 
L 422.301643 300.030817 
L 422.698337 302.993152 
L 423.095031 287.429836 
L 423.491725 301.489877 
L 423.888419 297.702214 
L 424.285114 289.419464 
L 424.681808 292.116516 
L 425.078502 280.046103 
L 425.475196 284.4675 
L 425.87189 262.448944 
L 426.268585 291.644901 
L 426.665279 298.719136 
L 427.061973 294.607237 
L 427.458667 294.607237 
L 427.855362 295.727324 
L 428.252056 302.889986 
L 428.64875 285.852871 
L 429.045444 304.03955 
L 429.442138 289.67001 
L 430.632221 304.393261 
L 431.42561 295.108328 
L 431.822304 321.047189 
L 432.218998 307.606143 
L 432.615692 304.658545 
L 433.012386 328.976227 
L 433.409081 315.137255 
L 433.805775 279.147086 
L 434.202469 302.772083 
L 434.599163 307.547191 
L 434.995857 287.341408 
L 435.392552 286.221321 
L 435.789246 302.492061 
L 436.18594 303.464768 
L 436.582634 308.608326 
L 436.979329 306.08813 
L 437.376023 305.144899 
L 437.772717 291.217499 
L 438.169411 282.065208 
L 438.566105 289.581582 
L 438.9628 287.297194 
L 439.359494 275.88999 
L 439.756188 286.987696 
L 440.152882 308.151449 
L 440.549576 291.394355 
L 441.342965 283.966408 
L 441.739659 303.199484 
L 442.533048 283.200033 
L 442.929742 293.501887 
L 443.326436 288.594137 
L 443.72313 289.773176 
L 444.119824 310.200029 
L 444.516519 285.189662 
L 444.913213 289.581582 
L 445.309907 289.183657 
L 445.706601 284.83595 
L 446.49999 294.828306 
L 446.896684 319.367058 
L 447.293378 300.399266 
L 447.690072 313.78136 
L 448.086767 300.915096 
L 448.483461 263.790101 
L 448.880155 320.501883 
L 449.673543 296.405271 
L 450.070238 278.572304 
L 450.466932 274.504619 
L 450.863626 255.639993 
L 451.26032 285.926561 
L 451.657014 281.947304 
L 452.053709 284.76226 
L 452.450403 286.280273 
L 452.847097 268.6389 
L 453.243791 256.362155 
L 453.640486 272.087589 
L 454.03718 295.874704 
L 454.433874 304.658545 
L 455.227262 282.006256 
L 456.020651 309.138894 
L 456.417345 299.853961 
L 456.814039 273.517174 
L 457.210733 262.566848 
L 457.607428 264.733333 
L 458.400816 301.165642 
L 458.79751 308.903086 
L 459.194205 304.172191 
L 459.590899 264.143813 
L 460.384287 302.138349 
L 460.780981 275.256257 
L 461.177676 303.951122 
L 461.57437 297.274813 
L 461.971064 282.831583 
L 462.367758 312.587583 
L 463.161147 259.899272 
L 463.557841 279.530274 
L 463.557841 279.530274 
" clip-path="url(#p09d138fb81)" style="fill: none; stroke: #2ca02c; stroke-width: 2; stroke-linecap: square"/>
   </g>
   <g id="line2d_19">
    <path d="M 57.739659 339.838125 
L 138.665279 339.736887 
L 142.235527 339.512775 
L 144.615692 339.181177 
L 146.599163 338.712971 
L 148.582634 337.992427 
L 150.169411 337.179511 
L 151.756188 336.112502 
L 153.342965 334.758804 
L 154.929742 333.100803 
L 156.516519 331.143448 
L 158.49999 328.331021 
L 162.070238 322.731968 
L 164.450403 319.214175 
L 166.03718 317.264039 
L 167.227262 316.112558 
L 168.417345 315.284255 
L 169.210733 314.930519 
L 170.004122 314.74439 
L 170.79751 314.729684 
L 171.590899 314.886715 
L 172.384287 315.212293 
L 173.57437 316.001389 
L 174.764452 317.118824 
L 175.954535 318.515914 
L 177.541312 320.71292 
L 180.318171 325.036874 
L 183.491725 329.874469 
L 185.475196 332.479848 
L 187.061973 334.240114 
L 188.64875 335.694871 
L 190.235527 336.854905 
L 191.822304 337.748595 
L 193.409081 338.414156 
L 195.392552 338.989242 
L 197.772717 339.406928 
L 200.549576 339.657199 
L 204.913213 339.799163 
L 215.623957 339.837752 
L 251.326436 339.739118 
L 254.896684 339.518843 
L 257.276849 339.193157 
L 259.26032 338.732773 
L 261.243791 338.022745 
L 262.830568 337.219331 
L 264.417345 336.163201 
L 266.004122 334.821342 
L 267.590899 333.175471 
L 269.177676 331.229623 
L 271.161147 328.42901 
L 274.731395 322.835693 
L 277.11156 319.301891 
L 278.698337 317.333732 
L 279.888419 316.165993 
L 281.078502 315.319322 
L 282.268585 314.831472 
L 283.061973 314.717212 
L 283.855362 314.774941 
L 284.64875 315.003464 
L 285.838833 315.655352 
L 287.028915 316.650763 
L 288.218998 317.945751 
L 289.805775 320.041853 
L 292.18594 323.670285 
L 296.152882 329.781903 
L 298.136353 332.400736 
L 299.72313 334.173017 
L 301.309907 335.639813 
L 302.896684 336.81115 
L 304.483461 337.714893 
L 306.070238 338.389267 
L 308.053709 338.973723 
L 310.433874 339.398797 
L 313.210733 339.653455 
L 317.57437 339.798172 
L 328.285114 339.837741 
L 363.987593 339.741501 
L 367.557841 339.525321 
L 370.3347 339.130073 
L 372.318171 338.632972 
L 373.904948 338.050065 
L 375.491725 337.257111 
L 377.078502 336.213361 
L 378.665279 334.885211 
L 380.252056 333.25188 
L 381.838833 331.317344 
L 383.822304 328.527973 
L 386.995857 323.565794 
L 389.376023 319.948165 
L 390.9628 317.866517 
L 392.152882 316.585878 
L 393.342965 315.607363 
L 394.533048 314.974322 
L 395.326436 314.759097 
L 396.119824 314.715507 
L 396.913213 314.845518 
L 397.706601 315.144846 
L 398.896684 315.897016 
L 400.086767 316.981693 
L 401.276849 318.351325 
L 402.863626 320.519984 
L 405.640486 324.82649 
L 408.814039 329.687025 
L 410.79751 332.320959 
L 412.384287 334.107147 
L 413.971064 335.586468 
L 415.557841 336.768932 
L 417.144618 337.682482 
L 418.731395 338.365119 
L 420.714866 338.957689 
L 423.095031 339.389565 
L 425.87189 339.649309 
L 430.235527 339.797259 
L 440.549576 339.837641 
L 463.557841 339.838125 
L 463.557841 339.838125 
" clip-path="url(#p09d138fb81)" style="fill: none; stroke: #d62728; stroke-width: 2; stroke-linecap: square"/>
   </g>
   <g id="patch_3">
    <path d="M 37.44875 354.958125 
L 37.44875 22.318125 
" style="fill: none; stroke: #000000; stroke-width: 0.8; stroke-linejoin: miter; stroke-linecap: square"/>
   </g>
   <g id="patch_4">
    <path d="M 483.84875 354.958125 
L 483.84875 22.318125 
" style="fill: none; stroke: #000000; stroke-width: 0.8; stroke-linejoin: miter; stroke-linecap: square"/>
   </g>
   <g id="patch_5">
    <path d="M 37.44875 354.958125 
L 483.84875 354.958125 
" style="fill: none; stroke: #000000; stroke-width: 0.8; stroke-linejoin: miter; stroke-linecap: square"/>
   </g>
   <g id="patch_6">
    <path d="M 37.44875 22.318125 
L 483.84875 22.318125 
" style="fill: none; stroke: #000000; stroke-width: 0.8; stroke-linejoin: miter; stroke-linecap: square"/>
   </g>
   <g id="text_18">
    <!-- Collection of 4 signals -->
    <g transform="translate(194.775313 16.318125) scale(0.12 -0.12)">
     <defs>
      <path id="DejaVuSans-43" d="M 4122 4306 
L 4122 3641 
Q 3803 3938 3442 4084 
Q 3081 4231 2675 4231 
Q 1875 4231 1450 3742 
Q 1025 3253 1025 2328 
Q 1025 1406 1450 917 
Q 1875 428 2675 428 
Q 3081 428 3442 575 
Q 3803 722 4122 1019 
L 4122 359 
Q 3791 134 3420 21 
Q 3050 -91 2638 -91 
Q 1578 -91 968 557 
Q 359 1206 359 2328 
Q 359 3453 968 4101 
Q 1578 4750 2638 4750 
Q 3056 4750 3426 4639 
Q 3797 4528 4122 4306 
z
" transform="scale(0.015625)"/>
      <path id="DejaVuSans-6f" d="M 1959 3097 
Q 1497 3097 1228 2736 
Q 959 2375 959 1747 
Q 959 1119 1226 758 
Q 1494 397 1959 397 
Q 2419 397 2687 759 
Q 2956 1122 2956 1747 
Q 2956 2369 2687 2733 
Q 2419 3097 1959 3097 
z
M 1959 3584 
Q 2709 3584 3137 3096 
Q 3566 2609 3566 1747 
Q 3566 888 3137 398 
Q 2709 -91 1959 -91 
Q 1206 -91 779 398 
Q 353 888 353 1747 
Q 353 2609 779 3096 
Q 1206 3584 1959 3584 
z
" transform="scale(0.015625)"/>
      <path id="DejaVuSans-6c" d="M 603 4863 
L 1178 4863 
L 1178 0 
L 603 0 
L 603 4863 
z
" transform="scale(0.015625)"/>
      <path id="DejaVuSans-63" d="M 3122 3366 
L 3122 2828 
Q 2878 2963 2633 3030 
Q 2388 3097 2138 3097 
Q 1578 3097 1268 2742 
Q 959 2388 959 1747 
Q 959 1106 1268 751 
Q 1578 397 2138 397 
Q 2388 397 2633 464 
Q 2878 531 3122 666 
L 3122 134 
Q 2881 22 2623 -34 
Q 2366 -91 2075 -91 
Q 1284 -91 818 406 
Q 353 903 353 1747 
Q 353 2603 823 3093 
Q 1294 3584 2113 3584 
Q 2378 3584 2631 3529 
Q 2884 3475 3122 3366 
z
" transform="scale(0.015625)"/>
      <path id="DejaVuSans-66" d="M 2375 4863 
L 2375 4384 
L 1825 4384 
Q 1516 4384 1395 4259 
Q 1275 4134 1275 3809 
L 1275 3500 
L 2222 3500 
L 2222 3053 
L 1275 3053 
L 1275 0 
L 697 0 
L 697 3053 
L 147 3053 
L 147 3500 
L 697 3500 
L 697 3744 
Q 697 4328 969 4595 
Q 1241 4863 1831 4863 
L 2375 4863 
z
" transform="scale(0.015625)"/>
      <path id="DejaVuSans-67" d="M 2906 1791 
Q 2906 2416 2648 2759 
Q 2391 3103 1925 3103 
Q 1463 3103 1205 2759 
Q 947 2416 947 1791 
Q 947 1169 1205 825 
Q 1463 481 1925 481 
Q 2391 481 2648 825 
Q 2906 1169 2906 1791 
z
M 3481 434 
Q 3481 -459 3084 -895 
Q 2688 -1331 1869 -1331 
Q 1566 -1331 1297 -1286 
Q 1028 -1241 775 -1147 
L 775 -588 
Q 1028 -725 1275 -790 
Q 1522 -856 1778 -856 
Q 2344 -856 2625 -561 
Q 2906 -266 2906 331 
L 2906 616 
Q 2728 306 2450 153 
Q 2172 0 1784 0 
Q 1141 0 747 490 
Q 353 981 353 1791 
Q 353 2603 747 3093 
Q 1141 3584 1784 3584 
Q 2172 3584 2450 3431 
Q 2728 3278 2906 2969 
L 2906 3500 
L 3481 3500 
L 3481 434 
z
" transform="scale(0.015625)"/>
     </defs>
     <use xlink:href="#DejaVuSans-43"/>
     <use xlink:href="#DejaVuSans-6f" transform="translate(69.824219 0)"/>
     <use xlink:href="#DejaVuSans-6c" transform="translate(131.005859 0)"/>
     <use xlink:href="#DejaVuSans-6c" transform="translate(158.789062 0)"/>
     <use xlink:href="#DejaVuSans-65" transform="translate(186.572266 0)"/>
     <use xlink:href="#DejaVuSans-63" transform="translate(248.095703 0)"/>
     <use xlink:href="#DejaVuSans-74" transform="translate(303.076172 0)"/>
     <use xlink:href="#DejaVuSans-69" transform="translate(342.285156 0)"/>
     <use xlink:href="#DejaVuSans-6f" transform="translate(370.068359 0)"/>
     <use xlink:href="#DejaVuSans-6e" transform="translate(431.25 0)"/>
     <use xlink:href="#DejaVuSans-20" transform="translate(494.628906 0)"/>
     <use xlink:href="#DejaVuSans-6f" transform="translate(526.416016 0)"/>
     <use xlink:href="#DejaVuSans-66" transform="translate(587.597656 0)"/>
     <use xlink:href="#DejaVuSans-20" transform="translate(622.802734 0)"/>
     <use xlink:href="#DejaVuSans-34" transform="translate(654.589844 0)"/>
     <use xlink:href="#DejaVuSans-20" transform="translate(718.212891 0)"/>
     <use xlink:href="#DejaVuSans-73" transform="translate(750 0)"/>
     <use xlink:href="#DejaVuSans-69" transform="translate(802.099609 0)"/>
     <use xlink:href="#DejaVuSans-67" transform="translate(829.882812 0)"/>
     <use xlink:href="#DejaVuSans-6e" transform="translate(893.359375 0)"/>
     <use xlink:href="#DejaVuSans-61" transform="translate(956.738281 0)"/>
     <use xlink:href="#DejaVuSans-6c" transform="translate(1018.017578 0)"/>
     <use xlink:href="#DejaVuSans-73" transform="translate(1045.800781 0)"/>
    </g>
   </g>
   <g id="legend_1">
    <g id="patch_7">
     <path d="M 45.84875 226.333125 
L 195.695 226.333125 
Q 198.095 226.333125 198.095 223.933125 
L 198.095 153.343125 
Q 198.095 150.943125 195.695 150.943125 
L 45.84875 150.943125 
Q 43.44875 150.943125 43.44875 153.343125 
L 43.44875 223.933125 
Q 43.44875 226.333125 45.84875 226.333125 
z
" style="fill: #ffffff; opacity: 0.8; stroke: #cccccc; stroke-linejoin: miter"/>
    </g>
    <g id="line2d_20">
     <path d="M 48.24875 160.66125 
L 60.24875 160.66125 
L 72.24875 160.66125 
" style="fill: none; stroke: #1f77b4; stroke-width: 2; stroke-linecap: square"/>
    </g>
    <g id="text_19">
     <!-- from_peaks -->
     <g transform="translate(81.84875 164.86125) scale(0.12 -0.12)">
      <defs>
       <path id="DejaVuSans-72" d="M 2631 2963 
Q 2534 3019 2420 3045 
Q 2306 3072 2169 3072 
Q 1681 3072 1420 2755 
Q 1159 2438 1159 1844 
L 1159 0 
L 581 0 
L 581 3500 
L 1159 3500 
L 1159 2956 
Q 1341 3275 1631 3429 
Q 1922 3584 2338 3584 
Q 2397 3584 2469 3576 
Q 2541 3569 2628 3553 
L 2631 2963 
z
" transform="scale(0.015625)"/>
       <path id="DejaVuSans-6d" d="M 3328 2828 
Q 3544 3216 3844 3400 
Q 4144 3584 4550 3584 
Q 5097 3584 5394 3201 
Q 5691 2819 5691 2113 
L 5691 0 
L 5113 0 
L 5113 2094 
Q 5113 2597 4934 2840 
Q 4756 3084 4391 3084 
Q 3944 3084 3684 2787 
Q 3425 2491 3425 1978 
L 3425 0 
L 2847 0 
L 2847 2094 
Q 2847 2600 2669 2842 
Q 2491 3084 2119 3084 
Q 1678 3084 1418 2786 
Q 1159 2488 1159 1978 
L 1159 0 
L 581 0 
L 581 3500 
L 1159 3500 
L 1159 2956 
Q 1356 3278 1631 3431 
Q 1906 3584 2284 3584 
Q 2666 3584 2933 3390 
Q 3200 3197 3328 2828 
z
" transform="scale(0.015625)"/>
       <path id="DejaVuSans-5f" d="M 3263 -1063 
L 3263 -1509 
L -63 -1509 
L -63 -1063 
L 3263 -1063 
z
" transform="scale(0.015625)"/>
       <path id="DejaVuSans-70" d="M 1159 525 
L 1159 -1331 
L 581 -1331 
L 581 3500 
L 1159 3500 
L 1159 2969 
Q 1341 3281 1617 3432 
Q 1894 3584 2278 3584 
Q 2916 3584 3314 3078 
Q 3713 2572 3713 1747 
Q 3713 922 3314 415 
Q 2916 -91 2278 -91 
Q 1894 -91 1617 61 
Q 1341 213 1159 525 
z
M 3116 1747 
Q 3116 2381 2855 2742 
Q 2594 3103 2138 3103 
Q 1681 3103 1420 2742 
Q 1159 2381 1159 1747 
Q 1159 1113 1420 752 
Q 1681 391 2138 391 
Q 2594 391 2855 752 
Q 3116 1113 3116 1747 
z
" transform="scale(0.015625)"/>
       <path id="DejaVuSans-6b" d="M 581 4863 
L 1159 4863 
L 1159 1991 
L 2875 3500 
L 3609 3500 
L 1753 1863 
L 3688 0 
L 2938 0 
L 1159 1709 
L 1159 0 
L 581 0 
L 581 4863 
z
" transform="scale(0.015625)"/>
      </defs>
      <use xlink:href="#DejaVuSans-66"/>
      <use xlink:href="#DejaVuSans-72" transform="translate(35.205078 0)"/>
      <use xlink:href="#DejaVuSans-6f" transform="translate(74.068359 0)"/>
      <use xlink:href="#DejaVuSans-6d" transform="translate(135.25 0)"/>
      <use xlink:href="#DejaVuSans-5f" transform="translate(232.662109 0)"/>
      <use xlink:href="#DejaVuSans-70" transform="translate(282.662109 0)"/>
      <use xlink:href="#DejaVuSans-65" transform="translate(346.138672 0)"/>
      <use xlink:href="#DejaVuSans-61" transform="translate(407.662109 0)"/>
      <use xlink:href="#DejaVuSans-6b" transform="translate(468.941406 0)"/>
      <use xlink:href="#DejaVuSans-73" transform="translate(526.851562 0)"/>
     </g>
    </g>
    <g id="line2d_21">
     <path d="M 48.24875 178.60875 
L 60.24875 178.60875 
L 72.24875 178.60875 
" style="fill: none; stroke: #ff7f0e; stroke-width: 2; stroke-linecap: square"/>
    </g>
    <g id="text_20">
     <!-- from_peaks+noise -->
     <g transform="translate(81.84875 182.80875) scale(0.12 -0.12)">
      <defs>
       <path id="DejaVuSans-2b" d="M 2944 4013 
L 2944 2272 
L 4684 2272 
L 4684 1741 
L 2944 1741 
L 2944 0 
L 2419 0 
L 2419 1741 
L 678 1741 
L 678 2272 
L 2419 2272 
L 2419 4013 
L 2944 4013 
z
" transform="scale(0.015625)"/>
      </defs>
      <use xlink:href="#DejaVuSans-66"/>
      <use xlink:href="#DejaVuSans-72" transform="translate(35.205078 0)"/>
      <use xlink:href="#DejaVuSans-6f" transform="translate(74.068359 0)"/>
      <use xlink:href="#DejaVuSans-6d" transform="translate(135.25 0)"/>
      <use xlink:href="#DejaVuSans-5f" transform="translate(232.662109 0)"/>
      <use xlink:href="#DejaVuSans-70" transform="translate(282.662109 0)"/>
      <use xlink:href="#DejaVuSans-65" transform="translate(346.138672 0)"/>
      <use xlink:href="#DejaVuSans-61" transform="translate(407.662109 0)"/>
      <use xlink:href="#DejaVuSans-6b" transform="translate(468.941406 0)"/>
      <use xlink:href="#DejaVuSans-73" transform="translate(526.851562 0)"/>
      <use xlink:href="#DejaVuSans-2b" transform="translate(578.951172 0)"/>
      <use xlink:href="#DejaVuSans-6e" transform="translate(662.740234 0)"/>
      <use xlink:href="#DejaVuSans-6f" transform="translate(726.119141 0)"/>
      <use xlink:href="#DejaVuSans-69" transform="translate(787.300781 0)"/>
      <use xlink:href="#DejaVuSans-73" transform="translate(815.083984 0)"/>
      <use xlink:href="#DejaVuSans-65" transform="translate(867.183594 0)"/>
     </g>
    </g>
    <g id="line2d_22">
     <path d="M 48.24875 196.55625 
L 60.24875 196.55625 
L 72.24875 196.55625 
" style="fill: none; stroke: #2ca02c; stroke-width: 2; stroke-linecap: square"/>
    </g>
    <g id="text_21">
     <!-- from_peaks+noise -->
     <g transform="translate(81.84875 200.75625) scale(0.12 -0.12)">
      <use xlink:href="#DejaVuSans-66"/>
      <use xlink:href="#DejaVuSans-72" transform="translate(35.205078 0)"/>
      <use xlink:href="#DejaVuSans-6f" transform="translate(74.068359 0)"/>
      <use xlink:href="#DejaVuSans-6d" transform="translate(135.25 0)"/>
      <use xlink:href="#DejaVuSans-5f" transform="translate(232.662109 0)"/>
      <use xlink:href="#DejaVuSans-70" transform="translate(282.662109 0)"/>
      <use xlink:href="#DejaVuSans-65" transform="translate(346.138672 0)"/>
      <use xlink:href="#DejaVuSans-61" transform="translate(407.662109 0)"/>
      <use xlink:href="#DejaVuSans-6b" transform="translate(468.941406 0)"/>
      <use xlink:href="#DejaVuSans-73" transform="translate(526.851562 0)"/>
      <use xlink:href="#DejaVuSans-2b" transform="translate(578.951172 0)"/>
      <use xlink:href="#DejaVuSans-6e" transform="translate(662.740234 0)"/>
      <use xlink:href="#DejaVuSans-6f" transform="translate(726.119141 0)"/>
      <use xlink:href="#DejaVuSans-69" transform="translate(787.300781 0)"/>
      <use xlink:href="#DejaVuSans-73" transform="translate(815.083984 0)"/>
      <use xlink:href="#DejaVuSans-65" transform="translate(867.183594 0)"/>
     </g>
    </g>
    <g id="line2d_23">
     <path d="M 48.24875 214.50375 
L 60.24875 214.50375 
L 72.24875 214.50375 
" style="fill: none; stroke: #d62728; stroke-width: 2; stroke-linecap: square"/>
    </g>
    <g id="text_22">
     <!-- from_peaks -->
     <g transform="translate(81.84875 218.70375) scale(0.12 -0.12)">
      <use xlink:href="#DejaVuSans-66"/>
      <use xlink:href="#DejaVuSans-72" transform="translate(35.205078 0)"/>
      <use xlink:href="#DejaVuSans-6f" transform="translate(74.068359 0)"/>
      <use xlink:href="#DejaVuSans-6d" transform="translate(135.25 0)"/>
      <use xlink:href="#DejaVuSans-5f" transform="translate(232.662109 0)"/>
      <use xlink:href="#DejaVuSans-70" transform="translate(282.662109 0)"/>
      <use xlink:href="#DejaVuSans-65" transform="translate(346.138672 0)"/>
      <use xlink:href="#DejaVuSans-61" transform="translate(407.662109 0)"/>
      <use xlink:href="#DejaVuSans-6b" transform="translate(468.941406 0)"/>
      <use xlink:href="#DejaVuSans-73" transform="translate(526.851562 0)"/>
     </g>
    </g>
   </g>
  </g>
 </g>
 <defs>
  <clipPath id="p09d138fb81">
   <rect x="37.44875" y="22.318125" width="446.4" height="332.64"/>
  </clipPath>
 </defs>
</svg>
