<?xml version="1.0" encoding="utf-8" standalone="no"?>
<!DOCTYPE svg PUBLIC "-//W3C//DTD SVG 1.1//EN"
  "http://www.w3.org/Graphics/SVG/1.1/DTD/svg11.dtd">
<svg xmlns:xlink="http://www.w3.org/1999/xlink" width="491.04875pt" height="396.385625pt" viewBox="0 0 491.04875 396.385625" xmlns="http://www.w3.org/2000/svg" version="1.1">
 <metadata>
  <rdf:RDF xmlns:dc="http://purl.org/dc/elements/1.1/" xmlns:cc="http://creativecommons.org/ns#" xmlns:rdf="http://www.w3.org/1999/02/22-rdf-syntax-ns#">
   <cc:Work>
    <dc:type rdf:resource="http://purl.org/dc/dcmitype/StillImage"/>
    <dc:date>2025-06-10T23:40:54.197724</dc:date>
    <dc:format>image/svg+xml</dc:format>
    <dc:creator>
     <cc:Agent>
      <dc:title>Matplotlib v3.10.0, https://matplotlib.org/</dc:title>
     </cc:Agent>
    </dc:creator>
   </cc:Work>
  </rdf:RDF>
 </metadata>
 <defs>
  <style type="text/css">*{stroke-linejoin: round; stroke-linecap: butt}</style>
 </defs>
 <g id="figure_1">
  <g id="patch_1">
   <path d="M 0 396.385625 
L 491.04875 396.385625 
L 491.04875 0 
L 0 0 
z
" style="fill: #ffffff"/>
  </g>
  <g id="axes_1">
   <g id="patch_2">
    <path d="M 37.44875 354.958125 
L 483.84875 354.958125 
L 483.84875 22.318125 
L 37.44875 22.318125 
z
" style="fill: #ffffff"/>
   </g>
   <g id="matplotlib.axis_1">
    <g id="xtick_1">
     <g id="line2d_1">
      <defs>
       <path id="m37315a9655" d="M 0 0 
L 0 3.5 
" style="stroke: #000000; stroke-width: 0.8"/>
      </defs>
      <g>
       <use xlink:href="#m37315a9655" x="57.739659" y="354.958125" style="stroke: #000000; stroke-width: 0.8"/>
      </g>
     </g>
     <g id="text_1">
      <!-- 0 -->
      <g transform="translate(53.922159 371.07625) scale(0.12 -0.12)">
       <defs>
        <path id="DejaVuSans-30" d="M 2034 4250 
Q 1547 4250 1301 3770 
Q 1056 3291 1056 2328 
Q 1056 1369 1301 889 
Q 1547 409 2034 409 
Q 2525 409 2770 889 
Q 3016 1369 3016 2328 
Q 3016 3291 2770 3770 
Q 2525 4250 2034 4250 
z
M 2034 4750 
Q 2819 4750 3233 4129 
Q 3647 3509 3647 2328 
Q 3647 1150 3233 529 
Q 2819 -91 2034 -91 
Q 1250 -91 836 529 
Q 422 1150 422 2328 
Q 422 3509 836 4129 
Q 1250 4750 2034 4750 
z
" transform="scale(0.015625)"/>
       </defs>
       <use xlink:href="#DejaVuSans-30"/>
      </g>
     </g>
    </g>
    <g id="xtick_2">
     <g id="line2d_2">
      <g>
       <use xlink:href="#m37315a9655" x="114.103295" y="354.958125" style="stroke: #000000; stroke-width: 0.8"/>
      </g>
     </g>
     <g id="text_2">
      <!-- 5 -->
      <g transform="translate(110.285795 371.07625) scale(0.12 -0.12)">
       <defs>
        <path id="DejaVuSans-35" d="M 691 4666 
L 3169 4666 
L 3169 4134 
L 1269 4134 
L 1269 2991 
Q 1406 3038 1543 3061 
Q 1681 3084 1819 3084 
Q 2600 3084 3056 2656 
Q 3513 2228 3513 1497 
Q 3513 744 3044 326 
Q 2575 -91 1722 -91 
Q 1428 -91 1123 -41 
Q 819 9 494 109 
L 494 744 
Q 775 591 1075 516 
Q 1375 441 1709 441 
Q 2250 441 2565 725 
Q 2881 1009 2881 1497 
Q 2881 1984 2565 2268 
Q 2250 2553 1709 2553 
Q 1456 2553 1204 2497 
Q 953 2441 691 2322 
L 691 4666 
z
" transform="scale(0.015625)"/>
       </defs>
       <use xlink:href="#DejaVuSans-35"/>
      </g>
     </g>
    </g>
    <g id="xtick_3">
     <g id="line2d_3">
      <g>
       <use xlink:href="#m37315a9655" x="170.466932" y="354.958125" style="stroke: #000000; stroke-width: 0.8"/>
      </g>
     </g>
     <g id="text_3">
      <!-- 10 -->
      <g transform="translate(162.831932 371.07625) scale(0.12 -0.12)">
       <defs>
        <path id="DejaVuSans-31" d="M 794 531 
L 1825 531 
L 1825 4091 
L 703 3866 
L 703 4441 
L 1819 4666 
L 2450 4666 
L 2450 531 
L 3481 531 
L 3481 0 
L 794 0 
L 794 531 
z
" transform="scale(0.015625)"/>
       </defs>
       <use xlink:href="#DejaVuSans-31"/>
       <use xlink:href="#DejaVuSans-30" transform="translate(63.623047 0)"/>
      </g>
     </g>
    </g>
    <g id="xtick_4">
     <g id="line2d_4">
      <g>
       <use xlink:href="#m37315a9655" x="226.830568" y="354.958125" style="stroke: #000000; stroke-width: 0.8"/>
      </g>
     </g>
     <g id="text_4">
      <!-- 15 -->
      <g transform="translate(219.195568 371.07625) scale(0.12 -0.12)">
       <use xlink:href="#DejaVuSans-31"/>
       <use xlink:href="#DejaVuSans-35" transform="translate(63.623047 0)"/>
      </g>
     </g>
    </g>
    <g id="xtick_5">
     <g id="line2d_5">
      <g>
       <use xlink:href="#m37315a9655" x="283.194205" y="354.958125" style="stroke: #000000; stroke-width: 0.8"/>
      </g>
     </g>
     <g id="text_5">
      <!-- 20 -->
      <g transform="translate(275.559205 371.07625) scale(0.12 -0.12)">
       <defs>
        <path id="DejaVuSans-32" d="M 1228 531 
L 3431 531 
L 3431 0 
L 469 0 
L 469 531 
Q 828 903 1448 1529 
Q 2069 2156 2228 2338 
Q 2531 2678 2651 2914 
Q 2772 3150 2772 3378 
Q 2772 3750 2511 3984 
Q 2250 4219 1831 4219 
Q 1534 4219 1204 4116 
Q 875 4013 500 3803 
L 500 4441 
Q 881 4594 1212 4672 
Q 1544 4750 1819 4750 
Q 2544 4750 2975 4387 
Q 3406 4025 3406 3419 
Q 3406 3131 3298 2873 
Q 3191 2616 2906 2266 
Q 2828 2175 2409 1742 
Q 1991 1309 1228 531 
z
" transform="scale(0.015625)"/>
       </defs>
       <use xlink:href="#DejaVuSans-32"/>
       <use xlink:href="#DejaVuSans-30" transform="translate(63.623047 0)"/>
      </g>
     </g>
    </g>
    <g id="xtick_6">
     <g id="line2d_6">
      <g>
       <use xlink:href="#m37315a9655" x="339.557841" y="354.958125" style="stroke: #000000; stroke-width: 0.8"/>
      </g>
     </g>
     <g id="text_6">
      <!-- 25 -->
      <g transform="translate(331.922841 371.07625) scale(0.12 -0.12)">
       <use xlink:href="#DejaVuSans-32"/>
       <use xlink:href="#DejaVuSans-35" transform="translate(63.623047 0)"/>
      </g>
     </g>
    </g>
    <g id="xtick_7">
     <g id="line2d_7">
      <g>
       <use xlink:href="#m37315a9655" x="395.921477" y="354.958125" style="stroke: #000000; stroke-width: 0.8"/>
      </g>
     </g>
     <g id="text_7">
      <!-- 30 -->
      <g transform="translate(388.286477 371.07625) scale(0.12 -0.12)">
       <defs>
        <path id="DejaVuSans-33" d="M 2597 2516 
Q 3050 2419 3304 2112 
Q 3559 1806 3559 1356 
Q 3559 666 3084 287 
Q 2609 -91 1734 -91 
Q 1441 -91 1130 -33 
Q 819 25 488 141 
L 488 750 
Q 750 597 1062 519 
Q 1375 441 1716 441 
Q 2309 441 2620 675 
Q 2931 909 2931 1356 
Q 2931 1769 2642 2001 
Q 2353 2234 1838 2234 
L 1294 2234 
L 1294 2753 
L 1863 2753 
Q 2328 2753 2575 2939 
Q 2822 3125 2822 3475 
Q 2822 3834 2567 4026 
Q 2313 4219 1838 4219 
Q 1578 4219 1281 4162 
Q 984 4106 628 3988 
L 628 4550 
Q 988 4650 1302 4700 
Q 1616 4750 1894 4750 
Q 2613 4750 3031 4423 
Q 3450 4097 3450 3541 
Q 3450 3153 3228 2886 
Q 3006 2619 2597 2516 
z
" transform="scale(0.015625)"/>
       </defs>
       <use xlink:href="#DejaVuSans-33"/>
       <use xlink:href="#DejaVuSans-30" transform="translate(63.623047 0)"/>
      </g>
     </g>
    </g>
    <g id="xtick_8">
     <g id="line2d_8">
      <g>
       <use xlink:href="#m37315a9655" x="452.285114" y="354.958125" style="stroke: #000000; stroke-width: 0.8"/>
      </g>
     </g>
     <g id="text_8">
      <!-- 35 -->
      <g transform="translate(444.650114 371.07625) scale(0.12 -0.12)">
       <use xlink:href="#DejaVuSans-33"/>
       <use xlink:href="#DejaVuSans-35" transform="translate(63.623047 0)"/>
      </g>
     </g>
    </g>
    <g id="text_9">
     <!-- index [-] -->
     <g transform="translate(235.47875 386.69) scale(0.12 -0.12)">
      <defs>
       <path id="DejaVuSans-69" d="M 603 3500 
L 1178 3500 
L 1178 0 
L 603 0 
L 603 3500 
z
M 603 4863 
L 1178 4863 
L 1178 4134 
L 603 4134 
L 603 4863 
z
" transform="scale(0.015625)"/>
       <path id="DejaVuSans-6e" d="M 3513 2113 
L 3513 0 
L 2938 0 
L 2938 2094 
Q 2938 2591 2744 2837 
Q 2550 3084 2163 3084 
Q 1697 3084 1428 2787 
Q 1159 2491 1159 1978 
L 1159 0 
L 581 0 
L 581 3500 
L 1159 3500 
L 1159 2956 
Q 1366 3272 1645 3428 
Q 1925 3584 2291 3584 
Q 2894 3584 3203 3211 
Q 3513 2838 3513 2113 
z
" transform="scale(0.015625)"/>
       <path id="DejaVuSans-64" d="M 2906 2969 
L 2906 4863 
L 3481 4863 
L 3481 0 
L 2906 0 
L 2906 525 
Q 2725 213 2448 61 
Q 2172 -91 1784 -91 
Q 1150 -91 751 415 
Q 353 922 353 1747 
Q 353 2572 751 3078 
Q 1150 3584 1784 3584 
Q 2172 3584 2448 3432 
Q 2725 3281 2906 2969 
z
M 947 1747 
Q 947 1113 1208 752 
Q 1469 391 1925 391 
Q 2381 391 2643 752 
Q 2906 1113 2906 1747 
Q 2906 2381 2643 2742 
Q 2381 3103 1925 3103 
Q 1469 3103 1208 2742 
Q 947 2381 947 1747 
z
" transform="scale(0.015625)"/>
       <path id="DejaVuSans-65" d="M 3597 1894 
L 3597 1613 
L 953 1613 
Q 991 1019 1311 708 
Q 1631 397 2203 397 
Q 2534 397 2845 478 
Q 3156 559 3463 722 
L 3463 178 
Q 3153 47 2828 -22 
Q 2503 -91 2169 -91 
Q 1331 -91 842 396 
Q 353 884 353 1716 
Q 353 2575 817 3079 
Q 1281 3584 2069 3584 
Q 2775 3584 3186 3129 
Q 3597 2675 3597 1894 
z
M 3022 2063 
Q 3016 2534 2758 2815 
Q 2500 3097 2075 3097 
Q 1594 3097 1305 2825 
Q 1016 2553 972 2059 
L 3022 2063 
z
" transform="scale(0.015625)"/>
       <path id="DejaVuSans-78" d="M 3513 3500 
L 2247 1797 
L 3578 0 
L 2900 0 
L 1881 1375 
L 863 0 
L 184 0 
L 1544 1831 
L 300 3500 
L 978 3500 
L 1906 2253 
L 2834 3500 
L 3513 3500 
z
" transform="scale(0.015625)"/>
       <path id="DejaVuSans-20" transform="scale(0.015625)"/>
       <path id="DejaVuSans-5b" d="M 550 4863 
L 1875 4863 
L 1875 4416 
L 1125 4416 
L 1125 -397 
L 1875 -397 
L 1875 -844 
L 550 -844 
L 550 4863 
z
" transform="scale(0.015625)"/>
       <path id="DejaVuSans-2d" d="M 313 2009 
L 1997 2009 
L 1997 1497 
L 313 1497 
L 313 2009 
z
" transform="scale(0.015625)"/>
       <path id="DejaVuSans-5d" d="M 1947 4863 
L 1947 -844 
L 622 -844 
L 622 -397 
L 1369 -397 
L 1369 4416 
L 622 4416 
L 622 4863 
L 1947 4863 
z
" transform="scale(0.015625)"/>
      </defs>
      <use xlink:href="#DejaVuSans-69"/>
      <use xlink:href="#DejaVuSans-6e" transform="translate(27.783203 0)"/>
      <use xlink:href="#DejaVuSans-64" transform="translate(91.162109 0)"/>
      <use xlink:href="#DejaVuSans-65" transform="translate(154.638672 0)"/>
      <use xlink:href="#DejaVuSans-78" transform="translate(214.412109 0)"/>
      <use xlink:href="#DejaVuSans-20" transform="translate(273.591797 0)"/>
      <use xlink:href="#DejaVuSans-5b" transform="translate(305.378906 0)"/>
      <use xlink:href="#DejaVuSans-2d" transform="translate(344.392578 0)"/>
      <use xlink:href="#DejaVuSans-5d" transform="translate(380.476562 0)"/>
     </g>
    </g>
   </g>
   <g id="matplotlib.axis_2">
    <g id="ytick_1">
     <g id="line2d_9">
      <defs>
       <path id="mc101b40273" d="M 0 0 
L -3.5 0 
" style="stroke: #000000; stroke-width: 0.8"/>
      </defs>
      <g>
       <use xlink:href="#mc101b40273" x="37.44875" y="339.838125" style="stroke: #000000; stroke-width: 0.8"/>
      </g>
     </g>
     <g id="text_10">
      <!-- 0 -->
      <g transform="translate(22.81375 344.397187) scale(0.12 -0.12)">
       <use xlink:href="#DejaVuSans-30"/>
      </g>
     </g>
    </g>
    <g id="ytick_2">
     <g id="line2d_10">
      <g>
       <use xlink:href="#mc101b40273" x="37.44875" y="289.567174" style="stroke: #000000; stroke-width: 0.8"/>
      </g>
     </g>
     <g id="text_11">
      <!-- 1 -->
      <g transform="translate(22.81375 294.126237) scale(0.12 -0.12)">
       <use xlink:href="#DejaVuSans-31"/>
      </g>
     </g>
    </g>
    <g id="ytick_3">
     <g id="line2d_11">
      <g>
       <use xlink:href="#mc101b40273" x="37.44875" y="239.296224" style="stroke: #000000; stroke-width: 0.8"/>
      </g>
     </g>
     <g id="text_12">
      <!-- 2 -->
      <g transform="translate(22.81375 243.855286) scale(0.12 -0.12)">
       <use xlink:href="#DejaVuSans-32"/>
      </g>
     </g>
    </g>
    <g id="ytick_4">
     <g id="line2d_12">
      <g>
       <use xlink:href="#mc101b40273" x="37.44875" y="189.025273" style="stroke: #000000; stroke-width: 0.8"/>
      </g>
     </g>
     <g id="text_13">
      <!-- 3 -->
      <g transform="translate(22.81375 193.584335) scale(0.12 -0.12)">
       <use xlink:href="#DejaVuSans-33"/>
      </g>
     </g>
    </g>
    <g id="ytick_5">
     <g id="line2d_13">
      <g>
       <use xlink:href="#mc101b40273" x="37.44875" y="138.754322" style="stroke: #000000; stroke-width: 0.8"/>
      </g>
     </g>
     <g id="text_14">
      <!-- 4 -->
      <g transform="translate(22.81375 143.313385) scale(0.12 -0.12)">
       <defs>
        <path id="DejaVuSans-34" d="M 2419 4116 
L 825 1625 
L 2419 1625 
L 2419 4116 
z
M 2253 4666 
L 3047 4666 
L 3047 1625 
L 3713 1625 
L 3713 1100 
L 3047 1100 
L 3047 0 
L 2419 0 
L 2419 1100 
L 313 1100 
L 313 1709 
L 2253 4666 
z
" transform="scale(0.015625)"/>
       </defs>
       <use xlink:href="#DejaVuSans-34"/>
      </g>
     </g>
    </g>
    <g id="ytick_6">
     <g id="line2d_14">
      <g>
       <use xlink:href="#mc101b40273" x="37.44875" y="88.483371" style="stroke: #000000; stroke-width: 0.8"/>
      </g>
     </g>
     <g id="text_15">
      <!-- 5 -->
      <g transform="translate(22.81375 93.042434) scale(0.12 -0.12)">
       <use xlink:href="#DejaVuSans-35"/>
      </g>
     </g>
    </g>
    <g id="ytick_7">
     <g id="line2d_15">
      <g>
       <use xlink:href="#mc101b40273" x="37.44875" y="38.212421" style="stroke: #000000; stroke-width: 0.8"/>
      </g>
     </g>
     <g id="text_16">
      <!-- 6 -->
      <g transform="translate(22.81375 42.771483) scale(0.12 -0.12)">
       <defs>
        <path id="DejaVuSans-36" d="M 2113 2584 
Q 1688 2584 1439 2293 
Q 1191 2003 1191 1497 
Q 1191 994 1439 701 
Q 1688 409 2113 409 
Q 2538 409 2786 701 
Q 3034 994 3034 1497 
Q 3034 2003 2786 2293 
Q 2538 2584 2113 2584 
z
M 3366 4563 
L 3366 3988 
Q 3128 4100 2886 4159 
Q 2644 4219 2406 4219 
Q 1781 4219 1451 3797 
Q 1122 3375 1075 2522 
Q 1259 2794 1537 2939 
Q 1816 3084 2150 3084 
Q 2853 3084 3261 2657 
Q 3669 2231 3669 1497 
Q 3669 778 3244 343 
Q 2819 -91 2113 -91 
Q 1303 -91 875 529 
Q 447 1150 447 2328 
Q 447 3434 972 4092 
Q 1497 4750 2381 4750 
Q 2619 4750 2861 4703 
Q 3103 4656 3366 4563 
z
" transform="scale(0.015625)"/>
       </defs>
       <use xlink:href="#DejaVuSans-36"/>
      </g>
     </g>
    </g>
    <g id="text_17">
     <!-- intensity [a.u.] -->
     <g transform="translate(16.318125 232.531875) rotate(-90) scale(0.12 -0.12)">
      <defs>
       <path id="DejaVuSans-74" d="M 1172 4494 
L 1172 3500 
L 2356 3500 
L 2356 3053 
L 1172 3053 
L 1172 1153 
Q 1172 725 1289 603 
Q 1406 481 1766 481 
L 2356 481 
L 2356 0 
L 1766 0 
Q 1100 0 847 248 
Q 594 497 594 1153 
L 594 3053 
L 172 3053 
L 172 3500 
L 594 3500 
L 594 4494 
L 1172 4494 
z
" transform="scale(0.015625)"/>
       <path id="DejaVuSans-73" d="M 2834 3397 
L 2834 2853 
Q 2591 2978 2328 3040 
Q 2066 3103 1784 3103 
Q 1356 3103 1142 2972 
Q 928 2841 928 2578 
Q 928 2378 1081 2264 
Q 1234 2150 1697 2047 
L 1894 2003 
Q 2506 1872 2764 1633 
Q 3022 1394 3022 966 
Q 3022 478 2636 193 
Q 2250 -91 1575 -91 
Q 1294 -91 989 -36 
Q 684 19 347 128 
L 347 722 
Q 666 556 975 473 
Q 1284 391 1588 391 
Q 1994 391 2212 530 
Q 2431 669 2431 922 
Q 2431 1156 2273 1281 
Q 2116 1406 1581 1522 
L 1381 1569 
Q 847 1681 609 1914 
Q 372 2147 372 2553 
Q 372 3047 722 3315 
Q 1072 3584 1716 3584 
Q 2034 3584 2315 3537 
Q 2597 3491 2834 3397 
z
" transform="scale(0.015625)"/>
       <path id="DejaVuSans-79" d="M 2059 -325 
Q 1816 -950 1584 -1140 
Q 1353 -1331 966 -1331 
L 506 -1331 
L 506 -850 
L 844 -850 
Q 1081 -850 1212 -737 
Q 1344 -625 1503 -206 
L 1606 56 
L 191 3500 
L 800 3500 
L 1894 763 
L 2988 3500 
L 3597 3500 
L 2059 -325 
z
" transform="scale(0.015625)"/>
       <path id="DejaVuSans-61" d="M 2194 1759 
Q 1497 1759 1228 1600 
Q 959 1441 959 1056 
Q 959 750 1161 570 
Q 1363 391 1709 391 
Q 2188 391 2477 730 
Q 2766 1069 2766 1631 
L 2766 1759 
L 2194 1759 
z
M 3341 1997 
L 3341 0 
L 2766 0 
L 2766 531 
Q 2569 213 2275 61 
Q 1981 -91 1556 -91 
Q 1019 -91 701 211 
Q 384 513 384 1019 
Q 384 1609 779 1909 
Q 1175 2209 1959 2209 
L 2766 2209 
L 2766 2266 
Q 2766 2663 2505 2880 
Q 2244 3097 1772 3097 
Q 1472 3097 1187 3025 
Q 903 2953 641 2809 
L 641 3341 
Q 956 3463 1253 3523 
Q 1550 3584 1831 3584 
Q 2591 3584 2966 3190 
Q 3341 2797 3341 1997 
z
" transform="scale(0.015625)"/>
       <path id="DejaVuSans-2e" d="M 684 794 
L 1344 794 
L 1344 0 
L 684 0 
L 684 794 
z
" transform="scale(0.015625)"/>
       <path id="DejaVuSans-75" d="M 544 1381 
L 544 3500 
L 1119 3500 
L 1119 1403 
Q 1119 906 1312 657 
Q 1506 409 1894 409 
Q 2359 409 2629 706 
Q 2900 1003 2900 1516 
L 2900 3500 
L 3475 3500 
L 3475 0 
L 2900 0 
L 2900 538 
Q 2691 219 2414 64 
Q 2138 -91 1772 -91 
Q 1169 -91 856 284 
Q 544 659 544 1381 
z
M 1991 3584 
L 1991 3584 
z
" transform="scale(0.015625)"/>
      </defs>
      <use xlink:href="#DejaVuSans-69"/>
      <use xlink:href="#DejaVuSans-6e" transform="translate(27.783203 0)"/>
      <use xlink:href="#DejaVuSans-74" transform="translate(91.162109 0)"/>
      <use xlink:href="#DejaVuSans-65" transform="translate(130.371094 0)"/>
      <use xlink:href="#DejaVuSans-6e" transform="translate(191.894531 0)"/>
      <use xlink:href="#DejaVuSans-73" transform="translate(255.273438 0)"/>
      <use xlink:href="#DejaVuSans-69" transform="translate(307.373047 0)"/>
      <use xlink:href="#DejaVuSans-74" transform="translate(335.15625 0)"/>
      <use xlink:href="#DejaVuSans-79" transform="translate(374.365234 0)"/>
      <use xlink:href="#DejaVuSans-20" transform="translate(433.544922 0)"/>
      <use xlink:href="#DejaVuSans-5b" transform="translate(465.332031 0)"/>
      <use xlink:href="#DejaVuSans-61" transform="translate(504.345703 0)"/>
      <use xlink:href="#DejaVuSans-2e" transform="translate(565.625 0)"/>
      <use xlink:href="#DejaVuSans-75" transform="translate(597.412109 0)"/>
      <use xlink:href="#DejaVuSans-2e" transform="translate(660.791016 0)"/>
      <use xlink:href="#DejaVuSans-5d" transform="translate(692.578125 0)"/>
     </g>
    </g>
   </g>
   <g id="line2d_16">
    <path d="M 57.739659 339.838125 
L 136.681808 339.738425 
L 140.252056 339.491954 
L 142.632221 339.103214 
L 144.615692 338.523852 
L 146.202469 337.809834 
L 147.789246 336.793167 
L 148.979329 335.78248 
L 150.169411 334.519373 
L 151.359494 332.970017 
L 152.549576 331.105433 
L 153.739659 328.904904 
L 155.326436 325.435221 
L 156.913213 321.377831 
L 158.896684 315.614944 
L 164.847097 297.527092 
L 166.03718 294.67701 
L 167.227262 292.373387 
L 168.020651 291.19165 
L 168.814039 290.321299 
L 169.607428 289.779896 
L 170.400816 289.578484 
L 171.194205 289.721211 
L 171.987593 290.205189 
L 172.780981 291.020592 
L 173.57437 292.150985 
L 174.764452 294.386496 
L 175.954535 297.181478 
L 177.541312 301.576749 
L 179.921477 308.964547 
L 183.095031 318.768085 
L 185.078502 324.143513 
L 186.665279 327.815658 
L 188.252056 330.878493 
L 189.442138 332.780405 
L 190.632221 334.36413 
L 191.822304 335.657868 
L 193.012386 336.695065 
L 194.599163 337.738717 
L 196.18594 338.47377 
L 197.772717 338.975485 
L 199.756188 339.37022 
L 202.533048 339.653286 
L 206.49999 339.795785 
L 216.020651 339.837511 
L 249.342965 339.740832 
L 252.913213 339.499037 
L 255.293378 339.116869 
L 257.276849 338.547818 
L 258.863626 337.845835 
L 260.450403 336.845193 
L 261.640486 335.847599 
L 262.830568 334.599035 
L 264.020651 333.065782 
L 265.210733 331.218535 
L 266.400816 329.036092 
L 267.987593 325.590553 
L 269.57437 321.555539 
L 271.557841 315.814641 
L 277.508254 297.693837 
L 278.698337 294.816435 
L 279.888419 292.480287 
L 280.681808 291.27444 
L 281.475196 290.378502 
L 282.268585 289.81048 
L 283.061973 289.581895 
L 283.855362 289.697387 
L 284.64875 290.154563 
L 285.442138 290.944077 
L 286.235527 292.049951 
L 287.42561 294.252147 
L 288.615692 297.018997 
L 290.202469 301.383628 
L 292.582634 308.753906 
L 295.756188 318.578295 
L 297.739659 323.979466 
L 299.326436 327.675341 
L 300.913213 330.762413 
L 302.103295 332.681825 
L 303.293378 334.281886 
L 304.483461 335.590443 
L 305.673543 336.640737 
L 307.26032 337.70094 
L 308.847097 338.448499 
L 310.433874 338.959218 
L 312.417345 339.360896 
L 315.194205 339.649083 
L 319.161147 339.794624 
L 328.681808 339.837493 
L 362.004122 339.743389 
L 365.57437 339.506607 
L 367.954535 339.131222 
L 369.938006 338.571112 
L 371.524783 337.879066 
L 373.11156 336.891269 
L 374.301643 335.907092 
L 375.491725 334.674617 
L 376.681808 333.159629 
L 377.87189 331.332373 
L 379.061973 329.170796 
L 380.64875 325.74931 
L 382.235527 321.73617 
L 384.218998 316.015972 
L 390.566105 296.852204 
L 391.756188 294.112156 
L 392.946271 291.94218 
L 393.739659 290.860273 
L 394.533048 290.096263 
L 395.326436 289.665689 
L 396.119824 289.578484 
L 396.913213 289.838581 
L 397.706601 290.437409 
L 398.49999 291.362708 
L 399.293378 292.59579 
L 400.483461 294.967523 
L 401.673543 297.872706 
L 403.26032 302.366159 
L 406.433874 312.322519 
L 408.814039 319.530105 
L 410.79751 324.799483 
L 412.384287 328.372883 
L 413.971064 331.332373 
L 415.161147 333.159629 
L 416.351229 334.674617 
L 417.541312 335.907092 
L 418.731395 336.891269 
L 420.318171 337.879066 
L 421.904948 338.571112 
L 423.491725 339.040971 
L 425.475196 339.408462 
L 428.252056 339.669938 
L 432.615692 339.805554 
L 444.119824 339.837967 
L 463.557841 339.838125 
L 463.557841 339.838125 
" clip-path="url(#pf2fbbafd4d)" style="fill: none; stroke: #1f77b4; stroke-width: 2; stroke-linecap: square"/>
   </g>
   <g id="line2d_17">
    <path d="M 57.739659 88.744948 
L 58.136353 88.821129 
L 58.929742 88.13533 
L 59.326436 88.664142 
L 59.72313 87.838025 
L 60.516519 88.709783 
L 60.913213 88.777301 
L 61.309907 87.979974 
L 61.706601 88.72557 
L 62.103295 88.704177 
L 62.49999 87.651483 
L 63.293378 88.603069 
L 63.690072 88.582365 
L 64.086767 88.920232 
L 64.483461 89.075717 
L 64.880155 88.637116 
L 65.673543 88.933517 
L 66.070238 88.759565 
L 66.466932 88.851806 
L 67.26032 88.42959 
L 68.053709 88.433098 
L 68.450403 88.43185 
L 69.243791 88.14249 
L 69.640486 88.173151 
L 70.03718 88.011458 
L 70.433874 88.437902 
L 70.830568 88.633865 
L 71.227262 87.969097 
L 71.623957 88.77905 
L 72.020651 89.011517 
L 72.417345 88.169974 
L 72.814039 88.495368 
L 73.210733 88.606556 
L 73.607428 88.400566 
L 74.400816 88.623933 
L 74.79751 88.623667 
L 75.194205 88.278208 
L 75.590899 89.616942 
L 75.987593 88.343711 
L 76.384287 87.741924 
L 76.780981 88.103187 
L 77.177676 88.646654 
L 77.57437 88.062226 
L 77.971064 88.11308 
L 78.367758 88.574461 
L 78.764452 88.498771 
L 79.161147 87.89533 
L 79.557841 88.041095 
L 79.954535 88.811462 
L 80.351229 88.148095 
L 80.747924 88.194181 
L 81.144618 88.764546 
L 81.541312 88.278162 
L 81.938006 87.347806 
L 82.3347 87.646165 
L 82.731395 88.237837 
L 83.128089 88.43832 
L 83.524783 88.489217 
L 83.921477 88.206375 
L 84.318171 88.388731 
L 84.714866 88.428292 
L 85.11156 88.035242 
L 85.508254 88.545585 
L 86.301643 88.255451 
L 86.698337 88.609523 
L 87.095031 88.394889 
L 87.491725 88.69493 
L 87.888419 88.298581 
L 88.285114 88.909536 
L 88.681808 88.387488 
L 89.078502 88.162446 
L 89.475196 88.262127 
L 89.87189 88.726293 
L 90.665279 88.638174 
L 91.061973 88.129265 
L 91.458667 88.153598 
L 91.855362 87.678272 
L 92.252056 88.744292 
L 92.64875 88.888129 
L 93.045444 88.842104 
L 93.442138 89.131145 
L 93.838833 88.035764 
L 94.235527 88.287844 
L 94.632221 88.704689 
L 95.028915 87.981235 
L 95.42561 87.66879 
L 95.822304 87.734591 
L 96.218998 88.825805 
L 96.615692 89.367364 
L 97.012386 88.667276 
L 97.805775 88.271329 
L 98.202469 88.477801 
L 98.599163 88.360987 
L 98.995857 88.597872 
L 99.789246 88.352241 
L 100.582634 88.920531 
L 100.979329 88.764293 
L 101.376023 88.381581 
L 101.772717 88.360217 
L 102.169411 88.071059 
L 102.566105 88.455698 
L 102.9628 88.632924 
L 103.359494 88.553264 
L 103.756188 88.83964 
L 104.549576 88.696395 
L 104.946271 88.395141 
L 105.342965 88.583135 
L 105.739659 88.038876 
L 106.136353 87.863802 
L 106.533048 88.919166 
L 107.326436 88.412027 
L 107.72313 89.512977 
L 108.119824 89.136316 
L 108.516519 87.867916 
L 108.913213 88.723784 
L 109.309907 88.060738 
L 109.706601 87.96702 
L 110.49999 89.073037 
L 110.896684 88.433913 
L 111.293378 88.157874 
L 111.690072 88.045741 
L 112.086767 88.094011 
L 112.483461 88.535229 
L 112.880155 87.946958 
L 113.276849 88.832341 
L 113.673543 89.146474 
L 114.070238 88.529573 
L 114.466932 88.51128 
L 114.863626 88.932771 
L 115.657014 88.181129 
L 116.053709 88.507989 
L 116.450403 88.518282 
L 117.243791 88.093977 
L 117.640486 88.20085 
L 118.03718 88.852066 
L 118.830568 88.029647 
L 119.227262 88.944985 
L 119.623957 88.807184 
L 120.020651 87.866959 
L 120.417345 88.666458 
L 121.210733 88.067644 
L 121.607428 88.20111 
L 122.004122 88.508568 
L 122.400816 88.625301 
L 122.79751 87.424412 
L 123.590899 89.131111 
L 123.987593 87.877496 
L 124.384287 88.872135 
L 124.780981 87.786096 
L 125.177676 88.107283 
L 125.57437 88.236233 
L 125.971064 89.078799 
L 126.367758 88.662499 
L 126.764452 88.757677 
L 127.161147 87.692991 
L 127.557841 88.660025 
L 127.954535 87.872302 
L 128.351229 88.179897 
L 128.747924 87.463413 
L 129.541312 88.380465 
L 130.3347 88.887291 
L 130.731395 88.691888 
L 131.128089 88.153736 
L 131.524783 88.860421 
L 131.921477 88.733734 
L 132.318171 88.402911 
L 132.714866 88.481037 
L 135.095031 87.718209 
L 135.491725 87.460283 
L 135.888419 87.750176 
L 136.285114 88.564124 
L 137.475196 87.740186 
L 137.87189 88.610109 
L 138.268585 88.406113 
L 138.665279 88.808517 
L 139.061973 88.468334 
L 139.458667 88.497446 
L 139.855362 88.821643 
L 140.252056 88.83859 
L 140.64875 88.023882 
L 141.045444 87.50303 
L 141.442138 88.288605 
L 141.838833 87.569965 
L 142.235527 87.78968 
L 142.632221 86.792169 
L 143.028915 87.085477 
L 143.42561 88.038874 
L 143.822304 87.573862 
L 144.218998 86.859831 
L 144.615692 86.810893 
L 145.012386 86.997427 
L 145.409081 86.210621 
L 145.805775 86.683991 
L 146.202469 86.770146 
L 146.599163 86.153096 
L 146.995857 85.817756 
L 148.18594 85.994659 
L 148.582634 85.10503 
L 148.979329 84.677372 
L 149.772717 83.474742 
L 150.169411 83.025993 
L 150.566105 82.747626 
L 151.359494 81.379503 
L 151.756188 81.240988 
L 152.946271 79.000158 
L 153.739659 78.080942 
L 154.136353 76.866925 
L 154.533048 76.14718 
L 155.326436 73.733446 
L 155.72313 72.27552 
L 156.119824 71.825965 
L 156.516519 70.867003 
L 157.309907 69.553188 
L 158.896684 64.004476 
L 159.293378 63.356639 
L 159.690072 61.157125 
L 160.086767 60.674625 
L 160.483461 59.112209 
L 161.276849 56.919053 
L 161.673543 55.306433 
L 162.863626 52.792028 
L 163.657014 49.736545 
L 164.053709 48.679854 
L 165.243791 44.496841 
L 165.640486 44.031385 
L 166.03718 43.881123 
L 166.830568 42.228869 
L 168.417345 38.875424 
L 168.814039 38.385408 
L 169.210733 38.240232 
L 169.607428 38.486074 
L 170.004122 38.275979 
L 170.400816 37.438125 
L 170.79751 38.020077 
L 171.194205 37.812972 
L 171.590899 38.943686 
L 173.177676 40.137708 
L 173.971064 41.732478 
L 174.367758 41.740406 
L 174.764452 43.121651 
L 175.161147 43.950041 
L 175.557841 45.0785 
L 175.954535 45.324182 
L 176.351229 46.9467 
L 176.747924 47.788978 
L 177.541312 50.75931 
L 177.938006 51.138545 
L 178.3347 52.273511 
L 178.731395 54.101254 
L 179.128089 55.10543 
L 179.524783 56.696291 
L 179.921477 57.314714 
L 181.508254 63.077447 
L 182.698337 66.032289 
L 183.888419 69.726549 
L 186.268585 75.580991 
L 186.665279 77.074242 
L 187.061973 77.491428 
L 187.458667 77.431795 
L 187.855362 78.61463 
L 189.442138 81.706751 
L 189.838833 81.919221 
L 190.235527 82.290933 
L 190.632221 82.293576 
L 191.028915 84.43704 
L 191.42561 83.48622 
L 191.822304 84.470854 
L 193.012386 85.516596 
L 193.409081 86.035581 
L 193.805775 86.072527 
L 194.202469 85.664285 
L 194.599163 86.672321 
L 194.995857 86.514699 
L 195.392552 86.05107 
L 195.789246 86.427418 
L 196.18594 87.775867 
L 196.582634 87.38682 
L 196.979329 87.671443 
L 197.376023 87.260651 
L 197.772717 87.441287 
L 198.169411 87.39477 
L 198.566105 87.136494 
L 198.9628 87.610409 
L 199.756188 88.124213 
L 200.152882 87.931323 
L 200.549576 87.994716 
L 200.946271 88.420808 
L 201.342965 88.527233 
L 201.739659 88.401247 
L 202.929742 87.644811 
L 203.72313 88.934632 
L 204.119824 88.304711 
L 204.516519 89.106978 
L 205.309907 88.069847 
L 205.706601 88.247638 
L 206.103295 89.043435 
L 206.49999 87.982138 
L 206.896684 88.540388 
L 207.690072 87.629942 
L 208.086767 88.878578 
L 208.483461 88.051872 
L 208.880155 89.250671 
L 209.673543 87.734364 
L 210.070238 88.294177 
L 210.466932 88.581719 
L 210.863626 88.123404 
L 211.657014 88.229219 
L 212.847097 88.980691 
L 213.243791 88.703527 
L 213.640486 87.928581 
L 214.03718 88.560256 
L 214.433874 89.693419 
L 214.830568 88.403786 
L 215.227262 88.155775 
L 215.623957 88.406087 
L 216.020651 88.221065 
L 216.417345 88.67594 
L 216.814039 88.327913 
L 217.210733 88.170082 
L 217.607428 88.261036 
L 218.004122 88.225045 
L 218.79751 89.463172 
L 219.194205 88.933625 
L 219.590899 88.101598 
L 219.987593 88.509299 
L 220.384287 89.367279 
L 221.57437 88.476241 
L 221.971064 88.958463 
L 222.367758 88.722885 
L 222.764452 87.912723 
L 223.161147 87.801827 
L 223.557841 88.137865 
L 223.954535 88.191856 
L 224.351229 88.074099 
L 224.747924 88.371767 
L 225.144618 87.669722 
L 226.3347 88.905152 
L 226.731395 88.29294 
L 227.524783 88.001387 
L 227.921477 88.136841 
L 228.318171 88.123335 
L 228.714866 88.692479 
L 229.11156 87.854004 
L 229.508254 88.558462 
L 229.904948 88.677331 
L 230.301643 88.394588 
L 230.698337 88.729537 
L 231.095031 88.858853 
L 231.491725 88.846687 
L 231.888419 89.304278 
L 232.285114 88.802599 
L 232.681808 88.655913 
L 233.078502 88.747514 
L 233.475196 88.440941 
L 233.87189 88.549813 
L 234.268585 88.205864 
L 234.665279 88.307553 
L 235.061973 88.571324 
L 235.458667 87.908728 
L 235.855362 87.933689 
L 236.252056 88.571785 
L 236.64875 88.840663 
L 237.045444 88.926784 
L 237.838833 88.173739 
L 238.235527 88.353897 
L 238.632221 88.861882 
L 239.028915 88.377837 
L 239.42561 88.346519 
L 240.218998 87.809196 
L 240.615692 88.155681 
L 241.409081 87.738058 
L 241.805775 88.546783 
L 242.599163 88.691041 
L 242.995857 88.216666 
L 243.789246 88.897762 
L 244.18594 89.020281 
L 244.582634 89.319792 
L 245.376023 88.340324 
L 245.772717 88.093173 
L 246.169411 88.192009 
L 246.566105 88.0342 
L 246.9628 88.277491 
L 247.359494 89.169224 
L 248.152882 88.082117 
L 248.946271 88.12092 
L 249.342965 88.442979 
L 249.739659 87.897668 
L 250.136353 87.959143 
L 250.533048 88.64321 
L 250.929742 88.655907 
L 252.119824 88.312425 
L 252.516519 88.125454 
L 254.103295 88.081639 
L 254.49999 87.474885 
L 255.293378 88.216668 
L 255.690072 87.655008 
L 256.086767 87.548864 
L 256.483461 87.103564 
L 256.880155 87.424753 
L 257.276849 86.683901 
L 257.673543 86.717281 
L 258.070238 86.303263 
L 258.466932 87.138403 
L 259.26032 86.407219 
L 259.657014 85.437018 
L 260.053709 86.952572 
L 260.450403 85.388508 
L 260.847097 85.439242 
L 261.243791 84.728938 
L 261.640486 84.474719 
L 262.03718 83.569974 
L 262.433874 83.897706 
L 263.227262 82.699381 
L 263.623957 82.482906 
L 264.020651 81.941964 
L 264.417345 81.029629 
L 264.814039 79.771588 
L 265.607428 79.3555 
L 266.004122 78.420381 
L 266.400816 77.153011 
L 266.79751 76.800742 
L 267.194205 76.86199 
L 267.987593 74.614844 
L 269.177676 70.622236 
L 271.954535 63.0066 
L 272.351229 61.55863 
L 272.747924 60.849372 
L 273.541312 58.462843 
L 273.938006 57.238075 
L 274.731395 53.970366 
L 275.128089 53.617679 
L 275.524783 52.121868 
L 275.921477 51.443665 
L 276.318171 49.74971 
L 276.714866 49.39268 
L 277.11156 48.643847 
L 277.508254 46.497168 
L 278.301643 43.683875 
L 278.698337 43.552846 
L 279.095031 41.835252 
L 279.491725 41.09942 
L 279.888419 41.386407 
L 280.285114 41.105877 
L 280.681808 40.343811 
L 281.078502 40.104977 
L 281.475196 38.756869 
L 282.268585 38.394401 
L 282.665279 38.094003 
L 283.061973 38.945936 
L 283.458667 38.856932 
L 283.855362 38.569605 
L 284.252056 39.055842 
L 284.64875 39.087613 
L 285.045444 39.331728 
L 285.442138 39.781635 
L 285.838833 39.786667 
L 286.235527 40.41282 
L 288.218998 44.983199 
L 288.615692 45.530591 
L 289.409081 47.896887 
L 290.202469 50.421525 
L 290.995857 52.416227 
L 291.392552 54.192994 
L 291.789246 55.134867 
L 292.18594 55.439172 
L 292.582634 57.532878 
L 292.979329 58.905382 
L 293.772717 60.533277 
L 294.169411 62.953466 
L 294.566105 63.360385 
L 294.9628 65.280143 
L 296.152882 67.706117 
L 296.549576 68.930981 
L 296.946271 70.846114 
L 298.136353 73.697368 
L 298.533048 73.995661 
L 298.929742 75.679136 
L 299.326436 75.702646 
L 300.119824 78.040415 
L 300.516519 78.515482 
L 300.913213 79.671355 
L 301.309907 79.814466 
L 302.103295 81.152827 
L 302.896684 82.775144 
L 303.690072 83.22498 
L 304.483461 84.388696 
L 304.880155 84.327822 
L 305.673543 84.588534 
L 306.070238 85.369829 
L 306.863626 84.909989 
L 307.26032 86.286648 
L 307.657014 85.884805 
L 308.053709 86.182859 
L 308.450403 86.175274 
L 308.847097 87.048486 
L 309.243791 86.789638 
L 309.640486 86.917279 
L 310.03718 87.831001 
L 310.433874 87.623022 
L 310.830568 88.178739 
L 311.227262 88.384767 
L 311.623957 88.108442 
L 312.020651 88.360995 
L 312.417345 88.194343 
L 312.814039 88.363441 
L 313.210733 88.265704 
L 313.607428 87.746727 
L 314.004122 87.510677 
L 314.79751 88.220616 
L 315.194205 88.260987 
L 315.590899 88.470076 
L 315.987593 89.048265 
L 316.384287 88.123749 
L 316.780981 87.96526 
L 317.177676 88.631429 
L 317.57437 89.053702 
L 317.971064 88.667147 
L 319.557841 88.176741 
L 319.954535 88.908894 
L 320.351229 89.39259 
L 320.747924 88.322374 
L 321.144618 88.120612 
L 321.541312 88.762159 
L 321.938006 88.610472 
L 322.3347 89.19199 
L 323.921477 89.101073 
L 324.318171 88.053056 
L 324.714866 88.066243 
L 325.11156 88.498621 
L 325.904948 88.605598 
L 326.301643 88.359112 
L 326.698337 88.783944 
L 327.095031 88.191034 
L 327.491725 88.368162 
L 327.888419 88.391474 
L 328.285114 88.261727 
L 328.681808 89.28147 
L 329.078502 88.190779 
L 329.475196 88.718305 
L 329.87189 88.242033 
L 330.268585 88.271042 
L 330.665279 88.628962 
L 331.061973 88.08173 
L 331.458667 87.999323 
L 331.855362 88.165086 
L 332.252056 89.247103 
L 332.64875 88.366092 
L 333.045444 87.873696 
L 333.442138 87.962153 
L 333.838833 88.383234 
L 334.235527 88.480207 
L 334.632221 88.267466 
L 335.028915 88.694102 
L 335.42561 88.063692 
L 335.822304 88.066981 
L 336.218998 88.569958 
L 337.012386 88.627356 
L 338.202469 88.407397 
L 338.599163 88.144908 
L 338.995857 88.033442 
L 339.392552 88.555663 
L 339.789246 88.591662 
L 340.18594 88.463954 
L 340.582634 88.617478 
L 340.979329 89.015008 
L 341.772717 88.136431 
L 342.169411 88.545361 
L 342.566105 88.656589 
L 342.9628 88.283668 
L 343.359494 88.988608 
L 343.756188 88.241648 
L 344.152882 89.570578 
L 344.549576 88.741346 
L 344.946271 88.52523 
L 345.342965 88.923538 
L 346.136353 89.374664 
L 346.533048 88.349315 
L 346.929742 88.050768 
L 347.326436 88.607838 
L 347.72313 87.499687 
L 348.119824 89.196794 
L 348.516519 88.620812 
L 348.913213 89.443259 
L 349.309907 88.498174 
L 349.706601 88.939304 
L 350.103295 89.011974 
L 350.49999 88.409862 
L 350.896684 88.644974 
L 351.293378 88.744492 
L 351.690072 89.056384 
L 352.483461 88.328815 
L 352.880155 88.314844 
L 353.276849 88.584691 
L 353.673543 88.634627 
L 354.070238 88.400963 
L 354.466932 88.707064 
L 354.863626 88.637854 
L 355.26032 88.203595 
L 356.053709 89.193306 
L 356.450403 88.895837 
L 356.847097 88.956744 
L 357.243791 88.458746 
L 357.640486 88.151021 
L 358.03718 88.139229 
L 358.433874 88.86556 
L 358.830568 88.29542 
L 359.227262 88.592734 
L 359.623957 89.354838 
L 360.020651 88.857178 
L 360.417345 88.854447 
L 360.814039 89.033982 
L 361.210733 89.053399 
L 361.607428 88.207974 
L 362.004122 89.090522 
L 362.400816 87.960752 
L 362.79751 88.05376 
L 363.194205 88.637251 
L 363.590899 88.134767 
L 363.987593 88.263459 
L 364.384287 88.174298 
L 364.780981 87.755549 
L 365.57437 88.638686 
L 365.971064 88.880538 
L 366.367758 88.568108 
L 366.764452 88.539709 
L 367.161147 87.36213 
L 367.557841 87.559785 
L 367.954535 87.901487 
L 368.747924 87.808898 
L 369.541312 87.720026 
L 369.938006 87.089019 
L 370.3347 86.724148 
L 370.731395 86.930586 
L 371.524783 87.011211 
L 371.921477 86.612237 
L 372.318171 85.819668 
L 372.714866 85.789715 
L 373.11156 86.069364 
L 374.301643 84.015904 
L 374.698337 84.616676 
L 375.095031 84.273606 
L 375.888419 82.863847 
L 376.285114 83.074323 
L 376.681808 82.072211 
L 377.078502 81.60032 
L 377.87189 80.057352 
L 378.268585 78.962236 
L 378.665279 79.45871 
L 379.061973 77.218545 
L 379.458667 77.101772 
L 379.855362 75.45263 
L 380.252056 75.047194 
L 380.64875 74.879659 
L 381.045444 73.022426 
L 381.442138 72.932933 
L 381.838833 71.654067 
L 382.632221 68.525103 
L 383.028915 68.220369 
L 383.42561 66.672246 
L 384.218998 64.558158 
L 384.615692 62.647439 
L 385.012386 62.091135 
L 385.805775 59.32462 
L 386.599163 57.312312 
L 387.392552 54.871006 
L 388.18594 51.544063 
L 388.582634 51.251311 
L 389.376023 48.243289 
L 389.772717 47.716608 
L 390.169411 46.167255 
L 390.566105 45.90891 
L 390.9628 45.473387 
L 391.359494 44.01405 
L 391.756188 43.202419 
L 392.549576 40.3484 
L 392.946271 40.273816 
L 393.342965 39.899749 
L 393.739659 38.48067 
L 394.136353 39.138068 
L 394.533048 38.212506 
L 394.929742 38.651621 
L 395.326436 38.541013 
L 395.72313 37.772915 
L 396.119824 38.102642 
L 396.516519 37.755128 
L 396.913213 37.615135 
L 397.309907 37.726025 
L 397.706601 38.333396 
L 398.103295 39.601481 
L 398.49999 39.988041 
L 398.896684 40.202015 
L 399.293378 41.496759 
L 400.086767 42.635167 
L 400.483461 44.068696 
L 401.276849 44.724441 
L 402.070238 47.678289 
L 402.466932 48.030344 
L 402.863626 48.971202 
L 403.26032 50.830961 
L 403.657014 52.029862 
L 404.053709 52.791861 
L 406.03718 60.177496 
L 406.830568 62.233271 
L 407.227262 62.988682 
L 408.020651 65.891292 
L 408.814039 68.554857 
L 409.210733 68.724417 
L 409.607428 69.515906 
L 410.400816 73.121884 
L 410.79751 73.527266 
L 411.194205 75.029731 
L 411.590899 74.669674 
L 411.987593 76.648974 
L 412.384287 77.118594 
L 412.780981 78.033102 
L 413.177676 77.931929 
L 413.971064 80.768707 
L 414.367758 80.145098 
L 414.764452 81.358974 
L 415.161147 81.913443 
L 415.557841 82.249437 
L 415.954535 83.157408 
L 416.747924 84.432274 
L 417.144618 84.28345 
L 417.541312 83.98412 
L 417.938006 84.599783 
L 418.3347 85.480585 
L 419.921477 86.745685 
L 420.318171 86.491615 
L 420.714866 86.631136 
L 421.11156 86.532635 
L 421.508254 86.309608 
L 421.904948 87.198379 
L 422.301643 87.546829 
L 422.698337 86.920346 
L 423.095031 87.232309 
L 423.491725 87.963975 
L 423.888419 88.148344 
L 424.285114 87.925234 
L 424.681808 88.481274 
L 425.475196 87.971197 
L 425.87189 88.146977 
L 426.268585 87.582106 
L 426.665279 88.476596 
L 427.061973 87.924075 
L 427.855362 88.415428 
L 428.252056 87.714325 
L 428.64875 88.806609 
L 429.045444 87.362868 
L 429.442138 88.487758 
L 429.838833 88.682121 
L 430.235527 87.984893 
L 430.632221 89.097236 
L 431.42561 87.832017 
L 432.218998 88.613774 
L 432.615692 88.542655 
L 433.012386 88.811655 
L 433.409081 88.421949 
L 433.805775 88.88649 
L 434.202469 88.894153 
L 434.599163 88.47859 
L 434.995857 88.903151 
L 435.789246 88.539901 
L 436.18594 88.492784 
L 436.582634 88.268193 
L 436.979329 87.77129 
L 437.376023 88.049945 
L 437.772717 88.58538 
L 438.566105 88.492679 
L 439.359494 88.043178 
L 439.756188 88.166143 
L 440.549576 88.998889 
L 440.946271 88.720129 
L 441.342965 88.30528 
L 441.739659 88.312612 
L 442.136353 88.813457 
L 442.533048 88.713623 
L 442.929742 88.891596 
L 443.72313 88.402694 
L 444.119824 88.651765 
L 444.913213 88.322257 
L 445.309907 88.465466 
L 445.706601 87.640871 
L 446.103295 89.371105 
L 446.49999 88.588588 
L 446.896684 88.195624 
L 447.293378 88.922375 
L 447.690072 88.262902 
L 448.086767 88.068089 
L 448.483461 88.568808 
L 448.880155 87.610563 
L 449.276849 88.193843 
L 449.673543 87.85145 
L 450.070238 87.879436 
L 450.466932 88.248686 
L 450.863626 87.900857 
L 451.26032 88.366446 
L 451.657014 88.460222 
L 452.450403 89.008811 
L 452.847097 88.702019 
L 453.640486 88.610927 
L 454.03718 88.32695 
L 454.433874 88.185941 
L 454.830568 88.278844 
L 455.227262 88.557129 
L 455.623957 88.588854 
L 456.020651 88.47412 
L 456.417345 88.740102 
L 456.814039 88.615691 
L 457.210733 88.123914 
L 457.607428 88.085405 
L 458.004122 87.652753 
L 458.400816 88.269867 
L 458.79751 88.58187 
L 459.194205 87.871765 
L 459.590899 88.652446 
L 460.384287 88.571956 
L 460.780981 88.258164 
L 461.177676 89.624447 
L 461.57437 89.036757 
L 461.971064 87.931293 
L 462.367758 87.961244 
L 462.764452 88.309139 
L 463.161147 89.05289 
L 463.557841 88.483332 
L 463.557841 88.483332 
" clip-path="url(#pf2fbbafd4d)" style="fill: none; stroke: #ff7f0e; stroke-width: 2; stroke-linecap: square"/>
   </g>
   <g id="line2d_18">
    <path d="M 57.739659 339.838125 
L 61.309907 339.838125 
L 61.706601 335.990407 
L 62.103295 338.54081 
L 62.49999 339.838125 
L 64.483461 339.838125 
L 64.880155 336.933909 
L 65.276849 337.597308 
L 65.673543 339.838125 
L 67.657014 339.838125 
L 68.053709 337.87741 
L 68.450403 336.653807 
L 68.847097 339.838125 
L 70.03718 339.838125 
L 70.433874 338.585037 
L 70.830568 335.94618 
L 71.227262 338.820912 
L 71.623957 333.911755 
L 72.020651 331.34661 
L 72.417345 339.838125 
L 74.79751 339.838125 
L 75.194205 334.973194 
L 75.590899 339.558023 
L 75.987593 339.838125 
L 76.384287 335.327007 
L 76.780981 339.20421 
L 77.177676 339.838125 
L 78.764452 339.838125 
L 79.161147 336.152571 
L 79.557841 338.378646 
L 79.954535 339.838125 
L 80.351229 333.174644 
L 81.144618 339.838125 
L 81.541312 333.88227 
L 81.938006 335.503914 
L 82.3347 339.838125 
L 82.731395 337.214011 
L 83.128089 337.317206 
L 83.524783 339.838125 
L 84.318171 326.909203 
L 84.714866 333.852786 
L 85.11156 336.005149 
L 85.508254 333.381035 
L 85.904948 339.838125 
L 86.301643 339.838125 
L 86.698337 336.948651 
L 87.095031 332.437533 
L 87.491725 339.838125 
L 88.285114 339.838125 
L 88.681808 338.983077 
L 89.078502 334.81103 
L 89.87189 334.81103 
L 90.268585 335.194327 
L 90.665279 339.572765 
L 91.061973 334.516186 
L 91.458667 324.815809 
L 91.855362 334.634123 
L 92.252056 334.81103 
L 92.64875 330.108264 
L 93.442138 339.277921 
L 93.838833 339.838125 
L 94.235527 335.607109 
L 94.632221 338.924108 
L 95.028915 339.838125 
L 95.42561 335.960923 
L 95.822304 334.81103 
L 96.218998 334.81103 
L 96.615692 327.764251 
L 97.012386 334.973194 
L 97.409081 339.838125 
L 100.18594 339.838125 
L 100.979329 334.81103 
L 101.376023 336.919167 
L 101.772717 337.847926 
L 102.169411 336.683291 
L 102.566105 336.329478 
L 102.9628 333.056706 
L 103.359494 339.838125 
L 103.756188 335.636594 
L 104.152882 327.321985 
L 104.549576 333.646395 
L 104.946271 329.783935 
L 105.342965 328.855175 
L 105.739659 327.189305 
L 106.136353 337.759473 
L 106.533048 325.331786 
L 106.929742 329.783935 
L 107.326436 330.462077 
L 107.72313 339.616992 
L 108.119824 334.914225 
L 108.516519 339.823383 
L 109.706601 325.125395 
L 110.103295 333.838044 
L 110.49999 334.81103 
L 110.896684 330.506303 
L 111.293378 329.783935 
L 111.690072 333.852786 
L 112.086767 330.860116 
L 112.483461 333.616911 
L 112.880155 334.81103 
L 113.276849 331.21393 
L 113.673543 333.263097 
L 114.466932 329.783935 
L 114.863626 332.909284 
L 115.26032 337.818442 
L 115.657014 336.948651 
L 116.053709 332.039494 
L 116.847097 337.302464 
L 117.243791 332.393307 
L 117.640486 329.783935 
L 118.03718 331.965783 
L 118.433874 334.81103 
L 118.830568 334.81103 
L 119.227262 331.154961 
L 119.623957 324.75684 
L 120.020651 324.75684 
L 120.417345 323.282618 
L 120.814039 325.15488 
L 121.210733 337.361433 
L 121.607428 326.42271 
L 122.004122 318.712532 
L 122.400816 335.695563 
L 122.79751 339.07153 
L 123.590899 329.783935 
L 123.987593 330.609499 
L 124.384287 339.248436 
L 125.177676 319.906651 
L 125.57437 334.634123 
L 125.971064 339.661218 
L 126.367758 335.105874 
L 126.764452 334.81103 
L 128.351229 334.81103 
L 128.747924 326.761781 
L 129.144618 328.663527 
L 129.541312 329.783935 
L 129.938006 333.454746 
L 130.3347 331.258156 
L 130.731395 333.218871 
L 131.128089 328.177033 
L 131.524783 331.154961 
L 131.921477 331.729907 
L 132.318171 323.857565 
L 132.714866 325.420239 
L 133.11156 335.238554 
L 133.508254 334.619381 
L 133.904948 329.783935 
L 134.301643 329.783935 
L 134.698337 334.295052 
L 135.095031 333.425262 
L 135.491725 324.75684 
L 135.888419 326.658585 
L 136.285114 326.216319 
L 136.681808 324.727355 
L 137.078502 334.81103 
L 137.475196 334.81103 
L 138.268585 337.449886 
L 138.665279 329.783935 
L 139.061973 329.783935 
L 139.458667 330.624241 
L 139.855362 334.088661 
L 140.252056 328.575073 
L 140.64875 320.702731 
L 141.045444 329.783935 
L 141.442138 330.034552 
L 142.235527 339.838125 
L 142.632221 339.838125 
L 143.028915 335.032163 
L 143.42561 334.81103 
L 143.822304 325.670857 
L 144.218998 324.75684 
L 144.615692 329.091051 
L 145.012386 329.783935 
L 145.409081 329.783935 
L 145.805775 333.764333 
L 146.202469 319.361189 
L 146.599163 329.680739 
L 146.995857 331.184445 
L 147.789246 334.81103 
L 148.18594 334.81103 
L 148.582634 331.656196 
L 148.979329 335.857727 
L 149.376023 334.000208 
L 149.772717 324.181893 
L 150.169411 327.778994 
L 150.9628 317.017177 
L 151.359494 324.75684 
L 152.152882 319.729745 
L 152.549576 319.729745 
L 152.946271 321.587264 
L 153.342965 321.277677 
L 153.739659 319.56758 
L 154.136353 328.280229 
L 154.533048 319.213767 
L 154.929742 304.648459 
L 155.326436 309.24803 
L 155.72313 320.62902 
L 156.119824 304.648459 
L 156.516519 304.648459 
L 156.913213 306.004743 
L 157.309907 314.142445 
L 158.103295 305.297117 
L 158.49999 314.289868 
L 158.896684 304.736913 
L 159.293378 309.64607 
L 159.690072 309.675555 
L 160.086767 300.152084 
L 160.483461 308.908959 
L 160.880155 305.149695 
L 161.673543 276.697221 
L 162.070238 299.518169 
L 162.466932 280.323806 
L 162.863626 309.91143 
L 163.26032 289.183877 
L 163.657014 279.512984 
L 164.053709 283.095342 
L 164.450403 274.146818 
L 164.847097 276.151759 
L 165.243791 279.512984 
L 165.640486 276.402377 
L 166.03718 277.478559 
L 166.433874 265.139325 
L 166.830568 257.134303 
L 167.623957 279.512984 
L 168.020651 279.512984 
L 168.417345 277.227941 
L 168.814039 276.652995 
L 169.210733 283.61132 
L 170.004122 265.670045 
L 170.400816 289.508205 
L 170.79751 282.667818 
L 171.194205 289.567174 
L 171.987593 280.603908 
L 172.384287 299.621364 
L 172.780981 288.756352 
L 173.177676 246.0629 
L 173.57437 261.896038 
L 173.971064 302.746714 
L 174.367758 285.955332 
L 174.764452 257.959867 
L 175.161147 299.06116 
L 175.954535 279.557211 
L 176.351229 284.466368 
L 176.747924 265.198294 
L 177.144618 269.149207 
L 177.541312 292.456648 
L 177.938006 281.14937 
L 178.3347 275.149289 
L 178.731395 308.451951 
L 179.128089 306.44701 
L 179.524783 296.628695 
L 179.921477 298.486214 
L 180.318171 303.395371 
L 180.714866 297.336321 
L 181.11156 298.132401 
L 181.508254 292.780977 
L 182.301643 299.621364 
L 182.698337 305.754126 
L 183.095031 309.675555 
L 183.491725 304.014544 
L 183.888419 302.333932 
L 184.285114 304.648459 
L 184.681808 317.031919 
L 185.078502 315.631409 
L 185.475196 310.825447 
L 185.87189 318.388203 
L 186.268585 305.665672 
L 186.665279 301.508368 
L 187.061973 304.648459 
L 187.458667 304.648459 
L 187.855362 306.18165 
L 188.252056 311.090807 
L 189.045444 330.093521 
L 189.442138 311.518331 
L 189.838833 299.621364 
L 190.235527 302.098056 
L 191.028915 334.221341 
L 191.42561 328.840433 
L 191.822304 320.437371 
L 192.218998 328.604558 
L 192.615692 304.294646 
L 193.012386 289.567174 
L 193.409081 314.112961 
L 193.805775 329.076309 
L 194.202469 311.090807 
L 194.599163 309.675555 
L 194.995857 327.425181 
L 195.392552 334.103404 
L 195.789246 318.004906 
L 196.18594 322.869836 
L 196.979329 310.854932 
L 197.376023 324.594675 
L 197.772717 308.11288 
L 198.169411 313.596984 
L 198.566105 312.977811 
L 198.9628 322.707672 
L 199.359494 320.36366 
L 199.756188 326.791265 
L 200.152882 326.098381 
L 200.549576 316.943466 
L 200.946271 317.37099 
L 201.342965 329.931357 
L 201.739659 334.973194 
L 202.136353 315.896769 
L 202.533048 310.604314 
L 202.929742 326.835492 
L 203.326436 329.783935 
L 203.72313 324.255604 
L 204.119824 314.70265 
L 204.516519 316.309551 
L 205.309907 327.498892 
L 205.706601 333.557942 
L 206.896684 319.361189 
L 207.293378 299.282293 
L 207.690072 324.75684 
L 208.086767 324.211378 
L 208.483461 319.729745 
L 208.880155 320.348918 
L 209.276849 329.975584 
L 209.673543 334.663608 
L 210.070238 324.845293 
L 210.466932 310.162048 
L 210.863626 314.422548 
L 211.26032 305.444539 
L 211.657014 304.648459 
L 212.053709 317.827999 
L 212.450403 306.904018 
L 212.847097 321.277677 
L 213.243791 316.678106 
L 213.640486 318.624079 
L 214.03718 327.336727 
L 214.433874 329.783935 
L 214.830568 315.513471 
L 215.227262 320.024589 
L 215.623957 331.420321 
L 216.020651 318.742016 
L 216.417345 318.96315 
L 216.814039 315.823058 
L 217.210733 309.675555 
L 217.607428 323.385814 
L 218.004122 324.314573 
L 218.400816 309.690297 
L 218.79751 304.648459 
L 219.194205 309.189061 
L 219.590899 319.007376 
L 219.987593 324.75684 
L 220.780981 324.75684 
L 221.57437 314.363579 
L 221.971064 321.867366 
L 222.367758 317.356248 
L 222.764452 323.547978 
L 223.161147 320.820669 
L 223.557841 322.810867 
L 223.954535 317.267795 
L 224.351229 327.572603 
L 224.747924 314.70265 
L 225.144618 314.201414 
L 225.541312 310.058852 
L 225.938006 314.17193 
L 226.3347 305.090726 
L 226.731395 319.788714 
L 227.128089 329.607028 
L 227.524783 320.142527 
L 227.921477 324.432511 
L 228.318171 315.587182 
L 228.714866 319.169541 
L 229.11156 306.682885 
L 229.508254 325.803537 
L 229.904948 321.557779 
L 230.301643 327.720025 
L 230.698337 322.02953 
L 231.095031 327.248274 
L 231.888419 324.75684 
L 232.285114 317.945937 
L 232.681808 314.70265 
L 233.078502 314.70265 
L 233.475196 323.857565 
L 233.87189 323.916534 
L 234.268585 311.282456 
L 234.665279 320.835411 
L 235.061973 321.911592 
L 235.458667 317.061404 
L 235.855362 320.068816 
L 236.252056 314.70265 
L 236.64875 321.02706 
L 237.045444 331.774134 
L 237.442138 325.449724 
L 237.838833 314.938525 
L 238.235527 318.211297 
L 238.632221 310.722252 
L 239.028915 324.75684 
L 239.42561 319.626549 
L 239.822304 304.648459 
L 240.218998 308.835248 
L 240.615692 321.970561 
L 241.012386 311.297198 
L 241.409081 318.343977 
L 241.805775 310.825447 
L 242.202469 318.815727 
L 242.599163 309.675555 
L 242.995857 309.454421 
L 243.392552 305.061241 
L 243.789246 324.697871 
L 244.18594 310.073594 
L 244.582634 333.557942 
L 244.979329 334.81103 
L 245.376023 334.81103 
L 245.772717 317.120373 
L 246.169411 319.007376 
L 246.566105 323.916534 
L 246.9628 316.619137 
L 247.359494 298.898996 
L 247.756188 321.425099 
L 248.549576 323.326845 
L 248.946271 328.236002 
L 249.342965 319.70026 
L 249.739659 321.189224 
L 250.136353 302.879394 
L 250.533048 316.63388 
L 250.929742 326.142608 
L 251.326436 314.186672 
L 251.72313 314.982752 
L 252.119824 322.265406 
L 252.516519 319.921393 
L 252.913213 314.70265 
L 254.103295 314.70265 
L 254.49999 316.530684 
L 254.896684 319.729745 
L 255.293378 321.321904 
L 255.690072 315.911511 
L 256.086767 298.66312 
L 256.483461 309.675555 
L 256.880155 314.157188 
L 257.276849 329.783935 
L 257.673543 329.783935 
L 258.070238 328.250745 
L 258.466932 320.378402 
L 258.863626 321.572521 
L 259.26032 297.483743 
L 259.657014 327.425181 
L 260.053709 290.628614 
L 260.450403 319.611807 
L 260.847097 309.793492 
L 261.243791 304.825366 
L 261.640486 314.112961 
L 262.03718 300.85971 
L 262.433874 326.599617 
L 262.830568 321.02706 
L 263.227262 311.208745 
L 263.623957 288.962743 
L 264.020651 320.7617 
L 264.417345 321.970561 
L 264.814039 308.363497 
L 265.210733 308.319271 
L 265.607428 313.228428 
L 266.004122 297.52797 
L 266.400816 289.567174 
L 266.79751 292.766235 
L 267.194205 282.269778 
L 267.590899 292.264999 
L 267.987593 310.338954 
L 268.780981 297.203641 
L 269.177676 299.621364 
L 269.57437 297.247868 
L 269.971064 305.872063 
L 270.367758 309.041639 
L 270.764452 296.613953 
L 271.161147 299.621364 
L 271.557841 301.405172 
L 271.954535 306.31433 
L 272.351229 305.031757 
L 273.144618 271.861775 
L 273.541312 269.208176 
L 273.938006 284.540079 
L 274.3347 283.581835 
L 274.731395 282.033903 
L 275.128089 290.260058 
L 275.524783 267.453853 
L 275.921477 289.080681 
L 276.318171 281.223081 
L 276.714866 240.549312 
L 277.11156 264.564379 
L 277.508254 269.547247 
L 277.904948 299.002191 
L 278.301643 275.591555 
L 278.698337 265.109841 
L 279.095031 264.431699 
L 279.491725 273.335996 
L 279.888419 265.817467 
L 280.285114 239.134059 
L 280.681808 275.252484 
L 281.078502 276.579283 
L 281.475196 270.623429 
L 281.87189 273.203316 
L 282.268585 270.859304 
L 282.665279 258.932853 
L 283.061973 267.940346 
L 283.458667 254.84926 
L 283.855362 215.929814 
L 284.252056 214.263944 
L 284.64875 250.485564 
L 285.442138 273.15909 
L 285.838833 276.741448 
L 286.235527 266.878906 
L 286.632221 269.458794 
L 287.028915 265.03613 
L 287.42561 267.778182 
L 287.822304 261.733874 
L 288.218998 236.126647 
L 289.409081 263.399744 
L 289.805775 285.925847 
L 290.202469 287.031513 
L 290.599163 282.962662 
L 290.995857 288.402539 
L 291.392552 263.517682 
L 291.789246 264.181081 
L 292.18594 288.210891 
L 292.979329 265.316232 
L 293.376023 275.783204 
L 293.772717 295.007051 
L 294.169411 304.560006 
L 294.566105 299.650849 
L 294.9628 289.862019 
L 295.359494 294.328909 
L 295.756188 252.800092 
L 296.152882 290.083152 
L 296.549576 285.778425 
L 296.946271 275.96011 
L 297.342965 295.346122 
L 297.739659 299.621364 
L 298.136353 279.940508 
L 298.533048 308.849991 
L 298.929742 279.026491 
L 299.326436 293.090563 
L 299.72313 287.326358 
L 300.119824 289.552432 
L 300.516519 307.508449 
L 300.913213 308.481435 
L 301.309907 301.65579 
L 301.706601 311.120292 
L 302.103295 308.702568 
L 302.49999 310.17679 
L 302.896684 322.250663 
L 303.690072 306.933503 
L 304.086767 311.84266 
L 304.880155 277.183714 
L 305.276849 285.94059 
L 305.673543 282.903693 
L 306.466932 323.946018 
L 306.863626 308.334013 
L 307.26032 307.095667 
L 307.657014 311.385651 
L 308.053709 301.596821 
L 308.450403 311.415136 
L 308.847097 315.97048 
L 309.243791 295.8621 
L 309.640486 305.164437 
L 310.03718 309.675555 
L 310.433874 310.515861 
L 310.830568 324.270347 
L 311.227262 309.498648 
L 311.623957 289.862019 
L 312.020651 304.073513 
L 312.417345 304.648459 
L 312.814039 295.449318 
L 313.210733 299.075902 
L 313.607428 295.257669 
L 314.004122 320.068816 
L 314.79751 296.628695 
L 315.194205 306.270103 
L 315.590899 298.353534 
L 315.987593 312.874615 
L 316.384287 305.577219 
L 316.780981 309.881946 
L 317.57437 299.621364 
L 317.971064 311.886887 
L 318.367758 310.884416 
L 318.764452 307.478965 
L 319.161147 306.962987 
L 319.557841 304.648459 
L 319.954535 309.601843 
L 320.351229 312.343895 
L 320.747924 309.675555 
L 321.144618 305.429797 
L 321.541312 295.611482 
L 321.938006 302.776198 
L 322.3347 319.449643 
L 322.731395 312.977811 
L 323.128089 316.663364 
L 323.524783 306.845049 
L 323.921477 303.513309 
L 324.318171 317.061404 
L 324.714866 320.511082 
L 325.11156 305.591961 
L 325.508254 312.152247 
L 325.904948 324.049213 
L 326.301643 316.781302 
L 326.698337 295.06602 
L 327.888419 310.029368 
L 328.285114 324.75684 
L 328.681808 300.211053 
L 329.078502 313.995023 
L 329.475196 281.989676 
L 329.87189 320.511082 
L 330.268585 307.007214 
L 330.665279 308.967928 
L 331.061973 301.272492 
L 331.458667 307.788551 
L 331.855362 305.709899 
L 332.252056 304.648459 
L 332.64875 315.8378 
L 333.045444 319.729745 
L 333.442138 326.717554 
L 333.838833 319.656034 
L 334.235527 308.186591 
L 334.632221 288.948001 
L 335.028915 294.623754 
L 335.42561 304.648459 
L 335.822304 318.579852 
L 336.615692 304.795882 
L 337.012386 307.405254 
L 337.409081 311.194003 
L 337.805775 320.36366 
L 338.202469 320.938606 
L 338.599163 314.098219 
L 338.995857 293.252728 
L 339.392552 303.071043 
L 339.789246 309.675555 
L 340.18594 309.675555 
L 340.582634 308.304529 
L 340.979329 305.901548 
L 341.376023 313.081006 
L 341.772717 322.722414 
L 342.169411 309.306999 
L 342.566105 289.228103 
L 342.9628 311.385651 
L 343.359494 291.749022 
L 343.756188 309.675555 
L 344.152882 308.127622 
L 344.549576 285.881621 
L 344.946271 319.287478 
L 345.342965 289.832534 
L 345.739659 309.026897 
L 346.136353 304.928562 
L 346.533048 318.535625 
L 346.929742 310.70751 
L 347.72313 300.373217 
L 348.119824 299.621364 
L 348.516519 307.700098 
L 348.913213 293.989839 
L 349.309907 312.388122 
L 349.706601 312.358638 
L 350.103295 306.107939 
L 350.49999 297.749103 
L 350.896684 294.594269 
L 351.293378 297.808072 
L 351.690072 302.717229 
L 352.086767 295.714678 
L 352.483461 303.867122 
L 353.276849 322.574992 
L 353.673543 332.290111 
L 354.070238 327.646314 
L 354.466932 306.107939 
L 354.863626 291.719538 
L 355.26032 298.66312 
L 356.053709 320.0983 
L 356.450403 318.019648 
L 356.847097 296.156944 
L 357.243791 295.287153 
L 357.640486 288.520477 
L 358.03718 297.203641 
L 358.433874 291.749022 
L 358.830568 300.594351 
L 359.227262 304.648459 
L 359.623957 303.174238 
L 360.020651 297.690134 
L 360.417345 317.724804 
L 360.814039 301.154555 
L 361.210733 319.729745 
L 361.607428 319.582323 
L 362.004122 314.643681 
L 362.400816 304.825366 
L 362.79751 304.648459 
L 363.194205 281.134628 
L 363.590899 307.021956 
L 363.987593 287.3411 
L 364.384287 301.935892 
L 364.780981 296.186428 
L 365.177676 302.820425 
L 365.57437 300.653319 
L 365.971064 295.744162 
L 366.367758 287.07574 
L 366.764452 291.822733 
L 367.161147 294.594269 
L 367.557841 291.188818 
L 367.954535 289.567174 
L 368.351229 299.075902 
L 368.747924 313.803375 
L 369.144618 316.796044 
L 369.541312 314.70265 
L 369.938006 301.213524 
L 370.3347 302.466612 
L 370.731395 302.392901 
L 371.128089 291.911186 
L 371.524783 290.142121 
L 371.921477 290.864489 
L 372.318171 309.572359 
L 372.714866 311.651011 
L 373.11156 282.54988 
L 373.508254 274.367951 
L 374.301643 314.70265 
L 374.698337 317.267795 
L 375.095031 316.604395 
L 375.491725 292.707266 
L 375.888419 302.79094 
L 376.285114 297.837556 
L 376.681808 311.238229 
L 377.078502 290.142121 
L 377.475196 291.852217 
L 377.87189 262.736344 
L 378.268585 242.392089 
L 378.665279 309.572359 
L 379.458667 299.754044 
L 379.855362 290.06841 
L 380.252056 289.567174 
L 380.64875 280.48597 
L 381.045444 283.935648 
L 381.442138 280.235353 
L 381.838833 279.512984 
L 382.235527 287.650686 
L 382.632221 289.567174 
L 383.028915 289.567174 
L 383.42561 282.137098 
L 384.218998 252.446279 
L 384.615692 286.323887 
L 385.012386 291.675311 
L 385.409081 256.411934 
L 385.805775 257.340694 
L 386.202469 286.795638 
L 386.599163 263.591393 
L 386.995857 247.537121 
L 387.392552 264.475926 
L 387.789246 247.699286 
L 388.18594 240.313436 
L 388.582634 248.495365 
L 388.979329 244.588678 
L 389.376023 249.674742 
L 389.772717 221.472886 
L 390.169411 223.020819 
L 390.566105 269.458794 
L 390.9628 262.087687 
L 391.756188 220.4999 
L 392.152882 216.976511 
L 392.549576 249.335671 
L 392.946271 267.689728 
L 393.342965 256.338223 
L 393.739659 238.647566 
L 394.533048 227.104412 
L 394.929742 259.699448 
L 395.326436 262.485727 
L 395.72313 209.133653 
L 396.119824 209.133653 
L 396.516519 238.234784 
L 396.913213 239.296224 
L 397.309907 239.296224 
L 398.103295 211.079625 
L 398.49999 247.478152 
L 398.896684 237.80726 
L 399.293378 254.392251 
L 399.690072 263.311291 
L 400.086767 264.431699 
L 400.483461 257.090076 
L 400.880155 265.03613 
L 401.276849 283.198538 
L 401.673543 279.61618 
L 402.070238 252.092466 
L 402.466932 245.458469 
L 402.863626 243.424044 
L 403.26032 253.52246 
L 403.657014 239.885912 
L 404.053709 234.844075 
L 405.243791 289.051197 
L 406.03718 272.510432 
L 406.433874 276.933097 
L 406.830568 266.215507 
L 407.227262 269.458794 
L 407.623957 275.650524 
L 408.020651 296.717148 
L 408.417345 297.645908 
L 408.814039 256.51513 
L 409.210733 274.132076 
L 409.607428 251.502777 
L 410.004122 249.379898 
L 410.400816 293.842416 
L 410.79751 263.031189 
L 411.194205 288.594188 
L 411.590899 279.512984 
L 411.987593 279.262366 
L 412.384287 274.751249 
L 412.780981 284.525337 
L 413.177676 279.61618 
L 413.57437 289.124908 
L 413.971064 308.319271 
L 414.367758 305.105468 
L 414.764452 286.839865 
L 415.161147 284.540079 
L 415.557841 284.540079 
L 415.954535 276.343408 
L 416.351229 298.368276 
L 416.747924 277.611238 
L 417.144618 284.436884 
L 417.541312 296.820344 
L 417.938006 303.130011 
L 418.3347 294.476332 
L 418.731395 269.930545 
L 419.128089 272.023939 
L 419.524783 276.476088 
L 419.921477 274.485889 
L 420.318171 277.28691 
L 420.714866 298.294565 
L 421.11156 307.007214 
L 421.508254 297.174157 
L 421.904948 301.582079 
L 422.698337 268.190964 
L 423.095031 296.569726 
L 423.888419 291.498404 
L 424.285114 306.270103 
L 424.681808 306.668143 
L 425.475196 279.601437 
L 425.87189 306.225876 
L 426.268585 297.690134 
L 426.665279 303.277434 
L 427.061973 274.485889 
L 427.458667 275.164031 
L 427.855362 283.994617 
L 428.252056 317.960679 
L 428.64875 298.648378 
L 429.045444 285.984816 
L 429.442138 319.287478 
L 429.838833 294.741691 
L 430.235527 294.594269 
L 430.632221 313.64121 
L 431.028915 314.70265 
L 431.42561 296.59921 
L 431.822304 290.186347 
L 432.218998 280.987206 
L 432.615692 279.512984 
L 433.012386 311.945856 
L 433.409081 300.048889 
L 433.805775 294.594269 
L 434.202469 320.49634 
L 434.599163 304.707428 
L 435.392552 297.955494 
L 435.789246 291.365724 
L 436.18594 302.009603 
L 436.582634 303.690216 
L 436.979329 296.746633 
L 437.376023 297.351063 
L 437.772717 294.343652 
L 438.169411 297.12993 
L 438.566105 311.857402 
L 438.9628 312.874615 
L 439.359494 295.980037 
L 439.756188 288.638415 
L 440.152882 290.731809 
L 440.549576 284.540079 
L 441.342965 291.439435 
L 442.136353 274.485889 
L 442.533048 279.380304 
L 442.929742 293.488603 
L 443.326436 290.554903 
L 443.72313 294.594269 
L 444.119824 291.586858 
L 444.516519 274.485889 
L 444.913213 274.485889 
L 445.309907 275.281969 
L 446.103295 294.269941 
L 446.49999 284.672759 
L 446.896684 299.400231 
L 447.293378 280.279579 
L 447.690072 303.100527 
L 448.086767 300.048889 
L 448.483461 295.139731 
L 449.276849 261.748616 
L 449.673543 300.682804 
L 450.070238 289.626143 
L 450.466932 296.215913 
L 450.863626 310.943385 
L 451.26032 307.390511 
L 451.657014 251.576488 
L 452.053709 273.704552 
L 452.450403 311.105549 
L 452.847097 306.992472 
L 453.243791 305.754126 
L 453.640486 306.727112 
L 454.03718 287.665429 
L 454.433874 288.048726 
L 454.830568 291.837475 
L 455.227262 284.540079 
L 455.623957 282.181325 
L 456.020651 281.753801 
L 456.417345 269.679927 
L 456.814039 267.394884 
L 457.210733 294.594269 
L 458.004122 294.594269 
L 458.400816 296.12746 
L 458.79751 296.790859 
L 459.194205 284.377915 
L 459.590899 282.431943 
L 459.987593 315.203885 
L 460.384287 277.625981 
L 460.780981 276.063306 
L 461.177676 309.675555 
L 461.57437 306.727112 
L 461.971064 285.955332 
L 462.367758 297.144672 
L 462.764452 266.318702 
L 463.161147 304.294646 
L 463.557841 289.567174 
L 463.557841 289.567174 
" clip-path="url(#pf2fbbafd4d)" style="fill: none; stroke: #2ca02c; stroke-width: 2; stroke-linecap: square"/>
   </g>
   <g id="line2d_19">
    <path d="M 57.739659 339.838125 
L 138.665279 339.736858 
L 142.235527 339.512681 
L 144.615692 339.180988 
L 146.599163 338.712648 
L 148.582634 337.991898 
L 150.169411 337.178749 
L 151.756188 336.111434 
L 153.342965 334.757347 
L 154.929742 333.098872 
L 156.516519 331.140955 
L 158.49999 328.327722 
L 162.070238 322.727064 
L 164.450403 319.208262 
L 166.03718 317.257567 
L 167.227262 316.105756 
L 168.417345 315.277216 
L 169.210733 314.923378 
L 170.004122 314.737196 
L 170.79751 314.722485 
L 171.590899 314.879562 
L 172.384287 315.205233 
L 173.57437 315.994555 
L 174.764452 317.112311 
L 175.954535 318.509802 
L 177.541312 320.707437 
L 180.318171 325.032631 
L 183.491725 329.871612 
L 185.475196 332.477738 
L 187.061973 334.238509 
L 188.64875 335.693683 
L 190.235527 336.85405 
L 191.822304 337.747996 
L 193.409081 338.413748 
L 195.392552 338.988999 
L 197.772717 339.406805 
L 200.549576 339.657147 
L 204.913213 339.799152 
L 215.623957 339.837752 
L 251.326436 339.739089 
L 254.896684 339.518751 
L 257.276849 339.192972 
L 259.26032 338.732456 
L 261.243791 338.022225 
L 262.830568 337.21858 
L 264.417345 336.162147 
L 266.004122 334.819904 
L 267.590899 333.173561 
L 269.177676 331.227155 
L 271.161147 328.425739 
L 274.731395 322.830819 
L 277.11156 319.296003 
L 278.698337 317.32728 
L 279.888419 316.159206 
L 281.078502 315.312293 
L 282.268585 314.824303 
L 283.061973 314.71001 
L 283.855362 314.767756 
L 284.64875 314.996344 
L 285.838833 315.64842 
L 287.028915 316.644115 
L 288.218998 317.939475 
L 289.805775 320.036177 
L 292.18594 323.66565 
L 296.152882 329.779019 
L 298.136353 332.398604 
L 299.72313 334.171393 
L 301.309907 335.63861 
L 302.896684 336.810282 
L 304.483461 337.714284 
L 306.070238 338.388852 
L 308.053709 338.973476 
L 310.433874 339.398671 
L 313.210733 339.653402 
L 317.57437 339.79816 
L 328.285114 339.837741 
L 363.987593 339.741473 
L 367.557841 339.525231 
L 370.3347 339.12987 
L 372.318171 338.632627 
L 373.904948 338.049552 
L 375.491725 337.256371 
L 377.078502 336.212322 
L 378.665279 334.883791 
L 380.252056 333.249992 
L 381.838833 331.314901 
L 383.822304 328.524731 
L 386.995857 323.561129 
L 389.376023 319.942463 
L 390.9628 317.860218 
L 392.152882 316.579212 
L 393.342965 315.600417 
L 394.533048 314.967194 
L 395.326436 314.751907 
L 396.119824 314.708304 
L 396.913213 314.838353 
L 397.706601 315.137767 
L 398.896684 315.890153 
L 400.086767 316.975141 
L 401.276849 318.345165 
L 402.863626 320.514446 
L 405.640486 324.822186 
L 408.814039 329.684115 
L 410.79751 332.318804 
L 412.384287 334.105504 
L 413.971064 335.585249 
L 415.557841 336.768052 
L 417.144618 337.681864 
L 418.731395 338.364697 
L 420.714866 338.957437 
L 423.095031 339.389436 
L 425.87189 339.649255 
L 430.235527 339.797248 
L 440.549576 339.837641 
L 463.557841 339.838125 
L 463.557841 339.838125 
" clip-path="url(#pf2fbbafd4d)" style="fill: none; stroke: #d62728; stroke-width: 2; stroke-linecap: square"/>
   </g>
   <g id="patch_3">
    <path d="M 37.44875 354.958125 
L 37.44875 22.318125 
" style="fill: none; stroke: #000000; stroke-width: 0.8; stroke-linejoin: miter; stroke-linecap: square"/>
   </g>
   <g id="patch_4">
    <path d="M 483.84875 354.958125 
L 483.84875 22.318125 
" style="fill: none; stroke: #000000; stroke-width: 0.8; stroke-linejoin: miter; stroke-linecap: square"/>
   </g>
   <g id="patch_5">
    <path d="M 37.44875 354.958125 
L 483.84875 354.958125 
" style="fill: none; stroke: #000000; stroke-width: 0.8; stroke-linejoin: miter; stroke-linecap: square"/>
   </g>
   <g id="patch_6">
    <path d="M 37.44875 22.318125 
L 483.84875 22.318125 
" style="fill: none; stroke: #000000; stroke-width: 0.8; stroke-linejoin: miter; stroke-linecap: square"/>
   </g>
   <g id="text_18">
    <!-- Collection of 4 signals -->
    <g transform="translate(194.775313 16.318125) scale(0.12 -0.12)">
     <defs>
      <path id="DejaVuSans-43" d="M 4122 4306 
L 4122 3641 
Q 3803 3938 3442 4084 
Q 3081 4231 2675 4231 
Q 1875 4231 1450 3742 
Q 1025 3253 1025 2328 
Q 1025 1406 1450 917 
Q 1875 428 2675 428 
Q 3081 428 3442 575 
Q 3803 722 4122 1019 
L 4122 359 
Q 3791 134 3420 21 
Q 3050 -91 2638 -91 
Q 1578 -91 968 557 
Q 359 1206 359 2328 
Q 359 3453 968 4101 
Q 1578 4750 2638 4750 
Q 3056 4750 3426 4639 
Q 3797 4528 4122 4306 
z
" transform="scale(0.015625)"/>
      <path id="DejaVuSans-6f" d="M 1959 3097 
Q 1497 3097 1228 2736 
Q 959 2375 959 1747 
Q 959 1119 1226 758 
Q 1494 397 1959 397 
Q 2419 397 2687 759 
Q 2956 1122 2956 1747 
Q 2956 2369 2687 2733 
Q 2419 3097 1959 3097 
z
M 1959 3584 
Q 2709 3584 3137 3096 
Q 3566 2609 3566 1747 
Q 3566 888 3137 398 
Q 2709 -91 1959 -91 
Q 1206 -91 779 398 
Q 353 888 353 1747 
Q 353 2609 779 3096 
Q 1206 3584 1959 3584 
z
" transform="scale(0.015625)"/>
      <path id="DejaVuSans-6c" d="M 603 4863 
L 1178 4863 
L 1178 0 
L 603 0 
L 603 4863 
z
" transform="scale(0.015625)"/>
      <path id="DejaVuSans-63" d="M 3122 3366 
L 3122 2828 
Q 2878 2963 2633 3030 
Q 2388 3097 2138 3097 
Q 1578 3097 1268 2742 
Q 959 2388 959 1747 
Q 959 1106 1268 751 
Q 1578 397 2138 397 
Q 2388 397 2633 464 
Q 2878 531 3122 666 
L 3122 134 
Q 2881 22 2623 -34 
Q 2366 -91 2075 -91 
Q 1284 -91 818 406 
Q 353 903 353 1747 
Q 353 2603 823 3093 
Q 1294 3584 2113 3584 
Q 2378 3584 2631 3529 
Q 2884 3475 3122 3366 
z
" transform="scale(0.015625)"/>
      <path id="DejaVuSans-66" d="M 2375 4863 
L 2375 4384 
L 1825 4384 
Q 1516 4384 1395 4259 
Q 1275 4134 1275 3809 
L 1275 3500 
L 2222 3500 
L 2222 3053 
L 1275 3053 
L 1275 0 
L 697 0 
L 697 3053 
L 147 3053 
L 147 3500 
L 697 3500 
L 697 3744 
Q 697 4328 969 4595 
Q 1241 4863 1831 4863 
L 2375 4863 
z
" transform="scale(0.015625)"/>
      <path id="DejaVuSans-67" d="M 2906 1791 
Q 2906 2416 2648 2759 
Q 2391 3103 1925 3103 
Q 1463 3103 1205 2759 
Q 947 2416 947 1791 
Q 947 1169 1205 825 
Q 1463 481 1925 481 
Q 2391 481 2648 825 
Q 2906 1169 2906 1791 
z
M 3481 434 
Q 3481 -459 3084 -895 
Q 2688 -1331 1869 -1331 
Q 1566 -1331 1297 -1286 
Q 1028 -1241 775 -1147 
L 775 -588 
Q 1028 -725 1275 -790 
Q 1522 -856 1778 -856 
Q 2344 -856 2625 -561 
Q 2906 -266 2906 331 
L 2906 616 
Q 2728 306 2450 153 
Q 2172 0 1784 0 
Q 1141 0 747 490 
Q 353 981 353 1791 
Q 353 2603 747 3093 
Q 1141 3584 1784 3584 
Q 2172 3584 2450 3431 
Q 2728 3278 2906 2969 
L 2906 3500 
L 3481 3500 
L 3481 434 
z
" transform="scale(0.015625)"/>
     </defs>
     <use xlink:href="#DejaVuSans-43"/>
     <use xlink:href="#DejaVuSans-6f" transform="translate(69.824219 0)"/>
     <use xlink:href="#DejaVuSans-6c" transform="translate(131.005859 0)"/>
     <use xlink:href="#DejaVuSans-6c" transform="translate(158.789062 0)"/>
     <use xlink:href="#DejaVuSans-65" transform="translate(186.572266 0)"/>
     <use xlink:href="#DejaVuSans-63" transform="translate(248.095703 0)"/>
     <use xlink:href="#DejaVuSans-74" transform="translate(303.076172 0)"/>
     <use xlink:href="#DejaVuSans-69" transform="translate(342.285156 0)"/>
     <use xlink:href="#DejaVuSans-6f" transform="translate(370.068359 0)"/>
     <use xlink:href="#DejaVuSans-6e" transform="translate(431.25 0)"/>
     <use xlink:href="#DejaVuSans-20" transform="translate(494.628906 0)"/>
     <use xlink:href="#DejaVuSans-6f" transform="translate(526.416016 0)"/>
     <use xlink:href="#DejaVuSans-66" transform="translate(587.597656 0)"/>
     <use xlink:href="#DejaVuSans-20" transform="translate(622.802734 0)"/>
     <use xlink:href="#DejaVuSans-34" transform="translate(654.589844 0)"/>
     <use xlink:href="#DejaVuSans-20" transform="translate(718.212891 0)"/>
     <use xlink:href="#DejaVuSans-73" transform="translate(750 0)"/>
     <use xlink:href="#DejaVuSans-69" transform="translate(802.099609 0)"/>
     <use xlink:href="#DejaVuSans-67" transform="translate(829.882812 0)"/>
     <use xlink:href="#DejaVuSans-6e" transform="translate(893.359375 0)"/>
     <use xlink:href="#DejaVuSans-61" transform="translate(956.738281 0)"/>
     <use xlink:href="#DejaVuSans-6c" transform="translate(1018.017578 0)"/>
     <use xlink:href="#DejaVuSans-73" transform="translate(1045.800781 0)"/>
    </g>
   </g>
   <g id="legend_1">
    <g id="patch_7">
     <path d="M 45.84875 226.333125 
L 195.695 226.333125 
Q 198.095 226.333125 198.095 223.933125 
L 198.095 153.343125 
Q 198.095 150.943125 195.695 150.943125 
L 45.84875 150.943125 
Q 43.44875 150.943125 43.44875 153.343125 
L 43.44875 223.933125 
Q 43.44875 226.333125 45.84875 226.333125 
z
" style="fill: #ffffff; opacity: 0.8; stroke: #cccccc; stroke-linejoin: miter"/>
    </g>
    <g id="line2d_20">
     <path d="M 48.24875 160.66125 
L 60.24875 160.66125 
L 72.24875 160.66125 
" style="fill: none; stroke: #1f77b4; stroke-width: 2; stroke-linecap: square"/>
    </g>
    <g id="text_19">
     <!-- from_peaks -->
     <g transform="translate(81.84875 164.86125) scale(0.12 -0.12)">
      <defs>
       <path id="DejaVuSans-72" d="M 2631 2963 
Q 2534 3019 2420 3045 
Q 2306 3072 2169 3072 
Q 1681 3072 1420 2755 
Q 1159 2438 1159 1844 
L 1159 0 
L 581 0 
L 581 3500 
L 1159 3500 
L 1159 2956 
Q 1341 3275 1631 3429 
Q 1922 3584 2338 3584 
Q 2397 3584 2469 3576 
Q 2541 3569 2628 3553 
L 2631 2963 
z
" transform="scale(0.015625)"/>
       <path id="DejaVuSans-6d" d="M 3328 2828 
Q 3544 3216 3844 3400 
Q 4144 3584 4550 3584 
Q 5097 3584 5394 3201 
Q 5691 2819 5691 2113 
L 5691 0 
L 5113 0 
L 5113 2094 
Q 5113 2597 4934 2840 
Q 4756 3084 4391 3084 
Q 3944 3084 3684 2787 
Q 3425 2491 3425 1978 
L 3425 0 
L 2847 0 
L 2847 2094 
Q 2847 2600 2669 2842 
Q 2491 3084 2119 3084 
Q 1678 3084 1418 2786 
Q 1159 2488 1159 1978 
L 1159 0 
L 581 0 
L 581 3500 
L 1159 3500 
L 1159 2956 
Q 1356 3278 1631 3431 
Q 1906 3584 2284 3584 
Q 2666 3584 2933 3390 
Q 3200 3197 3328 2828 
z
" transform="scale(0.015625)"/>
       <path id="DejaVuSans-5f" d="M 3263 -1063 
L 3263 -1509 
L -63 -1509 
L -63 -1063 
L 3263 -1063 
z
" transform="scale(0.015625)"/>
       <path id="DejaVuSans-70" d="M 1159 525 
L 1159 -1331 
L 581 -1331 
L 581 3500 
L 1159 3500 
L 1159 2969 
Q 1341 3281 1617 3432 
Q 1894 3584 2278 3584 
Q 2916 3584 3314 3078 
Q 3713 2572 3713 1747 
Q 3713 922 3314 415 
Q 2916 -91 2278 -91 
Q 1894 -91 1617 61 
Q 1341 213 1159 525 
z
M 3116 1747 
Q 3116 2381 2855 2742 
Q 2594 3103 2138 3103 
Q 1681 3103 1420 2742 
Q 1159 2381 1159 1747 
Q 1159 1113 1420 752 
Q 1681 391 2138 391 
Q 2594 391 2855 752 
Q 3116 1113 3116 1747 
z
" transform="scale(0.015625)"/>
       <path id="DejaVuSans-6b" d="M 581 4863 
L 1159 4863 
L 1159 1991 
L 2875 3500 
L 3609 3500 
L 1753 1863 
L 3688 0 
L 2938 0 
L 1159 1709 
L 1159 0 
L 581 0 
L 581 4863 
z
" transform="scale(0.015625)"/>
      </defs>
      <use xlink:href="#DejaVuSans-66"/>
      <use xlink:href="#DejaVuSans-72" transform="translate(35.205078 0)"/>
      <use xlink:href="#DejaVuSans-6f" transform="translate(74.068359 0)"/>
      <use xlink:href="#DejaVuSans-6d" transform="translate(135.25 0)"/>
      <use xlink:href="#DejaVuSans-5f" transform="translate(232.662109 0)"/>
      <use xlink:href="#DejaVuSans-70" transform="translate(282.662109 0)"/>
      <use xlink:href="#DejaVuSans-65" transform="translate(346.138672 0)"/>
      <use xlink:href="#DejaVuSans-61" transform="translate(407.662109 0)"/>
      <use xlink:href="#DejaVuSans-6b" transform="translate(468.941406 0)"/>
      <use xlink:href="#DejaVuSans-73" transform="translate(526.851562 0)"/>
     </g>
    </g>
    <g id="line2d_21">
     <path d="M 48.24875 178.60875 
L 60.24875 178.60875 
L 72.24875 178.60875 
" style="fill: none; stroke: #ff7f0e; stroke-width: 2; stroke-linecap: square"/>
    </g>
    <g id="text_20">
     <!-- from_peaks+noise -->
     <g transform="translate(81.84875 182.80875) scale(0.12 -0.12)">
      <defs>
       <path id="DejaVuSans-2b" d="M 2944 4013 
L 2944 2272 
L 4684 2272 
L 4684 1741 
L 2944 1741 
L 2944 0 
L 2419 0 
L 2419 1741 
L 678 1741 
L 678 2272 
L 2419 2272 
L 2419 4013 
L 2944 4013 
z
" transform="scale(0.015625)"/>
      </defs>
      <use xlink:href="#DejaVuSans-66"/>
      <use xlink:href="#DejaVuSans-72" transform="translate(35.205078 0)"/>
      <use xlink:href="#DejaVuSans-6f" transform="translate(74.068359 0)"/>
      <use xlink:href="#DejaVuSans-6d" transform="translate(135.25 0)"/>
      <use xlink:href="#DejaVuSans-5f" transform="translate(232.662109 0)"/>
      <use xlink:href="#DejaVuSans-70" transform="translate(282.662109 0)"/>
      <use xlink:href="#DejaVuSans-65" transform="translate(346.138672 0)"/>
      <use xlink:href="#DejaVuSans-61" transform="translate(407.662109 0)"/>
      <use xlink:href="#DejaVuSans-6b" transform="translate(468.941406 0)"/>
      <use xlink:href="#DejaVuSans-73" transform="translate(526.851562 0)"/>
      <use xlink:href="#DejaVuSans-2b" transform="translate(578.951172 0)"/>
      <use xlink:href="#DejaVuSans-6e" transform="translate(662.740234 0)"/>
      <use xlink:href="#DejaVuSans-6f" transform="translate(726.119141 0)"/>
      <use xlink:href="#DejaVuSans-69" transform="translate(787.300781 0)"/>
      <use xlink:href="#DejaVuSans-73" transform="translate(815.083984 0)"/>
      <use xlink:href="#DejaVuSans-65" transform="translate(867.183594 0)"/>
     </g>
    </g>
    <g id="line2d_22">
     <path d="M 48.24875 196.55625 
L 60.24875 196.55625 
L 72.24875 196.55625 
" style="fill: none; stroke: #2ca02c; stroke-width: 2; stroke-linecap: square"/>
    </g>
    <g id="text_21">
     <!-- from_peaks+noise -->
     <g transform="translate(81.84875 200.75625) scale(0.12 -0.12)">
      <use xlink:href="#DejaVuSans-66"/>
      <use xlink:href="#DejaVuSans-72" transform="translate(35.205078 0)"/>
      <use xlink:href="#DejaVuSans-6f" transform="translate(74.068359 0)"/>
      <use xlink:href="#DejaVuSans-6d" transform="translate(135.25 0)"/>
      <use xlink:href="#DejaVuSans-5f" transform="translate(232.662109 0)"/>
      <use xlink:href="#DejaVuSans-70" transform="translate(282.662109 0)"/>
      <use xlink:href="#DejaVuSans-65" transform="translate(346.138672 0)"/>
      <use xlink:href="#DejaVuSans-61" transform="translate(407.662109 0)"/>
      <use xlink:href="#DejaVuSans-6b" transform="translate(468.941406 0)"/>
      <use xlink:href="#DejaVuSans-73" transform="translate(526.851562 0)"/>
      <use xlink:href="#DejaVuSans-2b" transform="translate(578.951172 0)"/>
      <use xlink:href="#DejaVuSans-6e" transform="translate(662.740234 0)"/>
      <use xlink:href="#DejaVuSans-6f" transform="translate(726.119141 0)"/>
      <use xlink:href="#DejaVuSans-69" transform="translate(787.300781 0)"/>
      <use xlink:href="#DejaVuSans-73" transform="translate(815.083984 0)"/>
      <use xlink:href="#DejaVuSans-65" transform="translate(867.183594 0)"/>
     </g>
    </g>
    <g id="line2d_23">
     <path d="M 48.24875 214.50375 
L 60.24875 214.50375 
L 72.24875 214.50375 
" style="fill: none; stroke: #d62728; stroke-width: 2; stroke-linecap: square"/>
    </g>
    <g id="text_22">
     <!-- from_peaks -->
     <g transform="translate(81.84875 218.70375) scale(0.12 -0.12)">
      <use xlink:href="#DejaVuSans-66"/>
      <use xlink:href="#DejaVuSans-72" transform="translate(35.205078 0)"/>
      <use xlink:href="#DejaVuSans-6f" transform="translate(74.068359 0)"/>
      <use xlink:href="#DejaVuSans-6d" transform="translate(135.25 0)"/>
      <use xlink:href="#DejaVuSans-5f" transform="translate(232.662109 0)"/>
      <use xlink:href="#DejaVuSans-70" transform="translate(282.662109 0)"/>
      <use xlink:href="#DejaVuSans-65" transform="translate(346.138672 0)"/>
      <use xlink:href="#DejaVuSans-61" transform="translate(407.662109 0)"/>
      <use xlink:href="#DejaVuSans-6b" transform="translate(468.941406 0)"/>
      <use xlink:href="#DejaVuSans-73" transform="translate(526.851562 0)"/>
     </g>
    </g>
   </g>
  </g>
 </g>
 <defs>
  <clipPath id="pf2fbbafd4d">
   <rect x="37.44875" y="22.318125" width="446.4" height="332.64"/>
  </clipPath>
 </defs>
</svg>
