<?xml version="1.0" encoding="utf-8" standalone="no"?>
<!DOCTYPE svg PUBLIC "-//W3C//DTD SVG 1.1//EN"
  "http://www.w3.org/Graphics/SVG/1.1/DTD/svg11.dtd">
<svg xmlns:xlink="http://www.w3.org/1999/xlink" width="491.04875pt" height="396.385625pt" viewBox="0 0 491.04875 396.385625" xmlns="http://www.w3.org/2000/svg" version="1.1">
 <metadata>
  <rdf:RDF xmlns:dc="http://purl.org/dc/elements/1.1/" xmlns:cc="http://creativecommons.org/ns#" xmlns:rdf="http://www.w3.org/1999/02/22-rdf-syntax-ns#">
   <cc:Work>
    <dc:type rdf:resource="http://purl.org/dc/dcmitype/StillImage"/>
    <dc:date>2025-05-27T21:42:00.218536</dc:date>
    <dc:format>image/svg+xml</dc:format>
    <dc:creator>
     <cc:Agent>
      <dc:title>Matplotlib v3.10.0, https://matplotlib.org/</dc:title>
     </cc:Agent>
    </dc:creator>
   </cc:Work>
  </rdf:RDF>
 </metadata>
 <defs>
  <style type="text/css">*{stroke-linejoin: round; stroke-linecap: butt}</style>
 </defs>
 <g id="figure_1">
  <g id="patch_1">
   <path d="M 0 396.385625 
L 491.04875 396.385625 
L 491.04875 0 
L 0 0 
z
" style="fill: #ffffff"/>
  </g>
  <g id="axes_1">
   <g id="patch_2">
    <path d="M 37.44875 354.958125 
L 483.84875 354.958125 
L 483.84875 22.318125 
L 37.44875 22.318125 
z
" style="fill: #ffffff"/>
   </g>
   <g id="matplotlib.axis_1">
    <g id="xtick_1">
     <g id="line2d_1">
      <defs>
       <path id="m8afd168ad0" d="M 0 0 
L 0 3.5 
" style="stroke: #000000; stroke-width: 0.8"/>
      </defs>
      <g>
       <use xlink:href="#m8afd168ad0" x="57.739659" y="354.958125" style="stroke: #000000; stroke-width: 0.8"/>
      </g>
     </g>
     <g id="text_1">
      <!-- 0 -->
      <g transform="translate(53.922159 371.07625) scale(0.12 -0.12)">
       <defs>
        <path id="DejaVuSans-30" d="M 2034 4250 
Q 1547 4250 1301 3770 
Q 1056 3291 1056 2328 
Q 1056 1369 1301 889 
Q 1547 409 2034 409 
Q 2525 409 2770 889 
Q 3016 1369 3016 2328 
Q 3016 3291 2770 3770 
Q 2525 4250 2034 4250 
z
M 2034 4750 
Q 2819 4750 3233 4129 
Q 3647 3509 3647 2328 
Q 3647 1150 3233 529 
Q 2819 -91 2034 -91 
Q 1250 -91 836 529 
Q 422 1150 422 2328 
Q 422 3509 836 4129 
Q 1250 4750 2034 4750 
z
" transform="scale(0.015625)"/>
       </defs>
       <use xlink:href="#DejaVuSans-30"/>
      </g>
     </g>
    </g>
    <g id="xtick_2">
     <g id="line2d_2">
      <g>
       <use xlink:href="#m8afd168ad0" x="114.103295" y="354.958125" style="stroke: #000000; stroke-width: 0.8"/>
      </g>
     </g>
     <g id="text_2">
      <!-- 5 -->
      <g transform="translate(110.285795 371.07625) scale(0.12 -0.12)">
       <defs>
        <path id="DejaVuSans-35" d="M 691 4666 
L 3169 4666 
L 3169 4134 
L 1269 4134 
L 1269 2991 
Q 1406 3038 1543 3061 
Q 1681 3084 1819 3084 
Q 2600 3084 3056 2656 
Q 3513 2228 3513 1497 
Q 3513 744 3044 326 
Q 2575 -91 1722 -91 
Q 1428 -91 1123 -41 
Q 819 9 494 109 
L 494 744 
Q 775 591 1075 516 
Q 1375 441 1709 441 
Q 2250 441 2565 725 
Q 2881 1009 2881 1497 
Q 2881 1984 2565 2268 
Q 2250 2553 1709 2553 
Q 1456 2553 1204 2497 
Q 953 2441 691 2322 
L 691 4666 
z
" transform="scale(0.015625)"/>
       </defs>
       <use xlink:href="#DejaVuSans-35"/>
      </g>
     </g>
    </g>
    <g id="xtick_3">
     <g id="line2d_3">
      <g>
       <use xlink:href="#m8afd168ad0" x="170.466932" y="354.958125" style="stroke: #000000; stroke-width: 0.8"/>
      </g>
     </g>
     <g id="text_3">
      <!-- 10 -->
      <g transform="translate(162.831932 371.07625) scale(0.12 -0.12)">
       <defs>
        <path id="DejaVuSans-31" d="M 794 531 
L 1825 531 
L 1825 4091 
L 703 3866 
L 703 4441 
L 1819 4666 
L 2450 4666 
L 2450 531 
L 3481 531 
L 3481 0 
L 794 0 
L 794 531 
z
" transform="scale(0.015625)"/>
       </defs>
       <use xlink:href="#DejaVuSans-31"/>
       <use xlink:href="#DejaVuSans-30" transform="translate(63.623047 0)"/>
      </g>
     </g>
    </g>
    <g id="xtick_4">
     <g id="line2d_4">
      <g>
       <use xlink:href="#m8afd168ad0" x="226.830568" y="354.958125" style="stroke: #000000; stroke-width: 0.8"/>
      </g>
     </g>
     <g id="text_4">
      <!-- 15 -->
      <g transform="translate(219.195568 371.07625) scale(0.12 -0.12)">
       <use xlink:href="#DejaVuSans-31"/>
       <use xlink:href="#DejaVuSans-35" transform="translate(63.623047 0)"/>
      </g>
     </g>
    </g>
    <g id="xtick_5">
     <g id="line2d_5">
      <g>
       <use xlink:href="#m8afd168ad0" x="283.194205" y="354.958125" style="stroke: #000000; stroke-width: 0.8"/>
      </g>
     </g>
     <g id="text_5">
      <!-- 20 -->
      <g transform="translate(275.559205 371.07625) scale(0.12 -0.12)">
       <defs>
        <path id="DejaVuSans-32" d="M 1228 531 
L 3431 531 
L 3431 0 
L 469 0 
L 469 531 
Q 828 903 1448 1529 
Q 2069 2156 2228 2338 
Q 2531 2678 2651 2914 
Q 2772 3150 2772 3378 
Q 2772 3750 2511 3984 
Q 2250 4219 1831 4219 
Q 1534 4219 1204 4116 
Q 875 4013 500 3803 
L 500 4441 
Q 881 4594 1212 4672 
Q 1544 4750 1819 4750 
Q 2544 4750 2975 4387 
Q 3406 4025 3406 3419 
Q 3406 3131 3298 2873 
Q 3191 2616 2906 2266 
Q 2828 2175 2409 1742 
Q 1991 1309 1228 531 
z
" transform="scale(0.015625)"/>
       </defs>
       <use xlink:href="#DejaVuSans-32"/>
       <use xlink:href="#DejaVuSans-30" transform="translate(63.623047 0)"/>
      </g>
     </g>
    </g>
    <g id="xtick_6">
     <g id="line2d_6">
      <g>
       <use xlink:href="#m8afd168ad0" x="339.557841" y="354.958125" style="stroke: #000000; stroke-width: 0.8"/>
      </g>
     </g>
     <g id="text_6">
      <!-- 25 -->
      <g transform="translate(331.922841 371.07625) scale(0.12 -0.12)">
       <use xlink:href="#DejaVuSans-32"/>
       <use xlink:href="#DejaVuSans-35" transform="translate(63.623047 0)"/>
      </g>
     </g>
    </g>
    <g id="xtick_7">
     <g id="line2d_7">
      <g>
       <use xlink:href="#m8afd168ad0" x="395.921477" y="354.958125" style="stroke: #000000; stroke-width: 0.8"/>
      </g>
     </g>
     <g id="text_7">
      <!-- 30 -->
      <g transform="translate(388.286477 371.07625) scale(0.12 -0.12)">
       <defs>
        <path id="DejaVuSans-33" d="M 2597 2516 
Q 3050 2419 3304 2112 
Q 3559 1806 3559 1356 
Q 3559 666 3084 287 
Q 2609 -91 1734 -91 
Q 1441 -91 1130 -33 
Q 819 25 488 141 
L 488 750 
Q 750 597 1062 519 
Q 1375 441 1716 441 
Q 2309 441 2620 675 
Q 2931 909 2931 1356 
Q 2931 1769 2642 2001 
Q 2353 2234 1838 2234 
L 1294 2234 
L 1294 2753 
L 1863 2753 
Q 2328 2753 2575 2939 
Q 2822 3125 2822 3475 
Q 2822 3834 2567 4026 
Q 2313 4219 1838 4219 
Q 1578 4219 1281 4162 
Q 984 4106 628 3988 
L 628 4550 
Q 988 4650 1302 4700 
Q 1616 4750 1894 4750 
Q 2613 4750 3031 4423 
Q 3450 4097 3450 3541 
Q 3450 3153 3228 2886 
Q 3006 2619 2597 2516 
z
" transform="scale(0.015625)"/>
       </defs>
       <use xlink:href="#DejaVuSans-33"/>
       <use xlink:href="#DejaVuSans-30" transform="translate(63.623047 0)"/>
      </g>
     </g>
    </g>
    <g id="xtick_8">
     <g id="line2d_8">
      <g>
       <use xlink:href="#m8afd168ad0" x="452.285114" y="354.958125" style="stroke: #000000; stroke-width: 0.8"/>
      </g>
     </g>
     <g id="text_8">
      <!-- 35 -->
      <g transform="translate(444.650114 371.07625) scale(0.12 -0.12)">
       <use xlink:href="#DejaVuSans-33"/>
       <use xlink:href="#DejaVuSans-35" transform="translate(63.623047 0)"/>
      </g>
     </g>
    </g>
    <g id="text_9">
     <!-- index [-] -->
     <g transform="translate(235.47875 386.69) scale(0.12 -0.12)">
      <defs>
       <path id="DejaVuSans-69" d="M 603 3500 
L 1178 3500 
L 1178 0 
L 603 0 
L 603 3500 
z
M 603 4863 
L 1178 4863 
L 1178 4134 
L 603 4134 
L 603 4863 
z
" transform="scale(0.015625)"/>
       <path id="DejaVuSans-6e" d="M 3513 2113 
L 3513 0 
L 2938 0 
L 2938 2094 
Q 2938 2591 2744 2837 
Q 2550 3084 2163 3084 
Q 1697 3084 1428 2787 
Q 1159 2491 1159 1978 
L 1159 0 
L 581 0 
L 581 3500 
L 1159 3500 
L 1159 2956 
Q 1366 3272 1645 3428 
Q 1925 3584 2291 3584 
Q 2894 3584 3203 3211 
Q 3513 2838 3513 2113 
z
" transform="scale(0.015625)"/>
       <path id="DejaVuSans-64" d="M 2906 2969 
L 2906 4863 
L 3481 4863 
L 3481 0 
L 2906 0 
L 2906 525 
Q 2725 213 2448 61 
Q 2172 -91 1784 -91 
Q 1150 -91 751 415 
Q 353 922 353 1747 
Q 353 2572 751 3078 
Q 1150 3584 1784 3584 
Q 2172 3584 2448 3432 
Q 2725 3281 2906 2969 
z
M 947 1747 
Q 947 1113 1208 752 
Q 1469 391 1925 391 
Q 2381 391 2643 752 
Q 2906 1113 2906 1747 
Q 2906 2381 2643 2742 
Q 2381 3103 1925 3103 
Q 1469 3103 1208 2742 
Q 947 2381 947 1747 
z
" transform="scale(0.015625)"/>
       <path id="DejaVuSans-65" d="M 3597 1894 
L 3597 1613 
L 953 1613 
Q 991 1019 1311 708 
Q 1631 397 2203 397 
Q 2534 397 2845 478 
Q 3156 559 3463 722 
L 3463 178 
Q 3153 47 2828 -22 
Q 2503 -91 2169 -91 
Q 1331 -91 842 396 
Q 353 884 353 1716 
Q 353 2575 817 3079 
Q 1281 3584 2069 3584 
Q 2775 3584 3186 3129 
Q 3597 2675 3597 1894 
z
M 3022 2063 
Q 3016 2534 2758 2815 
Q 2500 3097 2075 3097 
Q 1594 3097 1305 2825 
Q 1016 2553 972 2059 
L 3022 2063 
z
" transform="scale(0.015625)"/>
       <path id="DejaVuSans-78" d="M 3513 3500 
L 2247 1797 
L 3578 0 
L 2900 0 
L 1881 1375 
L 863 0 
L 184 0 
L 1544 1831 
L 300 3500 
L 978 3500 
L 1906 2253 
L 2834 3500 
L 3513 3500 
z
" transform="scale(0.015625)"/>
       <path id="DejaVuSans-20" transform="scale(0.015625)"/>
       <path id="DejaVuSans-5b" d="M 550 4863 
L 1875 4863 
L 1875 4416 
L 1125 4416 
L 1125 -397 
L 1875 -397 
L 1875 -844 
L 550 -844 
L 550 4863 
z
" transform="scale(0.015625)"/>
       <path id="DejaVuSans-2d" d="M 313 2009 
L 1997 2009 
L 1997 1497 
L 313 1497 
L 313 2009 
z
" transform="scale(0.015625)"/>
       <path id="DejaVuSans-5d" d="M 1947 4863 
L 1947 -844 
L 622 -844 
L 622 -397 
L 1369 -397 
L 1369 4416 
L 622 4416 
L 622 4863 
L 1947 4863 
z
" transform="scale(0.015625)"/>
      </defs>
      <use xlink:href="#DejaVuSans-69"/>
      <use xlink:href="#DejaVuSans-6e" transform="translate(27.783203 0)"/>
      <use xlink:href="#DejaVuSans-64" transform="translate(91.162109 0)"/>
      <use xlink:href="#DejaVuSans-65" transform="translate(154.638672 0)"/>
      <use xlink:href="#DejaVuSans-78" transform="translate(214.412109 0)"/>
      <use xlink:href="#DejaVuSans-20" transform="translate(273.591797 0)"/>
      <use xlink:href="#DejaVuSans-5b" transform="translate(305.378906 0)"/>
      <use xlink:href="#DejaVuSans-2d" transform="translate(344.392578 0)"/>
      <use xlink:href="#DejaVuSans-5d" transform="translate(380.476562 0)"/>
     </g>
    </g>
   </g>
   <g id="matplotlib.axis_2">
    <g id="ytick_1">
     <g id="line2d_9">
      <defs>
       <path id="m021df85815" d="M 0 0 
L -3.5 0 
" style="stroke: #000000; stroke-width: 0.8"/>
      </defs>
      <g>
       <use xlink:href="#m021df85815" x="37.44875" y="339.838125" style="stroke: #000000; stroke-width: 0.8"/>
      </g>
     </g>
     <g id="text_10">
      <!-- 0 -->
      <g transform="translate(22.81375 344.397187) scale(0.12 -0.12)">
       <use xlink:href="#DejaVuSans-30"/>
      </g>
     </g>
    </g>
    <g id="ytick_2">
     <g id="line2d_10">
      <g>
       <use xlink:href="#m021df85815" x="37.44875" y="289.60063" style="stroke: #000000; stroke-width: 0.8"/>
      </g>
     </g>
     <g id="text_11">
      <!-- 1 -->
      <g transform="translate(22.81375 294.159692) scale(0.12 -0.12)">
       <use xlink:href="#DejaVuSans-31"/>
      </g>
     </g>
    </g>
    <g id="ytick_3">
     <g id="line2d_11">
      <g>
       <use xlink:href="#m021df85815" x="37.44875" y="239.363135" style="stroke: #000000; stroke-width: 0.8"/>
      </g>
     </g>
     <g id="text_12">
      <!-- 2 -->
      <g transform="translate(22.81375 243.922197) scale(0.12 -0.12)">
       <use xlink:href="#DejaVuSans-32"/>
      </g>
     </g>
    </g>
    <g id="ytick_4">
     <g id="line2d_12">
      <g>
       <use xlink:href="#m021df85815" x="37.44875" y="189.12564" style="stroke: #000000; stroke-width: 0.8"/>
      </g>
     </g>
     <g id="text_13">
      <!-- 3 -->
      <g transform="translate(22.81375 193.684702) scale(0.12 -0.12)">
       <use xlink:href="#DejaVuSans-33"/>
      </g>
     </g>
    </g>
    <g id="ytick_5">
     <g id="line2d_13">
      <g>
       <use xlink:href="#m021df85815" x="37.44875" y="138.888145" style="stroke: #000000; stroke-width: 0.8"/>
      </g>
     </g>
     <g id="text_14">
      <!-- 4 -->
      <g transform="translate(22.81375 143.447207) scale(0.12 -0.12)">
       <defs>
        <path id="DejaVuSans-34" d="M 2419 4116 
L 825 1625 
L 2419 1625 
L 2419 4116 
z
M 2253 4666 
L 3047 4666 
L 3047 1625 
L 3713 1625 
L 3713 1100 
L 3047 1100 
L 3047 0 
L 2419 0 
L 2419 1100 
L 313 1100 
L 313 1709 
L 2253 4666 
z
" transform="scale(0.015625)"/>
       </defs>
       <use xlink:href="#DejaVuSans-34"/>
      </g>
     </g>
    </g>
    <g id="ytick_6">
     <g id="line2d_14">
      <g>
       <use xlink:href="#m021df85815" x="37.44875" y="88.65065" style="stroke: #000000; stroke-width: 0.8"/>
      </g>
     </g>
     <g id="text_15">
      <!-- 5 -->
      <g transform="translate(22.81375 93.209712) scale(0.12 -0.12)">
       <use xlink:href="#DejaVuSans-35"/>
      </g>
     </g>
    </g>
    <g id="ytick_7">
     <g id="line2d_15">
      <g>
       <use xlink:href="#m021df85815" x="37.44875" y="38.413155" style="stroke: #000000; stroke-width: 0.8"/>
      </g>
     </g>
     <g id="text_16">
      <!-- 6 -->
      <g transform="translate(22.81375 42.972217) scale(0.12 -0.12)">
       <defs>
        <path id="DejaVuSans-36" d="M 2113 2584 
Q 1688 2584 1439 2293 
Q 1191 2003 1191 1497 
Q 1191 994 1439 701 
Q 1688 409 2113 409 
Q 2538 409 2786 701 
Q 3034 994 3034 1497 
Q 3034 2003 2786 2293 
Q 2538 2584 2113 2584 
z
M 3366 4563 
L 3366 3988 
Q 3128 4100 2886 4159 
Q 2644 4219 2406 4219 
Q 1781 4219 1451 3797 
Q 1122 3375 1075 2522 
Q 1259 2794 1537 2939 
Q 1816 3084 2150 3084 
Q 2853 3084 3261 2657 
Q 3669 2231 3669 1497 
Q 3669 778 3244 343 
Q 2819 -91 2113 -91 
Q 1303 -91 875 529 
Q 447 1150 447 2328 
Q 447 3434 972 4092 
Q 1497 4750 2381 4750 
Q 2619 4750 2861 4703 
Q 3103 4656 3366 4563 
z
" transform="scale(0.015625)"/>
       </defs>
       <use xlink:href="#DejaVuSans-36"/>
      </g>
     </g>
    </g>
    <g id="text_17">
     <!-- intensity [a.u.] -->
     <g transform="translate(16.318125 232.531875) rotate(-90) scale(0.12 -0.12)">
      <defs>
       <path id="DejaVuSans-74" d="M 1172 4494 
L 1172 3500 
L 2356 3500 
L 2356 3053 
L 1172 3053 
L 1172 1153 
Q 1172 725 1289 603 
Q 1406 481 1766 481 
L 2356 481 
L 2356 0 
L 1766 0 
Q 1100 0 847 248 
Q 594 497 594 1153 
L 594 3053 
L 172 3053 
L 172 3500 
L 594 3500 
L 594 4494 
L 1172 4494 
z
" transform="scale(0.015625)"/>
       <path id="DejaVuSans-73" d="M 2834 3397 
L 2834 2853 
Q 2591 2978 2328 3040 
Q 2066 3103 1784 3103 
Q 1356 3103 1142 2972 
Q 928 2841 928 2578 
Q 928 2378 1081 2264 
Q 1234 2150 1697 2047 
L 1894 2003 
Q 2506 1872 2764 1633 
Q 3022 1394 3022 966 
Q 3022 478 2636 193 
Q 2250 -91 1575 -91 
Q 1294 -91 989 -36 
Q 684 19 347 128 
L 347 722 
Q 666 556 975 473 
Q 1284 391 1588 391 
Q 1994 391 2212 530 
Q 2431 669 2431 922 
Q 2431 1156 2273 1281 
Q 2116 1406 1581 1522 
L 1381 1569 
Q 847 1681 609 1914 
Q 372 2147 372 2553 
Q 372 3047 722 3315 
Q 1072 3584 1716 3584 
Q 2034 3584 2315 3537 
Q 2597 3491 2834 3397 
z
" transform="scale(0.015625)"/>
       <path id="DejaVuSans-79" d="M 2059 -325 
Q 1816 -950 1584 -1140 
Q 1353 -1331 966 -1331 
L 506 -1331 
L 506 -850 
L 844 -850 
Q 1081 -850 1212 -737 
Q 1344 -625 1503 -206 
L 1606 56 
L 191 3500 
L 800 3500 
L 1894 763 
L 2988 3500 
L 3597 3500 
L 2059 -325 
z
" transform="scale(0.015625)"/>
       <path id="DejaVuSans-61" d="M 2194 1759 
Q 1497 1759 1228 1600 
Q 959 1441 959 1056 
Q 959 750 1161 570 
Q 1363 391 1709 391 
Q 2188 391 2477 730 
Q 2766 1069 2766 1631 
L 2766 1759 
L 2194 1759 
z
M 3341 1997 
L 3341 0 
L 2766 0 
L 2766 531 
Q 2569 213 2275 61 
Q 1981 -91 1556 -91 
Q 1019 -91 701 211 
Q 384 513 384 1019 
Q 384 1609 779 1909 
Q 1175 2209 1959 2209 
L 2766 2209 
L 2766 2266 
Q 2766 2663 2505 2880 
Q 2244 3097 1772 3097 
Q 1472 3097 1187 3025 
Q 903 2953 641 2809 
L 641 3341 
Q 956 3463 1253 3523 
Q 1550 3584 1831 3584 
Q 2591 3584 2966 3190 
Q 3341 2797 3341 1997 
z
" transform="scale(0.015625)"/>
       <path id="DejaVuSans-2e" d="M 684 794 
L 1344 794 
L 1344 0 
L 684 0 
L 684 794 
z
" transform="scale(0.015625)"/>
       <path id="DejaVuSans-75" d="M 544 1381 
L 544 3500 
L 1119 3500 
L 1119 1403 
Q 1119 906 1312 657 
Q 1506 409 1894 409 
Q 2359 409 2629 706 
Q 2900 1003 2900 1516 
L 2900 3500 
L 3475 3500 
L 3475 0 
L 2900 0 
L 2900 538 
Q 2691 219 2414 64 
Q 2138 -91 1772 -91 
Q 1169 -91 856 284 
Q 544 659 544 1381 
z
M 1991 3584 
L 1991 3584 
z
" transform="scale(0.015625)"/>
      </defs>
      <use xlink:href="#DejaVuSans-69"/>
      <use xlink:href="#DejaVuSans-6e" transform="translate(27.783203 0)"/>
      <use xlink:href="#DejaVuSans-74" transform="translate(91.162109 0)"/>
      <use xlink:href="#DejaVuSans-65" transform="translate(130.371094 0)"/>
      <use xlink:href="#DejaVuSans-6e" transform="translate(191.894531 0)"/>
      <use xlink:href="#DejaVuSans-73" transform="translate(255.273438 0)"/>
      <use xlink:href="#DejaVuSans-69" transform="translate(307.373047 0)"/>
      <use xlink:href="#DejaVuSans-74" transform="translate(335.15625 0)"/>
      <use xlink:href="#DejaVuSans-79" transform="translate(374.365234 0)"/>
      <use xlink:href="#DejaVuSans-20" transform="translate(433.544922 0)"/>
      <use xlink:href="#DejaVuSans-5b" transform="translate(465.332031 0)"/>
      <use xlink:href="#DejaVuSans-61" transform="translate(504.345703 0)"/>
      <use xlink:href="#DejaVuSans-2e" transform="translate(565.625 0)"/>
      <use xlink:href="#DejaVuSans-75" transform="translate(597.412109 0)"/>
      <use xlink:href="#DejaVuSans-2e" transform="translate(660.791016 0)"/>
      <use xlink:href="#DejaVuSans-5d" transform="translate(692.578125 0)"/>
     </g>
    </g>
   </g>
   <g id="line2d_16">
    <path d="M 57.739659 339.838125 
L 136.681808 339.738491 
L 140.252056 339.492184 
L 142.632221 339.103704 
L 144.615692 338.524726 
L 146.202469 337.811184 
L 147.789246 336.795193 
L 148.979329 335.785179 
L 150.169411 334.522913 
L 151.359494 332.974588 
L 152.549576 331.111245 
L 153.739659 328.91218 
L 155.326436 325.444806 
L 156.913213 321.390116 
L 158.896684 315.631065 
L 164.847097 297.55525 
L 166.03718 294.707065 
L 167.227262 292.404976 
L 168.020651 291.224025 
L 168.814039 290.354253 
L 169.607428 289.81321 
L 170.400816 289.611932 
L 171.194205 289.754564 
L 171.987593 290.23822 
L 172.780981 291.053081 
L 173.57437 292.182721 
L 174.764452 294.416745 
L 175.954535 297.209867 
L 177.541312 301.602212 
L 179.921477 308.985093 
L 183.095031 318.782108 
L 185.078502 324.153958 
L 186.665279 327.823659 
L 188.252056 330.884456 
L 189.442138 332.785102 
L 190.632221 334.367773 
L 191.822304 335.66065 
L 193.012386 336.697157 
L 194.599163 337.740114 
L 196.18594 338.474678 
L 197.772717 338.976059 
L 199.756188 339.370531 
L 202.533048 339.653409 
L 206.49999 339.795813 
L 216.020651 339.837512 
L 249.342965 339.740897 
L 252.913213 339.499263 
L 255.293378 339.117349 
L 257.276849 338.548677 
L 258.863626 337.847161 
L 260.450403 336.847185 
L 261.640486 335.850254 
L 262.830568 334.602522 
L 264.020651 333.070289 
L 265.210733 331.224272 
L 266.400816 329.043281 
L 267.987593 325.600034 
L 269.57437 321.567707 
L 271.557841 315.830629 
L 277.508254 297.721884 
L 278.698337 294.846397 
L 279.888419 292.511804 
L 280.681808 291.30676 
L 281.475196 290.411417 
L 282.268585 289.843774 
L 283.061973 289.615341 
L 283.855362 289.730756 
L 284.64875 290.187628 
L 285.442138 290.976617 
L 286.235527 292.081754 
L 287.42561 294.282485 
L 288.615692 297.047494 
L 290.202469 301.40922 
L 292.582634 308.774593 
L 295.756188 318.592443 
L 297.739659 323.99002 
L 299.326436 327.683435 
L 300.913213 330.768453 
L 302.49999 333.253819 
L 303.690072 334.752286 
L 304.880155 335.970077 
L 306.070238 336.941508 
L 307.657014 337.915291 
L 309.243791 338.596482 
L 311.227262 339.146825 
L 313.607428 339.514117 
L 316.780981 339.730966 
L 322.3347 339.826275 
L 348.516519 339.837885 
L 362.400816 339.728569 
L 365.57437 339.506828 
L 367.954535 339.131693 
L 369.938006 338.571955 
L 371.524783 337.88037 
L 373.11156 336.89323 
L 374.301643 335.909708 
L 375.491725 334.678053 
L 376.681808 333.164074 
L 377.87189 331.338034 
L 379.061973 329.177895 
L 380.64875 325.758686 
L 382.235527 321.748217 
L 384.218998 316.031825 
L 390.566105 296.880812 
L 391.756188 294.142587 
L 392.946271 291.974055 
L 393.739659 290.892868 
L 394.533048 290.129367 
L 395.326436 289.69908 
L 396.119824 289.611932 
L 396.913213 289.871856 
L 397.706601 290.470285 
L 398.49999 291.394969 
L 399.293378 292.62723 
L 400.483461 294.997385 
L 401.673543 297.900634 
L 403.26032 302.391097 
L 406.433874 312.34083 
L 408.814039 319.54362 
L 410.79751 324.809491 
L 412.384287 328.380513 
L 413.971064 331.338034 
L 415.161147 333.164074 
L 416.351229 334.678053 
L 417.541312 335.909708 
L 418.731395 336.89323 
L 420.318171 337.88037 
L 421.904948 338.571955 
L 423.491725 339.041501 
L 425.475196 339.408748 
L 428.252056 339.67005 
L 432.615692 339.805576 
L 444.119824 339.837967 
L 463.557841 339.838125 
L 463.557841 339.838125 
" clip-path="url(#p4df6a7fe79)" style="fill: none; stroke: #1f77b4; stroke-width: 2; stroke-linecap: square"/>
   </g>
   <g id="line2d_17">
    <path d="M 57.739659 88.511984 
L 58.136353 88.350469 
L 58.533048 88.746332 
L 59.326436 88.802451 
L 59.72313 89.334264 
L 60.119824 88.863335 
L 60.516519 88.600094 
L 60.913213 88.629352 
L 61.309907 89.289823 
L 61.706601 88.381838 
L 62.103295 89.099593 
L 62.896684 88.326761 
L 63.690072 88.63096 
L 64.086767 88.993522 
L 64.483461 88.79346 
L 65.276849 88.821968 
L 65.673543 88.550851 
L 66.070238 88.01084 
L 66.466932 88.231691 
L 66.863626 88.932253 
L 67.26032 88.848841 
L 67.657014 88.344032 
L 68.053709 88.386428 
L 68.450403 89.124263 
L 68.847097 88.570439 
L 69.640486 88.868281 
L 70.03718 88.200602 
L 71.227262 88.695512 
L 71.623957 88.486368 
L 72.020651 88.901515 
L 72.417345 88.969544 
L 72.814039 88.251117 
L 73.607428 88.498011 
L 74.004122 88.33824 
L 74.400816 89.031755 
L 74.79751 88.805789 
L 75.194205 89.587811 
L 75.987593 87.901624 
L 76.384287 88.368139 
L 76.780981 88.047931 
L 77.177676 88.032877 
L 77.57437 89.177704 
L 77.971064 88.331425 
L 78.367758 88.465294 
L 78.764452 88.760234 
L 79.161147 88.732199 
L 79.557841 89.009579 
L 79.954535 89.068294 
L 80.747924 88.132979 
L 81.144618 88.350299 
L 81.541312 88.404076 
L 81.938006 89.29486 
L 82.3347 89.405682 
L 82.731395 88.605918 
L 83.128089 88.315799 
L 83.524783 88.473816 
L 83.921477 88.87324 
L 84.318171 88.613505 
L 84.714866 88.49005 
L 85.11156 89.03022 
L 85.508254 88.678785 
L 85.904948 88.687287 
L 86.698337 89.397478 
L 87.095031 88.644175 
L 87.491725 88.645493 
L 87.888419 88.761853 
L 88.285114 88.330579 
L 88.681808 88.135536 
L 89.078502 89.222705 
L 89.475196 88.71362 
L 89.87189 87.784905 
L 90.268585 88.345164 
L 91.458667 88.833061 
L 91.855362 87.553351 
L 92.252056 87.12108 
L 92.64875 89.456236 
L 93.045444 88.406739 
L 93.442138 89.187536 
L 93.838833 88.504285 
L 94.235527 89.409309 
L 94.632221 89.5754 
L 95.028915 88.388869 
L 95.42561 88.721671 
L 95.822304 88.359669 
L 96.615692 88.959564 
L 97.409081 89.038933 
L 97.805775 88.287022 
L 98.599163 88.849633 
L 98.995857 88.785114 
L 99.392552 88.605998 
L 99.789246 88.561187 
L 100.582634 88.911395 
L 100.979329 88.764575 
L 101.376023 88.115594 
L 101.772717 88.219098 
L 102.169411 89.382174 
L 102.566105 89.445377 
L 102.9628 88.904639 
L 103.756188 88.780017 
L 104.152882 89.139515 
L 104.549576 88.500037 
L 104.946271 89.16616 
L 105.342965 89.211589 
L 105.739659 89.495094 
L 106.136353 88.447142 
L 106.929742 89.679073 
L 107.326436 89.762378 
L 107.72313 89.000227 
L 108.119824 87.776172 
L 108.516519 88.641743 
L 108.913213 88.938902 
L 109.309907 88.03852 
L 109.706601 88.044013 
L 110.103295 88.640611 
L 110.896684 89.25047 
L 111.293378 88.621232 
L 112.086767 88.324991 
L 112.483461 89.032735 
L 112.880155 88.529574 
L 113.276849 88.560519 
L 113.673543 88.725895 
L 114.070238 88.516774 
L 114.466932 88.853851 
L 114.863626 88.882167 
L 115.26032 88.717959 
L 115.657014 88.856868 
L 116.450403 88.832162 
L 116.847097 89.034831 
L 117.243791 89.380596 
L 118.03718 88.579898 
L 118.830568 88.4217 
L 119.227262 88.655165 
L 119.623957 88.283444 
L 120.417345 89.407972 
L 121.210733 88.568156 
L 121.607428 88.670046 
L 122.004122 88.918455 
L 122.400816 88.982267 
L 122.79751 89.17145 
L 123.194205 88.694098 
L 123.590899 88.485202 
L 123.987593 89.509696 
L 124.384287 88.505064 
L 124.780981 89.109427 
L 125.177676 89.049058 
L 125.57437 88.286793 
L 125.971064 88.788931 
L 126.367758 88.447701 
L 126.764452 88.550539 
L 127.161147 88.907879 
L 127.557841 90.024699 
L 127.954535 88.426957 
L 128.351229 88.003432 
L 128.747924 88.415609 
L 129.144618 88.408572 
L 129.541312 87.966758 
L 129.938006 87.816675 
L 130.3347 88.189045 
L 130.731395 88.730943 
L 131.524783 87.854449 
L 131.921477 88.349797 
L 132.318171 89.143298 
L 132.714866 88.760176 
L 133.11156 88.537926 
L 133.508254 88.51068 
L 133.904948 88.801567 
L 134.301643 88.905137 
L 134.698337 88.280644 
L 135.491725 89.196249 
L 135.888419 88.644104 
L 136.681808 88.413572 
L 137.078502 88.587193 
L 137.87189 87.9595 
L 138.268585 87.922128 
L 138.665279 88.354549 
L 139.458667 87.987113 
L 139.855362 88.244199 
L 140.252056 88.129911 
L 140.64875 88.745583 
L 141.045444 88.445171 
L 141.442138 89.029902 
L 141.838833 87.580844 
L 142.632221 88.068106 
L 143.42561 87.774391 
L 143.822304 88.204055 
L 144.218998 87.662141 
L 144.615692 87.755613 
L 145.409081 86.876844 
L 146.202469 86.052741 
L 146.599163 86.486868 
L 146.995857 86.358222 
L 147.392552 86.555156 
L 147.789246 86.293377 
L 148.18594 85.579035 
L 148.582634 85.322614 
L 148.979329 84.845062 
L 149.376023 84.094007 
L 149.772717 83.778656 
L 150.566105 82.453222 
L 150.9628 82.504468 
L 151.359494 82.143559 
L 151.756188 81.111623 
L 152.152882 80.393152 
L 152.549576 80.236285 
L 152.946271 79.882138 
L 154.136353 76.631356 
L 154.533048 76.175015 
L 154.929742 75.498089 
L 156.119824 72.364072 
L 156.516519 70.475047 
L 156.913213 70.047556 
L 157.309907 69.184488 
L 157.706601 67.304448 
L 158.103295 66.068488 
L 158.49999 65.686329 
L 158.896684 65.123301 
L 159.293378 63.246774 
L 159.690072 62.361186 
L 160.483461 59.3609 
L 160.880155 58.216196 
L 161.276849 57.764046 
L 162.466932 51.936373 
L 162.863626 51.250666 
L 163.26032 50.817748 
L 163.657014 49.783645 
L 164.053709 49.144467 
L 164.450403 47.391679 
L 164.847097 46.836925 
L 165.640486 44.087722 
L 166.433874 42.582915 
L 166.830568 42.162998 
L 168.417345 39.353185 
L 168.814039 39.005746 
L 169.210733 38.485436 
L 169.607428 38.171838 
L 170.004122 38.939175 
L 170.400816 38.583583 
L 170.79751 38.398009 
L 171.590899 38.61699 
L 171.987593 38.350463 
L 172.384287 39.629967 
L 172.780981 40.089846 
L 173.177676 40.782797 
L 173.57437 40.879383 
L 173.971064 41.479341 
L 174.367758 42.47415 
L 174.764452 42.314385 
L 175.161147 43.954281 
L 175.557841 45.048569 
L 175.954535 46.579834 
L 176.351229 46.846434 
L 176.747924 47.939208 
L 177.144618 48.484548 
L 177.938006 52.516887 
L 178.731395 53.79327 
L 179.128089 54.860507 
L 180.318171 59.639571 
L 181.11156 61.526921 
L 184.681808 72.146932 
L 185.475196 73.733327 
L 185.87189 74.024625 
L 186.268585 75.12498 
L 187.061973 78.061445 
L 187.458667 77.95799 
L 187.855362 78.824664 
L 188.64875 79.978387 
L 189.045444 80.676232 
L 189.442138 81.882639 
L 189.838833 82.036027 
L 190.235527 82.494691 
L 190.632221 82.732916 
L 191.028915 83.917744 
L 191.42561 83.988298 
L 191.822304 83.909944 
L 192.218998 84.414777 
L 192.615692 85.465853 
L 193.409081 85.923242 
L 193.805775 86.531677 
L 194.202469 85.770948 
L 194.599163 86.382039 
L 194.995857 87.319362 
L 195.392552 86.788858 
L 195.789246 87.526683 
L 196.582634 87.008328 
L 196.979329 87.813229 
L 197.376023 87.104855 
L 197.772717 87.445938 
L 198.169411 87.938108 
L 198.566105 88.01705 
L 199.359494 87.820901 
L 199.756188 88.339842 
L 200.152882 89.076366 
L 200.549576 88.773564 
L 200.946271 87.982697 
L 201.342965 88.052399 
L 202.533048 88.844929 
L 203.326436 88.524279 
L 204.119824 87.683755 
L 204.516519 88.003313 
L 205.309907 89.310893 
L 205.706601 88.989234 
L 206.103295 89.462477 
L 206.49999 89.215916 
L 206.896684 88.703496 
L 207.293378 89.048961 
L 207.690072 88.611857 
L 208.086767 88.936935 
L 208.483461 90.013686 
L 208.880155 88.550733 
L 209.276849 89.206852 
L 209.673543 88.43434 
L 210.070238 88.893248 
L 210.466932 89.027966 
L 210.863626 87.962517 
L 211.26032 88.695253 
L 211.657014 88.390206 
L 212.053709 88.670339 
L 212.450403 88.39757 
L 212.847097 88.503891 
L 213.640486 89.441578 
L 214.433874 88.21081 
L 214.830568 88.912262 
L 215.227262 89.335047 
L 215.623957 88.71368 
L 216.020651 88.37704 
L 216.417345 88.664465 
L 216.814039 89.148981 
L 217.607428 88.430152 
L 218.004122 88.908895 
L 218.400816 88.862807 
L 219.194205 88.390755 
L 219.590899 88.285261 
L 219.987593 88.772489 
L 220.384287 88.633115 
L 221.177676 89.192313 
L 221.57437 89.177583 
L 221.971064 89.42533 
L 222.367758 89.421171 
L 222.764452 88.116554 
L 223.557841 88.276493 
L 223.954535 88.679757 
L 224.351229 88.886577 
L 224.747924 88.531032 
L 225.144618 89.189974 
L 225.541312 89.126825 
L 225.938006 89.41841 
L 226.3347 87.915951 
L 226.731395 88.560676 
L 227.128089 89.892111 
L 227.524783 89.130594 
L 228.318171 88.692162 
L 228.714866 88.688823 
L 229.11156 88.83489 
L 229.508254 87.801004 
L 229.904948 87.741654 
L 230.301643 88.634707 
L 230.698337 88.886162 
L 231.095031 88.928795 
L 231.491725 88.435716 
L 231.888419 88.189791 
L 232.285114 88.169027 
L 232.681808 89.060832 
L 233.078502 88.639988 
L 233.475196 87.86364 
L 233.87189 88.483261 
L 234.665279 88.624769 
L 235.061973 88.592356 
L 235.458667 88.332612 
L 235.855362 88.444758 
L 236.252056 88.181868 
L 236.64875 88.308403 
L 237.045444 88.638958 
L 237.442138 88.157483 
L 238.235527 89.411113 
L 238.632221 88.634731 
L 239.028915 88.794924 
L 239.42561 88.575788 
L 239.822304 88.696147 
L 240.218998 88.454557 
L 240.615692 88.662738 
L 241.012386 88.353731 
L 241.409081 89.207447 
L 241.805775 88.032125 
L 242.202469 88.564817 
L 242.995857 89.091749 
L 243.392552 88.834963 
L 243.789246 88.950014 
L 244.18594 87.765141 
L 244.582634 89.185052 
L 244.979329 88.442173 
L 245.376023 88.668944 
L 245.772717 88.561864 
L 246.169411 88.673219 
L 246.9628 88.148337 
L 247.359494 88.120973 
L 247.756188 89.292417 
L 248.152882 88.146033 
L 248.549576 88.206454 
L 249.342965 88.944886 
L 249.739659 88.319651 
L 250.136353 87.932935 
L 250.533048 88.360381 
L 250.929742 88.57446 
L 251.72313 89.851193 
L 252.119824 88.874992 
L 252.516519 88.196398 
L 253.309907 88.655574 
L 253.706601 89.108923 
L 254.103295 88.55434 
L 254.49999 87.689652 
L 254.896684 87.91017 
L 255.293378 87.562187 
L 255.690072 87.646616 
L 256.086767 87.372516 
L 256.483461 87.60659 
L 257.276849 87.242015 
L 258.070238 86.573954 
L 258.466932 86.827718 
L 258.863626 86.199228 
L 259.26032 86.335315 
L 259.657014 85.635227 
L 260.053709 86.539605 
L 260.450403 85.792368 
L 260.847097 85.514064 
L 261.243791 84.247978 
L 261.640486 84.010939 
L 262.03718 84.795887 
L 262.433874 83.731038 
L 262.830568 83.53283 
L 263.623957 82.157245 
L 264.020651 82.194813 
L 264.814039 80.547323 
L 265.210733 80.535234 
L 266.004122 78.279761 
L 266.400816 77.043996 
L 266.79751 76.969321 
L 267.590899 75.435051 
L 269.971064 68.78653 
L 270.367758 68.151268 
L 270.764452 67.752854 
L 271.161147 65.792015 
L 271.954535 63.207678 
L 272.351229 62.497401 
L 272.747924 61.292343 
L 273.541312 58.265438 
L 273.938006 57.379758 
L 274.3347 56.218276 
L 275.524783 51.827691 
L 275.921477 50.975268 
L 277.11156 47.342318 
L 277.508254 46.947227 
L 277.904948 45.486853 
L 278.301643 44.639359 
L 278.698337 43.037106 
L 279.095031 42.97841 
L 279.491725 42.106541 
L 279.888419 40.457845 
L 280.285114 39.89741 
L 280.681808 40.17485 
L 281.475196 39.539905 
L 282.268585 38.336863 
L 283.061973 38.416075 
L 283.458667 38.854893 
L 283.855362 38.159973 
L 284.252056 38.268925 
L 284.64875 38.125345 
L 285.045444 38.637065 
L 285.838833 40.743279 
L 286.235527 41.509902 
L 286.632221 41.497758 
L 287.028915 42.056614 
L 287.42561 43.276614 
L 287.822304 43.782068 
L 288.218998 44.607537 
L 289.012386 46.819363 
L 289.409081 46.974007 
L 290.599163 51.577939 
L 291.789246 55.876613 
L 292.18594 56.249919 
L 292.582634 58.320629 
L 292.979329 58.504048 
L 293.376023 59.693601 
L 293.772717 60.462174 
L 294.169411 62.359233 
L 294.566105 63.448672 
L 294.9628 65.817397 
L 295.756188 67.218485 
L 296.946271 70.972218 
L 297.342965 70.966695 
L 297.739659 73.036839 
L 298.136353 73.35323 
L 298.533048 74.491526 
L 298.929742 76.443664 
L 299.326436 76.611629 
L 299.72313 77.738585 
L 300.516519 78.634223 
L 300.913213 79.814538 
L 301.309907 80.212734 
L 301.706601 80.339706 
L 302.49999 82.348671 
L 303.293378 82.830537 
L 303.690072 83.684797 
L 304.086767 84.043139 
L 304.483461 84.118906 
L 304.880155 84.643696 
L 305.276849 84.930528 
L 305.673543 85.619193 
L 306.070238 85.449899 
L 306.466932 85.818745 
L 306.863626 86.936319 
L 307.657014 86.900198 
L 308.053709 86.719303 
L 308.450403 87.251982 
L 308.847097 87.299812 
L 309.243791 86.7086 
L 309.640486 87.702417 
L 310.03718 86.759736 
L 310.433874 87.717475 
L 310.830568 87.956492 
L 311.227262 87.613023 
L 311.623957 88.11665 
L 312.020651 87.531769 
L 312.417345 87.617882 
L 312.814039 88.565578 
L 313.210733 88.109238 
L 313.607428 87.956025 
L 314.004122 88.224337 
L 314.400816 89.321581 
L 314.79751 89.182664 
L 315.194205 88.621942 
L 315.987593 89.185918 
L 316.384287 88.928058 
L 316.780981 88.907938 
L 317.177676 88.133765 
L 317.57437 88.255067 
L 318.367758 89.072006 
L 318.764452 89.267022 
L 319.161147 88.323927 
L 319.557841 88.307881 
L 319.954535 88.76478 
L 320.351229 88.248407 
L 320.747924 88.159421 
L 321.144618 88.552423 
L 321.541312 88.785518 
L 321.938006 88.69261 
L 322.731395 88.241453 
L 323.921477 88.568031 
L 324.318171 88.167011 
L 324.714866 88.197313 
L 325.11156 87.88092 
L 325.508254 88.444454 
L 325.904948 88.345039 
L 326.301643 87.955586 
L 326.698337 88.890272 
L 327.095031 88.831214 
L 327.491725 88.478112 
L 327.888419 88.489457 
L 328.285114 88.110583 
L 328.681808 89.720937 
L 329.078502 88.230627 
L 329.475196 88.392501 
L 330.268585 89.470758 
L 330.665279 89.273031 
L 331.061973 88.412308 
L 331.458667 88.796082 
L 331.855362 88.511963 
L 332.252056 88.458399 
L 333.045444 87.608632 
L 333.442138 88.67047 
L 333.838833 88.694308 
L 334.235527 89.118124 
L 335.028915 88.534254 
L 335.822304 89.319896 
L 336.218998 89.223519 
L 336.615692 88.745957 
L 337.409081 88.747784 
L 337.805775 88.588857 
L 338.202469 89.135923 
L 338.599163 89.448108 
L 338.995857 89.210808 
L 339.392552 88.794994 
L 339.789246 88.699635 
L 340.582634 88.29113 
L 340.979329 88.41949 
L 341.376023 88.238597 
L 341.772717 88.736928 
L 342.169411 88.979558 
L 342.566105 88.881649 
L 342.9628 88.94679 
L 343.756188 87.801633 
L 344.152882 88.246021 
L 344.549576 88.197155 
L 344.946271 89.548325 
L 345.739659 88.345258 
L 346.136353 87.412803 
L 346.533048 88.441964 
L 346.929742 89.031436 
L 347.326436 89.018569 
L 348.913213 88.276542 
L 349.309907 88.837214 
L 349.706601 88.576158 
L 350.103295 88.501779 
L 350.49999 89.016138 
L 350.896684 89.282703 
L 351.293378 89.335052 
L 351.690072 89.204276 
L 352.086767 88.87778 
L 352.483461 88.330395 
L 352.880155 88.594182 
L 353.276849 89.122475 
L 353.673543 89.334921 
L 354.070238 89.283335 
L 354.863626 88.696163 
L 355.26032 88.691267 
L 355.657014 89.192524 
L 356.053709 89.241784 
L 356.450403 89.128707 
L 356.847097 88.614883 
L 357.243791 88.333971 
L 357.640486 88.87017 
L 358.03718 88.782394 
L 358.433874 88.459277 
L 358.830568 88.553463 
L 359.227262 88.856523 
L 359.623957 88.739567 
L 360.020651 87.991191 
L 360.417345 89.009323 
L 360.814039 88.7701 
L 361.210733 89.033821 
L 361.607428 88.964263 
L 362.004122 88.449036 
L 362.79751 88.106584 
L 363.194205 89.674203 
L 363.590899 87.716289 
L 363.987593 88.649136 
L 364.384287 88.591867 
L 364.780981 88.685573 
L 365.57437 87.731743 
L 366.367758 88.730268 
L 366.764452 88.139925 
L 367.161147 88.672682 
L 367.557841 88.462762 
L 367.954535 87.800966 
L 368.747924 87.657833 
L 369.144618 87.891518 
L 369.541312 87.719942 
L 369.938006 87.818845 
L 370.3347 87.647042 
L 370.731395 87.03287 
L 371.128089 87.225179 
L 371.524783 87.167585 
L 372.318171 86.446922 
L 372.714866 85.652764 
L 373.904948 84.894795 
L 374.301643 84.278368 
L 374.698337 83.998126 
L 375.095031 84.115908 
L 375.491725 83.490405 
L 375.888419 83.464929 
L 376.285114 82.28361 
L 377.078502 81.043474 
L 377.87189 80.205498 
L 378.268585 78.610536 
L 378.665279 78.722253 
L 379.458667 76.841938 
L 379.855362 77.61356 
L 380.252056 75.576308 
L 380.64875 74.478592 
L 381.045444 73.932071 
L 382.235527 70.947589 
L 383.028915 67.85064 
L 383.822304 67.109169 
L 384.615692 63.449633 
L 385.409081 60.851058 
L 387.789246 53.289827 
L 388.18594 52.883787 
L 388.582634 51.839968 
L 389.376023 48.629045 
L 390.9628 44.856084 
L 391.359494 43.416965 
L 392.549576 40.290277 
L 392.946271 40.454367 
L 393.342965 40.206661 
L 393.739659 40.165267 
L 394.136353 39.687822 
L 394.533048 39.445089 
L 394.929742 38.945342 
L 395.326436 38.782813 
L 395.72313 38.269284 
L 396.119824 38.003259 
L 396.516519 37.438125 
L 396.913213 38.461434 
L 397.309907 38.391268 
L 397.706601 38.803676 
L 398.103295 39.639992 
L 398.49999 40.818209 
L 398.896684 40.643534 
L 399.690072 42.131536 
L 400.086767 42.177741 
L 400.483461 43.2151 
L 400.880155 44.690195 
L 401.673543 46.502743 
L 402.070238 48.276825 
L 403.657014 52.661868 
L 404.450403 54.609632 
L 406.03718 60.357055 
L 406.433874 62.39374 
L 406.830568 63.070571 
L 407.227262 63.348193 
L 407.623957 65.10226 
L 408.020651 65.721451 
L 408.417345 67.168823 
L 409.210733 68.985538 
L 409.607428 70.333259 
L 410.400816 72.385524 
L 410.79751 73.841384 
L 411.194205 74.666621 
L 411.590899 75.060609 
L 412.780981 78.594458 
L 413.177676 78.215159 
L 413.57437 79.95978 
L 413.971064 79.252094 
L 414.367758 80.837642 
L 414.764452 81.57968 
L 415.161147 82.037744 
L 415.557841 82.152904 
L 416.351229 83.519725 
L 416.747924 83.872613 
L 417.144618 83.892834 
L 417.541312 84.906456 
L 417.938006 85.562964 
L 418.3347 84.676486 
L 418.731395 84.932771 
L 419.524783 86.219444 
L 419.921477 86.569096 
L 420.318171 86.662794 
L 420.714866 86.937184 
L 421.904948 87.18478 
L 422.301643 86.86419 
L 422.698337 86.927438 
L 423.095031 87.970713 
L 423.491725 88.48933 
L 423.888419 87.974465 
L 424.285114 87.64424 
L 424.681808 87.761708 
L 425.078502 87.678017 
L 425.475196 88.456005 
L 425.87189 88.655229 
L 426.268585 87.934772 
L 426.665279 88.733165 
L 427.061973 88.169421 
L 427.458667 89.358454 
L 427.855362 88.754128 
L 428.252056 87.844559 
L 429.045444 87.91163 
L 429.442138 88.620717 
L 429.838833 87.874519 
L 430.235527 88.2223 
L 430.632221 88.351727 
L 431.028915 87.929496 
L 431.42561 88.209158 
L 431.822304 88.185946 
L 432.218998 89.084128 
L 432.615692 88.646798 
L 433.012386 88.979967 
L 433.409081 88.991037 
L 433.805775 89.218602 
L 434.599163 88.759372 
L 435.789246 87.970507 
L 436.979329 88.702847 
L 437.772717 88.611323 
L 438.169411 88.801426 
L 438.566105 88.554131 
L 439.359494 89.205259 
L 439.756188 88.81798 
L 440.152882 88.95539 
L 440.549576 88.812428 
L 441.342965 88.09606 
L 442.136353 88.359506 
L 442.929742 89.193753 
L 444.119824 87.971629 
L 444.516519 89.406096 
L 444.913213 89.433277 
L 445.309907 88.154688 
L 445.706601 89.227862 
L 446.103295 88.967399 
L 446.49999 88.197549 
L 446.896684 88.601635 
L 447.293378 88.788756 
L 447.690072 88.444368 
L 448.086767 88.50961 
L 448.483461 87.881206 
L 448.880155 88.995547 
L 449.276849 88.29476 
L 449.673543 88.978416 
L 450.070238 88.320023 
L 450.863626 88.64157 
L 451.26032 88.517872 
L 451.657014 89.191587 
L 452.053709 88.914332 
L 452.450403 88.126395 
L 452.847097 88.100029 
L 453.640486 88.537747 
L 454.03718 88.392253 
L 454.433874 88.482826 
L 454.830568 88.365806 
L 455.227262 88.010628 
L 455.623957 88.453872 
L 456.020651 89.180429 
L 456.417345 88.927327 
L 456.814039 88.312642 
L 457.607428 89.081662 
L 458.004122 88.66297 
L 458.400816 88.737991 
L 458.79751 88.94471 
L 459.194205 88.380837 
L 459.590899 88.549449 
L 459.987593 88.84817 
L 460.384287 88.93661 
L 460.780981 88.519035 
L 461.177676 88.708939 
L 461.57437 89.282106 
L 462.367758 88.624595 
L 462.764452 88.405319 
L 463.161147 88.878185 
L 463.557841 88.596997 
L 463.557841 88.596997 
" clip-path="url(#p4df6a7fe79)" style="fill: none; stroke: #ff7f0e; stroke-width: 2; stroke-linecap: square"/>
   </g>
   <g id="line2d_18">
    <path d="M 57.739659 339.838125 
L 60.119824 339.838125 
L 60.516519 335.63939 
L 60.913213 338.895251 
L 61.309907 339.838125 
L 63.293378 339.838125 
L 63.690072 336.582264 
L 64.086767 337.952377 
L 64.483461 339.838125 
L 67.26032 339.838125 
L 67.657014 337.760856 
L 68.053709 336.773785 
L 68.450403 339.838125 
L 71.227262 339.838125 
L 71.623957 338.939448 
L 72.020651 335.595193 
L 72.417345 339.838125 
L 72.814039 339.293026 
L 73.210733 334.814375 
L 73.607428 335.123756 
L 74.004122 339.646604 
L 74.400816 334.814375 
L 74.79751 334.814375 
L 75.194205 339.676069 
L 75.590899 335.094291 
L 75.987593 339.44035 
L 76.384287 339.838125 
L 76.780981 335.447869 
L 77.177676 334.814375 
L 77.57437 326.5053 
L 78.367758 338.733195 
L 78.764452 339.838125 
L 79.161147 328.788823 
L 79.557841 335.462601 
L 79.954535 339.838125 
L 80.351229 336.508602 
L 80.747924 338.026039 
L 81.144618 336.74432 
L 81.541312 334.814375 
L 82.3347 334.814375 
L 82.731395 337.436743 
L 83.524783 337.201025 
L 83.921477 337.569335 
L 84.318171 336.965306 
L 84.714866 339.838125 
L 85.904948 339.838125 
L 86.301643 338.27649 
L 86.698337 334.814375 
L 87.095031 336.140292 
L 87.491725 338.630068 
L 87.888419 334.814375 
L 88.285114 332.869698 
L 88.681808 327.330315 
L 89.078502 339.101505 
L 89.475196 334.195615 
L 89.87189 330.792429 
L 90.268585 339.455083 
L 90.665279 335.079559 
L 91.061973 339.690801 
L 91.458667 334.84384 
L 91.855362 339.749731 
L 92.252056 335.020629 
L 92.64875 339.514012 
L 93.045444 335.256348 
L 93.442138 339.278294 
L 93.838833 335.492066 
L 94.235527 330.586176 
L 94.632221 338.011307 
L 95.028915 335.845644 
L 95.42561 334.814375 
L 95.822304 338.571138 
L 96.218998 325.282511 
L 96.615692 333.827304 
L 97.012386 333.031755 
L 97.805775 339.838125 
L 98.202469 336.788518 
L 98.599163 334.814375 
L 98.995857 332.000486 
L 99.392552 332.486656 
L 99.789246 334.814375 
L 100.18594 334.814375 
L 100.582634 330.129471 
L 100.979329 326.991469 
L 101.376023 331.89736 
L 101.772717 334.814375 
L 102.566105 321.732001 
L 102.9628 334.814375 
L 103.756188 328.965611 
L 104.152882 339.838125 
L 104.549576 338.674265 
L 104.946271 335.860376 
L 105.342965 337.053701 
L 105.739659 326.387441 
L 106.136353 335.506798 
L 106.533048 339.263561 
L 106.929742 334.814375 
L 108.119824 334.917502 
L 108.516519 339.823393 
L 108.913213 334.946967 
L 109.309907 334.814375 
L 110.103295 334.814375 
L 110.49999 339.234096 
L 110.896684 326.93254 
L 111.690072 338.880519 
L 112.086767 339.838125 
L 112.880155 326.07806 
L 113.276849 328.361583 
L 113.673543 333.267473 
L 114.070238 328.0964 
L 114.466932 328.008005 
L 114.863626 329.790626 
L 115.26032 335.801447 
L 116.053709 332.560318 
L 116.450403 337.466208 
L 116.847097 334.770178 
L 117.243791 334.622854 
L 118.03718 331.308064 
L 118.433874 337.775589 
L 119.227262 324.766876 
L 119.623957 328.184794 
L 120.020651 336.405475 
L 120.417345 338.364885 
L 120.814039 334.814375 
L 121.210733 334.814375 
L 121.607428 335.934038 
L 122.004122 339.838125 
L 122.400816 338.954181 
L 122.79751 334.048291 
L 123.194205 331.087077 
L 123.590899 339.307758 
L 124.384287 329.20133 
L 124.780981 320.096705 
L 125.177676 329.731696 
L 125.57437 324.825806 
L 125.971064 334.460798 
L 126.367758 339.543477 
L 126.764452 330.615641 
L 127.161147 334.284009 
L 127.557841 334.814375 
L 127.954535 330.556711 
L 128.351229 317.37121 
L 128.747924 334.829108 
L 129.144618 335.934038 
L 129.541312 327.24192 
L 130.3347 329.790626 
L 131.524783 329.790626 
L 131.921477 326.711554 
L 132.318171 333.650516 
L 132.714866 336.994771 
L 133.11156 323.912397 
L 133.508254 322.542284 
L 133.904948 329.790626 
L 134.301643 327.418709 
L 134.698337 327.020934 
L 135.095031 325.518229 
L 135.491725 327.816484 
L 135.888419 339.838125 
L 136.285114 336.272883 
L 136.681808 331.455388 
L 137.078502 331.720571 
L 137.475196 323.337833 
L 137.87189 323.676679 
L 138.268585 333.621051 
L 138.665279 328.715161 
L 139.061973 325.724483 
L 139.458667 328.950879 
L 140.252056 320.347156 
L 140.64875 324.280707 
L 141.045444 320.848057 
L 141.442138 334.814375 
L 141.838833 334.416601 
L 142.235527 319.802057 
L 142.632221 339.425618 
L 143.028915 330.232598 
L 143.42561 325.105722 
L 143.822304 329.333921 
L 144.218998 325.34144 
L 144.615692 329.098203 
L 145.012386 334.004093 
L 145.409081 318.431943 
L 145.805775 322.674875 
L 146.202469 324.766876 
L 146.599163 317.282816 
L 147.392552 333.296938 
L 147.789246 338.202828 
L 148.18594 333.296938 
L 148.582634 323.485157 
L 148.979329 319.743127 
L 149.376023 319.743127 
L 149.772717 328.140597 
L 150.169411 332.133078 
L 150.566105 316.973435 
L 150.9628 312.008615 
L 151.756188 318.53507 
L 152.152882 331.882627 
L 152.946271 310.785826 
L 153.342965 328.052202 
L 153.739659 326.387441 
L 154.136353 322.2771 
L 154.533048 306.056724 
L 154.929742 308.428641 
L 155.326436 304.671878 
L 155.72313 302.609342 
L 156.119824 294.624379 
L 156.516519 297.011029 
L 156.913213 310.373319 
L 157.309907 314.159546 
L 157.706601 309.695628 
L 158.103295 309.695628 
L 158.49999 309.901882 
L 158.896684 314.542589 
L 159.690072 294.919028 
L 160.086767 323.175777 
L 160.483461 292.281927 
L 160.880155 298.646326 
L 161.276849 321.673072 
L 161.673543 299.0441 
L 162.070238 290.455109 
L 162.466932 301.754863 
L 162.863626 296.804775 
L 163.26032 279.36161 
L 163.657014 304.112047 
L 164.053709 296.819508 
L 164.450403 279.214286 
L 164.847097 287.906404 
L 165.243791 284.945191 
L 165.640486 285.770205 
L 166.03718 280.628596 
L 166.433874 268.783744 
L 166.830568 278.256679 
L 167.227262 297.511931 
L 167.623957 302.152638 
L 168.020651 287.64122 
L 168.417345 288.230516 
L 168.814039 296.009225 
L 169.607428 241.29308 
L 170.004122 246.19897 
L 170.400816 254.493313 
L 170.79751 266.05825 
L 171.194205 270.96414 
L 171.590899 282.573274 
L 171.987593 298.557931 
L 172.384287 277.34327 
L 173.177676 253.948214 
L 173.57437 298.145424 
L 173.971064 288.333643 
L 174.367758 281.615667 
L 174.764452 298.057029 
L 175.161147 278.9933 
L 175.557841 269.829745 
L 175.954535 279.332145 
L 176.351229 254.802694 
L 176.747924 288.259981 
L 177.144618 284.886261 
L 177.541312 312.155939 
L 177.938006 278.890173 
L 178.3347 270.16859 
L 178.731395 273.748564 
L 179.128089 278.654454 
L 179.524783 307.603627 
L 179.921477 295.272605 
L 180.318171 289.60063 
L 180.714866 285.946994 
L 181.11156 309.327318 
L 181.508254 312.907292 
L 182.301643 288.259981 
L 182.698337 306.02726 
L 183.095031 313.850166 
L 183.491725 309.695628 
L 183.888419 317.827915 
L 184.285114 301.43075 
L 184.681808 294.403393 
L 185.078502 314.409997 
L 185.87189 295.184211 
L 186.268585 301.681201 
L 186.665279 300.915116 
L 187.061973 312.671573 
L 187.458667 302.948187 
L 187.855362 311.227798 
L 188.64875 319.743127 
L 189.045444 318.564535 
L 189.442138 316.840844 
L 189.838833 324.766876 
L 190.235527 324.766876 
L 190.632221 325.474032 
L 191.028915 324.486961 
L 191.42561 289.762686 
L 191.822304 337.716659 
L 192.218998 309.931346 
L 192.615692 314.955096 
L 193.012386 324.766876 
L 193.409081 314.955096 
L 193.805775 324.29544 
L 194.202469 306.086189 
L 194.599163 309.224191 
L 194.995857 336.302348 
L 195.392552 326.888343 
L 195.789246 328.965611 
L 196.18594 321.628875 
L 196.582634 327.66916 
L 196.979329 329.790626 
L 197.376023 314.881434 
L 197.772717 320.523944 
L 198.169411 328.258456 
L 198.566105 309.548304 
L 198.9628 302.90399 
L 199.359494 307.80988 
L 199.756188 324.796341 
L 200.152882 331.912092 
L 200.549576 327.006202 
L 200.946271 319.433747 
L 201.342965 319.816789 
L 201.739659 329.62857 
L 202.533048 321.304762 
L 202.929742 325.636088 
L 203.326436 323.661946 
L 203.72313 327.949076 
L 204.119824 319.595803 
L 204.516519 316.118956 
L 204.913213 320.86279 
L 205.309907 302.388356 
L 205.706601 310.947882 
L 206.103295 314.719377 
L 206.49999 311.66977 
L 206.896684 304.141512 
L 207.293378 325.547694 
L 207.690072 329.790626 
L 208.086767 329.790626 
L 208.483461 326.372708 
L 208.880155 291.766293 
L 209.276849 324.000792 
L 209.673543 304.892865 
L 210.070238 319.610535 
L 210.466932 319.743127 
L 211.26032 319.743127 
L 211.657014 310.726896 
L 212.053709 318.47614 
L 212.450403 324.015524 
L 212.847097 312.303263 
L 213.243791 309.695628 
L 213.640486 321.452086 
L 214.03718 328.567837 
L 214.433874 318.741324 
L 214.830568 325.415102 
L 215.227262 319.448479 
L 215.623957 321.378424 
L 216.417345 309.695628 
L 216.814039 318.623464 
L 217.210733 330.483049 
L 217.607428 329.333921 
L 218.004122 330.011612 
L 218.400816 327.30085 
L 218.79751 326.903075 
L 219.194205 325.739215 
L 219.590899 319.021239 
L 219.987593 328.83302 
L 220.384287 327.153526 
L 220.780981 312.922024 
L 221.177676 311.375122 
L 221.57437 319.404282 
L 221.971064 321.127973 
L 222.367758 303.625878 
L 222.764452 315.927435 
L 223.161147 321.923523 
L 223.557841 329.790626 
L 223.954535 325.518229 
L 224.351229 307.618359 
L 224.747924 322.291833 
L 225.144618 305.673682 
L 225.541312 314.336335 
L 225.938006 310.756361 
L 226.3347 329.495978 
L 226.731395 319.831521 
L 227.128089 334.549192 
L 227.524783 315.544392 
L 227.921477 324.118651 
L 228.318171 329.348654 
L 229.11156 320.420818 
L 229.508254 315.514927 
L 229.904948 322.940058 
L 230.301643 320.774395 
L 230.698337 319.743127 
L 231.095031 327.256653 
L 231.491725 322.512819 
L 231.888419 326.785216 
L 232.285114 326.387441 
L 232.681808 321.481551 
L 233.078502 319.743127 
L 233.475196 331.941557 
L 233.87189 322.247636 
L 234.268585 309.695628 
L 234.665279 315.087688 
L 235.061973 324.899468 
L 235.458667 322.409692 
L 235.855362 314.719377 
L 236.64875 329.790626 
L 237.045444 325.812877 
L 237.442138 319.743127 
L 238.235527 304.43616 
L 238.632221 321.732001 
L 239.028915 317.518534 
L 239.42561 319.64 
L 239.822304 308.163458 
L 240.218998 322.881129 
L 240.615692 329.245527 
L 241.012386 306.292443 
L 241.409081 313.334532 
L 241.805775 306.970133 
L 242.202469 325.223581 
L 242.599163 328.77409 
L 242.995857 315.16135 
L 243.392552 324.66375 
L 243.789246 319.757859 
L 244.18594 290.39618 
L 244.979329 333.341135 
L 245.376023 330.276795 
L 245.772717 334.210347 
L 246.169411 300.399482 
L 246.566105 323.912397 
L 246.9628 325.724483 
L 247.359494 312.922024 
L 247.756188 321.186903 
L 248.152882 309.916614 
L 248.549576 322.64541 
L 248.946271 322.836932 
L 249.342965 319.743127 
L 249.739659 313.26087 
L 250.136353 319.065436 
L 250.533048 318.756056 
L 250.929742 323.382031 
L 251.326436 324.251242 
L 251.72313 309.135797 
L 252.119824 309.784022 
L 252.516519 326.991469 
L 252.913213 334.814375 
L 253.309907 330.453584 
L 253.706601 322.70434 
L 254.103295 317.79845 
L 254.896684 304.671878 
L 255.293378 304.671878 
L 255.690072 307.618359 
L 256.086767 313.363996 
L 256.483461 313.408194 
L 256.880155 322.527551 
L 257.276849 314.719377 
L 257.673543 312.067545 
L 258.070238 301.180299 
L 258.466932 309.695628 
L 258.863626 311.286728 
L 259.26032 324.766876 
L 259.657014 323.882932 
L 260.053709 309.518839 
L 260.450403 304.730808 
L 260.847097 309.636698 
L 261.243791 319.389549 
L 261.640486 333.930431 
L 262.03718 297.924438 
L 262.433874 303.611145 
L 262.830568 317.79845 
L 263.227262 315.485462 
L 263.623957 302.299962 
L 264.020651 315.735913 
L 264.814039 300.885651 
L 265.210733 273.96955 
L 265.607428 292.885956 
L 266.004122 321.835128 
L 266.79751 304.671878 
L 267.194205 292.355589 
L 267.590899 299.382946 
L 267.987593 315.382336 
L 268.384287 306.115654 
L 268.780981 302.447286 
L 269.177676 294.756971 
L 269.57437 291.412716 
L 269.971064 295.655648 
L 270.367758 284.57688 
L 270.764452 280.540202 
L 271.161147 274.529381 
L 271.557841 281.659865 
L 271.954535 294.624379 
L 272.351229 296.171282 
L 272.747924 298.219086 
L 273.144618 290.690828 
L 274.3347 250.36824 
L 274.731395 264.511347 
L 275.128089 309.666163 
L 275.524783 278.345074 
L 275.921477 271.450309 
L 276.318171 289.96894 
L 276.714866 292.871224 
L 277.11156 259.988499 
L 277.904948 299.235622 
L 278.301643 285.239839 
L 278.698337 247.097647 
L 279.095031 280.923244 
L 279.491725 253.43258 
L 279.888419 249.410634 
L 280.285114 287.33184 
L 280.681808 302.815596 
L 281.078502 260.916641 
L 281.475196 260.990303 
L 281.87189 249.513761 
L 282.268585 255.259398 
L 282.665279 280.496005 
L 283.061973 265.881461 
L 283.458667 260.975571 
L 283.855362 258.176414 
L 284.252056 263.539009 
L 284.64875 275.339664 
L 285.045444 262.758191 
L 285.442138 238.685444 
L 285.838833 262.640332 
L 286.235527 265.277432 
L 286.632221 264.599742 
L 287.028915 293.018548 
L 287.42561 274.116874 
L 287.822304 267.354701 
L 288.218998 268.415434 
L 288.615692 251.149058 
L 289.409081 286.123783 
L 289.805775 258.588921 
L 290.599163 283.722401 
L 290.995857 303.375427 
L 291.392552 256.717906 
L 291.789246 252.342382 
L 292.18594 291.913617 
L 292.582634 276.208875 
L 292.979329 289.60063 
L 293.376023 289.924743 
L 293.772717 293.799365 
L 294.169411 274.70617 
L 294.566105 284.517951 
L 294.9628 299.206157 
L 295.359494 280.613864 
L 295.756188 256.349596 
L 296.152882 286.094318 
L 296.549576 307.220584 
L 296.946271 309.695628 
L 297.342965 313.864898 
L 297.739659 310.667967 
L 298.929742 285.902797 
L 299.326436 288.156854 
L 299.72313 289.60063 
L 300.119824 309.666163 
L 300.516519 287.479164 
L 300.913213 291.265392 
L 301.309907 307.662556 
L 301.706601 312.568447 
L 302.103295 300.94458 
L 302.49999 279.052229 
L 302.896684 279.582596 
L 303.293378 301.607539 
L 303.690072 301.018242 
L 304.086767 291.07387 
L 304.880155 313.555518 
L 305.276849 314.30687 
L 305.673543 301.283426 
L 306.070238 294.624379 
L 306.466932 300.458411 
L 306.863626 316.060026 
L 307.26032 314.851969 
L 307.657014 302.96292 
L 308.053709 314.719377 
L 308.450403 312.980954 
L 308.847097 309.179994 
L 309.243791 331.013415 
L 309.640486 306.734415 
L 310.03718 325.164651 
L 310.433874 328.950879 
L 310.830568 314.719377 
L 311.623957 314.719377 
L 312.020651 295.390464 
L 312.417345 322.910594 
L 312.814039 310.977347 
L 313.210733 287.302375 
L 313.607428 315.10242 
L 314.004122 294.285534 
L 314.400816 289.60063 
L 314.79751 301.622271 
L 315.194205 308.561233 
L 315.590899 290.838152 
L 315.987593 295.537788 
L 316.384287 310.255459 
L 316.780981 311.30146 
L 317.177676 309.695628 
L 317.57437 300.149031 
L 317.971064 300.753059 
L 318.367758 307.618359 
L 318.764452 309.695628 
L 319.161147 312.40639 
L 319.557841 322.498086 
L 319.954535 324.840539 
L 321.144618 296.745846 
L 321.541312 303.655343 
L 321.938006 307.80988 
L 322.3347 306.439767 
L 322.731395 308.045599 
L 323.128089 306.204048 
L 323.524783 311.109939 
L 323.921477 313.422926 
L 324.714866 305.452696 
L 325.11156 296.200747 
L 325.508254 324.766876 
L 325.904948 321.2311 
L 326.301643 299.058833 
L 326.698337 296.03869 
L 327.095031 310.049206 
L 327.491725 314.483659 
L 327.888419 309.34205 
L 328.285114 294.624379 
L 328.681808 304.43616 
L 329.078502 309.45991 
L 329.475196 295.685113 
L 329.87189 303.729005 
L 330.268585 300.237425 
L 330.665279 303.964723 
L 331.061973 308.870613 
L 331.458667 326.019131 
L 331.855362 321.864593 
L 332.252056 312.052813 
L 332.64875 317.150224 
L 333.045444 312.524249 
L 333.838833 301.298158 
L 334.235527 312.671573 
L 334.632221 297.777114 
L 335.028915 308.738022 
L 335.42561 313.157743 
L 335.822304 296.318606 
L 336.218998 302.933455 
L 336.615692 317.268083 
L 337.012386 314.881434 
L 337.409081 305.069653 
L 337.805775 299.648129 
L 338.202469 301.725398 
L 338.599163 304.671878 
L 339.392552 298.071762 
L 339.789246 304.671878 
L 340.18594 309.135797 
L 340.582634 315.632786 
L 340.979329 300.915116 
L 341.376023 293.003815 
L 341.772717 303.655343 
L 342.169411 301.445482 
L 342.566105 308.133993 
L 343.359494 286.757276 
L 344.152882 323.529355 
L 344.549576 305.246442 
L 344.946271 319.595803 
L 345.342965 309.784022 
L 346.136353 309.695628 
L 346.533048 314.321603 
L 346.929742 296.686916 
L 347.326436 307.795148 
L 347.72313 301.150834 
L 348.119824 299.648129 
L 348.516519 303.684807 
L 348.913213 300.753059 
L 349.309907 303.449089 
L 349.706601 293.622576 
L 350.103295 296.731113 
L 350.49999 303.095511 
L 350.896684 314.660448 
L 351.293378 322.954791 
L 351.690072 318.579267 
L 352.086767 296.863705 
L 352.483461 293.151139 
L 353.276849 304.892865 
L 353.673543 292.164068 
L 354.070238 288.849277 
L 354.466932 306.940669 
L 355.26032 290.676095 
L 355.657014 303.478554 
L 356.053709 307.898275 
L 356.847097 291.162265 
L 357.640486 303.345962 
L 358.03718 300.856186 
L 358.830568 311.802362 
L 359.623957 281.762991 
L 360.020651 294.005619 
L 360.417345 291.604237 
L 360.814039 309.312586 
L 361.210733 304.141512 
L 361.607428 294.919028 
L 362.004122 304.642414 
L 362.400816 299.736523 
L 362.79751 299.648129 
L 363.194205 313.747039 
L 363.590899 310.1376 
L 363.987593 318.623464 
L 364.384287 306.70495 
L 364.780981 304.671878 
L 365.177676 312.892559 
L 365.57437 310.726896 
L 365.971064 298.071762 
L 366.367758 290.867617 
L 366.764452 289.60063 
L 367.161147 300.163763 
L 367.557841 297.865508 
L 367.954535 297.909705 
L 368.351229 305.983062 
L 368.747924 300.546806 
L 369.144618 282.897387 
L 369.938006 299.279819 
L 370.3347 299.780721 
L 370.731395 299.751256 
L 371.128089 301.651736 
L 371.524783 307.471035 
L 371.921477 289.924743 
L 372.318171 281.438879 
L 372.714866 284.680007 
L 373.11156 273.483381 
L 373.508254 298.012832 
L 373.904948 297.659255 
L 374.301643 299.073565 
L 374.698337 289.703757 
L 375.095031 301.180299 
L 375.491725 293.784633 
L 375.888419 305.054921 
L 376.285114 284.57688 
L 376.681808 287.346572 
L 377.078502 304.097315 
L 377.475196 300.104833 
L 378.268585 308.811684 
L 378.665279 289.497503 
L 379.061973 284.591613 
L 379.458667 309.03267 
L 379.855362 276.282537 
L 380.252056 269.873942 
L 380.64875 269.505632 
L 381.045444 260.66619 
L 381.442138 276.66558 
L 381.838833 287.921136 
L 382.632221 275.604847 
L 383.028915 301.342355 
L 383.42561 291.1328 
L 383.822304 291.766293 
L 384.218998 270.286449 
L 384.615692 272.894085 
L 385.012386 263.347487 
L 385.409081 273.174 
L 385.805775 266.544419 
L 386.202469 265.984588 
L 386.599163 257.911231 
L 386.995857 252.342382 
L 387.392552 264.52608 
L 387.789246 259.841175 
L 388.18594 237.919359 
L 388.582634 228.652678 
L 388.979329 254.96475 
L 389.376023 265.130108 
L 389.772717 234.339385 
L 390.169411 253.137932 
L 390.566105 284.827331 
L 390.9628 267.16318 
L 391.359494 254.832158 
L 391.756188 273.218198 
L 392.152882 266.662278 
L 392.549576 212.211316 
L 392.946271 246.154773 
L 393.342965 251.370044 
L 393.739659 238.22874 
L 394.136353 262.890783 
L 394.929742 231.378172 
L 395.326436 263.597938 
L 395.72313 239.952431 
L 396.119824 289.011334 
L 396.516519 275.059748 
L 396.913213 227.238367 
L 397.706601 238.832768 
L 398.103295 283.118373 
L 398.49999 242.76632 
L 399.293378 272.525775 
L 399.690072 270.625295 
L 400.086767 254.360721 
L 400.483461 245.742266 
L 400.880155 255.038412 
L 401.276849 242.294883 
L 401.673543 267.487293 
L 402.070238 265.395291 
L 402.466932 260.592528 
L 402.863626 267.443096 
L 403.26032 260.975571 
L 403.657014 257.159878 
L 404.053709 269.888674 
L 404.450403 254.65537 
L 404.847097 226.943719 
L 405.640486 279.67099 
L 406.03718 263.494811 
L 406.830568 281.335752 
L 407.227262 271.258788 
L 407.623957 258.309006 
L 408.020651 278.168285 
L 408.417345 257.277737 
L 408.814039 274.779832 
L 409.210733 261.609064 
L 409.607428 269.505632 
L 410.004122 269.505632 
L 410.400816 271.671295 
L 410.79751 289.409109 
L 411.194205 318.446676 
L 411.590899 262.404614 
L 411.987593 298.896776 
L 412.384287 284.444289 
L 412.780981 279.508934 
L 413.177676 264.791263 
L 413.57437 259.679119 
L 414.367758 297.821311 
L 414.764452 281.851386 
L 415.161147 275.221804 
L 415.557841 299.810185 
L 415.954535 308.767487 
L 416.351229 285.829135 
L 416.747924 287.27291 
L 417.144618 289.60063 
L 417.541312 307.721486 
L 417.938006 300.69413 
L 418.3347 287.847474 
L 418.731395 300.929848 
L 419.128089 293.931957 
L 419.524783 308.855881 
L 419.921477 310.181797 
L 420.318171 299.648129 
L 420.714866 310.373319 
L 421.508254 281.733527 
L 421.904948 301.607539 
L 422.301643 300.856186 
L 422.698337 295.876634 
L 423.095031 300.723594 
L 423.491725 287.199248 
L 423.888419 279.744652 
L 424.285114 289.60063 
L 424.681808 294.108745 
L 425.078502 304.671878 
L 425.475196 302.137905 
L 425.87189 298.071762 
L 426.268585 300.414214 
L 426.665279 269.048927 
L 427.061973 290.39618 
L 427.855362 301.327623 
L 428.252056 315.16135 
L 428.64875 318.446676 
L 429.442138 279.464737 
L 429.838833 274.558846 
L 430.235527 303.787934 
L 430.632221 299.913312 
L 431.028915 271.803887 
L 431.42561 296.642719 
L 431.822304 299.648129 
L 432.218998 303.935258 
L 432.615692 313.010419 
L 433.012386 282.30809 
L 433.409081 294.19714 
L 433.805775 280.569667 
L 434.599163 289.60063 
L 434.995857 286.138515 
L 435.392552 281.232625 
L 435.789246 302.137905 
L 436.18594 299.176692 
L 436.582634 298.572664 
L 436.979329 313.290334 
L 437.376023 311.478249 
L 437.772717 280.937977 
L 438.169411 272.054338 
L 438.566105 291.781026 
L 438.9628 299.648129 
L 439.359494 310.476445 
L 439.756188 312.480052 
L 440.152882 292.694435 
L 440.549576 296.848972 
L 440.946271 304.612949 
L 441.342965 297.777114 
L 441.739659 306.130386 
L 442.136353 308.354979 
L 442.533048 304.671878 
L 442.929742 299.147227 
L 443.326436 284.488486 
L 443.72313 295.979761 
L 444.119824 261.196557 
L 444.516519 300.915116 
L 444.913213 308.148726 
L 445.309907 294.624379 
L 445.706601 295.184211 
L 446.103295 304.347766 
L 446.49999 294.624379 
L 446.896684 294.624379 
L 447.293378 304.288836 
L 447.690072 323.529355 
L 448.086767 306.380837 
L 448.483461 313.62918 
L 448.880155 292.915421 
L 449.276849 289.60063 
L 449.673543 297.850776 
L 450.070238 315.676984 
L 450.466932 304.185709 
L 450.863626 310.962615 
L 451.657014 273.96955 
L 452.450403 301.224496 
L 452.847097 288.760883 
L 453.243791 261.167092 
L 453.640486 293.607844 
L 454.03718 302.137905 
L 454.433874 273.733832 
L 454.830568 269.667688 
L 455.227262 277.004425 
L 456.020651 311.934953 
L 456.417345 304.112047 
L 456.814039 293.607844 
L 457.210733 303.419624 
L 457.607428 302.624074 
L 458.004122 289.60063 
L 458.400816 294.19714 
L 458.79751 300.428946 
L 459.194205 293.489984 
L 459.590899 308.207655 
L 459.987593 314.439462 
L 460.384287 294.624379 
L 460.780981 297.924438 
L 461.177676 311.183601 
L 461.971064 269.505632 
L 462.367758 269.152054 
L 462.764452 265.424756 
L 463.161147 284.57688 
L 463.557841 284.57688 
L 463.557841 284.57688 
" clip-path="url(#p4df6a7fe79)" style="fill: none; stroke: #2ca02c; stroke-width: 2; stroke-linecap: square"/>
   </g>
   <g id="line2d_19">
    <path d="M 57.739659 339.838125 
L 138.665279 339.736926 
L 142.235527 339.512898 
L 144.615692 339.181426 
L 146.599163 338.713397 
L 148.582634 337.993127 
L 150.169411 337.180519 
L 151.756188 336.113914 
L 153.342965 334.760729 
L 154.929742 333.103357 
L 156.516519 331.146743 
L 158.49999 328.335382 
L 162.070238 322.738451 
L 164.450403 319.221992 
L 166.03718 317.272595 
L 167.227262 316.12155 
L 168.417345 315.293561 
L 169.210733 314.939959 
L 170.004122 314.753901 
L 170.79751 314.7392 
L 171.590899 314.896172 
L 172.384287 315.221626 
L 173.57437 316.010423 
L 174.764452 317.127435 
L 175.954535 318.523996 
L 177.541312 320.720169 
L 180.318171 325.042484 
L 183.491725 329.878245 
L 185.475196 332.482637 
L 187.061973 334.242236 
L 188.64875 335.696441 
L 190.235527 336.856036 
L 191.822304 337.749387 
L 193.409081 338.414696 
L 195.392552 338.989564 
L 197.772717 339.407092 
L 200.549576 339.657268 
L 204.913213 339.799178 
L 215.623957 339.837752 
L 251.326436 339.739155 
L 254.896684 339.518964 
L 257.276849 339.193401 
L 259.26032 338.733192 
L 261.243791 338.023433 
L 262.830568 337.220323 
L 264.417345 336.164594 
L 266.004122 334.823244 
L 267.590899 333.177996 
L 269.177676 331.232886 
L 271.161147 328.433334 
L 274.731395 322.842137 
L 277.11156 319.309674 
L 278.698337 317.342261 
L 279.888419 316.174965 
L 281.078502 315.328615 
L 282.268585 314.84095 
L 283.061973 314.726733 
L 283.855362 314.784441 
L 284.64875 315.012876 
L 285.838833 315.664518 
L 287.028915 316.659551 
L 288.218998 317.954048 
L 289.805775 320.049356 
L 292.18594 323.676412 
L 296.152882 329.785714 
L 298.136353 332.403555 
L 299.72313 334.175164 
L 301.309907 335.641405 
L 302.896684 336.812297 
L 304.483461 337.715697 
L 306.070238 338.389817 
L 308.053709 338.974051 
L 310.433874 339.398964 
L 313.210733 339.653525 
L 317.57437 339.798187 
L 328.285114 339.837741 
L 363.987593 339.741537 
L 367.557841 339.525439 
L 370.3347 339.130342 
L 372.318171 338.633429 
L 373.904948 338.050743 
L 375.491725 337.258089 
L 377.078502 336.214735 
L 378.665279 334.887088 
L 380.252056 333.254376 
L 381.838833 331.320573 
L 383.822304 328.53226 
L 386.995857 323.571961 
L 389.376023 319.955703 
L 390.9628 317.874844 
L 392.152882 316.594691 
L 393.342965 315.616547 
L 394.533048 314.983746 
L 395.326436 314.768602 
L 396.119824 314.725029 
L 396.913213 314.854991 
L 397.706601 315.154205 
L 398.896684 315.90609 
L 400.086767 316.990356 
L 401.276849 318.359468 
L 402.863626 320.527306 
L 405.640486 324.832179 
L 408.814039 329.690873 
L 410.79751 332.323808 
L 412.384287 334.109319 
L 413.971064 335.588079 
L 415.557841 336.770095 
L 417.144618 337.683299 
L 418.731395 338.365678 
L 420.714866 338.958023 
L 423.095031 339.389735 
L 425.87189 339.649381 
L 430.235527 339.797275 
L 440.549576 339.837642 
L 463.557841 339.838125 
L 463.557841 339.838125 
" clip-path="url(#p4df6a7fe79)" style="fill: none; stroke: #d62728; stroke-width: 2; stroke-linecap: square"/>
   </g>
   <g id="patch_3">
    <path d="M 37.44875 354.958125 
L 37.44875 22.318125 
" style="fill: none; stroke: #000000; stroke-width: 0.8; stroke-linejoin: miter; stroke-linecap: square"/>
   </g>
   <g id="patch_4">
    <path d="M 483.84875 354.958125 
L 483.84875 22.318125 
" style="fill: none; stroke: #000000; stroke-width: 0.8; stroke-linejoin: miter; stroke-linecap: square"/>
   </g>
   <g id="patch_5">
    <path d="M 37.44875 354.958125 
L 483.84875 354.958125 
" style="fill: none; stroke: #000000; stroke-width: 0.8; stroke-linejoin: miter; stroke-linecap: square"/>
   </g>
   <g id="patch_6">
    <path d="M 37.44875 22.318125 
L 483.84875 22.318125 
" style="fill: none; stroke: #000000; stroke-width: 0.8; stroke-linejoin: miter; stroke-linecap: square"/>
   </g>
   <g id="text_18">
    <!-- Collection of 4 signals -->
    <g transform="translate(194.775313 16.318125) scale(0.12 -0.12)">
     <defs>
      <path id="DejaVuSans-43" d="M 4122 4306 
L 4122 3641 
Q 3803 3938 3442 4084 
Q 3081 4231 2675 4231 
Q 1875 4231 1450 3742 
Q 1025 3253 1025 2328 
Q 1025 1406 1450 917 
Q 1875 428 2675 428 
Q 3081 428 3442 575 
Q 3803 722 4122 1019 
L 4122 359 
Q 3791 134 3420 21 
Q 3050 -91 2638 -91 
Q 1578 -91 968 557 
Q 359 1206 359 2328 
Q 359 3453 968 4101 
Q 1578 4750 2638 4750 
Q 3056 4750 3426 4639 
Q 3797 4528 4122 4306 
z
" transform="scale(0.015625)"/>
      <path id="DejaVuSans-6f" d="M 1959 3097 
Q 1497 3097 1228 2736 
Q 959 2375 959 1747 
Q 959 1119 1226 758 
Q 1494 397 1959 397 
Q 2419 397 2687 759 
Q 2956 1122 2956 1747 
Q 2956 2369 2687 2733 
Q 2419 3097 1959 3097 
z
M 1959 3584 
Q 2709 3584 3137 3096 
Q 3566 2609 3566 1747 
Q 3566 888 3137 398 
Q 2709 -91 1959 -91 
Q 1206 -91 779 398 
Q 353 888 353 1747 
Q 353 2609 779 3096 
Q 1206 3584 1959 3584 
z
" transform="scale(0.015625)"/>
      <path id="DejaVuSans-6c" d="M 603 4863 
L 1178 4863 
L 1178 0 
L 603 0 
L 603 4863 
z
" transform="scale(0.015625)"/>
      <path id="DejaVuSans-63" d="M 3122 3366 
L 3122 2828 
Q 2878 2963 2633 3030 
Q 2388 3097 2138 3097 
Q 1578 3097 1268 2742 
Q 959 2388 959 1747 
Q 959 1106 1268 751 
Q 1578 397 2138 397 
Q 2388 397 2633 464 
Q 2878 531 3122 666 
L 3122 134 
Q 2881 22 2623 -34 
Q 2366 -91 2075 -91 
Q 1284 -91 818 406 
Q 353 903 353 1747 
Q 353 2603 823 3093 
Q 1294 3584 2113 3584 
Q 2378 3584 2631 3529 
Q 2884 3475 3122 3366 
z
" transform="scale(0.015625)"/>
      <path id="DejaVuSans-66" d="M 2375 4863 
L 2375 4384 
L 1825 4384 
Q 1516 4384 1395 4259 
Q 1275 4134 1275 3809 
L 1275 3500 
L 2222 3500 
L 2222 3053 
L 1275 3053 
L 1275 0 
L 697 0 
L 697 3053 
L 147 3053 
L 147 3500 
L 697 3500 
L 697 3744 
Q 697 4328 969 4595 
Q 1241 4863 1831 4863 
L 2375 4863 
z
" transform="scale(0.015625)"/>
      <path id="DejaVuSans-67" d="M 2906 1791 
Q 2906 2416 2648 2759 
Q 2391 3103 1925 3103 
Q 1463 3103 1205 2759 
Q 947 2416 947 1791 
Q 947 1169 1205 825 
Q 1463 481 1925 481 
Q 2391 481 2648 825 
Q 2906 1169 2906 1791 
z
M 3481 434 
Q 3481 -459 3084 -895 
Q 2688 -1331 1869 -1331 
Q 1566 -1331 1297 -1286 
Q 1028 -1241 775 -1147 
L 775 -588 
Q 1028 -725 1275 -790 
Q 1522 -856 1778 -856 
Q 2344 -856 2625 -561 
Q 2906 -266 2906 331 
L 2906 616 
Q 2728 306 2450 153 
Q 2172 0 1784 0 
Q 1141 0 747 490 
Q 353 981 353 1791 
Q 353 2603 747 3093 
Q 1141 3584 1784 3584 
Q 2172 3584 2450 3431 
Q 2728 3278 2906 2969 
L 2906 3500 
L 3481 3500 
L 3481 434 
z
" transform="scale(0.015625)"/>
     </defs>
     <use xlink:href="#DejaVuSans-43"/>
     <use xlink:href="#DejaVuSans-6f" transform="translate(69.824219 0)"/>
     <use xlink:href="#DejaVuSans-6c" transform="translate(131.005859 0)"/>
     <use xlink:href="#DejaVuSans-6c" transform="translate(158.789062 0)"/>
     <use xlink:href="#DejaVuSans-65" transform="translate(186.572266 0)"/>
     <use xlink:href="#DejaVuSans-63" transform="translate(248.095703 0)"/>
     <use xlink:href="#DejaVuSans-74" transform="translate(303.076172 0)"/>
     <use xlink:href="#DejaVuSans-69" transform="translate(342.285156 0)"/>
     <use xlink:href="#DejaVuSans-6f" transform="translate(370.068359 0)"/>
     <use xlink:href="#DejaVuSans-6e" transform="translate(431.25 0)"/>
     <use xlink:href="#DejaVuSans-20" transform="translate(494.628906 0)"/>
     <use xlink:href="#DejaVuSans-6f" transform="translate(526.416016 0)"/>
     <use xlink:href="#DejaVuSans-66" transform="translate(587.597656 0)"/>
     <use xlink:href="#DejaVuSans-20" transform="translate(622.802734 0)"/>
     <use xlink:href="#DejaVuSans-34" transform="translate(654.589844 0)"/>
     <use xlink:href="#DejaVuSans-20" transform="translate(718.212891 0)"/>
     <use xlink:href="#DejaVuSans-73" transform="translate(750 0)"/>
     <use xlink:href="#DejaVuSans-69" transform="translate(802.099609 0)"/>
     <use xlink:href="#DejaVuSans-67" transform="translate(829.882812 0)"/>
     <use xlink:href="#DejaVuSans-6e" transform="translate(893.359375 0)"/>
     <use xlink:href="#DejaVuSans-61" transform="translate(956.738281 0)"/>
     <use xlink:href="#DejaVuSans-6c" transform="translate(1018.017578 0)"/>
     <use xlink:href="#DejaVuSans-73" transform="translate(1045.800781 0)"/>
    </g>
   </g>
   <g id="legend_1">
    <g id="patch_7">
     <path d="M 45.84875 226.333125 
L 195.695 226.333125 
Q 198.095 226.333125 198.095 223.933125 
L 198.095 153.343125 
Q 198.095 150.943125 195.695 150.943125 
L 45.84875 150.943125 
Q 43.44875 150.943125 43.44875 153.343125 
L 43.44875 223.933125 
Q 43.44875 226.333125 45.84875 226.333125 
z
" style="fill: #ffffff; opacity: 0.8; stroke: #cccccc; stroke-linejoin: miter"/>
    </g>
    <g id="line2d_20">
     <path d="M 48.24875 160.66125 
L 60.24875 160.66125 
L 72.24875 160.66125 
" style="fill: none; stroke: #1f77b4; stroke-width: 2; stroke-linecap: square"/>
    </g>
    <g id="text_19">
     <!-- from_peaks -->
     <g transform="translate(81.84875 164.86125) scale(0.12 -0.12)">
      <defs>
       <path id="DejaVuSans-72" d="M 2631 2963 
Q 2534 3019 2420 3045 
Q 2306 3072 2169 3072 
Q 1681 3072 1420 2755 
Q 1159 2438 1159 1844 
L 1159 0 
L 581 0 
L 581 3500 
L 1159 3500 
L 1159 2956 
Q 1341 3275 1631 3429 
Q 1922 3584 2338 3584 
Q 2397 3584 2469 3576 
Q 2541 3569 2628 3553 
L 2631 2963 
z
" transform="scale(0.015625)"/>
       <path id="DejaVuSans-6d" d="M 3328 2828 
Q 3544 3216 3844 3400 
Q 4144 3584 4550 3584 
Q 5097 3584 5394 3201 
Q 5691 2819 5691 2113 
L 5691 0 
L 5113 0 
L 5113 2094 
Q 5113 2597 4934 2840 
Q 4756 3084 4391 3084 
Q 3944 3084 3684 2787 
Q 3425 2491 3425 1978 
L 3425 0 
L 2847 0 
L 2847 2094 
Q 2847 2600 2669 2842 
Q 2491 3084 2119 3084 
Q 1678 3084 1418 2786 
Q 1159 2488 1159 1978 
L 1159 0 
L 581 0 
L 581 3500 
L 1159 3500 
L 1159 2956 
Q 1356 3278 1631 3431 
Q 1906 3584 2284 3584 
Q 2666 3584 2933 3390 
Q 3200 3197 3328 2828 
z
" transform="scale(0.015625)"/>
       <path id="DejaVuSans-5f" d="M 3263 -1063 
L 3263 -1509 
L -63 -1509 
L -63 -1063 
L 3263 -1063 
z
" transform="scale(0.015625)"/>
       <path id="DejaVuSans-70" d="M 1159 525 
L 1159 -1331 
L 581 -1331 
L 581 3500 
L 1159 3500 
L 1159 2969 
Q 1341 3281 1617 3432 
Q 1894 3584 2278 3584 
Q 2916 3584 3314 3078 
Q 3713 2572 3713 1747 
Q 3713 922 3314 415 
Q 2916 -91 2278 -91 
Q 1894 -91 1617 61 
Q 1341 213 1159 525 
z
M 3116 1747 
Q 3116 2381 2855 2742 
Q 2594 3103 2138 3103 
Q 1681 3103 1420 2742 
Q 1159 2381 1159 1747 
Q 1159 1113 1420 752 
Q 1681 391 2138 391 
Q 2594 391 2855 752 
Q 3116 1113 3116 1747 
z
" transform="scale(0.015625)"/>
       <path id="DejaVuSans-6b" d="M 581 4863 
L 1159 4863 
L 1159 1991 
L 2875 3500 
L 3609 3500 
L 1753 1863 
L 3688 0 
L 2938 0 
L 1159 1709 
L 1159 0 
L 581 0 
L 581 4863 
z
" transform="scale(0.015625)"/>
      </defs>
      <use xlink:href="#DejaVuSans-66"/>
      <use xlink:href="#DejaVuSans-72" transform="translate(35.205078 0)"/>
      <use xlink:href="#DejaVuSans-6f" transform="translate(74.068359 0)"/>
      <use xlink:href="#DejaVuSans-6d" transform="translate(135.25 0)"/>
      <use xlink:href="#DejaVuSans-5f" transform="translate(232.662109 0)"/>
      <use xlink:href="#DejaVuSans-70" transform="translate(282.662109 0)"/>
      <use xlink:href="#DejaVuSans-65" transform="translate(346.138672 0)"/>
      <use xlink:href="#DejaVuSans-61" transform="translate(407.662109 0)"/>
      <use xlink:href="#DejaVuSans-6b" transform="translate(468.941406 0)"/>
      <use xlink:href="#DejaVuSans-73" transform="translate(526.851562 0)"/>
     </g>
    </g>
    <g id="line2d_21">
     <path d="M 48.24875 178.60875 
L 60.24875 178.60875 
L 72.24875 178.60875 
" style="fill: none; stroke: #ff7f0e; stroke-width: 2; stroke-linecap: square"/>
    </g>
    <g id="text_20">
     <!-- from_peaks+noise -->
     <g transform="translate(81.84875 182.80875) scale(0.12 -0.12)">
      <defs>
       <path id="DejaVuSans-2b" d="M 2944 4013 
L 2944 2272 
L 4684 2272 
L 4684 1741 
L 2944 1741 
L 2944 0 
L 2419 0 
L 2419 1741 
L 678 1741 
L 678 2272 
L 2419 2272 
L 2419 4013 
L 2944 4013 
z
" transform="scale(0.015625)"/>
      </defs>
      <use xlink:href="#DejaVuSans-66"/>
      <use xlink:href="#DejaVuSans-72" transform="translate(35.205078 0)"/>
      <use xlink:href="#DejaVuSans-6f" transform="translate(74.068359 0)"/>
      <use xlink:href="#DejaVuSans-6d" transform="translate(135.25 0)"/>
      <use xlink:href="#DejaVuSans-5f" transform="translate(232.662109 0)"/>
      <use xlink:href="#DejaVuSans-70" transform="translate(282.662109 0)"/>
      <use xlink:href="#DejaVuSans-65" transform="translate(346.138672 0)"/>
      <use xlink:href="#DejaVuSans-61" transform="translate(407.662109 0)"/>
      <use xlink:href="#DejaVuSans-6b" transform="translate(468.941406 0)"/>
      <use xlink:href="#DejaVuSans-73" transform="translate(526.851562 0)"/>
      <use xlink:href="#DejaVuSans-2b" transform="translate(578.951172 0)"/>
      <use xlink:href="#DejaVuSans-6e" transform="translate(662.740234 0)"/>
      <use xlink:href="#DejaVuSans-6f" transform="translate(726.119141 0)"/>
      <use xlink:href="#DejaVuSans-69" transform="translate(787.300781 0)"/>
      <use xlink:href="#DejaVuSans-73" transform="translate(815.083984 0)"/>
      <use xlink:href="#DejaVuSans-65" transform="translate(867.183594 0)"/>
     </g>
    </g>
    <g id="line2d_22">
     <path d="M 48.24875 196.55625 
L 60.24875 196.55625 
L 72.24875 196.55625 
" style="fill: none; stroke: #2ca02c; stroke-width: 2; stroke-linecap: square"/>
    </g>
    <g id="text_21">
     <!-- from_peaks+noise -->
     <g transform="translate(81.84875 200.75625) scale(0.12 -0.12)">
      <use xlink:href="#DejaVuSans-66"/>
      <use xlink:href="#DejaVuSans-72" transform="translate(35.205078 0)"/>
      <use xlink:href="#DejaVuSans-6f" transform="translate(74.068359 0)"/>
      <use xlink:href="#DejaVuSans-6d" transform="translate(135.25 0)"/>
      <use xlink:href="#DejaVuSans-5f" transform="translate(232.662109 0)"/>
      <use xlink:href="#DejaVuSans-70" transform="translate(282.662109 0)"/>
      <use xlink:href="#DejaVuSans-65" transform="translate(346.138672 0)"/>
      <use xlink:href="#DejaVuSans-61" transform="translate(407.662109 0)"/>
      <use xlink:href="#DejaVuSans-6b" transform="translate(468.941406 0)"/>
      <use xlink:href="#DejaVuSans-73" transform="translate(526.851562 0)"/>
      <use xlink:href="#DejaVuSans-2b" transform="translate(578.951172 0)"/>
      <use xlink:href="#DejaVuSans-6e" transform="translate(662.740234 0)"/>
      <use xlink:href="#DejaVuSans-6f" transform="translate(726.119141 0)"/>
      <use xlink:href="#DejaVuSans-69" transform="translate(787.300781 0)"/>
      <use xlink:href="#DejaVuSans-73" transform="translate(815.083984 0)"/>
      <use xlink:href="#DejaVuSans-65" transform="translate(867.183594 0)"/>
     </g>
    </g>
    <g id="line2d_23">
     <path d="M 48.24875 214.50375 
L 60.24875 214.50375 
L 72.24875 214.50375 
" style="fill: none; stroke: #d62728; stroke-width: 2; stroke-linecap: square"/>
    </g>
    <g id="text_22">
     <!-- from_peaks -->
     <g transform="translate(81.84875 218.70375) scale(0.12 -0.12)">
      <use xlink:href="#DejaVuSans-66"/>
      <use xlink:href="#DejaVuSans-72" transform="translate(35.205078 0)"/>
      <use xlink:href="#DejaVuSans-6f" transform="translate(74.068359 0)"/>
      <use xlink:href="#DejaVuSans-6d" transform="translate(135.25 0)"/>
      <use xlink:href="#DejaVuSans-5f" transform="translate(232.662109 0)"/>
      <use xlink:href="#DejaVuSans-70" transform="translate(282.662109 0)"/>
      <use xlink:href="#DejaVuSans-65" transform="translate(346.138672 0)"/>
      <use xlink:href="#DejaVuSans-61" transform="translate(407.662109 0)"/>
      <use xlink:href="#DejaVuSans-6b" transform="translate(468.941406 0)"/>
      <use xlink:href="#DejaVuSans-73" transform="translate(526.851562 0)"/>
     </g>
    </g>
   </g>
  </g>
 </g>
 <defs>
  <clipPath id="p4df6a7fe79">
   <rect x="37.44875" y="22.318125" width="446.4" height="332.64"/>
  </clipPath>
 </defs>
</svg>
