<?xml version="1.0" encoding="utf-8" standalone="no"?>
<!DOCTYPE svg PUBLIC "-//W3C//DTD SVG 1.1//EN"
  "http://www.w3.org/Graphics/SVG/1.1/DTD/svg11.dtd">
<svg xmlns:xlink="http://www.w3.org/1999/xlink" width="491.04875pt" height="396.385625pt" viewBox="0 0 491.04875 396.385625" xmlns="http://www.w3.org/2000/svg" version="1.1">
 <metadata>
  <rdf:RDF xmlns:dc="http://purl.org/dc/elements/1.1/" xmlns:cc="http://creativecommons.org/ns#" xmlns:rdf="http://www.w3.org/1999/02/22-rdf-syntax-ns#">
   <cc:Work>
    <dc:type rdf:resource="http://purl.org/dc/dcmitype/StillImage"/>
    <dc:date>2025-06-10T23:40:53.477122</dc:date>
    <dc:format>image/svg+xml</dc:format>
    <dc:creator>
     <cc:Agent>
      <dc:title>Matplotlib v3.10.0, https://matplotlib.org/</dc:title>
     </cc:Agent>
    </dc:creator>
   </cc:Work>
  </rdf:RDF>
 </metadata>
 <defs>
  <style type="text/css">*{stroke-linejoin: round; stroke-linecap: butt}</style>
 </defs>
 <g id="figure_1">
  <g id="patch_1">
   <path d="M 0 396.385625 
L 491.04875 396.385625 
L 491.04875 0 
L 0 0 
z
" style="fill: #ffffff"/>
  </g>
  <g id="axes_1">
   <g id="patch_2">
    <path d="M 37.44875 354.958125 
L 483.84875 354.958125 
L 483.84875 22.318125 
L 37.44875 22.318125 
z
" style="fill: #ffffff"/>
   </g>
   <g id="matplotlib.axis_1">
    <g id="xtick_1">
     <g id="line2d_1">
      <defs>
       <path id="me3332c9347" d="M 0 0 
L 0 3.5 
" style="stroke: #000000; stroke-width: 0.8"/>
      </defs>
      <g>
       <use xlink:href="#me3332c9347" x="57.739659" y="354.958125" style="stroke: #000000; stroke-width: 0.8"/>
      </g>
     </g>
     <g id="text_1">
      <!-- 0 -->
      <g transform="translate(53.922159 371.07625) scale(0.12 -0.12)">
       <defs>
        <path id="DejaVuSans-30" d="M 2034 4250 
Q 1547 4250 1301 3770 
Q 1056 3291 1056 2328 
Q 1056 1369 1301 889 
Q 1547 409 2034 409 
Q 2525 409 2770 889 
Q 3016 1369 3016 2328 
Q 3016 3291 2770 3770 
Q 2525 4250 2034 4250 
z
M 2034 4750 
Q 2819 4750 3233 4129 
Q 3647 3509 3647 2328 
Q 3647 1150 3233 529 
Q 2819 -91 2034 -91 
Q 1250 -91 836 529 
Q 422 1150 422 2328 
Q 422 3509 836 4129 
Q 1250 4750 2034 4750 
z
" transform="scale(0.015625)"/>
       </defs>
       <use xlink:href="#DejaVuSans-30"/>
      </g>
     </g>
    </g>
    <g id="xtick_2">
     <g id="line2d_2">
      <g>
       <use xlink:href="#me3332c9347" x="137.078502" y="354.958125" style="stroke: #000000; stroke-width: 0.8"/>
      </g>
     </g>
     <g id="text_2">
      <!-- 200 -->
      <g transform="translate(125.626002 371.07625) scale(0.12 -0.12)">
       <defs>
        <path id="DejaVuSans-32" d="M 1228 531 
L 3431 531 
L 3431 0 
L 469 0 
L 469 531 
Q 828 903 1448 1529 
Q 2069 2156 2228 2338 
Q 2531 2678 2651 2914 
Q 2772 3150 2772 3378 
Q 2772 3750 2511 3984 
Q 2250 4219 1831 4219 
Q 1534 4219 1204 4116 
Q 875 4013 500 3803 
L 500 4441 
Q 881 4594 1212 4672 
Q 1544 4750 1819 4750 
Q 2544 4750 2975 4387 
Q 3406 4025 3406 3419 
Q 3406 3131 3298 2873 
Q 3191 2616 2906 2266 
Q 2828 2175 2409 1742 
Q 1991 1309 1228 531 
z
" transform="scale(0.015625)"/>
       </defs>
       <use xlink:href="#DejaVuSans-32"/>
       <use xlink:href="#DejaVuSans-30" transform="translate(63.623047 0)"/>
       <use xlink:href="#DejaVuSans-30" transform="translate(127.246094 0)"/>
      </g>
     </g>
    </g>
    <g id="xtick_3">
     <g id="line2d_3">
      <g>
       <use xlink:href="#me3332c9347" x="216.417345" y="354.958125" style="stroke: #000000; stroke-width: 0.8"/>
      </g>
     </g>
     <g id="text_3">
      <!-- 400 -->
      <g transform="translate(204.964845 371.07625) scale(0.12 -0.12)">
       <defs>
        <path id="DejaVuSans-34" d="M 2419 4116 
L 825 1625 
L 2419 1625 
L 2419 4116 
z
M 2253 4666 
L 3047 4666 
L 3047 1625 
L 3713 1625 
L 3713 1100 
L 3047 1100 
L 3047 0 
L 2419 0 
L 2419 1100 
L 313 1100 
L 313 1709 
L 2253 4666 
z
" transform="scale(0.015625)"/>
       </defs>
       <use xlink:href="#DejaVuSans-34"/>
       <use xlink:href="#DejaVuSans-30" transform="translate(63.623047 0)"/>
       <use xlink:href="#DejaVuSans-30" transform="translate(127.246094 0)"/>
      </g>
     </g>
    </g>
    <g id="xtick_4">
     <g id="line2d_4">
      <g>
       <use xlink:href="#me3332c9347" x="295.756188" y="354.958125" style="stroke: #000000; stroke-width: 0.8"/>
      </g>
     </g>
     <g id="text_4">
      <!-- 600 -->
      <g transform="translate(284.303688 371.07625) scale(0.12 -0.12)">
       <defs>
        <path id="DejaVuSans-36" d="M 2113 2584 
Q 1688 2584 1439 2293 
Q 1191 2003 1191 1497 
Q 1191 994 1439 701 
Q 1688 409 2113 409 
Q 2538 409 2786 701 
Q 3034 994 3034 1497 
Q 3034 2003 2786 2293 
Q 2538 2584 2113 2584 
z
M 3366 4563 
L 3366 3988 
Q 3128 4100 2886 4159 
Q 2644 4219 2406 4219 
Q 1781 4219 1451 3797 
Q 1122 3375 1075 2522 
Q 1259 2794 1537 2939 
Q 1816 3084 2150 3084 
Q 2853 3084 3261 2657 
Q 3669 2231 3669 1497 
Q 3669 778 3244 343 
Q 2819 -91 2113 -91 
Q 1303 -91 875 529 
Q 447 1150 447 2328 
Q 447 3434 972 4092 
Q 1497 4750 2381 4750 
Q 2619 4750 2861 4703 
Q 3103 4656 3366 4563 
z
" transform="scale(0.015625)"/>
       </defs>
       <use xlink:href="#DejaVuSans-36"/>
       <use xlink:href="#DejaVuSans-30" transform="translate(63.623047 0)"/>
       <use xlink:href="#DejaVuSans-30" transform="translate(127.246094 0)"/>
      </g>
     </g>
    </g>
    <g id="xtick_5">
     <g id="line2d_5">
      <g>
       <use xlink:href="#me3332c9347" x="375.095031" y="354.958125" style="stroke: #000000; stroke-width: 0.8"/>
      </g>
     </g>
     <g id="text_5">
      <!-- 800 -->
      <g transform="translate(363.642531 371.07625) scale(0.12 -0.12)">
       <defs>
        <path id="DejaVuSans-38" d="M 2034 2216 
Q 1584 2216 1326 1975 
Q 1069 1734 1069 1313 
Q 1069 891 1326 650 
Q 1584 409 2034 409 
Q 2484 409 2743 651 
Q 3003 894 3003 1313 
Q 3003 1734 2745 1975 
Q 2488 2216 2034 2216 
z
M 1403 2484 
Q 997 2584 770 2862 
Q 544 3141 544 3541 
Q 544 4100 942 4425 
Q 1341 4750 2034 4750 
Q 2731 4750 3128 4425 
Q 3525 4100 3525 3541 
Q 3525 3141 3298 2862 
Q 3072 2584 2669 2484 
Q 3125 2378 3379 2068 
Q 3634 1759 3634 1313 
Q 3634 634 3220 271 
Q 2806 -91 2034 -91 
Q 1263 -91 848 271 
Q 434 634 434 1313 
Q 434 1759 690 2068 
Q 947 2378 1403 2484 
z
M 1172 3481 
Q 1172 3119 1398 2916 
Q 1625 2713 2034 2713 
Q 2441 2713 2670 2916 
Q 2900 3119 2900 3481 
Q 2900 3844 2670 4047 
Q 2441 4250 2034 4250 
Q 1625 4250 1398 4047 
Q 1172 3844 1172 3481 
z
" transform="scale(0.015625)"/>
       </defs>
       <use xlink:href="#DejaVuSans-38"/>
       <use xlink:href="#DejaVuSans-30" transform="translate(63.623047 0)"/>
       <use xlink:href="#DejaVuSans-30" transform="translate(127.246094 0)"/>
      </g>
     </g>
    </g>
    <g id="xtick_6">
     <g id="line2d_6">
      <g>
       <use xlink:href="#me3332c9347" x="454.433874" y="354.958125" style="stroke: #000000; stroke-width: 0.8"/>
      </g>
     </g>
     <g id="text_6">
      <!-- 1000 -->
      <g transform="translate(439.163874 371.07625) scale(0.12 -0.12)">
       <defs>
        <path id="DejaVuSans-31" d="M 794 531 
L 1825 531 
L 1825 4091 
L 703 3866 
L 703 4441 
L 1819 4666 
L 2450 4666 
L 2450 531 
L 3481 531 
L 3481 0 
L 794 0 
L 794 531 
z
" transform="scale(0.015625)"/>
       </defs>
       <use xlink:href="#DejaVuSans-31"/>
       <use xlink:href="#DejaVuSans-30" transform="translate(63.623047 0)"/>
       <use xlink:href="#DejaVuSans-30" transform="translate(127.246094 0)"/>
       <use xlink:href="#DejaVuSans-30" transform="translate(190.869141 0)"/>
      </g>
     </g>
    </g>
    <g id="text_7">
     <!-- index [-] -->
     <g transform="translate(235.47875 386.69) scale(0.12 -0.12)">
      <defs>
       <path id="DejaVuSans-69" d="M 603 3500 
L 1178 3500 
L 1178 0 
L 603 0 
L 603 3500 
z
M 603 4863 
L 1178 4863 
L 1178 4134 
L 603 4134 
L 603 4863 
z
" transform="scale(0.015625)"/>
       <path id="DejaVuSans-6e" d="M 3513 2113 
L 3513 0 
L 2938 0 
L 2938 2094 
Q 2938 2591 2744 2837 
Q 2550 3084 2163 3084 
Q 1697 3084 1428 2787 
Q 1159 2491 1159 1978 
L 1159 0 
L 581 0 
L 581 3500 
L 1159 3500 
L 1159 2956 
Q 1366 3272 1645 3428 
Q 1925 3584 2291 3584 
Q 2894 3584 3203 3211 
Q 3513 2838 3513 2113 
z
" transform="scale(0.015625)"/>
       <path id="DejaVuSans-64" d="M 2906 2969 
L 2906 4863 
L 3481 4863 
L 3481 0 
L 2906 0 
L 2906 525 
Q 2725 213 2448 61 
Q 2172 -91 1784 -91 
Q 1150 -91 751 415 
Q 353 922 353 1747 
Q 353 2572 751 3078 
Q 1150 3584 1784 3584 
Q 2172 3584 2448 3432 
Q 2725 3281 2906 2969 
z
M 947 1747 
Q 947 1113 1208 752 
Q 1469 391 1925 391 
Q 2381 391 2643 752 
Q 2906 1113 2906 1747 
Q 2906 2381 2643 2742 
Q 2381 3103 1925 3103 
Q 1469 3103 1208 2742 
Q 947 2381 947 1747 
z
" transform="scale(0.015625)"/>
       <path id="DejaVuSans-65" d="M 3597 1894 
L 3597 1613 
L 953 1613 
Q 991 1019 1311 708 
Q 1631 397 2203 397 
Q 2534 397 2845 478 
Q 3156 559 3463 722 
L 3463 178 
Q 3153 47 2828 -22 
Q 2503 -91 2169 -91 
Q 1331 -91 842 396 
Q 353 884 353 1716 
Q 353 2575 817 3079 
Q 1281 3584 2069 3584 
Q 2775 3584 3186 3129 
Q 3597 2675 3597 1894 
z
M 3022 2063 
Q 3016 2534 2758 2815 
Q 2500 3097 2075 3097 
Q 1594 3097 1305 2825 
Q 1016 2553 972 2059 
L 3022 2063 
z
" transform="scale(0.015625)"/>
       <path id="DejaVuSans-78" d="M 3513 3500 
L 2247 1797 
L 3578 0 
L 2900 0 
L 1881 1375 
L 863 0 
L 184 0 
L 1544 1831 
L 300 3500 
L 978 3500 
L 1906 2253 
L 2834 3500 
L 3513 3500 
z
" transform="scale(0.015625)"/>
       <path id="DejaVuSans-20" transform="scale(0.015625)"/>
       <path id="DejaVuSans-5b" d="M 550 4863 
L 1875 4863 
L 1875 4416 
L 1125 4416 
L 1125 -397 
L 1875 -397 
L 1875 -844 
L 550 -844 
L 550 4863 
z
" transform="scale(0.015625)"/>
       <path id="DejaVuSans-2d" d="M 313 2009 
L 1997 2009 
L 1997 1497 
L 313 1497 
L 313 2009 
z
" transform="scale(0.015625)"/>
       <path id="DejaVuSans-5d" d="M 1947 4863 
L 1947 -844 
L 622 -844 
L 622 -397 
L 1369 -397 
L 1369 4416 
L 622 4416 
L 622 4863 
L 1947 4863 
z
" transform="scale(0.015625)"/>
      </defs>
      <use xlink:href="#DejaVuSans-69"/>
      <use xlink:href="#DejaVuSans-6e" transform="translate(27.783203 0)"/>
      <use xlink:href="#DejaVuSans-64" transform="translate(91.162109 0)"/>
      <use xlink:href="#DejaVuSans-65" transform="translate(154.638672 0)"/>
      <use xlink:href="#DejaVuSans-78" transform="translate(214.412109 0)"/>
      <use xlink:href="#DejaVuSans-20" transform="translate(273.591797 0)"/>
      <use xlink:href="#DejaVuSans-5b" transform="translate(305.378906 0)"/>
      <use xlink:href="#DejaVuSans-2d" transform="translate(344.392578 0)"/>
      <use xlink:href="#DejaVuSans-5d" transform="translate(380.476562 0)"/>
     </g>
    </g>
   </g>
   <g id="matplotlib.axis_2">
    <g id="ytick_1">
     <g id="line2d_7">
      <defs>
       <path id="m8cac60e340" d="M 0 0 
L -3.5 0 
" style="stroke: #000000; stroke-width: 0.8"/>
      </defs>
      <g>
       <use xlink:href="#m8cac60e340" x="37.44875" y="339.838125" style="stroke: #000000; stroke-width: 0.8"/>
      </g>
     </g>
     <g id="text_8">
      <!-- 0 -->
      <g transform="translate(22.81375 344.397187) scale(0.12 -0.12)">
       <use xlink:href="#DejaVuSans-30"/>
      </g>
     </g>
    </g>
    <g id="ytick_2">
     <g id="line2d_8">
      <g>
       <use xlink:href="#m8cac60e340" x="37.44875" y="276.238502" style="stroke: #000000; stroke-width: 0.8"/>
      </g>
     </g>
     <g id="text_9">
      <!-- 1 -->
      <g transform="translate(22.81375 280.797565) scale(0.12 -0.12)">
       <use xlink:href="#DejaVuSans-31"/>
      </g>
     </g>
    </g>
    <g id="ytick_3">
     <g id="line2d_9">
      <g>
       <use xlink:href="#m8cac60e340" x="37.44875" y="212.638879" style="stroke: #000000; stroke-width: 0.8"/>
      </g>
     </g>
     <g id="text_10">
      <!-- 2 -->
      <g transform="translate(22.81375 217.197942) scale(0.12 -0.12)">
       <use xlink:href="#DejaVuSans-32"/>
      </g>
     </g>
    </g>
    <g id="ytick_4">
     <g id="line2d_10">
      <g>
       <use xlink:href="#m8cac60e340" x="37.44875" y="149.039256" style="stroke: #000000; stroke-width: 0.8"/>
      </g>
     </g>
     <g id="text_11">
      <!-- 3 -->
      <g transform="translate(22.81375 153.598319) scale(0.12 -0.12)">
       <defs>
        <path id="DejaVuSans-33" d="M 2597 2516 
Q 3050 2419 3304 2112 
Q 3559 1806 3559 1356 
Q 3559 666 3084 287 
Q 2609 -91 1734 -91 
Q 1441 -91 1130 -33 
Q 819 25 488 141 
L 488 750 
Q 750 597 1062 519 
Q 1375 441 1716 441 
Q 2309 441 2620 675 
Q 2931 909 2931 1356 
Q 2931 1769 2642 2001 
Q 2353 2234 1838 2234 
L 1294 2234 
L 1294 2753 
L 1863 2753 
Q 2328 2753 2575 2939 
Q 2822 3125 2822 3475 
Q 2822 3834 2567 4026 
Q 2313 4219 1838 4219 
Q 1578 4219 1281 4162 
Q 984 4106 628 3988 
L 628 4550 
Q 988 4650 1302 4700 
Q 1616 4750 1894 4750 
Q 2613 4750 3031 4423 
Q 3450 4097 3450 3541 
Q 3450 3153 3228 2886 
Q 3006 2619 2597 2516 
z
" transform="scale(0.015625)"/>
       </defs>
       <use xlink:href="#DejaVuSans-33"/>
      </g>
     </g>
    </g>
    <g id="ytick_5">
     <g id="line2d_11">
      <g>
       <use xlink:href="#m8cac60e340" x="37.44875" y="85.439633" style="stroke: #000000; stroke-width: 0.8"/>
      </g>
     </g>
     <g id="text_12">
      <!-- 4 -->
      <g transform="translate(22.81375 89.998696) scale(0.12 -0.12)">
       <use xlink:href="#DejaVuSans-34"/>
      </g>
     </g>
    </g>
    <g id="text_13">
     <!-- intensity [a.u.] -->
     <g transform="translate(16.318125 232.531875) rotate(-90) scale(0.12 -0.12)">
      <defs>
       <path id="DejaVuSans-74" d="M 1172 4494 
L 1172 3500 
L 2356 3500 
L 2356 3053 
L 1172 3053 
L 1172 1153 
Q 1172 725 1289 603 
Q 1406 481 1766 481 
L 2356 481 
L 2356 0 
L 1766 0 
Q 1100 0 847 248 
Q 594 497 594 1153 
L 594 3053 
L 172 3053 
L 172 3500 
L 594 3500 
L 594 4494 
L 1172 4494 
z
" transform="scale(0.015625)"/>
       <path id="DejaVuSans-73" d="M 2834 3397 
L 2834 2853 
Q 2591 2978 2328 3040 
Q 2066 3103 1784 3103 
Q 1356 3103 1142 2972 
Q 928 2841 928 2578 
Q 928 2378 1081 2264 
Q 1234 2150 1697 2047 
L 1894 2003 
Q 2506 1872 2764 1633 
Q 3022 1394 3022 966 
Q 3022 478 2636 193 
Q 2250 -91 1575 -91 
Q 1294 -91 989 -36 
Q 684 19 347 128 
L 347 722 
Q 666 556 975 473 
Q 1284 391 1588 391 
Q 1994 391 2212 530 
Q 2431 669 2431 922 
Q 2431 1156 2273 1281 
Q 2116 1406 1581 1522 
L 1381 1569 
Q 847 1681 609 1914 
Q 372 2147 372 2553 
Q 372 3047 722 3315 
Q 1072 3584 1716 3584 
Q 2034 3584 2315 3537 
Q 2597 3491 2834 3397 
z
" transform="scale(0.015625)"/>
       <path id="DejaVuSans-79" d="M 2059 -325 
Q 1816 -950 1584 -1140 
Q 1353 -1331 966 -1331 
L 506 -1331 
L 506 -850 
L 844 -850 
Q 1081 -850 1212 -737 
Q 1344 -625 1503 -206 
L 1606 56 
L 191 3500 
L 800 3500 
L 1894 763 
L 2988 3500 
L 3597 3500 
L 2059 -325 
z
" transform="scale(0.015625)"/>
       <path id="DejaVuSans-61" d="M 2194 1759 
Q 1497 1759 1228 1600 
Q 959 1441 959 1056 
Q 959 750 1161 570 
Q 1363 391 1709 391 
Q 2188 391 2477 730 
Q 2766 1069 2766 1631 
L 2766 1759 
L 2194 1759 
z
M 3341 1997 
L 3341 0 
L 2766 0 
L 2766 531 
Q 2569 213 2275 61 
Q 1981 -91 1556 -91 
Q 1019 -91 701 211 
Q 384 513 384 1019 
Q 384 1609 779 1909 
Q 1175 2209 1959 2209 
L 2766 2209 
L 2766 2266 
Q 2766 2663 2505 2880 
Q 2244 3097 1772 3097 
Q 1472 3097 1187 3025 
Q 903 2953 641 2809 
L 641 3341 
Q 956 3463 1253 3523 
Q 1550 3584 1831 3584 
Q 2591 3584 2966 3190 
Q 3341 2797 3341 1997 
z
" transform="scale(0.015625)"/>
       <path id="DejaVuSans-2e" d="M 684 794 
L 1344 794 
L 1344 0 
L 684 0 
L 684 794 
z
" transform="scale(0.015625)"/>
       <path id="DejaVuSans-75" d="M 544 1381 
L 544 3500 
L 1119 3500 
L 1119 1403 
Q 1119 906 1312 657 
Q 1506 409 1894 409 
Q 2359 409 2629 706 
Q 2900 1003 2900 1516 
L 2900 3500 
L 3475 3500 
L 3475 0 
L 2900 0 
L 2900 538 
Q 2691 219 2414 64 
Q 2138 -91 1772 -91 
Q 1169 -91 856 284 
Q 544 659 544 1381 
z
M 1991 3584 
L 1991 3584 
z
" transform="scale(0.015625)"/>
      </defs>
      <use xlink:href="#DejaVuSans-69"/>
      <use xlink:href="#DejaVuSans-6e" transform="translate(27.783203 0)"/>
      <use xlink:href="#DejaVuSans-74" transform="translate(91.162109 0)"/>
      <use xlink:href="#DejaVuSans-65" transform="translate(130.371094 0)"/>
      <use xlink:href="#DejaVuSans-6e" transform="translate(191.894531 0)"/>
      <use xlink:href="#DejaVuSans-73" transform="translate(255.273438 0)"/>
      <use xlink:href="#DejaVuSans-69" transform="translate(307.373047 0)"/>
      <use xlink:href="#DejaVuSans-74" transform="translate(335.15625 0)"/>
      <use xlink:href="#DejaVuSans-79" transform="translate(374.365234 0)"/>
      <use xlink:href="#DejaVuSans-20" transform="translate(433.544922 0)"/>
      <use xlink:href="#DejaVuSans-5b" transform="translate(465.332031 0)"/>
      <use xlink:href="#DejaVuSans-61" transform="translate(504.345703 0)"/>
      <use xlink:href="#DejaVuSans-2e" transform="translate(565.625 0)"/>
      <use xlink:href="#DejaVuSans-75" transform="translate(597.412109 0)"/>
      <use xlink:href="#DejaVuSans-2e" transform="translate(660.791016 0)"/>
      <use xlink:href="#DejaVuSans-5d" transform="translate(692.578125 0)"/>
     </g>
    </g>
   </g>
   <g id="line2d_12">
    <path d="M 57.739659 339.838125 
L 83.921477 339.837789 
L 84.318171 339.664668 
L 84.714866 327.231527 
L 85.11156 210.836296 
L 85.508254 153.978617 
L 85.904948 302.136101 
L 86.301643 338.761324 
L 86.698337 339.833795 
L 97.012386 339.838125 
L 110.103295 339.830784 
L 110.49999 339.686572 
L 110.896684 337.967452 
L 111.293378 326.031745 
L 111.690072 278.911204 
L 112.483461 86.202511 
L 112.880155 100.571657 
L 113.673543 294.321794 
L 114.070238 330.659428 
L 114.466932 338.731394 
L 114.863626 339.758335 
L 115.657014 339.838036 
L 235.855362 339.827405 
L 236.252056 339.548827 
L 236.64875 335.742372 
L 237.045444 309.419274 
L 237.442138 221.323241 
L 237.838833 97.610333 
L 238.235527 80.123723 
L 239.028915 296.735559 
L 239.42561 333.1664 
L 239.822304 339.296381 
L 240.218998 339.815048 
L 242.202469 339.838125 
L 400.880155 339.826858 
L 401.276849 339.640762 
L 401.673543 337.74638 
L 402.070238 326.424673 
L 402.466932 287.795374 
L 403.26032 166.312663 
L 403.657014 190.71448 
L 404.450403 315.444477 
L 404.847097 335.194858 
L 405.243791 339.303366 
L 405.640486 339.800862 
L 407.227262 339.838125 
L 429.838833 339.797575 
L 430.235527 338.396676 
L 430.632221 321.044237 
L 431.42561 182.195121 
L 431.822304 238.420032 
L 432.218998 315.906952 
L 432.615692 337.766933 
L 433.012386 339.772377 
L 433.805775 339.838122 
L 448.086767 339.807372 
L 448.483461 339.358348 
L 448.880155 335.646857 
L 449.276849 319.335694 
L 450.070238 253.701745 
L 450.466932 265.859217 
L 450.863626 304.260005 
L 451.26032 330.257103 
L 451.657014 338.393369 
L 452.053709 339.716133 
L 452.847097 339.837972 
L 463.557841 339.838125 
L 463.557841 339.838125 
" clip-path="url(#pf185696dbe)" style="fill: none; stroke: #1f77b4; stroke-width: 2; stroke-linecap: square"/>
   </g>
   <g id="line2d_13">
    <path d="M 57.739659 339.838125 
L 134.698337 339.810698 
L 135.095031 338.250665 
L 135.491725 313.347823 
L 135.888419 212.392443 
L 136.285114 163.064576 
L 136.681808 269.147246 
L 137.078502 331.688016 
L 137.475196 339.56722 
L 137.87189 339.835529 
L 154.929742 339.838125 
L 189.045444 339.781575 
L 189.442138 338.948378 
L 189.838833 331.598451 
L 190.235527 294.926048 
L 190.632221 195.750679 
L 191.028915 67.756617 
L 191.42561 37.438125 
L 192.615692 322.576196 
L 193.012386 337.535562 
L 193.409081 339.657348 
L 193.805775 339.829771 
L 199.359494 339.838125 
L 244.979329 339.828183 
L 245.376023 339.674288 
L 245.772717 338.198028 
L 246.169411 329.86459 
L 246.566105 302.995436 
L 246.9628 257.162783 
L 247.359494 227.138318 
L 247.756188 246.514234 
L 248.152882 292.893595 
L 248.549576 325.493155 
L 248.946271 337.175336 
L 249.342965 339.537866 
L 249.739659 339.817558 
L 252.119824 339.838125 
L 333.442138 339.838011 
L 333.838833 339.13128 
L 334.235527 282.116144 
L 334.632221 277.851457 
L 335.028915 338.962747 
L 335.42561 339.837962 
L 360.814039 339.796362 
L 361.210733 339.290559 
L 361.607428 335.292669 
L 362.004122 315.948053 
L 362.400816 260.340119 
L 362.79751 172.346245 
L 363.194205 116.414022 
L 363.590899 151.141109 
L 364.384287 305.677069 
L 364.780981 332.515572 
L 365.177676 338.84434 
L 365.57437 339.752732 
L 366.367758 339.837965 
L 416.747924 339.811872 
L 417.144618 337.920988 
L 417.541312 301.76124 
L 417.938006 134.149794 
L 418.3347 37.635756 
L 418.731395 219.077307 
L 419.128089 326.71328 
L 419.524783 339.450151 
L 419.921477 339.835006 
L 434.202469 339.838125 
L 463.557841 339.838125 
L 463.557841 339.838125 
" clip-path="url(#pf185696dbe)" style="fill: none; stroke: #ff7f0e; stroke-width: 2; stroke-linecap: square"/>
   </g>
   <g id="line2d_14">
    <path d="M 57.739659 339.838125 
L 104.946271 339.777879 
L 105.342965 338.663627 
L 105.739659 329.098478 
L 106.136353 293.776498 
L 106.533048 247.176419 
L 106.929742 252.405594 
L 107.326436 301.142884 
L 107.72313 331.805568 
L 108.119824 339.056026 
L 108.516519 339.802407 
L 110.103295 339.838125 
L 139.061973 339.780032 
L 139.458667 338.988738 
L 139.855362 333.001914 
L 140.252056 309.551505 
L 140.64875 265.977754 
L 141.045444 240.687031 
L 141.442138 266.571046 
L 141.838833 310.036113 
L 142.235527 333.165332 
L 142.632221 339.015702 
L 143.028915 339.782328 
L 144.218998 339.838125 
L 149.772717 339.792474 
L 150.169411 328.999544 
L 150.566105 194.023761 
L 150.9628 228.682785 
L 151.359494 335.036785 
L 151.756188 339.826373 
L 155.72313 339.838125 
L 173.971064 339.825059 
L 174.367758 339.632371 
L 174.764452 337.824482 
L 175.161147 327.590327 
L 175.557841 293.538704 
L 176.351229 181.006631 
L 176.747924 195.699583 
L 177.541312 311.341523 
L 177.938006 333.62997 
L 178.3347 338.997555 
L 178.731395 339.767391 
L 179.524783 339.838005 
L 326.301643 339.836593 
L 326.698337 331.011397 
L 327.095031 87.873244 
L 327.491725 304.201596 
L 327.888419 339.813152 
L 329.87189 339.838125 
L 390.9628 339.832687 
L 391.359494 339.696663 
L 391.756188 337.843175 
L 392.152882 324.585178 
L 392.549576 276.610908 
L 392.946271 197.741777 
L 393.342965 166.700954 
L 394.533048 331.884157 
L 394.929742 339.000778 
L 395.326436 339.790333 
L 396.516519 339.838125 
L 463.557841 339.838125 
L 463.557841 339.838125 
" clip-path="url(#pf185696dbe)" style="fill: none; stroke: #2ca02c; stroke-width: 2; stroke-linecap: square"/>
   </g>
   <g id="line2d_15">
    <path d="M 57.739659 339.838125 
L 71.227262 339.831174 
L 71.623957 339.601 
L 72.020651 336.104939 
L 72.417345 312.715446 
L 73.210733 199.139851 
L 73.607428 239.378411 
L 74.004122 306.736816 
L 74.400816 334.804876 
L 74.79751 339.48494 
L 75.194205 339.826688 
L 79.161147 339.838125 
L 125.57437 339.827612 
L 125.971064 339.123474 
L 126.367758 324.079832 
L 126.764452 227.125513 
L 127.161147 78.330775 
L 127.557841 143.029864 
L 127.954535 291.792838 
L 128.351229 336.033549 
L 128.747924 339.740399 
L 129.541312 339.838123 
L 222.367758 339.825334 
L 222.764452 339.245161 
L 223.161147 330.111842 
L 223.954535 223.905922 
L 224.351229 255.593348 
L 224.747924 318.176614 
L 225.144618 337.86733 
L 225.541312 339.774679 
L 226.3347 339.838122 
L 279.491725 339.827722 
L 279.888419 339.641805 
L 280.285114 337.614845 
L 280.681808 324.729074 
L 281.078502 278.221997 
L 281.87189 118.400458 
L 282.268585 144.695853 
L 283.061973 307.089452 
L 283.458667 333.601692 
L 283.855362 339.125406 
L 284.252056 339.786922 
L 284.64875 339.765328 
L 285.045444 338.674479 
L 285.442138 329.485769 
L 285.838833 289.989288 
L 286.235527 209.925927 
L 286.632221 156.596621 
L 287.028915 199.95131 
L 287.42561 282.040667 
L 287.822304 326.913448 
L 288.218998 338.273862 
L 288.615692 339.735659 
L 289.409081 339.838055 
L 349.309907 339.838113 
L 349.706601 339.583142 
L 350.103295 298.197938 
L 350.49999 287.1164 
L 350.896684 339.320587 
L 351.293378 339.838086 
L 463.557841 339.838125 
L 463.557841 339.838125 
" clip-path="url(#pf185696dbe)" style="fill: none; stroke: #d62728; stroke-width: 2; stroke-linecap: square"/>
   </g>
   <g id="line2d_16">
    <path d="M 57.739659 339.838125 
L 167.623957 339.823738 
L 168.020651 339.559061 
L 168.417345 336.741711 
L 168.814039 320.184449 
L 169.210733 268.477561 
L 169.607428 191.619616 
L 170.004122 163.731261 
L 170.400816 220.142078 
L 170.79751 293.299557 
L 171.194205 329.487278 
L 171.590899 338.521177 
L 171.987593 339.742275 
L 172.780981 339.83803 
L 241.805775 339.834448 
L 242.202469 335.765693 
L 242.599163 179.38666 
L 242.995857 114.937546 
L 243.392552 328.623249 
L 243.789246 339.818229 
L 246.169411 339.838125 
L 259.26032 339.833833 
L 259.657014 339.615365 
L 260.053709 335.473952 
L 260.450403 307.562573 
L 260.847097 249.732608 
L 261.243791 244.879352 
L 261.640486 302.061356 
L 262.03718 334.165024 
L 262.433874 339.51652 
L 262.830568 339.831243 
L 269.57437 339.838125 
L 311.227262 339.832729 
L 311.623957 339.419763 
L 312.020651 330.138816 
L 312.814039 200.445013 
L 313.210733 253.430299 
L 313.607428 323.821444 
L 314.004122 338.950357 
L 314.400816 339.823411 
L 317.57437 339.838125 
L 337.012386 339.813046 
L 337.409081 339.550407 
L 337.805775 337.55181 
L 338.202469 327.253947 
L 338.599163 291.861083 
L 338.995857 213.142419 
L 339.392552 108.093237 
L 339.789246 46.223109 
L 340.18594 82.166739 
L 340.979329 273.890136 
L 341.376023 320.605039 
L 341.772717 335.952899 
L 342.169411 339.294495 
L 342.566105 339.785437 
L 343.756188 339.83812 
L 371.128089 339.834871 
L 371.524783 339.107112 
L 371.921477 310.309012 
L 372.318171 125.346547 
L 372.714866 59.67914 
L 373.11156 274.036997 
L 373.508254 337.059074 
L 373.904948 339.81702 
L 376.285114 339.838125 
L 463.557841 339.838125 
L 463.557841 339.838125 
" clip-path="url(#pf185696dbe)" style="fill: none; stroke: #9467bd; stroke-width: 2; stroke-linecap: square"/>
   </g>
   <g id="line2d_17">
    <path d="M 57.739659 339.838125 
L 67.657014 339.799198 
L 68.053709 338.731398 
L 68.450403 326.317723 
L 68.847097 268.86462 
L 69.243791 179.749505 
L 69.640486 184.677245 
L 70.03718 275.218926 
L 70.433874 328.274381 
L 70.830568 338.948938 
L 71.227262 339.808745 
L 72.814039 339.838125 
L 92.64875 339.828558 
L 93.045444 339.528856 
L 93.442138 335.029496 
L 93.838833 303.877082 
L 94.632221 116.051346 
L 95.028915 153.618449 
L 95.42561 265.306014 
L 95.822304 325.490237 
L 96.218998 338.509632 
L 96.615692 339.778961 
L 97.409081 339.838112 
L 100.18594 339.82065 
L 100.582634 338.644617 
L 100.979329 319.750554 
L 101.376023 256.522334 
L 101.772717 254.680172 
L 102.169411 318.388431 
L 102.566105 338.506705 
L 102.9628 339.817759 
L 105.342965 339.838125 
L 252.516519 339.838055 
L 252.913213 338.626502 
L 253.309907 176.306547 
L 253.706601 168.284801 
L 254.103295 338.43931 
L 254.49999 339.838036 
L 291.392552 339.802336 
L 291.789246 335.081198 
L 292.582634 205.707578 
L 292.979329 311.38342 
L 293.376023 339.132678 
L 293.772717 339.836081 
L 294.9628 339.823494 
L 295.359494 339.43218 
L 295.756188 334.44703 
L 296.152882 305.56934 
L 296.549576 235.574634 
L 296.946271 188.001122 
L 297.342965 234.001791 
L 297.739659 304.527634 
L 298.136353 334.199353 
L 298.533048 339.407125 
L 298.929742 339.822357 
L 302.103295 339.838125 
L 463.557841 339.838125 
L 463.557841 339.838125 
" clip-path="url(#pf185696dbe)" style="fill: none; stroke: #8c564b; stroke-width: 2; stroke-linecap: square"/>
   </g>
   <g id="line2d_18">
    <path d="M 57.739659 339.838125 
L 115.26032 339.758221 
L 115.657014 338.852616 
L 116.053709 332.150441 
L 116.450403 301.90922 
L 116.847097 221.483543 
L 117.243791 106.255877 
L 117.640486 48.273672 
L 118.03718 109.657217 
L 118.433874 224.90532 
L 118.830568 303.542131 
L 119.227262 332.588536 
L 119.623957 338.922309 
L 120.020651 339.764953 
L 120.814039 339.838007 
L 233.475196 339.828516 
L 233.87189 337.642712 
L 234.268585 298.026744 
L 234.665279 273.461662 
L 235.061973 331.054477 
L 235.458667 339.741235 
L 236.252056 339.838125 
L 265.607428 339.769916 
L 266.004122 339.074158 
L 266.400816 334.165747 
L 266.79751 311.918478 
L 267.194205 248.740063 
L 267.987593 57.303981 
L 268.384287 71.282953 
L 269.177676 269.153974 
L 269.57437 320.265549 
L 269.971064 336.245364 
L 270.367758 339.400942 
L 270.764452 339.802859 
L 272.351229 339.838125 
L 382.632221 339.819705 
L 383.028915 338.527325 
L 383.42561 312.90107 
L 384.218998 65.890691 
L 385.012386 320.463313 
L 385.409081 339.038535 
L 385.805775 339.828596 
L 390.566105 339.838125 
L 423.888419 339.821639 
L 424.285114 339.592067 
L 424.681808 337.626882 
L 425.078502 327.873057 
L 425.475196 300.855216 
L 425.87189 263.364135 
L 426.268585 249.507775 
L 426.665279 275.593904 
L 427.061973 312.326587 
L 427.458667 332.744371 
L 427.855362 338.736794 
L 428.252056 339.735172 
L 429.045444 339.837929 
L 433.012386 339.833936 
L 433.409081 339.65498 
L 433.805775 336.436154 
L 434.202469 312.987629 
L 434.599163 249.793146 
L 434.995857 211.530605 
L 435.789246 319.85361 
L 436.18594 337.653673 
L 436.582634 339.736669 
L 437.376023 339.838108 
L 463.557841 339.838125 
L 463.557841 339.838125 
" clip-path="url(#pf185696dbe)" style="fill: none; stroke: #e377c2; stroke-width: 2; stroke-linecap: square"/>
   </g>
   <g id="line2d_19">
    <path d="M 57.739659 339.838125 
L 79.557841 339.838099 
L 79.954535 339.60402 
L 80.351229 303.895733 
L 80.747924 246.242819 
L 81.144618 335.704295 
L 81.541312 339.835028 
L 95.822304 339.838125 
L 155.326436 339.813079 
L 155.72313 336.659638 
L 156.119824 268.719586 
L 156.516519 59.277393 
L 156.913213 144.695315 
L 157.309907 315.907181 
L 157.706601 339.320698 
L 158.103295 339.836152 
L 180.714866 339.838125 
L 208.483461 339.802844 
L 208.880155 339.05589 
L 209.276849 331.247276 
L 209.673543 293.10377 
L 210.070238 213.905748 
L 210.466932 171.749022 
L 210.863626 228.705205 
L 211.26032 303.442691 
L 211.657014 333.934047 
L 212.053709 339.36371 
L 212.450403 339.819242 
L 215.227262 339.838125 
L 353.276849 339.801943 
L 353.673543 339.320571 
L 354.070238 335.23946 
L 354.466932 314.456622 
L 354.863626 252.819456 
L 355.26032 154.520352 
L 355.657014 94.688493 
L 356.053709 138.393839 
L 356.450403 237.015617 
L 356.847097 307.237121 
L 357.243791 333.417412 
L 357.640486 339.052627 
L 358.03718 339.778433 
L 359.227262 339.838123 
L 405.640486 339.830186 
L 406.03718 339.518943 
L 406.433874 334.214923 
L 406.830568 296.426157 
L 407.227262 192.973924 
L 407.623957 122.115719 
L 408.020651 198.398528 
L 408.417345 299.573876 
L 408.814039 334.81529 
L 409.210733 339.563551 
L 409.607428 339.831547 
L 410.004122 339.836927 
L 410.400816 339.172269 
L 410.79751 302.195335 
L 411.194205 135.775086 
L 411.987593 334.550353 
L 412.384287 339.81285 
L 414.367758 339.838125 
L 463.557841 339.838125 
L 463.557841 339.838125 
" clip-path="url(#pf185696dbe)" style="fill: none; stroke: #7f7f7f; stroke-width: 2; stroke-linecap: square"/>
   </g>
   <g id="line2d_20">
    <path d="M 57.739659 339.838125 
L 98.202469 339.821515 
L 98.599163 322.636442 
L 98.995857 58.959924 
L 99.392552 267.524579 
L 99.789246 339.544579 
L 100.18594 339.838106 
L 205.706601 339.828775 
L 206.103295 338.215627 
L 206.49999 298.714314 
L 206.896684 187.587253 
L 207.690072 333.33437 
L 208.086767 339.763083 
L 208.880155 339.838125 
L 216.020651 339.832897 
L 216.417345 339.652262 
L 216.814039 336.624606 
L 217.210733 312.815783 
L 217.607428 229.323792 
L 218.004122 120.017832 
L 218.400816 127.185615 
L 218.79751 239.78589 
L 219.194205 316.943337 
L 219.590899 337.290122 
L 219.987593 339.700208 
L 220.384287 339.834494 
L 225.938006 339.837966 
L 226.3347 339.579517 
L 226.731395 313.07811 
L 227.128089 163.238855 
L 227.524783 265.510574 
L 227.921477 337.843005 
L 228.318171 339.83471 
L 241.409081 339.838125 
L 272.747924 339.805925 
L 273.144618 339.414486 
L 273.541312 336.45053 
L 273.938006 323.373667 
L 274.731395 252.512372 
L 275.128089 244.540682 
L 276.318171 333.594112 
L 276.714866 338.908203 
L 277.11156 339.753949 
L 277.904948 339.83797 
L 314.79751 339.820927 
L 315.194205 339.556692 
L 315.590899 336.9824 
L 315.987593 321.870033 
L 316.384287 269.735891 
L 317.177676 85.433677 
L 317.57437 103.198404 
L 318.367758 291.02388 
L 318.764452 329.01276 
L 319.161147 338.349508 
L 319.557841 339.711194 
L 320.351229 339.837905 
L 463.557841 339.838125 
L 463.557841 339.838125 
" clip-path="url(#pf185696dbe)" style="fill: none; stroke: #bcbd22; stroke-width: 2; stroke-linecap: square"/>
   </g>
   <g id="line2d_21">
    <path d="M 57.739659 339.838125 
L 61.309907 339.82959 
L 61.706601 339.656091 
L 62.103295 337.768408 
L 62.49999 327.293175 
L 63.293378 270.01701 
L 63.690072 275.725043 
L 64.086767 308.454207 
L 64.483461 331.648419 
L 64.880155 338.698846 
L 65.276849 339.753637 
L 66.070238 339.838055 
L 122.004122 339.785616 
L 122.400816 337.38639 
L 122.79751 307.566522 
L 123.194205 220.089427 
L 123.590899 214.574689 
L 123.987593 302.899468 
L 124.384287 336.767399 
L 124.780981 339.766163 
L 125.57437 339.838124 
L 160.086767 339.811924 
L 160.483461 339.421041 
L 160.880155 335.745331 
L 161.276849 315.080392 
L 161.673543 247.518051 
L 162.466932 39.127017 
L 162.863626 77.163857 
L 163.657014 292.888033 
L 164.053709 330.231136 
L 164.450403 338.626321 
L 164.847097 339.743899 
L 165.640486 339.837992 
L 303.690072 339.802561 
L 304.086767 339.446488 
L 304.483461 337.038498 
L 304.880155 326.846489 
L 305.276849 300.70225 
L 305.673543 263.307767 
L 306.070238 242.688765 
L 306.466932 259.782172 
L 307.26032 324.967011 
L 307.657014 336.48585 
L 308.053709 339.347575 
L 308.450403 339.791526 
L 309.640486 339.838122 
L 440.152882 339.803555 
L 440.549576 339.501698 
L 440.946271 337.604454 
L 441.342965 329.720534 
L 441.739659 308.572637 
L 442.533048 245.033044 
L 442.929742 246.810924 
L 444.119824 330.976252 
L 444.516519 337.954371 
L 444.913213 339.564942 
L 445.309907 339.811097 
L 447.293378 339.838125 
L 456.020651 339.82572 
L 456.417345 339.648977 
L 456.814039 338.081648 
L 457.210733 329.903872 
L 457.607428 305.618163 
L 458.004122 268.046236 
L 458.400816 248.105715 
L 458.79751 268.45069 
L 459.194205 306.002647 
L 459.590899 330.070828 
L 459.987593 338.120897 
L 460.384287 339.654246 
L 460.780981 339.826133 
L 463.557841 339.838125 
L 463.557841 339.838125 
" clip-path="url(#pf185696dbe)" style="fill: none; stroke: #17becf; stroke-width: 2; stroke-linecap: square"/>
   </g>
   <g id="line2d_22">
    <path d="M 57.739659 339.838125 
L 76.384287 339.820705 
L 76.780981 335.267369 
L 77.177676 223.085447 
L 77.57437 49.513997 
L 77.971064 269.557299 
L 78.367758 338.181867 
L 78.764452 339.834325 
L 81.541312 339.806472 
L 81.938006 335.549111 
L 82.3347 251.481314 
L 82.731395 63.100242 
L 83.524783 330.297787 
L 83.921477 339.733115 
L 84.714866 339.838125 
L 132.318171 339.817908 
L 132.714866 336.391956 
L 133.11156 286.639342 
L 133.508254 265.466384 
L 133.904948 330.422366 
L 134.301643 339.73017 
L 135.095031 339.838125 
L 184.681808 339.793199 
L 185.078502 338.477548 
L 185.475196 322.146632 
L 185.87189 241.068863 
L 186.268585 103.085312 
L 186.665279 96.177979 
L 187.061973 232.169327 
L 187.458667 319.410812 
L 187.855362 338.174143 
L 188.252056 339.779928 
L 189.045444 339.838119 
L 230.301643 339.833458 
L 230.698337 339.140417 
L 231.095031 319.765403 
L 231.491725 228.708921 
L 231.888419 221.441539 
L 232.285114 315.564244 
L 232.681808 338.880428 
L 233.078502 339.830854 
L 239.42561 339.838125 
L 344.152882 339.837704 
L 344.549576 337.437734 
L 344.946271 165.828469 
L 345.342965 179.430841 
L 345.739659 337.957795 
L 346.136353 339.837845 
L 463.557841 339.838125 
L 463.557841 339.838125 
" clip-path="url(#pf185696dbe)" style="fill: none; stroke: #1f77b4; stroke-width: 2; stroke-linecap: square"/>
   </g>
   <g id="line2d_23">
    <path d="M 57.739659 339.838125 
L 152.946271 339.818487 
L 153.342965 337.542735 
L 153.739659 286.405084 
L 154.136353 92.123169 
L 154.533048 111.129046 
L 154.929742 297.784501 
L 155.326436 338.298155 
L 155.72313 339.826894 
L 159.690072 339.838125 
L 194.202469 339.832257 
L 194.599163 339.682533 
L 194.995857 337.71167 
L 195.392552 324.857809 
L 196.18594 238.017353 
L 196.582634 241.598427 
L 197.376023 327.313229 
L 197.772717 338.183077 
L 198.169411 339.725394 
L 198.9628 339.838053 
L 255.293378 339.837472 
L 255.690072 339.59877 
L 256.086767 327.004704 
L 256.483461 239.137417 
L 256.880155 224.196869 
L 257.276849 320.403181 
L 257.673543 339.360107 
L 258.070238 339.836404 
L 283.855362 339.838125 
L 320.747924 339.78447 
L 321.144618 337.862601 
L 321.541312 313.867344 
L 322.3347 135.529939 
L 323.128089 313.715696 
L 323.524783 337.845273 
L 323.921477 339.783841 
L 325.11156 339.838125 
L 347.326436 339.835781 
L 347.72313 337.079126 
L 348.119824 244.052944 
L 348.516519 241.742964 
L 348.913213 336.874663 
L 349.309907 339.835484 
L 366.367758 339.838125 
L 420.318171 339.77636 
L 420.714866 337.825937 
L 421.11156 314.154673 
L 421.904948 88.186665 
L 422.301643 146.658783 
L 422.698337 281.737513 
L 423.095031 332.991768 
L 423.491725 339.522045 
L 423.888419 339.832408 
L 431.822304 339.838125 
L 463.557841 339.838125 
L 463.557841 339.838125 
" clip-path="url(#pf185696dbe)" style="fill: none; stroke: #ff7f0e; stroke-width: 2; stroke-linecap: square"/>
   </g>
   <g id="line2d_24">
    <path d="M 57.739659 339.838125 
L 58.929742 339.736439 
L 59.326436 315.789851 
L 59.72313 84.99422 
L 60.516519 337.263235 
L 60.913213 339.83567 
L 79.161147 339.838125 
L 143.822304 339.767595 
L 144.218998 339.002566 
L 144.615692 333.420409 
L 145.012386 307.87978 
L 145.409081 236.659753 
L 145.805775 123.868013 
L 146.202469 46.749322 
L 146.599163 81.965411 
L 147.392552 285.435546 
L 147.789246 326.793625 
L 148.18594 337.810274 
L 148.582634 339.633742 
L 148.979329 339.82477 
L 152.549576 339.838125 
L 179.524783 339.828375 
L 179.921477 339.640861 
L 180.318171 337.601113 
L 180.714866 325.619981 
L 181.11156 289.18894 
L 181.508254 238.713515 
L 181.904948 226.6773 
L 182.698337 314.889928 
L 183.095031 334.922905 
L 183.491725 339.295373 
L 183.888419 339.804535 
L 185.475196 339.838125 
L 299.326436 339.817303 
L 299.72313 339.28899 
L 300.119824 332.907078 
L 300.516519 297.970328 
L 300.913213 218.799794 
L 301.309907 172.37187 
L 301.706601 228.9479 
L 302.103295 304.696585 
L 302.49999 334.508338 
L 302.896684 339.451259 
L 303.293378 339.824686 
L 306.863626 339.838125 
L 377.078502 339.828906 
L 377.475196 339.69028 
L 377.87189 338.354359 
L 378.268585 330.518869 
L 378.665279 303.206781 
L 379.458667 201.110251 
L 379.855362 206.177655 
L 380.64875 309.425836 
L 381.045444 332.65595 
L 381.442138 338.776628 
L 381.838833 339.739942 
L 382.632221 339.837919 
L 395.72313 339.733801 
L 396.119824 336.260433 
L 396.516519 297.057888 
L 396.913213 161.474368 
L 397.309907 80.543665 
L 398.103295 316.608826 
L 398.49999 338.406622 
L 398.896684 339.807366 
L 400.483461 339.838125 
L 463.557841 339.838125 
L 463.557841 339.838125 
" clip-path="url(#pf185696dbe)" style="fill: none; stroke: #2ca02c; stroke-width: 2; stroke-linecap: square"/>
   </g>
   <g id="line2d_25">
    <path d="M 57.739659 339.838125 
L 89.87189 339.813377 
L 90.268585 338.745307 
L 90.665279 324.899169 
L 91.061973 276.617379 
L 91.458667 257.012282 
L 91.855362 306.245881 
L 92.252056 335.620392 
L 92.64875 339.674185 
L 93.045444 339.836152 
L 115.657014 339.838125 
L 129.144618 339.836795 
L 129.541312 339.306135 
L 129.938006 314.046651 
L 130.3347 188.267701 
L 130.731395 231.864378 
L 131.128089 330.514447 
L 131.524783 339.740531 
L 132.318171 339.838125 
L 202.136353 339.783849 
L 202.533048 337.704698 
L 202.929742 316.493137 
L 203.326436 268.723455 
L 203.72313 279.530198 
L 204.119824 325.600444 
L 204.516519 338.902388 
L 204.913213 339.821004 
L 207.690072 339.838125 
L 250.533048 339.834631 
L 250.929742 337.216115 
L 251.326436 285.303496 
L 251.72313 308.404987 
L 252.119824 339.336036 
L 252.516519 339.837903 
L 329.87189 339.834799 
L 330.268585 338.062613 
L 331.061973 213.607268 
L 331.458667 323.026841 
L 331.855362 339.697181 
L 332.252056 339.838051 
L 385.805775 339.750083 
L 386.202469 337.057421 
L 386.599163 311.038537 
L 386.995857 242.027816 
L 387.392552 230.907538 
L 387.789246 300.056554 
L 388.18594 335.074025 
L 388.582634 339.651037 
L 388.979329 339.835716 
L 407.623957 339.838125 
L 463.557841 339.838125 
L 463.557841 339.838125 
" clip-path="url(#pf185696dbe)" style="fill: none; stroke: #d62728; stroke-width: 2; stroke-linecap: square"/>
   </g>
   <g id="line2d_26">
    <path d="M 57.739659 339.838125 
L 86.301643 339.834289 
L 86.698337 339.460113 
L 87.095031 329.133142 
L 87.491725 252.710844 
L 87.888419 136.035147 
L 88.285114 202.827245 
L 88.681808 313.366064 
L 89.078502 338.368154 
L 89.475196 339.814666 
L 91.458667 339.838125 
L 198.566105 339.834449 
L 198.9628 339.169964 
L 199.359494 318.29756 
L 199.756188 216.676288 
L 200.152882 214.945109 
L 200.549576 317.376402 
L 200.946271 339.121667 
L 201.342965 339.834072 
L 212.450403 339.838028 
L 212.847097 339.829267 
L 213.243791 339.478056 
L 213.640486 333.321756 
L 214.03718 287.336712 
L 214.830568 39.134136 
L 215.227262 126.070421 
L 215.623957 272.184532 
L 216.020651 330.306093 
L 216.417345 339.240228 
L 216.814039 339.821429 
L 219.590899 339.838125 
L 365.57437 339.757562 
L 365.971064 339.047497 
L 366.367758 334.719826 
L 366.764452 317.98085 
L 367.161147 278.266122 
L 367.557841 225.421959 
L 367.954535 199.586354 
L 368.351229 226.429478 
L 369.144618 318.553189 
L 369.541312 334.897741 
L 369.938006 339.0817 
L 370.3347 339.761726 
L 371.128089 339.837901 
L 373.508254 339.836871 
L 373.904948 339.446135 
L 374.301643 318.960811 
L 374.698337 150.332089 
L 375.095031 46.667286 
L 375.491725 262.540209 
L 375.888419 336.364651 
L 376.285114 339.811523 
L 378.268585 339.838125 
L 453.243791 339.837434 
L 453.640486 339.17708 
L 454.03718 305.368457 
L 454.433874 241.822509 
L 454.830568 324.639446 
L 455.227262 339.709606 
L 455.623957 339.838066 
L 463.557841 339.838125 
L 463.557841 339.838125 
" clip-path="url(#pf185696dbe)" style="fill: none; stroke: #9467bd; stroke-width: 2; stroke-linecap: square"/>
   </g>
   <g id="line2d_27">
    <path d="M 57.739659 339.838125 
L 327.888419 339.83706 
L 328.285114 339.093215 
L 328.681808 301.264837 
L 329.078502 192.011545 
L 329.475196 297.910363 
L 329.87189 338.958021 
L 330.268585 339.836758 
L 362.79751 339.838125 
L 412.780981 339.837488 
L 413.177676 339.505666 
L 413.57437 318.710851 
L 413.971064 176.26125 
L 414.367758 185.535429 
L 414.764452 322.104469 
L 415.161147 339.589814 
L 415.557841 339.837701 
L 463.557841 339.838125 
L 463.557841 339.838125 
" clip-path="url(#pf185696dbe)" style="fill: none; stroke: #8c564b; stroke-width: 2; stroke-linecap: square"/>
   </g>
   <g id="line2d_28">
    <path d="M 57.739659 339.838125 
L 60.498649 339.735187 
L 60.641602 339.407547 
L 60.784555 338.333754 
L 60.941803 334.999757 
L 61.127642 325.30574 
L 61.442138 293.098985 
L 61.699454 276.25281 
L 61.713749 276.25281 
L 61.77093 277.387109 
L 61.913883 287.203079 
L 62.514285 336.243007 
L 62.74301 339.277121 
L 62.957439 339.773427 
L 63.243345 339.836191 
L 64.444149 339.756352 
L 64.587102 339.486715 
L 64.730054 338.576753 
L 64.887303 335.658999 
L 65.073141 326.83741 
L 65.344752 300.32999 
L 65.659248 276.295716 
L 65.673543 276.238502 
L 65.702134 276.46705 
L 65.787906 279.79834 
L 66.002335 300.32999 
L 66.402603 333.717263 
L 66.645623 338.847085 
L 66.860052 339.709068 
L 67.088777 339.828737 
L 68.160923 339.833991 
L 68.446829 339.718385 
L 68.589782 339.346199 
L 68.732735 338.150073 
L 68.889983 334.515442 
L 69.075822 324.220818 
L 69.433204 287.203079 
L 69.647633 276.25281 
L 69.704814 277.387109 
L 69.847767 287.203079 
L 70.448169 336.243007 
L 70.676894 339.277121 
L 70.891323 339.773427 
L 71.177229 339.836191 
L 72.020651 339.838125 
L 72.020651 339.838125 
" clip-path="url(#pf185696dbe)" style="fill: none; stroke: #1f77b4; stroke-width: 2; stroke-linecap: square"/>
   </g>
   <g id="patch_3">
    <path d="M 37.44875 354.958125 
L 37.44875 22.318125 
" style="fill: none; stroke: #000000; stroke-width: 0.8; stroke-linejoin: miter; stroke-linecap: square"/>
   </g>
   <g id="patch_4">
    <path d="M 483.84875 354.958125 
L 483.84875 22.318125 
" style="fill: none; stroke: #000000; stroke-width: 0.8; stroke-linejoin: miter; stroke-linecap: square"/>
   </g>
   <g id="patch_5">
    <path d="M 37.44875 354.958125 
L 483.84875 354.958125 
" style="fill: none; stroke: #000000; stroke-width: 0.8; stroke-linejoin: miter; stroke-linecap: square"/>
   </g>
   <g id="patch_6">
    <path d="M 37.44875 22.318125 
L 483.84875 22.318125 
" style="fill: none; stroke: #000000; stroke-width: 0.8; stroke-linejoin: miter; stroke-linecap: square"/>
   </g>
   <g id="text_14">
    <!-- Collection of 16 signals -->
    <g transform="translate(190.957812 16.318125) scale(0.12 -0.12)">
     <defs>
      <path id="DejaVuSans-43" d="M 4122 4306 
L 4122 3641 
Q 3803 3938 3442 4084 
Q 3081 4231 2675 4231 
Q 1875 4231 1450 3742 
Q 1025 3253 1025 2328 
Q 1025 1406 1450 917 
Q 1875 428 2675 428 
Q 3081 428 3442 575 
Q 3803 722 4122 1019 
L 4122 359 
Q 3791 134 3420 21 
Q 3050 -91 2638 -91 
Q 1578 -91 968 557 
Q 359 1206 359 2328 
Q 359 3453 968 4101 
Q 1578 4750 2638 4750 
Q 3056 4750 3426 4639 
Q 3797 4528 4122 4306 
z
" transform="scale(0.015625)"/>
      <path id="DejaVuSans-6f" d="M 1959 3097 
Q 1497 3097 1228 2736 
Q 959 2375 959 1747 
Q 959 1119 1226 758 
Q 1494 397 1959 397 
Q 2419 397 2687 759 
Q 2956 1122 2956 1747 
Q 2956 2369 2687 2733 
Q 2419 3097 1959 3097 
z
M 1959 3584 
Q 2709 3584 3137 3096 
Q 3566 2609 3566 1747 
Q 3566 888 3137 398 
Q 2709 -91 1959 -91 
Q 1206 -91 779 398 
Q 353 888 353 1747 
Q 353 2609 779 3096 
Q 1206 3584 1959 3584 
z
" transform="scale(0.015625)"/>
      <path id="DejaVuSans-6c" d="M 603 4863 
L 1178 4863 
L 1178 0 
L 603 0 
L 603 4863 
z
" transform="scale(0.015625)"/>
      <path id="DejaVuSans-63" d="M 3122 3366 
L 3122 2828 
Q 2878 2963 2633 3030 
Q 2388 3097 2138 3097 
Q 1578 3097 1268 2742 
Q 959 2388 959 1747 
Q 959 1106 1268 751 
Q 1578 397 2138 397 
Q 2388 397 2633 464 
Q 2878 531 3122 666 
L 3122 134 
Q 2881 22 2623 -34 
Q 2366 -91 2075 -91 
Q 1284 -91 818 406 
Q 353 903 353 1747 
Q 353 2603 823 3093 
Q 1294 3584 2113 3584 
Q 2378 3584 2631 3529 
Q 2884 3475 3122 3366 
z
" transform="scale(0.015625)"/>
      <path id="DejaVuSans-66" d="M 2375 4863 
L 2375 4384 
L 1825 4384 
Q 1516 4384 1395 4259 
Q 1275 4134 1275 3809 
L 1275 3500 
L 2222 3500 
L 2222 3053 
L 1275 3053 
L 1275 0 
L 697 0 
L 697 3053 
L 147 3053 
L 147 3500 
L 697 3500 
L 697 3744 
Q 697 4328 969 4595 
Q 1241 4863 1831 4863 
L 2375 4863 
z
" transform="scale(0.015625)"/>
      <path id="DejaVuSans-67" d="M 2906 1791 
Q 2906 2416 2648 2759 
Q 2391 3103 1925 3103 
Q 1463 3103 1205 2759 
Q 947 2416 947 1791 
Q 947 1169 1205 825 
Q 1463 481 1925 481 
Q 2391 481 2648 825 
Q 2906 1169 2906 1791 
z
M 3481 434 
Q 3481 -459 3084 -895 
Q 2688 -1331 1869 -1331 
Q 1566 -1331 1297 -1286 
Q 1028 -1241 775 -1147 
L 775 -588 
Q 1028 -725 1275 -790 
Q 1522 -856 1778 -856 
Q 2344 -856 2625 -561 
Q 2906 -266 2906 331 
L 2906 616 
Q 2728 306 2450 153 
Q 2172 0 1784 0 
Q 1141 0 747 490 
Q 353 981 353 1791 
Q 353 2603 747 3093 
Q 1141 3584 1784 3584 
Q 2172 3584 2450 3431 
Q 2728 3278 2906 2969 
L 2906 3500 
L 3481 3500 
L 3481 434 
z
" transform="scale(0.015625)"/>
     </defs>
     <use xlink:href="#DejaVuSans-43"/>
     <use xlink:href="#DejaVuSans-6f" transform="translate(69.824219 0)"/>
     <use xlink:href="#DejaVuSans-6c" transform="translate(131.005859 0)"/>
     <use xlink:href="#DejaVuSans-6c" transform="translate(158.789062 0)"/>
     <use xlink:href="#DejaVuSans-65" transform="translate(186.572266 0)"/>
     <use xlink:href="#DejaVuSans-63" transform="translate(248.095703 0)"/>
     <use xlink:href="#DejaVuSans-74" transform="translate(303.076172 0)"/>
     <use xlink:href="#DejaVuSans-69" transform="translate(342.285156 0)"/>
     <use xlink:href="#DejaVuSans-6f" transform="translate(370.068359 0)"/>
     <use xlink:href="#DejaVuSans-6e" transform="translate(431.25 0)"/>
     <use xlink:href="#DejaVuSans-20" transform="translate(494.628906 0)"/>
     <use xlink:href="#DejaVuSans-6f" transform="translate(526.416016 0)"/>
     <use xlink:href="#DejaVuSans-66" transform="translate(587.597656 0)"/>
     <use xlink:href="#DejaVuSans-20" transform="translate(622.802734 0)"/>
     <use xlink:href="#DejaVuSans-31" transform="translate(654.589844 0)"/>
     <use xlink:href="#DejaVuSans-36" transform="translate(718.212891 0)"/>
     <use xlink:href="#DejaVuSans-20" transform="translate(781.835938 0)"/>
     <use xlink:href="#DejaVuSans-73" transform="translate(813.623047 0)"/>
     <use xlink:href="#DejaVuSans-69" transform="translate(865.722656 0)"/>
     <use xlink:href="#DejaVuSans-67" transform="translate(893.505859 0)"/>
     <use xlink:href="#DejaVuSans-6e" transform="translate(956.982422 0)"/>
     <use xlink:href="#DejaVuSans-61" transform="translate(1020.361328 0)"/>
     <use xlink:href="#DejaVuSans-6c" transform="translate(1081.640625 0)"/>
     <use xlink:href="#DejaVuSans-73" transform="translate(1109.423828 0)"/>
    </g>
   </g>
   <g id="legend_1">
    <g id="patch_7">
     <path d="M 367.574375 337.025625 
L 475.44875 337.025625 
Q 477.84875 337.025625 477.84875 334.625625 
L 477.84875 30.718125 
Q 477.84875 28.318125 475.44875 28.318125 
L 367.574375 28.318125 
Q 365.174375 28.318125 365.174375 30.718125 
L 365.174375 334.625625 
Q 365.174375 337.025625 367.574375 337.025625 
z
" style="fill: #ffffff; opacity: 0.8; stroke: #cccccc; stroke-linejoin: miter"/>
    </g>
    <g id="line2d_29">
     <path d="M 369.974375 38.03625 
L 381.974375 38.03625 
L 393.974375 38.03625 
" style="fill: none; stroke: #1f77b4; stroke-width: 2; stroke-linecap: square"/>
    </g>
    <g id="text_15">
     <!-- GC-MS_1 -->
     <g transform="translate(403.574375 42.23625) scale(0.12 -0.12)">
      <defs>
       <path id="DejaVuSans-47" d="M 3809 666 
L 3809 1919 
L 2778 1919 
L 2778 2438 
L 4434 2438 
L 4434 434 
Q 4069 175 3628 42 
Q 3188 -91 2688 -91 
Q 1594 -91 976 548 
Q 359 1188 359 2328 
Q 359 3472 976 4111 
Q 1594 4750 2688 4750 
Q 3144 4750 3555 4637 
Q 3966 4525 4313 4306 
L 4313 3634 
Q 3963 3931 3569 4081 
Q 3175 4231 2741 4231 
Q 1884 4231 1454 3753 
Q 1025 3275 1025 2328 
Q 1025 1384 1454 906 
Q 1884 428 2741 428 
Q 3075 428 3337 486 
Q 3600 544 3809 666 
z
" transform="scale(0.015625)"/>
       <path id="DejaVuSans-4d" d="M 628 4666 
L 1569 4666 
L 2759 1491 
L 3956 4666 
L 4897 4666 
L 4897 0 
L 4281 0 
L 4281 4097 
L 3078 897 
L 2444 897 
L 1241 4097 
L 1241 0 
L 628 0 
L 628 4666 
z
" transform="scale(0.015625)"/>
       <path id="DejaVuSans-53" d="M 3425 4513 
L 3425 3897 
Q 3066 4069 2747 4153 
Q 2428 4238 2131 4238 
Q 1616 4238 1336 4038 
Q 1056 3838 1056 3469 
Q 1056 3159 1242 3001 
Q 1428 2844 1947 2747 
L 2328 2669 
Q 3034 2534 3370 2195 
Q 3706 1856 3706 1288 
Q 3706 609 3251 259 
Q 2797 -91 1919 -91 
Q 1588 -91 1214 -16 
Q 841 59 441 206 
L 441 856 
Q 825 641 1194 531 
Q 1563 422 1919 422 
Q 2459 422 2753 634 
Q 3047 847 3047 1241 
Q 3047 1584 2836 1778 
Q 2625 1972 2144 2069 
L 1759 2144 
Q 1053 2284 737 2584 
Q 422 2884 422 3419 
Q 422 4038 858 4394 
Q 1294 4750 2059 4750 
Q 2388 4750 2728 4690 
Q 3069 4631 3425 4513 
z
" transform="scale(0.015625)"/>
       <path id="DejaVuSans-5f" d="M 3263 -1063 
L 3263 -1509 
L -63 -1509 
L -63 -1063 
L 3263 -1063 
z
" transform="scale(0.015625)"/>
      </defs>
      <use xlink:href="#DejaVuSans-47"/>
      <use xlink:href="#DejaVuSans-43" transform="translate(77.490234 0)"/>
      <use xlink:href="#DejaVuSans-2d" transform="translate(147.314453 0)"/>
      <use xlink:href="#DejaVuSans-4d" transform="translate(183.398438 0)"/>
      <use xlink:href="#DejaVuSans-53" transform="translate(269.677734 0)"/>
      <use xlink:href="#DejaVuSans-5f" transform="translate(333.154297 0)"/>
      <use xlink:href="#DejaVuSans-31" transform="translate(383.154297 0)"/>
     </g>
    </g>
    <g id="line2d_30">
     <path d="M 369.974375 55.98375 
L 381.974375 55.98375 
L 393.974375 55.98375 
" style="fill: none; stroke: #ff7f0e; stroke-width: 2; stroke-linecap: square"/>
    </g>
    <g id="text_16">
     <!-- GC-MS_2 -->
     <g transform="translate(403.574375 60.18375) scale(0.12 -0.12)">
      <use xlink:href="#DejaVuSans-47"/>
      <use xlink:href="#DejaVuSans-43" transform="translate(77.490234 0)"/>
      <use xlink:href="#DejaVuSans-2d" transform="translate(147.314453 0)"/>
      <use xlink:href="#DejaVuSans-4d" transform="translate(183.398438 0)"/>
      <use xlink:href="#DejaVuSans-53" transform="translate(269.677734 0)"/>
      <use xlink:href="#DejaVuSans-5f" transform="translate(333.154297 0)"/>
      <use xlink:href="#DejaVuSans-32" transform="translate(383.154297 0)"/>
     </g>
    </g>
    <g id="line2d_31">
     <path d="M 369.974375 73.93125 
L 381.974375 73.93125 
L 393.974375 73.93125 
" style="fill: none; stroke: #2ca02c; stroke-width: 2; stroke-linecap: square"/>
    </g>
    <g id="text_17">
     <!-- GC-MS_3 -->
     <g transform="translate(403.574375 78.13125) scale(0.12 -0.12)">
      <use xlink:href="#DejaVuSans-47"/>
      <use xlink:href="#DejaVuSans-43" transform="translate(77.490234 0)"/>
      <use xlink:href="#DejaVuSans-2d" transform="translate(147.314453 0)"/>
      <use xlink:href="#DejaVuSans-4d" transform="translate(183.398438 0)"/>
      <use xlink:href="#DejaVuSans-53" transform="translate(269.677734 0)"/>
      <use xlink:href="#DejaVuSans-5f" transform="translate(333.154297 0)"/>
      <use xlink:href="#DejaVuSans-33" transform="translate(383.154297 0)"/>
     </g>
    </g>
    <g id="line2d_32">
     <path d="M 369.974375 91.87875 
L 381.974375 91.87875 
L 393.974375 91.87875 
" style="fill: none; stroke: #d62728; stroke-width: 2; stroke-linecap: square"/>
    </g>
    <g id="text_18">
     <!-- GC-MS_4 -->
     <g transform="translate(403.574375 96.07875) scale(0.12 -0.12)">
      <use xlink:href="#DejaVuSans-47"/>
      <use xlink:href="#DejaVuSans-43" transform="translate(77.490234 0)"/>
      <use xlink:href="#DejaVuSans-2d" transform="translate(147.314453 0)"/>
      <use xlink:href="#DejaVuSans-4d" transform="translate(183.398438 0)"/>
      <use xlink:href="#DejaVuSans-53" transform="translate(269.677734 0)"/>
      <use xlink:href="#DejaVuSans-5f" transform="translate(333.154297 0)"/>
      <use xlink:href="#DejaVuSans-34" transform="translate(383.154297 0)"/>
     </g>
    </g>
    <g id="line2d_33">
     <path d="M 369.974375 109.82625 
L 381.974375 109.82625 
L 393.974375 109.82625 
" style="fill: none; stroke: #9467bd; stroke-width: 2; stroke-linecap: square"/>
    </g>
    <g id="text_19">
     <!-- GC-MS_5 -->
     <g transform="translate(403.574375 114.02625) scale(0.12 -0.12)">
      <defs>
       <path id="DejaVuSans-35" d="M 691 4666 
L 3169 4666 
L 3169 4134 
L 1269 4134 
L 1269 2991 
Q 1406 3038 1543 3061 
Q 1681 3084 1819 3084 
Q 2600 3084 3056 2656 
Q 3513 2228 3513 1497 
Q 3513 744 3044 326 
Q 2575 -91 1722 -91 
Q 1428 -91 1123 -41 
Q 819 9 494 109 
L 494 744 
Q 775 591 1075 516 
Q 1375 441 1709 441 
Q 2250 441 2565 725 
Q 2881 1009 2881 1497 
Q 2881 1984 2565 2268 
Q 2250 2553 1709 2553 
Q 1456 2553 1204 2497 
Q 953 2441 691 2322 
L 691 4666 
z
" transform="scale(0.015625)"/>
      </defs>
      <use xlink:href="#DejaVuSans-47"/>
      <use xlink:href="#DejaVuSans-43" transform="translate(77.490234 0)"/>
      <use xlink:href="#DejaVuSans-2d" transform="translate(147.314453 0)"/>
      <use xlink:href="#DejaVuSans-4d" transform="translate(183.398438 0)"/>
      <use xlink:href="#DejaVuSans-53" transform="translate(269.677734 0)"/>
      <use xlink:href="#DejaVuSans-5f" transform="translate(333.154297 0)"/>
      <use xlink:href="#DejaVuSans-35" transform="translate(383.154297 0)"/>
     </g>
    </g>
    <g id="line2d_34">
     <path d="M 369.974375 127.77375 
L 381.974375 127.77375 
L 393.974375 127.77375 
" style="fill: none; stroke: #8c564b; stroke-width: 2; stroke-linecap: square"/>
    </g>
    <g id="text_20">
     <!-- GC-MS_6 -->
     <g transform="translate(403.574375 131.97375) scale(0.12 -0.12)">
      <use xlink:href="#DejaVuSans-47"/>
      <use xlink:href="#DejaVuSans-43" transform="translate(77.490234 0)"/>
      <use xlink:href="#DejaVuSans-2d" transform="translate(147.314453 0)"/>
      <use xlink:href="#DejaVuSans-4d" transform="translate(183.398438 0)"/>
      <use xlink:href="#DejaVuSans-53" transform="translate(269.677734 0)"/>
      <use xlink:href="#DejaVuSans-5f" transform="translate(333.154297 0)"/>
      <use xlink:href="#DejaVuSans-36" transform="translate(383.154297 0)"/>
     </g>
    </g>
    <g id="line2d_35">
     <path d="M 369.974375 145.72125 
L 381.974375 145.72125 
L 393.974375 145.72125 
" style="fill: none; stroke: #e377c2; stroke-width: 2; stroke-linecap: square"/>
    </g>
    <g id="text_21">
     <!-- GC-MS_7 -->
     <g transform="translate(403.574375 149.92125) scale(0.12 -0.12)">
      <defs>
       <path id="DejaVuSans-37" d="M 525 4666 
L 3525 4666 
L 3525 4397 
L 1831 0 
L 1172 0 
L 2766 4134 
L 525 4134 
L 525 4666 
z
" transform="scale(0.015625)"/>
      </defs>
      <use xlink:href="#DejaVuSans-47"/>
      <use xlink:href="#DejaVuSans-43" transform="translate(77.490234 0)"/>
      <use xlink:href="#DejaVuSans-2d" transform="translate(147.314453 0)"/>
      <use xlink:href="#DejaVuSans-4d" transform="translate(183.398438 0)"/>
      <use xlink:href="#DejaVuSans-53" transform="translate(269.677734 0)"/>
      <use xlink:href="#DejaVuSans-5f" transform="translate(333.154297 0)"/>
      <use xlink:href="#DejaVuSans-37" transform="translate(383.154297 0)"/>
     </g>
    </g>
    <g id="line2d_36">
     <path d="M 369.974375 163.66875 
L 381.974375 163.66875 
L 393.974375 163.66875 
" style="fill: none; stroke: #7f7f7f; stroke-width: 2; stroke-linecap: square"/>
    </g>
    <g id="text_22">
     <!-- GC-MS_8 -->
     <g transform="translate(403.574375 167.86875) scale(0.12 -0.12)">
      <use xlink:href="#DejaVuSans-47"/>
      <use xlink:href="#DejaVuSans-43" transform="translate(77.490234 0)"/>
      <use xlink:href="#DejaVuSans-2d" transform="translate(147.314453 0)"/>
      <use xlink:href="#DejaVuSans-4d" transform="translate(183.398438 0)"/>
      <use xlink:href="#DejaVuSans-53" transform="translate(269.677734 0)"/>
      <use xlink:href="#DejaVuSans-5f" transform="translate(333.154297 0)"/>
      <use xlink:href="#DejaVuSans-38" transform="translate(383.154297 0)"/>
     </g>
    </g>
    <g id="line2d_37">
     <path d="M 369.974375 181.61625 
L 381.974375 181.61625 
L 393.974375 181.61625 
" style="fill: none; stroke: #bcbd22; stroke-width: 2; stroke-linecap: square"/>
    </g>
    <g id="text_23">
     <!-- GC-MS_9 -->
     <g transform="translate(403.574375 185.81625) scale(0.12 -0.12)">
      <defs>
       <path id="DejaVuSans-39" d="M 703 97 
L 703 672 
Q 941 559 1184 500 
Q 1428 441 1663 441 
Q 2288 441 2617 861 
Q 2947 1281 2994 2138 
Q 2813 1869 2534 1725 
Q 2256 1581 1919 1581 
Q 1219 1581 811 2004 
Q 403 2428 403 3163 
Q 403 3881 828 4315 
Q 1253 4750 1959 4750 
Q 2769 4750 3195 4129 
Q 3622 3509 3622 2328 
Q 3622 1225 3098 567 
Q 2575 -91 1691 -91 
Q 1453 -91 1209 -44 
Q 966 3 703 97 
z
M 1959 2075 
Q 2384 2075 2632 2365 
Q 2881 2656 2881 3163 
Q 2881 3666 2632 3958 
Q 2384 4250 1959 4250 
Q 1534 4250 1286 3958 
Q 1038 3666 1038 3163 
Q 1038 2656 1286 2365 
Q 1534 2075 1959 2075 
z
" transform="scale(0.015625)"/>
      </defs>
      <use xlink:href="#DejaVuSans-47"/>
      <use xlink:href="#DejaVuSans-43" transform="translate(77.490234 0)"/>
      <use xlink:href="#DejaVuSans-2d" transform="translate(147.314453 0)"/>
      <use xlink:href="#DejaVuSans-4d" transform="translate(183.398438 0)"/>
      <use xlink:href="#DejaVuSans-53" transform="translate(269.677734 0)"/>
      <use xlink:href="#DejaVuSans-5f" transform="translate(333.154297 0)"/>
      <use xlink:href="#DejaVuSans-39" transform="translate(383.154297 0)"/>
     </g>
    </g>
    <g id="line2d_38">
     <path d="M 369.974375 199.56375 
L 381.974375 199.56375 
L 393.974375 199.56375 
" style="fill: none; stroke: #17becf; stroke-width: 2; stroke-linecap: square"/>
    </g>
    <g id="text_24">
     <!-- GC-MS_10 -->
     <g transform="translate(403.574375 203.76375) scale(0.12 -0.12)">
      <use xlink:href="#DejaVuSans-47"/>
      <use xlink:href="#DejaVuSans-43" transform="translate(77.490234 0)"/>
      <use xlink:href="#DejaVuSans-2d" transform="translate(147.314453 0)"/>
      <use xlink:href="#DejaVuSans-4d" transform="translate(183.398438 0)"/>
      <use xlink:href="#DejaVuSans-53" transform="translate(269.677734 0)"/>
      <use xlink:href="#DejaVuSans-5f" transform="translate(333.154297 0)"/>
      <use xlink:href="#DejaVuSans-31" transform="translate(383.154297 0)"/>
      <use xlink:href="#DejaVuSans-30" transform="translate(446.777344 0)"/>
     </g>
    </g>
    <g id="line2d_39">
     <path d="M 369.974375 217.51125 
L 381.974375 217.51125 
L 393.974375 217.51125 
" style="fill: none; stroke: #1f77b4; stroke-width: 2; stroke-linecap: square"/>
    </g>
    <g id="text_25">
     <!-- GC-MS_11 -->
     <g transform="translate(403.574375 221.71125) scale(0.12 -0.12)">
      <use xlink:href="#DejaVuSans-47"/>
      <use xlink:href="#DejaVuSans-43" transform="translate(77.490234 0)"/>
      <use xlink:href="#DejaVuSans-2d" transform="translate(147.314453 0)"/>
      <use xlink:href="#DejaVuSans-4d" transform="translate(183.398438 0)"/>
      <use xlink:href="#DejaVuSans-53" transform="translate(269.677734 0)"/>
      <use xlink:href="#DejaVuSans-5f" transform="translate(333.154297 0)"/>
      <use xlink:href="#DejaVuSans-31" transform="translate(383.154297 0)"/>
      <use xlink:href="#DejaVuSans-31" transform="translate(446.777344 0)"/>
     </g>
    </g>
    <g id="line2d_40">
     <path d="M 369.974375 235.45875 
L 381.974375 235.45875 
L 393.974375 235.45875 
" style="fill: none; stroke: #ff7f0e; stroke-width: 2; stroke-linecap: square"/>
    </g>
    <g id="text_26">
     <!-- GC-MS_12 -->
     <g transform="translate(403.574375 239.65875) scale(0.12 -0.12)">
      <use xlink:href="#DejaVuSans-47"/>
      <use xlink:href="#DejaVuSans-43" transform="translate(77.490234 0)"/>
      <use xlink:href="#DejaVuSans-2d" transform="translate(147.314453 0)"/>
      <use xlink:href="#DejaVuSans-4d" transform="translate(183.398438 0)"/>
      <use xlink:href="#DejaVuSans-53" transform="translate(269.677734 0)"/>
      <use xlink:href="#DejaVuSans-5f" transform="translate(333.154297 0)"/>
      <use xlink:href="#DejaVuSans-31" transform="translate(383.154297 0)"/>
      <use xlink:href="#DejaVuSans-32" transform="translate(446.777344 0)"/>
     </g>
    </g>
    <g id="line2d_41">
     <path d="M 369.974375 253.40625 
L 381.974375 253.40625 
L 393.974375 253.40625 
" style="fill: none; stroke: #2ca02c; stroke-width: 2; stroke-linecap: square"/>
    </g>
    <g id="text_27">
     <!-- GC-MS_13 -->
     <g transform="translate(403.574375 257.60625) scale(0.12 -0.12)">
      <use xlink:href="#DejaVuSans-47"/>
      <use xlink:href="#DejaVuSans-43" transform="translate(77.490234 0)"/>
      <use xlink:href="#DejaVuSans-2d" transform="translate(147.314453 0)"/>
      <use xlink:href="#DejaVuSans-4d" transform="translate(183.398438 0)"/>
      <use xlink:href="#DejaVuSans-53" transform="translate(269.677734 0)"/>
      <use xlink:href="#DejaVuSans-5f" transform="translate(333.154297 0)"/>
      <use xlink:href="#DejaVuSans-31" transform="translate(383.154297 0)"/>
      <use xlink:href="#DejaVuSans-33" transform="translate(446.777344 0)"/>
     </g>
    </g>
    <g id="line2d_42">
     <path d="M 369.974375 271.35375 
L 381.974375 271.35375 
L 393.974375 271.35375 
" style="fill: none; stroke: #d62728; stroke-width: 2; stroke-linecap: square"/>
    </g>
    <g id="text_28">
     <!-- GC-MS_14 -->
     <g transform="translate(403.574375 275.55375) scale(0.12 -0.12)">
      <use xlink:href="#DejaVuSans-47"/>
      <use xlink:href="#DejaVuSans-43" transform="translate(77.490234 0)"/>
      <use xlink:href="#DejaVuSans-2d" transform="translate(147.314453 0)"/>
      <use xlink:href="#DejaVuSans-4d" transform="translate(183.398438 0)"/>
      <use xlink:href="#DejaVuSans-53" transform="translate(269.677734 0)"/>
      <use xlink:href="#DejaVuSans-5f" transform="translate(333.154297 0)"/>
      <use xlink:href="#DejaVuSans-31" transform="translate(383.154297 0)"/>
      <use xlink:href="#DejaVuSans-34" transform="translate(446.777344 0)"/>
     </g>
    </g>
    <g id="line2d_43">
     <path d="M 369.974375 289.30125 
L 381.974375 289.30125 
L 393.974375 289.30125 
" style="fill: none; stroke: #9467bd; stroke-width: 2; stroke-linecap: square"/>
    </g>
    <g id="text_29">
     <!-- GC-MS_15 -->
     <g transform="translate(403.574375 293.50125) scale(0.12 -0.12)">
      <use xlink:href="#DejaVuSans-47"/>
      <use xlink:href="#DejaVuSans-43" transform="translate(77.490234 0)"/>
      <use xlink:href="#DejaVuSans-2d" transform="translate(147.314453 0)"/>
      <use xlink:href="#DejaVuSans-4d" transform="translate(183.398438 0)"/>
      <use xlink:href="#DejaVuSans-53" transform="translate(269.677734 0)"/>
      <use xlink:href="#DejaVuSans-5f" transform="translate(333.154297 0)"/>
      <use xlink:href="#DejaVuSans-31" transform="translate(383.154297 0)"/>
      <use xlink:href="#DejaVuSans-35" transform="translate(446.777344 0)"/>
     </g>
    </g>
    <g id="line2d_44">
     <path d="M 369.974375 307.24875 
L 381.974375 307.24875 
L 393.974375 307.24875 
" style="fill: none; stroke: #8c564b; stroke-width: 2; stroke-linecap: square"/>
    </g>
    <g id="text_30">
     <!-- GC-MS_16 -->
     <g transform="translate(403.574375 311.44875) scale(0.12 -0.12)">
      <use xlink:href="#DejaVuSans-47"/>
      <use xlink:href="#DejaVuSans-43" transform="translate(77.490234 0)"/>
      <use xlink:href="#DejaVuSans-2d" transform="translate(147.314453 0)"/>
      <use xlink:href="#DejaVuSans-4d" transform="translate(183.398438 0)"/>
      <use xlink:href="#DejaVuSans-53" transform="translate(269.677734 0)"/>
      <use xlink:href="#DejaVuSans-5f" transform="translate(333.154297 0)"/>
      <use xlink:href="#DejaVuSans-31" transform="translate(383.154297 0)"/>
      <use xlink:href="#DejaVuSans-36" transform="translate(446.777344 0)"/>
     </g>
    </g>
    <g id="line2d_45">
     <path d="M 369.974375 325.19625 
L 381.974375 325.19625 
L 393.974375 325.19625 
" style="fill: none; stroke: #1f77b4; stroke-width: 2; stroke-linecap: square"/>
    </g>
    <g id="text_31">
     <!-- from_peaks -->
     <g transform="translate(403.574375 329.39625) scale(0.12 -0.12)">
      <defs>
       <path id="DejaVuSans-72" d="M 2631 2963 
Q 2534 3019 2420 3045 
Q 2306 3072 2169 3072 
Q 1681 3072 1420 2755 
Q 1159 2438 1159 1844 
L 1159 0 
L 581 0 
L 581 3500 
L 1159 3500 
L 1159 2956 
Q 1341 3275 1631 3429 
Q 1922 3584 2338 3584 
Q 2397 3584 2469 3576 
Q 2541 3569 2628 3553 
L 2631 2963 
z
" transform="scale(0.015625)"/>
       <path id="DejaVuSans-6d" d="M 3328 2828 
Q 3544 3216 3844 3400 
Q 4144 3584 4550 3584 
Q 5097 3584 5394 3201 
Q 5691 2819 5691 2113 
L 5691 0 
L 5113 0 
L 5113 2094 
Q 5113 2597 4934 2840 
Q 4756 3084 4391 3084 
Q 3944 3084 3684 2787 
Q 3425 2491 3425 1978 
L 3425 0 
L 2847 0 
L 2847 2094 
Q 2847 2600 2669 2842 
Q 2491 3084 2119 3084 
Q 1678 3084 1418 2786 
Q 1159 2488 1159 1978 
L 1159 0 
L 581 0 
L 581 3500 
L 1159 3500 
L 1159 2956 
Q 1356 3278 1631 3431 
Q 1906 3584 2284 3584 
Q 2666 3584 2933 3390 
Q 3200 3197 3328 2828 
z
" transform="scale(0.015625)"/>
       <path id="DejaVuSans-70" d="M 1159 525 
L 1159 -1331 
L 581 -1331 
L 581 3500 
L 1159 3500 
L 1159 2969 
Q 1341 3281 1617 3432 
Q 1894 3584 2278 3584 
Q 2916 3584 3314 3078 
Q 3713 2572 3713 1747 
Q 3713 922 3314 415 
Q 2916 -91 2278 -91 
Q 1894 -91 1617 61 
Q 1341 213 1159 525 
z
M 3116 1747 
Q 3116 2381 2855 2742 
Q 2594 3103 2138 3103 
Q 1681 3103 1420 2742 
Q 1159 2381 1159 1747 
Q 1159 1113 1420 752 
Q 1681 391 2138 391 
Q 2594 391 2855 752 
Q 3116 1113 3116 1747 
z
" transform="scale(0.015625)"/>
       <path id="DejaVuSans-6b" d="M 581 4863 
L 1159 4863 
L 1159 1991 
L 2875 3500 
L 3609 3500 
L 1753 1863 
L 3688 0 
L 2938 0 
L 1159 1709 
L 1159 0 
L 581 0 
L 581 4863 
z
" transform="scale(0.015625)"/>
      </defs>
      <use xlink:href="#DejaVuSans-66"/>
      <use xlink:href="#DejaVuSans-72" transform="translate(35.205078 0)"/>
      <use xlink:href="#DejaVuSans-6f" transform="translate(74.068359 0)"/>
      <use xlink:href="#DejaVuSans-6d" transform="translate(135.25 0)"/>
      <use xlink:href="#DejaVuSans-5f" transform="translate(232.662109 0)"/>
      <use xlink:href="#DejaVuSans-70" transform="translate(282.662109 0)"/>
      <use xlink:href="#DejaVuSans-65" transform="translate(346.138672 0)"/>
      <use xlink:href="#DejaVuSans-61" transform="translate(407.662109 0)"/>
      <use xlink:href="#DejaVuSans-6b" transform="translate(468.941406 0)"/>
      <use xlink:href="#DejaVuSans-73" transform="translate(526.851562 0)"/>
     </g>
    </g>
   </g>
  </g>
 </g>
 <defs>
  <clipPath id="pf185696dbe">
   <rect x="37.44875" y="22.318125" width="446.4" height="332.64"/>
  </clipPath>
 </defs>
</svg>
