<?xml version="1.0" encoding="utf-8" standalone="no"?>
<!DOCTYPE svg PUBLIC "-//W3C//DTD SVG 1.1//EN"
  "http://www.w3.org/Graphics/SVG/1.1/DTD/svg11.dtd">
<svg xmlns:xlink="http://www.w3.org/1999/xlink" width="856.339687pt" height="352.474375pt" viewBox="0 0 856.339687 352.474375" xmlns="http://www.w3.org/2000/svg" version="1.1">
 <metadata>
  <rdf:RDF xmlns:dc="http://purl.org/dc/elements/1.1/" xmlns:cc="http://creativecommons.org/ns#" xmlns:rdf="http://www.w3.org/1999/02/22-rdf-syntax-ns#">
   <cc:Work>
    <dc:type rdf:resource="http://purl.org/dc/dcmitype/StillImage"/>
    <dc:date>2025-05-28T11:00:58.615898</dc:date>
    <dc:format>image/svg+xml</dc:format>
    <dc:creator>
     <cc:Agent>
      <dc:title>Matplotlib v3.10.0, https://matplotlib.org/</dc:title>
     </cc:Agent>
    </dc:creator>
   </cc:Work>
  </rdf:RDF>
 </metadata>
 <defs>
  <style type="text/css">*{stroke-linejoin: round; stroke-linecap: butt}</style>
 </defs>
 <g id="figure_1">
  <g id="patch_1">
   <path d="M 0 352.474375 
L 856.339687 352.474375 
L 856.339687 0 
L 0 0 
z
" style="fill: #ffffff"/>
  </g>
  <g id="axes_1">
   <g id="patch_2">
    <path d="M 52.160938 314.918125 
L 839.595937 314.918125 
L 839.595937 22.318125 
L 52.160938 22.318125 
z
" style="fill: #ffffff"/>
   </g>
   <g id="patch_3">
    <path d="M 52.160938 219.451189 
L 80.627078 219.451189 
L 80.627078 239.037295 
z
" clip-path="url(#p4d6d27372d)" style="fill: #1e90ff; opacity: 0.4; stroke: #1e90ff; stroke-linejoin: miter"/>
   </g>
   <g id="patch_4">
    <path d="M 80.627078 239.037295 
L 83.704499 239.037295 
L 83.704499 175.605455 
z
" clip-path="url(#p4d6d27372d)" style="fill: #ff1493; opacity: 0.4; stroke: #ff1493; stroke-linejoin: miter"/>
   </g>
   <g id="patch_5">
    <path d="M 83.704499 175.605455 
L 83.704499 238.990236 
L 86.781919 238.990236 
z
" clip-path="url(#p4d6d27372d)" style="fill: #800080; opacity: 0.4; stroke: #800080; stroke-linejoin: miter"/>
   </g>
   <g id="patch_6">
    <path d="M 86.781919 238.990236 
L 117.556126 219.451189 
L 86.781919 219.451189 
z
" clip-path="url(#p4d6d27372d)" style="fill: #ff4500; opacity: 0.4; stroke: #ff4500; stroke-linejoin: miter"/>
   </g>
   <g id="patch_7">
    <path d="M 117.556126 219.451189 
L 155.639206 219.451189 
L 155.639206 274.42822 
z
" clip-path="url(#p4d6d27372d)" style="fill: #1e90ff; opacity: 0.4; stroke: #1e90ff; stroke-linejoin: miter"/>
   </g>
   <g id="patch_8">
    <path d="M 155.639206 274.42822 
L 159.101304 274.42822 
L 159.101304 96.426714 
z
" clip-path="url(#p4d6d27372d)" style="fill: #ff1493; opacity: 0.4; stroke: #ff1493; stroke-linejoin: miter"/>
   </g>
   <g id="patch_9">
    <path d="M 159.101304 96.426714 
L 159.101304 273.728546 
L 162.563402 273.728546 
z
" clip-path="url(#p4d6d27372d)" style="fill: #800080; opacity: 0.4; stroke: #800080; stroke-linejoin: miter"/>
   </g>
   <g id="patch_10">
    <path d="M 162.563402 273.728546 
L 176.796472 219.451189 
L 162.563402 219.451189 
z
" clip-path="url(#p4d6d27372d)" style="fill: #ff4500; opacity: 0.4; stroke: #ff4500; stroke-linejoin: miter"/>
   </g>
   <g id="patch_11">
    <path d="M 176.796472 219.451189 
L 189.490832 219.451189 
L 189.490832 290.373294 
z
" clip-path="url(#p4d6d27372d)" style="fill: #1e90ff; opacity: 0.4; stroke: #1e90ff; stroke-linejoin: miter"/>
   </g>
   <g id="patch_12">
    <path d="M 189.490832 290.373294 
L 192.568253 290.373294 
L 192.568253 61.607281 
z
" clip-path="url(#p4d6d27372d)" style="fill: #ff1493; opacity: 0.4; stroke: #ff1493; stroke-linejoin: miter"/>
   </g>
   <g id="patch_13">
    <path d="M 192.568253 61.607281 
L 192.568253 289.541605 
L 195.260996 289.541605 
z
" clip-path="url(#p4d6d27372d)" style="fill: #800080; opacity: 0.4; stroke: #800080; stroke-linejoin: miter"/>
   </g>
   <g id="patch_14">
    <path d="M 195.260996 289.541605 
L 209.494066 219.451189 
L 195.260996 219.451189 
z
" clip-path="url(#p4d6d27372d)" style="fill: #ff4500; opacity: 0.4; stroke: #ff4500; stroke-linejoin: miter"/>
   </g>
   <g id="patch_15">
    <path d="M 209.494066 219.451189 
L 227.95859 219.451189 
L 227.95859 241.317065 
z
" clip-path="url(#p4d6d27372d)" style="fill: #1e90ff; opacity: 0.4; stroke: #1e90ff; stroke-linejoin: miter"/>
   </g>
   <g id="patch_16">
    <path d="M 227.95859 241.317065 
L 231.805366 241.317065 
L 231.805366 170.593272 
z
" clip-path="url(#p4d6d27372d)" style="fill: #ff1493; opacity: 0.4; stroke: #ff1493; stroke-linejoin: miter"/>
   </g>
   <g id="patch_17">
    <path d="M 231.805366 170.593272 
L 231.805366 241.208657 
L 235.267464 241.208657 
z
" clip-path="url(#p4d6d27372d)" style="fill: #800080; opacity: 0.4; stroke: #800080; stroke-linejoin: miter"/>
   </g>
   <g id="patch_18">
    <path d="M 235.267464 241.208657 
L 241.037628 219.591897 
L 235.267464 219.591897 
z
" clip-path="url(#p4d6d27372d)" style="fill: #ff4500; opacity: 0.4; stroke: #ff4500; stroke-linejoin: miter"/>
   </g>
   <g id="patch_19">
    <path d="M 241.037628 219.591897 
L 247.577147 219.591897 
L 247.577147 267.807054 
z
" clip-path="url(#p4d6d27372d)" style="fill: #1e90ff; opacity: 0.4; stroke: #1e90ff; stroke-linejoin: miter"/>
   </g>
   <g id="patch_20">
    <path d="M 247.577147 267.807054 
L 251.8086 267.807054 
L 251.8086 110.802591 
z
" clip-path="url(#p4d6d27372d)" style="fill: #ff1493; opacity: 0.4; stroke: #ff1493; stroke-linejoin: miter"/>
   </g>
   <g id="patch_21">
    <path d="M 251.8086 110.802591 
L 251.8086 267.829478 
L 256.040053 267.829478 
z
" clip-path="url(#p4d6d27372d)" style="fill: #800080; opacity: 0.4; stroke: #800080; stroke-linejoin: miter"/>
   </g>
   <g id="patch_22">
    <path d="M 256.040053 267.829478 
L 264.118282 219.458162 
L 256.040053 219.458162 
z
" clip-path="url(#p4d6d27372d)" style="fill: #ff4500; opacity: 0.4; stroke: #ff4500; stroke-linejoin: miter"/>
   </g>
   <g id="patch_23">
    <path d="M 264.118282 219.458162 
L 272.581189 219.458162 
L 272.581189 282.66873 
z
" clip-path="url(#p4d6d27372d)" style="fill: #1e90ff; opacity: 0.4; stroke: #1e90ff; stroke-linejoin: miter"/>
   </g>
   <g id="patch_24">
    <path d="M 272.581189 282.66873 
L 276.812642 282.66873 
L 276.812642 77.671252 
z
" clip-path="url(#p4d6d27372d)" style="fill: #ff1493; opacity: 0.4; stroke: #ff1493; stroke-linejoin: miter"/>
   </g>
   <g id="patch_25">
    <path d="M 276.812642 77.671252 
L 276.812642 282.275088 
L 280.659418 282.275088 
z
" clip-path="url(#p4d6d27372d)" style="fill: #800080; opacity: 0.4; stroke: #800080; stroke-linejoin: miter"/>
   </g>
   <g id="patch_26">
    <path d="M 280.659418 282.275088 
L 284.890872 227.428799 
L 280.659418 227.428799 
z
" clip-path="url(#p4d6d27372d)" style="fill: #ff4500; opacity: 0.4; stroke: #ff4500; stroke-linejoin: miter"/>
   </g>
   <g id="patch_27">
    <path d="M 284.890872 227.428799 
L 288.737647 227.428799 
L 288.737647 293.987183 
z
" clip-path="url(#p4d6d27372d)" style="fill: #1e90ff; opacity: 0.4; stroke: #1e90ff; stroke-linejoin: miter"/>
   </g>
   <g id="patch_28">
    <path d="M 288.737647 293.987183 
L 292.969101 293.987183 
L 292.969101 51.205949 
z
" clip-path="url(#p4d6d27372d)" style="fill: #ff1493; opacity: 0.4; stroke: #ff1493; stroke-linejoin: miter"/>
   </g>
   <g id="patch_29">
    <path d="M 292.969101 51.205949 
L 292.969101 294.762299 
L 296.815876 294.762299 
z
" clip-path="url(#p4d6d27372d)" style="fill: #800080; opacity: 0.4; stroke: #800080; stroke-linejoin: miter"/>
   </g>
   <g id="patch_30">
    <path d="M 296.815876 294.762299 
L 368.365906 219.451189 
L 296.815876 219.451189 
z
" clip-path="url(#p4d6d27372d)" style="fill: #ff4500; opacity: 0.4; stroke: #ff4500; stroke-linejoin: miter"/>
   </g>
   <g id="patch_31">
    <path d="M 368.365906 219.451189 
L 386.445752 219.451189 
L 386.445752 219.451189 
z
" clip-path="url(#p4d6d27372d)" style="fill: #808080; opacity: 0.4; stroke: #808080; stroke-linejoin: miter"/>
   </g>
   <g id="patch_32">
    <path d="M 386.445752 219.451189 
L 420.682056 219.451189 
L 420.682056 236.778103 
z
" clip-path="url(#p4d6d27372d)" style="fill: #1e90ff; opacity: 0.4; stroke: #1e90ff; stroke-linejoin: miter"/>
   </g>
   <g id="patch_33">
    <path d="M 420.682056 236.778103 
L 423.759477 236.778103 
L 423.759477 181.123769 
z
" clip-path="url(#p4d6d27372d)" style="fill: #ff1493; opacity: 0.4; stroke: #ff1493; stroke-linejoin: miter"/>
   </g>
   <g id="patch_34">
    <path d="M 423.759477 181.123769 
L 423.759477 236.768462 
L 426.45222 236.768462 
z
" clip-path="url(#p4d6d27372d)" style="fill: #800080; opacity: 0.4; stroke: #800080; stroke-linejoin: miter"/>
   </g>
   <g id="patch_35">
    <path d="M 426.45222 236.768462 
L 460.688524 219.451189 
L 426.45222 219.451189 
z
" clip-path="url(#p4d6d27372d)" style="fill: #ff4500; opacity: 0.4; stroke: #ff4500; stroke-linejoin: miter"/>
   </g>
   <g id="patch_36">
    <path d="M 460.688524 219.451189 
L 470.690141 219.451189 
L 470.690141 219.451189 
z
" clip-path="url(#p4d6d27372d)" style="fill: #808080; opacity: 0.4; stroke: #808080; stroke-linejoin: miter"/>
   </g>
   <g id="patch_37">
    <path d="M 470.690141 219.451189 
L 507.619189 219.451189 
L 507.619189 267.023259 
z
" clip-path="url(#p4d6d27372d)" style="fill: #1e90ff; opacity: 0.4; stroke: #1e90ff; stroke-linejoin: miter"/>
   </g>
   <g id="patch_38">
    <path d="M 507.619189 267.023259 
L 510.311932 267.023259 
L 510.311932 114.809509 
z
" clip-path="url(#p4d6d27372d)" style="fill: #ff1493; opacity: 0.4; stroke: #ff1493; stroke-linejoin: miter"/>
   </g>
   <g id="patch_39">
    <path d="M 510.311932 114.809509 
L 510.311932 267.012203 
L 513.389352 267.012203 
z
" clip-path="url(#p4d6d27372d)" style="fill: #800080; opacity: 0.4; stroke: #800080; stroke-linejoin: miter"/>
   </g>
   <g id="patch_40">
    <path d="M 513.389352 267.012203 
L 524.160324 219.451189 
L 513.389352 219.451189 
z
" clip-path="url(#p4d6d27372d)" style="fill: #ff4500; opacity: 0.4; stroke: #ff4500; stroke-linejoin: miter"/>
   </g>
   <g id="patch_41">
    <path d="M 524.160324 219.451189 
L 538.393395 219.451189 
L 538.393395 301.618125 
z
" clip-path="url(#p4d6d27372d)" style="fill: #1e90ff; opacity: 0.4; stroke: #1e90ff; stroke-linejoin: miter"/>
   </g>
   <g id="patch_42">
    <path d="M 538.393395 301.618125 
L 542.240171 301.618125 
L 542.240171 35.618125 
z
" clip-path="url(#p4d6d27372d)" style="fill: #ff1493; opacity: 0.4; stroke: #ff1493; stroke-linejoin: miter"/>
   </g>
   <g id="patch_43">
    <path d="M 542.240171 35.618125 
L 542.240171 301.199899 
L 546.086946 301.199899 
z
" clip-path="url(#p4d6d27372d)" style="fill: #800080; opacity: 0.4; stroke: #800080; stroke-linejoin: miter"/>
   </g>
   <g id="patch_44">
    <path d="M 546.086946 301.199899 
L 584.554704 219.451189 
L 546.086946 219.451189 
z
" clip-path="url(#p4d6d27372d)" style="fill: #ff4500; opacity: 0.4; stroke: #ff4500; stroke-linejoin: miter"/>
   </g>
   <g id="patch_45">
    <path d="M 584.554704 219.451189 
L 626.48456 219.451189 
L 626.48456 250.136643 
z
" clip-path="url(#p4d6d27372d)" style="fill: #1e90ff; opacity: 0.4; stroke: #1e90ff; stroke-linejoin: miter"/>
   </g>
   <g id="patch_46">
    <path d="M 626.48456 250.136643 
L 630.331336 250.136643 
L 630.331336 150.485899 
z
" clip-path="url(#p4d6d27372d)" style="fill: #ff1493; opacity: 0.4; stroke: #ff1493; stroke-linejoin: miter"/>
   </g>
   <g id="patch_47">
    <path d="M 630.331336 150.485899 
L 630.331336 249.943699 
L 634.178111 249.943699 
z
" clip-path="url(#p4d6d27372d)" style="fill: #800080; opacity: 0.4; stroke: #800080; stroke-linejoin: miter"/>
   </g>
   <g id="patch_48">
    <path d="M 634.178111 249.943699 
L 667.260383 219.451189 
L 634.178111 219.451189 
z
" clip-path="url(#p4d6d27372d)" style="fill: #ff4500; opacity: 0.4; stroke: #ff4500; stroke-linejoin: miter"/>
   </g>
   <g id="patch_49">
    <path d="M 667.260383 219.451189 
L 686.109584 219.451189 
L 686.109584 247.321075 
z
" clip-path="url(#p4d6d27372d)" style="fill: #1e90ff; opacity: 0.4; stroke: #1e90ff; stroke-linejoin: miter"/>
   </g>
   <g id="patch_50">
    <path d="M 686.109584 247.321075 
L 688.802327 247.321075 
L 688.802327 158.186464 
z
" clip-path="url(#p4d6d27372d)" style="fill: #ff1493; opacity: 0.4; stroke: #ff1493; stroke-linejoin: miter"/>
   </g>
   <g id="patch_51">
    <path d="M 688.802327 158.186464 
L 688.802327 247.322623 
L 691.879748 247.322623 
z
" clip-path="url(#p4d6d27372d)" style="fill: #800080; opacity: 0.4; stroke: #800080; stroke-linejoin: miter"/>
   </g>
   <g id="patch_52">
    <path d="M 691.879748 247.322623 
L 725.731375 219.451189 
L 691.879748 219.451189 
z
" clip-path="url(#p4d6d27372d)" style="fill: #ff4500; opacity: 0.4; stroke: #ff4500; stroke-linejoin: miter"/>
   </g>
   <g id="patch_53">
    <path d="M 725.731375 219.451189 
L 839.595937 219.451189 
L 839.595937 219.451189 
z
" clip-path="url(#p4d6d27372d)" style="fill: #808080; opacity: 0.4; stroke: #808080; stroke-linejoin: miter"/>
   </g>
   <g id="matplotlib.axis_1">
    <g id="xtick_1">
     <g id="line2d_1">
      <defs>
       <path id="m6e0195148f" d="M 0 0 
L 0 3.5 
" style="stroke: #000000; stroke-width: 0.8"/>
      </defs>
      <g>
       <use xlink:href="#m6e0195148f" x="52.160938" y="314.918125" style="stroke: #000000; stroke-width: 0.8"/>
      </g>
     </g>
     <g id="text_1">
      <!-- 0 -->
      <g transform="translate(48.979688 329.516563) scale(0.1 -0.1)">
       <defs>
        <path id="DejaVuSans-30" d="M 2034 4250 
Q 1547 4250 1301 3770 
Q 1056 3291 1056 2328 
Q 1056 1369 1301 889 
Q 1547 409 2034 409 
Q 2525 409 2770 889 
Q 3016 1369 3016 2328 
Q 3016 3291 2770 3770 
Q 2525 4250 2034 4250 
z
M 2034 4750 
Q 2819 4750 3233 4129 
Q 3647 3509 3647 2328 
Q 3647 1150 3233 529 
Q 2819 -91 2034 -91 
Q 1250 -91 836 529 
Q 422 1150 422 2328 
Q 422 3509 836 4129 
Q 1250 4750 2034 4750 
z
" transform="scale(0.015625)"/>
       </defs>
       <use xlink:href="#DejaVuSans-30"/>
      </g>
     </g>
    </g>
    <g id="xtick_2">
     <g id="line2d_2">
      <g>
       <use xlink:href="#m6e0195148f" x="209.647938" y="314.918125" style="stroke: #000000; stroke-width: 0.8"/>
      </g>
     </g>
     <g id="text_2">
      <!-- 100 -->
      <g transform="translate(200.104188 329.516563) scale(0.1 -0.1)">
       <defs>
        <path id="DejaVuSans-31" d="M 794 531 
L 1825 531 
L 1825 4091 
L 703 3866 
L 703 4441 
L 1819 4666 
L 2450 4666 
L 2450 531 
L 3481 531 
L 3481 0 
L 794 0 
L 794 531 
z
" transform="scale(0.015625)"/>
       </defs>
       <use xlink:href="#DejaVuSans-31"/>
       <use xlink:href="#DejaVuSans-30" transform="translate(63.623047 0)"/>
       <use xlink:href="#DejaVuSans-30" transform="translate(127.246094 0)"/>
      </g>
     </g>
    </g>
    <g id="xtick_3">
     <g id="line2d_3">
      <g>
       <use xlink:href="#m6e0195148f" x="367.134937" y="314.918125" style="stroke: #000000; stroke-width: 0.8"/>
      </g>
     </g>
     <g id="text_3">
      <!-- 200 -->
      <g transform="translate(357.591187 329.516563) scale(0.1 -0.1)">
       <defs>
        <path id="DejaVuSans-32" d="M 1228 531 
L 3431 531 
L 3431 0 
L 469 0 
L 469 531 
Q 828 903 1448 1529 
Q 2069 2156 2228 2338 
Q 2531 2678 2651 2914 
Q 2772 3150 2772 3378 
Q 2772 3750 2511 3984 
Q 2250 4219 1831 4219 
Q 1534 4219 1204 4116 
Q 875 4013 500 3803 
L 500 4441 
Q 881 4594 1212 4672 
Q 1544 4750 1819 4750 
Q 2544 4750 2975 4387 
Q 3406 4025 3406 3419 
Q 3406 3131 3298 2873 
Q 3191 2616 2906 2266 
Q 2828 2175 2409 1742 
Q 1991 1309 1228 531 
z
" transform="scale(0.015625)"/>
       </defs>
       <use xlink:href="#DejaVuSans-32"/>
       <use xlink:href="#DejaVuSans-30" transform="translate(63.623047 0)"/>
       <use xlink:href="#DejaVuSans-30" transform="translate(127.246094 0)"/>
      </g>
     </g>
    </g>
    <g id="xtick_4">
     <g id="line2d_4">
      <g>
       <use xlink:href="#m6e0195148f" x="524.621938" y="314.918125" style="stroke: #000000; stroke-width: 0.8"/>
      </g>
     </g>
     <g id="text_4">
      <!-- 300 -->
      <g transform="translate(515.078188 329.516563) scale(0.1 -0.1)">
       <defs>
        <path id="DejaVuSans-33" d="M 2597 2516 
Q 3050 2419 3304 2112 
Q 3559 1806 3559 1356 
Q 3559 666 3084 287 
Q 2609 -91 1734 -91 
Q 1441 -91 1130 -33 
Q 819 25 488 141 
L 488 750 
Q 750 597 1062 519 
Q 1375 441 1716 441 
Q 2309 441 2620 675 
Q 2931 909 2931 1356 
Q 2931 1769 2642 2001 
Q 2353 2234 1838 2234 
L 1294 2234 
L 1294 2753 
L 1863 2753 
Q 2328 2753 2575 2939 
Q 2822 3125 2822 3475 
Q 2822 3834 2567 4026 
Q 2313 4219 1838 4219 
Q 1578 4219 1281 4162 
Q 984 4106 628 3988 
L 628 4550 
Q 988 4650 1302 4700 
Q 1616 4750 1894 4750 
Q 2613 4750 3031 4423 
Q 3450 4097 3450 3541 
Q 3450 3153 3228 2886 
Q 3006 2619 2597 2516 
z
" transform="scale(0.015625)"/>
       </defs>
       <use xlink:href="#DejaVuSans-33"/>
       <use xlink:href="#DejaVuSans-30" transform="translate(63.623047 0)"/>
       <use xlink:href="#DejaVuSans-30" transform="translate(127.246094 0)"/>
      </g>
     </g>
    </g>
    <g id="xtick_5">
     <g id="line2d_5">
      <g>
       <use xlink:href="#m6e0195148f" x="682.108938" y="314.918125" style="stroke: #000000; stroke-width: 0.8"/>
      </g>
     </g>
     <g id="text_5">
      <!-- 400 -->
      <g transform="translate(672.565187 329.516563) scale(0.1 -0.1)">
       <defs>
        <path id="DejaVuSans-34" d="M 2419 4116 
L 825 1625 
L 2419 1625 
L 2419 4116 
z
M 2253 4666 
L 3047 4666 
L 3047 1625 
L 3713 1625 
L 3713 1100 
L 3047 1100 
L 3047 0 
L 2419 0 
L 2419 1100 
L 313 1100 
L 313 1709 
L 2253 4666 
z
" transform="scale(0.015625)"/>
       </defs>
       <use xlink:href="#DejaVuSans-34"/>
       <use xlink:href="#DejaVuSans-30" transform="translate(63.623047 0)"/>
       <use xlink:href="#DejaVuSans-30" transform="translate(127.246094 0)"/>
      </g>
     </g>
    </g>
    <g id="xtick_6">
     <g id="line2d_6">
      <g>
       <use xlink:href="#m6e0195148f" x="839.595937" y="314.918125" style="stroke: #000000; stroke-width: 0.8"/>
      </g>
     </g>
     <g id="text_6">
      <!-- 500 -->
      <g transform="translate(830.052187 329.516563) scale(0.1 -0.1)">
       <defs>
        <path id="DejaVuSans-35" d="M 691 4666 
L 3169 4666 
L 3169 4134 
L 1269 4134 
L 1269 2991 
Q 1406 3038 1543 3061 
Q 1681 3084 1819 3084 
Q 2600 3084 3056 2656 
Q 3513 2228 3513 1497 
Q 3513 744 3044 326 
Q 2575 -91 1722 -91 
Q 1428 -91 1123 -41 
Q 819 9 494 109 
L 494 744 
Q 775 591 1075 516 
Q 1375 441 1709 441 
Q 2250 441 2565 725 
Q 2881 1009 2881 1497 
Q 2881 1984 2565 2268 
Q 2250 2553 1709 2553 
Q 1456 2553 1204 2497 
Q 953 2441 691 2322 
L 691 4666 
z
" transform="scale(0.015625)"/>
       </defs>
       <use xlink:href="#DejaVuSans-35"/>
       <use xlink:href="#DejaVuSans-30" transform="translate(63.623047 0)"/>
       <use xlink:href="#DejaVuSans-30" transform="translate(127.246094 0)"/>
      </g>
     </g>
    </g>
    <g id="text_7">
     <!-- index [-] -->
     <g transform="translate(424.903437 343.194687) scale(0.1 -0.1)">
      <defs>
       <path id="DejaVuSans-69" d="M 603 3500 
L 1178 3500 
L 1178 0 
L 603 0 
L 603 3500 
z
M 603 4863 
L 1178 4863 
L 1178 4134 
L 603 4134 
L 603 4863 
z
" transform="scale(0.015625)"/>
       <path id="DejaVuSans-6e" d="M 3513 2113 
L 3513 0 
L 2938 0 
L 2938 2094 
Q 2938 2591 2744 2837 
Q 2550 3084 2163 3084 
Q 1697 3084 1428 2787 
Q 1159 2491 1159 1978 
L 1159 0 
L 581 0 
L 581 3500 
L 1159 3500 
L 1159 2956 
Q 1366 3272 1645 3428 
Q 1925 3584 2291 3584 
Q 2894 3584 3203 3211 
Q 3513 2838 3513 2113 
z
" transform="scale(0.015625)"/>
       <path id="DejaVuSans-64" d="M 2906 2969 
L 2906 4863 
L 3481 4863 
L 3481 0 
L 2906 0 
L 2906 525 
Q 2725 213 2448 61 
Q 2172 -91 1784 -91 
Q 1150 -91 751 415 
Q 353 922 353 1747 
Q 353 2572 751 3078 
Q 1150 3584 1784 3584 
Q 2172 3584 2448 3432 
Q 2725 3281 2906 2969 
z
M 947 1747 
Q 947 1113 1208 752 
Q 1469 391 1925 391 
Q 2381 391 2643 752 
Q 2906 1113 2906 1747 
Q 2906 2381 2643 2742 
Q 2381 3103 1925 3103 
Q 1469 3103 1208 2742 
Q 947 2381 947 1747 
z
" transform="scale(0.015625)"/>
       <path id="DejaVuSans-65" d="M 3597 1894 
L 3597 1613 
L 953 1613 
Q 991 1019 1311 708 
Q 1631 397 2203 397 
Q 2534 397 2845 478 
Q 3156 559 3463 722 
L 3463 178 
Q 3153 47 2828 -22 
Q 2503 -91 2169 -91 
Q 1331 -91 842 396 
Q 353 884 353 1716 
Q 353 2575 817 3079 
Q 1281 3584 2069 3584 
Q 2775 3584 3186 3129 
Q 3597 2675 3597 1894 
z
M 3022 2063 
Q 3016 2534 2758 2815 
Q 2500 3097 2075 3097 
Q 1594 3097 1305 2825 
Q 1016 2553 972 2059 
L 3022 2063 
z
" transform="scale(0.015625)"/>
       <path id="DejaVuSans-78" d="M 3513 3500 
L 2247 1797 
L 3578 0 
L 2900 0 
L 1881 1375 
L 863 0 
L 184 0 
L 1544 1831 
L 300 3500 
L 978 3500 
L 1906 2253 
L 2834 3500 
L 3513 3500 
z
" transform="scale(0.015625)"/>
       <path id="DejaVuSans-20" transform="scale(0.015625)"/>
       <path id="DejaVuSans-5b" d="M 550 4863 
L 1875 4863 
L 1875 4416 
L 1125 4416 
L 1125 -397 
L 1875 -397 
L 1875 -844 
L 550 -844 
L 550 4863 
z
" transform="scale(0.015625)"/>
       <path id="DejaVuSans-2d" d="M 313 2009 
L 1997 2009 
L 1997 1497 
L 313 1497 
L 313 2009 
z
" transform="scale(0.015625)"/>
       <path id="DejaVuSans-5d" d="M 1947 4863 
L 1947 -844 
L 622 -844 
L 622 -397 
L 1369 -397 
L 1369 4416 
L 622 4416 
L 622 4863 
L 1947 4863 
z
" transform="scale(0.015625)"/>
      </defs>
      <use xlink:href="#DejaVuSans-69"/>
      <use xlink:href="#DejaVuSans-6e" transform="translate(27.783203 0)"/>
      <use xlink:href="#DejaVuSans-64" transform="translate(91.162109 0)"/>
      <use xlink:href="#DejaVuSans-65" transform="translate(154.638672 0)"/>
      <use xlink:href="#DejaVuSans-78" transform="translate(214.412109 0)"/>
      <use xlink:href="#DejaVuSans-20" transform="translate(273.591797 0)"/>
      <use xlink:href="#DejaVuSans-5b" transform="translate(305.378906 0)"/>
      <use xlink:href="#DejaVuSans-2d" transform="translate(344.392578 0)"/>
      <use xlink:href="#DejaVuSans-5d" transform="translate(380.476562 0)"/>
     </g>
    </g>
   </g>
   <g id="matplotlib.axis_2">
    <g id="ytick_1">
     <g id="line2d_7">
      <defs>
       <path id="maf179e43a6" d="M 0 0 
L -3.5 0 
" style="stroke: #000000; stroke-width: 0.8"/>
      </defs>
      <g>
       <use xlink:href="#maf179e43a6" x="52.160938" y="281.489762" style="stroke: #000000; stroke-width: 0.8"/>
      </g>
     </g>
     <g id="text_8">
      <!-- −0.2 -->
      <g transform="translate(20.878125 285.28898) scale(0.1 -0.1)">
       <defs>
        <path id="DejaVuSans-2212" d="M 678 2272 
L 4684 2272 
L 4684 1741 
L 678 1741 
L 678 2272 
z
" transform="scale(0.015625)"/>
        <path id="DejaVuSans-2e" d="M 684 794 
L 1344 794 
L 1344 0 
L 684 0 
L 684 794 
z
" transform="scale(0.015625)"/>
       </defs>
       <use xlink:href="#DejaVuSans-2212"/>
       <use xlink:href="#DejaVuSans-30" transform="translate(83.789062 0)"/>
       <use xlink:href="#DejaVuSans-2e" transform="translate(147.412109 0)"/>
       <use xlink:href="#DejaVuSans-32" transform="translate(179.199219 0)"/>
      </g>
     </g>
    </g>
    <g id="ytick_2">
     <g id="line2d_8">
      <g>
       <use xlink:href="#maf179e43a6" x="52.160938" y="219.451189" style="stroke: #000000; stroke-width: 0.8"/>
      </g>
     </g>
     <g id="text_9">
      <!-- 0.0 -->
      <g transform="translate(29.257812 223.250408) scale(0.1 -0.1)">
       <use xlink:href="#DejaVuSans-30"/>
       <use xlink:href="#DejaVuSans-2e" transform="translate(63.623047 0)"/>
       <use xlink:href="#DejaVuSans-30" transform="translate(95.410156 0)"/>
      </g>
     </g>
    </g>
    <g id="ytick_3">
     <g id="line2d_9">
      <g>
       <use xlink:href="#maf179e43a6" x="52.160938" y="157.412616" style="stroke: #000000; stroke-width: 0.8"/>
      </g>
     </g>
     <g id="text_10">
      <!-- 0.2 -->
      <g transform="translate(29.257812 161.211835) scale(0.1 -0.1)">
       <use xlink:href="#DejaVuSans-30"/>
       <use xlink:href="#DejaVuSans-2e" transform="translate(63.623047 0)"/>
       <use xlink:href="#DejaVuSans-32" transform="translate(95.410156 0)"/>
      </g>
     </g>
    </g>
    <g id="ytick_4">
     <g id="line2d_10">
      <g>
       <use xlink:href="#maf179e43a6" x="52.160938" y="95.374043" style="stroke: #000000; stroke-width: 0.8"/>
      </g>
     </g>
     <g id="text_11">
      <!-- 0.4 -->
      <g transform="translate(29.257812 99.173262) scale(0.1 -0.1)">
       <use xlink:href="#DejaVuSans-30"/>
       <use xlink:href="#DejaVuSans-2e" transform="translate(63.623047 0)"/>
       <use xlink:href="#DejaVuSans-34" transform="translate(95.410156 0)"/>
      </g>
     </g>
    </g>
    <g id="ytick_5">
     <g id="line2d_11">
      <g>
       <use xlink:href="#maf179e43a6" x="52.160938" y="33.335471" style="stroke: #000000; stroke-width: 0.8"/>
      </g>
     </g>
     <g id="text_12">
      <!-- 0.6 -->
      <g transform="translate(29.257812 37.134689) scale(0.1 -0.1)">
       <defs>
        <path id="DejaVuSans-36" d="M 2113 2584 
Q 1688 2584 1439 2293 
Q 1191 2003 1191 1497 
Q 1191 994 1439 701 
Q 1688 409 2113 409 
Q 2538 409 2786 701 
Q 3034 994 3034 1497 
Q 3034 2003 2786 2293 
Q 2538 2584 2113 2584 
z
M 3366 4563 
L 3366 3988 
Q 3128 4100 2886 4159 
Q 2644 4219 2406 4219 
Q 1781 4219 1451 3797 
Q 1122 3375 1075 2522 
Q 1259 2794 1537 2939 
Q 1816 3084 2150 3084 
Q 2853 3084 3261 2657 
Q 3669 2231 3669 1497 
Q 3669 778 3244 343 
Q 2819 -91 2113 -91 
Q 1303 -91 875 529 
Q 447 1150 447 2328 
Q 447 3434 972 4092 
Q 1497 4750 2381 4750 
Q 2619 4750 2861 4703 
Q 3103 4656 3366 4563 
z
" transform="scale(0.015625)"/>
       </defs>
       <use xlink:href="#DejaVuSans-30"/>
       <use xlink:href="#DejaVuSans-2e" transform="translate(63.623047 0)"/>
       <use xlink:href="#DejaVuSans-36" transform="translate(95.410156 0)"/>
      </g>
     </g>
    </g>
    <g id="text_13">
     <!-- intensity [a.u.] -->
     <g transform="translate(14.798437 205.19625) rotate(-90) scale(0.1 -0.1)">
      <defs>
       <path id="DejaVuSans-74" d="M 1172 4494 
L 1172 3500 
L 2356 3500 
L 2356 3053 
L 1172 3053 
L 1172 1153 
Q 1172 725 1289 603 
Q 1406 481 1766 481 
L 2356 481 
L 2356 0 
L 1766 0 
Q 1100 0 847 248 
Q 594 497 594 1153 
L 594 3053 
L 172 3053 
L 172 3500 
L 594 3500 
L 594 4494 
L 1172 4494 
z
" transform="scale(0.015625)"/>
       <path id="DejaVuSans-73" d="M 2834 3397 
L 2834 2853 
Q 2591 2978 2328 3040 
Q 2066 3103 1784 3103 
Q 1356 3103 1142 2972 
Q 928 2841 928 2578 
Q 928 2378 1081 2264 
Q 1234 2150 1697 2047 
L 1894 2003 
Q 2506 1872 2764 1633 
Q 3022 1394 3022 966 
Q 3022 478 2636 193 
Q 2250 -91 1575 -91 
Q 1294 -91 989 -36 
Q 684 19 347 128 
L 347 722 
Q 666 556 975 473 
Q 1284 391 1588 391 
Q 1994 391 2212 530 
Q 2431 669 2431 922 
Q 2431 1156 2273 1281 
Q 2116 1406 1581 1522 
L 1381 1569 
Q 847 1681 609 1914 
Q 372 2147 372 2553 
Q 372 3047 722 3315 
Q 1072 3584 1716 3584 
Q 2034 3584 2315 3537 
Q 2597 3491 2834 3397 
z
" transform="scale(0.015625)"/>
       <path id="DejaVuSans-79" d="M 2059 -325 
Q 1816 -950 1584 -1140 
Q 1353 -1331 966 -1331 
L 506 -1331 
L 506 -850 
L 844 -850 
Q 1081 -850 1212 -737 
Q 1344 -625 1503 -206 
L 1606 56 
L 191 3500 
L 800 3500 
L 1894 763 
L 2988 3500 
L 3597 3500 
L 2059 -325 
z
" transform="scale(0.015625)"/>
       <path id="DejaVuSans-61" d="M 2194 1759 
Q 1497 1759 1228 1600 
Q 959 1441 959 1056 
Q 959 750 1161 570 
Q 1363 391 1709 391 
Q 2188 391 2477 730 
Q 2766 1069 2766 1631 
L 2766 1759 
L 2194 1759 
z
M 3341 1997 
L 3341 0 
L 2766 0 
L 2766 531 
Q 2569 213 2275 61 
Q 1981 -91 1556 -91 
Q 1019 -91 701 211 
Q 384 513 384 1019 
Q 384 1609 779 1909 
Q 1175 2209 1959 2209 
L 2766 2209 
L 2766 2266 
Q 2766 2663 2505 2880 
Q 2244 3097 1772 3097 
Q 1472 3097 1187 3025 
Q 903 2953 641 2809 
L 641 3341 
Q 956 3463 1253 3523 
Q 1550 3584 1831 3584 
Q 2591 3584 2966 3190 
Q 3341 2797 3341 1997 
z
" transform="scale(0.015625)"/>
       <path id="DejaVuSans-75" d="M 544 1381 
L 544 3500 
L 1119 3500 
L 1119 1403 
Q 1119 906 1312 657 
Q 1506 409 1894 409 
Q 2359 409 2629 706 
Q 2900 1003 2900 1516 
L 2900 3500 
L 3475 3500 
L 3475 0 
L 2900 0 
L 2900 538 
Q 2691 219 2414 64 
Q 2138 -91 1772 -91 
Q 1169 -91 856 284 
Q 544 659 544 1381 
z
M 1991 3584 
L 1991 3584 
z
" transform="scale(0.015625)"/>
      </defs>
      <use xlink:href="#DejaVuSans-69"/>
      <use xlink:href="#DejaVuSans-6e" transform="translate(27.783203 0)"/>
      <use xlink:href="#DejaVuSans-74" transform="translate(91.162109 0)"/>
      <use xlink:href="#DejaVuSans-65" transform="translate(130.371094 0)"/>
      <use xlink:href="#DejaVuSans-6e" transform="translate(191.894531 0)"/>
      <use xlink:href="#DejaVuSans-73" transform="translate(255.273438 0)"/>
      <use xlink:href="#DejaVuSans-69" transform="translate(307.373047 0)"/>
      <use xlink:href="#DejaVuSans-74" transform="translate(335.15625 0)"/>
      <use xlink:href="#DejaVuSans-79" transform="translate(374.365234 0)"/>
      <use xlink:href="#DejaVuSans-20" transform="translate(433.544922 0)"/>
      <use xlink:href="#DejaVuSans-5b" transform="translate(465.332031 0)"/>
      <use xlink:href="#DejaVuSans-61" transform="translate(504.345703 0)"/>
      <use xlink:href="#DejaVuSans-2e" transform="translate(565.625 0)"/>
      <use xlink:href="#DejaVuSans-75" transform="translate(597.412109 0)"/>
      <use xlink:href="#DejaVuSans-2e" transform="translate(660.791016 0)"/>
      <use xlink:href="#DejaVuSans-5d" transform="translate(692.578125 0)"/>
     </g>
    </g>
   </g>
   <g id="line2d_12">
    <path d="M 52.160938 219.451189 
L 80.242401 219.426808 
L 80.627078 219.332719 
L 81.011756 218.980494 
L 81.396433 217.922077 
L 81.781111 215.389494 
L 82.165789 210.629669 
L 82.935144 196.704401 
L 83.319821 192.445167 
L 83.704499 193.235016 
L 84.089176 198.642433 
L 84.858532 212.284738 
L 85.243209 216.341726 
L 85.627887 218.348038 
L 86.012564 219.131187 
L 86.397242 219.375289 
L 87.551275 219.450886 
L 154.100495 219.432043 
L 154.869851 219.225565 
L 155.254528 218.79353 
L 155.639206 217.732248 
L 156.023883 215.422484 
L 156.408561 210.984493 
L 156.793238 203.495828 
L 157.562594 178.59816 
L 158.331949 151.824472 
L 158.716626 145.570406 
L 159.101304 147.076155 
L 159.485981 155.875632 
L 161.024692 206.729733 
L 161.409369 212.972923 
L 161.794047 216.493008 
L 162.178725 218.239936 
L 162.563402 219.006466 
L 162.94808 219.304773 
L 163.717435 219.439746 
L 169.102921 219.451189 
L 189.490832 219.369258 
L 189.87551 218.930427 
L 190.260188 216.939521 
L 190.644865 210.259045 
L 191.029543 193.924013 
L 192.183576 115.087554 
L 192.568253 123.365028 
L 193.722286 205.136423 
L 194.106963 215.081791 
L 194.491641 218.439166 
L 194.876319 219.273324 
L 195.260996 219.427468 
L 197.569062 219.451189 
L 226.41988 219.369225 
L 226.804557 219.256456 
L 227.189235 219.01894 
L 227.573913 218.554783 
L 227.95859 217.714387 
L 228.343268 216.307269 
L 228.727945 214.134173 
L 229.112623 211.050017 
L 229.881978 202.346714 
L 230.651333 192.918508 
L 231.036011 189.609053 
L 231.420688 188.092777 
L 231.805366 188.665167 
L 232.190044 191.213543 
L 232.959399 200.077852 
L 233.728754 209.324164 
L 234.498109 215.417886 
L 234.882787 217.152589 
L 235.267464 218.227302 
L 235.652142 218.842361 
L 236.036819 219.16823 
L 236.806174 219.401346 
L 238.729562 219.450991 
L 244.884404 219.366113 
L 245.653759 219.080633 
L 246.038436 218.727834 
L 246.423114 218.100677 
L 246.807791 217.039649 
L 247.192469 215.332682 
L 247.577147 212.723991 
L 247.961824 208.941793 
L 248.346502 203.748631 
L 249.115857 188.781938 
L 250.654567 150.908958 
L 251.039245 144.479925 
L 251.423922 141.021488 
L 251.8086 140.979064 
L 252.193278 144.358198 
L 252.577955 150.723376 
L 253.34731 169.084181 
L 254.501343 196.828976 
L 255.270698 208.833255 
L 255.655376 212.647159 
L 256.040053 215.281137 
L 256.424731 217.006825 
L 256.809408 218.080814 
L 257.194086 218.716401 
L 257.578764 219.074369 
L 258.348119 219.364488 
L 259.886829 219.4485 
L 269.503768 219.410699 
L 270.273124 219.247751 
L 270.657801 219.025946 
L 271.042479 218.602752 
L 271.427156 217.83542 
L 271.811834 216.514109 
L 272.196512 214.355194 
L 272.581189 211.011643 
L 272.965867 206.110263 
L 273.350544 199.321842 
L 274.119899 179.599429 
L 275.65861 130.119641 
L 276.043287 122.157154 
L 276.427965 118.306199 
L 276.812642 119.086869 
L 277.19732 124.392652 
L 277.581998 133.514284 
L 279.890063 201.806087 
L 280.274741 207.936548 
L 280.659418 212.278971 
L 281.044096 215.187031 
L 281.428773 217.03133 
L 281.813451 218.140428 
L 282.198129 218.773494 
L 282.582806 219.116746 
L 283.352161 219.380339 
L 284.890872 219.447231 
L 286.429582 219.347258 
L 286.814259 219.2111 
L 287.198937 218.925235 
L 287.583615 218.358719 
L 287.968292 217.299645 
L 288.35297 215.433576 
L 288.737647 212.338019 
L 289.122325 207.510329 
L 289.507002 200.445429 
L 290.276358 178.410349 
L 292.199746 108.688015 
L 292.584423 104.301455 
L 292.969101 105.948088 
L 293.353778 113.372108 
L 294.123133 140.473301 
L 295.277166 185.418328 
L 296.046521 204.573119 
L 296.431199 210.369083 
L 296.815876 214.194604 
L 297.200554 216.566506 
L 297.585232 217.950227 
L 297.969909 218.7107 
L 298.354587 219.104815 
L 299.123942 219.386589 
L 300.662652 219.450003 
L 354.132835 219.451189 
L 421.066734 219.415631 
L 421.451411 219.187578 
L 421.836089 218.085406 
L 422.220767 214.50594 
L 423.374799 192.102323 
L 423.759477 195.83008 
L 424.528832 213.436847 
L 424.91351 217.678163 
L 425.298187 219.085905 
L 425.682865 219.398595 
L 426.836897 219.451171 
L 508.003866 219.385111 
L 508.388544 218.874908 
L 508.773221 216.066423 
L 509.157899 206.062525 
L 510.311932 142.13865 
L 510.696609 156.541655 
L 511.465964 206.728088 
L 511.850642 216.28889 
L 512.23532 218.921858 
L 512.619997 219.391517 
L 513.77403 219.451181 
L 536.085329 219.361091 
L 536.470007 219.227384 
L 536.854684 218.928378 
L 537.239362 218.302659 
L 537.62404 217.078381 
L 538.008717 214.841139 
L 538.393395 211.028104 
L 538.778072 204.978164 
L 539.16275 196.064433 
L 539.932105 168.663437 
L 541.086138 116.918668 
L 541.470815 104.845119 
L 541.855493 98.981953 
L 542.240171 100.363397 
L 542.624848 108.74271 
L 543.394203 139.87634 
L 544.548236 188.860633 
L 545.317591 207.555001 
L 545.702269 212.685658 
L 546.086946 215.832773 
L 546.471624 217.631246 
L 546.856301 218.590355 
L 547.240979 219.068273 
L 548.010334 219.388174 
L 549.549044 219.450372 
L 622.253107 219.450108 
L 624.176494 219.347353 
L 624.94585 218.998361 
L 625.330527 218.574469 
L 625.715205 217.837287 
L 626.099882 216.626424 
L 626.48456 214.750339 
L 626.869237 212.013131 
L 627.638593 203.444827 
L 629.56198 174.480239 
L 629.946658 171.925677 
L 630.331336 171.697107 
L 630.716013 173.828262 
L 631.100691 178.008803 
L 632.254724 196.502215 
L 633.024079 207.426135 
L 633.793434 214.30167 
L 634.178111 216.326981 
L 634.562789 217.648993 
L 634.947467 218.462742 
L 635.332144 218.935731 
L 636.101499 219.330702 
L 637.255532 219.441862 
L 645.333761 219.451189 
L 686.494262 219.380068 
L 686.878939 218.942726 
L 687.263617 216.910574 
L 687.648295 210.578926 
L 688.802327 175.414215 
L 689.187005 182.7587 
L 689.95636 210.754686 
L 690.341038 216.977458 
L 690.725715 218.959403 
L 691.110393 219.382858 
L 691.879748 219.450738 
L 791.895918 219.451189 
L 839.595937 219.451189 
L 839.595937 219.451189 
" clip-path="url(#p4d6d27372d)" style="fill: none; stroke: #000000; stroke-width: 3; stroke-linecap: square"/>
   </g>
   <g id="line2d_13">
    <path d="M 52.160938 219.451189 
L 76.010947 219.517272 
L 76.780302 219.768232 
L 77.16498 220.090677 
L 77.549658 220.670293 
L 77.934335 221.644551 
L 78.319013 223.168478 
L 78.70369 225.371078 
L 79.473045 231.723498 
L 80.242401 238.025039 
L 80.627078 239.037295 
L 81.011756 237.185547 
L 81.396433 231.691486 
L 81.781111 222.467687 
L 82.935144 185.587969 
L 83.319821 177.782619 
L 83.704499 175.605455 
L 84.089176 179.557297 
L 84.473854 188.733231 
L 85.627887 225.543651 
L 86.012564 233.712238 
L 86.397242 238.085363 
L 86.781919 238.990236 
L 87.166597 237.337043 
L 89.089985 222.653167 
L 89.474662 221.307073 
L 89.85934 220.465084 
L 90.244018 219.974185 
L 91.013373 219.568935 
L 92.167406 219.459585 
L 100.630312 219.451189 
L 150.25372 219.531357 
L 151.023075 219.823537 
L 151.407752 220.201292 
L 151.79243 220.894562 
L 152.177108 222.10189 
L 152.561785 224.092343 
L 152.946463 227.189099 
L 153.33114 231.715782 
L 154.100495 245.684102 
L 155.254528 270.96133 
L 155.639206 274.42822 
L 156.023883 271.644961 
L 156.408561 260.701481 
L 156.793238 240.840277 
L 157.562594 180.24347 
L 158.331949 118.9513 
L 158.716626 100.937451 
L 159.101304 96.426714 
L 159.485981 106.288913 
L 159.870659 128.631561 
L 161.409369 249.370104 
L 161.794047 265.874751 
L 162.178725 273.570023 
L 162.563402 273.728546 
L 162.94808 268.513622 
L 164.871468 229.820262 
L 165.256145 225.868002 
L 165.640823 223.228791 
L 166.0255 221.569884 
L 166.410178 220.584585 
L 166.794855 220.030036 
L 167.179533 219.733645 
L 167.948888 219.509993 
L 169.872276 219.451731 
L 184.490024 219.512755 
L 184.874702 219.606097 
L 185.259379 219.819417 
L 185.644057 220.277474 
L 186.028734 221.199841 
L 186.413412 222.937218 
L 186.798089 225.988123 
L 187.182767 230.959529 
L 187.567445 238.425434 
L 188.3368 261.185422 
L 189.106155 285.54976 
L 189.490832 290.373294 
L 189.87551 284.547724 
L 190.260188 264.801024 
L 190.644865 230.602634 
L 191.798898 93.490133 
L 192.183576 66.409021 
L 192.568253 61.607281 
L 192.952931 80.26387 
L 193.722286 165.6138 
L 194.491641 252.721236 
L 194.876319 278.405183 
L 195.260996 289.541605 
L 195.645674 288.48961 
L 196.030351 279.382128 
L 197.184384 242.200355 
L 197.569062 233.629646 
L 197.953739 227.716726 
L 198.338417 223.970911 
L 198.723094 221.774271 
L 199.107772 220.575362 
L 199.492449 219.964018 
L 199.877127 219.671953 
L 200.646482 219.485678 
L 202.954548 219.451224 
L 222.573104 219.541116 
L 223.342459 219.778037 
L 223.727137 220.040224 
L 224.111814 220.472834 
L 224.496492 221.155287 
L 224.88117 222.182222 
L 225.265847 223.651698 
L 226.035202 228.180923 
L 227.573913 240.152153 
L 227.95859 241.317065 
L 228.343268 240.440503 
L 228.727945 236.943005 
L 229.112623 230.536962 
L 229.881978 210.144691 
L 230.651333 186.526119 
L 231.036011 177.282761 
L 231.420688 171.679512 
L 231.805366 170.593272 
L 232.190044 174.196726 
L 232.574721 181.920318 
L 234.498109 234.372076 
L 234.882787 239.189864 
L 235.267464 241.208657 
L 235.652142 240.89528 
L 236.036819 238.915751 
L 237.960207 224.495854 
L 238.729562 221.577819 
L 239.11424 220.751088 
L 239.498917 220.217477 
L 240.268273 219.705196 
L 241.037628 219.591897 
L 241.806983 219.739902 
L 242.191661 219.947734 
L 242.576338 220.303181 
L 242.961016 220.879802 
L 243.345693 221.778539 
L 243.730371 223.12774 
L 244.115048 225.0774 
L 244.499726 227.784272 
L 245.269081 235.955602 
L 246.038436 247.693466 
L 246.807791 260.39646 
L 247.192469 265.282054 
L 247.577147 267.807054 
L 247.961824 266.851683 
L 248.346502 261.44088 
L 248.731179 250.959743 
L 249.500534 215.304879 
L 251.039245 127.2096 
L 251.423922 115.091189 
L 251.8086 110.802591 
L 252.193278 114.890068 
L 252.577955 126.832869 
L 253.34731 167.586827 
L 254.501343 234.921267 
L 254.886021 250.640513 
L 255.270698 261.247988 
L 255.655376 266.77649 
L 256.040053 267.829478 
L 256.424731 265.375877 
L 257.194086 254.387429 
L 258.348119 236.078601 
L 259.117474 227.860596 
L 259.886829 223.167133 
L 260.271507 221.804914 
L 260.656184 220.896184 
L 261.040862 220.311471 
L 261.810217 219.729784 
L 262.579572 219.531428 
L 264.118282 219.458162 
L 266.04167 219.542987 
L 266.811025 219.778727 
L 267.195703 220.04277 
L 267.580381 220.487541 
L 267.965058 221.21137 
L 268.349736 222.34825 
L 268.734413 224.069308 
L 269.119091 226.57626 
L 269.503768 230.082276 
L 270.273124 240.767259 
L 271.042479 256.248338 
L 271.811834 273.045585 
L 272.196512 279.459199 
L 272.581189 282.66873 
L 272.965867 281.157339 
L 273.350544 273.618553 
L 273.735222 259.25668 
L 274.504577 211.048641 
L 276.043287 95.891397 
L 276.427965 81.42636 
L 276.812642 77.671252 
L 277.19732 85.117122 
L 277.581998 102.793122 
L 278.351353 158.920963 
L 279.505385 245.839376 
L 279.890063 264.813185 
L 280.274741 276.860526 
L 280.659418 282.275088 
L 281.044096 282.057226 
L 281.428773 277.617723 
L 282.198129 262.078641 
L 282.967484 245.701501 
L 283.736839 233.863685 
L 284.121516 230.196716 
L 284.506194 228.055361 
L 284.890872 227.428799 
L 285.275549 228.345702 
L 285.660227 230.890002 
L 286.044904 235.180321 
L 286.429582 241.311898 
L 287.198937 258.786647 
L 288.35297 288.561691 
L 288.737647 293.987183 
L 289.122325 293.94779 
L 289.507002 286.588965 
L 289.89168 270.650932 
L 290.276358 245.887744 
L 291.045713 175.638295 
L 291.815068 100.22723 
L 292.199746 71.650646 
L 292.584423 54.517458 
L 292.969101 51.205949 
L 293.353778 62.182222 
L 293.738456 85.909211 
L 294.507811 157.557987 
L 295.277166 231.810701 
L 295.661844 260.348926 
L 296.046521 280.380897 
L 296.431199 291.571415 
L 296.815876 294.762299 
L 297.200554 291.58758 
L 297.585232 284.041953 
L 299.508619 237.096601 
L 300.277975 227.346784 
L 300.662652 224.453154 
L 301.04733 222.510934 
L 301.432007 221.259739 
L 301.816685 220.48475 
L 302.201363 220.022564 
L 302.970718 219.609513 
L 304.12475 219.469353 
L 309.125559 219.451189 
L 416.450603 219.521222 
L 417.219958 219.806753 
L 417.604636 220.181584 
L 417.989313 220.859206 
L 418.373991 221.993567 
L 418.758668 223.740263 
L 419.528023 229.257686 
L 420.297379 235.43536 
L 420.682056 236.778103 
L 421.066734 235.463444 
L 421.451411 230.618082 
L 421.836089 222.084346 
L 422.990122 188.011118 
L 423.374799 181.680366 
L 423.759477 181.123769 
L 424.144154 186.483883 
L 424.91351 208.51429 
L 425.682865 229.328042 
L 426.067542 234.86076 
L 426.45222 236.768462 
L 426.836897 235.826413 
L 427.606253 229.860218 
L 428.375608 224.133216 
L 428.760285 222.261981 
L 429.144963 221.026908 
L 429.52964 220.278245 
L 429.914318 219.858443 
L 430.683673 219.533205 
L 431.837706 219.45592 
L 446.070776 219.451189 
L 503.003058 219.527398 
L 503.387735 219.640569 
L 503.772413 219.894062 
L 504.15709 220.424876 
L 504.541768 221.461368 
L 504.926446 223.342247 
L 505.311123 226.499297 
L 505.695801 231.367176 
L 506.465156 246.718076 
L 507.234511 263.647187 
L 507.619189 267.023259 
L 508.003866 262.824703 
L 508.388544 248.697535 
L 508.773221 224.384991 
L 509.927254 130.763151 
L 510.311932 114.809509 
L 510.696609 115.175351 
L 511.081287 131.765694 
L 512.619997 249.522276 
L 513.004675 263.198265 
L 513.389352 267.012203 
L 513.77403 263.380681 
L 515.31274 231.118204 
L 515.697418 226.331163 
L 516.082095 223.238421 
L 516.466773 221.402246 
L 516.85145 220.393659 
L 517.236128 219.878717 
L 517.620806 219.633527 
L 518.390161 219.478855 
L 521.082904 219.451195 
L 531.853876 219.509241 
L 532.623231 219.694694 
L 533.007909 219.924657 
L 533.392586 220.340015 
L 533.777264 221.06143 
L 534.161941 222.264926 
L 534.546619 224.190572 
L 534.931297 227.140306 
L 535.315974 231.455738 
L 535.700652 237.466067 
L 536.470007 255.256193 
L 538.008717 298.442246 
L 538.393395 301.618125 
L 538.778072 297.126515 
L 539.16275 283.05532 
L 539.547427 258.560975 
L 540.316783 182.93187 
L 541.470815 62.213748 
L 541.855493 40.905408 
L 542.240171 35.618125 
L 542.624848 47.152124 
L 543.009526 73.768385 
L 543.778881 155.210171 
L 544.548236 238.21747 
L 544.932914 268.974313 
L 545.317591 289.545676 
L 545.702269 299.851121 
L 546.086946 301.199899 
L 546.471624 295.759014 
L 547.240979 274.209685 
L 548.010334 251.342847 
L 548.779689 234.992394 
L 549.164367 229.653075 
L 549.549044 225.891293 
L 549.933722 223.364827 
L 550.3184 221.742669 
L 550.703077 220.744805 
L 551.087755 220.155726 
L 551.472432 219.821552 
L 552.241788 219.543374 
L 553.780498 219.45498 
L 573.399054 219.451189 
L 620.329719 219.544863 
L 621.099074 219.771669 
L 621.483751 220.016261 
L 621.868429 220.415682 
L 622.253107 221.043982 
L 622.637784 221.994577 
L 623.022462 223.375215 
L 623.407139 225.295289 
L 624.176494 231.054215 
L 626.099882 249.617704 
L 626.48456 250.136643 
L 626.869237 247.895274 
L 627.253915 242.333353 
L 627.638593 233.245697 
L 628.407948 206.174797 
L 629.56198 162.495093 
L 629.946658 153.871606 
L 630.331336 150.485899 
L 630.716013 152.799706 
L 631.100691 160.496926 
L 631.870046 187.380253 
L 633.024079 231.13244 
L 633.408756 240.875171 
L 633.793434 247.105258 
L 634.178111 249.943699 
L 634.562789 249.895401 
L 634.947467 247.688856 
L 635.716822 239.909109 
L 636.486177 231.73704 
L 637.255532 225.72952 
L 638.024887 222.220625 
L 638.409565 221.196815 
L 638.794242 220.514957 
L 639.563597 219.809057 
L 640.332953 219.55706 
L 641.871663 219.45756 
L 654.950701 219.451189 
L 681.493453 219.501322 
L 682.262809 219.734947 
L 682.647486 220.067567 
L 683.032164 220.709363 
L 683.416841 221.860931 
L 683.801519 223.773217 
L 684.186196 226.691679 
L 684.955552 235.752266 
L 685.724907 245.509809 
L 686.109584 247.321075 
L 686.494262 244.68694 
L 686.878939 236.287214 
L 687.263617 222.01882 
L 688.41765 167.515345 
L 688.802327 158.186464 
L 689.187005 158.278005 
L 689.571682 167.766519 
L 690.341038 203.845349 
L 691.110393 236.499332 
L 691.49507 244.786013 
L 691.879748 247.322623 
L 692.264426 245.445474 
L 693.033781 235.653181 
L 693.803136 226.627072 
L 694.187813 223.72909 
L 694.572491 221.833364 
L 694.957169 220.693475 
L 695.341846 220.059071 
L 695.726524 219.730715 
L 696.495879 219.500464 
L 698.419267 219.451419 
L 839.595937 219.451189 
L 839.595937 219.451189 
" clip-path="url(#p4d6d27372d)" style="fill: none; stroke: #0000ff; stroke-width: 2; stroke-linecap: square"/>
   </g>
   <g id="line2d_14">
    <path d="M 52.160938 219.451189 
L 839.595937 219.451189 
" clip-path="url(#p4d6d27372d)" style="fill: none; stroke-dasharray: 0.5,0.825; stroke-dashoffset: 0; stroke: #000000; stroke-width: 0.5"/>
   </g>
   <g id="patch_54">
    <path d="M 52.160938 314.918125 
L 52.160938 22.318125 
" style="fill: none; stroke: #000000; stroke-width: 0.8; stroke-linejoin: miter; stroke-linecap: square"/>
   </g>
   <g id="patch_55">
    <path d="M 839.595937 314.918125 
L 839.595937 22.318125 
" style="fill: none; stroke: #000000; stroke-width: 0.8; stroke-linejoin: miter; stroke-linecap: square"/>
   </g>
   <g id="patch_56">
    <path d="M 52.160938 314.918125 
L 839.595937 314.918125 
" style="fill: none; stroke: #000000; stroke-width: 0.8; stroke-linejoin: miter; stroke-linecap: square"/>
   </g>
   <g id="patch_57">
    <path d="M 52.160938 22.318125 
L 839.595937 22.318125 
" style="fill: none; stroke: #000000; stroke-width: 0.8; stroke-linejoin: miter; stroke-linecap: square"/>
   </g>
   <g id="text_14">
    <!-- Symbolic Segments (Scale 4) -->
    <g transform="translate(358.070312 16.318125) scale(0.12 -0.12)">
     <defs>
      <path id="DejaVuSans-53" d="M 3425 4513 
L 3425 3897 
Q 3066 4069 2747 4153 
Q 2428 4238 2131 4238 
Q 1616 4238 1336 4038 
Q 1056 3838 1056 3469 
Q 1056 3159 1242 3001 
Q 1428 2844 1947 2747 
L 2328 2669 
Q 3034 2534 3370 2195 
Q 3706 1856 3706 1288 
Q 3706 609 3251 259 
Q 2797 -91 1919 -91 
Q 1588 -91 1214 -16 
Q 841 59 441 206 
L 441 856 
Q 825 641 1194 531 
Q 1563 422 1919 422 
Q 2459 422 2753 634 
Q 3047 847 3047 1241 
Q 3047 1584 2836 1778 
Q 2625 1972 2144 2069 
L 1759 2144 
Q 1053 2284 737 2584 
Q 422 2884 422 3419 
Q 422 4038 858 4394 
Q 1294 4750 2059 4750 
Q 2388 4750 2728 4690 
Q 3069 4631 3425 4513 
z
" transform="scale(0.015625)"/>
      <path id="DejaVuSans-6d" d="M 3328 2828 
Q 3544 3216 3844 3400 
Q 4144 3584 4550 3584 
Q 5097 3584 5394 3201 
Q 5691 2819 5691 2113 
L 5691 0 
L 5113 0 
L 5113 2094 
Q 5113 2597 4934 2840 
Q 4756 3084 4391 3084 
Q 3944 3084 3684 2787 
Q 3425 2491 3425 1978 
L 3425 0 
L 2847 0 
L 2847 2094 
Q 2847 2600 2669 2842 
Q 2491 3084 2119 3084 
Q 1678 3084 1418 2786 
Q 1159 2488 1159 1978 
L 1159 0 
L 581 0 
L 581 3500 
L 1159 3500 
L 1159 2956 
Q 1356 3278 1631 3431 
Q 1906 3584 2284 3584 
Q 2666 3584 2933 3390 
Q 3200 3197 3328 2828 
z
" transform="scale(0.015625)"/>
      <path id="DejaVuSans-62" d="M 3116 1747 
Q 3116 2381 2855 2742 
Q 2594 3103 2138 3103 
Q 1681 3103 1420 2742 
Q 1159 2381 1159 1747 
Q 1159 1113 1420 752 
Q 1681 391 2138 391 
Q 2594 391 2855 752 
Q 3116 1113 3116 1747 
z
M 1159 2969 
Q 1341 3281 1617 3432 
Q 1894 3584 2278 3584 
Q 2916 3584 3314 3078 
Q 3713 2572 3713 1747 
Q 3713 922 3314 415 
Q 2916 -91 2278 -91 
Q 1894 -91 1617 61 
Q 1341 213 1159 525 
L 1159 0 
L 581 0 
L 581 4863 
L 1159 4863 
L 1159 2969 
z
" transform="scale(0.015625)"/>
      <path id="DejaVuSans-6f" d="M 1959 3097 
Q 1497 3097 1228 2736 
Q 959 2375 959 1747 
Q 959 1119 1226 758 
Q 1494 397 1959 397 
Q 2419 397 2687 759 
Q 2956 1122 2956 1747 
Q 2956 2369 2687 2733 
Q 2419 3097 1959 3097 
z
M 1959 3584 
Q 2709 3584 3137 3096 
Q 3566 2609 3566 1747 
Q 3566 888 3137 398 
Q 2709 -91 1959 -91 
Q 1206 -91 779 398 
Q 353 888 353 1747 
Q 353 2609 779 3096 
Q 1206 3584 1959 3584 
z
" transform="scale(0.015625)"/>
      <path id="DejaVuSans-6c" d="M 603 4863 
L 1178 4863 
L 1178 0 
L 603 0 
L 603 4863 
z
" transform="scale(0.015625)"/>
      <path id="DejaVuSans-63" d="M 3122 3366 
L 3122 2828 
Q 2878 2963 2633 3030 
Q 2388 3097 2138 3097 
Q 1578 3097 1268 2742 
Q 959 2388 959 1747 
Q 959 1106 1268 751 
Q 1578 397 2138 397 
Q 2388 397 2633 464 
Q 2878 531 3122 666 
L 3122 134 
Q 2881 22 2623 -34 
Q 2366 -91 2075 -91 
Q 1284 -91 818 406 
Q 353 903 353 1747 
Q 353 2603 823 3093 
Q 1294 3584 2113 3584 
Q 2378 3584 2631 3529 
Q 2884 3475 3122 3366 
z
" transform="scale(0.015625)"/>
      <path id="DejaVuSans-67" d="M 2906 1791 
Q 2906 2416 2648 2759 
Q 2391 3103 1925 3103 
Q 1463 3103 1205 2759 
Q 947 2416 947 1791 
Q 947 1169 1205 825 
Q 1463 481 1925 481 
Q 2391 481 2648 825 
Q 2906 1169 2906 1791 
z
M 3481 434 
Q 3481 -459 3084 -895 
Q 2688 -1331 1869 -1331 
Q 1566 -1331 1297 -1286 
Q 1028 -1241 775 -1147 
L 775 -588 
Q 1028 -725 1275 -790 
Q 1522 -856 1778 -856 
Q 2344 -856 2625 -561 
Q 2906 -266 2906 331 
L 2906 616 
Q 2728 306 2450 153 
Q 2172 0 1784 0 
Q 1141 0 747 490 
Q 353 981 353 1791 
Q 353 2603 747 3093 
Q 1141 3584 1784 3584 
Q 2172 3584 2450 3431 
Q 2728 3278 2906 2969 
L 2906 3500 
L 3481 3500 
L 3481 434 
z
" transform="scale(0.015625)"/>
      <path id="DejaVuSans-28" d="M 1984 4856 
Q 1566 4138 1362 3434 
Q 1159 2731 1159 2009 
Q 1159 1288 1364 580 
Q 1569 -128 1984 -844 
L 1484 -844 
Q 1016 -109 783 600 
Q 550 1309 550 2009 
Q 550 2706 781 3412 
Q 1013 4119 1484 4856 
L 1984 4856 
z
" transform="scale(0.015625)"/>
      <path id="DejaVuSans-29" d="M 513 4856 
L 1013 4856 
Q 1481 4119 1714 3412 
Q 1947 2706 1947 2009 
Q 1947 1309 1714 600 
Q 1481 -109 1013 -844 
L 513 -844 
Q 928 -128 1133 580 
Q 1338 1288 1338 2009 
Q 1338 2731 1133 3434 
Q 928 4138 513 4856 
z
" transform="scale(0.015625)"/>
     </defs>
     <use xlink:href="#DejaVuSans-53"/>
     <use xlink:href="#DejaVuSans-79" transform="translate(63.476562 0)"/>
     <use xlink:href="#DejaVuSans-6d" transform="translate(122.65625 0)"/>
     <use xlink:href="#DejaVuSans-62" transform="translate(220.068359 0)"/>
     <use xlink:href="#DejaVuSans-6f" transform="translate(283.544922 0)"/>
     <use xlink:href="#DejaVuSans-6c" transform="translate(344.726562 0)"/>
     <use xlink:href="#DejaVuSans-69" transform="translate(372.509766 0)"/>
     <use xlink:href="#DejaVuSans-63" transform="translate(400.292969 0)"/>
     <use xlink:href="#DejaVuSans-20" transform="translate(455.273438 0)"/>
     <use xlink:href="#DejaVuSans-53" transform="translate(487.060547 0)"/>
     <use xlink:href="#DejaVuSans-65" transform="translate(550.537109 0)"/>
     <use xlink:href="#DejaVuSans-67" transform="translate(612.060547 0)"/>
     <use xlink:href="#DejaVuSans-6d" transform="translate(675.537109 0)"/>
     <use xlink:href="#DejaVuSans-65" transform="translate(772.949219 0)"/>
     <use xlink:href="#DejaVuSans-6e" transform="translate(834.472656 0)"/>
     <use xlink:href="#DejaVuSans-74" transform="translate(897.851562 0)"/>
     <use xlink:href="#DejaVuSans-73" transform="translate(937.060547 0)"/>
     <use xlink:href="#DejaVuSans-20" transform="translate(989.160156 0)"/>
     <use xlink:href="#DejaVuSans-28" transform="translate(1020.947266 0)"/>
     <use xlink:href="#DejaVuSans-53" transform="translate(1059.960938 0)"/>
     <use xlink:href="#DejaVuSans-63" transform="translate(1123.4375 0)"/>
     <use xlink:href="#DejaVuSans-61" transform="translate(1178.417969 0)"/>
     <use xlink:href="#DejaVuSans-6c" transform="translate(1239.697266 0)"/>
     <use xlink:href="#DejaVuSans-65" transform="translate(1267.480469 0)"/>
     <use xlink:href="#DejaVuSans-20" transform="translate(1329.003906 0)"/>
     <use xlink:href="#DejaVuSans-34" transform="translate(1360.791016 0)"/>
     <use xlink:href="#DejaVuSans-29" transform="translate(1424.414062 0)"/>
    </g>
   </g>
   <g id="legend_1">
    <g id="patch_58">
     <path d="M 727.567812 59.674375 
L 832.595937 59.674375 
Q 834.595937 59.674375 834.595937 57.674375 
L 834.595937 29.318125 
Q 834.595937 27.318125 832.595937 27.318125 
L 727.567812 27.318125 
Q 725.567812 27.318125 725.567812 29.318125 
L 725.567812 57.674375 
Q 725.567812 59.674375 727.567812 59.674375 
z
" style="fill: #ffffff; opacity: 0.8; stroke: #cccccc; stroke-linejoin: miter"/>
    </g>
    <g id="line2d_15">
     <path d="M 729.567812 35.416562 
L 739.567812 35.416562 
L 749.567812 35.416562 
" style="fill: none; stroke: #000000; stroke-width: 3; stroke-linecap: square"/>
    </g>
    <g id="text_15">
     <!-- Original Signal -->
     <g transform="translate(757.567812 38.916562) scale(0.1 -0.1)">
      <defs>
       <path id="DejaVuSans-4f" d="M 2522 4238 
Q 1834 4238 1429 3725 
Q 1025 3213 1025 2328 
Q 1025 1447 1429 934 
Q 1834 422 2522 422 
Q 3209 422 3611 934 
Q 4013 1447 4013 2328 
Q 4013 3213 3611 3725 
Q 3209 4238 2522 4238 
z
M 2522 4750 
Q 3503 4750 4090 4092 
Q 4678 3434 4678 2328 
Q 4678 1225 4090 567 
Q 3503 -91 2522 -91 
Q 1538 -91 948 565 
Q 359 1222 359 2328 
Q 359 3434 948 4092 
Q 1538 4750 2522 4750 
z
" transform="scale(0.015625)"/>
       <path id="DejaVuSans-72" d="M 2631 2963 
Q 2534 3019 2420 3045 
Q 2306 3072 2169 3072 
Q 1681 3072 1420 2755 
Q 1159 2438 1159 1844 
L 1159 0 
L 581 0 
L 581 3500 
L 1159 3500 
L 1159 2956 
Q 1341 3275 1631 3429 
Q 1922 3584 2338 3584 
Q 2397 3584 2469 3576 
Q 2541 3569 2628 3553 
L 2631 2963 
z
" transform="scale(0.015625)"/>
      </defs>
      <use xlink:href="#DejaVuSans-4f"/>
      <use xlink:href="#DejaVuSans-72" transform="translate(78.710938 0)"/>
      <use xlink:href="#DejaVuSans-69" transform="translate(119.824219 0)"/>
      <use xlink:href="#DejaVuSans-67" transform="translate(147.607422 0)"/>
      <use xlink:href="#DejaVuSans-69" transform="translate(211.083984 0)"/>
      <use xlink:href="#DejaVuSans-6e" transform="translate(238.867188 0)"/>
      <use xlink:href="#DejaVuSans-61" transform="translate(302.246094 0)"/>
      <use xlink:href="#DejaVuSans-6c" transform="translate(363.525391 0)"/>
      <use xlink:href="#DejaVuSans-20" transform="translate(391.308594 0)"/>
      <use xlink:href="#DejaVuSans-53" transform="translate(423.095703 0)"/>
      <use xlink:href="#DejaVuSans-69" transform="translate(486.572266 0)"/>
      <use xlink:href="#DejaVuSans-67" transform="translate(514.355469 0)"/>
      <use xlink:href="#DejaVuSans-6e" transform="translate(577.832031 0)"/>
      <use xlink:href="#DejaVuSans-61" transform="translate(641.210938 0)"/>
      <use xlink:href="#DejaVuSans-6c" transform="translate(702.490234 0)"/>
     </g>
    </g>
    <g id="line2d_16">
     <path d="M 729.567812 50.094687 
L 739.567812 50.094687 
L 749.567812 50.094687 
" style="fill: none; stroke: #0000ff; stroke-width: 2; stroke-linecap: square"/>
    </g>
    <g id="text_16">
     <!-- CWT Scale 4 -->
     <g transform="translate(757.567812 53.594687) scale(0.1 -0.1)">
      <defs>
       <path id="DejaVuSans-43" d="M 4122 4306 
L 4122 3641 
Q 3803 3938 3442 4084 
Q 3081 4231 2675 4231 
Q 1875 4231 1450 3742 
Q 1025 3253 1025 2328 
Q 1025 1406 1450 917 
Q 1875 428 2675 428 
Q 3081 428 3442 575 
Q 3803 722 4122 1019 
L 4122 359 
Q 3791 134 3420 21 
Q 3050 -91 2638 -91 
Q 1578 -91 968 557 
Q 359 1206 359 2328 
Q 359 3453 968 4101 
Q 1578 4750 2638 4750 
Q 3056 4750 3426 4639 
Q 3797 4528 4122 4306 
z
" transform="scale(0.015625)"/>
       <path id="DejaVuSans-57" d="M 213 4666 
L 850 4666 
L 1831 722 
L 2809 4666 
L 3519 4666 
L 4500 722 
L 5478 4666 
L 6119 4666 
L 4947 0 
L 4153 0 
L 3169 4050 
L 2175 0 
L 1381 0 
L 213 4666 
z
" transform="scale(0.015625)"/>
       <path id="DejaVuSans-54" d="M -19 4666 
L 3928 4666 
L 3928 4134 
L 2272 4134 
L 2272 0 
L 1638 0 
L 1638 4134 
L -19 4134 
L -19 4666 
z
" transform="scale(0.015625)"/>
      </defs>
      <use xlink:href="#DejaVuSans-43"/>
      <use xlink:href="#DejaVuSans-57" transform="translate(69.824219 0)"/>
      <use xlink:href="#DejaVuSans-54" transform="translate(168.701172 0)"/>
      <use xlink:href="#DejaVuSans-20" transform="translate(229.785156 0)"/>
      <use xlink:href="#DejaVuSans-53" transform="translate(261.572266 0)"/>
      <use xlink:href="#DejaVuSans-63" transform="translate(325.048828 0)"/>
      <use xlink:href="#DejaVuSans-61" transform="translate(380.029297 0)"/>
      <use xlink:href="#DejaVuSans-6c" transform="translate(441.308594 0)"/>
      <use xlink:href="#DejaVuSans-65" transform="translate(469.091797 0)"/>
      <use xlink:href="#DejaVuSans-20" transform="translate(530.615234 0)"/>
      <use xlink:href="#DejaVuSans-34" transform="translate(562.402344 0)"/>
     </g>
    </g>
   </g>
  </g>
 </g>
 <defs>
  <clipPath id="p4d6d27372d">
   <rect x="52.160938" y="22.318125" width="787.435" height="292.6"/>
  </clipPath>
 </defs>
</svg>
