<?xml version="1.0" encoding="utf-8" standalone="no"?>
<!DOCTYPE svg PUBLIC "-//W3C//DTD SVG 1.1//EN"
  "http://www.w3.org/Graphics/SVG/1.1/DTD/svg11.dtd">
<svg xmlns:xlink="http://www.w3.org/1999/xlink" width="512.553125pt" height="396.385625pt" viewBox="0 0 512.553125 396.385625" xmlns="http://www.w3.org/2000/svg" version="1.1">
 <metadata>
  <rdf:RDF xmlns:dc="http://purl.org/dc/elements/1.1/" xmlns:cc="http://creativecommons.org/ns#" xmlns:rdf="http://www.w3.org/1999/02/22-rdf-syntax-ns#">
   <cc:Work>
    <dc:type rdf:resource="http://purl.org/dc/dcmitype/StillImage"/>
    <dc:date>2025-06-02T20:48:00.143765</dc:date>
    <dc:format>image/svg+xml</dc:format>
    <dc:creator>
     <cc:Agent>
      <dc:title>Matplotlib v3.10.0, https://matplotlib.org/</dc:title>
     </cc:Agent>
    </dc:creator>
   </cc:Work>
  </rdf:RDF>
 </metadata>
 <defs>
  <style type="text/css">*{stroke-linejoin: round; stroke-linecap: butt}</style>
 </defs>
 <g id="figure_1">
  <g id="patch_1">
   <path d="M 0 396.385625 
L 512.553125 396.385625 
L 512.553125 0 
L 0 0 
z
" style="fill: #ffffff"/>
  </g>
  <g id="axes_1">
   <g id="patch_2">
    <path d="M 58.953125 354.958125 
L 505.353125 354.958125 
L 505.353125 22.318125 
L 58.953125 22.318125 
z
" style="fill: #ffffff"/>
   </g>
   <g id="matplotlib.axis_1">
    <g id="xtick_1">
     <g id="line2d_1">
      <defs>
       <path id="m6dfae54448" d="M 0 0 
L 0 3.5 
" style="stroke: #000000; stroke-width: 0.8"/>
      </defs>
      <g>
       <use xlink:href="#m6dfae54448" x="79.244034" y="354.958125" style="stroke: #000000; stroke-width: 0.8"/>
      </g>
     </g>
     <g id="text_1">
      <!-- 0 -->
      <g transform="translate(75.426534 371.07625) scale(0.12 -0.12)">
       <defs>
        <path id="DejaVuSans-30" d="M 2034 4250 
Q 1547 4250 1301 3770 
Q 1056 3291 1056 2328 
Q 1056 1369 1301 889 
Q 1547 409 2034 409 
Q 2525 409 2770 889 
Q 3016 1369 3016 2328 
Q 3016 3291 2770 3770 
Q 2525 4250 2034 4250 
z
M 2034 4750 
Q 2819 4750 3233 4129 
Q 3647 3509 3647 2328 
Q 3647 1150 3233 529 
Q 2819 -91 2034 -91 
Q 1250 -91 836 529 
Q 422 1150 422 2328 
Q 422 3509 836 4129 
Q 1250 4750 2034 4750 
z
" transform="scale(0.015625)"/>
       </defs>
       <use xlink:href="#DejaVuSans-30"/>
      </g>
     </g>
    </g>
    <g id="xtick_2">
     <g id="line2d_2">
      <g>
       <use xlink:href="#m6dfae54448" x="160.40767" y="354.958125" style="stroke: #000000; stroke-width: 0.8"/>
      </g>
     </g>
     <g id="text_2">
      <!-- 100 -->
      <g transform="translate(148.95517 371.07625) scale(0.12 -0.12)">
       <defs>
        <path id="DejaVuSans-31" d="M 794 531 
L 1825 531 
L 1825 4091 
L 703 3866 
L 703 4441 
L 1819 4666 
L 2450 4666 
L 2450 531 
L 3481 531 
L 3481 0 
L 794 0 
L 794 531 
z
" transform="scale(0.015625)"/>
       </defs>
       <use xlink:href="#DejaVuSans-31"/>
       <use xlink:href="#DejaVuSans-30" transform="translate(63.623047 0)"/>
       <use xlink:href="#DejaVuSans-30" transform="translate(127.246094 0)"/>
      </g>
     </g>
    </g>
    <g id="xtick_3">
     <g id="line2d_3">
      <g>
       <use xlink:href="#m6dfae54448" x="241.571307" y="354.958125" style="stroke: #000000; stroke-width: 0.8"/>
      </g>
     </g>
     <g id="text_3">
      <!-- 200 -->
      <g transform="translate(230.118807 371.07625) scale(0.12 -0.12)">
       <defs>
        <path id="DejaVuSans-32" d="M 1228 531 
L 3431 531 
L 3431 0 
L 469 0 
L 469 531 
Q 828 903 1448 1529 
Q 2069 2156 2228 2338 
Q 2531 2678 2651 2914 
Q 2772 3150 2772 3378 
Q 2772 3750 2511 3984 
Q 2250 4219 1831 4219 
Q 1534 4219 1204 4116 
Q 875 4013 500 3803 
L 500 4441 
Q 881 4594 1212 4672 
Q 1544 4750 1819 4750 
Q 2544 4750 2975 4387 
Q 3406 4025 3406 3419 
Q 3406 3131 3298 2873 
Q 3191 2616 2906 2266 
Q 2828 2175 2409 1742 
Q 1991 1309 1228 531 
z
" transform="scale(0.015625)"/>
       </defs>
       <use xlink:href="#DejaVuSans-32"/>
       <use xlink:href="#DejaVuSans-30" transform="translate(63.623047 0)"/>
       <use xlink:href="#DejaVuSans-30" transform="translate(127.246094 0)"/>
      </g>
     </g>
    </g>
    <g id="xtick_4">
     <g id="line2d_4">
      <g>
       <use xlink:href="#m6dfae54448" x="322.734943" y="354.958125" style="stroke: #000000; stroke-width: 0.8"/>
      </g>
     </g>
     <g id="text_4">
      <!-- 300 -->
      <g transform="translate(311.282443 371.07625) scale(0.12 -0.12)">
       <defs>
        <path id="DejaVuSans-33" d="M 2597 2516 
Q 3050 2419 3304 2112 
Q 3559 1806 3559 1356 
Q 3559 666 3084 287 
Q 2609 -91 1734 -91 
Q 1441 -91 1130 -33 
Q 819 25 488 141 
L 488 750 
Q 750 597 1062 519 
Q 1375 441 1716 441 
Q 2309 441 2620 675 
Q 2931 909 2931 1356 
Q 2931 1769 2642 2001 
Q 2353 2234 1838 2234 
L 1294 2234 
L 1294 2753 
L 1863 2753 
Q 2328 2753 2575 2939 
Q 2822 3125 2822 3475 
Q 2822 3834 2567 4026 
Q 2313 4219 1838 4219 
Q 1578 4219 1281 4162 
Q 984 4106 628 3988 
L 628 4550 
Q 988 4650 1302 4700 
Q 1616 4750 1894 4750 
Q 2613 4750 3031 4423 
Q 3450 4097 3450 3541 
Q 3450 3153 3228 2886 
Q 3006 2619 2597 2516 
z
" transform="scale(0.015625)"/>
       </defs>
       <use xlink:href="#DejaVuSans-33"/>
       <use xlink:href="#DejaVuSans-30" transform="translate(63.623047 0)"/>
       <use xlink:href="#DejaVuSans-30" transform="translate(127.246094 0)"/>
      </g>
     </g>
    </g>
    <g id="xtick_5">
     <g id="line2d_5">
      <g>
       <use xlink:href="#m6dfae54448" x="403.89858" y="354.958125" style="stroke: #000000; stroke-width: 0.8"/>
      </g>
     </g>
     <g id="text_5">
      <!-- 400 -->
      <g transform="translate(392.44608 371.07625) scale(0.12 -0.12)">
       <defs>
        <path id="DejaVuSans-34" d="M 2419 4116 
L 825 1625 
L 2419 1625 
L 2419 4116 
z
M 2253 4666 
L 3047 4666 
L 3047 1625 
L 3713 1625 
L 3713 1100 
L 3047 1100 
L 3047 0 
L 2419 0 
L 2419 1100 
L 313 1100 
L 313 1709 
L 2253 4666 
z
" transform="scale(0.015625)"/>
       </defs>
       <use xlink:href="#DejaVuSans-34"/>
       <use xlink:href="#DejaVuSans-30" transform="translate(63.623047 0)"/>
       <use xlink:href="#DejaVuSans-30" transform="translate(127.246094 0)"/>
      </g>
     </g>
    </g>
    <g id="xtick_6">
     <g id="line2d_6">
      <g>
       <use xlink:href="#m6dfae54448" x="485.062216" y="354.958125" style="stroke: #000000; stroke-width: 0.8"/>
      </g>
     </g>
     <g id="text_6">
      <!-- 500 -->
      <g transform="translate(473.609716 371.07625) scale(0.12 -0.12)">
       <defs>
        <path id="DejaVuSans-35" d="M 691 4666 
L 3169 4666 
L 3169 4134 
L 1269 4134 
L 1269 2991 
Q 1406 3038 1543 3061 
Q 1681 3084 1819 3084 
Q 2600 3084 3056 2656 
Q 3513 2228 3513 1497 
Q 3513 744 3044 326 
Q 2575 -91 1722 -91 
Q 1428 -91 1123 -41 
Q 819 9 494 109 
L 494 744 
Q 775 591 1075 516 
Q 1375 441 1709 441 
Q 2250 441 2565 725 
Q 2881 1009 2881 1497 
Q 2881 1984 2565 2268 
Q 2250 2553 1709 2553 
Q 1456 2553 1204 2497 
Q 953 2441 691 2322 
L 691 4666 
z
" transform="scale(0.015625)"/>
       </defs>
       <use xlink:href="#DejaVuSans-35"/>
       <use xlink:href="#DejaVuSans-30" transform="translate(63.623047 0)"/>
       <use xlink:href="#DejaVuSans-30" transform="translate(127.246094 0)"/>
      </g>
     </g>
    </g>
    <g id="text_7">
     <!-- index [-] -->
     <g transform="translate(256.983125 386.69) scale(0.12 -0.12)">
      <defs>
       <path id="DejaVuSans-69" d="M 603 3500 
L 1178 3500 
L 1178 0 
L 603 0 
L 603 3500 
z
M 603 4863 
L 1178 4863 
L 1178 4134 
L 603 4134 
L 603 4863 
z
" transform="scale(0.015625)"/>
       <path id="DejaVuSans-6e" d="M 3513 2113 
L 3513 0 
L 2938 0 
L 2938 2094 
Q 2938 2591 2744 2837 
Q 2550 3084 2163 3084 
Q 1697 3084 1428 2787 
Q 1159 2491 1159 1978 
L 1159 0 
L 581 0 
L 581 3500 
L 1159 3500 
L 1159 2956 
Q 1366 3272 1645 3428 
Q 1925 3584 2291 3584 
Q 2894 3584 3203 3211 
Q 3513 2838 3513 2113 
z
" transform="scale(0.015625)"/>
       <path id="DejaVuSans-64" d="M 2906 2969 
L 2906 4863 
L 3481 4863 
L 3481 0 
L 2906 0 
L 2906 525 
Q 2725 213 2448 61 
Q 2172 -91 1784 -91 
Q 1150 -91 751 415 
Q 353 922 353 1747 
Q 353 2572 751 3078 
Q 1150 3584 1784 3584 
Q 2172 3584 2448 3432 
Q 2725 3281 2906 2969 
z
M 947 1747 
Q 947 1113 1208 752 
Q 1469 391 1925 391 
Q 2381 391 2643 752 
Q 2906 1113 2906 1747 
Q 2906 2381 2643 2742 
Q 2381 3103 1925 3103 
Q 1469 3103 1208 2742 
Q 947 2381 947 1747 
z
" transform="scale(0.015625)"/>
       <path id="DejaVuSans-65" d="M 3597 1894 
L 3597 1613 
L 953 1613 
Q 991 1019 1311 708 
Q 1631 397 2203 397 
Q 2534 397 2845 478 
Q 3156 559 3463 722 
L 3463 178 
Q 3153 47 2828 -22 
Q 2503 -91 2169 -91 
Q 1331 -91 842 396 
Q 353 884 353 1716 
Q 353 2575 817 3079 
Q 1281 3584 2069 3584 
Q 2775 3584 3186 3129 
Q 3597 2675 3597 1894 
z
M 3022 2063 
Q 3016 2534 2758 2815 
Q 2500 3097 2075 3097 
Q 1594 3097 1305 2825 
Q 1016 2553 972 2059 
L 3022 2063 
z
" transform="scale(0.015625)"/>
       <path id="DejaVuSans-78" d="M 3513 3500 
L 2247 1797 
L 3578 0 
L 2900 0 
L 1881 1375 
L 863 0 
L 184 0 
L 1544 1831 
L 300 3500 
L 978 3500 
L 1906 2253 
L 2834 3500 
L 3513 3500 
z
" transform="scale(0.015625)"/>
       <path id="DejaVuSans-20" transform="scale(0.015625)"/>
       <path id="DejaVuSans-5b" d="M 550 4863 
L 1875 4863 
L 1875 4416 
L 1125 4416 
L 1125 -397 
L 1875 -397 
L 1875 -844 
L 550 -844 
L 550 4863 
z
" transform="scale(0.015625)"/>
       <path id="DejaVuSans-2d" d="M 313 2009 
L 1997 2009 
L 1997 1497 
L 313 1497 
L 313 2009 
z
" transform="scale(0.015625)"/>
       <path id="DejaVuSans-5d" d="M 1947 4863 
L 1947 -844 
L 622 -844 
L 622 -397 
L 1369 -397 
L 1369 4416 
L 622 4416 
L 622 4863 
L 1947 4863 
z
" transform="scale(0.015625)"/>
      </defs>
      <use xlink:href="#DejaVuSans-69"/>
      <use xlink:href="#DejaVuSans-6e" transform="translate(27.783203 0)"/>
      <use xlink:href="#DejaVuSans-64" transform="translate(91.162109 0)"/>
      <use xlink:href="#DejaVuSans-65" transform="translate(154.638672 0)"/>
      <use xlink:href="#DejaVuSans-78" transform="translate(214.412109 0)"/>
      <use xlink:href="#DejaVuSans-20" transform="translate(273.591797 0)"/>
      <use xlink:href="#DejaVuSans-5b" transform="translate(305.378906 0)"/>
      <use xlink:href="#DejaVuSans-2d" transform="translate(344.392578 0)"/>
      <use xlink:href="#DejaVuSans-5d" transform="translate(380.476562 0)"/>
     </g>
    </g>
   </g>
   <g id="matplotlib.axis_2">
    <g id="ytick_1">
     <g id="line2d_7">
      <defs>
       <path id="m926a29e969" d="M 0 0 
L -3.5 0 
" style="stroke: #000000; stroke-width: 0.8"/>
      </defs>
      <g>
       <use xlink:href="#m926a29e969" x="58.953125" y="350.776347" style="stroke: #000000; stroke-width: 0.8"/>
      </g>
     </g>
     <g id="text_8">
      <!-- −0.6 -->
      <g transform="translate(22.81375 355.335409) scale(0.12 -0.12)">
       <defs>
        <path id="DejaVuSans-2212" d="M 678 2272 
L 4684 2272 
L 4684 1741 
L 678 1741 
L 678 2272 
z
" transform="scale(0.015625)"/>
        <path id="DejaVuSans-2e" d="M 684 794 
L 1344 794 
L 1344 0 
L 684 0 
L 684 794 
z
" transform="scale(0.015625)"/>
        <path id="DejaVuSans-36" d="M 2113 2584 
Q 1688 2584 1439 2293 
Q 1191 2003 1191 1497 
Q 1191 994 1439 701 
Q 1688 409 2113 409 
Q 2538 409 2786 701 
Q 3034 994 3034 1497 
Q 3034 2003 2786 2293 
Q 2538 2584 2113 2584 
z
M 3366 4563 
L 3366 3988 
Q 3128 4100 2886 4159 
Q 2644 4219 2406 4219 
Q 1781 4219 1451 3797 
Q 1122 3375 1075 2522 
Q 1259 2794 1537 2939 
Q 1816 3084 2150 3084 
Q 2853 3084 3261 2657 
Q 3669 2231 3669 1497 
Q 3669 778 3244 343 
Q 2819 -91 2113 -91 
Q 1303 -91 875 529 
Q 447 1150 447 2328 
Q 447 3434 972 4092 
Q 1497 4750 2381 4750 
Q 2619 4750 2861 4703 
Q 3103 4656 3366 4563 
z
" transform="scale(0.015625)"/>
       </defs>
       <use xlink:href="#DejaVuSans-2212"/>
       <use xlink:href="#DejaVuSans-30" transform="translate(83.789062 0)"/>
       <use xlink:href="#DejaVuSans-2e" transform="translate(147.412109 0)"/>
       <use xlink:href="#DejaVuSans-36" transform="translate(179.199219 0)"/>
      </g>
     </g>
    </g>
    <g id="ytick_2">
     <g id="line2d_8">
      <g>
       <use xlink:href="#m926a29e969" x="58.953125" y="307.398931" style="stroke: #000000; stroke-width: 0.8"/>
      </g>
     </g>
     <g id="text_9">
      <!-- −0.4 -->
      <g transform="translate(22.81375 311.957993) scale(0.12 -0.12)">
       <use xlink:href="#DejaVuSans-2212"/>
       <use xlink:href="#DejaVuSans-30" transform="translate(83.789062 0)"/>
       <use xlink:href="#DejaVuSans-2e" transform="translate(147.412109 0)"/>
       <use xlink:href="#DejaVuSans-34" transform="translate(179.199219 0)"/>
      </g>
     </g>
    </g>
    <g id="ytick_3">
     <g id="line2d_9">
      <g>
       <use xlink:href="#m926a29e969" x="58.953125" y="264.021515" style="stroke: #000000; stroke-width: 0.8"/>
      </g>
     </g>
     <g id="text_10">
      <!-- −0.2 -->
      <g transform="translate(22.81375 268.580577) scale(0.12 -0.12)">
       <use xlink:href="#DejaVuSans-2212"/>
       <use xlink:href="#DejaVuSans-30" transform="translate(83.789062 0)"/>
       <use xlink:href="#DejaVuSans-2e" transform="translate(147.412109 0)"/>
       <use xlink:href="#DejaVuSans-32" transform="translate(179.199219 0)"/>
      </g>
     </g>
    </g>
    <g id="ytick_4">
     <g id="line2d_10">
      <g>
       <use xlink:href="#m926a29e969" x="58.953125" y="220.644099" style="stroke: #000000; stroke-width: 0.8"/>
      </g>
     </g>
     <g id="text_11">
      <!-- 0.0 -->
      <g transform="translate(32.869375 225.203161) scale(0.12 -0.12)">
       <use xlink:href="#DejaVuSans-30"/>
       <use xlink:href="#DejaVuSans-2e" transform="translate(63.623047 0)"/>
       <use xlink:href="#DejaVuSans-30" transform="translate(95.410156 0)"/>
      </g>
     </g>
    </g>
    <g id="ytick_5">
     <g id="line2d_11">
      <g>
       <use xlink:href="#m926a29e969" x="58.953125" y="177.266683" style="stroke: #000000; stroke-width: 0.8"/>
      </g>
     </g>
     <g id="text_12">
      <!-- 0.2 -->
      <g transform="translate(32.869375 181.825746) scale(0.12 -0.12)">
       <use xlink:href="#DejaVuSans-30"/>
       <use xlink:href="#DejaVuSans-2e" transform="translate(63.623047 0)"/>
       <use xlink:href="#DejaVuSans-32" transform="translate(95.410156 0)"/>
      </g>
     </g>
    </g>
    <g id="ytick_6">
     <g id="line2d_12">
      <g>
       <use xlink:href="#m926a29e969" x="58.953125" y="133.889267" style="stroke: #000000; stroke-width: 0.8"/>
      </g>
     </g>
     <g id="text_13">
      <!-- 0.4 -->
      <g transform="translate(32.869375 138.44833) scale(0.12 -0.12)">
       <use xlink:href="#DejaVuSans-30"/>
       <use xlink:href="#DejaVuSans-2e" transform="translate(63.623047 0)"/>
       <use xlink:href="#DejaVuSans-34" transform="translate(95.410156 0)"/>
      </g>
     </g>
    </g>
    <g id="ytick_7">
     <g id="line2d_13">
      <g>
       <use xlink:href="#m926a29e969" x="58.953125" y="90.511851" style="stroke: #000000; stroke-width: 0.8"/>
      </g>
     </g>
     <g id="text_14">
      <!-- 0.6 -->
      <g transform="translate(32.869375 95.070914) scale(0.12 -0.12)">
       <use xlink:href="#DejaVuSans-30"/>
       <use xlink:href="#DejaVuSans-2e" transform="translate(63.623047 0)"/>
       <use xlink:href="#DejaVuSans-36" transform="translate(95.410156 0)"/>
      </g>
     </g>
    </g>
    <g id="ytick_8">
     <g id="line2d_14">
      <g>
       <use xlink:href="#m926a29e969" x="58.953125" y="47.134436" style="stroke: #000000; stroke-width: 0.8"/>
      </g>
     </g>
     <g id="text_15">
      <!-- 0.8 -->
      <g transform="translate(32.869375 51.693498) scale(0.12 -0.12)">
       <defs>
        <path id="DejaVuSans-38" d="M 2034 2216 
Q 1584 2216 1326 1975 
Q 1069 1734 1069 1313 
Q 1069 891 1326 650 
Q 1584 409 2034 409 
Q 2484 409 2743 651 
Q 3003 894 3003 1313 
Q 3003 1734 2745 1975 
Q 2488 2216 2034 2216 
z
M 1403 2484 
Q 997 2584 770 2862 
Q 544 3141 544 3541 
Q 544 4100 942 4425 
Q 1341 4750 2034 4750 
Q 2731 4750 3128 4425 
Q 3525 4100 3525 3541 
Q 3525 3141 3298 2862 
Q 3072 2584 2669 2484 
Q 3125 2378 3379 2068 
Q 3634 1759 3634 1313 
Q 3634 634 3220 271 
Q 2806 -91 2034 -91 
Q 1263 -91 848 271 
Q 434 634 434 1313 
Q 434 1759 690 2068 
Q 947 2378 1403 2484 
z
M 1172 3481 
Q 1172 3119 1398 2916 
Q 1625 2713 2034 2713 
Q 2441 2713 2670 2916 
Q 2900 3119 2900 3481 
Q 2900 3844 2670 4047 
Q 2441 4250 2034 4250 
Q 1625 4250 1398 4047 
Q 1172 3844 1172 3481 
z
" transform="scale(0.015625)"/>
       </defs>
       <use xlink:href="#DejaVuSans-30"/>
       <use xlink:href="#DejaVuSans-2e" transform="translate(63.623047 0)"/>
       <use xlink:href="#DejaVuSans-38" transform="translate(95.410156 0)"/>
      </g>
     </g>
    </g>
    <g id="text_16">
     <!-- intensity [a.u.] -->
     <g transform="translate(16.318125 232.531875) rotate(-90) scale(0.12 -0.12)">
      <defs>
       <path id="DejaVuSans-74" d="M 1172 4494 
L 1172 3500 
L 2356 3500 
L 2356 3053 
L 1172 3053 
L 1172 1153 
Q 1172 725 1289 603 
Q 1406 481 1766 481 
L 2356 481 
L 2356 0 
L 1766 0 
Q 1100 0 847 248 
Q 594 497 594 1153 
L 594 3053 
L 172 3053 
L 172 3500 
L 594 3500 
L 594 4494 
L 1172 4494 
z
" transform="scale(0.015625)"/>
       <path id="DejaVuSans-73" d="M 2834 3397 
L 2834 2853 
Q 2591 2978 2328 3040 
Q 2066 3103 1784 3103 
Q 1356 3103 1142 2972 
Q 928 2841 928 2578 
Q 928 2378 1081 2264 
Q 1234 2150 1697 2047 
L 1894 2003 
Q 2506 1872 2764 1633 
Q 3022 1394 3022 966 
Q 3022 478 2636 193 
Q 2250 -91 1575 -91 
Q 1294 -91 989 -36 
Q 684 19 347 128 
L 347 722 
Q 666 556 975 473 
Q 1284 391 1588 391 
Q 1994 391 2212 530 
Q 2431 669 2431 922 
Q 2431 1156 2273 1281 
Q 2116 1406 1581 1522 
L 1381 1569 
Q 847 1681 609 1914 
Q 372 2147 372 2553 
Q 372 3047 722 3315 
Q 1072 3584 1716 3584 
Q 2034 3584 2315 3537 
Q 2597 3491 2834 3397 
z
" transform="scale(0.015625)"/>
       <path id="DejaVuSans-79" d="M 2059 -325 
Q 1816 -950 1584 -1140 
Q 1353 -1331 966 -1331 
L 506 -1331 
L 506 -850 
L 844 -850 
Q 1081 -850 1212 -737 
Q 1344 -625 1503 -206 
L 1606 56 
L 191 3500 
L 800 3500 
L 1894 763 
L 2988 3500 
L 3597 3500 
L 2059 -325 
z
" transform="scale(0.015625)"/>
       <path id="DejaVuSans-61" d="M 2194 1759 
Q 1497 1759 1228 1600 
Q 959 1441 959 1056 
Q 959 750 1161 570 
Q 1363 391 1709 391 
Q 2188 391 2477 730 
Q 2766 1069 2766 1631 
L 2766 1759 
L 2194 1759 
z
M 3341 1997 
L 3341 0 
L 2766 0 
L 2766 531 
Q 2569 213 2275 61 
Q 1981 -91 1556 -91 
Q 1019 -91 701 211 
Q 384 513 384 1019 
Q 384 1609 779 1909 
Q 1175 2209 1959 2209 
L 2766 2209 
L 2766 2266 
Q 2766 2663 2505 2880 
Q 2244 3097 1772 3097 
Q 1472 3097 1187 3025 
Q 903 2953 641 2809 
L 641 3341 
Q 956 3463 1253 3523 
Q 1550 3584 1831 3584 
Q 2591 3584 2966 3190 
Q 3341 2797 3341 1997 
z
" transform="scale(0.015625)"/>
       <path id="DejaVuSans-75" d="M 544 1381 
L 544 3500 
L 1119 3500 
L 1119 1403 
Q 1119 906 1312 657 
Q 1506 409 1894 409 
Q 2359 409 2629 706 
Q 2900 1003 2900 1516 
L 2900 3500 
L 3475 3500 
L 3475 0 
L 2900 0 
L 2900 538 
Q 2691 219 2414 64 
Q 2138 -91 1772 -91 
Q 1169 -91 856 284 
Q 544 659 544 1381 
z
M 1991 3584 
L 1991 3584 
z
" transform="scale(0.015625)"/>
      </defs>
      <use xlink:href="#DejaVuSans-69"/>
      <use xlink:href="#DejaVuSans-6e" transform="translate(27.783203 0)"/>
      <use xlink:href="#DejaVuSans-74" transform="translate(91.162109 0)"/>
      <use xlink:href="#DejaVuSans-65" transform="translate(130.371094 0)"/>
      <use xlink:href="#DejaVuSans-6e" transform="translate(191.894531 0)"/>
      <use xlink:href="#DejaVuSans-73" transform="translate(255.273438 0)"/>
      <use xlink:href="#DejaVuSans-69" transform="translate(307.373047 0)"/>
      <use xlink:href="#DejaVuSans-74" transform="translate(335.15625 0)"/>
      <use xlink:href="#DejaVuSans-79" transform="translate(374.365234 0)"/>
      <use xlink:href="#DejaVuSans-20" transform="translate(433.544922 0)"/>
      <use xlink:href="#DejaVuSans-5b" transform="translate(465.332031 0)"/>
      <use xlink:href="#DejaVuSans-61" transform="translate(504.345703 0)"/>
      <use xlink:href="#DejaVuSans-2e" transform="translate(565.625 0)"/>
      <use xlink:href="#DejaVuSans-75" transform="translate(597.412109 0)"/>
      <use xlink:href="#DejaVuSans-2e" transform="translate(660.791016 0)"/>
      <use xlink:href="#DejaVuSans-5d" transform="translate(692.578125 0)"/>
     </g>
    </g>
   </g>
   <g id="line2d_15">
    <path d="M 79.244034 220.644099 
L 93.525026 220.677643 
L 93.92172 221.01222 
L 94.318414 222.384167 
L 94.715108 223.234 
L 95.508497 214.535667 
L 95.905191 219.748091 
L 96.301885 223.391453 
L 97.095274 220.892905 
L 97.491968 220.663397 
L 100.268827 220.644099 
L 131.60767 220.665348 
L 132.004365 220.817638 
L 132.401059 221.540133 
L 133.194447 225.188946 
L 133.591142 222.274407 
L 133.987836 214.162024 
L 134.38453 210.572156 
L 135.177918 223.980284 
L 135.574613 224.895616 
L 135.971307 222.697702 
L 136.368001 221.196419 
L 136.764695 220.734807 
L 137.558084 220.644736 
L 149.45891 220.651476 
L 149.855604 220.872463 
L 150.252299 223.387547 
L 150.648993 231.617437 
L 151.045687 225.347247 
L 151.442381 194.75791 
L 151.839075 207.952136 
L 152.23577 232.899498 
L 153.029158 221.564106 
L 153.425852 220.68851 
L 154.615935 220.644099 
L 168.896927 220.692151 
L 169.293621 220.832199 
L 169.690315 221.177987 
L 170.087009 221.692587 
L 170.483704 221.899307 
L 170.880398 221.055873 
L 171.673786 217.847755 
L 172.07048 218.346746 
L 172.863869 221.638513 
L 173.260563 221.887188 
L 174.053951 220.975148 
L 174.450646 220.742661 
L 175.244034 220.647601 
L 178.417588 220.684674 
L 178.814282 220.786296 
L 179.210976 221.049749 
L 179.60767 221.572126 
L 180.401059 222.819478 
L 180.797753 222.381904 
L 181.194447 220.512218 
L 181.591142 217.809578 
L 181.987836 215.912818 
L 182.38453 216.198225 
L 183.574613 222.614417 
L 183.971307 222.754578 
L 185.161389 220.965072 
L 185.558084 220.750826 
L 186.351472 220.650551 
L 191.111803 220.667438 
L 191.508497 220.738634 
L 191.905191 220.954964 
L 192.301885 221.464166 
L 193.095274 223.303632 
L 193.491968 223.46723 
L 193.888662 221.826572 
L 194.682051 215.076198 
L 195.078745 214.16539 
L 195.475439 216.406956 
L 196.268827 222.827026 
L 196.665522 223.569 
L 197.062216 222.907104 
L 197.855604 221.188333 
L 198.252299 220.83017 
L 199.045687 220.657607 
L 199.839075 220.706135 
L 200.23577 220.887669 
L 200.632464 221.397646 
L 201.029158 222.436733 
L 201.425852 223.79848 
L 201.822546 224.370428 
L 202.219241 222.535272 
L 203.012629 213.446779 
L 203.409323 212.42162 
L 203.806018 215.85716 
L 204.202712 220.859628 
L 204.599406 223.96032 
L 204.9961 224.240376 
L 205.789489 221.769912 
L 206.186183 221.048736 
L 206.582877 220.757231 
L 207.376265 220.648482 
L 219.277092 220.644099 
L 268.863869 220.650429 
L 269.260563 220.843208 
L 270.053951 224.091606 
L 270.450646 215.708317 
L 270.84734 214.52005 
L 271.244034 223.697517 
L 271.640728 222.857617 
L 272.037423 220.920184 
L 272.434117 220.654025 
L 277.194447 220.644099 
L 313.690315 220.659242 
L 314.087009 221.216035 
L 314.880398 230.387064 
L 315.277092 202.981675 
L 315.673786 206.412232 
L 316.07048 231.148809 
L 316.863869 221.072824 
L 317.260563 220.654642 
L 321.624199 220.644099 
L 328.368001 220.67939 
L 328.764695 220.815303 
L 329.161389 221.276378 
L 329.558084 222.387347 
L 329.954778 224.097865 
L 330.351472 225.116264 
L 330.748166 223.120088 
L 331.541555 211.790646 
L 331.938249 211.18122 
L 333.128332 225.030425 
L 333.525026 224.404732 
L 334.318414 221.429205 
L 334.715108 220.868955 
L 335.111803 220.693033 
L 336.301885 220.644207 
L 373.987836 220.712284 
L 374.38453 220.864328 
L 374.781224 221.201221 
L 375.574613 222.119971 
L 375.971307 221.821073 
L 376.368001 220.433652 
L 376.764695 218.487173 
L 377.161389 217.332214 
L 377.558084 217.910459 
L 378.351472 221.444587 
L 378.748166 222.123912 
L 379.144861 221.900002 
L 379.938249 220.961091 
L 380.334943 220.751292 
L 381.128332 220.65027 
L 389.855604 220.644099 
L 405.723373 220.663445 
L 406.120067 221.177661 
L 406.516761 224.715164 
L 406.913456 225.09163 
L 407.31015 208.985344 
L 407.706844 214.486602 
L 408.103538 226.690509 
L 408.500232 223.109622 
L 408.896927 220.870177 
L 409.293621 220.650554 
L 416.434117 220.644099 
L 485.062216 220.644099 
L 485.062216 220.644099 
" clip-path="url(#p16a0e335a3)" style="fill: none; stroke: #1f77b4; stroke-width: 2; stroke-linecap: square"/>
   </g>
   <g id="line2d_16">
    <path d="M 79.244034 220.644099 
L 92.731637 220.654555 
L 93.128332 220.770088 
L 93.525026 221.555196 
L 93.92172 224.428083 
L 94.318414 228.725754 
L 94.715108 225.819266 
L 95.111803 210.493531 
L 95.508497 201.634706 
L 96.301885 227.426576 
L 96.69858 228.114001 
L 97.095274 223.682073 
L 97.491968 221.298102 
L 97.888662 220.725638 
L 98.682051 220.64438 
L 131.210976 220.71408 
L 131.60767 221.112938 
L 132.004365 222.853297 
L 132.401059 227.767129 
L 132.797753 235.466529 
L 133.194447 237.339188 
L 133.591142 220.972716 
L 133.987836 192.612139 
L 134.38453 181.578391 
L 134.781224 201.36625 
L 135.177918 228.484326 
L 135.574613 238.300771 
L 135.971307 233.019014 
L 136.368001 225.740349 
L 136.764695 222.02896 
L 137.161389 220.903664 
L 137.558084 220.678405 
L 139.144861 220.644099 
L 149.062216 220.713299 
L 149.45891 221.532004 
L 149.855604 226.922574 
L 150.252299 243.451798 
L 150.648993 254.610274 
L 151.045687 211.127483 
L 151.442381 146.784981 
L 151.839075 171.351391 
L 152.23577 240.166716 
L 152.632464 253.320916 
L 153.029158 234.182235 
L 153.425852 223.276048 
L 153.822546 220.914541 
L 154.219241 220.659473 
L 157.392794 220.644099 
L 168.103538 220.669724 
L 168.500232 220.771169 
L 168.896927 221.136212 
L 169.293621 222.111457 
L 170.087009 225.872069 
L 170.483704 225.695128 
L 170.880398 221.162397 
L 171.277092 213.546531 
L 171.673786 208.372336 
L 172.07048 210.23098 
L 172.863869 224.002765 
L 173.260563 226.236973 
L 173.657257 225.003537 
L 174.053951 222.929597 
L 174.450646 221.523444 
L 174.84734 220.901474 
L 175.244034 220.702482 
L 176.434117 220.644392 
L 178.020894 220.753902 
L 178.417588 221.032148 
L 178.814282 221.791224 
L 179.210976 223.453285 
L 180.004365 229.504076 
L 180.401059 230.988523 
L 180.797753 227.675471 
L 181.194447 218.355233 
L 181.591142 206.256043 
L 181.987836 198.157133 
L 182.38453 199.363388 
L 183.574613 229.040135 
L 183.971307 230.97068 
L 184.368001 228.780934 
L 185.161389 222.948357 
L 185.558084 221.541041 
L 185.954778 220.933973 
L 186.351472 220.722554 
L 187.541555 220.644663 
L 190.715108 220.707703 
L 191.111803 220.899093 
L 191.508497 221.497047 
L 191.905191 223.005586 
L 192.301885 225.987304 
L 193.095274 233.981693 
L 193.491968 233.025898 
L 193.888662 223.986777 
L 194.682051 193.950883 
L 195.078745 190.149374 
L 195.475439 199.583818 
L 196.268827 229.128268 
L 196.665522 234.327009 
L 197.062216 232.639314 
L 197.855604 224.438554 
L 198.252299 222.170886 
L 198.648993 221.154632 
L 199.045687 220.817476 
L 199.442381 220.84222 
L 199.839075 221.301018 
L 200.23577 222.715818 
L 200.632464 225.936121 
L 201.425852 236.717108 
L 201.822546 236.927844 
L 202.219241 226.30593 
L 203.012629 186.882858 
L 203.409323 182.763952 
L 203.806018 196.753186 
L 204.202712 218.376684 
L 204.599406 233.916039 
L 204.9961 237.852724 
L 205.392794 233.827913 
L 205.789489 227.98779 
L 206.186183 223.811732 
L 206.582877 221.732487 
L 206.979571 220.946602 
L 207.376265 220.712749 
L 208.566348 220.64435 
L 268.467175 220.700512 
L 268.863869 221.282426 
L 269.260563 224.237755 
L 269.657257 229.436781 
L 270.053951 224.472623 
L 270.450646 205.069667 
L 270.84734 203.201753 
L 271.244034 222.543375 
L 271.640728 229.754908 
L 272.037423 224.843948 
L 272.434117 221.45729 
L 272.830811 220.721548 
L 273.624199 220.6442 
L 312.896927 220.65097 
L 313.293621 220.80482 
L 313.690315 222.550056 
L 314.087009 231.515003 
L 314.483704 246.273486 
L 314.880398 227.732231 
L 315.277092 171.591481 
L 315.673786 176.526582 
L 316.07048 232.493327 
L 316.467175 245.230237 
L 316.863869 230.050451 
L 317.260563 222.182479 
L 317.657257 220.766884 
L 318.450646 220.644206 
L 327.971307 220.741776 
L 328.368001 221.097809 
L 328.764695 222.320466 
L 329.161389 225.510571 
L 329.954778 238.50868 
L 330.351472 239.9355 
L 330.748166 227.829193 
L 331.541555 180.343454 
L 331.938249 177.993835 
L 332.334943 197.898243 
L 332.731637 223.838756 
L 333.128332 238.835066 
L 333.525026 239.458836 
L 334.318414 226.431962 
L 334.715108 222.738411 
L 335.111803 221.238036 
L 335.508497 220.777921 
L 336.301885 220.647614 
L 350.582877 220.644099 
L 373.194447 220.689648 
L 373.591142 220.826874 
L 373.987836 221.246748 
L 374.38453 222.260535 
L 375.574613 227.554019 
L 375.971307 225.19503 
L 377.161389 205.273637 
L 377.558084 207.635903 
L 378.351472 223.219837 
L 378.748166 227.208781 
L 379.144861 227.071239 
L 379.938249 222.830058 
L 380.334943 221.52646 
L 380.731637 220.932582 
L 381.128332 220.721416 
L 382.318414 220.644581 
L 404.929985 220.651523 
L 405.326679 220.79265 
L 405.723373 222.170133 
L 406.516761 235.829875 
L 406.913456 221.054712 
L 407.31015 189.881144 
L 407.706844 198.25007 
L 408.103538 229.495764 
L 408.500232 234.279614 
L 408.896927 225.588278 
L 409.293621 221.444833 
L 409.690315 220.709506 
L 410.483704 220.644165 
L 485.062216 220.644099 
L 485.062216 220.644099 
" clip-path="url(#p16a0e335a3)" style="fill: none; stroke: #ff7f0e; stroke-width: 2; stroke-linecap: square"/>
   </g>
   <g id="line2d_17">
    <path d="M 79.244034 220.644099 
L 91.541555 220.692056 
L 91.938249 220.872828 
L 92.334943 221.518472 
L 92.731637 223.294415 
L 93.128332 226.899649 
L 93.525026 231.749959 
L 93.92172 234.291891 
L 94.318414 228.962961 
L 95.111803 196.753518 
L 95.508497 190.097871 
L 95.905191 199.52132 
L 96.69858 230.746949 
L 97.095274 234.254969 
L 97.491968 230.868521 
L 97.888662 226.082833 
L 98.285356 222.838763 
L 98.682051 221.336575 
L 99.078745 220.817751 
L 99.872133 220.649783 
L 108.9961 220.644099 
L 129.624199 220.672375 
L 130.020894 220.784745 
L 130.417588 221.229697 
L 130.814282 222.674328 
L 131.210976 226.459753 
L 131.60767 234.241493 
L 132.401059 256.977547 
L 132.797753 256.128269 
L 133.194447 233.015171 
L 133.987836 148.67543 
L 134.38453 135.562242 
L 134.781224 160.077693 
L 135.574613 243.165273 
L 135.971307 258.499521 
L 136.368001 254.140363 
L 137.161389 231.215121 
L 137.558084 224.865574 
L 137.954778 222.025824 
L 138.351472 221.018646 
L 138.748166 220.728753 
L 139.541555 220.646649 
L 147.475439 220.698119 
L 147.872133 220.955726 
L 148.268827 222.073377 
L 148.665522 225.809354 
L 149.062216 235.140763 
L 149.855604 267.447098 
L 150.252299 263.743773 
L 150.648993 222.872718 
L 151.045687 157.240796 
L 151.442381 113.039597 
L 151.839075 128.024537 
L 152.632464 247.15412 
L 153.029158 269.517632 
L 153.425852 260.908614 
L 154.219241 229.793868 
L 154.615935 223.519034 
L 155.012629 221.350314 
L 155.409323 220.781266 
L 156.202712 220.646726 
L 166.913456 220.682148 
L 167.31015 220.789312 
L 167.706844 221.12189 
L 168.103538 221.992829 
L 168.500232 223.887278 
L 168.896927 227.213677 
L 169.690315 235.299761 
L 170.087009 234.772425 
L 170.483704 226.955389 
L 171.277092 196.15717 
L 171.673786 187.069123 
L 172.07048 190.237414 
L 173.260563 231.857203 
L 173.657257 235.80596 
L 174.053951 233.773087 
L 174.84734 225.370226 
L 175.244034 222.780902 
L 175.640728 221.464364 
L 176.037423 220.920665 
L 176.434117 220.754305 
L 176.830811 220.787936 
L 177.227505 221.05129 
L 177.624199 221.795325 
L 178.020894 223.546553 
L 178.417588 227.085845 
L 178.814282 233.128331 
L 179.60767 250.117883 
L 180.004365 254.288699 
L 180.401059 248.17659 
L 180.797753 228.258257 
L 181.591142 165.785873 
L 181.987836 146.916336 
L 182.38453 149.657181 
L 182.781224 172.687478 
L 183.574613 234.286409 
L 183.971307 250.866009 
L 184.368001 254.025833 
L 184.764695 248.251916 
L 185.558084 231.428442 
L 185.954778 226.022559 
L 186.351472 222.990906 
L 186.748166 221.546138 
L 187.144861 220.950956 
L 187.541555 220.736819 
L 188.334943 220.651014 
L 189.525026 220.724277 
L 189.92172 220.923464 
L 190.318414 221.507239 
L 190.715108 223.000269 
L 191.111803 226.301709 
L 191.508497 232.518122 
L 192.69858 263.229129 
L 193.095274 262.310284 
L 193.491968 244.305772 
L 194.682051 131.374009 
L 195.078745 122.997482 
L 195.475439 144.21317 
L 196.665522 254.798541 
L 197.062216 264.526391 
L 197.45891 259.861735 
L 198.252299 237.636232 
L 198.648993 229.96693 
L 199.045687 226.530813 
L 199.442381 227.39006 
L 199.839075 232.915927 
L 200.23577 243.474558 
L 201.029158 270.104636 
L 201.425852 271.183056 
L 201.822546 251.213123 
L 203.012629 113.648267 
L 203.409323 105.355051 
L 203.806018 134.404323 
L 204.599406 235.449562 
L 204.9961 265.670771 
L 205.392794 272.611668 
L 205.789489 263.637776 
L 206.582877 236.472885 
L 206.979571 228.142565 
L 207.376265 223.712704 
L 207.77296 221.737019 
L 208.169654 220.984586 
L 208.566348 220.737217 
L 209.359737 220.648857 
L 220.863869 220.644099 
L 266.880398 220.677414 
L 267.277092 220.820333 
L 267.673786 221.374784 
L 268.07048 222.989996 
L 268.467175 226.355478 
L 268.863869 230.757161 
L 269.260563 232.328688 
L 269.657257 225.65233 
L 270.450646 196.57559 
L 270.84734 195.615026 
L 272.037423 232.052167 
L 272.434117 231.207169 
L 273.227505 223.292368 
L 273.624199 221.495112 
L 274.020894 220.855415 
L 274.417588 220.685169 
L 276.004365 220.644105 
L 311.706844 220.742712 
L 312.103538 221.16672 
L 312.500232 222.805518 
L 312.896927 227.531804 
L 313.690315 249.257136 
L 314.087009 252.207703 
L 314.483704 231.239193 
L 315.277092 152.145474 
L 315.673786 154.492507 
L 316.467175 234.725115 
L 316.863869 252.793532 
L 317.260563 248.132651 
L 318.053951 226.832031 
L 318.450646 222.535375 
L 318.84734 221.090495 
L 319.244034 220.726455 
L 320.037423 220.645476 
L 326.38453 220.67618 
L 326.781224 220.780939 
L 327.177918 221.152579 
L 327.574613 222.284907 
L 327.971307 225.221965 
L 328.368001 231.617477 
L 328.764695 243.024555 
L 329.558084 273.616652 
L 329.954778 276.155087 
L 330.351472 254.518841 
L 331.541555 101.440963 
L 331.938249 97.129525 
L 332.334943 135.258529 
L 333.128332 247.21939 
L 333.525026 274.169146 
L 333.92172 275.415427 
L 335.111803 233.369548 
L 335.508497 226.116331 
L 335.905191 222.66318 
L 336.301885 221.287696 
L 336.69858 220.822165 
L 337.491968 220.653125 
L 343.839075 220.644099 
L 372.004365 220.700759 
L 372.401059 220.84014 
L 372.797753 221.241216 
L 373.194447 222.239219 
L 373.591142 224.361532 
L 373.987836 228.142464 
L 374.781224 239.258134 
L 375.177918 242.001144 
L 375.574613 237.692529 
L 375.971307 223.98528 
L 376.764695 183.19174 
L 377.161389 173.052943 
L 377.558084 177.997531 
L 378.748166 233.839159 
L 379.144861 241.446499 
L 379.541555 240.78906 
L 380.731637 225.51453 
L 381.128332 222.844635 
L 381.525026 221.509522 
L 381.92172 220.942171 
L 382.318414 220.73439 
L 383.508497 220.645293 
L 403.343208 220.655846 
L 403.739902 220.719837 
L 404.136596 221.028694 
L 404.53329 222.169216 
L 404.929985 225.303723 
L 405.723373 238.259175 
L 406.120067 238.647231 
L 406.516761 224.370319 
L 407.31015 179.057476 
L 407.706844 183.241522 
L 408.500232 230.695231 
L 408.896927 239.798951 
L 409.293621 236.284162 
L 409.690315 229.127091 
L 410.087009 224.009566 
L 410.483704 221.659176 
L 410.880398 220.881512 
L 411.277092 220.687662 
L 412.863869 220.644104 
L 485.062216 220.644099 
L 485.062216 220.644099 
" clip-path="url(#p16a0e335a3)" style="fill: none; stroke: #2ca02c; stroke-width: 2; stroke-linecap: square"/>
   </g>
   <g id="line2d_18">
    <path d="M 79.244034 220.644099 
L 88.368001 220.690737 
L 89.161389 220.902332 
L 89.558084 221.193312 
L 89.954778 221.733719 
L 90.351472 222.656258 
L 90.748166 224.092579 
L 91.541555 228.594941 
L 92.334943 233.162753 
L 92.731637 233.594486 
L 93.128332 231.531649 
L 93.525026 226.423469 
L 94.318414 208.990221 
L 94.715108 199.893365 
L 95.111803 193.467279 
L 95.508497 191.439596 
L 95.905191 194.374758 
L 96.301885 201.458151 
L 97.491968 227.610877 
L 97.888662 232.138668 
L 98.285356 233.675461 
L 98.682051 232.877806 
L 99.475439 228.106604 
L 100.268827 223.781211 
L 100.665522 222.449043 
L 101.062216 221.608509 
L 101.45891 221.123975 
L 102.252299 220.740814 
L 103.442381 220.649434 
L 116.136596 220.644099 
L 126.450646 220.687164 
L 127.244034 220.914015 
L 127.640728 221.259953 
L 128.037423 221.963115 
L 128.434117 223.29227 
L 128.830811 225.619178 
L 129.227505 229.370015 
L 129.624199 234.888042 
L 131.210976 263.991154 
L 131.60767 263.360499 
L 132.004365 254.149685 
L 132.401059 235.172245 
L 133.987836 127.690084 
L 134.38453 122.316001 
L 134.781224 132.682368 
L 135.177918 156.077992 
L 136.368001 242.361935 
L 136.764695 258.188807 
L 137.161389 264.393278 
L 137.558084 262.786718 
L 137.954778 256.300826 
L 139.144861 232.896661 
L 139.541555 227.974447 
L 139.938249 224.730239 
L 140.334943 222.772302 
L 140.731637 221.68196 
L 141.128332 221.118778 
L 141.525026 220.847986 
L 142.318414 220.675705 
L 143.905191 220.680051 
L 144.69858 220.888854 
L 145.095274 221.224655 
L 145.491968 221.930347 
L 145.888662 223.301591 
L 146.285356 225.754132 
L 146.682051 229.76512 
L 147.078745 235.702514 
L 148.268827 260.368402 
L 148.665522 264.493181 
L 149.062216 261.349514 
L 149.45891 248.289323 
L 149.855604 224.884168 
L 151.045687 135.579281 
L 151.442381 122.814433 
L 151.839075 126.911579 
L 152.23577 146.707843 
L 153.425852 237.236092 
L 153.822546 255.85103 
L 154.219241 263.961864 
L 154.615935 263.229078 
L 155.012629 256.843538 
L 156.202712 232.619266 
L 156.599406 227.628443 
L 156.9961 224.418786 
L 157.392794 222.540273 
L 157.789489 221.531474 
L 158.186183 221.031648 
L 158.582877 220.802272 
L 159.376265 220.665692 
L 162.549819 220.645467 
L 164.136596 220.713102 
L 164.929985 220.992882 
L 165.326679 221.362192 
L 165.723373 222.036022 
L 166.120067 223.180077 
L 166.516761 224.977661 
L 166.913456 227.569974 
L 168.500232 241.261768 
L 168.896927 241.414693 
L 169.293621 237.892795 
L 169.690315 230.035602 
L 170.483704 203.900395 
L 171.277092 178.83065 
L 171.673786 173.606395 
L 172.07048 175.377074 
L 172.467175 183.709743 
L 174.053951 234.656577 
L 174.450646 240.522041 
L 174.84734 242.486444 
L 175.244034 241.7157 
L 176.037423 238.220423 
L 176.434117 238.329576 
L 176.830811 240.953058 
L 177.227505 246.410654 
L 178.814282 277.327163 
L 179.210976 275.653887 
L 179.60767 264.529503 
L 180.004365 242.725906 
L 180.797753 174.491252 
L 181.591142 109.47527 
L 181.987836 94.531447 
L 182.38453 96.635871 
L 182.781224 115.316958 
L 183.574613 183.581944 
L 184.368001 248.914554 
L 184.764695 268.120859 
L 185.161389 276.711928 
L 185.558084 276.329076 
L 185.954778 269.827804 
L 187.144861 241.345955 
L 187.541555 234.550468 
L 187.938249 230.114615 
L 188.334943 228.044865 
L 188.731637 228.323992 
L 189.128332 231.056145 
L 189.525026 236.464744 
L 189.92172 244.732671 
L 190.715108 268.489428 
L 191.508497 290.643128 
L 191.905191 293.028363 
L 192.301885 284.461409 
L 192.69858 262.397122 
L 193.491968 181.67483 
L 194.285356 91.640695 
L 194.682051 64.607462 
L 195.078745 58.483445 
L 195.475439 74.719991 
L 195.872133 109.799168 
L 197.45891 283.337568 
L 197.855604 305.58839 
L 198.252299 318.09726 
L 198.648993 324.259518 
L 199.045687 327.299809 
L 199.442381 328.761989 
L 199.839075 327.743356 
L 200.23577 321.117324 
L 200.632464 304.72916 
L 201.029158 275.260873 
L 201.822546 179.063791 
L 202.615935 75.814491 
L 203.012629 45.79788 
L 203.409323 40.159866 
L 203.806018 60.116644 
L 204.202712 101.000266 
L 205.392794 252.988892 
L 205.789489 284.196987 
L 206.186183 299.479827 
L 206.582877 300.806175 
L 206.979571 292.311974 
L 208.566348 239.917549 
L 208.963042 232.303303 
L 209.359737 227.27513 
L 209.756431 224.197447 
L 210.153125 222.441157 
L 210.549819 221.502958 
L 210.946513 221.032405 
L 211.739902 220.711517 
L 213.326679 220.645174 
L 263.31015 220.659302 
L 264.103538 220.741524 
L 264.500232 220.866751 
L 264.896927 221.118545 
L 265.293621 221.585036 
L 265.690315 222.376756 
L 266.087009 223.59696 
L 266.880398 227.306703 
L 267.277092 229.314566 
L 267.673786 230.677709 
L 268.07048 230.598879 
L 268.467175 228.353089 
L 268.863869 223.629638 
L 270.053951 202.434018 
L 270.450646 198.368053 
L 270.84734 198.125688 
L 271.244034 201.776546 
L 272.830811 227.918925 
L 273.227505 230.456197 
L 273.624199 230.760515 
L 274.020894 229.526209 
L 275.210976 223.77417 
L 275.60767 222.498256 
L 276.004365 221.660148 
L 276.401059 221.160888 
L 276.797753 220.888675 
L 277.591142 220.688542 
L 279.574613 220.644293 
L 308.136596 220.688344 
L 308.929985 220.92582 
L 309.326679 221.285499 
L 309.723373 222.005104 
L 310.120067 223.330668 
L 310.516761 225.565372 
L 310.913456 228.981887 
L 311.706844 239.184866 
L 312.103538 244.54335 
L 312.500232 247.958884 
L 312.896927 247.247178 
L 313.293621 240.503894 
L 313.690315 227.048044 
L 314.880398 169.785089 
L 315.277092 159.802576 
L 315.673786 160.375299 
L 316.07048 171.337969 
L 317.657257 241.517947 
L 318.053951 247.573693 
L 318.450646 247.756085 
L 318.84734 244.040559 
L 320.037423 228.567831 
L 320.434117 225.282663 
L 320.830811 223.156661 
L 321.227505 221.907558 
L 321.624199 221.235637 
L 322.020894 220.903443 
L 322.814282 220.69782 
L 323.60767 220.746278 
L 324.004365 220.884091 
L 324.401059 221.196616 
L 324.797753 221.8517 
L 325.194447 223.137102 
L 325.591142 225.496903 
L 325.987836 229.53701 
L 326.38453 235.955683 
L 326.781224 245.349438 
L 327.574613 272.746335 
L 328.368001 299.635059 
L 328.764695 303.233212 
L 329.161389 293.813108 
L 329.558084 268.099176 
L 330.351472 172.626707 
L 331.144861 68.57242 
L 331.541555 40.032121 
L 331.938249 37.438125 
L 332.334943 61.414297 
L 333.128332 161.842781 
L 333.92172 261.320725 
L 334.318414 290.238959 
L 334.715108 302.574548 
L 335.111803 301.094326 
L 335.508497 290.497579 
L 336.69858 247.491392 
L 337.095274 237.496388 
L 337.491968 230.551531 
L 337.888662 226.114306 
L 338.285356 223.486495 
L 338.682051 222.036281 
L 339.078745 221.287653 
L 339.475439 220.925154 
L 340.268827 220.689444 
L 342.252299 220.644282 
L 369.227505 220.729312 
L 369.624199 220.839711 
L 370.020894 221.069463 
L 370.417588 221.519528 
L 370.814282 222.34746 
L 371.210976 223.773299 
L 371.60767 226.062275 
L 372.004365 229.466536 
L 372.797753 239.840262 
L 373.591142 251.484756 
L 373.987836 254.50185 
L 374.38453 253.148575 
L 374.781224 245.81334 
L 375.177918 231.873775 
L 376.764695 151.833699 
L 377.161389 144.629121 
L 377.558084 148.068136 
L 377.954778 161.35753 
L 379.541555 241.541025 
L 379.938249 251.253994 
L 380.334943 254.613016 
L 380.731637 252.950939 
L 381.525026 242.065041 
L 382.318414 230.997939 
L 382.715108 227.149939 
L 383.111803 224.484698 
L 383.508497 222.779467 
L 383.905191 221.764428 
L 384.301885 221.199563 
L 384.69858 220.90466 
L 385.491968 220.692832 
L 387.475439 220.644393 
L 400.566348 220.721675 
L 400.963042 220.831451 
L 401.359737 221.066421 
L 401.756431 221.531329 
L 402.153125 222.377904 
L 402.549819 223.787736 
L 402.946513 225.914362 
L 404.53329 237.02637 
L 404.929985 236.234865 
L 405.326679 231.762726 
L 405.723373 223.323839 
L 406.913456 189.415318 
L 407.31015 184.102727 
L 407.706844 185.145971 
L 408.103538 192.245024 
L 409.293621 226.415139 
L 409.690315 233.626272 
L 410.087009 236.844297 
L 410.483704 236.666767 
L 410.880398 234.300984 
L 412.07048 225.153658 
L 412.467175 223.266701 
L 412.863869 222.056122 
L 413.260563 221.35012 
L 413.657257 220.972699 
L 414.450646 220.701895 
L 416.037423 220.6449 
L 485.062216 220.644099 
L 485.062216 220.644099 
" clip-path="url(#p16a0e335a3)" style="fill: none; stroke: #d62728; stroke-width: 2; stroke-linecap: square"/>
   </g>
   <g id="line2d_19">
    <path d="M 79.244034 220.64555 
L 82.417588 220.729882 
L 83.60767 220.941466 
L 84.401059 221.266279 
L 85.194447 221.852077 
L 85.987836 222.814306 
L 86.781224 224.237962 
L 87.971307 227.133303 
L 89.161389 229.949485 
L 89.558084 230.501744 
L 89.954778 230.688603 
L 90.351472 230.407048 
L 90.748166 229.569284 
L 91.144861 228.115043 
L 91.541555 226.023375 
L 92.334943 220.094033 
L 94.318414 202.287 
L 94.715108 199.976976 
L 95.111803 198.558971 
L 95.508497 198.139717 
L 95.905191 198.751052 
L 96.301885 200.346557 
L 97.095274 205.950169 
L 99.078745 223.870602 
L 99.872133 228.434556 
L 100.268827 229.77032 
L 100.665522 230.498352 
L 101.062216 230.684999 
L 101.45891 230.421814 
L 101.855604 229.813313 
L 102.648993 227.97871 
L 104.23577 224.084961 
L 105.029158 222.705954 
L 105.822546 221.783463 
L 106.615935 221.226887 
L 107.409323 220.920785 
L 108.599406 220.72315 
L 110.979571 220.64813 
L 119.706844 220.699611 
L 120.896927 220.874523 
L 121.690315 221.1903 
L 122.483704 221.851137 
L 122.880398 222.390993 
L 123.277092 223.126739 
L 123.673786 224.107787 
L 124.467175 227.013949 
L 125.260563 231.472975 
L 126.053951 237.581588 
L 128.037423 254.63248 
L 128.434117 256.383168 
L 128.830811 256.768092 
L 129.227505 255.431884 
L 129.624199 252.079852 
L 130.020894 246.520659 
L 130.814282 228.762928 
L 132.004365 190.268585 
L 132.797753 164.269561 
L 133.591142 145.660503 
L 133.987836 140.867745 
L 134.38453 139.632257 
L 134.781224 142.046622 
L 135.177918 147.930919 
L 135.971307 168.166004 
L 137.954778 232.351112 
L 138.748166 248.931557 
L 139.144861 253.952926 
L 139.541555 256.901161 
L 139.938249 258.035926 
L 140.334943 257.71306 
L 140.731637 256.341746 
L 142.318414 248.34101 
L 142.715108 247.268192 
L 143.111803 246.919487 
L 143.508497 247.313422 
L 143.905191 248.374989 
L 145.491968 254.814411 
L 145.888662 255.278993 
L 146.285356 254.500122 
L 146.682051 252.119775 
L 147.078745 247.862614 
L 147.475439 241.576612 
L 148.268827 223.124575 
L 150.648993 154.861788 
L 151.045687 149.054474 
L 151.442381 146.461046 
L 151.839075 147.278506 
L 152.23577 151.444079 
L 152.632464 158.641801 
L 153.425852 179.82595 
L 155.012629 228.019346 
L 155.806018 244.455097 
L 156.202712 249.567442 
L 156.599406 252.61978 
L 156.9961 253.79811 
L 157.392794 253.386528 
L 157.789489 251.72632 
L 158.582877 246.087059 
L 160.169654 233.7009 
L 160.963042 229.753363 
L 161.359737 228.576607 
L 161.756431 227.934883 
L 162.153125 227.808082 
L 162.549819 228.162812 
L 162.946513 228.953297 
L 163.739902 231.585333 
L 165.326679 238.106955 
L 165.723373 239.111425 
L 166.120067 239.490269 
L 166.516761 239.056681 
L 166.913456 237.651602 
L 167.31015 235.164662 
L 167.706844 231.554802 
L 168.500232 221.248112 
L 170.483704 190.684057 
L 170.880398 187.180464 
L 171.277092 185.573443 
L 171.673786 186.164966 
L 172.07048 189.129046 
L 172.467175 194.492566 
L 173.260563 211.752784 
L 174.450646 247.811833 
L 175.244034 271.474885 
L 176.037423 288.197082 
L 176.434117 292.2848 
L 176.830811 292.804931 
L 177.227505 289.394369 
L 177.624199 281.877932 
L 178.020894 270.303555 
L 178.814282 236.43191 
L 181.194447 115.48315 
L 181.591142 104.899527 
L 181.987836 99.637084 
L 182.38453 100.050607 
L 182.781224 106.121556 
L 183.177918 117.467064 
L 183.971307 152.921997 
L 186.748166 302.025101 
L 187.541555 326.428967 
L 187.938249 334.061865 
L 188.334943 338.56092 
L 188.731637 339.838125 
L 189.128332 337.764979 
L 189.525026 332.182793 
L 189.92172 322.938493 
L 190.318414 309.941298 
L 191.111803 273.051901 
L 192.301885 198.181038 
L 193.491968 126.746532 
L 193.888662 110.684759 
L 194.285356 100.809409 
L 194.682051 98.042472 
L 195.078745 102.81957 
L 195.475439 115.010357 
L 195.872133 133.889488 
L 196.665522 186.056722 
L 197.855604 269.450903 
L 198.252299 289.695181 
L 198.648993 303.038543 
L 199.045687 308.325074 
L 199.442381 305.04508 
L 199.839075 293.384303 
L 200.23577 274.212392 
L 201.029158 219.747701 
L 202.219241 130.812033 
L 202.615935 108.306833 
L 203.012629 92.355893 
L 203.409323 83.971261 
L 203.806018 83.530899 
L 204.202712 90.776726 
L 204.599406 104.872501 
L 205.392794 148.069682 
L 206.979571 246.744297 
L 207.77296 279.695992 
L 208.169654 289.66274 
L 208.566348 295.341941 
L 208.963042 297.132008 
L 209.359737 295.625117 
L 209.756431 291.523514 
L 210.549819 278.442981 
L 212.136596 249.131047 
L 212.929985 238.228532 
L 213.723373 230.686274 
L 214.516761 225.969594 
L 215.31015 223.273784 
L 216.103538 221.855668 
L 216.896927 221.165752 
L 217.690315 220.854258 
L 218.880398 220.691645 
L 222.053951 220.644547 
L 257.756431 220.715986 
L 258.946513 220.891358 
L 259.739902 221.158273 
L 260.53329 221.635432 
L 261.326679 222.410936 
L 262.120067 223.543212 
L 263.31015 225.79095 
L 264.103538 227.284195 
L 264.500232 227.853958 
L 264.896927 228.202537 
L 265.293621 228.247938 
L 265.690315 227.913536 
L 266.087009 227.137205 
L 266.483704 225.880855 
L 267.277092 221.946233 
L 268.467175 213.62808 
L 269.260563 208.18885 
L 270.053951 204.502716 
L 270.450646 203.676261 
L 270.84734 203.629038 
L 271.244034 204.364668 
L 271.640728 205.827042 
L 272.434117 210.450283 
L 274.417588 223.900003 
L 275.210976 227.012881 
L 275.60767 227.845075 
L 276.004365 228.229349 
L 276.401059 228.225455 
L 276.797753 227.908787 
L 277.591142 226.662705 
L 279.574613 222.999879 
L 280.368001 222.027651 
L 281.161389 221.393659 
L 281.954778 221.020022 
L 283.144861 220.760263 
L 285.128332 220.655579 
L 295.442381 220.644104 
L 301.789489 220.725308 
L 302.979571 220.953646 
L 303.77296 221.334727 
L 304.566348 222.075618 
L 305.359737 223.394604 
L 306.153125 225.528228 
L 306.946513 228.626078 
L 308.136596 234.716462 
L 308.929985 238.696529 
L 309.326679 240.179602 
L 309.723373 241.043806 
L 310.120067 241.068544 
L 310.516761 240.050129 
L 310.913456 237.826679 
L 311.31015 234.303781 
L 312.103538 223.452133 
L 313.293621 200.906351 
L 314.087009 186.420129 
L 314.483704 180.808408 
L 314.880398 176.856904 
L 315.277092 174.8639 
L 315.673786 174.983441 
L 316.07048 177.209427 
L 316.467175 181.376953 
L 317.260563 194.208941 
L 319.244034 231.528939 
L 320.037423 241.306064 
L 320.830811 247.462893 
L 322.417588 256.792562 
L 323.210976 264.360642 
L 324.004365 274.979991 
L 325.194447 292.144351 
L 325.591142 296.008321 
L 325.987836 297.723998 
L 326.38453 296.518661 
L 326.781224 291.692718 
L 327.177918 282.703856 
L 327.574613 269.25068 
L 328.368001 229.366856 
L 329.558084 148.397129 
L 330.351472 96.397861 
L 331.144861 61.227809 
L 331.541555 53.212191 
L 331.938249 52.505847 
L 332.334943 59.159713 
L 332.731637 72.690617 
L 333.525026 116.120626 
L 335.508497 247.196477 
L 336.301885 279.882421 
L 336.69858 289.419862 
L 337.095274 294.609218 
L 337.491968 295.92496 
L 337.888662 294.012821 
L 338.285356 289.607345 
L 339.078745 276.263075 
L 340.665522 247.46607 
L 341.45891 237.018354 
L 342.252299 229.889664 
L 343.045687 225.490208 
L 343.839075 223.008378 
L 344.632464 221.719881 
L 345.425852 221.101342 
L 346.219241 220.825861 
L 347.409323 220.684368 
L 350.979571 220.644283 
L 362.880398 220.741022 
L 364.07048 221.00977 
L 364.863869 221.459388 
L 365.657257 222.341757 
L 366.450646 223.93953 
L 367.244034 226.593262 
L 368.037423 230.59982 
L 368.830811 236.017937 
L 370.814282 250.98723 
L 371.210976 252.557409 
L 371.60767 252.967892 
L 372.004365 251.917368 
L 372.401059 249.152401 
L 372.797753 244.502008 
L 373.194447 237.910393 
L 373.987836 219.404005 
L 375.971307 163.185474 
L 376.368001 155.449849 
L 376.764695 150.335037 
L 377.161389 148.204008 
L 377.558084 149.209743 
L 377.954778 153.279938 
L 378.351472 160.124241 
L 379.144861 180.074632 
L 380.731637 226.005088 
L 381.525026 242.348965 
L 381.92172 247.699938 
L 382.318414 251.130426 
L 382.715108 252.773423 
L 383.111803 252.856629 
L 383.508497 251.668043 
L 383.905191 249.52231 
L 384.69858 243.580082 
L 385.888662 234.145756 
L 386.682051 229.160206 
L 387.475439 225.60886 
L 388.268827 223.330232 
L 389.062216 221.996837 
L 389.855604 221.279721 
L 390.648993 220.923694 
L 391.839075 220.719658 
L 393.822546 220.700821 
L 395.012629 220.839433 
L 395.806018 221.076103 
L 396.599406 221.534916 
L 397.392794 222.347499 
L 398.186183 223.654106 
L 398.979571 225.538185 
L 401.359737 232.399252 
L 401.756431 232.865744 
L 402.153125 232.816431 
L 402.549819 232.13173 
L 402.946513 230.718728 
L 403.343208 228.526434 
L 404.136596 221.88683 
L 406.516761 196.524987 
L 406.913456 194.281116 
L 407.31015 193.219936 
L 407.706844 193.422493 
L 408.103538 194.873272 
L 408.500232 197.461855 
L 409.293621 205.214927 
L 410.880398 223.125722 
L 411.673786 229.310493 
L 412.07048 231.252398 
L 412.467175 232.425752 
L 412.863869 232.896486 
L 413.260563 232.767689 
L 413.657257 232.164246 
L 414.450646 230.056855 
L 416.037423 225.199909 
L 416.830811 223.408058 
L 417.624199 222.188221 
L 418.417588 221.441655 
L 419.210976 221.026072 
L 420.401059 220.754489 
L 422.38453 220.653894 
L 433.888662 220.644099 
L 485.062216 220.644099 
L 485.062216 220.644099 
" clip-path="url(#p16a0e335a3)" style="fill: none; stroke: #9467bd; stroke-width: 2; stroke-linecap: square"/>
   </g>
   <g id="patch_3">
    <path d="M 58.953125 354.958125 
L 58.953125 22.318125 
" style="fill: none; stroke: #000000; stroke-width: 0.8; stroke-linejoin: miter; stroke-linecap: square"/>
   </g>
   <g id="patch_4">
    <path d="M 505.353125 354.958125 
L 505.353125 22.318125 
" style="fill: none; stroke: #000000; stroke-width: 0.8; stroke-linejoin: miter; stroke-linecap: square"/>
   </g>
   <g id="patch_5">
    <path d="M 58.953125 354.958125 
L 505.353125 354.958125 
" style="fill: none; stroke: #000000; stroke-width: 0.8; stroke-linejoin: miter; stroke-linecap: square"/>
   </g>
   <g id="patch_6">
    <path d="M 58.953125 22.318125 
L 505.353125 22.318125 
" style="fill: none; stroke: #000000; stroke-width: 0.8; stroke-linejoin: miter; stroke-linecap: square"/>
   </g>
   <g id="text_17">
    <!-- Collection of 0 signals -->
    <g transform="translate(216.279687 16.318125) scale(0.12 -0.12)">
     <defs>
      <path id="DejaVuSans-43" d="M 4122 4306 
L 4122 3641 
Q 3803 3938 3442 4084 
Q 3081 4231 2675 4231 
Q 1875 4231 1450 3742 
Q 1025 3253 1025 2328 
Q 1025 1406 1450 917 
Q 1875 428 2675 428 
Q 3081 428 3442 575 
Q 3803 722 4122 1019 
L 4122 359 
Q 3791 134 3420 21 
Q 3050 -91 2638 -91 
Q 1578 -91 968 557 
Q 359 1206 359 2328 
Q 359 3453 968 4101 
Q 1578 4750 2638 4750 
Q 3056 4750 3426 4639 
Q 3797 4528 4122 4306 
z
" transform="scale(0.015625)"/>
      <path id="DejaVuSans-6f" d="M 1959 3097 
Q 1497 3097 1228 2736 
Q 959 2375 959 1747 
Q 959 1119 1226 758 
Q 1494 397 1959 397 
Q 2419 397 2687 759 
Q 2956 1122 2956 1747 
Q 2956 2369 2687 2733 
Q 2419 3097 1959 3097 
z
M 1959 3584 
Q 2709 3584 3137 3096 
Q 3566 2609 3566 1747 
Q 3566 888 3137 398 
Q 2709 -91 1959 -91 
Q 1206 -91 779 398 
Q 353 888 353 1747 
Q 353 2609 779 3096 
Q 1206 3584 1959 3584 
z
" transform="scale(0.015625)"/>
      <path id="DejaVuSans-6c" d="M 603 4863 
L 1178 4863 
L 1178 0 
L 603 0 
L 603 4863 
z
" transform="scale(0.015625)"/>
      <path id="DejaVuSans-63" d="M 3122 3366 
L 3122 2828 
Q 2878 2963 2633 3030 
Q 2388 3097 2138 3097 
Q 1578 3097 1268 2742 
Q 959 2388 959 1747 
Q 959 1106 1268 751 
Q 1578 397 2138 397 
Q 2388 397 2633 464 
Q 2878 531 3122 666 
L 3122 134 
Q 2881 22 2623 -34 
Q 2366 -91 2075 -91 
Q 1284 -91 818 406 
Q 353 903 353 1747 
Q 353 2603 823 3093 
Q 1294 3584 2113 3584 
Q 2378 3584 2631 3529 
Q 2884 3475 3122 3366 
z
" transform="scale(0.015625)"/>
      <path id="DejaVuSans-66" d="M 2375 4863 
L 2375 4384 
L 1825 4384 
Q 1516 4384 1395 4259 
Q 1275 4134 1275 3809 
L 1275 3500 
L 2222 3500 
L 2222 3053 
L 1275 3053 
L 1275 0 
L 697 0 
L 697 3053 
L 147 3053 
L 147 3500 
L 697 3500 
L 697 3744 
Q 697 4328 969 4595 
Q 1241 4863 1831 4863 
L 2375 4863 
z
" transform="scale(0.015625)"/>
      <path id="DejaVuSans-67" d="M 2906 1791 
Q 2906 2416 2648 2759 
Q 2391 3103 1925 3103 
Q 1463 3103 1205 2759 
Q 947 2416 947 1791 
Q 947 1169 1205 825 
Q 1463 481 1925 481 
Q 2391 481 2648 825 
Q 2906 1169 2906 1791 
z
M 3481 434 
Q 3481 -459 3084 -895 
Q 2688 -1331 1869 -1331 
Q 1566 -1331 1297 -1286 
Q 1028 -1241 775 -1147 
L 775 -588 
Q 1028 -725 1275 -790 
Q 1522 -856 1778 -856 
Q 2344 -856 2625 -561 
Q 2906 -266 2906 331 
L 2906 616 
Q 2728 306 2450 153 
Q 2172 0 1784 0 
Q 1141 0 747 490 
Q 353 981 353 1791 
Q 353 2603 747 3093 
Q 1141 3584 1784 3584 
Q 2172 3584 2450 3431 
Q 2728 3278 2906 2969 
L 2906 3500 
L 3481 3500 
L 3481 434 
z
" transform="scale(0.015625)"/>
     </defs>
     <use xlink:href="#DejaVuSans-43"/>
     <use xlink:href="#DejaVuSans-6f" transform="translate(69.824219 0)"/>
     <use xlink:href="#DejaVuSans-6c" transform="translate(131.005859 0)"/>
     <use xlink:href="#DejaVuSans-6c" transform="translate(158.789062 0)"/>
     <use xlink:href="#DejaVuSans-65" transform="translate(186.572266 0)"/>
     <use xlink:href="#DejaVuSans-63" transform="translate(248.095703 0)"/>
     <use xlink:href="#DejaVuSans-74" transform="translate(303.076172 0)"/>
     <use xlink:href="#DejaVuSans-69" transform="translate(342.285156 0)"/>
     <use xlink:href="#DejaVuSans-6f" transform="translate(370.068359 0)"/>
     <use xlink:href="#DejaVuSans-6e" transform="translate(431.25 0)"/>
     <use xlink:href="#DejaVuSans-20" transform="translate(494.628906 0)"/>
     <use xlink:href="#DejaVuSans-6f" transform="translate(526.416016 0)"/>
     <use xlink:href="#DejaVuSans-66" transform="translate(587.597656 0)"/>
     <use xlink:href="#DejaVuSans-20" transform="translate(622.802734 0)"/>
     <use xlink:href="#DejaVuSans-30" transform="translate(654.589844 0)"/>
     <use xlink:href="#DejaVuSans-20" transform="translate(718.212891 0)"/>
     <use xlink:href="#DejaVuSans-73" transform="translate(750 0)"/>
     <use xlink:href="#DejaVuSans-69" transform="translate(802.099609 0)"/>
     <use xlink:href="#DejaVuSans-67" transform="translate(829.882812 0)"/>
     <use xlink:href="#DejaVuSans-6e" transform="translate(893.359375 0)"/>
     <use xlink:href="#DejaVuSans-61" transform="translate(956.738281 0)"/>
     <use xlink:href="#DejaVuSans-6c" transform="translate(1018.017578 0)"/>
     <use xlink:href="#DejaVuSans-73" transform="translate(1045.800781 0)"/>
    </g>
   </g>
   <g id="legend_1">
    <g id="patch_7">
     <path d="M 372.78875 121.655625 
L 496.953125 121.655625 
Q 499.353125 121.655625 499.353125 119.255625 
L 499.353125 30.718125 
Q 499.353125 28.318125 496.953125 28.318125 
L 372.78875 28.318125 
Q 370.38875 28.318125 370.38875 30.718125 
L 370.38875 119.255625 
Q 370.38875 121.655625 372.78875 121.655625 
z
" style="fill: #ffffff; opacity: 0.8; stroke: #cccccc; stroke-linejoin: miter"/>
    </g>
    <g id="line2d_20">
     <path d="M 375.18875 38.03625 
L 387.18875 38.03625 
L 399.18875 38.03625 
" style="fill: none; stroke: #1f77b4; stroke-width: 2; stroke-linecap: square"/>
    </g>
    <g id="text_18">
     <!-- CWT_scale_1 -->
     <g transform="translate(408.78875 42.23625) scale(0.12 -0.12)">
      <defs>
       <path id="DejaVuSans-57" d="M 213 4666 
L 850 4666 
L 1831 722 
L 2809 4666 
L 3519 4666 
L 4500 722 
L 5478 4666 
L 6119 4666 
L 4947 0 
L 4153 0 
L 3169 4050 
L 2175 0 
L 1381 0 
L 213 4666 
z
" transform="scale(0.015625)"/>
       <path id="DejaVuSans-54" d="M -19 4666 
L 3928 4666 
L 3928 4134 
L 2272 4134 
L 2272 0 
L 1638 0 
L 1638 4134 
L -19 4134 
L -19 4666 
z
" transform="scale(0.015625)"/>
       <path id="DejaVuSans-5f" d="M 3263 -1063 
L 3263 -1509 
L -63 -1509 
L -63 -1063 
L 3263 -1063 
z
" transform="scale(0.015625)"/>
      </defs>
      <use xlink:href="#DejaVuSans-43"/>
      <use xlink:href="#DejaVuSans-57" transform="translate(69.824219 0)"/>
      <use xlink:href="#DejaVuSans-54" transform="translate(168.701172 0)"/>
      <use xlink:href="#DejaVuSans-5f" transform="translate(229.785156 0)"/>
      <use xlink:href="#DejaVuSans-73" transform="translate(279.785156 0)"/>
      <use xlink:href="#DejaVuSans-63" transform="translate(331.884766 0)"/>
      <use xlink:href="#DejaVuSans-61" transform="translate(386.865234 0)"/>
      <use xlink:href="#DejaVuSans-6c" transform="translate(448.144531 0)"/>
      <use xlink:href="#DejaVuSans-65" transform="translate(475.927734 0)"/>
      <use xlink:href="#DejaVuSans-5f" transform="translate(537.451172 0)"/>
      <use xlink:href="#DejaVuSans-31" transform="translate(587.451172 0)"/>
     </g>
    </g>
    <g id="line2d_21">
     <path d="M 375.18875 55.98375 
L 387.18875 55.98375 
L 399.18875 55.98375 
" style="fill: none; stroke: #ff7f0e; stroke-width: 2; stroke-linecap: square"/>
    </g>
    <g id="text_19">
     <!-- CWT_scale_2 -->
     <g transform="translate(408.78875 60.18375) scale(0.12 -0.12)">
      <use xlink:href="#DejaVuSans-43"/>
      <use xlink:href="#DejaVuSans-57" transform="translate(69.824219 0)"/>
      <use xlink:href="#DejaVuSans-54" transform="translate(168.701172 0)"/>
      <use xlink:href="#DejaVuSans-5f" transform="translate(229.785156 0)"/>
      <use xlink:href="#DejaVuSans-73" transform="translate(279.785156 0)"/>
      <use xlink:href="#DejaVuSans-63" transform="translate(331.884766 0)"/>
      <use xlink:href="#DejaVuSans-61" transform="translate(386.865234 0)"/>
      <use xlink:href="#DejaVuSans-6c" transform="translate(448.144531 0)"/>
      <use xlink:href="#DejaVuSans-65" transform="translate(475.927734 0)"/>
      <use xlink:href="#DejaVuSans-5f" transform="translate(537.451172 0)"/>
      <use xlink:href="#DejaVuSans-32" transform="translate(587.451172 0)"/>
     </g>
    </g>
    <g id="line2d_22">
     <path d="M 375.18875 73.93125 
L 387.18875 73.93125 
L 399.18875 73.93125 
" style="fill: none; stroke: #2ca02c; stroke-width: 2; stroke-linecap: square"/>
    </g>
    <g id="text_20">
     <!-- CWT_scale_4 -->
     <g transform="translate(408.78875 78.13125) scale(0.12 -0.12)">
      <use xlink:href="#DejaVuSans-43"/>
      <use xlink:href="#DejaVuSans-57" transform="translate(69.824219 0)"/>
      <use xlink:href="#DejaVuSans-54" transform="translate(168.701172 0)"/>
      <use xlink:href="#DejaVuSans-5f" transform="translate(229.785156 0)"/>
      <use xlink:href="#DejaVuSans-73" transform="translate(279.785156 0)"/>
      <use xlink:href="#DejaVuSans-63" transform="translate(331.884766 0)"/>
      <use xlink:href="#DejaVuSans-61" transform="translate(386.865234 0)"/>
      <use xlink:href="#DejaVuSans-6c" transform="translate(448.144531 0)"/>
      <use xlink:href="#DejaVuSans-65" transform="translate(475.927734 0)"/>
      <use xlink:href="#DejaVuSans-5f" transform="translate(537.451172 0)"/>
      <use xlink:href="#DejaVuSans-34" transform="translate(587.451172 0)"/>
     </g>
    </g>
    <g id="line2d_23">
     <path d="M 375.18875 91.87875 
L 387.18875 91.87875 
L 399.18875 91.87875 
" style="fill: none; stroke: #d62728; stroke-width: 2; stroke-linecap: square"/>
    </g>
    <g id="text_21">
     <!-- CWT_scale_8 -->
     <g transform="translate(408.78875 96.07875) scale(0.12 -0.12)">
      <use xlink:href="#DejaVuSans-43"/>
      <use xlink:href="#DejaVuSans-57" transform="translate(69.824219 0)"/>
      <use xlink:href="#DejaVuSans-54" transform="translate(168.701172 0)"/>
      <use xlink:href="#DejaVuSans-5f" transform="translate(229.785156 0)"/>
      <use xlink:href="#DejaVuSans-73" transform="translate(279.785156 0)"/>
      <use xlink:href="#DejaVuSans-63" transform="translate(331.884766 0)"/>
      <use xlink:href="#DejaVuSans-61" transform="translate(386.865234 0)"/>
      <use xlink:href="#DejaVuSans-6c" transform="translate(448.144531 0)"/>
      <use xlink:href="#DejaVuSans-65" transform="translate(475.927734 0)"/>
      <use xlink:href="#DejaVuSans-5f" transform="translate(537.451172 0)"/>
      <use xlink:href="#DejaVuSans-38" transform="translate(587.451172 0)"/>
     </g>
    </g>
    <g id="line2d_24">
     <path d="M 375.18875 109.82625 
L 387.18875 109.82625 
L 399.18875 109.82625 
" style="fill: none; stroke: #9467bd; stroke-width: 2; stroke-linecap: square"/>
    </g>
    <g id="text_22">
     <!-- CWT_scale_16 -->
     <g transform="translate(408.78875 114.02625) scale(0.12 -0.12)">
      <use xlink:href="#DejaVuSans-43"/>
      <use xlink:href="#DejaVuSans-57" transform="translate(69.824219 0)"/>
      <use xlink:href="#DejaVuSans-54" transform="translate(168.701172 0)"/>
      <use xlink:href="#DejaVuSans-5f" transform="translate(229.785156 0)"/>
      <use xlink:href="#DejaVuSans-73" transform="translate(279.785156 0)"/>
      <use xlink:href="#DejaVuSans-63" transform="translate(331.884766 0)"/>
      <use xlink:href="#DejaVuSans-61" transform="translate(386.865234 0)"/>
      <use xlink:href="#DejaVuSans-6c" transform="translate(448.144531 0)"/>
      <use xlink:href="#DejaVuSans-65" transform="translate(475.927734 0)"/>
      <use xlink:href="#DejaVuSans-5f" transform="translate(537.451172 0)"/>
      <use xlink:href="#DejaVuSans-31" transform="translate(587.451172 0)"/>
      <use xlink:href="#DejaVuSans-36" transform="translate(651.074219 0)"/>
     </g>
    </g>
   </g>
  </g>
 </g>
 <defs>
  <clipPath id="p16a0e335a3">
   <rect x="58.953125" y="22.318125" width="446.4" height="332.64"/>
  </clipPath>
 </defs>
</svg>
