<?xml version="1.0" encoding="utf-8" standalone="no"?>
<!DOCTYPE svg PUBLIC "-//W3C//DTD SVG 1.1//EN"
  "http://www.w3.org/Graphics/SVG/1.1/DTD/svg11.dtd">
<svg xmlns:xlink="http://www.w3.org/1999/xlink" width="568.37125pt" height="280.474375pt" viewBox="0 0 568.37125 280.474375" xmlns="http://www.w3.org/2000/svg" version="1.1">
 <metadata>
  <rdf:RDF xmlns:dc="http://purl.org/dc/elements/1.1/" xmlns:cc="http://creativecommons.org/ns#" xmlns:rdf="http://www.w3.org/1999/02/22-rdf-syntax-ns#">
   <cc:Work>
    <dc:type rdf:resource="http://purl.org/dc/dcmitype/StillImage"/>
    <dc:date>2025-06-13T15:13:37.990697</dc:date>
    <dc:format>image/svg+xml</dc:format>
    <dc:creator>
     <cc:Agent>
      <dc:title>Matplotlib v3.10.0, https://matplotlib.org/</dc:title>
     </cc:Agent>
    </dc:creator>
   </cc:Work>
  </rdf:RDF>
 </metadata>
 <defs>
  <style type="text/css">*{stroke-linejoin: round; stroke-linecap: butt}</style>
 </defs>
 <g id="figure_1">
  <g id="patch_1">
   <path d="M 0 280.474375 
L 568.37125 280.474375 
L 568.37125 0 
L 0 0 
z
" style="fill: #ffffff"/>
  </g>
  <g id="axes_1">
   <g id="patch_2">
    <path d="M 43.78125 242.918125 
L 561.17125 242.918125 
L 561.17125 22.318125 
L 43.78125 22.318125 
z
" style="fill: #ffffff"/>
   </g>
   <g id="matplotlib.axis_1">
    <g id="xtick_1">
     <g id="line2d_1">
      <defs>
       <path id="md21e492aaa" d="M 0 0 
L 0 3.5 
" style="stroke: #000000; stroke-width: 0.8"/>
      </defs>
      <g>
       <use xlink:href="#md21e492aaa" x="67.298977" y="242.918125" style="stroke: #000000; stroke-width: 0.8"/>
      </g>
     </g>
     <g id="text_1">
      <!-- 0 -->
      <g transform="translate(64.117727 257.516563) scale(0.1 -0.1)">
       <defs>
        <path id="DejaVuSans-30" d="M 2034 4250 
Q 1547 4250 1301 3770 
Q 1056 3291 1056 2328 
Q 1056 1369 1301 889 
Q 1547 409 2034 409 
Q 2525 409 2770 889 
Q 3016 1369 3016 2328 
Q 3016 3291 2770 3770 
Q 2525 4250 2034 4250 
z
M 2034 4750 
Q 2819 4750 3233 4129 
Q 3647 3509 3647 2328 
Q 3647 1150 3233 529 
Q 2819 -91 2034 -91 
Q 1250 -91 836 529 
Q 422 1150 422 2328 
Q 422 3509 836 4129 
Q 1250 4750 2034 4750 
z
" transform="scale(0.015625)"/>
       </defs>
       <use xlink:href="#DejaVuSans-30"/>
      </g>
     </g>
    </g>
    <g id="xtick_2">
     <g id="line2d_2">
      <g>
       <use xlink:href="#md21e492aaa" x="140.791875" y="242.918125" style="stroke: #000000; stroke-width: 0.8"/>
      </g>
     </g>
     <g id="text_2">
      <!-- 10 -->
      <g transform="translate(134.429375 257.516563) scale(0.1 -0.1)">
       <defs>
        <path id="DejaVuSans-31" d="M 794 531 
L 1825 531 
L 1825 4091 
L 703 3866 
L 703 4441 
L 1819 4666 
L 2450 4666 
L 2450 531 
L 3481 531 
L 3481 0 
L 794 0 
L 794 531 
z
" transform="scale(0.015625)"/>
       </defs>
       <use xlink:href="#DejaVuSans-31"/>
       <use xlink:href="#DejaVuSans-30" transform="translate(63.623047 0)"/>
      </g>
     </g>
    </g>
    <g id="xtick_3">
     <g id="line2d_3">
      <g>
       <use xlink:href="#md21e492aaa" x="214.284773" y="242.918125" style="stroke: #000000; stroke-width: 0.8"/>
      </g>
     </g>
     <g id="text_3">
      <!-- 20 -->
      <g transform="translate(207.922273 257.516563) scale(0.1 -0.1)">
       <defs>
        <path id="DejaVuSans-32" d="M 1228 531 
L 3431 531 
L 3431 0 
L 469 0 
L 469 531 
Q 828 903 1448 1529 
Q 2069 2156 2228 2338 
Q 2531 2678 2651 2914 
Q 2772 3150 2772 3378 
Q 2772 3750 2511 3984 
Q 2250 4219 1831 4219 
Q 1534 4219 1204 4116 
Q 875 4013 500 3803 
L 500 4441 
Q 881 4594 1212 4672 
Q 1544 4750 1819 4750 
Q 2544 4750 2975 4387 
Q 3406 4025 3406 3419 
Q 3406 3131 3298 2873 
Q 3191 2616 2906 2266 
Q 2828 2175 2409 1742 
Q 1991 1309 1228 531 
z
" transform="scale(0.015625)"/>
       </defs>
       <use xlink:href="#DejaVuSans-32"/>
       <use xlink:href="#DejaVuSans-30" transform="translate(63.623047 0)"/>
      </g>
     </g>
    </g>
    <g id="xtick_4">
     <g id="line2d_4">
      <g>
       <use xlink:href="#md21e492aaa" x="287.77767" y="242.918125" style="stroke: #000000; stroke-width: 0.8"/>
      </g>
     </g>
     <g id="text_4">
      <!-- 30 -->
      <g transform="translate(281.41517 257.516563) scale(0.1 -0.1)">
       <defs>
        <path id="DejaVuSans-33" d="M 2597 2516 
Q 3050 2419 3304 2112 
Q 3559 1806 3559 1356 
Q 3559 666 3084 287 
Q 2609 -91 1734 -91 
Q 1441 -91 1130 -33 
Q 819 25 488 141 
L 488 750 
Q 750 597 1062 519 
Q 1375 441 1716 441 
Q 2309 441 2620 675 
Q 2931 909 2931 1356 
Q 2931 1769 2642 2001 
Q 2353 2234 1838 2234 
L 1294 2234 
L 1294 2753 
L 1863 2753 
Q 2328 2753 2575 2939 
Q 2822 3125 2822 3475 
Q 2822 3834 2567 4026 
Q 2313 4219 1838 4219 
Q 1578 4219 1281 4162 
Q 984 4106 628 3988 
L 628 4550 
Q 988 4650 1302 4700 
Q 1616 4750 1894 4750 
Q 2613 4750 3031 4423 
Q 3450 4097 3450 3541 
Q 3450 3153 3228 2886 
Q 3006 2619 2597 2516 
z
" transform="scale(0.015625)"/>
       </defs>
       <use xlink:href="#DejaVuSans-33"/>
       <use xlink:href="#DejaVuSans-30" transform="translate(63.623047 0)"/>
      </g>
     </g>
    </g>
    <g id="xtick_5">
     <g id="line2d_5">
      <g>
       <use xlink:href="#md21e492aaa" x="361.270568" y="242.918125" style="stroke: #000000; stroke-width: 0.8"/>
      </g>
     </g>
     <g id="text_5">
      <!-- 40 -->
      <g transform="translate(354.908068 257.516563) scale(0.1 -0.1)">
       <defs>
        <path id="DejaVuSans-34" d="M 2419 4116 
L 825 1625 
L 2419 1625 
L 2419 4116 
z
M 2253 4666 
L 3047 4666 
L 3047 1625 
L 3713 1625 
L 3713 1100 
L 3047 1100 
L 3047 0 
L 2419 0 
L 2419 1100 
L 313 1100 
L 313 1709 
L 2253 4666 
z
" transform="scale(0.015625)"/>
       </defs>
       <use xlink:href="#DejaVuSans-34"/>
       <use xlink:href="#DejaVuSans-30" transform="translate(63.623047 0)"/>
      </g>
     </g>
    </g>
    <g id="xtick_6">
     <g id="line2d_6">
      <g>
       <use xlink:href="#md21e492aaa" x="434.763466" y="242.918125" style="stroke: #000000; stroke-width: 0.8"/>
      </g>
     </g>
     <g id="text_6">
      <!-- 50 -->
      <g transform="translate(428.400966 257.516563) scale(0.1 -0.1)">
       <defs>
        <path id="DejaVuSans-35" d="M 691 4666 
L 3169 4666 
L 3169 4134 
L 1269 4134 
L 1269 2991 
Q 1406 3038 1543 3061 
Q 1681 3084 1819 3084 
Q 2600 3084 3056 2656 
Q 3513 2228 3513 1497 
Q 3513 744 3044 326 
Q 2575 -91 1722 -91 
Q 1428 -91 1123 -41 
Q 819 9 494 109 
L 494 744 
Q 775 591 1075 516 
Q 1375 441 1709 441 
Q 2250 441 2565 725 
Q 2881 1009 2881 1497 
Q 2881 1984 2565 2268 
Q 2250 2553 1709 2553 
Q 1456 2553 1204 2497 
Q 953 2441 691 2322 
L 691 4666 
z
" transform="scale(0.015625)"/>
       </defs>
       <use xlink:href="#DejaVuSans-35"/>
       <use xlink:href="#DejaVuSans-30" transform="translate(63.623047 0)"/>
      </g>
     </g>
    </g>
    <g id="xtick_7">
     <g id="line2d_7">
      <g>
       <use xlink:href="#md21e492aaa" x="508.256364" y="242.918125" style="stroke: #000000; stroke-width: 0.8"/>
      </g>
     </g>
     <g id="text_7">
      <!-- 60 -->
      <g transform="translate(501.893864 257.516563) scale(0.1 -0.1)">
       <defs>
        <path id="DejaVuSans-36" d="M 2113 2584 
Q 1688 2584 1439 2293 
Q 1191 2003 1191 1497 
Q 1191 994 1439 701 
Q 1688 409 2113 409 
Q 2538 409 2786 701 
Q 3034 994 3034 1497 
Q 3034 2003 2786 2293 
Q 2538 2584 2113 2584 
z
M 3366 4563 
L 3366 3988 
Q 3128 4100 2886 4159 
Q 2644 4219 2406 4219 
Q 1781 4219 1451 3797 
Q 1122 3375 1075 2522 
Q 1259 2794 1537 2939 
Q 1816 3084 2150 3084 
Q 2853 3084 3261 2657 
Q 3669 2231 3669 1497 
Q 3669 778 3244 343 
Q 2819 -91 2113 -91 
Q 1303 -91 875 529 
Q 447 1150 447 2328 
Q 447 3434 972 4092 
Q 1497 4750 2381 4750 
Q 2619 4750 2861 4703 
Q 3103 4656 3366 4563 
z
" transform="scale(0.015625)"/>
       </defs>
       <use xlink:href="#DejaVuSans-36"/>
       <use xlink:href="#DejaVuSans-30" transform="translate(63.623047 0)"/>
      </g>
     </g>
    </g>
    <g id="text_8">
     <!-- Number of Components -->
     <g transform="translate(242.759062 271.194687) scale(0.1 -0.1)">
      <defs>
       <path id="DejaVuSans-4e" d="M 628 4666 
L 1478 4666 
L 3547 763 
L 3547 4666 
L 4159 4666 
L 4159 0 
L 3309 0 
L 1241 3903 
L 1241 0 
L 628 0 
L 628 4666 
z
" transform="scale(0.015625)"/>
       <path id="DejaVuSans-75" d="M 544 1381 
L 544 3500 
L 1119 3500 
L 1119 1403 
Q 1119 906 1312 657 
Q 1506 409 1894 409 
Q 2359 409 2629 706 
Q 2900 1003 2900 1516 
L 2900 3500 
L 3475 3500 
L 3475 0 
L 2900 0 
L 2900 538 
Q 2691 219 2414 64 
Q 2138 -91 1772 -91 
Q 1169 -91 856 284 
Q 544 659 544 1381 
z
M 1991 3584 
L 1991 3584 
z
" transform="scale(0.015625)"/>
       <path id="DejaVuSans-6d" d="M 3328 2828 
Q 3544 3216 3844 3400 
Q 4144 3584 4550 3584 
Q 5097 3584 5394 3201 
Q 5691 2819 5691 2113 
L 5691 0 
L 5113 0 
L 5113 2094 
Q 5113 2597 4934 2840 
Q 4756 3084 4391 3084 
Q 3944 3084 3684 2787 
Q 3425 2491 3425 1978 
L 3425 0 
L 2847 0 
L 2847 2094 
Q 2847 2600 2669 2842 
Q 2491 3084 2119 3084 
Q 1678 3084 1418 2786 
Q 1159 2488 1159 1978 
L 1159 0 
L 581 0 
L 581 3500 
L 1159 3500 
L 1159 2956 
Q 1356 3278 1631 3431 
Q 1906 3584 2284 3584 
Q 2666 3584 2933 3390 
Q 3200 3197 3328 2828 
z
" transform="scale(0.015625)"/>
       <path id="DejaVuSans-62" d="M 3116 1747 
Q 3116 2381 2855 2742 
Q 2594 3103 2138 3103 
Q 1681 3103 1420 2742 
Q 1159 2381 1159 1747 
Q 1159 1113 1420 752 
Q 1681 391 2138 391 
Q 2594 391 2855 752 
Q 3116 1113 3116 1747 
z
M 1159 2969 
Q 1341 3281 1617 3432 
Q 1894 3584 2278 3584 
Q 2916 3584 3314 3078 
Q 3713 2572 3713 1747 
Q 3713 922 3314 415 
Q 2916 -91 2278 -91 
Q 1894 -91 1617 61 
Q 1341 213 1159 525 
L 1159 0 
L 581 0 
L 581 4863 
L 1159 4863 
L 1159 2969 
z
" transform="scale(0.015625)"/>
       <path id="DejaVuSans-65" d="M 3597 1894 
L 3597 1613 
L 953 1613 
Q 991 1019 1311 708 
Q 1631 397 2203 397 
Q 2534 397 2845 478 
Q 3156 559 3463 722 
L 3463 178 
Q 3153 47 2828 -22 
Q 2503 -91 2169 -91 
Q 1331 -91 842 396 
Q 353 884 353 1716 
Q 353 2575 817 3079 
Q 1281 3584 2069 3584 
Q 2775 3584 3186 3129 
Q 3597 2675 3597 1894 
z
M 3022 2063 
Q 3016 2534 2758 2815 
Q 2500 3097 2075 3097 
Q 1594 3097 1305 2825 
Q 1016 2553 972 2059 
L 3022 2063 
z
" transform="scale(0.015625)"/>
       <path id="DejaVuSans-72" d="M 2631 2963 
Q 2534 3019 2420 3045 
Q 2306 3072 2169 3072 
Q 1681 3072 1420 2755 
Q 1159 2438 1159 1844 
L 1159 0 
L 581 0 
L 581 3500 
L 1159 3500 
L 1159 2956 
Q 1341 3275 1631 3429 
Q 1922 3584 2338 3584 
Q 2397 3584 2469 3576 
Q 2541 3569 2628 3553 
L 2631 2963 
z
" transform="scale(0.015625)"/>
       <path id="DejaVuSans-20" transform="scale(0.015625)"/>
       <path id="DejaVuSans-6f" d="M 1959 3097 
Q 1497 3097 1228 2736 
Q 959 2375 959 1747 
Q 959 1119 1226 758 
Q 1494 397 1959 397 
Q 2419 397 2687 759 
Q 2956 1122 2956 1747 
Q 2956 2369 2687 2733 
Q 2419 3097 1959 3097 
z
M 1959 3584 
Q 2709 3584 3137 3096 
Q 3566 2609 3566 1747 
Q 3566 888 3137 398 
Q 2709 -91 1959 -91 
Q 1206 -91 779 398 
Q 353 888 353 1747 
Q 353 2609 779 3096 
Q 1206 3584 1959 3584 
z
" transform="scale(0.015625)"/>
       <path id="DejaVuSans-66" d="M 2375 4863 
L 2375 4384 
L 1825 4384 
Q 1516 4384 1395 4259 
Q 1275 4134 1275 3809 
L 1275 3500 
L 2222 3500 
L 2222 3053 
L 1275 3053 
L 1275 0 
L 697 0 
L 697 3053 
L 147 3053 
L 147 3500 
L 697 3500 
L 697 3744 
Q 697 4328 969 4595 
Q 1241 4863 1831 4863 
L 2375 4863 
z
" transform="scale(0.015625)"/>
       <path id="DejaVuSans-43" d="M 4122 4306 
L 4122 3641 
Q 3803 3938 3442 4084 
Q 3081 4231 2675 4231 
Q 1875 4231 1450 3742 
Q 1025 3253 1025 2328 
Q 1025 1406 1450 917 
Q 1875 428 2675 428 
Q 3081 428 3442 575 
Q 3803 722 4122 1019 
L 4122 359 
Q 3791 134 3420 21 
Q 3050 -91 2638 -91 
Q 1578 -91 968 557 
Q 359 1206 359 2328 
Q 359 3453 968 4101 
Q 1578 4750 2638 4750 
Q 3056 4750 3426 4639 
Q 3797 4528 4122 4306 
z
" transform="scale(0.015625)"/>
       <path id="DejaVuSans-70" d="M 1159 525 
L 1159 -1331 
L 581 -1331 
L 581 3500 
L 1159 3500 
L 1159 2969 
Q 1341 3281 1617 3432 
Q 1894 3584 2278 3584 
Q 2916 3584 3314 3078 
Q 3713 2572 3713 1747 
Q 3713 922 3314 415 
Q 2916 -91 2278 -91 
Q 1894 -91 1617 61 
Q 1341 213 1159 525 
z
M 3116 1747 
Q 3116 2381 2855 2742 
Q 2594 3103 2138 3103 
Q 1681 3103 1420 2742 
Q 1159 2381 1159 1747 
Q 1159 1113 1420 752 
Q 1681 391 2138 391 
Q 2594 391 2855 752 
Q 3116 1113 3116 1747 
z
" transform="scale(0.015625)"/>
       <path id="DejaVuSans-6e" d="M 3513 2113 
L 3513 0 
L 2938 0 
L 2938 2094 
Q 2938 2591 2744 2837 
Q 2550 3084 2163 3084 
Q 1697 3084 1428 2787 
Q 1159 2491 1159 1978 
L 1159 0 
L 581 0 
L 581 3500 
L 1159 3500 
L 1159 2956 
Q 1366 3272 1645 3428 
Q 1925 3584 2291 3584 
Q 2894 3584 3203 3211 
Q 3513 2838 3513 2113 
z
" transform="scale(0.015625)"/>
       <path id="DejaVuSans-74" d="M 1172 4494 
L 1172 3500 
L 2356 3500 
L 2356 3053 
L 1172 3053 
L 1172 1153 
Q 1172 725 1289 603 
Q 1406 481 1766 481 
L 2356 481 
L 2356 0 
L 1766 0 
Q 1100 0 847 248 
Q 594 497 594 1153 
L 594 3053 
L 172 3053 
L 172 3500 
L 594 3500 
L 594 4494 
L 1172 4494 
z
" transform="scale(0.015625)"/>
       <path id="DejaVuSans-73" d="M 2834 3397 
L 2834 2853 
Q 2591 2978 2328 3040 
Q 2066 3103 1784 3103 
Q 1356 3103 1142 2972 
Q 928 2841 928 2578 
Q 928 2378 1081 2264 
Q 1234 2150 1697 2047 
L 1894 2003 
Q 2506 1872 2764 1633 
Q 3022 1394 3022 966 
Q 3022 478 2636 193 
Q 2250 -91 1575 -91 
Q 1294 -91 989 -36 
Q 684 19 347 128 
L 347 722 
Q 666 556 975 473 
Q 1284 391 1588 391 
Q 1994 391 2212 530 
Q 2431 669 2431 922 
Q 2431 1156 2273 1281 
Q 2116 1406 1581 1522 
L 1381 1569 
Q 847 1681 609 1914 
Q 372 2147 372 2553 
Q 372 3047 722 3315 
Q 1072 3584 1716 3584 
Q 2034 3584 2315 3537 
Q 2597 3491 2834 3397 
z
" transform="scale(0.015625)"/>
      </defs>
      <use xlink:href="#DejaVuSans-4e"/>
      <use xlink:href="#DejaVuSans-75" transform="translate(74.804688 0)"/>
      <use xlink:href="#DejaVuSans-6d" transform="translate(138.183594 0)"/>
      <use xlink:href="#DejaVuSans-62" transform="translate(235.595703 0)"/>
      <use xlink:href="#DejaVuSans-65" transform="translate(299.072266 0)"/>
      <use xlink:href="#DejaVuSans-72" transform="translate(360.595703 0)"/>
      <use xlink:href="#DejaVuSans-20" transform="translate(401.708984 0)"/>
      <use xlink:href="#DejaVuSans-6f" transform="translate(433.496094 0)"/>
      <use xlink:href="#DejaVuSans-66" transform="translate(494.677734 0)"/>
      <use xlink:href="#DejaVuSans-20" transform="translate(529.882812 0)"/>
      <use xlink:href="#DejaVuSans-43" transform="translate(561.669922 0)"/>
      <use xlink:href="#DejaVuSans-6f" transform="translate(631.494141 0)"/>
      <use xlink:href="#DejaVuSans-6d" transform="translate(692.675781 0)"/>
      <use xlink:href="#DejaVuSans-70" transform="translate(790.087891 0)"/>
      <use xlink:href="#DejaVuSans-6f" transform="translate(853.564453 0)"/>
      <use xlink:href="#DejaVuSans-6e" transform="translate(914.746094 0)"/>
      <use xlink:href="#DejaVuSans-65" transform="translate(978.125 0)"/>
      <use xlink:href="#DejaVuSans-6e" transform="translate(1039.648438 0)"/>
      <use xlink:href="#DejaVuSans-74" transform="translate(1103.027344 0)"/>
      <use xlink:href="#DejaVuSans-73" transform="translate(1142.236328 0)"/>
     </g>
    </g>
   </g>
   <g id="matplotlib.axis_2">
    <g id="ytick_1">
     <g id="line2d_8">
      <defs>
       <path id="ma4c88d1380" d="M 0 0 
L -3.5 0 
" style="stroke: #000000; stroke-width: 0.8"/>
      </defs>
      <g>
       <use xlink:href="#ma4c88d1380" x="43.78125" y="232.890852" style="stroke: #000000; stroke-width: 0.8"/>
      </g>
     </g>
     <g id="text_9">
      <!-- 0.0 -->
      <g transform="translate(20.878125 236.690071) scale(0.1 -0.1)">
       <defs>
        <path id="DejaVuSans-2e" d="M 684 794 
L 1344 794 
L 1344 0 
L 684 0 
L 684 794 
z
" transform="scale(0.015625)"/>
       </defs>
       <use xlink:href="#DejaVuSans-30"/>
       <use xlink:href="#DejaVuSans-2e" transform="translate(63.623047 0)"/>
       <use xlink:href="#DejaVuSans-30" transform="translate(95.410156 0)"/>
      </g>
     </g>
    </g>
    <g id="ytick_2">
     <g id="line2d_9">
      <g>
       <use xlink:href="#ma4c88d1380" x="43.78125" y="191.713417" style="stroke: #000000; stroke-width: 0.8"/>
      </g>
     </g>
     <g id="text_10">
      <!-- 0.2 -->
      <g transform="translate(20.878125 195.512636) scale(0.1 -0.1)">
       <use xlink:href="#DejaVuSans-30"/>
       <use xlink:href="#DejaVuSans-2e" transform="translate(63.623047 0)"/>
       <use xlink:href="#DejaVuSans-32" transform="translate(95.410156 0)"/>
      </g>
     </g>
    </g>
    <g id="ytick_3">
     <g id="line2d_10">
      <g>
       <use xlink:href="#ma4c88d1380" x="43.78125" y="150.535983" style="stroke: #000000; stroke-width: 0.8"/>
      </g>
     </g>
     <g id="text_11">
      <!-- 0.4 -->
      <g transform="translate(20.878125 154.335201) scale(0.1 -0.1)">
       <use xlink:href="#DejaVuSans-30"/>
       <use xlink:href="#DejaVuSans-2e" transform="translate(63.623047 0)"/>
       <use xlink:href="#DejaVuSans-34" transform="translate(95.410156 0)"/>
      </g>
     </g>
    </g>
    <g id="ytick_4">
     <g id="line2d_11">
      <g>
       <use xlink:href="#ma4c88d1380" x="43.78125" y="109.358548" style="stroke: #000000; stroke-width: 0.8"/>
      </g>
     </g>
     <g id="text_12">
      <!-- 0.6 -->
      <g transform="translate(20.878125 113.157766) scale(0.1 -0.1)">
       <use xlink:href="#DejaVuSans-30"/>
       <use xlink:href="#DejaVuSans-2e" transform="translate(63.623047 0)"/>
       <use xlink:href="#DejaVuSans-36" transform="translate(95.410156 0)"/>
      </g>
     </g>
    </g>
    <g id="ytick_5">
     <g id="line2d_12">
      <g>
       <use xlink:href="#ma4c88d1380" x="43.78125" y="68.181113" style="stroke: #000000; stroke-width: 0.8"/>
      </g>
     </g>
     <g id="text_13">
      <!-- 0.8 -->
      <g transform="translate(20.878125 71.980332) scale(0.1 -0.1)">
       <defs>
        <path id="DejaVuSans-38" d="M 2034 2216 
Q 1584 2216 1326 1975 
Q 1069 1734 1069 1313 
Q 1069 891 1326 650 
Q 1584 409 2034 409 
Q 2484 409 2743 651 
Q 3003 894 3003 1313 
Q 3003 1734 2745 1975 
Q 2488 2216 2034 2216 
z
M 1403 2484 
Q 997 2584 770 2862 
Q 544 3141 544 3541 
Q 544 4100 942 4425 
Q 1341 4750 2034 4750 
Q 2731 4750 3128 4425 
Q 3525 4100 3525 3541 
Q 3525 3141 3298 2862 
Q 3072 2584 2669 2484 
Q 3125 2378 3379 2068 
Q 3634 1759 3634 1313 
Q 3634 634 3220 271 
Q 2806 -91 2034 -91 
Q 1263 -91 848 271 
Q 434 634 434 1313 
Q 434 1759 690 2068 
Q 947 2378 1403 2484 
z
M 1172 3481 
Q 1172 3119 1398 2916 
Q 1625 2713 2034 2713 
Q 2441 2713 2670 2916 
Q 2900 3119 2900 3481 
Q 2900 3844 2670 4047 
Q 2441 4250 2034 4250 
Q 1625 4250 1398 4047 
Q 1172 3844 1172 3481 
z
" transform="scale(0.015625)"/>
       </defs>
       <use xlink:href="#DejaVuSans-30"/>
       <use xlink:href="#DejaVuSans-2e" transform="translate(63.623047 0)"/>
       <use xlink:href="#DejaVuSans-38" transform="translate(95.410156 0)"/>
      </g>
     </g>
    </g>
    <g id="ytick_6">
     <g id="line2d_13">
      <g>
       <use xlink:href="#ma4c88d1380" x="43.78125" y="27.003678" style="stroke: #000000; stroke-width: 0.8"/>
      </g>
     </g>
     <g id="text_14">
      <!-- 1.0 -->
      <g transform="translate(20.878125 30.802897) scale(0.1 -0.1)">
       <use xlink:href="#DejaVuSans-31"/>
       <use xlink:href="#DejaVuSans-2e" transform="translate(63.623047 0)"/>
       <use xlink:href="#DejaVuSans-30" transform="translate(95.410156 0)"/>
      </g>
     </g>
    </g>
    <g id="text_15">
     <!-- Cumulative Variance -->
     <g transform="translate(14.798438 184.344688) rotate(-90) scale(0.1 -0.1)">
      <defs>
       <path id="DejaVuSans-6c" d="M 603 4863 
L 1178 4863 
L 1178 0 
L 603 0 
L 603 4863 
z
" transform="scale(0.015625)"/>
       <path id="DejaVuSans-61" d="M 2194 1759 
Q 1497 1759 1228 1600 
Q 959 1441 959 1056 
Q 959 750 1161 570 
Q 1363 391 1709 391 
Q 2188 391 2477 730 
Q 2766 1069 2766 1631 
L 2766 1759 
L 2194 1759 
z
M 3341 1997 
L 3341 0 
L 2766 0 
L 2766 531 
Q 2569 213 2275 61 
Q 1981 -91 1556 -91 
Q 1019 -91 701 211 
Q 384 513 384 1019 
Q 384 1609 779 1909 
Q 1175 2209 1959 2209 
L 2766 2209 
L 2766 2266 
Q 2766 2663 2505 2880 
Q 2244 3097 1772 3097 
Q 1472 3097 1187 3025 
Q 903 2953 641 2809 
L 641 3341 
Q 956 3463 1253 3523 
Q 1550 3584 1831 3584 
Q 2591 3584 2966 3190 
Q 3341 2797 3341 1997 
z
" transform="scale(0.015625)"/>
       <path id="DejaVuSans-69" d="M 603 3500 
L 1178 3500 
L 1178 0 
L 603 0 
L 603 3500 
z
M 603 4863 
L 1178 4863 
L 1178 4134 
L 603 4134 
L 603 4863 
z
" transform="scale(0.015625)"/>
       <path id="DejaVuSans-76" d="M 191 3500 
L 800 3500 
L 1894 563 
L 2988 3500 
L 3597 3500 
L 2284 0 
L 1503 0 
L 191 3500 
z
" transform="scale(0.015625)"/>
       <path id="DejaVuSans-56" d="M 1831 0 
L 50 4666 
L 709 4666 
L 2188 738 
L 3669 4666 
L 4325 4666 
L 2547 0 
L 1831 0 
z
" transform="scale(0.015625)"/>
       <path id="DejaVuSans-63" d="M 3122 3366 
L 3122 2828 
Q 2878 2963 2633 3030 
Q 2388 3097 2138 3097 
Q 1578 3097 1268 2742 
Q 959 2388 959 1747 
Q 959 1106 1268 751 
Q 1578 397 2138 397 
Q 2388 397 2633 464 
Q 2878 531 3122 666 
L 3122 134 
Q 2881 22 2623 -34 
Q 2366 -91 2075 -91 
Q 1284 -91 818 406 
Q 353 903 353 1747 
Q 353 2603 823 3093 
Q 1294 3584 2113 3584 
Q 2378 3584 2631 3529 
Q 2884 3475 3122 3366 
z
" transform="scale(0.015625)"/>
      </defs>
      <use xlink:href="#DejaVuSans-43"/>
      <use xlink:href="#DejaVuSans-75" transform="translate(69.824219 0)"/>
      <use xlink:href="#DejaVuSans-6d" transform="translate(133.203125 0)"/>
      <use xlink:href="#DejaVuSans-75" transform="translate(230.615234 0)"/>
      <use xlink:href="#DejaVuSans-6c" transform="translate(293.994141 0)"/>
      <use xlink:href="#DejaVuSans-61" transform="translate(321.777344 0)"/>
      <use xlink:href="#DejaVuSans-74" transform="translate(383.056641 0)"/>
      <use xlink:href="#DejaVuSans-69" transform="translate(422.265625 0)"/>
      <use xlink:href="#DejaVuSans-76" transform="translate(450.048828 0)"/>
      <use xlink:href="#DejaVuSans-65" transform="translate(509.228516 0)"/>
      <use xlink:href="#DejaVuSans-20" transform="translate(570.751953 0)"/>
      <use xlink:href="#DejaVuSans-56" transform="translate(602.539062 0)"/>
      <use xlink:href="#DejaVuSans-61" transform="translate(663.197266 0)"/>
      <use xlink:href="#DejaVuSans-72" transform="translate(724.476562 0)"/>
      <use xlink:href="#DejaVuSans-69" transform="translate(765.589844 0)"/>
      <use xlink:href="#DejaVuSans-61" transform="translate(793.373047 0)"/>
      <use xlink:href="#DejaVuSans-6e" transform="translate(854.652344 0)"/>
      <use xlink:href="#DejaVuSans-63" transform="translate(918.03125 0)"/>
      <use xlink:href="#DejaVuSans-65" transform="translate(973.011719 0)"/>
     </g>
    </g>
   </g>
   <g id="line2d_14">
    <path d="M 67.298977 232.890852 
L 74.648267 179.050012 
L 81.997557 142.459637 
L 89.346847 116.321384 
L 96.696136 97.947396 
L 104.045426 89.712567 
L 111.394716 84.395906 
L 118.744006 80.957008 
L 126.093295 78.113612 
L 133.442585 75.836304 
L 140.791875 73.976569 
L 148.141165 72.313343 
L 155.490455 70.919999 
L 162.839744 69.582345 
L 170.189034 68.401758 
L 177.538324 67.288359 
L 184.887614 66.278044 
L 192.236903 65.274134 
L 199.586193 64.297726 
L 206.935483 63.394605 
L 214.284773 62.525858 
L 221.634062 61.685016 
L 228.983352 60.865528 
L 236.332642 60.054421 
L 243.681932 59.252837 
L 251.031222 58.4844 
L 258.380511 57.718699 
L 265.729801 56.963637 
L 273.079091 56.216295 
L 280.428381 55.471886 
L 287.77767 54.744338 
L 295.12696 54.02257 
L 302.47625 53.304852 
L 309.82554 52.590975 
L 317.17483 51.886633 
L 324.524119 51.188072 
L 331.873409 50.496222 
L 339.222699 49.807466 
L 346.571989 49.122919 
L 353.921278 48.442728 
L 361.270568 47.763065 
L 368.619858 47.086445 
L 375.969148 46.410181 
L 383.318437 45.735783 
L 390.667727 45.065311 
L 398.017017 44.397637 
L 405.366307 43.733535 
L 412.715597 43.070832 
L 420.064886 42.40884 
L 427.414176 41.748517 
L 434.763466 41.090293 
L 442.112756 40.432388 
L 449.462045 39.779489 
L 456.811335 39.135648 
L 464.160625 38.492911 
L 471.509915 37.853867 
L 478.859205 37.222248 
L 486.208494 36.592286 
L 493.557784 35.970963 
L 500.907074 35.354402 
L 508.256364 34.740528 
L 515.605653 34.127599 
L 522.954943 33.524672 
L 530.304233 32.931243 
L 537.653523 32.345398 
" clip-path="url(#p11eed6837c)" style="fill: none; stroke: #1f77b4; stroke-width: 1.5; stroke-linecap: square"/>
    <defs>
     <path id="m6d234d98c9" d="M 0 3 
C 0.795609 3 1.55874 2.683901 2.12132 2.12132 
C 2.683901 1.55874 3 0.795609 3 0 
C 3 -0.795609 2.683901 -1.55874 2.12132 -2.12132 
C 1.55874 -2.683901 0.795609 -3 0 -3 
C -0.795609 -3 -1.55874 -2.683901 -2.12132 -2.12132 
C -2.683901 -1.55874 -3 -0.795609 -3 0 
C -3 0.795609 -2.683901 1.55874 -2.12132 2.12132 
C -1.55874 2.683901 -0.795609 3 0 3 
z
" style="stroke: #1f77b4"/>
    </defs>
    <g clip-path="url(#p11eed6837c)">
     <use xlink:href="#m6d234d98c9" x="67.298977" y="232.890852" style="fill: #1f77b4; stroke: #1f77b4"/>
     <use xlink:href="#m6d234d98c9" x="74.648267" y="179.050012" style="fill: #1f77b4; stroke: #1f77b4"/>
     <use xlink:href="#m6d234d98c9" x="81.997557" y="142.459637" style="fill: #1f77b4; stroke: #1f77b4"/>
     <use xlink:href="#m6d234d98c9" x="89.346847" y="116.321384" style="fill: #1f77b4; stroke: #1f77b4"/>
     <use xlink:href="#m6d234d98c9" x="96.696136" y="97.947396" style="fill: #1f77b4; stroke: #1f77b4"/>
     <use xlink:href="#m6d234d98c9" x="104.045426" y="89.712567" style="fill: #1f77b4; stroke: #1f77b4"/>
     <use xlink:href="#m6d234d98c9" x="111.394716" y="84.395906" style="fill: #1f77b4; stroke: #1f77b4"/>
     <use xlink:href="#m6d234d98c9" x="118.744006" y="80.957008" style="fill: #1f77b4; stroke: #1f77b4"/>
     <use xlink:href="#m6d234d98c9" x="126.093295" y="78.113612" style="fill: #1f77b4; stroke: #1f77b4"/>
     <use xlink:href="#m6d234d98c9" x="133.442585" y="75.836304" style="fill: #1f77b4; stroke: #1f77b4"/>
     <use xlink:href="#m6d234d98c9" x="140.791875" y="73.976569" style="fill: #1f77b4; stroke: #1f77b4"/>
     <use xlink:href="#m6d234d98c9" x="148.141165" y="72.313343" style="fill: #1f77b4; stroke: #1f77b4"/>
     <use xlink:href="#m6d234d98c9" x="155.490455" y="70.919999" style="fill: #1f77b4; stroke: #1f77b4"/>
     <use xlink:href="#m6d234d98c9" x="162.839744" y="69.582345" style="fill: #1f77b4; stroke: #1f77b4"/>
     <use xlink:href="#m6d234d98c9" x="170.189034" y="68.401758" style="fill: #1f77b4; stroke: #1f77b4"/>
     <use xlink:href="#m6d234d98c9" x="177.538324" y="67.288359" style="fill: #1f77b4; stroke: #1f77b4"/>
     <use xlink:href="#m6d234d98c9" x="184.887614" y="66.278044" style="fill: #1f77b4; stroke: #1f77b4"/>
     <use xlink:href="#m6d234d98c9" x="192.236903" y="65.274134" style="fill: #1f77b4; stroke: #1f77b4"/>
     <use xlink:href="#m6d234d98c9" x="199.586193" y="64.297726" style="fill: #1f77b4; stroke: #1f77b4"/>
     <use xlink:href="#m6d234d98c9" x="206.935483" y="63.394605" style="fill: #1f77b4; stroke: #1f77b4"/>
     <use xlink:href="#m6d234d98c9" x="214.284773" y="62.525858" style="fill: #1f77b4; stroke: #1f77b4"/>
     <use xlink:href="#m6d234d98c9" x="221.634062" y="61.685016" style="fill: #1f77b4; stroke: #1f77b4"/>
     <use xlink:href="#m6d234d98c9" x="228.983352" y="60.865528" style="fill: #1f77b4; stroke: #1f77b4"/>
     <use xlink:href="#m6d234d98c9" x="236.332642" y="60.054421" style="fill: #1f77b4; stroke: #1f77b4"/>
     <use xlink:href="#m6d234d98c9" x="243.681932" y="59.252837" style="fill: #1f77b4; stroke: #1f77b4"/>
     <use xlink:href="#m6d234d98c9" x="251.031222" y="58.4844" style="fill: #1f77b4; stroke: #1f77b4"/>
     <use xlink:href="#m6d234d98c9" x="258.380511" y="57.718699" style="fill: #1f77b4; stroke: #1f77b4"/>
     <use xlink:href="#m6d234d98c9" x="265.729801" y="56.963637" style="fill: #1f77b4; stroke: #1f77b4"/>
     <use xlink:href="#m6d234d98c9" x="273.079091" y="56.216295" style="fill: #1f77b4; stroke: #1f77b4"/>
     <use xlink:href="#m6d234d98c9" x="280.428381" y="55.471886" style="fill: #1f77b4; stroke: #1f77b4"/>
     <use xlink:href="#m6d234d98c9" x="287.77767" y="54.744338" style="fill: #1f77b4; stroke: #1f77b4"/>
     <use xlink:href="#m6d234d98c9" x="295.12696" y="54.02257" style="fill: #1f77b4; stroke: #1f77b4"/>
     <use xlink:href="#m6d234d98c9" x="302.47625" y="53.304852" style="fill: #1f77b4; stroke: #1f77b4"/>
     <use xlink:href="#m6d234d98c9" x="309.82554" y="52.590975" style="fill: #1f77b4; stroke: #1f77b4"/>
     <use xlink:href="#m6d234d98c9" x="317.17483" y="51.886633" style="fill: #1f77b4; stroke: #1f77b4"/>
     <use xlink:href="#m6d234d98c9" x="324.524119" y="51.188072" style="fill: #1f77b4; stroke: #1f77b4"/>
     <use xlink:href="#m6d234d98c9" x="331.873409" y="50.496222" style="fill: #1f77b4; stroke: #1f77b4"/>
     <use xlink:href="#m6d234d98c9" x="339.222699" y="49.807466" style="fill: #1f77b4; stroke: #1f77b4"/>
     <use xlink:href="#m6d234d98c9" x="346.571989" y="49.122919" style="fill: #1f77b4; stroke: #1f77b4"/>
     <use xlink:href="#m6d234d98c9" x="353.921278" y="48.442728" style="fill: #1f77b4; stroke: #1f77b4"/>
     <use xlink:href="#m6d234d98c9" x="361.270568" y="47.763065" style="fill: #1f77b4; stroke: #1f77b4"/>
     <use xlink:href="#m6d234d98c9" x="368.619858" y="47.086445" style="fill: #1f77b4; stroke: #1f77b4"/>
     <use xlink:href="#m6d234d98c9" x="375.969148" y="46.410181" style="fill: #1f77b4; stroke: #1f77b4"/>
     <use xlink:href="#m6d234d98c9" x="383.318437" y="45.735783" style="fill: #1f77b4; stroke: #1f77b4"/>
     <use xlink:href="#m6d234d98c9" x="390.667727" y="45.065311" style="fill: #1f77b4; stroke: #1f77b4"/>
     <use xlink:href="#m6d234d98c9" x="398.017017" y="44.397637" style="fill: #1f77b4; stroke: #1f77b4"/>
     <use xlink:href="#m6d234d98c9" x="405.366307" y="43.733535" style="fill: #1f77b4; stroke: #1f77b4"/>
     <use xlink:href="#m6d234d98c9" x="412.715597" y="43.070832" style="fill: #1f77b4; stroke: #1f77b4"/>
     <use xlink:href="#m6d234d98c9" x="420.064886" y="42.40884" style="fill: #1f77b4; stroke: #1f77b4"/>
     <use xlink:href="#m6d234d98c9" x="427.414176" y="41.748517" style="fill: #1f77b4; stroke: #1f77b4"/>
     <use xlink:href="#m6d234d98c9" x="434.763466" y="41.090293" style="fill: #1f77b4; stroke: #1f77b4"/>
     <use xlink:href="#m6d234d98c9" x="442.112756" y="40.432388" style="fill: #1f77b4; stroke: #1f77b4"/>
     <use xlink:href="#m6d234d98c9" x="449.462045" y="39.779489" style="fill: #1f77b4; stroke: #1f77b4"/>
     <use xlink:href="#m6d234d98c9" x="456.811335" y="39.135648" style="fill: #1f77b4; stroke: #1f77b4"/>
     <use xlink:href="#m6d234d98c9" x="464.160625" y="38.492911" style="fill: #1f77b4; stroke: #1f77b4"/>
     <use xlink:href="#m6d234d98c9" x="471.509915" y="37.853867" style="fill: #1f77b4; stroke: #1f77b4"/>
     <use xlink:href="#m6d234d98c9" x="478.859205" y="37.222248" style="fill: #1f77b4; stroke: #1f77b4"/>
     <use xlink:href="#m6d234d98c9" x="486.208494" y="36.592286" style="fill: #1f77b4; stroke: #1f77b4"/>
     <use xlink:href="#m6d234d98c9" x="493.557784" y="35.970963" style="fill: #1f77b4; stroke: #1f77b4"/>
     <use xlink:href="#m6d234d98c9" x="500.907074" y="35.354402" style="fill: #1f77b4; stroke: #1f77b4"/>
     <use xlink:href="#m6d234d98c9" x="508.256364" y="34.740528" style="fill: #1f77b4; stroke: #1f77b4"/>
     <use xlink:href="#m6d234d98c9" x="515.605653" y="34.127599" style="fill: #1f77b4; stroke: #1f77b4"/>
     <use xlink:href="#m6d234d98c9" x="522.954943" y="33.524672" style="fill: #1f77b4; stroke: #1f77b4"/>
     <use xlink:href="#m6d234d98c9" x="530.304233" y="32.931243" style="fill: #1f77b4; stroke: #1f77b4"/>
     <use xlink:href="#m6d234d98c9" x="537.653523" y="32.345398" style="fill: #1f77b4; stroke: #1f77b4"/>
    </g>
   </g>
   <g id="line2d_15">
    <path d="M 111.394716 242.918125 
L 111.394716 22.318125 
" clip-path="url(#p11eed6837c)" style="fill: none; stroke-dasharray: 5.55,2.4; stroke-dashoffset: 0; stroke: #00bfff; stroke-width: 1.5"/>
   </g>
   <g id="line2d_16">
    <path d="M 111.394716 242.918125 
L 111.394716 22.318125 
" clip-path="url(#p11eed6837c)" style="fill: none; stroke-dasharray: 5.55,2.4; stroke-dashoffset: 0; stroke: #ff6347; stroke-width: 1.5"/>
   </g>
   <g id="patch_3">
    <path d="M 43.78125 242.918125 
L 43.78125 22.318125 
" style="fill: none; stroke: #000000; stroke-width: 0.8; stroke-linejoin: miter; stroke-linecap: square"/>
   </g>
   <g id="patch_4">
    <path d="M 561.17125 242.918125 
L 561.17125 22.318125 
" style="fill: none; stroke: #000000; stroke-width: 0.8; stroke-linejoin: miter; stroke-linecap: square"/>
   </g>
   <g id="patch_5">
    <path d="M 43.78125 242.918125 
L 561.17125 242.918125 
" style="fill: none; stroke: #000000; stroke-width: 0.8; stroke-linejoin: miter; stroke-linecap: square"/>
   </g>
   <g id="patch_6">
    <path d="M 43.78125 22.318125 
L 561.17125 22.318125 
" style="fill: none; stroke: #000000; stroke-width: 0.8; stroke-linejoin: miter; stroke-linecap: square"/>
   </g>
   <g id="text_16">
    <!-- Cumulative Explained Variance -->
    <g transform="translate(209.031875 16.318125) scale(0.12 -0.12)">
     <defs>
      <path id="DejaVuSans-45" d="M 628 4666 
L 3578 4666 
L 3578 4134 
L 1259 4134 
L 1259 2753 
L 3481 2753 
L 3481 2222 
L 1259 2222 
L 1259 531 
L 3634 531 
L 3634 0 
L 628 0 
L 628 4666 
z
" transform="scale(0.015625)"/>
      <path id="DejaVuSans-78" d="M 3513 3500 
L 2247 1797 
L 3578 0 
L 2900 0 
L 1881 1375 
L 863 0 
L 184 0 
L 1544 1831 
L 300 3500 
L 978 3500 
L 1906 2253 
L 2834 3500 
L 3513 3500 
z
" transform="scale(0.015625)"/>
      <path id="DejaVuSans-64" d="M 2906 2969 
L 2906 4863 
L 3481 4863 
L 3481 0 
L 2906 0 
L 2906 525 
Q 2725 213 2448 61 
Q 2172 -91 1784 -91 
Q 1150 -91 751 415 
Q 353 922 353 1747 
Q 353 2572 751 3078 
Q 1150 3584 1784 3584 
Q 2172 3584 2448 3432 
Q 2725 3281 2906 2969 
z
M 947 1747 
Q 947 1113 1208 752 
Q 1469 391 1925 391 
Q 2381 391 2643 752 
Q 2906 1113 2906 1747 
Q 2906 2381 2643 2742 
Q 2381 3103 1925 3103 
Q 1469 3103 1208 2742 
Q 947 2381 947 1747 
z
" transform="scale(0.015625)"/>
     </defs>
     <use xlink:href="#DejaVuSans-43"/>
     <use xlink:href="#DejaVuSans-75" transform="translate(69.824219 0)"/>
     <use xlink:href="#DejaVuSans-6d" transform="translate(133.203125 0)"/>
     <use xlink:href="#DejaVuSans-75" transform="translate(230.615234 0)"/>
     <use xlink:href="#DejaVuSans-6c" transform="translate(293.994141 0)"/>
     <use xlink:href="#DejaVuSans-61" transform="translate(321.777344 0)"/>
     <use xlink:href="#DejaVuSans-74" transform="translate(383.056641 0)"/>
     <use xlink:href="#DejaVuSans-69" transform="translate(422.265625 0)"/>
     <use xlink:href="#DejaVuSans-76" transform="translate(450.048828 0)"/>
     <use xlink:href="#DejaVuSans-65" transform="translate(509.228516 0)"/>
     <use xlink:href="#DejaVuSans-20" transform="translate(570.751953 0)"/>
     <use xlink:href="#DejaVuSans-45" transform="translate(602.539062 0)"/>
     <use xlink:href="#DejaVuSans-78" transform="translate(665.722656 0)"/>
     <use xlink:href="#DejaVuSans-70" transform="translate(724.902344 0)"/>
     <use xlink:href="#DejaVuSans-6c" transform="translate(788.378906 0)"/>
     <use xlink:href="#DejaVuSans-61" transform="translate(816.162109 0)"/>
     <use xlink:href="#DejaVuSans-69" transform="translate(877.441406 0)"/>
     <use xlink:href="#DejaVuSans-6e" transform="translate(905.224609 0)"/>
     <use xlink:href="#DejaVuSans-65" transform="translate(968.603516 0)"/>
     <use xlink:href="#DejaVuSans-64" transform="translate(1030.126953 0)"/>
     <use xlink:href="#DejaVuSans-20" transform="translate(1093.603516 0)"/>
     <use xlink:href="#DejaVuSans-56" transform="translate(1125.390625 0)"/>
     <use xlink:href="#DejaVuSans-61" transform="translate(1186.048828 0)"/>
     <use xlink:href="#DejaVuSans-72" transform="translate(1247.328125 0)"/>
     <use xlink:href="#DejaVuSans-69" transform="translate(1288.441406 0)"/>
     <use xlink:href="#DejaVuSans-61" transform="translate(1316.224609 0)"/>
     <use xlink:href="#DejaVuSans-6e" transform="translate(1377.503906 0)"/>
     <use xlink:href="#DejaVuSans-63" transform="translate(1440.882812 0)"/>
     <use xlink:href="#DejaVuSans-65" transform="translate(1495.863281 0)"/>
    </g>
   </g>
   <g id="legend_1">
    <g id="patch_7">
     <path d="M 465.90875 237.918125 
L 554.17125 237.918125 
Q 556.17125 237.918125 556.17125 235.918125 
L 556.17125 207.561875 
Q 556.17125 205.561875 554.17125 205.561875 
L 465.90875 205.561875 
Q 463.90875 205.561875 463.90875 207.561875 
L 463.90875 235.918125 
Q 463.90875 237.918125 465.90875 237.918125 
z
" style="fill: #ffffff; opacity: 0.8; stroke: #cccccc; stroke-linejoin: miter"/>
    </g>
    <g id="line2d_17">
     <path d="M 467.90875 213.660313 
L 477.90875 213.660313 
L 487.90875 213.660313 
" style="fill: none; stroke-dasharray: 5.55,2.4; stroke-dashoffset: 0; stroke: #00bfff; stroke-width: 1.5"/>
    </g>
    <g id="text_17">
     <!-- Corner: 6 -->
     <g transform="translate(495.90875 217.160313) scale(0.1 -0.1)">
      <defs>
       <path id="DejaVuSans-3a" d="M 750 794 
L 1409 794 
L 1409 0 
L 750 0 
L 750 794 
z
M 750 3309 
L 1409 3309 
L 1409 2516 
L 750 2516 
L 750 3309 
z
" transform="scale(0.015625)"/>
      </defs>
      <use xlink:href="#DejaVuSans-43"/>
      <use xlink:href="#DejaVuSans-6f" transform="translate(69.824219 0)"/>
      <use xlink:href="#DejaVuSans-72" transform="translate(131.005859 0)"/>
      <use xlink:href="#DejaVuSans-6e" transform="translate(170.369141 0)"/>
      <use xlink:href="#DejaVuSans-65" transform="translate(233.748047 0)"/>
      <use xlink:href="#DejaVuSans-72" transform="translate(295.271484 0)"/>
      <use xlink:href="#DejaVuSans-3a" transform="translate(334.634766 0)"/>
      <use xlink:href="#DejaVuSans-20" transform="translate(368.326172 0)"/>
      <use xlink:href="#DejaVuSans-36" transform="translate(400.113281 0)"/>
     </g>
    </g>
    <g id="line2d_18">
     <path d="M 467.90875 228.338437 
L 477.90875 228.338437 
L 487.90875 228.338437 
" style="fill: none; stroke-dasharray: 5.55,2.4; stroke-dashoffset: 0; stroke: #ff6347; stroke-width: 1.5"/>
    </g>
    <g id="text_18">
     <!-- Selected: 6 -->
     <g transform="translate(495.90875 231.838437) scale(0.1 -0.1)">
      <defs>
       <path id="DejaVuSans-53" d="M 3425 4513 
L 3425 3897 
Q 3066 4069 2747 4153 
Q 2428 4238 2131 4238 
Q 1616 4238 1336 4038 
Q 1056 3838 1056 3469 
Q 1056 3159 1242 3001 
Q 1428 2844 1947 2747 
L 2328 2669 
Q 3034 2534 3370 2195 
Q 3706 1856 3706 1288 
Q 3706 609 3251 259 
Q 2797 -91 1919 -91 
Q 1588 -91 1214 -16 
Q 841 59 441 206 
L 441 856 
Q 825 641 1194 531 
Q 1563 422 1919 422 
Q 2459 422 2753 634 
Q 3047 847 3047 1241 
Q 3047 1584 2836 1778 
Q 2625 1972 2144 2069 
L 1759 2144 
Q 1053 2284 737 2584 
Q 422 2884 422 3419 
Q 422 4038 858 4394 
Q 1294 4750 2059 4750 
Q 2388 4750 2728 4690 
Q 3069 4631 3425 4513 
z
" transform="scale(0.015625)"/>
      </defs>
      <use xlink:href="#DejaVuSans-53"/>
      <use xlink:href="#DejaVuSans-65" transform="translate(63.476562 0)"/>
      <use xlink:href="#DejaVuSans-6c" transform="translate(125 0)"/>
      <use xlink:href="#DejaVuSans-65" transform="translate(152.783203 0)"/>
      <use xlink:href="#DejaVuSans-63" transform="translate(214.306641 0)"/>
      <use xlink:href="#DejaVuSans-74" transform="translate(269.287109 0)"/>
      <use xlink:href="#DejaVuSans-65" transform="translate(308.496094 0)"/>
      <use xlink:href="#DejaVuSans-64" transform="translate(370.019531 0)"/>
      <use xlink:href="#DejaVuSans-3a" transform="translate(433.496094 0)"/>
      <use xlink:href="#DejaVuSans-20" transform="translate(467.1875 0)"/>
      <use xlink:href="#DejaVuSans-36" transform="translate(498.974609 0)"/>
     </g>
    </g>
   </g>
  </g>
 </g>
 <defs>
  <clipPath id="p11eed6837c">
   <rect x="43.78125" y="22.318125" width="517.39" height="220.6"/>
  </clipPath>
 </defs>
</svg>
