<?xml version="1.0" encoding="utf-8" standalone="no"?>
<!DOCTYPE svg PUBLIC "-//W3C//DTD SVG 1.1//EN"
  "http://www.w3.org/Graphics/SVG/1.1/DTD/svg11.dtd">
<svg xmlns:xlink="http://www.w3.org/1999/xlink" width="856.782812pt" height="1072.87625pt" viewBox="0 0 856.782812 1072.87625" xmlns="http://www.w3.org/2000/svg" version="1.1">
 <metadata>
  <rdf:RDF xmlns:dc="http://purl.org/dc/elements/1.1/" xmlns:cc="http://creativecommons.org/ns#" xmlns:rdf="http://www.w3.org/1999/02/22-rdf-syntax-ns#">
   <cc:Work>
    <dc:type rdf:resource="http://purl.org/dc/dcmitype/StillImage"/>
    <dc:date>2025-06-13T15:13:49.228189</dc:date>
    <dc:format>image/svg+xml</dc:format>
    <dc:creator>
     <cc:Agent>
      <dc:title>Matplotlib v3.10.0, https://matplotlib.org/</dc:title>
     </cc:Agent>
    </dc:creator>
   </cc:Work>
  </rdf:RDF>
 </metadata>
 <defs>
  <style type="text/css">*{stroke-linejoin: round; stroke-linecap: butt}</style>
 </defs>
 <g id="figure_1">
  <g id="patch_1">
   <path d="M -0 1072.87625 
L 856.782812 1072.87625 
L 856.782812 0 
L -0 0 
z
" style="fill: #ffffff"/>
  </g>
  <g id="axes_1">
   <g id="patch_2">
    <path d="M 38.482813 169.314792 
L 849.582813 169.314792 
L 849.582813 22.318125 
L 38.482813 22.318125 
z
" style="fill: #ffffff"/>
   </g>
   <g id="matplotlib.axis_1">
    <g id="xtick_1">
     <g id="line2d_1">
      <defs>
       <path id="mbd0471b7d7" d="M 0 0 
L 0 3.5 
" style="stroke: #000000; stroke-width: 0.8"/>
      </defs>
      <g>
       <use xlink:href="#mbd0471b7d7" x="75.350994" y="169.314792" style="stroke: #000000; stroke-width: 0.8"/>
      </g>
     </g>
    </g>
    <g id="xtick_2">
     <g id="line2d_2">
      <g>
       <use xlink:href="#mbd0471b7d7" x="191.471252" y="169.314792" style="stroke: #000000; stroke-width: 0.8"/>
      </g>
     </g>
    </g>
    <g id="xtick_3">
     <g id="line2d_3">
      <g>
       <use xlink:href="#mbd0471b7d7" x="307.59151" y="169.314792" style="stroke: #000000; stroke-width: 0.8"/>
      </g>
     </g>
    </g>
    <g id="xtick_4">
     <g id="line2d_4">
      <g>
       <use xlink:href="#mbd0471b7d7" x="423.711767" y="169.314792" style="stroke: #000000; stroke-width: 0.8"/>
      </g>
     </g>
    </g>
    <g id="xtick_5">
     <g id="line2d_5">
      <g>
       <use xlink:href="#mbd0471b7d7" x="539.832025" y="169.314792" style="stroke: #000000; stroke-width: 0.8"/>
      </g>
     </g>
    </g>
    <g id="xtick_6">
     <g id="line2d_6">
      <g>
       <use xlink:href="#mbd0471b7d7" x="655.952283" y="169.314792" style="stroke: #000000; stroke-width: 0.8"/>
      </g>
     </g>
    </g>
    <g id="xtick_7">
     <g id="line2d_7">
      <g>
       <use xlink:href="#mbd0471b7d7" x="772.07254" y="169.314792" style="stroke: #000000; stroke-width: 0.8"/>
      </g>
     </g>
    </g>
   </g>
   <g id="matplotlib.axis_2">
    <g id="ytick_1">
     <g id="line2d_8">
      <defs>
       <path id="m9bdef0d5f2" d="M 0 0 
L -3.5 0 
" style="stroke: #000000; stroke-width: 0.8"/>
      </defs>
      <g>
       <use xlink:href="#m9bdef0d5f2" x="38.482813" y="157.182663" style="stroke: #000000; stroke-width: 0.8"/>
      </g>
     </g>
     <g id="text_1">
      <!-- −0.2 -->
      <g transform="translate(7.2 160.981882) scale(0.1 -0.1)">
       <defs>
        <path id="DejaVuSans-2212" d="M 678 2272 
L 4684 2272 
L 4684 1741 
L 678 1741 
L 678 2272 
z
" transform="scale(0.015625)"/>
        <path id="DejaVuSans-30" d="M 2034 4250 
Q 1547 4250 1301 3770 
Q 1056 3291 1056 2328 
Q 1056 1369 1301 889 
Q 1547 409 2034 409 
Q 2525 409 2770 889 
Q 3016 1369 3016 2328 
Q 3016 3291 2770 3770 
Q 2525 4250 2034 4250 
z
M 2034 4750 
Q 2819 4750 3233 4129 
Q 3647 3509 3647 2328 
Q 3647 1150 3233 529 
Q 2819 -91 2034 -91 
Q 1250 -91 836 529 
Q 422 1150 422 2328 
Q 422 3509 836 4129 
Q 1250 4750 2034 4750 
z
" transform="scale(0.015625)"/>
        <path id="DejaVuSans-2e" d="M 684 794 
L 1344 794 
L 1344 0 
L 684 0 
L 684 794 
z
" transform="scale(0.015625)"/>
        <path id="DejaVuSans-32" d="M 1228 531 
L 3431 531 
L 3431 0 
L 469 0 
L 469 531 
Q 828 903 1448 1529 
Q 2069 2156 2228 2338 
Q 2531 2678 2651 2914 
Q 2772 3150 2772 3378 
Q 2772 3750 2511 3984 
Q 2250 4219 1831 4219 
Q 1534 4219 1204 4116 
Q 875 4013 500 3803 
L 500 4441 
Q 881 4594 1212 4672 
Q 1544 4750 1819 4750 
Q 2544 4750 2975 4387 
Q 3406 4025 3406 3419 
Q 3406 3131 3298 2873 
Q 3191 2616 2906 2266 
Q 2828 2175 2409 1742 
Q 1991 1309 1228 531 
z
" transform="scale(0.015625)"/>
       </defs>
       <use xlink:href="#DejaVuSans-2212"/>
       <use xlink:href="#DejaVuSans-30" transform="translate(83.789062 0)"/>
       <use xlink:href="#DejaVuSans-2e" transform="translate(147.412109 0)"/>
       <use xlink:href="#DejaVuSans-32" transform="translate(179.199219 0)"/>
      </g>
     </g>
    </g>
    <g id="ytick_2">
     <g id="line2d_9">
      <g>
       <use xlink:href="#m9bdef0d5f2" x="38.482813" y="130.563997" style="stroke: #000000; stroke-width: 0.8"/>
      </g>
     </g>
     <g id="text_2">
      <!-- −0.1 -->
      <g transform="translate(7.2 134.363216) scale(0.1 -0.1)">
       <defs>
        <path id="DejaVuSans-31" d="M 794 531 
L 1825 531 
L 1825 4091 
L 703 3866 
L 703 4441 
L 1819 4666 
L 2450 4666 
L 2450 531 
L 3481 531 
L 3481 0 
L 794 0 
L 794 531 
z
" transform="scale(0.015625)"/>
       </defs>
       <use xlink:href="#DejaVuSans-2212"/>
       <use xlink:href="#DejaVuSans-30" transform="translate(83.789062 0)"/>
       <use xlink:href="#DejaVuSans-2e" transform="translate(147.412109 0)"/>
       <use xlink:href="#DejaVuSans-31" transform="translate(179.199219 0)"/>
      </g>
     </g>
    </g>
    <g id="ytick_3">
     <g id="line2d_10">
      <g>
       <use xlink:href="#m9bdef0d5f2" x="38.482813" y="103.945332" style="stroke: #000000; stroke-width: 0.8"/>
      </g>
     </g>
     <g id="text_3">
      <!-- 0.0 -->
      <g transform="translate(15.579688 107.744551) scale(0.1 -0.1)">
       <use xlink:href="#DejaVuSans-30"/>
       <use xlink:href="#DejaVuSans-2e" transform="translate(63.623047 0)"/>
       <use xlink:href="#DejaVuSans-30" transform="translate(95.410156 0)"/>
      </g>
     </g>
    </g>
    <g id="ytick_4">
     <g id="line2d_11">
      <g>
       <use xlink:href="#m9bdef0d5f2" x="38.482813" y="77.326666" style="stroke: #000000; stroke-width: 0.8"/>
      </g>
     </g>
     <g id="text_4">
      <!-- 0.1 -->
      <g transform="translate(15.579688 81.125885) scale(0.1 -0.1)">
       <use xlink:href="#DejaVuSans-30"/>
       <use xlink:href="#DejaVuSans-2e" transform="translate(63.623047 0)"/>
       <use xlink:href="#DejaVuSans-31" transform="translate(95.410156 0)"/>
      </g>
     </g>
    </g>
    <g id="ytick_5">
     <g id="line2d_12">
      <g>
       <use xlink:href="#m9bdef0d5f2" x="38.482813" y="50.708001" style="stroke: #000000; stroke-width: 0.8"/>
      </g>
     </g>
     <g id="text_5">
      <!-- 0.2 -->
      <g transform="translate(15.579688 54.50722) scale(0.1 -0.1)">
       <use xlink:href="#DejaVuSans-30"/>
       <use xlink:href="#DejaVuSans-2e" transform="translate(63.623047 0)"/>
       <use xlink:href="#DejaVuSans-32" transform="translate(95.410156 0)"/>
      </g>
     </g>
    </g>
    <g id="ytick_6">
     <g id="line2d_13">
      <g>
       <use xlink:href="#m9bdef0d5f2" x="38.482813" y="24.089335" style="stroke: #000000; stroke-width: 0.8"/>
      </g>
     </g>
     <g id="text_6">
      <!-- 0.3 -->
      <g transform="translate(15.579688 27.888554) scale(0.1 -0.1)">
       <defs>
        <path id="DejaVuSans-33" d="M 2597 2516 
Q 3050 2419 3304 2112 
Q 3559 1806 3559 1356 
Q 3559 666 3084 287 
Q 2609 -91 1734 -91 
Q 1441 -91 1130 -33 
Q 819 25 488 141 
L 488 750 
Q 750 597 1062 519 
Q 1375 441 1716 441 
Q 2309 441 2620 675 
Q 2931 909 2931 1356 
Q 2931 1769 2642 2001 
Q 2353 2234 1838 2234 
L 1294 2234 
L 1294 2753 
L 1863 2753 
Q 2328 2753 2575 2939 
Q 2822 3125 2822 3475 
Q 2822 3834 2567 4026 
Q 2313 4219 1838 4219 
Q 1578 4219 1281 4162 
Q 984 4106 628 3988 
L 628 4550 
Q 988 4650 1302 4700 
Q 1616 4750 1894 4750 
Q 2613 4750 3031 4423 
Q 3450 4097 3450 3541 
Q 3450 3153 3228 2886 
Q 3006 2619 2597 2516 
z
" transform="scale(0.015625)"/>
       </defs>
       <use xlink:href="#DejaVuSans-30"/>
       <use xlink:href="#DejaVuSans-2e" transform="translate(63.623047 0)"/>
       <use xlink:href="#DejaVuSans-33" transform="translate(95.410156 0)"/>
      </g>
     </g>
    </g>
   </g>
   <g id="line2d_14">
    <path d="M 75.350994 92.999418 
L 81.157007 143.697481 
L 86.96302 136.992768 
L 92.769033 143.231732 
L 98.575046 99.821061 
L 104.381059 127.056401 
L 110.187072 127.541961 
L 115.993085 120.358763 
L 121.799097 83.749231 
L 127.60511 96.496866 
L 133.411123 77.777874 
L 139.217136 40.769804 
L 145.023149 100.566152 
L 150.829162 114.667312 
L 156.635175 162.633125 
L 162.441188 114.242542 
L 174.053213 115.487836 
L 179.859226 114.854836 
L 185.665239 102.693695 
L 191.471252 70.231287 
L 197.277265 100.867123 
L 203.083278 92.445106 
L 208.889291 101.936815 
L 214.695304 136.95959 
L 220.501316 115.00215 
L 226.307329 75.736371 
L 232.113342 75.207108 
L 237.919355 113.653987 
L 243.725368 99.076219 
L 249.531381 125.669864 
L 255.337394 122.606863 
L 261.143407 106.009605 
L 266.94942 99.398459 
L 272.755432 77.492469 
L 278.561445 121.089982 
L 284.367458 115.288853 
L 290.173471 135.425429 
L 295.979484 90.655704 
L 301.785497 80.92033 
L 307.59151 102.525408 
L 313.397523 108.761605 
L 319.203535 113.935035 
L 325.009548 89.3176 
L 330.815561 114.637106 
L 336.621574 115.119176 
L 342.427587 114.741297 
L 348.2336 107.386478 
L 354.039613 72.740898 
L 359.845626 103.21707 
L 365.651639 108.338666 
L 371.457651 81.079144 
L 377.263664 79.963123 
L 383.069677 116.418793 
L 388.87569 91.976142 
L 394.681703 56.396673 
L 400.487716 67.862341 
L 406.293729 77.885414 
L 412.099742 99.852238 
L 417.905755 118.719237 
L 423.711767 144.347192 
L 429.51778 41.655283 
L 435.323793 81.811208 
L 441.129806 126.625277 
L 446.935819 95.483603 
L 452.741832 74.845672 
L 458.547845 108.853991 
L 464.353858 106.48564 
L 470.15987 87.269445 
L 475.965883 130.566156 
L 481.771896 131.004873 
L 487.577909 103.775402 
L 493.383922 125.199215 
L 499.189935 83.777869 
L 504.995948 125.978628 
L 510.801961 89.708212 
L 516.607974 134.68433 
L 522.413986 111.649135 
L 528.219999 159.308472 
L 534.026012 132.650748 
L 539.832025 107.387464 
L 545.638038 124.120904 
L 551.444051 81.200317 
L 557.250064 114.737966 
L 563.056077 115.942355 
L 568.86209 114.111348 
L 574.668102 113.116253 
L 580.474115 89.652237 
L 586.280128 98.998564 
L 592.086141 86.983626 
L 597.892154 80.337444 
L 603.698167 124.29097 
L 609.50418 94.366333 
L 615.310193 79.712252 
L 621.116205 103.577209 
L 626.922218 123.510711 
L 632.728231 94.243352 
L 638.534244 114.983446 
L 644.340257 44.704967 
L 650.14627 66.875129 
L 655.952283 110.194232 
L 661.758296 109.365837 
L 667.564309 128.811914 
L 673.370321 95.607142 
L 679.176334 111.860733 
L 684.982347 89.139646 
L 690.78836 92.061186 
L 696.594373 88.590953 
L 702.400386 134.980018 
L 708.206399 105.501992 
L 714.012412 120.406355 
L 719.818425 112.938486 
L 725.624437 121.616207 
L 731.43045 124.848234 
L 737.236463 118.697099 
L 743.042476 113.51511 
L 748.848489 55.595438 
L 754.654502 127.627627 
L 760.460515 137.775626 
L 766.266528 72.870435 
L 772.07254 28.999792 
L 777.878553 97.644824 
L 783.684566 98.585645 
L 789.490579 90.539784 
L 795.296592 72.103806 
L 801.102605 115.299707 
L 806.908618 102.121352 
L 812.714631 107.454992 
L 812.714631 107.454992 
" clip-path="url(#p4160fc8a1c)" style="fill: none; stroke: #1f77b4; stroke-width: 1.5; stroke-linecap: square"/>
   </g>
   <g id="patch_3">
    <path d="M 38.482813 169.314792 
L 38.482813 22.318125 
" style="fill: none; stroke: #000000; stroke-width: 0.8; stroke-linejoin: miter; stroke-linecap: square"/>
   </g>
   <g id="patch_4">
    <path d="M 849.582813 169.314792 
L 849.582813 22.318125 
" style="fill: none; stroke: #000000; stroke-width: 0.8; stroke-linejoin: miter; stroke-linecap: square"/>
   </g>
   <g id="patch_5">
    <path d="M 38.482812 169.314792 
L 849.582813 169.314792 
" style="fill: none; stroke: #000000; stroke-width: 0.8; stroke-linejoin: miter; stroke-linecap: square"/>
   </g>
   <g id="patch_6">
    <path d="M 38.482812 22.318125 
L 849.582813 22.318125 
" style="fill: none; stroke: #000000; stroke-width: 0.8; stroke-linejoin: miter; stroke-linecap: square"/>
   </g>
   <g id="text_7">
    <!-- PCA Component #1 (26.2 %) -->
    <g transform="translate(357.07125 16.318125) scale(0.12 -0.12)">
     <defs>
      <path id="DejaVuSans-50" d="M 1259 4147 
L 1259 2394 
L 2053 2394 
Q 2494 2394 2734 2622 
Q 2975 2850 2975 3272 
Q 2975 3691 2734 3919 
Q 2494 4147 2053 4147 
L 1259 4147 
z
M 628 4666 
L 2053 4666 
Q 2838 4666 3239 4311 
Q 3641 3956 3641 3272 
Q 3641 2581 3239 2228 
Q 2838 1875 2053 1875 
L 1259 1875 
L 1259 0 
L 628 0 
L 628 4666 
z
" transform="scale(0.015625)"/>
      <path id="DejaVuSans-43" d="M 4122 4306 
L 4122 3641 
Q 3803 3938 3442 4084 
Q 3081 4231 2675 4231 
Q 1875 4231 1450 3742 
Q 1025 3253 1025 2328 
Q 1025 1406 1450 917 
Q 1875 428 2675 428 
Q 3081 428 3442 575 
Q 3803 722 4122 1019 
L 4122 359 
Q 3791 134 3420 21 
Q 3050 -91 2638 -91 
Q 1578 -91 968 557 
Q 359 1206 359 2328 
Q 359 3453 968 4101 
Q 1578 4750 2638 4750 
Q 3056 4750 3426 4639 
Q 3797 4528 4122 4306 
z
" transform="scale(0.015625)"/>
      <path id="DejaVuSans-41" d="M 2188 4044 
L 1331 1722 
L 3047 1722 
L 2188 4044 
z
M 1831 4666 
L 2547 4666 
L 4325 0 
L 3669 0 
L 3244 1197 
L 1141 1197 
L 716 0 
L 50 0 
L 1831 4666 
z
" transform="scale(0.015625)"/>
      <path id="DejaVuSans-20" transform="scale(0.015625)"/>
      <path id="DejaVuSans-6f" d="M 1959 3097 
Q 1497 3097 1228 2736 
Q 959 2375 959 1747 
Q 959 1119 1226 758 
Q 1494 397 1959 397 
Q 2419 397 2687 759 
Q 2956 1122 2956 1747 
Q 2956 2369 2687 2733 
Q 2419 3097 1959 3097 
z
M 1959 3584 
Q 2709 3584 3137 3096 
Q 3566 2609 3566 1747 
Q 3566 888 3137 398 
Q 2709 -91 1959 -91 
Q 1206 -91 779 398 
Q 353 888 353 1747 
Q 353 2609 779 3096 
Q 1206 3584 1959 3584 
z
" transform="scale(0.015625)"/>
      <path id="DejaVuSans-6d" d="M 3328 2828 
Q 3544 3216 3844 3400 
Q 4144 3584 4550 3584 
Q 5097 3584 5394 3201 
Q 5691 2819 5691 2113 
L 5691 0 
L 5113 0 
L 5113 2094 
Q 5113 2597 4934 2840 
Q 4756 3084 4391 3084 
Q 3944 3084 3684 2787 
Q 3425 2491 3425 1978 
L 3425 0 
L 2847 0 
L 2847 2094 
Q 2847 2600 2669 2842 
Q 2491 3084 2119 3084 
Q 1678 3084 1418 2786 
Q 1159 2488 1159 1978 
L 1159 0 
L 581 0 
L 581 3500 
L 1159 3500 
L 1159 2956 
Q 1356 3278 1631 3431 
Q 1906 3584 2284 3584 
Q 2666 3584 2933 3390 
Q 3200 3197 3328 2828 
z
" transform="scale(0.015625)"/>
      <path id="DejaVuSans-70" d="M 1159 525 
L 1159 -1331 
L 581 -1331 
L 581 3500 
L 1159 3500 
L 1159 2969 
Q 1341 3281 1617 3432 
Q 1894 3584 2278 3584 
Q 2916 3584 3314 3078 
Q 3713 2572 3713 1747 
Q 3713 922 3314 415 
Q 2916 -91 2278 -91 
Q 1894 -91 1617 61 
Q 1341 213 1159 525 
z
M 3116 1747 
Q 3116 2381 2855 2742 
Q 2594 3103 2138 3103 
Q 1681 3103 1420 2742 
Q 1159 2381 1159 1747 
Q 1159 1113 1420 752 
Q 1681 391 2138 391 
Q 2594 391 2855 752 
Q 3116 1113 3116 1747 
z
" transform="scale(0.015625)"/>
      <path id="DejaVuSans-6e" d="M 3513 2113 
L 3513 0 
L 2938 0 
L 2938 2094 
Q 2938 2591 2744 2837 
Q 2550 3084 2163 3084 
Q 1697 3084 1428 2787 
Q 1159 2491 1159 1978 
L 1159 0 
L 581 0 
L 581 3500 
L 1159 3500 
L 1159 2956 
Q 1366 3272 1645 3428 
Q 1925 3584 2291 3584 
Q 2894 3584 3203 3211 
Q 3513 2838 3513 2113 
z
" transform="scale(0.015625)"/>
      <path id="DejaVuSans-65" d="M 3597 1894 
L 3597 1613 
L 953 1613 
Q 991 1019 1311 708 
Q 1631 397 2203 397 
Q 2534 397 2845 478 
Q 3156 559 3463 722 
L 3463 178 
Q 3153 47 2828 -22 
Q 2503 -91 2169 -91 
Q 1331 -91 842 396 
Q 353 884 353 1716 
Q 353 2575 817 3079 
Q 1281 3584 2069 3584 
Q 2775 3584 3186 3129 
Q 3597 2675 3597 1894 
z
M 3022 2063 
Q 3016 2534 2758 2815 
Q 2500 3097 2075 3097 
Q 1594 3097 1305 2825 
Q 1016 2553 972 2059 
L 3022 2063 
z
" transform="scale(0.015625)"/>
      <path id="DejaVuSans-74" d="M 1172 4494 
L 1172 3500 
L 2356 3500 
L 2356 3053 
L 1172 3053 
L 1172 1153 
Q 1172 725 1289 603 
Q 1406 481 1766 481 
L 2356 481 
L 2356 0 
L 1766 0 
Q 1100 0 847 248 
Q 594 497 594 1153 
L 594 3053 
L 172 3053 
L 172 3500 
L 594 3500 
L 594 4494 
L 1172 4494 
z
" transform="scale(0.015625)"/>
      <path id="DejaVuSans-23" d="M 3272 2816 
L 2363 2816 
L 2100 1772 
L 3016 1772 
L 3272 2816 
z
M 2803 4594 
L 2478 3297 
L 3391 3297 
L 3719 4594 
L 4219 4594 
L 3897 3297 
L 4872 3297 
L 4872 2816 
L 3775 2816 
L 3519 1772 
L 4513 1772 
L 4513 1294 
L 3397 1294 
L 3072 0 
L 2572 0 
L 2894 1294 
L 1978 1294 
L 1656 0 
L 1153 0 
L 1478 1294 
L 494 1294 
L 494 1772 
L 1594 1772 
L 1856 2816 
L 850 2816 
L 850 3297 
L 1978 3297 
L 2297 4594 
L 2803 4594 
z
" transform="scale(0.015625)"/>
      <path id="DejaVuSans-28" d="M 1984 4856 
Q 1566 4138 1362 3434 
Q 1159 2731 1159 2009 
Q 1159 1288 1364 580 
Q 1569 -128 1984 -844 
L 1484 -844 
Q 1016 -109 783 600 
Q 550 1309 550 2009 
Q 550 2706 781 3412 
Q 1013 4119 1484 4856 
L 1984 4856 
z
" transform="scale(0.015625)"/>
      <path id="DejaVuSans-36" d="M 2113 2584 
Q 1688 2584 1439 2293 
Q 1191 2003 1191 1497 
Q 1191 994 1439 701 
Q 1688 409 2113 409 
Q 2538 409 2786 701 
Q 3034 994 3034 1497 
Q 3034 2003 2786 2293 
Q 2538 2584 2113 2584 
z
M 3366 4563 
L 3366 3988 
Q 3128 4100 2886 4159 
Q 2644 4219 2406 4219 
Q 1781 4219 1451 3797 
Q 1122 3375 1075 2522 
Q 1259 2794 1537 2939 
Q 1816 3084 2150 3084 
Q 2853 3084 3261 2657 
Q 3669 2231 3669 1497 
Q 3669 778 3244 343 
Q 2819 -91 2113 -91 
Q 1303 -91 875 529 
Q 447 1150 447 2328 
Q 447 3434 972 4092 
Q 1497 4750 2381 4750 
Q 2619 4750 2861 4703 
Q 3103 4656 3366 4563 
z
" transform="scale(0.015625)"/>
      <path id="DejaVuSans-25" d="M 4653 2053 
Q 4381 2053 4226 1822 
Q 4072 1591 4072 1178 
Q 4072 772 4226 539 
Q 4381 306 4653 306 
Q 4919 306 5073 539 
Q 5228 772 5228 1178 
Q 5228 1588 5073 1820 
Q 4919 2053 4653 2053 
z
M 4653 2450 
Q 5147 2450 5437 2106 
Q 5728 1763 5728 1178 
Q 5728 594 5436 251 
Q 5144 -91 4653 -91 
Q 4153 -91 3862 251 
Q 3572 594 3572 1178 
Q 3572 1766 3864 2108 
Q 4156 2450 4653 2450 
z
M 1428 4353 
Q 1159 4353 1004 4120 
Q 850 3888 850 3481 
Q 850 3069 1003 2837 
Q 1156 2606 1428 2606 
Q 1700 2606 1854 2837 
Q 2009 3069 2009 3481 
Q 2009 3884 1853 4118 
Q 1697 4353 1428 4353 
z
M 4250 4750 
L 4750 4750 
L 1831 -91 
L 1331 -91 
L 4250 4750 
z
M 1428 4750 
Q 1922 4750 2215 4408 
Q 2509 4066 2509 3481 
Q 2509 2891 2217 2550 
Q 1925 2209 1428 2209 
Q 931 2209 642 2551 
Q 353 2894 353 3481 
Q 353 4063 643 4406 
Q 934 4750 1428 4750 
z
" transform="scale(0.015625)"/>
      <path id="DejaVuSans-29" d="M 513 4856 
L 1013 4856 
Q 1481 4119 1714 3412 
Q 1947 2706 1947 2009 
Q 1947 1309 1714 600 
Q 1481 -109 1013 -844 
L 513 -844 
Q 928 -128 1133 580 
Q 1338 1288 1338 2009 
Q 1338 2731 1133 3434 
Q 928 4138 513 4856 
z
" transform="scale(0.015625)"/>
     </defs>
     <use xlink:href="#DejaVuSans-50"/>
     <use xlink:href="#DejaVuSans-43" transform="translate(60.302734 0)"/>
     <use xlink:href="#DejaVuSans-41" transform="translate(130.126953 0)"/>
     <use xlink:href="#DejaVuSans-20" transform="translate(198.535156 0)"/>
     <use xlink:href="#DejaVuSans-43" transform="translate(230.322266 0)"/>
     <use xlink:href="#DejaVuSans-6f" transform="translate(300.146484 0)"/>
     <use xlink:href="#DejaVuSans-6d" transform="translate(361.328125 0)"/>
     <use xlink:href="#DejaVuSans-70" transform="translate(458.740234 0)"/>
     <use xlink:href="#DejaVuSans-6f" transform="translate(522.216797 0)"/>
     <use xlink:href="#DejaVuSans-6e" transform="translate(583.398438 0)"/>
     <use xlink:href="#DejaVuSans-65" transform="translate(646.777344 0)"/>
     <use xlink:href="#DejaVuSans-6e" transform="translate(708.300781 0)"/>
     <use xlink:href="#DejaVuSans-74" transform="translate(771.679688 0)"/>
     <use xlink:href="#DejaVuSans-20" transform="translate(810.888672 0)"/>
     <use xlink:href="#DejaVuSans-23" transform="translate(842.675781 0)"/>
     <use xlink:href="#DejaVuSans-31" transform="translate(926.464844 0)"/>
     <use xlink:href="#DejaVuSans-20" transform="translate(990.087891 0)"/>
     <use xlink:href="#DejaVuSans-28" transform="translate(1021.875 0)"/>
     <use xlink:href="#DejaVuSans-32" transform="translate(1060.888672 0)"/>
     <use xlink:href="#DejaVuSans-36" transform="translate(1124.511719 0)"/>
     <use xlink:href="#DejaVuSans-2e" transform="translate(1188.134766 0)"/>
     <use xlink:href="#DejaVuSans-32" transform="translate(1219.921875 0)"/>
     <use xlink:href="#DejaVuSans-20" transform="translate(1283.544922 0)"/>
     <use xlink:href="#DejaVuSans-25" transform="translate(1315.332031 0)"/>
     <use xlink:href="#DejaVuSans-29" transform="translate(1410.351562 0)"/>
    </g>
   </g>
  </g>
  <g id="axes_2">
   <g id="patch_7">
    <path d="M 38.482813 345.251458 
L 849.582813 345.251458 
L 849.582813 198.254792 
L 38.482813 198.254792 
z
" style="fill: #ffffff"/>
   </g>
   <g id="matplotlib.axis_3">
    <g id="xtick_8">
     <g id="line2d_15">
      <g>
       <use xlink:href="#mbd0471b7d7" x="75.350994" y="345.251458" style="stroke: #000000; stroke-width: 0.8"/>
      </g>
     </g>
    </g>
    <g id="xtick_9">
     <g id="line2d_16">
      <g>
       <use xlink:href="#mbd0471b7d7" x="191.471252" y="345.251458" style="stroke: #000000; stroke-width: 0.8"/>
      </g>
     </g>
    </g>
    <g id="xtick_10">
     <g id="line2d_17">
      <g>
       <use xlink:href="#mbd0471b7d7" x="307.59151" y="345.251458" style="stroke: #000000; stroke-width: 0.8"/>
      </g>
     </g>
    </g>
    <g id="xtick_11">
     <g id="line2d_18">
      <g>
       <use xlink:href="#mbd0471b7d7" x="423.711767" y="345.251458" style="stroke: #000000; stroke-width: 0.8"/>
      </g>
     </g>
    </g>
    <g id="xtick_12">
     <g id="line2d_19">
      <g>
       <use xlink:href="#mbd0471b7d7" x="539.832025" y="345.251458" style="stroke: #000000; stroke-width: 0.8"/>
      </g>
     </g>
    </g>
    <g id="xtick_13">
     <g id="line2d_20">
      <g>
       <use xlink:href="#mbd0471b7d7" x="655.952283" y="345.251458" style="stroke: #000000; stroke-width: 0.8"/>
      </g>
     </g>
    </g>
    <g id="xtick_14">
     <g id="line2d_21">
      <g>
       <use xlink:href="#mbd0471b7d7" x="772.07254" y="345.251458" style="stroke: #000000; stroke-width: 0.8"/>
      </g>
     </g>
    </g>
   </g>
   <g id="matplotlib.axis_4">
    <g id="ytick_7">
     <g id="line2d_22">
      <g>
       <use xlink:href="#m9bdef0d5f2" x="38.482813" y="333.000169" style="stroke: #000000; stroke-width: 0.8"/>
      </g>
     </g>
     <g id="text_8">
      <!-- −0.2 -->
      <g transform="translate(7.2 336.799388) scale(0.1 -0.1)">
       <use xlink:href="#DejaVuSans-2212"/>
       <use xlink:href="#DejaVuSans-30" transform="translate(83.789062 0)"/>
       <use xlink:href="#DejaVuSans-2e" transform="translate(147.412109 0)"/>
       <use xlink:href="#DejaVuSans-32" transform="translate(179.199219 0)"/>
      </g>
     </g>
    </g>
    <g id="ytick_8">
     <g id="line2d_23">
      <g>
       <use xlink:href="#m9bdef0d5f2" x="38.482813" y="303.797691" style="stroke: #000000; stroke-width: 0.8"/>
      </g>
     </g>
     <g id="text_9">
      <!-- −0.1 -->
      <g transform="translate(7.2 307.59691) scale(0.1 -0.1)">
       <use xlink:href="#DejaVuSans-2212"/>
       <use xlink:href="#DejaVuSans-30" transform="translate(83.789062 0)"/>
       <use xlink:href="#DejaVuSans-2e" transform="translate(147.412109 0)"/>
       <use xlink:href="#DejaVuSans-31" transform="translate(179.199219 0)"/>
      </g>
     </g>
    </g>
    <g id="ytick_9">
     <g id="line2d_24">
      <g>
       <use xlink:href="#m9bdef0d5f2" x="38.482813" y="274.595213" style="stroke: #000000; stroke-width: 0.8"/>
      </g>
     </g>
     <g id="text_10">
      <!-- 0.0 -->
      <g transform="translate(15.579688 278.394431) scale(0.1 -0.1)">
       <use xlink:href="#DejaVuSans-30"/>
       <use xlink:href="#DejaVuSans-2e" transform="translate(63.623047 0)"/>
       <use xlink:href="#DejaVuSans-30" transform="translate(95.410156 0)"/>
      </g>
     </g>
    </g>
    <g id="ytick_10">
     <g id="line2d_25">
      <g>
       <use xlink:href="#m9bdef0d5f2" x="38.482813" y="245.392734" style="stroke: #000000; stroke-width: 0.8"/>
      </g>
     </g>
     <g id="text_11">
      <!-- 0.1 -->
      <g transform="translate(15.579688 249.191953) scale(0.1 -0.1)">
       <use xlink:href="#DejaVuSans-30"/>
       <use xlink:href="#DejaVuSans-2e" transform="translate(63.623047 0)"/>
       <use xlink:href="#DejaVuSans-31" transform="translate(95.410156 0)"/>
      </g>
     </g>
    </g>
    <g id="ytick_11">
     <g id="line2d_26">
      <g>
       <use xlink:href="#m9bdef0d5f2" x="38.482813" y="216.190256" style="stroke: #000000; stroke-width: 0.8"/>
      </g>
     </g>
     <g id="text_12">
      <!-- 0.2 -->
      <g transform="translate(15.579688 219.989475) scale(0.1 -0.1)">
       <use xlink:href="#DejaVuSans-30"/>
       <use xlink:href="#DejaVuSans-2e" transform="translate(63.623047 0)"/>
       <use xlink:href="#DejaVuSans-32" transform="translate(95.410156 0)"/>
      </g>
     </g>
    </g>
   </g>
   <g id="line2d_27">
    <path d="M 75.350994 255.179644 
L 81.157007 287.147637 
L 86.96302 270.906777 
L 92.769033 273.915133 
L 98.575046 270.344861 
L 104.381059 305.080918 
L 110.187072 239.595137 
L 115.993085 242.114547 
L 121.799097 281.147 
L 127.60511 307.688344 
L 133.411123 259.282097 
L 139.217136 289.303812 
L 145.023149 241.703279 
L 150.829162 279.066945 
L 156.635175 247.882264 
L 162.441188 284.350589 
L 168.2472 265.747844 
L 174.053213 240.782124 
L 179.859226 272.494419 
L 185.665239 290.263049 
L 191.471252 286.284033 
L 197.277265 263.304925 
L 203.083278 299.08776 
L 208.889291 235.004659 
L 214.695304 275.276923 
L 220.501316 259.249802 
L 226.307329 304.797102 
L 232.113342 303.457475 
L 237.919355 326.596181 
L 243.725368 327.227089 
L 249.531381 278.471366 
L 255.337394 265.458193 
L 261.143407 261.66929 
L 266.94942 261.505382 
L 272.755432 292.238955 
L 278.561445 291.210069 
L 284.367458 275.803218 
L 290.173471 264.756039 
L 295.979484 270.873708 
L 301.785497 250.271602 
L 307.59151 256.745546 
L 313.397523 229.868865 
L 319.203535 257.814255 
L 325.009548 278.781529 
L 330.815561 292.280545 
L 336.621574 280.773508 
L 342.427587 277.064049 
L 348.2336 291.970803 
L 354.039613 287.184277 
L 359.845626 273.423394 
L 365.651639 273.700217 
L 371.457651 277.073317 
L 377.263664 255.618119 
L 383.069677 291.446766 
L 388.87569 260.86398 
L 394.681703 271.685942 
L 400.487716 252.390405 
L 406.293729 292.431459 
L 412.099742 309.99192 
L 417.905755 265.675026 
L 423.711767 267.914448 
L 429.51778 272.511902 
L 435.323793 298.517386 
L 441.129806 325.714222 
L 446.935819 223.416971 
L 452.741832 263.021544 
L 458.547845 262.18119 
L 464.353858 242.607658 
L 470.15987 327.164188 
L 475.965883 311.48992 
L 481.771896 305.40689 
L 487.577909 285.417796 
L 493.383922 294.404969 
L 499.189935 248.388641 
L 504.995948 325.881616 
L 510.801961 302.942185 
L 516.607974 258.858346 
L 522.413986 243.481915 
L 528.219999 338.569792 
L 534.026012 274.863968 
L 539.832025 219.730225 
L 545.638038 312.620377 
L 551.444051 314.437793 
L 557.250064 270.090117 
L 563.056077 300.758741 
L 568.86209 246.918834 
L 574.668102 269.771841 
L 580.474115 316.382108 
L 586.280128 279.32342 
L 592.086141 311.27036 
L 597.892154 217.641283 
L 603.698167 287.539565 
L 609.50418 267.830165 
L 615.310193 246.642544 
L 621.116205 258.253587 
L 626.922218 253.259164 
L 632.728231 294.991977 
L 638.534244 272.673688 
L 644.340257 309.131117 
L 650.14627 290.940226 
L 655.952283 282.355603 
L 661.758296 258.844942 
L 667.564309 285.327223 
L 673.370321 291.119847 
L 679.176334 273.651373 
L 684.982347 276.769866 
L 696.594373 204.936458 
L 702.400386 262.221756 
L 708.206399 270.231072 
L 714.012412 257.99223 
L 719.818425 283.558351 
L 725.624437 264.153372 
L 731.43045 286.57453 
L 737.236463 241.460348 
L 743.042476 209.645308 
L 748.848489 302.427721 
L 754.654502 308.58984 
L 760.460515 245.837747 
L 766.266528 230.476788 
L 772.07254 266.335443 
L 777.878553 273.802003 
L 783.684566 260.978832 
L 789.490579 272.821204 
L 795.296592 287.117223 
L 801.102605 295.474764 
L 806.908618 256.525574 
L 812.714631 286.83933 
L 812.714631 286.83933 
" clip-path="url(#p329fbd4693)" style="fill: none; stroke: #1f77b4; stroke-width: 1.5; stroke-linecap: square"/>
   </g>
   <g id="patch_8">
    <path d="M 38.482813 345.251458 
L 38.482813 198.254792 
" style="fill: none; stroke: #000000; stroke-width: 0.8; stroke-linejoin: miter; stroke-linecap: square"/>
   </g>
   <g id="patch_9">
    <path d="M 849.582813 345.251458 
L 849.582813 198.254792 
" style="fill: none; stroke: #000000; stroke-width: 0.8; stroke-linejoin: miter; stroke-linecap: square"/>
   </g>
   <g id="patch_10">
    <path d="M 38.482812 345.251458 
L 849.582813 345.251458 
" style="fill: none; stroke: #000000; stroke-width: 0.8; stroke-linejoin: miter; stroke-linecap: square"/>
   </g>
   <g id="patch_11">
    <path d="M 38.482812 198.254792 
L 849.582813 198.254792 
" style="fill: none; stroke: #000000; stroke-width: 0.8; stroke-linejoin: miter; stroke-linecap: square"/>
   </g>
   <g id="text_13">
    <!-- PCA Component #2 (17.8 %) -->
    <g transform="translate(357.07125 192.254792) scale(0.12 -0.12)">
     <defs>
      <path id="DejaVuSans-37" d="M 525 4666 
L 3525 4666 
L 3525 4397 
L 1831 0 
L 1172 0 
L 2766 4134 
L 525 4134 
L 525 4666 
z
" transform="scale(0.015625)"/>
      <path id="DejaVuSans-38" d="M 2034 2216 
Q 1584 2216 1326 1975 
Q 1069 1734 1069 1313 
Q 1069 891 1326 650 
Q 1584 409 2034 409 
Q 2484 409 2743 651 
Q 3003 894 3003 1313 
Q 3003 1734 2745 1975 
Q 2488 2216 2034 2216 
z
M 1403 2484 
Q 997 2584 770 2862 
Q 544 3141 544 3541 
Q 544 4100 942 4425 
Q 1341 4750 2034 4750 
Q 2731 4750 3128 4425 
Q 3525 4100 3525 3541 
Q 3525 3141 3298 2862 
Q 3072 2584 2669 2484 
Q 3125 2378 3379 2068 
Q 3634 1759 3634 1313 
Q 3634 634 3220 271 
Q 2806 -91 2034 -91 
Q 1263 -91 848 271 
Q 434 634 434 1313 
Q 434 1759 690 2068 
Q 947 2378 1403 2484 
z
M 1172 3481 
Q 1172 3119 1398 2916 
Q 1625 2713 2034 2713 
Q 2441 2713 2670 2916 
Q 2900 3119 2900 3481 
Q 2900 3844 2670 4047 
Q 2441 4250 2034 4250 
Q 1625 4250 1398 4047 
Q 1172 3844 1172 3481 
z
" transform="scale(0.015625)"/>
     </defs>
     <use xlink:href="#DejaVuSans-50"/>
     <use xlink:href="#DejaVuSans-43" transform="translate(60.302734 0)"/>
     <use xlink:href="#DejaVuSans-41" transform="translate(130.126953 0)"/>
     <use xlink:href="#DejaVuSans-20" transform="translate(198.535156 0)"/>
     <use xlink:href="#DejaVuSans-43" transform="translate(230.322266 0)"/>
     <use xlink:href="#DejaVuSans-6f" transform="translate(300.146484 0)"/>
     <use xlink:href="#DejaVuSans-6d" transform="translate(361.328125 0)"/>
     <use xlink:href="#DejaVuSans-70" transform="translate(458.740234 0)"/>
     <use xlink:href="#DejaVuSans-6f" transform="translate(522.216797 0)"/>
     <use xlink:href="#DejaVuSans-6e" transform="translate(583.398438 0)"/>
     <use xlink:href="#DejaVuSans-65" transform="translate(646.777344 0)"/>
     <use xlink:href="#DejaVuSans-6e" transform="translate(708.300781 0)"/>
     <use xlink:href="#DejaVuSans-74" transform="translate(771.679688 0)"/>
     <use xlink:href="#DejaVuSans-20" transform="translate(810.888672 0)"/>
     <use xlink:href="#DejaVuSans-23" transform="translate(842.675781 0)"/>
     <use xlink:href="#DejaVuSans-32" transform="translate(926.464844 0)"/>
     <use xlink:href="#DejaVuSans-20" transform="translate(990.087891 0)"/>
     <use xlink:href="#DejaVuSans-28" transform="translate(1021.875 0)"/>
     <use xlink:href="#DejaVuSans-31" transform="translate(1060.888672 0)"/>
     <use xlink:href="#DejaVuSans-37" transform="translate(1124.511719 0)"/>
     <use xlink:href="#DejaVuSans-2e" transform="translate(1188.134766 0)"/>
     <use xlink:href="#DejaVuSans-38" transform="translate(1219.921875 0)"/>
     <use xlink:href="#DejaVuSans-20" transform="translate(1283.544922 0)"/>
     <use xlink:href="#DejaVuSans-25" transform="translate(1315.332031 0)"/>
     <use xlink:href="#DejaVuSans-29" transform="translate(1410.351562 0)"/>
    </g>
   </g>
  </g>
  <g id="axes_3">
   <g id="patch_12">
    <path d="M 38.482813 521.188125 
L 849.582813 521.188125 
L 849.582813 374.191458 
L 38.482813 374.191458 
z
" style="fill: #ffffff"/>
   </g>
   <g id="matplotlib.axis_5">
    <g id="xtick_15">
     <g id="line2d_28">
      <g>
       <use xlink:href="#mbd0471b7d7" x="75.350994" y="521.188125" style="stroke: #000000; stroke-width: 0.8"/>
      </g>
     </g>
    </g>
    <g id="xtick_16">
     <g id="line2d_29">
      <g>
       <use xlink:href="#mbd0471b7d7" x="191.471252" y="521.188125" style="stroke: #000000; stroke-width: 0.8"/>
      </g>
     </g>
    </g>
    <g id="xtick_17">
     <g id="line2d_30">
      <g>
       <use xlink:href="#mbd0471b7d7" x="307.59151" y="521.188125" style="stroke: #000000; stroke-width: 0.8"/>
      </g>
     </g>
    </g>
    <g id="xtick_18">
     <g id="line2d_31">
      <g>
       <use xlink:href="#mbd0471b7d7" x="423.711767" y="521.188125" style="stroke: #000000; stroke-width: 0.8"/>
      </g>
     </g>
    </g>
    <g id="xtick_19">
     <g id="line2d_32">
      <g>
       <use xlink:href="#mbd0471b7d7" x="539.832025" y="521.188125" style="stroke: #000000; stroke-width: 0.8"/>
      </g>
     </g>
    </g>
    <g id="xtick_20">
     <g id="line2d_33">
      <g>
       <use xlink:href="#mbd0471b7d7" x="655.952283" y="521.188125" style="stroke: #000000; stroke-width: 0.8"/>
      </g>
     </g>
    </g>
    <g id="xtick_21">
     <g id="line2d_34">
      <g>
       <use xlink:href="#mbd0471b7d7" x="772.07254" y="521.188125" style="stroke: #000000; stroke-width: 0.8"/>
      </g>
     </g>
    </g>
   </g>
   <g id="matplotlib.axis_6">
    <g id="ytick_12">
     <g id="line2d_35">
      <g>
       <use xlink:href="#m9bdef0d5f2" x="38.482813" y="507.966515" style="stroke: #000000; stroke-width: 0.8"/>
      </g>
     </g>
     <g id="text_14">
      <!-- −0.2 -->
      <g transform="translate(7.2 511.765734) scale(0.1 -0.1)">
       <use xlink:href="#DejaVuSans-2212"/>
       <use xlink:href="#DejaVuSans-30" transform="translate(83.789062 0)"/>
       <use xlink:href="#DejaVuSans-2e" transform="translate(147.412109 0)"/>
       <use xlink:href="#DejaVuSans-32" transform="translate(179.199219 0)"/>
      </g>
     </g>
    </g>
    <g id="ytick_13">
     <g id="line2d_36">
      <g>
       <use xlink:href="#m9bdef0d5f2" x="38.482813" y="478.459054" style="stroke: #000000; stroke-width: 0.8"/>
      </g>
     </g>
     <g id="text_15">
      <!-- −0.1 -->
      <g transform="translate(7.2 482.258273) scale(0.1 -0.1)">
       <use xlink:href="#DejaVuSans-2212"/>
       <use xlink:href="#DejaVuSans-30" transform="translate(83.789062 0)"/>
       <use xlink:href="#DejaVuSans-2e" transform="translate(147.412109 0)"/>
       <use xlink:href="#DejaVuSans-31" transform="translate(179.199219 0)"/>
      </g>
     </g>
    </g>
    <g id="ytick_14">
     <g id="line2d_37">
      <g>
       <use xlink:href="#m9bdef0d5f2" x="38.482813" y="448.951592" style="stroke: #000000; stroke-width: 0.8"/>
      </g>
     </g>
     <g id="text_16">
      <!-- 0.0 -->
      <g transform="translate(15.579688 452.750811) scale(0.1 -0.1)">
       <use xlink:href="#DejaVuSans-30"/>
       <use xlink:href="#DejaVuSans-2e" transform="translate(63.623047 0)"/>
       <use xlink:href="#DejaVuSans-30" transform="translate(95.410156 0)"/>
      </g>
     </g>
    </g>
    <g id="ytick_15">
     <g id="line2d_38">
      <g>
       <use xlink:href="#m9bdef0d5f2" x="38.482813" y="419.444131" style="stroke: #000000; stroke-width: 0.8"/>
      </g>
     </g>
     <g id="text_17">
      <!-- 0.1 -->
      <g transform="translate(15.579688 423.243349) scale(0.1 -0.1)">
       <use xlink:href="#DejaVuSans-30"/>
       <use xlink:href="#DejaVuSans-2e" transform="translate(63.623047 0)"/>
       <use xlink:href="#DejaVuSans-31" transform="translate(95.410156 0)"/>
      </g>
     </g>
    </g>
    <g id="ytick_16">
     <g id="line2d_39">
      <g>
       <use xlink:href="#m9bdef0d5f2" x="38.482813" y="389.936669" style="stroke: #000000; stroke-width: 0.8"/>
      </g>
     </g>
     <g id="text_18">
      <!-- 0.2 -->
      <g transform="translate(15.579688 393.735888) scale(0.1 -0.1)">
       <use xlink:href="#DejaVuSans-30"/>
       <use xlink:href="#DejaVuSans-2e" transform="translate(63.623047 0)"/>
       <use xlink:href="#DejaVuSans-32" transform="translate(95.410156 0)"/>
      </g>
     </g>
    </g>
   </g>
   <g id="line2d_40">
    <path d="M 75.350994 433.293797 
L 81.157007 446.904378 
L 86.96302 470.808897 
L 92.769033 448.652263 
L 98.575046 414.623611 
L 104.381059 436.773738 
L 110.187072 454.914189 
L 115.993085 391.998563 
L 121.799097 473.339918 
L 127.60511 441.052009 
L 133.411123 462.95704 
L 139.217136 451.617183 
L 145.023149 461.080809 
L 150.829162 446.19512 
L 156.635175 437.656008 
L 162.441188 439.326252 
L 168.2472 434.194877 
L 174.053213 423.005057 
L 179.859226 486.24204 
L 185.665239 457.77964 
L 191.471252 426.064158 
L 197.277265 438.133735 
L 203.083278 467.962414 
L 208.889291 445.778993 
L 214.695304 454.635015 
L 220.501316 395.662611 
L 226.307329 469.65839 
L 232.113342 466.841704 
L 237.919355 457.263935 
L 243.725368 400.657432 
L 249.531381 470.244671 
L 255.337394 459.334087 
L 261.143407 446.654515 
L 266.94942 431.578614 
L 278.561445 480.527428 
L 284.367458 473.506641 
L 290.173471 436.518157 
L 295.979484 441.134595 
L 301.785497 452.504142 
L 307.59151 473.315655 
L 313.397523 438.772077 
L 319.203535 475.660314 
L 325.009548 448.697877 
L 330.815561 454.336654 
L 336.621574 469.819503 
L 342.427587 505.067921 
L 348.2336 497.276412 
L 354.039613 451.38782 
L 359.845626 441.564364 
L 365.651639 460.059507 
L 371.457651 470.375946 
L 377.263664 444.76208 
L 383.069677 380.873125 
L 388.87569 441.223191 
L 394.681703 448.192877 
L 400.487716 404.614335 
L 406.293729 427.495347 
L 412.099742 440.600787 
L 417.905755 454.10516 
L 423.711767 447.014921 
L 429.51778 464.935386 
L 435.323793 413.875913 
L 441.129806 456.744217 
L 446.935819 465.996583 
L 452.741832 414.510152 
L 458.547845 443.100848 
L 464.353858 462.62576 
L 470.15987 485.011783 
L 475.965883 466.664663 
L 481.771896 429.263292 
L 487.577909 473.877777 
L 493.383922 395.418514 
L 499.189935 417.325418 
L 504.995948 448.011225 
L 510.801961 440.071056 
L 516.607974 419.783507 
L 522.413986 437.908121 
L 528.219999 440.654976 
L 534.026012 421.063375 
L 539.832025 432.887973 
L 545.638038 483.763978 
L 551.444051 419.046637 
L 557.250064 432.742909 
L 563.056077 421.722417 
L 568.86209 471.075367 
L 574.668102 446.031653 
L 580.474115 484.910895 
L 586.280128 416.92072 
L 592.086141 429.158928 
L 597.892154 460.378824 
L 603.698167 454.955843 
L 609.50418 475.018007 
L 615.310193 446.629595 
L 621.116205 431.280894 
L 626.922218 439.437994 
L 632.728231 484.121331 
L 638.534244 441.999271 
L 644.340257 433.604407 
L 650.14627 391.07799 
L 655.952283 495.13561 
L 661.758296 477.986608 
L 667.564309 440.41651 
L 673.370321 442.905368 
L 679.176334 426.298998 
L 684.982347 458.139656 
L 690.78836 505.088912 
L 696.594373 454.279971 
L 702.400386 460.295653 
L 708.206399 420.197135 
L 714.012412 452.934268 
L 719.818425 458.097394 
L 725.624437 426.085004 
L 731.43045 486.499925 
L 737.236463 514.506458 
L 743.042476 473.62583 
L 748.848489 457.8517 
L 754.654502 511.767987 
L 760.460515 453.202975 
L 766.266528 424.635485 
L 772.07254 486.793123 
L 777.878553 513.447434 
L 783.684566 482.224971 
L 789.490579 481.579181 
L 795.296592 463.594521 
L 801.102605 439.470381 
L 806.908618 458.146811 
L 812.714631 413.68408 
L 812.714631 413.68408 
" clip-path="url(#p781c560f68)" style="fill: none; stroke: #1f77b4; stroke-width: 1.5; stroke-linecap: square"/>
   </g>
   <g id="patch_13">
    <path d="M 38.482813 521.188125 
L 38.482813 374.191458 
" style="fill: none; stroke: #000000; stroke-width: 0.8; stroke-linejoin: miter; stroke-linecap: square"/>
   </g>
   <g id="patch_14">
    <path d="M 849.582813 521.188125 
L 849.582813 374.191458 
" style="fill: none; stroke: #000000; stroke-width: 0.8; stroke-linejoin: miter; stroke-linecap: square"/>
   </g>
   <g id="patch_15">
    <path d="M 38.482812 521.188125 
L 849.582813 521.188125 
" style="fill: none; stroke: #000000; stroke-width: 0.8; stroke-linejoin: miter; stroke-linecap: square"/>
   </g>
   <g id="patch_16">
    <path d="M 38.482812 374.191458 
L 849.582813 374.191458 
" style="fill: none; stroke: #000000; stroke-width: 0.8; stroke-linejoin: miter; stroke-linecap: square"/>
   </g>
   <g id="text_19">
    <!-- PCA Component #3 (12.7 %) -->
    <g transform="translate(357.07125 368.191458) scale(0.12 -0.12)">
     <use xlink:href="#DejaVuSans-50"/>
     <use xlink:href="#DejaVuSans-43" transform="translate(60.302734 0)"/>
     <use xlink:href="#DejaVuSans-41" transform="translate(130.126953 0)"/>
     <use xlink:href="#DejaVuSans-20" transform="translate(198.535156 0)"/>
     <use xlink:href="#DejaVuSans-43" transform="translate(230.322266 0)"/>
     <use xlink:href="#DejaVuSans-6f" transform="translate(300.146484 0)"/>
     <use xlink:href="#DejaVuSans-6d" transform="translate(361.328125 0)"/>
     <use xlink:href="#DejaVuSans-70" transform="translate(458.740234 0)"/>
     <use xlink:href="#DejaVuSans-6f" transform="translate(522.216797 0)"/>
     <use xlink:href="#DejaVuSans-6e" transform="translate(583.398438 0)"/>
     <use xlink:href="#DejaVuSans-65" transform="translate(646.777344 0)"/>
     <use xlink:href="#DejaVuSans-6e" transform="translate(708.300781 0)"/>
     <use xlink:href="#DejaVuSans-74" transform="translate(771.679688 0)"/>
     <use xlink:href="#DejaVuSans-20" transform="translate(810.888672 0)"/>
     <use xlink:href="#DejaVuSans-23" transform="translate(842.675781 0)"/>
     <use xlink:href="#DejaVuSans-33" transform="translate(926.464844 0)"/>
     <use xlink:href="#DejaVuSans-20" transform="translate(990.087891 0)"/>
     <use xlink:href="#DejaVuSans-28" transform="translate(1021.875 0)"/>
     <use xlink:href="#DejaVuSans-31" transform="translate(1060.888672 0)"/>
     <use xlink:href="#DejaVuSans-32" transform="translate(1124.511719 0)"/>
     <use xlink:href="#DejaVuSans-2e" transform="translate(1188.134766 0)"/>
     <use xlink:href="#DejaVuSans-37" transform="translate(1219.921875 0)"/>
     <use xlink:href="#DejaVuSans-20" transform="translate(1283.544922 0)"/>
     <use xlink:href="#DejaVuSans-25" transform="translate(1315.332031 0)"/>
     <use xlink:href="#DejaVuSans-29" transform="translate(1410.351562 0)"/>
    </g>
   </g>
  </g>
  <g id="axes_4">
   <g id="patch_17">
    <path d="M 38.482813 697.124792 
L 849.582813 697.124792 
L 849.582813 550.128125 
L 38.482813 550.128125 
z
" style="fill: #ffffff"/>
   </g>
   <g id="matplotlib.axis_7">
    <g id="xtick_22">
     <g id="line2d_41">
      <g>
       <use xlink:href="#mbd0471b7d7" x="75.350994" y="697.124792" style="stroke: #000000; stroke-width: 0.8"/>
      </g>
     </g>
    </g>
    <g id="xtick_23">
     <g id="line2d_42">
      <g>
       <use xlink:href="#mbd0471b7d7" x="191.471252" y="697.124792" style="stroke: #000000; stroke-width: 0.8"/>
      </g>
     </g>
    </g>
    <g id="xtick_24">
     <g id="line2d_43">
      <g>
       <use xlink:href="#mbd0471b7d7" x="307.59151" y="697.124792" style="stroke: #000000; stroke-width: 0.8"/>
      </g>
     </g>
    </g>
    <g id="xtick_25">
     <g id="line2d_44">
      <g>
       <use xlink:href="#mbd0471b7d7" x="423.711767" y="697.124792" style="stroke: #000000; stroke-width: 0.8"/>
      </g>
     </g>
    </g>
    <g id="xtick_26">
     <g id="line2d_45">
      <g>
       <use xlink:href="#mbd0471b7d7" x="539.832025" y="697.124792" style="stroke: #000000; stroke-width: 0.8"/>
      </g>
     </g>
    </g>
    <g id="xtick_27">
     <g id="line2d_46">
      <g>
       <use xlink:href="#mbd0471b7d7" x="655.952283" y="697.124792" style="stroke: #000000; stroke-width: 0.8"/>
      </g>
     </g>
    </g>
    <g id="xtick_28">
     <g id="line2d_47">
      <g>
       <use xlink:href="#mbd0471b7d7" x="772.07254" y="697.124792" style="stroke: #000000; stroke-width: 0.8"/>
      </g>
     </g>
    </g>
   </g>
   <g id="matplotlib.axis_8">
    <g id="ytick_17">
     <g id="line2d_48">
      <g>
       <use xlink:href="#m9bdef0d5f2" x="38.482813" y="663.87939" style="stroke: #000000; stroke-width: 0.8"/>
      </g>
     </g>
     <g id="text_20">
      <!-- −0.1 -->
      <g transform="translate(7.2 667.678609) scale(0.1 -0.1)">
       <use xlink:href="#DejaVuSans-2212"/>
       <use xlink:href="#DejaVuSans-30" transform="translate(83.789062 0)"/>
       <use xlink:href="#DejaVuSans-2e" transform="translate(147.412109 0)"/>
       <use xlink:href="#DejaVuSans-31" transform="translate(179.199219 0)"/>
      </g>
     </g>
    </g>
    <g id="ytick_18">
     <g id="line2d_49">
      <g>
       <use xlink:href="#m9bdef0d5f2" x="38.482813" y="630.204772" style="stroke: #000000; stroke-width: 0.8"/>
      </g>
     </g>
     <g id="text_21">
      <!-- 0.0 -->
      <g transform="translate(15.579688 634.00399) scale(0.1 -0.1)">
       <use xlink:href="#DejaVuSans-30"/>
       <use xlink:href="#DejaVuSans-2e" transform="translate(63.623047 0)"/>
       <use xlink:href="#DejaVuSans-30" transform="translate(95.410156 0)"/>
      </g>
     </g>
    </g>
    <g id="ytick_19">
     <g id="line2d_50">
      <g>
       <use xlink:href="#m9bdef0d5f2" x="38.482813" y="596.530153" style="stroke: #000000; stroke-width: 0.8"/>
      </g>
     </g>
     <g id="text_22">
      <!-- 0.1 -->
      <g transform="translate(15.579688 600.329372) scale(0.1 -0.1)">
       <use xlink:href="#DejaVuSans-30"/>
       <use xlink:href="#DejaVuSans-2e" transform="translate(63.623047 0)"/>
       <use xlink:href="#DejaVuSans-31" transform="translate(95.410156 0)"/>
      </g>
     </g>
    </g>
    <g id="ytick_20">
     <g id="line2d_51">
      <g>
       <use xlink:href="#m9bdef0d5f2" x="38.482813" y="562.855535" style="stroke: #000000; stroke-width: 0.8"/>
      </g>
     </g>
     <g id="text_23">
      <!-- 0.2 -->
      <g transform="translate(15.579688 566.654754) scale(0.1 -0.1)">
       <use xlink:href="#DejaVuSans-30"/>
       <use xlink:href="#DejaVuSans-2e" transform="translate(63.623047 0)"/>
       <use xlink:href="#DejaVuSans-32" transform="translate(95.410156 0)"/>
      </g>
     </g>
    </g>
   </g>
   <g id="line2d_52">
    <path d="M 75.350994 673.748451 
L 81.157007 588.534494 
L 86.96302 618.830976 
L 92.769033 662.312019 
L 98.575046 566.496775 
L 104.381059 586.702249 
L 110.187072 640.651575 
L 115.993085 651.412292 
L 121.799097 631.045382 
L 127.60511 599.580575 
L 133.411123 610.078614 
L 139.217136 633.94492 
L 145.023149 604.967717 
L 150.829162 690.443125 
L 156.635175 647.60153 
L 162.441188 592.048277 
L 168.2472 661.410797 
L 174.053213 599.302116 
L 179.859226 647.062 
L 185.665239 636.361941 
L 191.471252 643.625738 
L 197.277265 608.208534 
L 203.083278 687.175041 
L 208.889291 647.19036 
L 214.695304 633.972225 
L 220.501316 643.653518 
L 226.307329 681.060543 
L 232.113342 617.735182 
L 237.919355 642.230606 
L 243.725368 660.563408 
L 249.531381 682.899572 
L 255.337394 625.602645 
L 261.143407 638.634153 
L 266.94942 637.987992 
L 272.755432 615.498107 
L 278.561445 666.982071 
L 284.367458 578.059759 
L 290.173471 600.28944 
L 295.979484 590.449112 
L 301.785497 651.794032 
L 307.59151 642.136372 
L 313.397523 634.474207 
L 319.203535 603.235522 
L 325.009548 645.05189 
L 330.815561 645.02597 
L 336.621574 660.01215 
L 342.427587 663.382592 
L 348.2336 614.19905 
L 354.039613 641.727577 
L 359.845626 633.244474 
L 365.651639 633.381646 
L 371.457651 655.727496 
L 377.263664 563.387964 
L 383.069677 638.610245 
L 388.87569 638.004356 
L 394.681703 623.359272 
L 400.487716 658.28393 
L 406.293729 671.48994 
L 412.099742 616.334607 
L 417.905755 674.912209 
L 423.711767 573.226719 
L 429.51778 623.505794 
L 435.323793 629.146434 
L 441.129806 642.863615 
L 446.935819 647.314533 
L 452.741832 653.525181 
L 458.547845 647.868134 
L 464.353858 622.80819 
L 470.15987 657.683928 
L 475.965883 612.64276 
L 481.771896 580.305338 
L 487.577909 590.066441 
L 493.383922 600.419426 
L 499.189935 628.186538 
L 504.995948 626.410646 
L 510.801961 661.894255 
L 516.607974 658.758729 
L 522.413986 622.298047 
L 528.219999 645.522144 
L 534.026012 641.453065 
L 539.832025 656.812431 
L 545.638038 594.024059 
L 551.444051 643.618729 
L 557.250064 655.280232 
L 563.056077 601.057037 
L 568.86209 629.795925 
L 574.668102 612.0253 
L 580.474115 611.964535 
L 586.280128 652.443616 
L 592.086141 642.666676 
L 597.892154 656.671016 
L 603.698167 630.6319 
L 609.50418 618.532227 
L 615.310193 635.255869 
L 621.116205 573.644616 
L 626.922218 596.816731 
L 632.728231 583.710682 
L 638.534244 582.52923 
L 644.340257 646.387214 
L 650.14627 618.03313 
L 655.952283 621.22965 
L 661.758296 656.150797 
L 667.564309 646.911963 
L 673.370321 688.674909 
L 679.176334 591.406582 
L 684.982347 596.204541 
L 690.78836 594.773769 
L 696.594373 628.398696 
L 702.400386 681.723359 
L 708.206399 594.524126 
L 714.012412 654.825725 
L 719.818425 647.812862 
L 725.624437 632.950994 
L 731.43045 556.809792 
L 737.236463 632.831567 
L 743.042476 619.036238 
L 748.848489 633.760919 
L 754.654502 632.181616 
L 760.460515 670.441428 
L 766.266528 598.117656 
L 772.07254 568.443182 
L 777.878553 649.681658 
L 783.684566 635.316218 
L 789.490579 661.528349 
L 795.296592 635.133094 
L 801.102605 674.084029 
L 806.908618 675.557292 
L 812.714631 587.710759 
L 812.714631 587.710759 
" clip-path="url(#pd57520d480)" style="fill: none; stroke: #1f77b4; stroke-width: 1.5; stroke-linecap: square"/>
   </g>
   <g id="patch_18">
    <path d="M 38.482813 697.124792 
L 38.482813 550.128125 
" style="fill: none; stroke: #000000; stroke-width: 0.8; stroke-linejoin: miter; stroke-linecap: square"/>
   </g>
   <g id="patch_19">
    <path d="M 849.582813 697.124792 
L 849.582813 550.128125 
" style="fill: none; stroke: #000000; stroke-width: 0.8; stroke-linejoin: miter; stroke-linecap: square"/>
   </g>
   <g id="patch_20">
    <path d="M 38.482812 697.124792 
L 849.582813 697.124792 
" style="fill: none; stroke: #000000; stroke-width: 0.8; stroke-linejoin: miter; stroke-linecap: square"/>
   </g>
   <g id="patch_21">
    <path d="M 38.482812 550.128125 
L 849.582813 550.128125 
" style="fill: none; stroke: #000000; stroke-width: 0.8; stroke-linejoin: miter; stroke-linecap: square"/>
   </g>
   <g id="text_24">
    <!-- PCA Component #4 (8.92 %) -->
    <g transform="translate(357.07125 544.128125) scale(0.12 -0.12)">
     <defs>
      <path id="DejaVuSans-34" d="M 2419 4116 
L 825 1625 
L 2419 1625 
L 2419 4116 
z
M 2253 4666 
L 3047 4666 
L 3047 1625 
L 3713 1625 
L 3713 1100 
L 3047 1100 
L 3047 0 
L 2419 0 
L 2419 1100 
L 313 1100 
L 313 1709 
L 2253 4666 
z
" transform="scale(0.015625)"/>
      <path id="DejaVuSans-39" d="M 703 97 
L 703 672 
Q 941 559 1184 500 
Q 1428 441 1663 441 
Q 2288 441 2617 861 
Q 2947 1281 2994 2138 
Q 2813 1869 2534 1725 
Q 2256 1581 1919 1581 
Q 1219 1581 811 2004 
Q 403 2428 403 3163 
Q 403 3881 828 4315 
Q 1253 4750 1959 4750 
Q 2769 4750 3195 4129 
Q 3622 3509 3622 2328 
Q 3622 1225 3098 567 
Q 2575 -91 1691 -91 
Q 1453 -91 1209 -44 
Q 966 3 703 97 
z
M 1959 2075 
Q 2384 2075 2632 2365 
Q 2881 2656 2881 3163 
Q 2881 3666 2632 3958 
Q 2384 4250 1959 4250 
Q 1534 4250 1286 3958 
Q 1038 3666 1038 3163 
Q 1038 2656 1286 2365 
Q 1534 2075 1959 2075 
z
" transform="scale(0.015625)"/>
     </defs>
     <use xlink:href="#DejaVuSans-50"/>
     <use xlink:href="#DejaVuSans-43" transform="translate(60.302734 0)"/>
     <use xlink:href="#DejaVuSans-41" transform="translate(130.126953 0)"/>
     <use xlink:href="#DejaVuSans-20" transform="translate(198.535156 0)"/>
     <use xlink:href="#DejaVuSans-43" transform="translate(230.322266 0)"/>
     <use xlink:href="#DejaVuSans-6f" transform="translate(300.146484 0)"/>
     <use xlink:href="#DejaVuSans-6d" transform="translate(361.328125 0)"/>
     <use xlink:href="#DejaVuSans-70" transform="translate(458.740234 0)"/>
     <use xlink:href="#DejaVuSans-6f" transform="translate(522.216797 0)"/>
     <use xlink:href="#DejaVuSans-6e" transform="translate(583.398438 0)"/>
     <use xlink:href="#DejaVuSans-65" transform="translate(646.777344 0)"/>
     <use xlink:href="#DejaVuSans-6e" transform="translate(708.300781 0)"/>
     <use xlink:href="#DejaVuSans-74" transform="translate(771.679688 0)"/>
     <use xlink:href="#DejaVuSans-20" transform="translate(810.888672 0)"/>
     <use xlink:href="#DejaVuSans-23" transform="translate(842.675781 0)"/>
     <use xlink:href="#DejaVuSans-34" transform="translate(926.464844 0)"/>
     <use xlink:href="#DejaVuSans-20" transform="translate(990.087891 0)"/>
     <use xlink:href="#DejaVuSans-28" transform="translate(1021.875 0)"/>
     <use xlink:href="#DejaVuSans-38" transform="translate(1060.888672 0)"/>
     <use xlink:href="#DejaVuSans-2e" transform="translate(1124.511719 0)"/>
     <use xlink:href="#DejaVuSans-39" transform="translate(1156.298828 0)"/>
     <use xlink:href="#DejaVuSans-32" transform="translate(1219.921875 0)"/>
     <use xlink:href="#DejaVuSans-20" transform="translate(1283.544922 0)"/>
     <use xlink:href="#DejaVuSans-25" transform="translate(1315.332031 0)"/>
     <use xlink:href="#DejaVuSans-29" transform="translate(1410.351562 0)"/>
    </g>
   </g>
  </g>
  <g id="axes_5">
   <g id="patch_22">
    <path d="M 38.482813 873.061458 
L 849.582813 873.061458 
L 849.582813 726.064792 
L 38.482813 726.064792 
z
" style="fill: #ffffff"/>
   </g>
   <g id="matplotlib.axis_9">
    <g id="xtick_29">
     <g id="line2d_53">
      <g>
       <use xlink:href="#mbd0471b7d7" x="75.350994" y="873.061458" style="stroke: #000000; stroke-width: 0.8"/>
      </g>
     </g>
    </g>
    <g id="xtick_30">
     <g id="line2d_54">
      <g>
       <use xlink:href="#mbd0471b7d7" x="191.471252" y="873.061458" style="stroke: #000000; stroke-width: 0.8"/>
      </g>
     </g>
    </g>
    <g id="xtick_31">
     <g id="line2d_55">
      <g>
       <use xlink:href="#mbd0471b7d7" x="307.59151" y="873.061458" style="stroke: #000000; stroke-width: 0.8"/>
      </g>
     </g>
    </g>
    <g id="xtick_32">
     <g id="line2d_56">
      <g>
       <use xlink:href="#mbd0471b7d7" x="423.711767" y="873.061458" style="stroke: #000000; stroke-width: 0.8"/>
      </g>
     </g>
    </g>
    <g id="xtick_33">
     <g id="line2d_57">
      <g>
       <use xlink:href="#mbd0471b7d7" x="539.832025" y="873.061458" style="stroke: #000000; stroke-width: 0.8"/>
      </g>
     </g>
    </g>
    <g id="xtick_34">
     <g id="line2d_58">
      <g>
       <use xlink:href="#mbd0471b7d7" x="655.952283" y="873.061458" style="stroke: #000000; stroke-width: 0.8"/>
      </g>
     </g>
    </g>
    <g id="xtick_35">
     <g id="line2d_59">
      <g>
       <use xlink:href="#mbd0471b7d7" x="772.07254" y="873.061458" style="stroke: #000000; stroke-width: 0.8"/>
      </g>
     </g>
    </g>
   </g>
   <g id="matplotlib.axis_10">
    <g id="ytick_21">
     <g id="line2d_60">
      <g>
       <use xlink:href="#m9bdef0d5f2" x="38.482813" y="850.660273" style="stroke: #000000; stroke-width: 0.8"/>
      </g>
     </g>
     <g id="text_25">
      <!-- −0.1 -->
      <g transform="translate(7.2 854.459491) scale(0.1 -0.1)">
       <use xlink:href="#DejaVuSans-2212"/>
       <use xlink:href="#DejaVuSans-30" transform="translate(83.789062 0)"/>
       <use xlink:href="#DejaVuSans-2e" transform="translate(147.412109 0)"/>
       <use xlink:href="#DejaVuSans-31" transform="translate(179.199219 0)"/>
      </g>
     </g>
    </g>
    <g id="ytick_22">
     <g id="line2d_61">
      <g>
       <use xlink:href="#m9bdef0d5f2" x="38.482813" y="819.687159" style="stroke: #000000; stroke-width: 0.8"/>
      </g>
     </g>
     <g id="text_26">
      <!-- 0.0 -->
      <g transform="translate(15.579688 823.486377) scale(0.1 -0.1)">
       <use xlink:href="#DejaVuSans-30"/>
       <use xlink:href="#DejaVuSans-2e" transform="translate(63.623047 0)"/>
       <use xlink:href="#DejaVuSans-30" transform="translate(95.410156 0)"/>
      </g>
     </g>
    </g>
    <g id="ytick_23">
     <g id="line2d_62">
      <g>
       <use xlink:href="#m9bdef0d5f2" x="38.482813" y="788.714044" style="stroke: #000000; stroke-width: 0.8"/>
      </g>
     </g>
     <g id="text_27">
      <!-- 0.1 -->
      <g transform="translate(15.579688 792.513263) scale(0.1 -0.1)">
       <use xlink:href="#DejaVuSans-30"/>
       <use xlink:href="#DejaVuSans-2e" transform="translate(63.623047 0)"/>
       <use xlink:href="#DejaVuSans-31" transform="translate(95.410156 0)"/>
      </g>
     </g>
    </g>
    <g id="ytick_24">
     <g id="line2d_63">
      <g>
       <use xlink:href="#m9bdef0d5f2" x="38.482813" y="757.74093" style="stroke: #000000; stroke-width: 0.8"/>
      </g>
     </g>
     <g id="text_28">
      <!-- 0.2 -->
      <g transform="translate(15.579688 761.540149) scale(0.1 -0.1)">
       <use xlink:href="#DejaVuSans-30"/>
       <use xlink:href="#DejaVuSans-2e" transform="translate(63.623047 0)"/>
       <use xlink:href="#DejaVuSans-32" transform="translate(95.410156 0)"/>
      </g>
     </g>
    </g>
    <g id="ytick_25">
     <g id="line2d_64">
      <g>
       <use xlink:href="#m9bdef0d5f2" x="38.482813" y="726.767816" style="stroke: #000000; stroke-width: 0.8"/>
      </g>
     </g>
     <g id="text_29">
      <!-- 0.3 -->
      <g transform="translate(15.579688 730.567035) scale(0.1 -0.1)">
       <use xlink:href="#DejaVuSans-30"/>
       <use xlink:href="#DejaVuSans-2e" transform="translate(63.623047 0)"/>
       <use xlink:href="#DejaVuSans-33" transform="translate(95.410156 0)"/>
      </g>
     </g>
    </g>
   </g>
   <g id="line2d_65">
    <path d="M 75.350994 814.751483 
L 81.157007 814.735348 
L 86.96302 826.02413 
L 92.769033 815.494322 
L 98.575046 807.970406 
L 104.381059 810.107596 
L 110.187072 822.36901 
L 115.993085 797.763126 
L 121.799097 830.812077 
L 127.60511 814.669409 
L 133.411123 828.956424 
L 139.217136 824.788034 
L 145.023149 828.772406 
L 150.829162 815.169396 
L 156.635175 811.762507 
L 162.441188 813.496807 
L 168.2472 812.082538 
L 174.053213 810.856764 
L 179.859226 832.663164 
L 185.665239 820.575724 
L 191.471252 811.730374 
L 197.277265 816.265893 
L 203.083278 822.281596 
L 208.889291 822.532887 
L 214.695304 815.37641 
L 220.501316 795.256725 
L 226.307329 824.790418 
L 232.113342 824.789609 
L 237.919355 813.249504 
L 243.725368 788.949563 
L 249.531381 823.318787 
L 255.337394 822.760832 
L 261.143407 812.378607 
L 266.94942 814.843092 
L 272.755432 813.266926 
L 278.561445 828.682524 
L 284.367458 826.748899 
L 290.173471 798.849349 
L 295.979484 816.03219 
L 301.785497 823.73822 
L 307.59151 815.18819 
L 313.397523 801.552087 
L 319.203535 826.758981 
L 325.009548 823.638375 
L 330.815561 810.736949 
L 336.621574 791.231772 
L 342.427587 775.982995 
L 348.2336 753.744651 
L 354.039613 732.746458 
L 359.845626 734.502093 
L 365.651639 756.999657 
L 371.457651 781.7034 
L 377.263664 795.904797 
L 383.069677 781.593188 
L 388.87569 824.853145 
L 394.681703 841.528438 
L 400.487716 833.149843 
L 406.293729 842.57913 
L 412.099742 848.700079 
L 417.905755 856.761888 
L 423.711767 853.686166 
L 429.51778 866.379792 
L 435.323793 839.745509 
L 441.129806 847.731787 
L 446.935819 832.03457 
L 452.741832 808.914001 
L 458.547845 817.905179 
L 464.353858 828.193483 
L 470.15987 830.092998 
L 475.965883 821.295243 
L 481.771896 807.424673 
L 487.577909 830.056397 
L 493.383922 794.831421 
L 499.189935 810.969695 
L 504.995948 812.674141 
L 510.801961 813.791725 
L 516.607974 806.502299 
L 522.413986 817.135608 
L 528.219999 803.87467 
L 534.026012 805.636887 
L 539.832025 816.616854 
L 545.638038 828.221891 
L 551.444051 806.018814 
L 557.250064 811.467316 
L 563.056077 804.917639 
L 568.86209 829.085363 
L 574.668102 818.798866 
L 580.474115 832.164306 
L 586.280128 807.347614 
L 592.086141 807.488766 
L 597.892154 829.219146 
L 603.698167 816.520344 
L 609.50418 830.031289 
L 615.310193 823.77441 
L 621.116205 818.578248 
L 626.922218 814.295149 
L 632.728231 836.344933 
L 638.534244 816.254293 
L 644.340257 817.141025 
L 650.14627 793.525425 
L 655.952283 846.281295 
L 661.758296 831.565369 
L 667.564309 806.993096 
L 673.370321 823.426783 
L 679.176334 820.89951 
L 684.982347 821.91399 
L 690.78836 840.547761 
L 696.594373 839.705798 
L 702.400386 852.275857 
L 708.206399 848.915305 
L 714.012412 850.15645 
L 719.818425 826.737974 
L 725.624437 785.790372 
L 731.43045 780.86878 
L 737.236463 773.640407 
L 743.042476 748.905435 
L 748.848489 733.920281 
L 754.654502 749.146513 
L 760.460515 735.464939 
L 766.266528 740.041413 
L 772.07254 773.38984 
L 777.878553 785.195358 
L 783.684566 783.521136 
L 789.490579 789.822569 
L 795.296592 790.448526 
L 801.102605 782.506499 
L 806.908618 799.155061 
L 812.714631 785.307334 
L 812.714631 785.307334 
" clip-path="url(#p6cd6b96f3c)" style="fill: none; stroke: #1f77b4; stroke-width: 1.5; stroke-linecap: square"/>
   </g>
   <g id="patch_23">
    <path d="M 38.482813 873.061458 
L 38.482813 726.064792 
" style="fill: none; stroke: #000000; stroke-width: 0.8; stroke-linejoin: miter; stroke-linecap: square"/>
   </g>
   <g id="patch_24">
    <path d="M 849.582813 873.061458 
L 849.582813 726.064792 
" style="fill: none; stroke: #000000; stroke-width: 0.8; stroke-linejoin: miter; stroke-linecap: square"/>
   </g>
   <g id="patch_25">
    <path d="M 38.482812 873.061458 
L 849.582813 873.061458 
" style="fill: none; stroke: #000000; stroke-width: 0.8; stroke-linejoin: miter; stroke-linecap: square"/>
   </g>
   <g id="patch_26">
    <path d="M 38.482812 726.064792 
L 849.582813 726.064792 
" style="fill: none; stroke: #000000; stroke-width: 0.8; stroke-linejoin: miter; stroke-linecap: square"/>
   </g>
   <g id="text_30">
    <!-- PCA Component #5 (4 %) -->
    <g transform="translate(366.613125 720.064792) scale(0.12 -0.12)">
     <defs>
      <path id="DejaVuSans-35" d="M 691 4666 
L 3169 4666 
L 3169 4134 
L 1269 4134 
L 1269 2991 
Q 1406 3038 1543 3061 
Q 1681 3084 1819 3084 
Q 2600 3084 3056 2656 
Q 3513 2228 3513 1497 
Q 3513 744 3044 326 
Q 2575 -91 1722 -91 
Q 1428 -91 1123 -41 
Q 819 9 494 109 
L 494 744 
Q 775 591 1075 516 
Q 1375 441 1709 441 
Q 2250 441 2565 725 
Q 2881 1009 2881 1497 
Q 2881 1984 2565 2268 
Q 2250 2553 1709 2553 
Q 1456 2553 1204 2497 
Q 953 2441 691 2322 
L 691 4666 
z
" transform="scale(0.015625)"/>
     </defs>
     <use xlink:href="#DejaVuSans-50"/>
     <use xlink:href="#DejaVuSans-43" transform="translate(60.302734 0)"/>
     <use xlink:href="#DejaVuSans-41" transform="translate(130.126953 0)"/>
     <use xlink:href="#DejaVuSans-20" transform="translate(198.535156 0)"/>
     <use xlink:href="#DejaVuSans-43" transform="translate(230.322266 0)"/>
     <use xlink:href="#DejaVuSans-6f" transform="translate(300.146484 0)"/>
     <use xlink:href="#DejaVuSans-6d" transform="translate(361.328125 0)"/>
     <use xlink:href="#DejaVuSans-70" transform="translate(458.740234 0)"/>
     <use xlink:href="#DejaVuSans-6f" transform="translate(522.216797 0)"/>
     <use xlink:href="#DejaVuSans-6e" transform="translate(583.398438 0)"/>
     <use xlink:href="#DejaVuSans-65" transform="translate(646.777344 0)"/>
     <use xlink:href="#DejaVuSans-6e" transform="translate(708.300781 0)"/>
     <use xlink:href="#DejaVuSans-74" transform="translate(771.679688 0)"/>
     <use xlink:href="#DejaVuSans-20" transform="translate(810.888672 0)"/>
     <use xlink:href="#DejaVuSans-23" transform="translate(842.675781 0)"/>
     <use xlink:href="#DejaVuSans-35" transform="translate(926.464844 0)"/>
     <use xlink:href="#DejaVuSans-20" transform="translate(990.087891 0)"/>
     <use xlink:href="#DejaVuSans-28" transform="translate(1021.875 0)"/>
     <use xlink:href="#DejaVuSans-34" transform="translate(1060.888672 0)"/>
     <use xlink:href="#DejaVuSans-20" transform="translate(1124.511719 0)"/>
     <use xlink:href="#DejaVuSans-25" transform="translate(1156.298828 0)"/>
     <use xlink:href="#DejaVuSans-29" transform="translate(1251.318359 0)"/>
    </g>
   </g>
  </g>
  <g id="axes_6">
   <g id="patch_27">
    <path d="M 38.482813 1048.998125 
L 849.582813 1048.998125 
L 849.582813 902.001458 
L 38.482813 902.001458 
z
" style="fill: #ffffff"/>
   </g>
   <g id="matplotlib.axis_11">
    <g id="xtick_36">
     <g id="line2d_66">
      <g>
       <use xlink:href="#mbd0471b7d7" x="75.350994" y="1048.998125" style="stroke: #000000; stroke-width: 0.8"/>
      </g>
     </g>
     <g id="text_31">
      <!-- 0 -->
      <g transform="translate(72.169744 1063.596563) scale(0.1 -0.1)">
       <use xlink:href="#DejaVuSans-30"/>
      </g>
     </g>
    </g>
    <g id="xtick_37">
     <g id="line2d_67">
      <g>
       <use xlink:href="#mbd0471b7d7" x="191.471252" y="1048.998125" style="stroke: #000000; stroke-width: 0.8"/>
      </g>
     </g>
     <g id="text_32">
      <!-- 20 -->
      <g transform="translate(185.108752 1063.596563) scale(0.1 -0.1)">
       <use xlink:href="#DejaVuSans-32"/>
       <use xlink:href="#DejaVuSans-30" transform="translate(63.623047 0)"/>
      </g>
     </g>
    </g>
    <g id="xtick_38">
     <g id="line2d_68">
      <g>
       <use xlink:href="#mbd0471b7d7" x="307.59151" y="1048.998125" style="stroke: #000000; stroke-width: 0.8"/>
      </g>
     </g>
     <g id="text_33">
      <!-- 40 -->
      <g transform="translate(301.22901 1063.596563) scale(0.1 -0.1)">
       <use xlink:href="#DejaVuSans-34"/>
       <use xlink:href="#DejaVuSans-30" transform="translate(63.623047 0)"/>
      </g>
     </g>
    </g>
    <g id="xtick_39">
     <g id="line2d_69">
      <g>
       <use xlink:href="#mbd0471b7d7" x="423.711767" y="1048.998125" style="stroke: #000000; stroke-width: 0.8"/>
      </g>
     </g>
     <g id="text_34">
      <!-- 60 -->
      <g transform="translate(417.349267 1063.596563) scale(0.1 -0.1)">
       <use xlink:href="#DejaVuSans-36"/>
       <use xlink:href="#DejaVuSans-30" transform="translate(63.623047 0)"/>
      </g>
     </g>
    </g>
    <g id="xtick_40">
     <g id="line2d_70">
      <g>
       <use xlink:href="#mbd0471b7d7" x="539.832025" y="1048.998125" style="stroke: #000000; stroke-width: 0.8"/>
      </g>
     </g>
     <g id="text_35">
      <!-- 80 -->
      <g transform="translate(533.469525 1063.596563) scale(0.1 -0.1)">
       <use xlink:href="#DejaVuSans-38"/>
       <use xlink:href="#DejaVuSans-30" transform="translate(63.623047 0)"/>
      </g>
     </g>
    </g>
    <g id="xtick_41">
     <g id="line2d_71">
      <g>
       <use xlink:href="#mbd0471b7d7" x="655.952283" y="1048.998125" style="stroke: #000000; stroke-width: 0.8"/>
      </g>
     </g>
     <g id="text_36">
      <!-- 100 -->
      <g transform="translate(646.408533 1063.596563) scale(0.1 -0.1)">
       <use xlink:href="#DejaVuSans-31"/>
       <use xlink:href="#DejaVuSans-30" transform="translate(63.623047 0)"/>
       <use xlink:href="#DejaVuSans-30" transform="translate(127.246094 0)"/>
      </g>
     </g>
    </g>
    <g id="xtick_42">
     <g id="line2d_72">
      <g>
       <use xlink:href="#mbd0471b7d7" x="772.07254" y="1048.998125" style="stroke: #000000; stroke-width: 0.8"/>
      </g>
     </g>
     <g id="text_37">
      <!-- 120 -->
      <g transform="translate(762.52879 1063.596563) scale(0.1 -0.1)">
       <use xlink:href="#DejaVuSans-31"/>
       <use xlink:href="#DejaVuSans-32" transform="translate(63.623047 0)"/>
       <use xlink:href="#DejaVuSans-30" transform="translate(127.246094 0)"/>
      </g>
     </g>
    </g>
   </g>
   <g id="matplotlib.axis_12">
    <g id="ytick_26">
     <g id="line2d_73">
      <g>
       <use xlink:href="#m9bdef0d5f2" x="38.482813" y="1045.360275" style="stroke: #000000; stroke-width: 0.8"/>
      </g>
     </g>
     <g id="text_38">
      <!-- −0.2 -->
      <g transform="translate(7.2 1049.159493) scale(0.1 -0.1)">
       <use xlink:href="#DejaVuSans-2212"/>
       <use xlink:href="#DejaVuSans-30" transform="translate(83.789062 0)"/>
       <use xlink:href="#DejaVuSans-2e" transform="translate(147.412109 0)"/>
       <use xlink:href="#DejaVuSans-32" transform="translate(179.199219 0)"/>
      </g>
     </g>
    </g>
    <g id="ytick_27">
     <g id="line2d_74">
      <g>
       <use xlink:href="#m9bdef0d5f2" x="38.482813" y="1019.981539" style="stroke: #000000; stroke-width: 0.8"/>
      </g>
     </g>
     <g id="text_39">
      <!-- −0.1 -->
      <g transform="translate(7.2 1023.780758) scale(0.1 -0.1)">
       <use xlink:href="#DejaVuSans-2212"/>
       <use xlink:href="#DejaVuSans-30" transform="translate(83.789062 0)"/>
       <use xlink:href="#DejaVuSans-2e" transform="translate(147.412109 0)"/>
       <use xlink:href="#DejaVuSans-31" transform="translate(179.199219 0)"/>
      </g>
     </g>
    </g>
    <g id="ytick_28">
     <g id="line2d_75">
      <g>
       <use xlink:href="#m9bdef0d5f2" x="38.482813" y="994.602804" style="stroke: #000000; stroke-width: 0.8"/>
      </g>
     </g>
     <g id="text_40">
      <!-- 0.0 -->
      <g transform="translate(15.579688 998.402022) scale(0.1 -0.1)">
       <use xlink:href="#DejaVuSans-30"/>
       <use xlink:href="#DejaVuSans-2e" transform="translate(63.623047 0)"/>
       <use xlink:href="#DejaVuSans-30" transform="translate(95.410156 0)"/>
      </g>
     </g>
    </g>
    <g id="ytick_29">
     <g id="line2d_76">
      <g>
       <use xlink:href="#m9bdef0d5f2" x="38.482813" y="969.224068" style="stroke: #000000; stroke-width: 0.8"/>
      </g>
     </g>
     <g id="text_41">
      <!-- 0.1 -->
      <g transform="translate(15.579688 973.023287) scale(0.1 -0.1)">
       <use xlink:href="#DejaVuSans-30"/>
       <use xlink:href="#DejaVuSans-2e" transform="translate(63.623047 0)"/>
       <use xlink:href="#DejaVuSans-31" transform="translate(95.410156 0)"/>
      </g>
     </g>
    </g>
    <g id="ytick_30">
     <g id="line2d_77">
      <g>
       <use xlink:href="#m9bdef0d5f2" x="38.482813" y="943.845333" style="stroke: #000000; stroke-width: 0.8"/>
      </g>
     </g>
     <g id="text_42">
      <!-- 0.2 -->
      <g transform="translate(15.579688 947.644552) scale(0.1 -0.1)">
       <use xlink:href="#DejaVuSans-30"/>
       <use xlink:href="#DejaVuSans-2e" transform="translate(63.623047 0)"/>
       <use xlink:href="#DejaVuSans-32" transform="translate(95.410156 0)"/>
      </g>
     </g>
    </g>
    <g id="ytick_31">
     <g id="line2d_78">
      <g>
       <use xlink:href="#m9bdef0d5f2" x="38.482813" y="918.466598" style="stroke: #000000; stroke-width: 0.8"/>
      </g>
     </g>
     <g id="text_43">
      <!-- 0.3 -->
      <g transform="translate(15.579688 922.265816) scale(0.1 -0.1)">
       <use xlink:href="#DejaVuSans-30"/>
       <use xlink:href="#DejaVuSans-2e" transform="translate(63.623047 0)"/>
       <use xlink:href="#DejaVuSans-33" transform="translate(95.410156 0)"/>
      </g>
     </g>
    </g>
   </g>
   <g id="line2d_79">
    <path d="M 75.350994 992.25789 
L 81.157007 1000.415939 
L 86.96302 1003.479959 
L 92.769033 1003.307678 
L 98.575046 986.678547 
L 104.381059 995.487522 
L 110.187072 1000.795476 
L 115.993085 991.243545 
L 121.799097 993.062482 
L 127.60511 989.829851 
L 133.411123 990.594088 
L 139.217136 981.687332 
L 145.023149 994.012726 
L 150.829162 998.303399 
L 156.635175 1005.033168 
L 162.441188 993.542008 
L 168.2472 995.396312 
L 174.053213 991.963629 
L 179.859226 1001.362491 
L 185.665239 994.788554 
L 191.471252 983.646038 
L 197.277265 990.570381 
L 203.083278 996.354596 
L 208.889291 991.25569 
L 214.695304 1001.21722 
L 220.501316 989.929398 
L 226.307329 990.728709 
L 232.113342 987.595112 
L 237.919355 995.995981 
L 243.725368 987.37121 
L 249.531381 999.066834 
L 255.337394 992.906684 
L 261.143407 994.212988 
L 266.94942 980.633689 
L 278.561445 994.45526 
L 284.367458 993.195686 
L 290.173471 997.037426 
L 295.979484 969.698862 
L 301.785497 970.842136 
L 307.59151 994.936645 
L 313.397523 990.348242 
L 319.203535 963.838844 
L 325.009548 924.463868 
L 330.815561 917.39322 
L 336.621574 933.276931 
L 342.427587 966.368481 
L 348.2336 994.286921 
L 354.039613 1010.164105 
L 359.845626 1031.25922 
L 365.651639 1042.316458 
L 371.457651 1040.938552 
L 377.263664 1032.070283 
L 383.069677 1028.218618 
L 388.87569 1025.232277 
L 394.681703 1013.449095 
L 400.487716 1006.586187 
L 406.293729 1006.695202 
L 412.099742 1006.172129 
L 417.905755 1010.500296 
L 423.711767 1008.337657 
L 429.51778 992.45034 
L 435.323793 991.989718 
L 441.129806 1003.920394 
L 446.935819 996.250551 
L 452.741832 985.324637 
L 458.547845 995.286949 
L 464.353858 996.95248 
L 470.15987 996.287154 
L 475.965883 1001.029482 
L 481.771896 995.113738 
L 487.577909 995.81231 
L 493.383922 990.556784 
L 499.189935 986.827763 
L 504.995948 997.703355 
L 510.801961 991.391627 
L 516.607974 997.672298 
L 522.413986 995.186075 
L 528.219999 1004.892348 
L 534.026012 996.910764 
L 539.832025 995.511891 
L 545.638038 1001.826006 
L 551.444051 985.556142 
L 557.250064 996.444536 
L 563.056077 993.116205 
L 568.86209 1001.036621 
L 574.668102 995.009567 
L 580.474115 995.103592 
L 586.280128 989.289468 
L 592.086141 990.635454 
L 597.892154 995.401724 
L 603.698167 1001.910164 
L 609.50418 998.287465 
L 615.310193 989.644897 
L 621.116205 987.234387 
L 626.922218 1000.049562 
L 632.728231 994.493526 
L 638.534244 996.648663 
L 644.340257 978.60893 
L 650.14627 984.060349 
L 655.952283 996.220191 
L 661.758296 1009.628226 
L 667.564309 1009.647628 
L 673.370321 986.447908 
L 679.176334 986.466457 
L 684.982347 1010.631696 
L 690.78836 1028.549231 
L 696.594373 1004.9742 
L 702.400386 976.704419 
L 708.206399 926.978323 
L 714.012412 913.949413 
L 719.818425 908.683125 
L 725.624437 915.508846 
L 731.43045 936.248082 
L 737.236463 959.188908 
L 743.042476 969.367872 
L 748.848489 969.869979 
L 754.654502 997.837838 
L 760.460515 1001.34261 
L 766.266528 988.382592 
L 772.07254 988.826034 
L 777.878553 1007.414695 
L 783.684566 1003.636529 
L 789.490579 1002.907905 
L 795.296592 996.144577 
L 801.102605 1001.356561 
L 806.908618 1001.271263 
L 812.714631 993.117493 
L 812.714631 993.117493 
" clip-path="url(#p7f9bcde0e5)" style="fill: none; stroke: #1f77b4; stroke-width: 1.5; stroke-linecap: square"/>
   </g>
   <g id="patch_28">
    <path d="M 38.482813 1048.998125 
L 38.482813 902.001458 
" style="fill: none; stroke: #000000; stroke-width: 0.8; stroke-linejoin: miter; stroke-linecap: square"/>
   </g>
   <g id="patch_29">
    <path d="M 849.582813 1048.998125 
L 849.582813 902.001458 
" style="fill: none; stroke: #000000; stroke-width: 0.8; stroke-linejoin: miter; stroke-linecap: square"/>
   </g>
   <g id="patch_30">
    <path d="M 38.482812 1048.998125 
L 849.582813 1048.998125 
" style="fill: none; stroke: #000000; stroke-width: 0.8; stroke-linejoin: miter; stroke-linecap: square"/>
   </g>
   <g id="patch_31">
    <path d="M 38.482812 902.001458 
L 849.582813 902.001458 
" style="fill: none; stroke: #000000; stroke-width: 0.8; stroke-linejoin: miter; stroke-linecap: square"/>
   </g>
   <g id="text_44">
    <!-- PCA Component #6 (2.58 %) -->
    <g transform="translate(357.07125 896.001458) scale(0.12 -0.12)">
     <use xlink:href="#DejaVuSans-50"/>
     <use xlink:href="#DejaVuSans-43" transform="translate(60.302734 0)"/>
     <use xlink:href="#DejaVuSans-41" transform="translate(130.126953 0)"/>
     <use xlink:href="#DejaVuSans-20" transform="translate(198.535156 0)"/>
     <use xlink:href="#DejaVuSans-43" transform="translate(230.322266 0)"/>
     <use xlink:href="#DejaVuSans-6f" transform="translate(300.146484 0)"/>
     <use xlink:href="#DejaVuSans-6d" transform="translate(361.328125 0)"/>
     <use xlink:href="#DejaVuSans-70" transform="translate(458.740234 0)"/>
     <use xlink:href="#DejaVuSans-6f" transform="translate(522.216797 0)"/>
     <use xlink:href="#DejaVuSans-6e" transform="translate(583.398438 0)"/>
     <use xlink:href="#DejaVuSans-65" transform="translate(646.777344 0)"/>
     <use xlink:href="#DejaVuSans-6e" transform="translate(708.300781 0)"/>
     <use xlink:href="#DejaVuSans-74" transform="translate(771.679688 0)"/>
     <use xlink:href="#DejaVuSans-20" transform="translate(810.888672 0)"/>
     <use xlink:href="#DejaVuSans-23" transform="translate(842.675781 0)"/>
     <use xlink:href="#DejaVuSans-36" transform="translate(926.464844 0)"/>
     <use xlink:href="#DejaVuSans-20" transform="translate(990.087891 0)"/>
     <use xlink:href="#DejaVuSans-28" transform="translate(1021.875 0)"/>
     <use xlink:href="#DejaVuSans-32" transform="translate(1060.888672 0)"/>
     <use xlink:href="#DejaVuSans-2e" transform="translate(1124.511719 0)"/>
     <use xlink:href="#DejaVuSans-35" transform="translate(1156.298828 0)"/>
     <use xlink:href="#DejaVuSans-38" transform="translate(1219.921875 0)"/>
     <use xlink:href="#DejaVuSans-20" transform="translate(1283.544922 0)"/>
     <use xlink:href="#DejaVuSans-25" transform="translate(1315.332031 0)"/>
     <use xlink:href="#DejaVuSans-29" transform="translate(1410.351562 0)"/>
    </g>
   </g>
  </g>
 </g>
 <defs>
  <clipPath id="p4160fc8a1c">
   <rect x="38.482813" y="22.318125" width="811.1" height="146.996667"/>
  </clipPath>
  <clipPath id="p329fbd4693">
   <rect x="38.482813" y="198.254792" width="811.1" height="146.996667"/>
  </clipPath>
  <clipPath id="p781c560f68">
   <rect x="38.482813" y="374.191458" width="811.1" height="146.996667"/>
  </clipPath>
  <clipPath id="pd57520d480">
   <rect x="38.482813" y="550.128125" width="811.1" height="146.996667"/>
  </clipPath>
  <clipPath id="p6cd6b96f3c">
   <rect x="38.482813" y="726.064792" width="811.1" height="146.996667"/>
  </clipPath>
  <clipPath id="p7f9bcde0e5">
   <rect x="38.482813" y="902.001458" width="811.1" height="146.996667"/>
  </clipPath>
 </defs>
</svg>
