<?xml version="1.0" encoding="utf-8" standalone="no"?>
<!DOCTYPE svg PUBLIC "-//W3C//DTD SVG 1.1//EN"
  "http://www.w3.org/Graphics/SVG/1.1/DTD/svg11.dtd">
<svg xmlns:xlink="http://www.w3.org/1999/xlink" width="712.37125pt" height="280.474375pt" viewBox="0 0 712.37125 280.474375" xmlns="http://www.w3.org/2000/svg" version="1.1">
 <metadata>
  <rdf:RDF xmlns:dc="http://purl.org/dc/elements/1.1/" xmlns:cc="http://creativecommons.org/ns#" xmlns:rdf="http://www.w3.org/1999/02/22-rdf-syntax-ns#">
   <cc:Work>
    <dc:type rdf:resource="http://purl.org/dc/dcmitype/StillImage"/>
    <dc:date>2025-06-03T07:58:51.520634</dc:date>
    <dc:format>image/svg+xml</dc:format>
    <dc:creator>
     <cc:Agent>
      <dc:title>Matplotlib v3.10.0, https://matplotlib.org/</dc:title>
     </cc:Agent>
    </dc:creator>
   </cc:Work>
  </rdf:RDF>
 </metadata>
 <defs>
  <style type="text/css">*{stroke-linejoin: round; stroke-linecap: butt}</style>
 </defs>
 <g id="figure_1">
  <g id="patch_1">
   <path d="M 0 280.474375 
L 712.37125 280.474375 
L 712.37125 0 
L 0 0 
z
" style="fill: #ffffff"/>
  </g>
  <g id="axes_1">
   <g id="patch_2">
    <path d="M 43.78125 242.918125 
L 705.17125 242.918125 
L 705.17125 22.318125 
L 43.78125 22.318125 
z
" style="fill: #ffffff"/>
   </g>
   <g id="matplotlib.axis_1">
    <g id="xtick_1">
     <g id="line2d_1">
      <path d="M 73.844432 242.918125 
L 73.844432 22.318125 
" clip-path="url(#pcb4c0f9d09)" style="fill: none; stroke: #b0b0b0; stroke-width: 0.8; stroke-linecap: square"/>
     </g>
     <g id="line2d_2">
      <defs>
       <path id="mb96b9415d7" d="M 0 0 
L 0 3.5 
" style="stroke: #000000; stroke-width: 0.8"/>
      </defs>
      <g>
       <use xlink:href="#mb96b9415d7" x="73.844432" y="242.918125" style="stroke: #000000; stroke-width: 0.8"/>
      </g>
     </g>
     <g id="text_1">
      <!-- 0.0 -->
      <g transform="translate(65.892869 257.516563) scale(0.1 -0.1)">
       <defs>
        <path id="DejaVuSans-30" d="M 2034 4250 
Q 1547 4250 1301 3770 
Q 1056 3291 1056 2328 
Q 1056 1369 1301 889 
Q 1547 409 2034 409 
Q 2525 409 2770 889 
Q 3016 1369 3016 2328 
Q 3016 3291 2770 3770 
Q 2525 4250 2034 4250 
z
M 2034 4750 
Q 2819 4750 3233 4129 
Q 3647 3509 3647 2328 
Q 3647 1150 3233 529 
Q 2819 -91 2034 -91 
Q 1250 -91 836 529 
Q 422 1150 422 2328 
Q 422 3509 836 4129 
Q 1250 4750 2034 4750 
z
" transform="scale(0.015625)"/>
        <path id="DejaVuSans-2e" d="M 684 794 
L 1344 794 
L 1344 0 
L 684 0 
L 684 794 
z
" transform="scale(0.015625)"/>
       </defs>
       <use xlink:href="#DejaVuSans-30"/>
       <use xlink:href="#DejaVuSans-2e" transform="translate(63.623047 0)"/>
       <use xlink:href="#DejaVuSans-30" transform="translate(95.410156 0)"/>
      </g>
     </g>
    </g>
    <g id="xtick_2">
     <g id="line2d_3">
      <path d="M 194.097159 242.918125 
L 194.097159 22.318125 
" clip-path="url(#pcb4c0f9d09)" style="fill: none; stroke: #b0b0b0; stroke-width: 0.8; stroke-linecap: square"/>
     </g>
     <g id="line2d_4">
      <g>
       <use xlink:href="#mb96b9415d7" x="194.097159" y="242.918125" style="stroke: #000000; stroke-width: 0.8"/>
      </g>
     </g>
     <g id="text_2">
      <!-- 0.2 -->
      <g transform="translate(186.145597 257.516563) scale(0.1 -0.1)">
       <defs>
        <path id="DejaVuSans-32" d="M 1228 531 
L 3431 531 
L 3431 0 
L 469 0 
L 469 531 
Q 828 903 1448 1529 
Q 2069 2156 2228 2338 
Q 2531 2678 2651 2914 
Q 2772 3150 2772 3378 
Q 2772 3750 2511 3984 
Q 2250 4219 1831 4219 
Q 1534 4219 1204 4116 
Q 875 4013 500 3803 
L 500 4441 
Q 881 4594 1212 4672 
Q 1544 4750 1819 4750 
Q 2544 4750 2975 4387 
Q 3406 4025 3406 3419 
Q 3406 3131 3298 2873 
Q 3191 2616 2906 2266 
Q 2828 2175 2409 1742 
Q 1991 1309 1228 531 
z
" transform="scale(0.015625)"/>
       </defs>
       <use xlink:href="#DejaVuSans-30"/>
       <use xlink:href="#DejaVuSans-2e" transform="translate(63.623047 0)"/>
       <use xlink:href="#DejaVuSans-32" transform="translate(95.410156 0)"/>
      </g>
     </g>
    </g>
    <g id="xtick_3">
     <g id="line2d_5">
      <path d="M 314.349886 242.918125 
L 314.349886 22.318125 
" clip-path="url(#pcb4c0f9d09)" style="fill: none; stroke: #b0b0b0; stroke-width: 0.8; stroke-linecap: square"/>
     </g>
     <g id="line2d_6">
      <g>
       <use xlink:href="#mb96b9415d7" x="314.349886" y="242.918125" style="stroke: #000000; stroke-width: 0.8"/>
      </g>
     </g>
     <g id="text_3">
      <!-- 0.4 -->
      <g transform="translate(306.398324 257.516563) scale(0.1 -0.1)">
       <defs>
        <path id="DejaVuSans-34" d="M 2419 4116 
L 825 1625 
L 2419 1625 
L 2419 4116 
z
M 2253 4666 
L 3047 4666 
L 3047 1625 
L 3713 1625 
L 3713 1100 
L 3047 1100 
L 3047 0 
L 2419 0 
L 2419 1100 
L 313 1100 
L 313 1709 
L 2253 4666 
z
" transform="scale(0.015625)"/>
       </defs>
       <use xlink:href="#DejaVuSans-30"/>
       <use xlink:href="#DejaVuSans-2e" transform="translate(63.623047 0)"/>
       <use xlink:href="#DejaVuSans-34" transform="translate(95.410156 0)"/>
      </g>
     </g>
    </g>
    <g id="xtick_4">
     <g id="line2d_7">
      <path d="M 434.602614 242.918125 
L 434.602614 22.318125 
" clip-path="url(#pcb4c0f9d09)" style="fill: none; stroke: #b0b0b0; stroke-width: 0.8; stroke-linecap: square"/>
     </g>
     <g id="line2d_8">
      <g>
       <use xlink:href="#mb96b9415d7" x="434.602614" y="242.918125" style="stroke: #000000; stroke-width: 0.8"/>
      </g>
     </g>
     <g id="text_4">
      <!-- 0.6 -->
      <g transform="translate(426.651051 257.516563) scale(0.1 -0.1)">
       <defs>
        <path id="DejaVuSans-36" d="M 2113 2584 
Q 1688 2584 1439 2293 
Q 1191 2003 1191 1497 
Q 1191 994 1439 701 
Q 1688 409 2113 409 
Q 2538 409 2786 701 
Q 3034 994 3034 1497 
Q 3034 2003 2786 2293 
Q 2538 2584 2113 2584 
z
M 3366 4563 
L 3366 3988 
Q 3128 4100 2886 4159 
Q 2644 4219 2406 4219 
Q 1781 4219 1451 3797 
Q 1122 3375 1075 2522 
Q 1259 2794 1537 2939 
Q 1816 3084 2150 3084 
Q 2853 3084 3261 2657 
Q 3669 2231 3669 1497 
Q 3669 778 3244 343 
Q 2819 -91 2113 -91 
Q 1303 -91 875 529 
Q 447 1150 447 2328 
Q 447 3434 972 4092 
Q 1497 4750 2381 4750 
Q 2619 4750 2861 4703 
Q 3103 4656 3366 4563 
z
" transform="scale(0.015625)"/>
       </defs>
       <use xlink:href="#DejaVuSans-30"/>
       <use xlink:href="#DejaVuSans-2e" transform="translate(63.623047 0)"/>
       <use xlink:href="#DejaVuSans-36" transform="translate(95.410156 0)"/>
      </g>
     </g>
    </g>
    <g id="xtick_5">
     <g id="line2d_9">
      <path d="M 554.855341 242.918125 
L 554.855341 22.318125 
" clip-path="url(#pcb4c0f9d09)" style="fill: none; stroke: #b0b0b0; stroke-width: 0.8; stroke-linecap: square"/>
     </g>
     <g id="line2d_10">
      <g>
       <use xlink:href="#mb96b9415d7" x="554.855341" y="242.918125" style="stroke: #000000; stroke-width: 0.8"/>
      </g>
     </g>
     <g id="text_5">
      <!-- 0.8 -->
      <g transform="translate(546.903778 257.516563) scale(0.1 -0.1)">
       <defs>
        <path id="DejaVuSans-38" d="M 2034 2216 
Q 1584 2216 1326 1975 
Q 1069 1734 1069 1313 
Q 1069 891 1326 650 
Q 1584 409 2034 409 
Q 2484 409 2743 651 
Q 3003 894 3003 1313 
Q 3003 1734 2745 1975 
Q 2488 2216 2034 2216 
z
M 1403 2484 
Q 997 2584 770 2862 
Q 544 3141 544 3541 
Q 544 4100 942 4425 
Q 1341 4750 2034 4750 
Q 2731 4750 3128 4425 
Q 3525 4100 3525 3541 
Q 3525 3141 3298 2862 
Q 3072 2584 2669 2484 
Q 3125 2378 3379 2068 
Q 3634 1759 3634 1313 
Q 3634 634 3220 271 
Q 2806 -91 2034 -91 
Q 1263 -91 848 271 
Q 434 634 434 1313 
Q 434 1759 690 2068 
Q 947 2378 1403 2484 
z
M 1172 3481 
Q 1172 3119 1398 2916 
Q 1625 2713 2034 2713 
Q 2441 2713 2670 2916 
Q 2900 3119 2900 3481 
Q 2900 3844 2670 4047 
Q 2441 4250 2034 4250 
Q 1625 4250 1398 4047 
Q 1172 3844 1172 3481 
z
" transform="scale(0.015625)"/>
       </defs>
       <use xlink:href="#DejaVuSans-30"/>
       <use xlink:href="#DejaVuSans-2e" transform="translate(63.623047 0)"/>
       <use xlink:href="#DejaVuSans-38" transform="translate(95.410156 0)"/>
      </g>
     </g>
    </g>
    <g id="xtick_6">
     <g id="line2d_11">
      <path d="M 675.108068 242.918125 
L 675.108068 22.318125 
" clip-path="url(#pcb4c0f9d09)" style="fill: none; stroke: #b0b0b0; stroke-width: 0.8; stroke-linecap: square"/>
     </g>
     <g id="line2d_12">
      <g>
       <use xlink:href="#mb96b9415d7" x="675.108068" y="242.918125" style="stroke: #000000; stroke-width: 0.8"/>
      </g>
     </g>
     <g id="text_6">
      <!-- 1.0 -->
      <g transform="translate(667.156506 257.516563) scale(0.1 -0.1)">
       <defs>
        <path id="DejaVuSans-31" d="M 794 531 
L 1825 531 
L 1825 4091 
L 703 3866 
L 703 4441 
L 1819 4666 
L 2450 4666 
L 2450 531 
L 3481 531 
L 3481 0 
L 794 0 
L 794 531 
z
" transform="scale(0.015625)"/>
       </defs>
       <use xlink:href="#DejaVuSans-31"/>
       <use xlink:href="#DejaVuSans-2e" transform="translate(63.623047 0)"/>
       <use xlink:href="#DejaVuSans-30" transform="translate(95.410156 0)"/>
      </g>
     </g>
    </g>
    <g id="text_7">
     <!-- x -->
     <g transform="translate(371.516875 271.194687) scale(0.1 -0.1)">
      <defs>
       <path id="DejaVuSans-78" d="M 3513 3500 
L 2247 1797 
L 3578 0 
L 2900 0 
L 1881 1375 
L 863 0 
L 184 0 
L 1544 1831 
L 300 3500 
L 978 3500 
L 1906 2253 
L 2834 3500 
L 3513 3500 
z
" transform="scale(0.015625)"/>
      </defs>
      <use xlink:href="#DejaVuSans-78"/>
     </g>
    </g>
   </g>
   <g id="matplotlib.axis_2">
    <g id="ytick_1">
     <g id="line2d_13">
      <path d="M 43.78125 218.873461 
L 705.17125 218.873461 
" clip-path="url(#pcb4c0f9d09)" style="fill: none; stroke: #b0b0b0; stroke-width: 0.8; stroke-linecap: square"/>
     </g>
     <g id="line2d_14">
      <defs>
       <path id="m501c3579cc" d="M 0 0 
L -3.5 0 
" style="stroke: #000000; stroke-width: 0.8"/>
      </defs>
      <g>
       <use xlink:href="#m501c3579cc" x="43.78125" y="218.873461" style="stroke: #000000; stroke-width: 0.8"/>
      </g>
     </g>
     <g id="text_8">
      <!-- 0.0 -->
      <g transform="translate(20.878125 222.67268) scale(0.1 -0.1)">
       <use xlink:href="#DejaVuSans-30"/>
       <use xlink:href="#DejaVuSans-2e" transform="translate(63.623047 0)"/>
       <use xlink:href="#DejaVuSans-30" transform="translate(95.410156 0)"/>
      </g>
     </g>
    </g>
    <g id="ytick_2">
     <g id="line2d_15">
      <path d="M 43.78125 171.060547 
L 705.17125 171.060547 
" clip-path="url(#pcb4c0f9d09)" style="fill: none; stroke: #b0b0b0; stroke-width: 0.8; stroke-linecap: square"/>
     </g>
     <g id="line2d_16">
      <g>
       <use xlink:href="#m501c3579cc" x="43.78125" y="171.060547" style="stroke: #000000; stroke-width: 0.8"/>
      </g>
     </g>
     <g id="text_9">
      <!-- 0.5 -->
      <g transform="translate(20.878125 174.859766) scale(0.1 -0.1)">
       <defs>
        <path id="DejaVuSans-35" d="M 691 4666 
L 3169 4666 
L 3169 4134 
L 1269 4134 
L 1269 2991 
Q 1406 3038 1543 3061 
Q 1681 3084 1819 3084 
Q 2600 3084 3056 2656 
Q 3513 2228 3513 1497 
Q 3513 744 3044 326 
Q 2575 -91 1722 -91 
Q 1428 -91 1123 -41 
Q 819 9 494 109 
L 494 744 
Q 775 591 1075 516 
Q 1375 441 1709 441 
Q 2250 441 2565 725 
Q 2881 1009 2881 1497 
Q 2881 1984 2565 2268 
Q 2250 2553 1709 2553 
Q 1456 2553 1204 2497 
Q 953 2441 691 2322 
L 691 4666 
z
" transform="scale(0.015625)"/>
       </defs>
       <use xlink:href="#DejaVuSans-30"/>
       <use xlink:href="#DejaVuSans-2e" transform="translate(63.623047 0)"/>
       <use xlink:href="#DejaVuSans-35" transform="translate(95.410156 0)"/>
      </g>
     </g>
    </g>
    <g id="ytick_3">
     <g id="line2d_17">
      <path d="M 43.78125 123.247634 
L 705.17125 123.247634 
" clip-path="url(#pcb4c0f9d09)" style="fill: none; stroke: #b0b0b0; stroke-width: 0.8; stroke-linecap: square"/>
     </g>
     <g id="line2d_18">
      <g>
       <use xlink:href="#m501c3579cc" x="43.78125" y="123.247634" style="stroke: #000000; stroke-width: 0.8"/>
      </g>
     </g>
     <g id="text_10">
      <!-- 1.0 -->
      <g transform="translate(20.878125 127.046853) scale(0.1 -0.1)">
       <use xlink:href="#DejaVuSans-31"/>
       <use xlink:href="#DejaVuSans-2e" transform="translate(63.623047 0)"/>
       <use xlink:href="#DejaVuSans-30" transform="translate(95.410156 0)"/>
      </g>
     </g>
    </g>
    <g id="ytick_4">
     <g id="line2d_19">
      <path d="M 43.78125 75.43472 
L 705.17125 75.43472 
" clip-path="url(#pcb4c0f9d09)" style="fill: none; stroke: #b0b0b0; stroke-width: 0.8; stroke-linecap: square"/>
     </g>
     <g id="line2d_20">
      <g>
       <use xlink:href="#m501c3579cc" x="43.78125" y="75.43472" style="stroke: #000000; stroke-width: 0.8"/>
      </g>
     </g>
     <g id="text_11">
      <!-- 1.5 -->
      <g transform="translate(20.878125 79.233939) scale(0.1 -0.1)">
       <use xlink:href="#DejaVuSans-31"/>
       <use xlink:href="#DejaVuSans-2e" transform="translate(63.623047 0)"/>
       <use xlink:href="#DejaVuSans-35" transform="translate(95.410156 0)"/>
      </g>
     </g>
    </g>
    <g id="ytick_5">
     <g id="line2d_21">
      <path d="M 43.78125 27.621807 
L 705.17125 27.621807 
" clip-path="url(#pcb4c0f9d09)" style="fill: none; stroke: #b0b0b0; stroke-width: 0.8; stroke-linecap: square"/>
     </g>
     <g id="line2d_22">
      <g>
       <use xlink:href="#m501c3579cc" x="43.78125" y="27.621807" style="stroke: #000000; stroke-width: 0.8"/>
      </g>
     </g>
     <g id="text_12">
      <!-- 2.0 -->
      <g transform="translate(20.878125 31.421025) scale(0.1 -0.1)">
       <use xlink:href="#DejaVuSans-32"/>
       <use xlink:href="#DejaVuSans-2e" transform="translate(63.623047 0)"/>
       <use xlink:href="#DejaVuSans-30" transform="translate(95.410156 0)"/>
      </g>
     </g>
    </g>
    <g id="text_13">
     <!-- Amplitude -->
     <g transform="translate(14.798438 158.240781) rotate(-90) scale(0.1 -0.1)">
      <defs>
       <path id="DejaVuSans-41" d="M 2188 4044 
L 1331 1722 
L 3047 1722 
L 2188 4044 
z
M 1831 4666 
L 2547 4666 
L 4325 0 
L 3669 0 
L 3244 1197 
L 1141 1197 
L 716 0 
L 50 0 
L 1831 4666 
z
" transform="scale(0.015625)"/>
       <path id="DejaVuSans-6d" d="M 3328 2828 
Q 3544 3216 3844 3400 
Q 4144 3584 4550 3584 
Q 5097 3584 5394 3201 
Q 5691 2819 5691 2113 
L 5691 0 
L 5113 0 
L 5113 2094 
Q 5113 2597 4934 2840 
Q 4756 3084 4391 3084 
Q 3944 3084 3684 2787 
Q 3425 2491 3425 1978 
L 3425 0 
L 2847 0 
L 2847 2094 
Q 2847 2600 2669 2842 
Q 2491 3084 2119 3084 
Q 1678 3084 1418 2786 
Q 1159 2488 1159 1978 
L 1159 0 
L 581 0 
L 581 3500 
L 1159 3500 
L 1159 2956 
Q 1356 3278 1631 3431 
Q 1906 3584 2284 3584 
Q 2666 3584 2933 3390 
Q 3200 3197 3328 2828 
z
" transform="scale(0.015625)"/>
       <path id="DejaVuSans-70" d="M 1159 525 
L 1159 -1331 
L 581 -1331 
L 581 3500 
L 1159 3500 
L 1159 2969 
Q 1341 3281 1617 3432 
Q 1894 3584 2278 3584 
Q 2916 3584 3314 3078 
Q 3713 2572 3713 1747 
Q 3713 922 3314 415 
Q 2916 -91 2278 -91 
Q 1894 -91 1617 61 
Q 1341 213 1159 525 
z
M 3116 1747 
Q 3116 2381 2855 2742 
Q 2594 3103 2138 3103 
Q 1681 3103 1420 2742 
Q 1159 2381 1159 1747 
Q 1159 1113 1420 752 
Q 1681 391 2138 391 
Q 2594 391 2855 752 
Q 3116 1113 3116 1747 
z
" transform="scale(0.015625)"/>
       <path id="DejaVuSans-6c" d="M 603 4863 
L 1178 4863 
L 1178 0 
L 603 0 
L 603 4863 
z
" transform="scale(0.015625)"/>
       <path id="DejaVuSans-69" d="M 603 3500 
L 1178 3500 
L 1178 0 
L 603 0 
L 603 3500 
z
M 603 4863 
L 1178 4863 
L 1178 4134 
L 603 4134 
L 603 4863 
z
" transform="scale(0.015625)"/>
       <path id="DejaVuSans-74" d="M 1172 4494 
L 1172 3500 
L 2356 3500 
L 2356 3053 
L 1172 3053 
L 1172 1153 
Q 1172 725 1289 603 
Q 1406 481 1766 481 
L 2356 481 
L 2356 0 
L 1766 0 
Q 1100 0 847 248 
Q 594 497 594 1153 
L 594 3053 
L 172 3053 
L 172 3500 
L 594 3500 
L 594 4494 
L 1172 4494 
z
" transform="scale(0.015625)"/>
       <path id="DejaVuSans-75" d="M 544 1381 
L 544 3500 
L 1119 3500 
L 1119 1403 
Q 1119 906 1312 657 
Q 1506 409 1894 409 
Q 2359 409 2629 706 
Q 2900 1003 2900 1516 
L 2900 3500 
L 3475 3500 
L 3475 0 
L 2900 0 
L 2900 538 
Q 2691 219 2414 64 
Q 2138 -91 1772 -91 
Q 1169 -91 856 284 
Q 544 659 544 1381 
z
M 1991 3584 
L 1991 3584 
z
" transform="scale(0.015625)"/>
       <path id="DejaVuSans-64" d="M 2906 2969 
L 2906 4863 
L 3481 4863 
L 3481 0 
L 2906 0 
L 2906 525 
Q 2725 213 2448 61 
Q 2172 -91 1784 -91 
Q 1150 -91 751 415 
Q 353 922 353 1747 
Q 353 2572 751 3078 
Q 1150 3584 1784 3584 
Q 2172 3584 2448 3432 
Q 2725 3281 2906 2969 
z
M 947 1747 
Q 947 1113 1208 752 
Q 1469 391 1925 391 
Q 2381 391 2643 752 
Q 2906 1113 2906 1747 
Q 2906 2381 2643 2742 
Q 2381 3103 1925 3103 
Q 1469 3103 1208 2742 
Q 947 2381 947 1747 
z
" transform="scale(0.015625)"/>
       <path id="DejaVuSans-65" d="M 3597 1894 
L 3597 1613 
L 953 1613 
Q 991 1019 1311 708 
Q 1631 397 2203 397 
Q 2534 397 2845 478 
Q 3156 559 3463 722 
L 3463 178 
Q 3153 47 2828 -22 
Q 2503 -91 2169 -91 
Q 1331 -91 842 396 
Q 353 884 353 1716 
Q 353 2575 817 3079 
Q 1281 3584 2069 3584 
Q 2775 3584 3186 3129 
Q 3597 2675 3597 1894 
z
M 3022 2063 
Q 3016 2534 2758 2815 
Q 2500 3097 2075 3097 
Q 1594 3097 1305 2825 
Q 1016 2553 972 2059 
L 3022 2063 
z
" transform="scale(0.015625)"/>
      </defs>
      <use xlink:href="#DejaVuSans-41"/>
      <use xlink:href="#DejaVuSans-6d" transform="translate(68.408203 0)"/>
      <use xlink:href="#DejaVuSans-70" transform="translate(165.820312 0)"/>
      <use xlink:href="#DejaVuSans-6c" transform="translate(229.296875 0)"/>
      <use xlink:href="#DejaVuSans-69" transform="translate(257.080078 0)"/>
      <use xlink:href="#DejaVuSans-74" transform="translate(284.863281 0)"/>
      <use xlink:href="#DejaVuSans-75" transform="translate(324.072266 0)"/>
      <use xlink:href="#DejaVuSans-64" transform="translate(387.451172 0)"/>
      <use xlink:href="#DejaVuSans-65" transform="translate(450.927734 0)"/>
     </g>
    </g>
   </g>
   <g id="line2d_23">
    <path d="M 73.844432 218.873461 
L 154.953309 218.768512 
L 163.769492 218.539789 
L 169.646947 218.193824 
L 174.348911 217.713342 
L 178.463129 217.06709 
L 181.989602 216.281986 
L 184.928329 215.418385 
L 187.867057 214.321684 
L 190.805784 212.94807 
L 193.156766 211.618902 
L 195.507748 210.059217 
L 197.85873 208.245762 
L 200.209712 206.156787 
L 202.560694 203.773078 
L 204.911676 201.079096 
L 207.262658 198.064177 
L 209.61364 194.723752 
L 212.552367 190.095384 
L 215.491095 184.987148 
L 218.429822 179.445932 
L 221.956295 172.327435 
L 227.246005 161.063659 
L 233.12346 148.587847 
L 236.649933 141.636347 
L 239.000915 137.40626 
L 241.351896 133.598812 
L 243.115133 131.068435 
L 244.878369 128.850834 
L 246.641606 126.973155 
L 248.404842 125.458735 
L 250.168079 124.326618 
L 251.34357 123.791552 
L 252.519061 123.435904 
L 253.694552 123.261678 
L 254.870043 123.269839 
L 256.045534 123.460304 
L 257.221025 123.831936 
L 258.396516 124.382559 
L 259.572007 125.108975 
L 261.335243 126.518782 
L 263.09848 128.296344 
L 264.861716 130.419068 
L 266.624953 132.860347 
L 268.975935 136.558449 
L 271.326916 140.68985 
L 274.265644 146.332297 
L 278.379862 154.808593 
L 287.196045 173.187886 
L 290.722518 179.895882 
L 293.661245 184.963193 
L 296.012227 188.60388 
L 298.363209 191.831866 
L 300.714191 194.611896 
L 302.477427 196.384711 
L 304.240664 197.877455 
L 306.0039 199.080024 
L 307.767137 199.983069 
L 309.530373 200.577751 
L 311.29361 200.855542 
L 313.056846 200.808069 
L 314.232337 200.59161 
L 315.995574 199.983554 
L 317.75881 199.028098 
L 319.522047 197.717064 
L 321.285283 196.042519 
L 323.04852 193.996992 
L 324.811756 191.573751 
L 326.574993 188.76715 
L 328.338229 185.573015 
L 330.101465 181.989088 
L 332.452447 176.604781 
L 334.803429 170.536464 
L 337.154411 163.803615 
L 339.505393 156.438675 
L 342.444121 146.416793 
L 345.382848 135.608939 
L 349.497067 119.48456 
L 360.664231 74.760377 
L 363.602958 64.187667 
L 365.95394 56.502018 
L 368.304922 49.665713 
L 370.068159 45.179083 
L 371.831395 41.29977 
L 373.594632 38.073436 
L 374.770123 36.304639 
L 375.945614 34.8528 
L 377.121105 33.725743 
L 378.296596 32.929572 
L 379.472087 32.468618 
L 380.647578 32.345398 
L 381.823069 32.560595 
L 382.99856 33.113054 
L 384.174051 33.999789 
L 385.349542 35.216011 
L 386.525033 36.755173 
L 387.700524 38.60903 
L 389.46376 41.957847 
L 391.226996 45.952447 
L 392.990233 50.546133 
L 394.753469 55.686124 
L 397.104451 63.288652 
L 399.455433 71.61138 
L 402.394161 82.790223 
L 407.096125 101.740821 
L 414.149071 130.306669 
L 417.675544 143.731259 
L 420.614271 154.166857 
L 423.552998 163.785276 
L 425.90398 170.836408 
L 428.254962 177.290179 
L 430.605944 183.139299 
L 432.956926 188.389685 
L 435.307908 193.058467 
L 437.65889 197.171889 
L 440.009872 200.763232 
L 442.360854 203.870812 
L 444.711836 206.53614 
L 447.062818 208.802283 
L 449.4138 210.712454 
L 451.764782 212.308852 
L 454.115764 213.631749 
L 456.466746 214.718815 
L 459.405473 215.798414 
L 462.344201 216.623601 
L 465.870674 217.350479 
L 469.984892 217.927562 
L 474.686856 218.339673 
L 480.564311 218.623063 
L 489.380493 218.79973 
L 506.425113 218.868311 
L 646.896285 218.873461 
L 675.108068 218.873461 
L 675.108068 218.873461 
" clip-path="url(#pcb4c0f9d09)" style="fill: none; stroke: #1f77b4; stroke-width: 1.5; stroke-linecap: square"/>
   </g>
   <g id="line2d_24">
    <path d="M 73.844432 223.179149 
L 74.432177 180.344917 
L 75.019923 210.486079 
L 75.607668 227.328337 
L 76.195414 224.815458 
L 76.783159 220.949329 
L 77.370905 219.083533 
L 77.95865 218.547489 
L 78.546396 218.52371 
L 80.897378 218.833034 
L 84.423851 218.884374 
L 104.994943 218.99763 
L 117.337598 219.279898 
L 136.733199 219.819779 
L 142.022909 219.699368 
L 147.312618 219.360432 
L 162.006255 218.209009 
L 165.532728 218.30828 
L 168.471456 218.605933 
L 171.997929 219.215702 
L 176.699893 220.31368 
L 181.401857 221.35973 
L 183.752838 221.695496 
L 186.10382 221.818274 
L 188.454802 221.678833 
L 190.805784 221.253036 
L 193.156766 220.549947 
L 195.507748 219.616818 
L 203.736185 216.061628 
L 205.499422 215.6344 
L 207.262658 215.458789 
L 209.025895 215.579278 
L 210.789131 216.023933 
L 212.552367 216.800402 
L 214.315604 217.893217 
L 216.07884 219.262111 
L 218.429822 221.402063 
L 223.719532 226.405815 
L 225.482768 227.719554 
L 226.658259 228.394856 
L 227.83375 228.873084 
L 229.009241 229.127653 
L 230.184732 229.136654 
L 231.360223 228.884045 
L 232.535714 228.360987 
L 233.711205 227.565197 
L 234.886696 226.502605 
L 236.062187 225.186476 
L 237.825424 222.785206 
L 239.58866 219.963913 
L 242.527387 214.700808 
L 246.05386 208.399425 
L 247.817097 205.658918 
L 249.580333 203.405615 
L 250.755824 202.240636 
L 251.931315 201.381333 
L 253.106806 200.850952 
L 254.282297 200.663427 
L 255.457788 200.82375 
L 256.633279 201.327998 
L 257.80877 202.162731 
L 258.984261 203.306285 
L 260.159752 204.72839 
L 261.922989 207.301746 
L 264.273971 211.315505 
L 269.56368 220.780672 
L 271.326916 223.469281 
L 273.090153 225.692909 
L 274.265644 226.870379 
L 275.441135 227.782075 
L 276.616626 228.4188 
L 277.792117 228.779373 
L 278.967608 228.870923 
L 280.143099 228.707092 
L 281.31859 228.3104 
L 282.494081 227.706881 
L 284.257317 226.486761 
L 286.608299 224.46714 
L 291.310263 220.255873 
L 293.0735 218.984746 
L 294.836736 218.023839 
L 296.012227 217.582904 
L 297.187718 217.311969 
L 298.363209 217.212681 
L 299.5387 217.280509 
L 301.301936 217.671792 
L 303.065173 218.358563 
L 305.416155 219.597584 
L 310.705864 222.62897 
L 312.469101 223.376384 
L 314.232337 223.863595 
L 315.995574 224.04369 
L 317.75881 223.896109 
L 319.522047 223.427999 
L 321.285283 222.674625 
L 323.636265 221.334277 
L 329.51372 217.6648 
L 331.276956 216.905891 
L 332.452447 216.579104 
L 333.627938 216.422638 
L 334.803429 216.453716 
L 335.97892 216.684167 
L 337.154411 217.119208 
L 338.329902 217.757349 
L 339.505393 218.590112 
L 341.26863 220.167642 
L 343.031866 222.063736 
L 346.558339 226.331671 
L 348.909321 229.049861 
L 350.672558 230.745852 
L 351.848049 231.624372 
L 353.02354 232.24944 
L 354.199031 232.583627 
L 355.374522 232.595053 
L 356.550013 232.257328 
L 357.725504 231.557141 
L 358.900995 230.485263 
L 360.076485 229.045864 
L 361.251976 227.251432 
L 362.427467 225.125449 
L 364.190704 221.387703 
L 365.95394 217.126501 
L 369.480413 207.804984 
L 372.419141 200.284629 
L 374.182377 196.355223 
L 375.357868 194.108659 
L 376.533359 192.222972 
L 377.70885 190.742899 
L 378.884341 189.703542 
L 380.059832 189.130082 
L 380.647578 189.021968 
L 381.235323 189.035083 
L 381.823069 189.168595 
L 382.99856 189.793078 
L 384.174051 190.880332 
L 385.349542 192.4047 
L 386.525033 194.32952 
L 387.700524 196.609488 
L 389.46376 200.576152 
L 391.814742 206.560492 
L 396.516706 218.896064 
L 398.279942 222.983392 
L 400.043179 226.493453 
L 401.21867 228.447065 
L 402.394161 230.059369 
L 403.569652 231.312564 
L 404.745143 232.199312 
L 405.920634 232.721595 
L 407.096125 232.890852 
L 408.271616 232.726157 
L 409.447107 232.254556 
L 410.622598 231.509689 
L 411.798089 230.530203 
L 413.561325 228.715492 
L 415.912307 225.887876 
L 420.026525 220.828172 
L 421.789762 218.958187 
L 423.552998 217.411304 
L 425.316235 216.249427 
L 426.491726 215.705375 
L 427.667217 215.348464 
L 428.842708 215.175073 
L 430.018199 215.176367 
L 431.19369 215.339065 
L 432.956926 215.847643 
L 434.720163 216.610867 
L 437.071145 217.888914 
L 442.9486 221.234946 
L 445.299582 222.231704 
L 447.062818 222.758706 
L 448.826054 223.078273 
L 450.589291 223.189884 
L 452.352527 223.106254 
L 454.703509 222.732695 
L 457.054491 222.131061 
L 461.16871 220.799489 
L 465.282928 219.506837 
L 468.221656 218.80196 
L 471.160383 218.357691 
L 474.099111 218.18766 
L 477.037838 218.263559 
L 480.564311 218.597816 
L 487.617257 219.591659 
L 492.906966 220.213201 
L 497.021185 220.484223 
L 501.723149 220.55215 
L 507.012858 220.388839 
L 517.004531 219.790133 
L 526.996205 219.280196 
L 536.987878 219.013664 
L 551.09377 218.894966 
L 594.586936 218.873467 
L 675.108068 218.873461 
L 675.108068 218.873461 
" clip-path="url(#pcb4c0f9d09)" style="fill: none; stroke-dasharray: 5.55,2.4; stroke-dashoffset: 0; stroke: #ff7f0e; stroke-width: 1.5"/>
   </g>
   <g id="patch_3">
    <path d="M 43.78125 242.918125 
L 43.78125 22.318125 
" style="fill: none; stroke: #000000; stroke-width: 0.8; stroke-linejoin: miter; stroke-linecap: square"/>
   </g>
   <g id="patch_4">
    <path d="M 705.17125 242.918125 
L 705.17125 22.318125 
" style="fill: none; stroke: #000000; stroke-width: 0.8; stroke-linejoin: miter; stroke-linecap: square"/>
   </g>
   <g id="patch_5">
    <path d="M 43.78125 242.918125 
L 705.17125 242.918125 
" style="fill: none; stroke: #000000; stroke-width: 0.8; stroke-linejoin: miter; stroke-linecap: square"/>
   </g>
   <g id="patch_6">
    <path d="M 43.78125 22.318125 
L 705.17125 22.318125 
" style="fill: none; stroke: #000000; stroke-width: 0.8; stroke-linejoin: miter; stroke-linecap: square"/>
   </g>
   <g id="text_14">
    <!-- Weighted Pseudoinverse Reconstruction from CWT -->
    <g transform="translate(222.186875 16.318125) scale(0.12 -0.12)">
     <defs>
      <path id="DejaVuSans-57" d="M 213 4666 
L 850 4666 
L 1831 722 
L 2809 4666 
L 3519 4666 
L 4500 722 
L 5478 4666 
L 6119 4666 
L 4947 0 
L 4153 0 
L 3169 4050 
L 2175 0 
L 1381 0 
L 213 4666 
z
" transform="scale(0.015625)"/>
      <path id="DejaVuSans-67" d="M 2906 1791 
Q 2906 2416 2648 2759 
Q 2391 3103 1925 3103 
Q 1463 3103 1205 2759 
Q 947 2416 947 1791 
Q 947 1169 1205 825 
Q 1463 481 1925 481 
Q 2391 481 2648 825 
Q 2906 1169 2906 1791 
z
M 3481 434 
Q 3481 -459 3084 -895 
Q 2688 -1331 1869 -1331 
Q 1566 -1331 1297 -1286 
Q 1028 -1241 775 -1147 
L 775 -588 
Q 1028 -725 1275 -790 
Q 1522 -856 1778 -856 
Q 2344 -856 2625 -561 
Q 2906 -266 2906 331 
L 2906 616 
Q 2728 306 2450 153 
Q 2172 0 1784 0 
Q 1141 0 747 490 
Q 353 981 353 1791 
Q 353 2603 747 3093 
Q 1141 3584 1784 3584 
Q 2172 3584 2450 3431 
Q 2728 3278 2906 2969 
L 2906 3500 
L 3481 3500 
L 3481 434 
z
" transform="scale(0.015625)"/>
      <path id="DejaVuSans-68" d="M 3513 2113 
L 3513 0 
L 2938 0 
L 2938 2094 
Q 2938 2591 2744 2837 
Q 2550 3084 2163 3084 
Q 1697 3084 1428 2787 
Q 1159 2491 1159 1978 
L 1159 0 
L 581 0 
L 581 4863 
L 1159 4863 
L 1159 2956 
Q 1366 3272 1645 3428 
Q 1925 3584 2291 3584 
Q 2894 3584 3203 3211 
Q 3513 2838 3513 2113 
z
" transform="scale(0.015625)"/>
      <path id="DejaVuSans-20" transform="scale(0.015625)"/>
      <path id="DejaVuSans-50" d="M 1259 4147 
L 1259 2394 
L 2053 2394 
Q 2494 2394 2734 2622 
Q 2975 2850 2975 3272 
Q 2975 3691 2734 3919 
Q 2494 4147 2053 4147 
L 1259 4147 
z
M 628 4666 
L 2053 4666 
Q 2838 4666 3239 4311 
Q 3641 3956 3641 3272 
Q 3641 2581 3239 2228 
Q 2838 1875 2053 1875 
L 1259 1875 
L 1259 0 
L 628 0 
L 628 4666 
z
" transform="scale(0.015625)"/>
      <path id="DejaVuSans-73" d="M 2834 3397 
L 2834 2853 
Q 2591 2978 2328 3040 
Q 2066 3103 1784 3103 
Q 1356 3103 1142 2972 
Q 928 2841 928 2578 
Q 928 2378 1081 2264 
Q 1234 2150 1697 2047 
L 1894 2003 
Q 2506 1872 2764 1633 
Q 3022 1394 3022 966 
Q 3022 478 2636 193 
Q 2250 -91 1575 -91 
Q 1294 -91 989 -36 
Q 684 19 347 128 
L 347 722 
Q 666 556 975 473 
Q 1284 391 1588 391 
Q 1994 391 2212 530 
Q 2431 669 2431 922 
Q 2431 1156 2273 1281 
Q 2116 1406 1581 1522 
L 1381 1569 
Q 847 1681 609 1914 
Q 372 2147 372 2553 
Q 372 3047 722 3315 
Q 1072 3584 1716 3584 
Q 2034 3584 2315 3537 
Q 2597 3491 2834 3397 
z
" transform="scale(0.015625)"/>
      <path id="DejaVuSans-6f" d="M 1959 3097 
Q 1497 3097 1228 2736 
Q 959 2375 959 1747 
Q 959 1119 1226 758 
Q 1494 397 1959 397 
Q 2419 397 2687 759 
Q 2956 1122 2956 1747 
Q 2956 2369 2687 2733 
Q 2419 3097 1959 3097 
z
M 1959 3584 
Q 2709 3584 3137 3096 
Q 3566 2609 3566 1747 
Q 3566 888 3137 398 
Q 2709 -91 1959 -91 
Q 1206 -91 779 398 
Q 353 888 353 1747 
Q 353 2609 779 3096 
Q 1206 3584 1959 3584 
z
" transform="scale(0.015625)"/>
      <path id="DejaVuSans-6e" d="M 3513 2113 
L 3513 0 
L 2938 0 
L 2938 2094 
Q 2938 2591 2744 2837 
Q 2550 3084 2163 3084 
Q 1697 3084 1428 2787 
Q 1159 2491 1159 1978 
L 1159 0 
L 581 0 
L 581 3500 
L 1159 3500 
L 1159 2956 
Q 1366 3272 1645 3428 
Q 1925 3584 2291 3584 
Q 2894 3584 3203 3211 
Q 3513 2838 3513 2113 
z
" transform="scale(0.015625)"/>
      <path id="DejaVuSans-76" d="M 191 3500 
L 800 3500 
L 1894 563 
L 2988 3500 
L 3597 3500 
L 2284 0 
L 1503 0 
L 191 3500 
z
" transform="scale(0.015625)"/>
      <path id="DejaVuSans-72" d="M 2631 2963 
Q 2534 3019 2420 3045 
Q 2306 3072 2169 3072 
Q 1681 3072 1420 2755 
Q 1159 2438 1159 1844 
L 1159 0 
L 581 0 
L 581 3500 
L 1159 3500 
L 1159 2956 
Q 1341 3275 1631 3429 
Q 1922 3584 2338 3584 
Q 2397 3584 2469 3576 
Q 2541 3569 2628 3553 
L 2631 2963 
z
" transform="scale(0.015625)"/>
      <path id="DejaVuSans-52" d="M 2841 2188 
Q 3044 2119 3236 1894 
Q 3428 1669 3622 1275 
L 4263 0 
L 3584 0 
L 2988 1197 
Q 2756 1666 2539 1819 
Q 2322 1972 1947 1972 
L 1259 1972 
L 1259 0 
L 628 0 
L 628 4666 
L 2053 4666 
Q 2853 4666 3247 4331 
Q 3641 3997 3641 3322 
Q 3641 2881 3436 2590 
Q 3231 2300 2841 2188 
z
M 1259 4147 
L 1259 2491 
L 2053 2491 
Q 2509 2491 2742 2702 
Q 2975 2913 2975 3322 
Q 2975 3731 2742 3939 
Q 2509 4147 2053 4147 
L 1259 4147 
z
" transform="scale(0.015625)"/>
      <path id="DejaVuSans-63" d="M 3122 3366 
L 3122 2828 
Q 2878 2963 2633 3030 
Q 2388 3097 2138 3097 
Q 1578 3097 1268 2742 
Q 959 2388 959 1747 
Q 959 1106 1268 751 
Q 1578 397 2138 397 
Q 2388 397 2633 464 
Q 2878 531 3122 666 
L 3122 134 
Q 2881 22 2623 -34 
Q 2366 -91 2075 -91 
Q 1284 -91 818 406 
Q 353 903 353 1747 
Q 353 2603 823 3093 
Q 1294 3584 2113 3584 
Q 2378 3584 2631 3529 
Q 2884 3475 3122 3366 
z
" transform="scale(0.015625)"/>
      <path id="DejaVuSans-66" d="M 2375 4863 
L 2375 4384 
L 1825 4384 
Q 1516 4384 1395 4259 
Q 1275 4134 1275 3809 
L 1275 3500 
L 2222 3500 
L 2222 3053 
L 1275 3053 
L 1275 0 
L 697 0 
L 697 3053 
L 147 3053 
L 147 3500 
L 697 3500 
L 697 3744 
Q 697 4328 969 4595 
Q 1241 4863 1831 4863 
L 2375 4863 
z
" transform="scale(0.015625)"/>
      <path id="DejaVuSans-43" d="M 4122 4306 
L 4122 3641 
Q 3803 3938 3442 4084 
Q 3081 4231 2675 4231 
Q 1875 4231 1450 3742 
Q 1025 3253 1025 2328 
Q 1025 1406 1450 917 
Q 1875 428 2675 428 
Q 3081 428 3442 575 
Q 3803 722 4122 1019 
L 4122 359 
Q 3791 134 3420 21 
Q 3050 -91 2638 -91 
Q 1578 -91 968 557 
Q 359 1206 359 2328 
Q 359 3453 968 4101 
Q 1578 4750 2638 4750 
Q 3056 4750 3426 4639 
Q 3797 4528 4122 4306 
z
" transform="scale(0.015625)"/>
      <path id="DejaVuSans-54" d="M -19 4666 
L 3928 4666 
L 3928 4134 
L 2272 4134 
L 2272 0 
L 1638 0 
L 1638 4134 
L -19 4134 
L -19 4666 
z
" transform="scale(0.015625)"/>
     </defs>
     <use xlink:href="#DejaVuSans-57"/>
     <use xlink:href="#DejaVuSans-65" transform="translate(93.001953 0)"/>
     <use xlink:href="#DejaVuSans-69" transform="translate(154.525391 0)"/>
     <use xlink:href="#DejaVuSans-67" transform="translate(182.308594 0)"/>
     <use xlink:href="#DejaVuSans-68" transform="translate(245.785156 0)"/>
     <use xlink:href="#DejaVuSans-74" transform="translate(309.164062 0)"/>
     <use xlink:href="#DejaVuSans-65" transform="translate(348.373047 0)"/>
     <use xlink:href="#DejaVuSans-64" transform="translate(409.896484 0)"/>
     <use xlink:href="#DejaVuSans-20" transform="translate(473.373047 0)"/>
     <use xlink:href="#DejaVuSans-50" transform="translate(505.160156 0)"/>
     <use xlink:href="#DejaVuSans-73" transform="translate(563.712891 0)"/>
     <use xlink:href="#DejaVuSans-65" transform="translate(615.8125 0)"/>
     <use xlink:href="#DejaVuSans-75" transform="translate(677.335938 0)"/>
     <use xlink:href="#DejaVuSans-64" transform="translate(740.714844 0)"/>
     <use xlink:href="#DejaVuSans-6f" transform="translate(804.191406 0)"/>
     <use xlink:href="#DejaVuSans-69" transform="translate(865.373047 0)"/>
     <use xlink:href="#DejaVuSans-6e" transform="translate(893.15625 0)"/>
     <use xlink:href="#DejaVuSans-76" transform="translate(956.535156 0)"/>
     <use xlink:href="#DejaVuSans-65" transform="translate(1015.714844 0)"/>
     <use xlink:href="#DejaVuSans-72" transform="translate(1077.238281 0)"/>
     <use xlink:href="#DejaVuSans-73" transform="translate(1118.351562 0)"/>
     <use xlink:href="#DejaVuSans-65" transform="translate(1170.451172 0)"/>
     <use xlink:href="#DejaVuSans-20" transform="translate(1231.974609 0)"/>
     <use xlink:href="#DejaVuSans-52" transform="translate(1263.761719 0)"/>
     <use xlink:href="#DejaVuSans-65" transform="translate(1328.744141 0)"/>
     <use xlink:href="#DejaVuSans-63" transform="translate(1390.267578 0)"/>
     <use xlink:href="#DejaVuSans-6f" transform="translate(1445.248047 0)"/>
     <use xlink:href="#DejaVuSans-6e" transform="translate(1506.429688 0)"/>
     <use xlink:href="#DejaVuSans-73" transform="translate(1569.808594 0)"/>
     <use xlink:href="#DejaVuSans-74" transform="translate(1621.908203 0)"/>
     <use xlink:href="#DejaVuSans-72" transform="translate(1661.117188 0)"/>
     <use xlink:href="#DejaVuSans-75" transform="translate(1702.230469 0)"/>
     <use xlink:href="#DejaVuSans-63" transform="translate(1765.609375 0)"/>
     <use xlink:href="#DejaVuSans-74" transform="translate(1820.589844 0)"/>
     <use xlink:href="#DejaVuSans-69" transform="translate(1859.798828 0)"/>
     <use xlink:href="#DejaVuSans-6f" transform="translate(1887.582031 0)"/>
     <use xlink:href="#DejaVuSans-6e" transform="translate(1948.763672 0)"/>
     <use xlink:href="#DejaVuSans-20" transform="translate(2012.142578 0)"/>
     <use xlink:href="#DejaVuSans-66" transform="translate(2043.929688 0)"/>
     <use xlink:href="#DejaVuSans-72" transform="translate(2079.134766 0)"/>
     <use xlink:href="#DejaVuSans-6f" transform="translate(2117.998047 0)"/>
     <use xlink:href="#DejaVuSans-6d" transform="translate(2179.179688 0)"/>
     <use xlink:href="#DejaVuSans-20" transform="translate(2276.591797 0)"/>
     <use xlink:href="#DejaVuSans-43" transform="translate(2308.378906 0)"/>
     <use xlink:href="#DejaVuSans-57" transform="translate(2378.203125 0)"/>
     <use xlink:href="#DejaVuSans-54" transform="translate(2477.080078 0)"/>
    </g>
   </g>
   <g id="legend_1">
    <g id="patch_7">
     <path d="M 511.679063 59.674375 
L 698.17125 59.674375 
Q 700.17125 59.674375 700.17125 57.674375 
L 700.17125 29.318125 
Q 700.17125 27.318125 698.17125 27.318125 
L 511.679063 27.318125 
Q 509.679063 27.318125 509.679063 29.318125 
L 509.679063 57.674375 
Q 509.679063 59.674375 511.679063 59.674375 
z
" style="fill: #ffffff; opacity: 0.8; stroke: #cccccc; stroke-linejoin: miter"/>
    </g>
    <g id="line2d_25">
     <path d="M 513.679063 35.416563 
L 523.679063 35.416563 
L 533.679063 35.416563 
" style="fill: none; stroke: #1f77b4; stroke-width: 1.5; stroke-linecap: square"/>
    </g>
    <g id="text_15">
     <!-- Original Signal -->
     <g transform="translate(541.679063 38.916563) scale(0.1 -0.1)">
      <defs>
       <path id="DejaVuSans-4f" d="M 2522 4238 
Q 1834 4238 1429 3725 
Q 1025 3213 1025 2328 
Q 1025 1447 1429 934 
Q 1834 422 2522 422 
Q 3209 422 3611 934 
Q 4013 1447 4013 2328 
Q 4013 3213 3611 3725 
Q 3209 4238 2522 4238 
z
M 2522 4750 
Q 3503 4750 4090 4092 
Q 4678 3434 4678 2328 
Q 4678 1225 4090 567 
Q 3503 -91 2522 -91 
Q 1538 -91 948 565 
Q 359 1222 359 2328 
Q 359 3434 948 4092 
Q 1538 4750 2522 4750 
z
" transform="scale(0.015625)"/>
       <path id="DejaVuSans-61" d="M 2194 1759 
Q 1497 1759 1228 1600 
Q 959 1441 959 1056 
Q 959 750 1161 570 
Q 1363 391 1709 391 
Q 2188 391 2477 730 
Q 2766 1069 2766 1631 
L 2766 1759 
L 2194 1759 
z
M 3341 1997 
L 3341 0 
L 2766 0 
L 2766 531 
Q 2569 213 2275 61 
Q 1981 -91 1556 -91 
Q 1019 -91 701 211 
Q 384 513 384 1019 
Q 384 1609 779 1909 
Q 1175 2209 1959 2209 
L 2766 2209 
L 2766 2266 
Q 2766 2663 2505 2880 
Q 2244 3097 1772 3097 
Q 1472 3097 1187 3025 
Q 903 2953 641 2809 
L 641 3341 
Q 956 3463 1253 3523 
Q 1550 3584 1831 3584 
Q 2591 3584 2966 3190 
Q 3341 2797 3341 1997 
z
" transform="scale(0.015625)"/>
       <path id="DejaVuSans-53" d="M 3425 4513 
L 3425 3897 
Q 3066 4069 2747 4153 
Q 2428 4238 2131 4238 
Q 1616 4238 1336 4038 
Q 1056 3838 1056 3469 
Q 1056 3159 1242 3001 
Q 1428 2844 1947 2747 
L 2328 2669 
Q 3034 2534 3370 2195 
Q 3706 1856 3706 1288 
Q 3706 609 3251 259 
Q 2797 -91 1919 -91 
Q 1588 -91 1214 -16 
Q 841 59 441 206 
L 441 856 
Q 825 641 1194 531 
Q 1563 422 1919 422 
Q 2459 422 2753 634 
Q 3047 847 3047 1241 
Q 3047 1584 2836 1778 
Q 2625 1972 2144 2069 
L 1759 2144 
Q 1053 2284 737 2584 
Q 422 2884 422 3419 
Q 422 4038 858 4394 
Q 1294 4750 2059 4750 
Q 2388 4750 2728 4690 
Q 3069 4631 3425 4513 
z
" transform="scale(0.015625)"/>
      </defs>
      <use xlink:href="#DejaVuSans-4f"/>
      <use xlink:href="#DejaVuSans-72" transform="translate(78.710938 0)"/>
      <use xlink:href="#DejaVuSans-69" transform="translate(119.824219 0)"/>
      <use xlink:href="#DejaVuSans-67" transform="translate(147.607422 0)"/>
      <use xlink:href="#DejaVuSans-69" transform="translate(211.083984 0)"/>
      <use xlink:href="#DejaVuSans-6e" transform="translate(238.867188 0)"/>
      <use xlink:href="#DejaVuSans-61" transform="translate(302.246094 0)"/>
      <use xlink:href="#DejaVuSans-6c" transform="translate(363.525391 0)"/>
      <use xlink:href="#DejaVuSans-20" transform="translate(391.308594 0)"/>
      <use xlink:href="#DejaVuSans-53" transform="translate(423.095703 0)"/>
      <use xlink:href="#DejaVuSans-69" transform="translate(486.572266 0)"/>
      <use xlink:href="#DejaVuSans-67" transform="translate(514.355469 0)"/>
      <use xlink:href="#DejaVuSans-6e" transform="translate(577.832031 0)"/>
      <use xlink:href="#DejaVuSans-61" transform="translate(641.210938 0)"/>
      <use xlink:href="#DejaVuSans-6c" transform="translate(702.490234 0)"/>
     </g>
    </g>
    <g id="line2d_26">
     <path d="M 513.679063 50.094688 
L 523.679063 50.094688 
L 533.679063 50.094688 
" style="fill: none; stroke-dasharray: 5.55,2.4; stroke-dashoffset: 0; stroke: #ff7f0e; stroke-width: 1.5"/>
    </g>
    <g id="text_16">
     <!-- Reconstructed (Weighted SVD) -->
     <g transform="translate(541.679063 53.594688) scale(0.1 -0.1)">
      <defs>
       <path id="DejaVuSans-28" d="M 1984 4856 
Q 1566 4138 1362 3434 
Q 1159 2731 1159 2009 
Q 1159 1288 1364 580 
Q 1569 -128 1984 -844 
L 1484 -844 
Q 1016 -109 783 600 
Q 550 1309 550 2009 
Q 550 2706 781 3412 
Q 1013 4119 1484 4856 
L 1984 4856 
z
" transform="scale(0.015625)"/>
       <path id="DejaVuSans-56" d="M 1831 0 
L 50 4666 
L 709 4666 
L 2188 738 
L 3669 4666 
L 4325 4666 
L 2547 0 
L 1831 0 
z
" transform="scale(0.015625)"/>
       <path id="DejaVuSans-44" d="M 1259 4147 
L 1259 519 
L 2022 519 
Q 2988 519 3436 956 
Q 3884 1394 3884 2338 
Q 3884 3275 3436 3711 
Q 2988 4147 2022 4147 
L 1259 4147 
z
M 628 4666 
L 1925 4666 
Q 3281 4666 3915 4102 
Q 4550 3538 4550 2338 
Q 4550 1131 3912 565 
Q 3275 0 1925 0 
L 628 0 
L 628 4666 
z
" transform="scale(0.015625)"/>
       <path id="DejaVuSans-29" d="M 513 4856 
L 1013 4856 
Q 1481 4119 1714 3412 
Q 1947 2706 1947 2009 
Q 1947 1309 1714 600 
Q 1481 -109 1013 -844 
L 513 -844 
Q 928 -128 1133 580 
Q 1338 1288 1338 2009 
Q 1338 2731 1133 3434 
Q 928 4138 513 4856 
z
" transform="scale(0.015625)"/>
      </defs>
      <use xlink:href="#DejaVuSans-52"/>
      <use xlink:href="#DejaVuSans-65" transform="translate(64.982422 0)"/>
      <use xlink:href="#DejaVuSans-63" transform="translate(126.505859 0)"/>
      <use xlink:href="#DejaVuSans-6f" transform="translate(181.486328 0)"/>
      <use xlink:href="#DejaVuSans-6e" transform="translate(242.667969 0)"/>
      <use xlink:href="#DejaVuSans-73" transform="translate(306.046875 0)"/>
      <use xlink:href="#DejaVuSans-74" transform="translate(358.146484 0)"/>
      <use xlink:href="#DejaVuSans-72" transform="translate(397.355469 0)"/>
      <use xlink:href="#DejaVuSans-75" transform="translate(438.46875 0)"/>
      <use xlink:href="#DejaVuSans-63" transform="translate(501.847656 0)"/>
      <use xlink:href="#DejaVuSans-74" transform="translate(556.828125 0)"/>
      <use xlink:href="#DejaVuSans-65" transform="translate(596.037109 0)"/>
      <use xlink:href="#DejaVuSans-64" transform="translate(657.560547 0)"/>
      <use xlink:href="#DejaVuSans-20" transform="translate(721.037109 0)"/>
      <use xlink:href="#DejaVuSans-28" transform="translate(752.824219 0)"/>
      <use xlink:href="#DejaVuSans-57" transform="translate(791.837891 0)"/>
      <use xlink:href="#DejaVuSans-65" transform="translate(884.839844 0)"/>
      <use xlink:href="#DejaVuSans-69" transform="translate(946.363281 0)"/>
      <use xlink:href="#DejaVuSans-67" transform="translate(974.146484 0)"/>
      <use xlink:href="#DejaVuSans-68" transform="translate(1037.623047 0)"/>
      <use xlink:href="#DejaVuSans-74" transform="translate(1101.001953 0)"/>
      <use xlink:href="#DejaVuSans-65" transform="translate(1140.210938 0)"/>
      <use xlink:href="#DejaVuSans-64" transform="translate(1201.734375 0)"/>
      <use xlink:href="#DejaVuSans-20" transform="translate(1265.210938 0)"/>
      <use xlink:href="#DejaVuSans-53" transform="translate(1296.998047 0)"/>
      <use xlink:href="#DejaVuSans-56" transform="translate(1360.474609 0)"/>
      <use xlink:href="#DejaVuSans-44" transform="translate(1428.882812 0)"/>
      <use xlink:href="#DejaVuSans-29" transform="translate(1505.884766 0)"/>
     </g>
    </g>
   </g>
  </g>
 </g>
 <defs>
  <clipPath id="pcb4c0f9d09">
   <rect x="43.78125" y="22.318125" width="661.39" height="220.6"/>
  </clipPath>
 </defs>
</svg>
